<svg width="1680" height="500" viewBox="0 0 1680 500" fill="none" xmlns="http://www.w3.org/2000/svg">
<g id="Button Pack 02">
<path d="M0 2C0 0.895435 0.895431 0 2 0H1678C1679.1 0 1680 0.895431 1680 2V498C1680 499.105 1679.1 500 1678 500H2.00001C0.895443 500 0 499.105 0 498V2Z" fill="#232323"/>
<path d="M2 1H1678V-1H2V1ZM1679 2V498H1681V2H1679ZM1678 499H2.00001V501H1678V499ZM1 498V2H-1V498H1ZM2.00001 499C1.44772 499 1 498.552 1 498H-1C-1 499.657 0.343166 501 2.00001 501V499ZM1679 498C1679 498.552 1678.55 499 1678 499V501C1679.66 501 1681 499.657 1681 498H1679ZM1678 1C1678.55 1 1679 1.44772 1679 2H1681C1681 0.343138 1679.66 -1 1678 -1V1ZM2 -1C0.343143 -1 -1 0.343152 -1 2H1C1 1.44772 1.44772 1 2 1V-1Z" fill="white" fill-opacity="0.1"/>
<g id="Button v4 08" clip-path="url(#clip0_1_337)">
<g id="Border">
<path d="M100 100V115H103V103L115 103V100H100Z" fill="#AF3931"/>
<path d="M100 160V145H103V157H115V160H100Z" fill="#AF3931"/>
<path d="M250 100V115H247V103L235 103V100H250Z" fill="#AF3931"/>
<path d="M250 160V145H247V157H235V160H250Z" fill="#AF3931"/>
</g>
<rect id="Rectangle 6" x="105" y="105" width="140" height="50" fill="#98231B" fill-opacity="0.2"/>
<g id="Union">
<path d="M228 103V100H123V103L228 103Z" fill="white" fill-opacity="0.2"/>
<path d="M228 160V157H123V160H228Z" fill="white" fill-opacity="0.2"/>
<path d="M100 123H103V138H100V123Z" fill="white" fill-opacity="0.2"/>
<path d="M250 123H247V138H250V123Z" fill="white" fill-opacity="0.2"/>
</g>
<path id="Use" d="M158.528 139.192C156.32 139.192 154.584 138.56 153.32 137.296C152.056 136.032 151.424 134.184 151.424 131.752V122.2H153.824V131.656C153.824 133.528 154.232 134.896 155.048 135.76C155.88 136.624 157.048 137.056 158.552 137.056C160.072 137.056 161.24 136.624 162.056 135.76C162.888 134.896 163.304 133.528 163.304 131.656V122.2H165.632V131.752C165.632 134.184 165 136.032 163.736 137.296C162.488 138.56 160.752 139.192 158.528 139.192ZM177.465 139.144C176.409 139.144 175.401 139 174.441 138.712C173.497 138.424 172.753 138.072 172.209 137.656L173.169 135.832C173.713 136.2 174.385 136.512 175.185 136.768C175.985 137.024 176.801 137.152 177.633 137.152C178.705 137.152 179.473 137 179.937 136.696C180.417 136.392 180.657 135.968 180.657 135.424C180.657 135.024 180.513 134.712 180.225 134.488C179.937 134.264 179.553 134.096 179.073 133.984C178.609 133.872 178.089 133.776 177.513 133.696C176.937 133.6 176.361 133.488 175.785 133.36C175.209 133.216 174.681 133.024 174.201 132.784C173.721 132.528 173.337 132.184 173.049 131.752C172.761 131.304 172.617 130.712 172.617 129.976C172.617 129.208 172.833 128.536 173.265 127.96C173.697 127.384 174.305 126.944 175.089 126.64C175.889 126.32 176.833 126.16 177.921 126.16C178.753 126.16 179.593 126.264 180.441 126.472C181.305 126.664 182.009 126.944 182.553 127.312L181.569 129.136C180.993 128.752 180.393 128.488 179.769 128.344C179.145 128.2 178.521 128.128 177.897 128.128C176.889 128.128 176.137 128.296 175.641 128.632C175.145 128.952 174.897 129.368 174.897 129.88C174.897 130.312 175.041 130.648 175.329 130.888C175.633 131.112 176.017 131.288 176.481 131.416C176.961 131.544 177.489 131.656 178.065 131.752C178.641 131.832 179.217 131.944 179.793 132.088C180.369 132.216 180.889 132.4 181.353 132.64C181.833 132.88 182.217 133.216 182.505 133.648C182.809 134.08 182.961 134.656 182.961 135.376C182.961 136.144 182.737 136.808 182.289 137.368C181.841 137.928 181.209 138.368 180.393 138.688C179.577 138.992 178.601 139.144 177.465 139.144ZM195.104 139.144C193.744 139.144 192.544 138.864 191.504 138.304C190.48 137.744 189.68 136.976 189.104 136C188.544 135.024 188.264 133.904 188.264 132.64C188.264 131.376 188.536 130.256 189.08 129.28C189.64 128.304 190.4 127.544 191.36 127C192.336 126.44 193.432 126.16 194.648 126.16C195.88 126.16 196.968 126.432 197.912 126.976C198.856 127.52 199.592 128.288 200.12 129.28C200.664 130.256 200.936 131.4 200.936 132.712C200.936 132.808 200.928 132.92 200.912 133.048C200.912 133.176 200.904 133.296 200.888 133.408H190.064V131.752H199.688L198.752 132.328C198.768 131.512 198.6 130.784 198.248 130.144C197.896 129.504 197.408 129.008 196.784 128.656C196.176 128.288 195.464 128.104 194.648 128.104C193.848 128.104 193.136 128.288 192.512 128.656C191.888 129.008 191.4 129.512 191.048 130.168C190.696 130.808 190.52 131.544 190.52 132.376V132.76C190.52 133.608 190.712 134.368 191.096 135.04C191.496 135.696 192.048 136.208 192.752 136.576C193.456 136.944 194.264 137.128 195.176 137.128C195.928 137.128 196.608 137 197.216 136.744C197.84 136.488 198.384 136.104 198.848 135.592L200.12 137.08C199.544 137.752 198.824 138.264 197.96 138.616C197.112 138.968 196.16 139.144 195.104 139.144Z" fill="#AF3931"/>
<g id="Dots">
<path d="M110.5 119C109.672 119 109 118.328 109 117.5C109 116.672 109.672 116 110.5 116C111.328 116 112 116.672 112 117.5C112 118.328 111.328 119 110.5 119Z" fill="#AF3931"/>
<path d="M110.5 131C109.672 131 109 130.328 109 129.5C109 128.672 109.672 128 110.5 128C111.328 128 112 128.672 112 129.5C112 130.328 111.328 131 110.5 131Z" fill="#AF3931"/>
<path d="M110.5 143C109.672 143 109 142.328 109 141.5C109 140.672 109.672 140 110.5 140C111.328 140 112 140.672 112 141.5C112 142.328 111.328 143 110.5 143Z" fill="#AF3931"/>
</g>
<g id="Dots_2">
<path d="M110.5 119C109.672 119 109 118.328 109 117.5C109 116.672 109.672 116 110.5 116C111.328 116 112 116.672 112 117.5C112 118.328 111.328 119 110.5 119Z" fill="#AF3931"/>
<path d="M110.5 131C109.672 131 109 130.328 109 129.5C109 128.672 109.672 128 110.5 128C111.328 128 112 128.672 112 129.5C112 130.328 111.328 131 110.5 131Z" fill="#AF3931"/>
<path d="M110.5 143C109.672 143 109 142.328 109 141.5C109 140.672 109.672 140 110.5 140C111.328 140 112 140.672 112 141.5C112 142.328 111.328 143 110.5 143Z" fill="#AF3931"/>
</g>
</g>
<g id="Button v6 08" clip-path="url(#clip1_1_337)">
<g id="Border_2">
<path d="M100 340V355H103V343L115 343V340H100Z" fill="#AF3931"/>
<path d="M100 400V385H103V397H115V400H100Z" fill="#AF3931"/>
<path d="M250 340V355H247V343L235 343V340H250Z" fill="#AF3931"/>
<path d="M250 400V385H247V397H235V400H250Z" fill="#AF3931"/>
</g>
<g id="Union_2">
<path d="M228 343V340H123V343L228 343Z" fill="white" fill-opacity="0.2"/>
<path d="M228 400V397H123V400H228Z" fill="white" fill-opacity="0.2"/>
<path d="M100 363H103V378H100V363Z" fill="white" fill-opacity="0.2"/>
<path d="M250 363H247V378H250V363Z" fill="white" fill-opacity="0.2"/>
</g>
<path id="Use_2" d="M158.528 379.192C156.32 379.192 154.584 378.56 153.32 377.296C152.056 376.032 151.424 374.184 151.424 371.752V362.2H153.824V371.656C153.824 373.528 154.232 374.896 155.048 375.76C155.88 376.624 157.048 377.056 158.552 377.056C160.072 377.056 161.24 376.624 162.056 375.76C162.888 374.896 163.304 373.528 163.304 371.656V362.2H165.632V371.752C165.632 374.184 165 376.032 163.736 377.296C162.488 378.56 160.752 379.192 158.528 379.192ZM177.465 379.144C176.409 379.144 175.401 379 174.441 378.712C173.497 378.424 172.753 378.072 172.209 377.656L173.169 375.832C173.713 376.2 174.385 376.512 175.185 376.768C175.985 377.024 176.801 377.152 177.633 377.152C178.705 377.152 179.473 377 179.937 376.696C180.417 376.392 180.657 375.968 180.657 375.424C180.657 375.024 180.513 374.712 180.225 374.488C179.937 374.264 179.553 374.096 179.073 373.984C178.609 373.872 178.089 373.776 177.513 373.696C176.937 373.6 176.361 373.488 175.785 373.36C175.209 373.216 174.681 373.024 174.201 372.784C173.721 372.528 173.337 372.184 173.049 371.752C172.761 371.304 172.617 370.712 172.617 369.976C172.617 369.208 172.833 368.536 173.265 367.96C173.697 367.384 174.305 366.944 175.089 366.64C175.889 366.32 176.833 366.16 177.921 366.16C178.753 366.16 179.593 366.264 180.441 366.472C181.305 366.664 182.009 366.944 182.553 367.312L181.569 369.136C180.993 368.752 180.393 368.488 179.769 368.344C179.145 368.2 178.521 368.128 177.897 368.128C176.889 368.128 176.137 368.296 175.641 368.632C175.145 368.952 174.897 369.368 174.897 369.88C174.897 370.312 175.041 370.648 175.329 370.888C175.633 371.112 176.017 371.288 176.481 371.416C176.961 371.544 177.489 371.656 178.065 371.752C178.641 371.832 179.217 371.944 179.793 372.088C180.369 372.216 180.889 372.4 181.353 372.64C181.833 372.88 182.217 373.216 182.505 373.648C182.809 374.08 182.961 374.656 182.961 375.376C182.961 376.144 182.737 376.808 182.289 377.368C181.841 377.928 181.209 378.368 180.393 378.688C179.577 378.992 178.601 379.144 177.465 379.144ZM195.104 379.144C193.744 379.144 192.544 378.864 191.504 378.304C190.48 377.744 189.68 376.976 189.104 376C188.544 375.024 188.264 373.904 188.264 372.64C188.264 371.376 188.536 370.256 189.08 369.28C189.64 368.304 190.4 367.544 191.36 367C192.336 366.44 193.432 366.16 194.648 366.16C195.88 366.16 196.968 366.432 197.912 366.976C198.856 367.52 199.592 368.288 200.12 369.28C200.664 370.256 200.936 371.4 200.936 372.712C200.936 372.808 200.928 372.92 200.912 373.048C200.912 373.176 200.904 373.296 200.888 373.408H190.064V371.752H199.688L198.752 372.328C198.768 371.512 198.6 370.784 198.248 370.144C197.896 369.504 197.408 369.008 196.784 368.656C196.176 368.288 195.464 368.104 194.648 368.104C193.848 368.104 193.136 368.288 192.512 368.656C191.888 369.008 191.4 369.512 191.048 370.168C190.696 370.808 190.52 371.544 190.52 372.376V372.76C190.52 373.608 190.712 374.368 191.096 375.04C191.496 375.696 192.048 376.208 192.752 376.576C193.456 376.944 194.264 377.128 195.176 377.128C195.928 377.128 196.608 377 197.216 376.744C197.84 376.488 198.384 376.104 198.848 375.592L200.12 377.08C199.544 377.752 198.824 378.264 197.96 378.616C197.112 378.968 196.16 379.144 195.104 379.144Z" fill="#AF3931"/>
<g id="Dots_3">
<path d="M110.5 359C109.672 359 109 358.328 109 357.5C109 356.672 109.672 356 110.5 356C111.328 356 112 356.672 112 357.5C112 358.328 111.328 359 110.5 359Z" fill="#AF3931"/>
<path d="M110.5 371C109.672 371 109 370.328 109 369.5C109 368.672 109.672 368 110.5 368C111.328 368 112 368.672 112 369.5C112 370.328 111.328 371 110.5 371Z" fill="#AF3931"/>
<path d="M110.5 383C109.672 383 109 382.328 109 381.5C109 380.672 109.672 380 110.5 380C111.328 380 112 380.672 112 381.5C112 382.328 111.328 383 110.5 383Z" fill="#AF3931"/>
</g>
</g>
<g id="Button v5 08" clip-path="url(#clip2_1_337)">
<g id="Border_3">
<path d="M100 220V235H103V223L115 223V220H100Z" fill="#EAEAEA"/>
<path d="M100 280V265H103V277H115V280H100Z" fill="#EAEAEA"/>
<path d="M250 220V235H247V223L235 223V220H250Z" fill="#EAEAEA"/>
<path d="M250 280V265H247V277H235V280H250Z" fill="#EAEAEA"/>
</g>
<rect id="Rectangle 6_2" x="105" y="225" width="140" height="50" fill="white" fill-opacity="0.2"/>
<g id="Union_3">
<path d="M228 223V220H123V223L228 223Z" fill="white" fill-opacity="0.2"/>
<path d="M228 280V277H123V280H228Z" fill="white" fill-opacity="0.2"/>
<path d="M100 243H103V258H100V243Z" fill="white" fill-opacity="0.2"/>
<path d="M250 243H247V258H250V243Z" fill="white" fill-opacity="0.2"/>
</g>
<path id="Use_3" d="M158.528 259.192C156.32 259.192 154.584 258.56 153.32 257.296C152.056 256.032 151.424 254.184 151.424 251.752V242.2H153.824V251.656C153.824 253.528 154.232 254.896 155.048 255.76C155.88 256.624 157.048 257.056 158.552 257.056C160.072 257.056 161.24 256.624 162.056 255.76C162.888 254.896 163.304 253.528 163.304 251.656V242.2H165.632V251.752C165.632 254.184 165 256.032 163.736 257.296C162.488 258.56 160.752 259.192 158.528 259.192ZM177.465 259.144C176.409 259.144 175.401 259 174.441 258.712C173.497 258.424 172.753 258.072 172.209 257.656L173.169 255.832C173.713 256.2 174.385 256.512 175.185 256.768C175.985 257.024 176.801 257.152 177.633 257.152C178.705 257.152 179.473 257 179.937 256.696C180.417 256.392 180.657 255.968 180.657 255.424C180.657 255.024 180.513 254.712 180.225 254.488C179.937 254.264 179.553 254.096 179.073 253.984C178.609 253.872 178.089 253.776 177.513 253.696C176.937 253.6 176.361 253.488 175.785 253.36C175.209 253.216 174.681 253.024 174.201 252.784C173.721 252.528 173.337 252.184 173.049 251.752C172.761 251.304 172.617 250.712 172.617 249.976C172.617 249.208 172.833 248.536 173.265 247.96C173.697 247.384 174.305 246.944 175.089 246.64C175.889 246.32 176.833 246.16 177.921 246.16C178.753 246.16 179.593 246.264 180.441 246.472C181.305 246.664 182.009 246.944 182.553 247.312L181.569 249.136C180.993 248.752 180.393 248.488 179.769 248.344C179.145 248.2 178.521 248.128 177.897 248.128C176.889 248.128 176.137 248.296 175.641 248.632C175.145 248.952 174.897 249.368 174.897 249.88C174.897 250.312 175.041 250.648 175.329 250.888C175.633 251.112 176.017 251.288 176.481 251.416C176.961 251.544 177.489 251.656 178.065 251.752C178.641 251.832 179.217 251.944 179.793 252.088C180.369 252.216 180.889 252.4 181.353 252.64C181.833 252.88 182.217 253.216 182.505 253.648C182.809 254.08 182.961 254.656 182.961 255.376C182.961 256.144 182.737 256.808 182.289 257.368C181.841 257.928 181.209 258.368 180.393 258.688C179.577 258.992 178.601 259.144 177.465 259.144ZM195.104 259.144C193.744 259.144 192.544 258.864 191.504 258.304C190.48 257.744 189.68 256.976 189.104 256C188.544 255.024 188.264 253.904 188.264 252.64C188.264 251.376 188.536 250.256 189.08 249.28C189.64 248.304 190.4 247.544 191.36 247C192.336 246.44 193.432 246.16 194.648 246.16C195.88 246.16 196.968 246.432 197.912 246.976C198.856 247.52 199.592 248.288 200.12 249.28C200.664 250.256 200.936 251.4 200.936 252.712C200.936 252.808 200.928 252.92 200.912 253.048C200.912 253.176 200.904 253.296 200.888 253.408H190.064V251.752H199.688L198.752 252.328C198.768 251.512 198.6 250.784 198.248 250.144C197.896 249.504 197.408 249.008 196.784 248.656C196.176 248.288 195.464 248.104 194.648 248.104C193.848 248.104 193.136 248.288 192.512 248.656C191.888 249.008 191.4 249.512 191.048 250.168C190.696 250.808 190.52 251.544 190.52 252.376V252.76C190.52 253.608 190.712 254.368 191.096 255.04C191.496 255.696 192.048 256.208 192.752 256.576C193.456 256.944 194.264 257.128 195.176 257.128C195.928 257.128 196.608 257 197.216 256.744C197.84 256.488 198.384 256.104 198.848 255.592L200.12 257.08C199.544 257.752 198.824 258.264 197.96 258.616C197.112 258.968 196.16 259.144 195.104 259.144Z" fill="#EAEAEA"/>
</g>
<g id="Button v4 07" clip-path="url(#clip3_1_337)">
<g id="Border_4">
<path d="M290 100V115H293V103L305 103V100H290Z" fill="#AF3931"/>
<path d="M290 160V145H293V157H305V160H290Z" fill="#AF3931"/>
<path d="M440 100V115H437V103L425 103V100H440Z" fill="#AF3931"/>
<path d="M440 160V145H437V157H425V160H440Z" fill="#AF3931"/>
</g>
<rect id="Rectangle 6_3" x="295" y="105" width="140" height="50" fill="#98231B" fill-opacity="0.2"/>
<g id="Union_4">
<path d="M418 103V100H313V103L418 103Z" fill="white" fill-opacity="0.2"/>
<path d="M418 160V157H313V160H418Z" fill="white" fill-opacity="0.2"/>
<path d="M290 123H293V138H290V123Z" fill="white" fill-opacity="0.2"/>
<path d="M440 123H437V138H440V123Z" fill="white" fill-opacity="0.2"/>
</g>
<path id="Hack" d="M343.59 122.2H345.99V139H343.59V122.2ZM333.942 139H331.542V122.2H333.942V139ZM343.806 131.512H333.702V129.424H343.806V131.512ZM362.178 139V136.312L362.058 135.808V131.224C362.058 130.248 361.77 129.496 361.194 128.968C360.634 128.424 359.786 128.152 358.65 128.152C357.898 128.152 357.162 128.28 356.442 128.536C355.722 128.776 355.114 129.104 354.618 129.52L353.658 127.792C354.314 127.264 355.098 126.864 356.01 126.592C356.938 126.304 357.906 126.16 358.914 126.16C360.658 126.16 362.002 126.584 362.946 127.432C363.89 128.28 364.362 129.576 364.362 131.32V139H362.178ZM358.002 139.144C357.058 139.144 356.226 138.984 355.506 138.664C354.802 138.344 354.258 137.904 353.874 137.344C353.49 136.768 353.298 136.12 353.298 135.4C353.298 134.712 353.458 134.088 353.778 133.528C354.114 132.968 354.65 132.52 355.386 132.184C356.138 131.848 357.146 131.68 358.41 131.68H362.442V133.336H358.506C357.354 133.336 356.578 133.528 356.178 133.912C355.778 134.296 355.578 134.76 355.578 135.304C355.578 135.928 355.826 136.432 356.322 136.816C356.818 137.184 357.506 137.368 358.386 137.368C359.25 137.368 360.002 137.176 360.642 136.792C361.298 136.408 361.77 135.848 362.058 135.112L362.514 136.696C362.21 137.448 361.674 138.048 360.906 138.496C360.138 138.928 359.17 139.144 358.002 139.144ZM377.77 139.144C376.474 139.144 375.314 138.864 374.29 138.304C373.282 137.744 372.49 136.976 371.914 136C371.338 135.024 371.05 133.904 371.05 132.64C371.05 131.376 371.338 130.256 371.914 129.28C372.49 128.304 373.282 127.544 374.29 127C375.314 126.44 376.474 126.16 377.77 126.16C378.922 126.16 379.946 126.392 380.842 126.856C381.754 127.304 382.458 127.976 382.954 128.872L381.202 130C380.786 129.376 380.274 128.92 379.666 128.632C379.074 128.328 378.434 128.176 377.746 128.176C376.914 128.176 376.17 128.36 375.514 128.728C374.858 129.096 374.338 129.616 373.954 130.288C373.57 130.944 373.378 131.728 373.378 132.64C373.378 133.552 373.57 134.344 373.954 135.016C374.338 135.688 374.858 136.208 375.514 136.576C376.17 136.944 376.914 137.128 377.746 137.128C378.434 137.128 379.074 136.984 379.666 136.696C380.274 136.392 380.786 135.928 381.202 135.304L382.954 136.408C382.458 137.288 381.754 137.968 380.842 138.448C379.946 138.912 378.922 139.144 377.77 139.144ZM391.245 135.928L391.293 132.976L398.613 126.28H401.397L395.781 131.8L394.533 132.856L391.245 135.928ZM389.373 139V121.192H391.677V139H389.373ZM399.093 139L394.101 132.808L395.589 130.96L401.925 139H399.093Z" fill="#AF3931"/>
<g id="Dots_4">
<path d="M300.5 119C299.672 119 299 118.328 299 117.5C299 116.672 299.672 116 300.5 116C301.328 116 302 116.672 302 117.5C302 118.328 301.328 119 300.5 119Z" fill="#AF3931"/>
<path d="M300.5 131C299.672 131 299 130.328 299 129.5C299 128.672 299.672 128 300.5 128C301.328 128 302 128.672 302 129.5C302 130.328 301.328 131 300.5 131Z" fill="#AF3931"/>
<path d="M300.5 143C299.672 143 299 142.328 299 141.5C299 140.672 299.672 140 300.5 140C301.328 140 302 140.672 302 141.5C302 142.328 301.328 143 300.5 143Z" fill="#AF3931"/>
</g>
</g>
<g id="Button v6 07" clip-path="url(#clip4_1_337)">
<g id="Border_5">
<path d="M290 340V355H293V343L305 343V340H290Z" fill="#AF3931"/>
<path d="M290 400V385H293V397H305V400H290Z" fill="#AF3931"/>
<path d="M440 340V355H437V343L425 343V340H440Z" fill="#AF3931"/>
<path d="M440 400V385H437V397H425V400H440Z" fill="#AF3931"/>
</g>
<g id="Union_5">
<path d="M418 343V340H313V343L418 343Z" fill="white" fill-opacity="0.2"/>
<path d="M418 400V397H313V400H418Z" fill="white" fill-opacity="0.2"/>
<path d="M290 363H293V378H290V363Z" fill="white" fill-opacity="0.2"/>
<path d="M440 363H437V378H440V363Z" fill="white" fill-opacity="0.2"/>
</g>
<path id="Hack_2" d="M343.59 362.2H345.99V379H343.59V362.2ZM333.942 379H331.542V362.2H333.942V379ZM343.806 371.512H333.702V369.424H343.806V371.512ZM362.178 379V376.312L362.058 375.808V371.224C362.058 370.248 361.77 369.496 361.194 368.968C360.634 368.424 359.786 368.152 358.65 368.152C357.898 368.152 357.162 368.28 356.442 368.536C355.722 368.776 355.114 369.104 354.618 369.52L353.658 367.792C354.314 367.264 355.098 366.864 356.01 366.592C356.938 366.304 357.906 366.16 358.914 366.16C360.658 366.16 362.002 366.584 362.946 367.432C363.89 368.28 364.362 369.576 364.362 371.32V379H362.178ZM358.002 379.144C357.058 379.144 356.226 378.984 355.506 378.664C354.802 378.344 354.258 377.904 353.874 377.344C353.49 376.768 353.298 376.12 353.298 375.4C353.298 374.712 353.458 374.088 353.778 373.528C354.114 372.968 354.65 372.52 355.386 372.184C356.138 371.848 357.146 371.68 358.41 371.68H362.442V373.336H358.506C357.354 373.336 356.578 373.528 356.178 373.912C355.778 374.296 355.578 374.76 355.578 375.304C355.578 375.928 355.826 376.432 356.322 376.816C356.818 377.184 357.506 377.368 358.386 377.368C359.25 377.368 360.002 377.176 360.642 376.792C361.298 376.408 361.77 375.848 362.058 375.112L362.514 376.696C362.21 377.448 361.674 378.048 360.906 378.496C360.138 378.928 359.17 379.144 358.002 379.144ZM377.77 379.144C376.474 379.144 375.314 378.864 374.29 378.304C373.282 377.744 372.49 376.976 371.914 376C371.338 375.024 371.05 373.904 371.05 372.64C371.05 371.376 371.338 370.256 371.914 369.28C372.49 368.304 373.282 367.544 374.29 367C375.314 366.44 376.474 366.16 377.77 366.16C378.922 366.16 379.946 366.392 380.842 366.856C381.754 367.304 382.458 367.976 382.954 368.872L381.202 370C380.786 369.376 380.274 368.92 379.666 368.632C379.074 368.328 378.434 368.176 377.746 368.176C376.914 368.176 376.17 368.36 375.514 368.728C374.858 369.096 374.338 369.616 373.954 370.288C373.57 370.944 373.378 371.728 373.378 372.64C373.378 373.552 373.57 374.344 373.954 375.016C374.338 375.688 374.858 376.208 375.514 376.576C376.17 376.944 376.914 377.128 377.746 377.128C378.434 377.128 379.074 376.984 379.666 376.696C380.274 376.392 380.786 375.928 381.202 375.304L382.954 376.408C382.458 377.288 381.754 377.968 380.842 378.448C379.946 378.912 378.922 379.144 377.77 379.144ZM391.245 375.928L391.293 372.976L398.613 366.28H401.397L395.781 371.8L394.533 372.856L391.245 375.928ZM389.373 379V361.192H391.677V379H389.373ZM399.093 379L394.101 372.808L395.589 370.96L401.925 379H399.093Z" fill="#AF3931"/>
<g id="Dots_5">
<path d="M300.5 359C299.672 359 299 358.328 299 357.5C299 356.672 299.672 356 300.5 356C301.328 356 302 356.672 302 357.5C302 358.328 301.328 359 300.5 359Z" fill="#AF3931"/>
<path d="M300.5 371C299.672 371 299 370.328 299 369.5C299 368.672 299.672 368 300.5 368C301.328 368 302 368.672 302 369.5C302 370.328 301.328 371 300.5 371Z" fill="#AF3931"/>
<path d="M300.5 383C299.672 383 299 382.328 299 381.5C299 380.672 299.672 380 300.5 380C301.328 380 302 380.672 302 381.5C302 382.328 301.328 383 300.5 383Z" fill="#AF3931"/>
</g>
</g>
<g id="Button v5 07" clip-path="url(#clip5_1_337)">
<g id="Border_6">
<path d="M290 220V235H293V223L305 223V220H290Z" fill="#EAEAEA"/>
<path d="M290 280V265H293V277H305V280H290Z" fill="#EAEAEA"/>
<path d="M440 220V235H437V223L425 223V220H440Z" fill="#EAEAEA"/>
<path d="M440 280V265H437V277H425V280H440Z" fill="#EAEAEA"/>
</g>
<rect id="Rectangle 6_4" x="295" y="225" width="140" height="50" fill="white" fill-opacity="0.2"/>
<g id="Union_6">
<path d="M418 223V220H313V223L418 223Z" fill="white" fill-opacity="0.2"/>
<path d="M418 280V277H313V280H418Z" fill="white" fill-opacity="0.2"/>
<path d="M290 243H293V258H290V243Z" fill="white" fill-opacity="0.2"/>
<path d="M440 243H437V258H440V243Z" fill="white" fill-opacity="0.2"/>
</g>
<path id="Hack_3" d="M343.59 242.2H345.99V259H343.59V242.2ZM333.942 259H331.542V242.2H333.942V259ZM343.806 251.512H333.702V249.424H343.806V251.512ZM362.178 259V256.312L362.058 255.808V251.224C362.058 250.248 361.77 249.496 361.194 248.968C360.634 248.424 359.786 248.152 358.65 248.152C357.898 248.152 357.162 248.28 356.442 248.536C355.722 248.776 355.114 249.104 354.618 249.52L353.658 247.792C354.314 247.264 355.098 246.864 356.01 246.592C356.938 246.304 357.906 246.16 358.914 246.16C360.658 246.16 362.002 246.584 362.946 247.432C363.89 248.28 364.362 249.576 364.362 251.32V259H362.178ZM358.002 259.144C357.058 259.144 356.226 258.984 355.506 258.664C354.802 258.344 354.258 257.904 353.874 257.344C353.49 256.768 353.298 256.12 353.298 255.4C353.298 254.712 353.458 254.088 353.778 253.528C354.114 252.968 354.65 252.52 355.386 252.184C356.138 251.848 357.146 251.68 358.41 251.68H362.442V253.336H358.506C357.354 253.336 356.578 253.528 356.178 253.912C355.778 254.296 355.578 254.76 355.578 255.304C355.578 255.928 355.826 256.432 356.322 256.816C356.818 257.184 357.506 257.368 358.386 257.368C359.25 257.368 360.002 257.176 360.642 256.792C361.298 256.408 361.77 255.848 362.058 255.112L362.514 256.696C362.21 257.448 361.674 258.048 360.906 258.496C360.138 258.928 359.17 259.144 358.002 259.144ZM377.77 259.144C376.474 259.144 375.314 258.864 374.29 258.304C373.282 257.744 372.49 256.976 371.914 256C371.338 255.024 371.05 253.904 371.05 252.64C371.05 251.376 371.338 250.256 371.914 249.28C372.49 248.304 373.282 247.544 374.29 247C375.314 246.44 376.474 246.16 377.77 246.16C378.922 246.16 379.946 246.392 380.842 246.856C381.754 247.304 382.458 247.976 382.954 248.872L381.202 250C380.786 249.376 380.274 248.92 379.666 248.632C379.074 248.328 378.434 248.176 377.746 248.176C376.914 248.176 376.17 248.36 375.514 248.728C374.858 249.096 374.338 249.616 373.954 250.288C373.57 250.944 373.378 251.728 373.378 252.64C373.378 253.552 373.57 254.344 373.954 255.016C374.338 255.688 374.858 256.208 375.514 256.576C376.17 256.944 376.914 257.128 377.746 257.128C378.434 257.128 379.074 256.984 379.666 256.696C380.274 256.392 380.786 255.928 381.202 255.304L382.954 256.408C382.458 257.288 381.754 257.968 380.842 258.448C379.946 258.912 378.922 259.144 377.77 259.144ZM391.245 255.928L391.293 252.976L398.613 246.28H401.397L395.781 251.8L394.533 252.856L391.245 255.928ZM389.373 259V241.192H391.677V259H389.373ZM399.093 259L394.101 252.808L395.589 250.96L401.925 259H399.093Z" fill="#EAEAEA"/>
</g>
<g id="Button v4 06" clip-path="url(#clip6_1_337)">
<g id="Border_7">
<path d="M480 100V115H483V103L495 103V100H480Z" fill="#AF3931"/>
<path d="M480 160V145H483V157H495V160H480Z" fill="#AF3931"/>
<path d="M630 100V115H627V103L615 103V100H630Z" fill="#AF3931"/>
<path d="M630 160V145H627V157H615V160H630Z" fill="#AF3931"/>
</g>
<rect id="Rectangle 6_5" x="485" y="105" width="140" height="50" fill="#98231B" fill-opacity="0.2"/>
<g id="Union_7">
<path d="M608 103V100H503V103L608 103Z" fill="white" fill-opacity="0.2"/>
<path d="M608 160V157H503V160H608Z" fill="white" fill-opacity="0.2"/>
<path d="M480 123H483V138H480V123Z" fill="white" fill-opacity="0.2"/>
<path d="M630 123H627V138H630V123Z" fill="white" fill-opacity="0.2"/>
</g>
<path id="Buy" d="M530.014 139V122.2H537.55C539.486 122.2 540.974 122.592 542.014 123.376C543.054 124.144 543.574 125.2 543.574 126.544C543.574 127.456 543.366 128.224 542.95 128.848C542.55 129.472 542.006 129.952 541.318 130.288C540.63 130.624 539.886 130.792 539.086 130.792L539.518 130.072C540.478 130.072 541.326 130.24 542.062 130.576C542.798 130.912 543.382 131.408 543.814 132.064C544.246 132.704 544.462 133.504 544.462 134.464C544.462 135.904 543.918 137.024 542.83 137.824C541.758 138.608 540.158 139 538.03 139H530.014ZM532.414 137.056H537.934C539.262 137.056 540.278 136.832 540.982 136.384C541.686 135.936 542.038 135.232 542.038 134.272C542.038 133.296 541.686 132.584 540.982 132.136C540.278 131.688 539.262 131.464 537.934 131.464H532.198V129.52H537.334C538.55 129.52 539.494 129.296 540.166 128.848C540.838 128.4 541.174 127.728 541.174 126.832C541.174 125.936 540.838 125.264 540.166 124.816C539.494 124.368 538.55 124.144 537.334 124.144H532.414V137.056ZM556.794 139.144C555.706 139.144 554.746 138.944 553.914 138.544C553.098 138.144 552.458 137.536 551.994 136.72C551.546 135.888 551.322 134.848 551.322 133.6V126.28H553.626V133.336C553.626 134.584 553.922 135.52 554.514 136.144C555.122 136.768 555.97 137.08 557.058 137.08C557.858 137.08 558.554 136.92 559.146 136.6C559.738 136.264 560.194 135.784 560.514 135.16C560.834 134.52 560.994 133.752 560.994 132.856V126.28H563.298V139H561.114V135.568L561.474 136.48C561.058 137.328 560.434 137.984 559.602 138.448C558.77 138.912 557.834 139.144 556.794 139.144ZM571.836 143.8C571.228 143.8 570.636 143.696 570.06 143.488C569.484 143.296 568.988 143.008 568.572 142.624L569.556 140.896C569.876 141.2 570.228 141.432 570.612 141.592C570.996 141.752 571.404 141.832 571.836 141.832C572.396 141.832 572.86 141.688 573.228 141.4C573.596 141.112 573.94 140.6 574.26 139.864L575.052 138.112L575.292 137.824L580.284 126.28H582.54L576.372 140.272C576.004 141.168 575.588 141.872 575.124 142.384C574.676 142.896 574.18 143.256 573.636 143.464C573.092 143.688 572.492 143.8 571.836 143.8ZM574.86 139.408L569.052 126.28H571.452L576.396 137.608L574.86 139.408Z" fill="#AF3931"/>
<g id="Dots_6">
<path d="M490.5 119C489.672 119 489 118.328 489 117.5C489 116.672 489.672 116 490.5 116C491.328 116 492 116.672 492 117.5C492 118.328 491.328 119 490.5 119Z" fill="#AF3931"/>
<path d="M490.5 131C489.672 131 489 130.328 489 129.5C489 128.672 489.672 128 490.5 128C491.328 128 492 128.672 492 129.5C492 130.328 491.328 131 490.5 131Z" fill="#AF3931"/>
<path d="M490.5 143C489.672 143 489 142.328 489 141.5C489 140.672 489.672 140 490.5 140C491.328 140 492 140.672 492 141.5C492 142.328 491.328 143 490.5 143Z" fill="#AF3931"/>
</g>
</g>
<g id="Button v6 06" clip-path="url(#clip7_1_337)">
<g id="Border_8">
<path d="M480 340V355H483V343L495 343V340H480Z" fill="#AF3931"/>
<path d="M480 400V385H483V397H495V400H480Z" fill="#AF3931"/>
<path d="M630 340V355H627V343L615 343V340H630Z" fill="#AF3931"/>
<path d="M630 400V385H627V397H615V400H630Z" fill="#AF3931"/>
</g>
<g id="Union_8">
<path d="M608 343V340H503V343L608 343Z" fill="white" fill-opacity="0.2"/>
<path d="M608 400V397H503V400H608Z" fill="white" fill-opacity="0.2"/>
<path d="M480 363H483V378H480V363Z" fill="white" fill-opacity="0.2"/>
<path d="M630 363H627V378H630V363Z" fill="white" fill-opacity="0.2"/>
</g>
<path id="Buy_2" d="M530.014 379V362.2H537.55C539.486 362.2 540.974 362.592 542.014 363.376C543.054 364.144 543.574 365.2 543.574 366.544C543.574 367.456 543.366 368.224 542.95 368.848C542.55 369.472 542.006 369.952 541.318 370.288C540.63 370.624 539.886 370.792 539.086 370.792L539.518 370.072C540.478 370.072 541.326 370.24 542.062 370.576C542.798 370.912 543.382 371.408 543.814 372.064C544.246 372.704 544.462 373.504 544.462 374.464C544.462 375.904 543.918 377.024 542.83 377.824C541.758 378.608 540.158 379 538.03 379H530.014ZM532.414 377.056H537.934C539.262 377.056 540.278 376.832 540.982 376.384C541.686 375.936 542.038 375.232 542.038 374.272C542.038 373.296 541.686 372.584 540.982 372.136C540.278 371.688 539.262 371.464 537.934 371.464H532.198V369.52H537.334C538.55 369.52 539.494 369.296 540.166 368.848C540.838 368.4 541.174 367.728 541.174 366.832C541.174 365.936 540.838 365.264 540.166 364.816C539.494 364.368 538.55 364.144 537.334 364.144H532.414V377.056ZM556.794 379.144C555.706 379.144 554.746 378.944 553.914 378.544C553.098 378.144 552.458 377.536 551.994 376.72C551.546 375.888 551.322 374.848 551.322 373.6V366.28H553.626V373.336C553.626 374.584 553.922 375.52 554.514 376.144C555.122 376.768 555.97 377.08 557.058 377.08C557.858 377.08 558.554 376.92 559.146 376.6C559.738 376.264 560.194 375.784 560.514 375.16C560.834 374.52 560.994 373.752 560.994 372.856V366.28H563.298V379H561.114V375.568L561.474 376.48C561.058 377.328 560.434 377.984 559.602 378.448C558.77 378.912 557.834 379.144 556.794 379.144ZM571.836 383.8C571.228 383.8 570.636 383.696 570.06 383.488C569.484 383.296 568.988 383.008 568.572 382.624L569.556 380.896C569.876 381.2 570.228 381.432 570.612 381.592C570.996 381.752 571.404 381.832 571.836 381.832C572.396 381.832 572.86 381.688 573.228 381.4C573.596 381.112 573.94 380.6 574.26 379.864L575.052 378.112L575.292 377.824L580.284 366.28H582.54L576.372 380.272C576.004 381.168 575.588 381.872 575.124 382.384C574.676 382.896 574.18 383.256 573.636 383.464C573.092 383.688 572.492 383.8 571.836 383.8ZM574.86 379.408L569.052 366.28H571.452L576.396 377.608L574.86 379.408Z" fill="#AF3931"/>
<g id="Dots_7">
<path d="M490.5 359C489.672 359 489 358.328 489 357.5C489 356.672 489.672 356 490.5 356C491.328 356 492 356.672 492 357.5C492 358.328 491.328 359 490.5 359Z" fill="#AF3931"/>
<path d="M490.5 371C489.672 371 489 370.328 489 369.5C489 368.672 489.672 368 490.5 368C491.328 368 492 368.672 492 369.5C492 370.328 491.328 371 490.5 371Z" fill="#AF3931"/>
<path d="M490.5 383C489.672 383 489 382.328 489 381.5C489 380.672 489.672 380 490.5 380C491.328 380 492 380.672 492 381.5C492 382.328 491.328 383 490.5 383Z" fill="#AF3931"/>
</g>
</g>
<g id="Button v5 06" clip-path="url(#clip8_1_337)">
<g id="Border_9">
<path d="M480 220V235H483V223L495 223V220H480Z" fill="#EAEAEA"/>
<path d="M480 280V265H483V277H495V280H480Z" fill="#EAEAEA"/>
<path d="M630 220V235H627V223L615 223V220H630Z" fill="#EAEAEA"/>
<path d="M630 280V265H627V277H615V280H630Z" fill="#EAEAEA"/>
</g>
<rect id="Rectangle 6_6" x="485" y="225" width="140" height="50" fill="white" fill-opacity="0.2"/>
<g id="Union_9">
<path d="M608 223V220H503V223L608 223Z" fill="white" fill-opacity="0.2"/>
<path d="M608 280V277H503V280H608Z" fill="white" fill-opacity="0.2"/>
<path d="M480 243H483V258H480V243Z" fill="white" fill-opacity="0.2"/>
<path d="M630 243H627V258H630V243Z" fill="white" fill-opacity="0.2"/>
</g>
<path id="Buy_3" d="M530.014 259V242.2H537.55C539.486 242.2 540.974 242.592 542.014 243.376C543.054 244.144 543.574 245.2 543.574 246.544C543.574 247.456 543.366 248.224 542.95 248.848C542.55 249.472 542.006 249.952 541.318 250.288C540.63 250.624 539.886 250.792 539.086 250.792L539.518 250.072C540.478 250.072 541.326 250.24 542.062 250.576C542.798 250.912 543.382 251.408 543.814 252.064C544.246 252.704 544.462 253.504 544.462 254.464C544.462 255.904 543.918 257.024 542.83 257.824C541.758 258.608 540.158 259 538.03 259H530.014ZM532.414 257.056H537.934C539.262 257.056 540.278 256.832 540.982 256.384C541.686 255.936 542.038 255.232 542.038 254.272C542.038 253.296 541.686 252.584 540.982 252.136C540.278 251.688 539.262 251.464 537.934 251.464H532.198V249.52H537.334C538.55 249.52 539.494 249.296 540.166 248.848C540.838 248.4 541.174 247.728 541.174 246.832C541.174 245.936 540.838 245.264 540.166 244.816C539.494 244.368 538.55 244.144 537.334 244.144H532.414V257.056ZM556.794 259.144C555.706 259.144 554.746 258.944 553.914 258.544C553.098 258.144 552.458 257.536 551.994 256.72C551.546 255.888 551.322 254.848 551.322 253.6V246.28H553.626V253.336C553.626 254.584 553.922 255.52 554.514 256.144C555.122 256.768 555.97 257.08 557.058 257.08C557.858 257.08 558.554 256.92 559.146 256.6C559.738 256.264 560.194 255.784 560.514 255.16C560.834 254.52 560.994 253.752 560.994 252.856V246.28H563.298V259H561.114V255.568L561.474 256.48C561.058 257.328 560.434 257.984 559.602 258.448C558.77 258.912 557.834 259.144 556.794 259.144ZM571.836 263.8C571.228 263.8 570.636 263.696 570.06 263.488C569.484 263.296 568.988 263.008 568.572 262.624L569.556 260.896C569.876 261.2 570.228 261.432 570.612 261.592C570.996 261.752 571.404 261.832 571.836 261.832C572.396 261.832 572.86 261.688 573.228 261.4C573.596 261.112 573.94 260.6 574.26 259.864L575.052 258.112L575.292 257.824L580.284 246.28H582.54L576.372 260.272C576.004 261.168 575.588 261.872 575.124 262.384C574.676 262.896 574.18 263.256 573.636 263.464C573.092 263.688 572.492 263.8 571.836 263.8ZM574.86 259.408L569.052 246.28H571.452L576.396 257.608L574.86 259.408Z" fill="#EAEAEA"/>
</g>
<g id="Button v4 05" clip-path="url(#clip9_1_337)">
<g id="Border_10">
<path d="M670 100V115H673V103L685 103V100H670Z" fill="#AF3931"/>
<path d="M670 160V145H673V157H685V160H670Z" fill="#AF3931"/>
<path d="M820 100V115H817V103L805 103V100H820Z" fill="#AF3931"/>
<path d="M820 160V145H817V157H805V160H820Z" fill="#AF3931"/>
</g>
<rect id="Rectangle 6_7" x="675" y="105" width="140" height="50" fill="#98231B" fill-opacity="0.2"/>
<g id="Union_10">
<path d="M798 103V100H693V103L798 103Z" fill="white" fill-opacity="0.2"/>
<path d="M798 160V157H693V160H798Z" fill="white" fill-opacity="0.2"/>
<path d="M670 123H673V138H670V123Z" fill="white" fill-opacity="0.2"/>
<path d="M820 123H817V138H820V123Z" fill="white" fill-opacity="0.2"/>
</g>
<path id="Sell" d="M725.512 139.192C724.232 139.192 723.008 139 721.84 138.616C720.672 138.216 719.752 137.704 719.08 137.08L719.968 135.208C720.608 135.768 721.424 136.232 722.416 136.6C723.408 136.968 724.44 137.152 725.512 137.152C726.488 137.152 727.28 137.04 727.888 136.816C728.496 136.592 728.944 136.288 729.232 135.904C729.52 135.504 729.664 135.056 729.664 134.56C729.664 133.984 729.472 133.52 729.088 133.168C728.72 132.816 728.232 132.536 727.624 132.328C727.032 132.104 726.376 131.912 725.656 131.752C724.936 131.592 724.208 131.408 723.472 131.2C722.752 130.976 722.088 130.696 721.48 130.36C720.888 130.024 720.408 129.576 720.04 129.016C719.672 128.44 719.488 127.704 719.488 126.808C719.488 125.944 719.712 125.152 720.16 124.432C720.624 123.696 721.328 123.112 722.272 122.68C723.232 122.232 724.448 122.008 725.92 122.008C726.896 122.008 727.864 122.136 728.824 122.392C729.784 122.648 730.616 123.016 731.32 123.496L730.528 125.416C729.808 124.936 729.048 124.592 728.248 124.384C727.448 124.16 726.672 124.048 725.92 124.048C724.976 124.048 724.2 124.168 723.592 124.408C722.984 124.648 722.536 124.968 722.248 125.368C721.976 125.768 721.84 126.216 721.84 126.712C721.84 127.304 722.024 127.776 722.392 128.128C722.776 128.48 723.264 128.76 723.856 128.968C724.464 129.176 725.128 129.368 725.848 129.544C726.568 129.704 727.288 129.888 728.008 130.096C728.744 130.304 729.408 130.576 730 130.912C730.608 131.248 731.096 131.696 731.464 132.256C731.832 132.816 732.016 133.536 732.016 134.416C732.016 135.264 731.784 136.056 731.32 136.792C730.856 137.512 730.136 138.096 729.16 138.544C728.2 138.976 726.984 139.192 725.512 139.192ZM744.45 139.144C743.09 139.144 741.89 138.864 740.85 138.304C739.826 137.744 739.026 136.976 738.45 136C737.89 135.024 737.61 133.904 737.61 132.64C737.61 131.376 737.882 130.256 738.426 129.28C738.986 128.304 739.746 127.544 740.706 127C741.682 126.44 742.778 126.16 743.994 126.16C745.226 126.16 746.314 126.432 747.258 126.976C748.202 127.52 748.938 128.288 749.466 129.28C750.01 130.256 750.282 131.4 750.282 132.712C750.282 132.808 750.274 132.92 750.258 133.048C750.258 133.176 750.25 133.296 750.234 133.408H739.41V131.752H749.034L748.098 132.328C748.114 131.512 747.946 130.784 747.594 130.144C747.242 129.504 746.754 129.008 746.13 128.656C745.522 128.288 744.81 128.104 743.994 128.104C743.194 128.104 742.482 128.288 741.858 128.656C741.234 129.008 740.746 129.512 740.394 130.168C740.042 130.808 739.866 131.544 739.866 132.376V132.76C739.866 133.608 740.058 134.368 740.442 135.04C740.842 135.696 741.394 136.208 742.098 136.576C742.802 136.944 743.61 137.128 744.522 137.128C745.274 137.128 745.954 137 746.562 136.744C747.186 136.488 747.73 136.104 748.194 135.592L749.466 137.08C748.89 137.752 748.17 138.264 747.306 138.616C746.458 138.968 745.506 139.144 744.45 139.144ZM757.082 139V121.192H759.386V139H757.082ZM767.385 139V121.192H769.689V139H767.385Z" fill="#AF3931"/>
<g id="Dots_8">
<path d="M680.5 119C679.672 119 679 118.328 679 117.5C679 116.672 679.672 116 680.5 116C681.328 116 682 116.672 682 117.5C682 118.328 681.328 119 680.5 119Z" fill="#AF3931"/>
<path d="M680.5 131C679.672 131 679 130.328 679 129.5C679 128.672 679.672 128 680.5 128C681.328 128 682 128.672 682 129.5C682 130.328 681.328 131 680.5 131Z" fill="#AF3931"/>
<path d="M680.5 143C679.672 143 679 142.328 679 141.5C679 140.672 679.672 140 680.5 140C681.328 140 682 140.672 682 141.5C682 142.328 681.328 143 680.5 143Z" fill="#AF3931"/>
</g>
</g>
<g id="Button v6 05" clip-path="url(#clip10_1_337)">
<g id="Border_11">
<path d="M670 340V355H673V343L685 343V340H670Z" fill="#AF3931"/>
<path d="M670 400V385H673V397H685V400H670Z" fill="#AF3931"/>
<path d="M820 340V355H817V343L805 343V340H820Z" fill="#AF3931"/>
<path d="M820 400V385H817V397H805V400H820Z" fill="#AF3931"/>
</g>
<g id="Union_11">
<path d="M798 343V340H693V343L798 343Z" fill="white" fill-opacity="0.2"/>
<path d="M798 400V397H693V400H798Z" fill="white" fill-opacity="0.2"/>
<path d="M670 363H673V378H670V363Z" fill="white" fill-opacity="0.2"/>
<path d="M820 363H817V378H820V363Z" fill="white" fill-opacity="0.2"/>
</g>
<path id="Sell_2" d="M725.512 379.192C724.232 379.192 723.008 379 721.84 378.616C720.672 378.216 719.752 377.704 719.08 377.08L719.968 375.208C720.608 375.768 721.424 376.232 722.416 376.6C723.408 376.968 724.44 377.152 725.512 377.152C726.488 377.152 727.28 377.04 727.888 376.816C728.496 376.592 728.944 376.288 729.232 375.904C729.52 375.504 729.664 375.056 729.664 374.56C729.664 373.984 729.472 373.52 729.088 373.168C728.72 372.816 728.232 372.536 727.624 372.328C727.032 372.104 726.376 371.912 725.656 371.752C724.936 371.592 724.208 371.408 723.472 371.2C722.752 370.976 722.088 370.696 721.48 370.36C720.888 370.024 720.408 369.576 720.04 369.016C719.672 368.44 719.488 367.704 719.488 366.808C719.488 365.944 719.712 365.152 720.16 364.432C720.624 363.696 721.328 363.112 722.272 362.68C723.232 362.232 724.448 362.008 725.92 362.008C726.896 362.008 727.864 362.136 728.824 362.392C729.784 362.648 730.616 363.016 731.32 363.496L730.528 365.416C729.808 364.936 729.048 364.592 728.248 364.384C727.448 364.16 726.672 364.048 725.92 364.048C724.976 364.048 724.2 364.168 723.592 364.408C722.984 364.648 722.536 364.968 722.248 365.368C721.976 365.768 721.84 366.216 721.84 366.712C721.84 367.304 722.024 367.776 722.392 368.128C722.776 368.48 723.264 368.76 723.856 368.968C724.464 369.176 725.128 369.368 725.848 369.544C726.568 369.704 727.288 369.888 728.008 370.096C728.744 370.304 729.408 370.576 730 370.912C730.608 371.248 731.096 371.696 731.464 372.256C731.832 372.816 732.016 373.536 732.016 374.416C732.016 375.264 731.784 376.056 731.32 376.792C730.856 377.512 730.136 378.096 729.16 378.544C728.2 378.976 726.984 379.192 725.512 379.192ZM744.45 379.144C743.09 379.144 741.89 378.864 740.85 378.304C739.826 377.744 739.026 376.976 738.45 376C737.89 375.024 737.61 373.904 737.61 372.64C737.61 371.376 737.882 370.256 738.426 369.28C738.986 368.304 739.746 367.544 740.706 367C741.682 366.44 742.778 366.16 743.994 366.16C745.226 366.16 746.314 366.432 747.258 366.976C748.202 367.52 748.938 368.288 749.466 369.28C750.01 370.256 750.282 371.4 750.282 372.712C750.282 372.808 750.274 372.92 750.258 373.048C750.258 373.176 750.25 373.296 750.234 373.408H739.41V371.752H749.034L748.098 372.328C748.114 371.512 747.946 370.784 747.594 370.144C747.242 369.504 746.754 369.008 746.13 368.656C745.522 368.288 744.81 368.104 743.994 368.104C743.194 368.104 742.482 368.288 741.858 368.656C741.234 369.008 740.746 369.512 740.394 370.168C740.042 370.808 739.866 371.544 739.866 372.376V372.76C739.866 373.608 740.058 374.368 740.442 375.04C740.842 375.696 741.394 376.208 742.098 376.576C742.802 376.944 743.61 377.128 744.522 377.128C745.274 377.128 745.954 377 746.562 376.744C747.186 376.488 747.73 376.104 748.194 375.592L749.466 377.08C748.89 377.752 748.17 378.264 747.306 378.616C746.458 378.968 745.506 379.144 744.45 379.144ZM757.082 379V361.192H759.386V379H757.082ZM767.385 379V361.192H769.689V379H767.385Z" fill="#AF3931"/>
<g id="Dots_9">
<path d="M680.5 359C679.672 359 679 358.328 679 357.5C679 356.672 679.672 356 680.5 356C681.328 356 682 356.672 682 357.5C682 358.328 681.328 359 680.5 359Z" fill="#AF3931"/>
<path d="M680.5 371C679.672 371 679 370.328 679 369.5C679 368.672 679.672 368 680.5 368C681.328 368 682 368.672 682 369.5C682 370.328 681.328 371 680.5 371Z" fill="#AF3931"/>
<path d="M680.5 383C679.672 383 679 382.328 679 381.5C679 380.672 679.672 380 680.5 380C681.328 380 682 380.672 682 381.5C682 382.328 681.328 383 680.5 383Z" fill="#AF3931"/>
</g>
</g>
<g id="Button v5 05" clip-path="url(#clip11_1_337)">
<g id="Border_12">
<path d="M670 220V235H673V223L685 223V220H670Z" fill="#EAEAEA"/>
<path d="M670 280V265H673V277H685V280H670Z" fill="#EAEAEA"/>
<path d="M820 220V235H817V223L805 223V220H820Z" fill="#EAEAEA"/>
<path d="M820 280V265H817V277H805V280H820Z" fill="#EAEAEA"/>
</g>
<rect id="Rectangle 6_8" x="675" y="225" width="140" height="50" fill="white" fill-opacity="0.2"/>
<g id="Union_12">
<path d="M798 223V220H693V223L798 223Z" fill="white" fill-opacity="0.2"/>
<path d="M798 280V277H693V280H798Z" fill="white" fill-opacity="0.2"/>
<path d="M670 243H673V258H670V243Z" fill="white" fill-opacity="0.2"/>
<path d="M820 243H817V258H820V243Z" fill="white" fill-opacity="0.2"/>
</g>
<path id="Sell_3" d="M725.512 259.192C724.232 259.192 723.008 259 721.84 258.616C720.672 258.216 719.752 257.704 719.08 257.08L719.968 255.208C720.608 255.768 721.424 256.232 722.416 256.6C723.408 256.968 724.44 257.152 725.512 257.152C726.488 257.152 727.28 257.04 727.888 256.816C728.496 256.592 728.944 256.288 729.232 255.904C729.52 255.504 729.664 255.056 729.664 254.56C729.664 253.984 729.472 253.52 729.088 253.168C728.72 252.816 728.232 252.536 727.624 252.328C727.032 252.104 726.376 251.912 725.656 251.752C724.936 251.592 724.208 251.408 723.472 251.2C722.752 250.976 722.088 250.696 721.48 250.36C720.888 250.024 720.408 249.576 720.04 249.016C719.672 248.44 719.488 247.704 719.488 246.808C719.488 245.944 719.712 245.152 720.16 244.432C720.624 243.696 721.328 243.112 722.272 242.68C723.232 242.232 724.448 242.008 725.92 242.008C726.896 242.008 727.864 242.136 728.824 242.392C729.784 242.648 730.616 243.016 731.32 243.496L730.528 245.416C729.808 244.936 729.048 244.592 728.248 244.384C727.448 244.16 726.672 244.048 725.92 244.048C724.976 244.048 724.2 244.168 723.592 244.408C722.984 244.648 722.536 244.968 722.248 245.368C721.976 245.768 721.84 246.216 721.84 246.712C721.84 247.304 722.024 247.776 722.392 248.128C722.776 248.48 723.264 248.76 723.856 248.968C724.464 249.176 725.128 249.368 725.848 249.544C726.568 249.704 727.288 249.888 728.008 250.096C728.744 250.304 729.408 250.576 730 250.912C730.608 251.248 731.096 251.696 731.464 252.256C731.832 252.816 732.016 253.536 732.016 254.416C732.016 255.264 731.784 256.056 731.32 256.792C730.856 257.512 730.136 258.096 729.16 258.544C728.2 258.976 726.984 259.192 725.512 259.192ZM744.45 259.144C743.09 259.144 741.89 258.864 740.85 258.304C739.826 257.744 739.026 256.976 738.45 256C737.89 255.024 737.61 253.904 737.61 252.64C737.61 251.376 737.882 250.256 738.426 249.28C738.986 248.304 739.746 247.544 740.706 247C741.682 246.44 742.778 246.16 743.994 246.16C745.226 246.16 746.314 246.432 747.258 246.976C748.202 247.52 748.938 248.288 749.466 249.28C750.01 250.256 750.282 251.4 750.282 252.712C750.282 252.808 750.274 252.92 750.258 253.048C750.258 253.176 750.25 253.296 750.234 253.408H739.41V251.752H749.034L748.098 252.328C748.114 251.512 747.946 250.784 747.594 250.144C747.242 249.504 746.754 249.008 746.13 248.656C745.522 248.288 744.81 248.104 743.994 248.104C743.194 248.104 742.482 248.288 741.858 248.656C741.234 249.008 740.746 249.512 740.394 250.168C740.042 250.808 739.866 251.544 739.866 252.376V252.76C739.866 253.608 740.058 254.368 740.442 255.04C740.842 255.696 741.394 256.208 742.098 256.576C742.802 256.944 743.61 257.128 744.522 257.128C745.274 257.128 745.954 257 746.562 256.744C747.186 256.488 747.73 256.104 748.194 255.592L749.466 257.08C748.89 257.752 748.17 258.264 747.306 258.616C746.458 258.968 745.506 259.144 744.45 259.144ZM757.082 259V241.192H759.386V259H757.082ZM767.385 259V241.192H769.689V259H767.385Z" fill="#EAEAEA"/>
</g>
<g id="Button v4 04" clip-path="url(#clip12_1_337)">
<g id="Border_13">
<path d="M860 100V115H863V103L875 103V100H860Z" fill="#AF3931"/>
<path d="M860 160V145H863V157H875V160H860Z" fill="#AF3931"/>
<path d="M1010 100V115H1007V103L995 103V100H1010Z" fill="#AF3931"/>
<path d="M1010 160V145H1007V157H995V160H1010Z" fill="#AF3931"/>
</g>
<rect id="Rectangle 6_9" x="865" y="105" width="140" height="50" fill="#98231B" fill-opacity="0.2"/>
<g id="Union_13">
<path d="M988 103V100H883V103L988 103Z" fill="white" fill-opacity="0.2"/>
<path d="M988 160V157H883V160H988Z" fill="white" fill-opacity="0.2"/>
<path d="M860 123H863V138H860V123Z" fill="white" fill-opacity="0.2"/>
<path d="M1010 123H1007V138H1010V123Z" fill="white" fill-opacity="0.2"/>
</g>
<path id="Decline" d="M880.966 139V122.2H888.046C889.838 122.2 891.414 122.552 892.774 123.256C894.15 123.96 895.214 124.944 895.966 126.208C896.734 127.472 897.118 128.936 897.118 130.6C897.118 132.264 896.734 133.728 895.966 134.992C895.214 136.256 894.15 137.24 892.774 137.944C891.414 138.648 889.838 139 888.046 139H880.966ZM883.366 136.912H887.902C889.294 136.912 890.494 136.648 891.502 136.12C892.526 135.592 893.318 134.856 893.878 133.912C894.438 132.952 894.718 131.848 894.718 130.6C894.718 129.336 894.438 128.232 893.878 127.288C893.318 126.344 892.526 125.608 891.502 125.08C890.494 124.552 889.294 124.288 887.902 124.288H883.366V136.912ZM909.722 139.144C908.362 139.144 907.162 138.864 906.122 138.304C905.098 137.744 904.298 136.976 903.722 136C903.162 135.024 902.882 133.904 902.882 132.64C902.882 131.376 903.154 130.256 903.698 129.28C904.258 128.304 905.018 127.544 905.978 127C906.954 126.44 908.05 126.16 909.266 126.16C910.498 126.16 911.586 126.432 912.53 126.976C913.474 127.52 914.21 128.288 914.738 129.28C915.282 130.256 915.554 131.4 915.554 132.712C915.554 132.808 915.546 132.92 915.53 133.048C915.53 133.176 915.522 133.296 915.506 133.408H904.682V131.752H914.306L913.37 132.328C913.386 131.512 913.218 130.784 912.866 130.144C912.514 129.504 912.026 129.008 911.402 128.656C910.794 128.288 910.082 128.104 909.266 128.104C908.466 128.104 907.754 128.288 907.13 128.656C906.506 129.008 906.018 129.512 905.666 130.168C905.314 130.808 905.138 131.544 905.138 132.376V132.76C905.138 133.608 905.33 134.368 905.714 135.04C906.114 135.696 906.666 136.208 907.37 136.576C908.074 136.944 908.882 137.128 909.794 137.128C910.546 137.128 911.226 137 911.834 136.744C912.458 136.488 913.002 136.104 913.466 135.592L914.738 137.08C914.162 137.752 913.442 138.264 912.578 138.616C911.73 138.968 910.778 139.144 909.722 139.144ZM927.898 139.144C926.602 139.144 925.442 138.864 924.418 138.304C923.41 137.744 922.618 136.976 922.042 136C921.466 135.024 921.178 133.904 921.178 132.64C921.178 131.376 921.466 130.256 922.042 129.28C922.618 128.304 923.41 127.544 924.418 127C925.442 126.44 926.602 126.16 927.898 126.16C929.05 126.16 930.074 126.392 930.97 126.856C931.882 127.304 932.586 127.976 933.082 128.872L931.33 130C930.914 129.376 930.402 128.92 929.794 128.632C929.202 128.328 928.562 128.176 927.874 128.176C927.042 128.176 926.298 128.36 925.642 128.728C924.986 129.096 924.466 129.616 924.082 130.288C923.698 130.944 923.506 131.728 923.506 132.64C923.506 133.552 923.698 134.344 924.082 135.016C924.466 135.688 924.986 136.208 925.642 136.576C926.298 136.944 927.042 137.128 927.874 137.128C928.562 137.128 929.202 136.984 929.794 136.696C930.402 136.392 930.914 135.928 931.33 135.304L933.082 136.408C932.586 137.288 931.882 137.968 930.97 138.448C930.074 138.912 929.05 139.144 927.898 139.144ZM939.5 139V121.192H941.804V139H939.5ZM949.804 139V126.28H952.108V139H949.804ZM950.956 123.832C950.508 123.832 950.132 123.688 949.828 123.4C949.54 123.112 949.396 122.76 949.396 122.344C949.396 121.912 949.54 121.552 949.828 121.264C950.132 120.976 950.508 120.832 950.956 120.832C951.404 120.832 951.772 120.976 952.06 121.264C952.364 121.536 952.516 121.88 952.516 122.296C952.516 122.728 952.372 123.096 952.084 123.4C951.796 123.688 951.42 123.832 950.956 123.832ZM966.899 126.16C967.939 126.16 968.851 126.36 969.635 126.76C970.435 127.16 971.059 127.768 971.507 128.584C971.955 129.4 972.179 130.432 972.179 131.68V139H969.875V131.944C969.875 130.712 969.571 129.784 968.963 129.16C968.371 128.536 967.531 128.224 966.443 128.224C965.627 128.224 964.915 128.384 964.307 128.704C963.699 129.024 963.227 129.496 962.891 130.12C962.571 130.744 962.411 131.52 962.411 132.448V139H960.107V126.28H962.315V129.712L961.955 128.8C962.371 127.968 963.011 127.32 963.875 126.856C964.739 126.392 965.747 126.16 966.899 126.16ZM985.707 139.144C984.347 139.144 983.147 138.864 982.107 138.304C981.083 137.744 980.283 136.976 979.707 136C979.147 135.024 978.867 133.904 978.867 132.64C978.867 131.376 979.139 130.256 979.683 129.28C980.243 128.304 981.003 127.544 981.963 127C982.939 126.44 984.035 126.16 985.251 126.16C986.483 126.16 987.571 126.432 988.515 126.976C989.459 127.52 990.195 128.288 990.723 129.28C991.267 130.256 991.539 131.4 991.539 132.712C991.539 132.808 991.531 132.92 991.515 133.048C991.515 133.176 991.507 133.296 991.491 133.408H980.667V131.752H990.291L989.355 132.328C989.371 131.512 989.203 130.784 988.851 130.144C988.499 129.504 988.011 129.008 987.387 128.656C986.779 128.288 986.067 128.104 985.251 128.104C984.451 128.104 983.739 128.288 983.115 128.656C982.491 129.008 982.003 129.512 981.651 130.168C981.299 130.808 981.123 131.544 981.123 132.376V132.76C981.123 133.608 981.315 134.368 981.699 135.04C982.099 135.696 982.651 136.208 983.355 136.576C984.059 136.944 984.867 137.128 985.779 137.128C986.531 137.128 987.211 137 987.819 136.744C988.443 136.488 988.987 136.104 989.451 135.592L990.723 137.08C990.147 137.752 989.427 138.264 988.563 138.616C987.715 138.968 986.763 139.144 985.707 139.144Z" fill="#AF3931"/>
<g id="Dots_10">
<path d="M870.5 119C869.672 119 869 118.328 869 117.5C869 116.672 869.672 116 870.5 116C871.328 116 872 116.672 872 117.5C872 118.328 871.328 119 870.5 119Z" fill="#AF3931"/>
<path d="M870.5 131C869.672 131 869 130.328 869 129.5C869 128.672 869.672 128 870.5 128C871.328 128 872 128.672 872 129.5C872 130.328 871.328 131 870.5 131Z" fill="#AF3931"/>
<path d="M870.5 143C869.672 143 869 142.328 869 141.5C869 140.672 869.672 140 870.5 140C871.328 140 872 140.672 872 141.5C872 142.328 871.328 143 870.5 143Z" fill="#AF3931"/>
</g>
</g>
<g id="Button v6 04" clip-path="url(#clip13_1_337)">
<g id="Border_14">
<path d="M860 340V355H863V343L875 343V340H860Z" fill="#AF3931"/>
<path d="M860 400V385H863V397H875V400H860Z" fill="#AF3931"/>
<path d="M1010 340V355H1007V343L995 343V340H1010Z" fill="#AF3931"/>
<path d="M1010 400V385H1007V397H995V400H1010Z" fill="#AF3931"/>
</g>
<g id="Union_14">
<path d="M988 343V340H883V343L988 343Z" fill="white" fill-opacity="0.2"/>
<path d="M988 400V397H883V400H988Z" fill="white" fill-opacity="0.2"/>
<path d="M860 363H863V378H860V363Z" fill="white" fill-opacity="0.2"/>
<path d="M1010 363H1007V378H1010V363Z" fill="white" fill-opacity="0.2"/>
</g>
<path id="Decline_2" d="M880.966 379V362.2H888.046C889.838 362.2 891.414 362.552 892.774 363.256C894.15 363.96 895.214 364.944 895.966 366.208C896.734 367.472 897.118 368.936 897.118 370.6C897.118 372.264 896.734 373.728 895.966 374.992C895.214 376.256 894.15 377.24 892.774 377.944C891.414 378.648 889.838 379 888.046 379H880.966ZM883.366 376.912H887.902C889.294 376.912 890.494 376.648 891.502 376.12C892.526 375.592 893.318 374.856 893.878 373.912C894.438 372.952 894.718 371.848 894.718 370.6C894.718 369.336 894.438 368.232 893.878 367.288C893.318 366.344 892.526 365.608 891.502 365.08C890.494 364.552 889.294 364.288 887.902 364.288H883.366V376.912ZM909.722 379.144C908.362 379.144 907.162 378.864 906.122 378.304C905.098 377.744 904.298 376.976 903.722 376C903.162 375.024 902.882 373.904 902.882 372.64C902.882 371.376 903.154 370.256 903.698 369.28C904.258 368.304 905.018 367.544 905.978 367C906.954 366.44 908.05 366.16 909.266 366.16C910.498 366.16 911.586 366.432 912.53 366.976C913.474 367.52 914.21 368.288 914.738 369.28C915.282 370.256 915.554 371.4 915.554 372.712C915.554 372.808 915.546 372.92 915.53 373.048C915.53 373.176 915.522 373.296 915.506 373.408H904.682V371.752H914.306L913.37 372.328C913.386 371.512 913.218 370.784 912.866 370.144C912.514 369.504 912.026 369.008 911.402 368.656C910.794 368.288 910.082 368.104 909.266 368.104C908.466 368.104 907.754 368.288 907.13 368.656C906.506 369.008 906.018 369.512 905.666 370.168C905.314 370.808 905.138 371.544 905.138 372.376V372.76C905.138 373.608 905.33 374.368 905.714 375.04C906.114 375.696 906.666 376.208 907.37 376.576C908.074 376.944 908.882 377.128 909.794 377.128C910.546 377.128 911.226 377 911.834 376.744C912.458 376.488 913.002 376.104 913.466 375.592L914.738 377.08C914.162 377.752 913.442 378.264 912.578 378.616C911.73 378.968 910.778 379.144 909.722 379.144ZM927.898 379.144C926.602 379.144 925.442 378.864 924.418 378.304C923.41 377.744 922.618 376.976 922.042 376C921.466 375.024 921.178 373.904 921.178 372.64C921.178 371.376 921.466 370.256 922.042 369.28C922.618 368.304 923.41 367.544 924.418 367C925.442 366.44 926.602 366.16 927.898 366.16C929.05 366.16 930.074 366.392 930.97 366.856C931.882 367.304 932.586 367.976 933.082 368.872L931.33 370C930.914 369.376 930.402 368.92 929.794 368.632C929.202 368.328 928.562 368.176 927.874 368.176C927.042 368.176 926.298 368.36 925.642 368.728C924.986 369.096 924.466 369.616 924.082 370.288C923.698 370.944 923.506 371.728 923.506 372.64C923.506 373.552 923.698 374.344 924.082 375.016C924.466 375.688 924.986 376.208 925.642 376.576C926.298 376.944 927.042 377.128 927.874 377.128C928.562 377.128 929.202 376.984 929.794 376.696C930.402 376.392 930.914 375.928 931.33 375.304L933.082 376.408C932.586 377.288 931.882 377.968 930.97 378.448C930.074 378.912 929.05 379.144 927.898 379.144ZM939.5 379V361.192H941.804V379H939.5ZM949.804 379V366.28H952.108V379H949.804ZM950.956 363.832C950.508 363.832 950.132 363.688 949.828 363.4C949.54 363.112 949.396 362.76 949.396 362.344C949.396 361.912 949.54 361.552 949.828 361.264C950.132 360.976 950.508 360.832 950.956 360.832C951.404 360.832 951.772 360.976 952.06 361.264C952.364 361.536 952.516 361.88 952.516 362.296C952.516 362.728 952.372 363.096 952.084 363.4C951.796 363.688 951.42 363.832 950.956 363.832ZM966.899 366.16C967.939 366.16 968.851 366.36 969.635 366.76C970.435 367.16 971.059 367.768 971.507 368.584C971.955 369.4 972.179 370.432 972.179 371.68V379H969.875V371.944C969.875 370.712 969.571 369.784 968.963 369.16C968.371 368.536 967.531 368.224 966.443 368.224C965.627 368.224 964.915 368.384 964.307 368.704C963.699 369.024 963.227 369.496 962.891 370.12C962.571 370.744 962.411 371.52 962.411 372.448V379H960.107V366.28H962.315V369.712L961.955 368.8C962.371 367.968 963.011 367.32 963.875 366.856C964.739 366.392 965.747 366.16 966.899 366.16ZM985.707 379.144C984.347 379.144 983.147 378.864 982.107 378.304C981.083 377.744 980.283 376.976 979.707 376C979.147 375.024 978.867 373.904 978.867 372.64C978.867 371.376 979.139 370.256 979.683 369.28C980.243 368.304 981.003 367.544 981.963 367C982.939 366.44 984.035 366.16 985.251 366.16C986.483 366.16 987.571 366.432 988.515 366.976C989.459 367.52 990.195 368.288 990.723 369.28C991.267 370.256 991.539 371.4 991.539 372.712C991.539 372.808 991.531 372.92 991.515 373.048C991.515 373.176 991.507 373.296 991.491 373.408H980.667V371.752H990.291L989.355 372.328C989.371 371.512 989.203 370.784 988.851 370.144C988.499 369.504 988.011 369.008 987.387 368.656C986.779 368.288 986.067 368.104 985.251 368.104C984.451 368.104 983.739 368.288 983.115 368.656C982.491 369.008 982.003 369.512 981.651 370.168C981.299 370.808 981.123 371.544 981.123 372.376V372.76C981.123 373.608 981.315 374.368 981.699 375.04C982.099 375.696 982.651 376.208 983.355 376.576C984.059 376.944 984.867 377.128 985.779 377.128C986.531 377.128 987.211 377 987.819 376.744C988.443 376.488 988.987 376.104 989.451 375.592L990.723 377.08C990.147 377.752 989.427 378.264 988.563 378.616C987.715 378.968 986.763 379.144 985.707 379.144Z" fill="#AF3931"/>
<g id="Dots_11">
<path d="M870.5 359C869.672 359 869 358.328 869 357.5C869 356.672 869.672 356 870.5 356C871.328 356 872 356.672 872 357.5C872 358.328 871.328 359 870.5 359Z" fill="#AF3931"/>
<path d="M870.5 371C869.672 371 869 370.328 869 369.5C869 368.672 869.672 368 870.5 368C871.328 368 872 368.672 872 369.5C872 370.328 871.328 371 870.5 371Z" fill="#AF3931"/>
<path d="M870.5 383C869.672 383 869 382.328 869 381.5C869 380.672 869.672 380 870.5 380C871.328 380 872 380.672 872 381.5C872 382.328 871.328 383 870.5 383Z" fill="#AF3931"/>
</g>
</g>
<g id="Button v5 04" clip-path="url(#clip14_1_337)">
<g id="Border_15">
<path d="M860 220V235H863V223L875 223V220H860Z" fill="#EAEAEA"/>
<path d="M860 280V265H863V277H875V280H860Z" fill="#EAEAEA"/>
<path d="M1010 220V235H1007V223L995 223V220H1010Z" fill="#EAEAEA"/>
<path d="M1010 280V265H1007V277H995V280H1010Z" fill="#EAEAEA"/>
</g>
<rect id="Rectangle 6_10" x="865" y="225" width="140" height="50" fill="white" fill-opacity="0.2"/>
<g id="Union_15">
<path d="M988 223V220H883V223L988 223Z" fill="white" fill-opacity="0.2"/>
<path d="M988 280V277H883V280H988Z" fill="white" fill-opacity="0.2"/>
<path d="M860 243H863V258H860V243Z" fill="white" fill-opacity="0.2"/>
<path d="M1010 243H1007V258H1010V243Z" fill="white" fill-opacity="0.2"/>
</g>
<path id="Decline_3" d="M880.966 259V242.2H888.046C889.838 242.2 891.414 242.552 892.774 243.256C894.15 243.96 895.214 244.944 895.966 246.208C896.734 247.472 897.118 248.936 897.118 250.6C897.118 252.264 896.734 253.728 895.966 254.992C895.214 256.256 894.15 257.24 892.774 257.944C891.414 258.648 889.838 259 888.046 259H880.966ZM883.366 256.912H887.902C889.294 256.912 890.494 256.648 891.502 256.12C892.526 255.592 893.318 254.856 893.878 253.912C894.438 252.952 894.718 251.848 894.718 250.6C894.718 249.336 894.438 248.232 893.878 247.288C893.318 246.344 892.526 245.608 891.502 245.08C890.494 244.552 889.294 244.288 887.902 244.288H883.366V256.912ZM909.722 259.144C908.362 259.144 907.162 258.864 906.122 258.304C905.098 257.744 904.298 256.976 903.722 256C903.162 255.024 902.882 253.904 902.882 252.64C902.882 251.376 903.154 250.256 903.698 249.28C904.258 248.304 905.018 247.544 905.978 247C906.954 246.44 908.05 246.16 909.266 246.16C910.498 246.16 911.586 246.432 912.53 246.976C913.474 247.52 914.21 248.288 914.738 249.28C915.282 250.256 915.554 251.4 915.554 252.712C915.554 252.808 915.546 252.92 915.53 253.048C915.53 253.176 915.522 253.296 915.506 253.408H904.682V251.752H914.306L913.37 252.328C913.386 251.512 913.218 250.784 912.866 250.144C912.514 249.504 912.026 249.008 911.402 248.656C910.794 248.288 910.082 248.104 909.266 248.104C908.466 248.104 907.754 248.288 907.13 248.656C906.506 249.008 906.018 249.512 905.666 250.168C905.314 250.808 905.138 251.544 905.138 252.376V252.76C905.138 253.608 905.33 254.368 905.714 255.04C906.114 255.696 906.666 256.208 907.37 256.576C908.074 256.944 908.882 257.128 909.794 257.128C910.546 257.128 911.226 257 911.834 256.744C912.458 256.488 913.002 256.104 913.466 255.592L914.738 257.08C914.162 257.752 913.442 258.264 912.578 258.616C911.73 258.968 910.778 259.144 909.722 259.144ZM927.898 259.144C926.602 259.144 925.442 258.864 924.418 258.304C923.41 257.744 922.618 256.976 922.042 256C921.466 255.024 921.178 253.904 921.178 252.64C921.178 251.376 921.466 250.256 922.042 249.28C922.618 248.304 923.41 247.544 924.418 247C925.442 246.44 926.602 246.16 927.898 246.16C929.05 246.16 930.074 246.392 930.97 246.856C931.882 247.304 932.586 247.976 933.082 248.872L931.33 250C930.914 249.376 930.402 248.92 929.794 248.632C929.202 248.328 928.562 248.176 927.874 248.176C927.042 248.176 926.298 248.36 925.642 248.728C924.986 249.096 924.466 249.616 924.082 250.288C923.698 250.944 923.506 251.728 923.506 252.64C923.506 253.552 923.698 254.344 924.082 255.016C924.466 255.688 924.986 256.208 925.642 256.576C926.298 256.944 927.042 257.128 927.874 257.128C928.562 257.128 929.202 256.984 929.794 256.696C930.402 256.392 930.914 255.928 931.33 255.304L933.082 256.408C932.586 257.288 931.882 257.968 930.97 258.448C930.074 258.912 929.05 259.144 927.898 259.144ZM939.5 259V241.192H941.804V259H939.5ZM949.804 259V246.28H952.108V259H949.804ZM950.956 243.832C950.508 243.832 950.132 243.688 949.828 243.4C949.54 243.112 949.396 242.76 949.396 242.344C949.396 241.912 949.54 241.552 949.828 241.264C950.132 240.976 950.508 240.832 950.956 240.832C951.404 240.832 951.772 240.976 952.06 241.264C952.364 241.536 952.516 241.88 952.516 242.296C952.516 242.728 952.372 243.096 952.084 243.4C951.796 243.688 951.42 243.832 950.956 243.832ZM966.899 246.16C967.939 246.16 968.851 246.36 969.635 246.76C970.435 247.16 971.059 247.768 971.507 248.584C971.955 249.4 972.179 250.432 972.179 251.68V259H969.875V251.944C969.875 250.712 969.571 249.784 968.963 249.16C968.371 248.536 967.531 248.224 966.443 248.224C965.627 248.224 964.915 248.384 964.307 248.704C963.699 249.024 963.227 249.496 962.891 250.12C962.571 250.744 962.411 251.52 962.411 252.448V259H960.107V246.28H962.315V249.712L961.955 248.8C962.371 247.968 963.011 247.32 963.875 246.856C964.739 246.392 965.747 246.16 966.899 246.16ZM985.707 259.144C984.347 259.144 983.147 258.864 982.107 258.304C981.083 257.744 980.283 256.976 979.707 256C979.147 255.024 978.867 253.904 978.867 252.64C978.867 251.376 979.139 250.256 979.683 249.28C980.243 248.304 981.003 247.544 981.963 247C982.939 246.44 984.035 246.16 985.251 246.16C986.483 246.16 987.571 246.432 988.515 246.976C989.459 247.52 990.195 248.288 990.723 249.28C991.267 250.256 991.539 251.4 991.539 252.712C991.539 252.808 991.531 252.92 991.515 253.048C991.515 253.176 991.507 253.296 991.491 253.408H980.667V251.752H990.291L989.355 252.328C989.371 251.512 989.203 250.784 988.851 250.144C988.499 249.504 988.011 249.008 987.387 248.656C986.779 248.288 986.067 248.104 985.251 248.104C984.451 248.104 983.739 248.288 983.115 248.656C982.491 249.008 982.003 249.512 981.651 250.168C981.299 250.808 981.123 251.544 981.123 252.376V252.76C981.123 253.608 981.315 254.368 981.699 255.04C982.099 255.696 982.651 256.208 983.355 256.576C984.059 256.944 984.867 257.128 985.779 257.128C986.531 257.128 987.211 257 987.819 256.744C988.443 256.488 988.987 256.104 989.451 255.592L990.723 257.08C990.147 257.752 989.427 258.264 988.563 258.616C987.715 258.968 986.763 259.144 985.707 259.144Z" fill="#EAEAEA"/>
</g>
<g id="Button v4 03" clip-path="url(#clip15_1_337)">
<g id="Border_16">
<path d="M1050 100V115H1053V103L1065 103V100H1050Z" fill="#AF3931"/>
<path d="M1050 160V145H1053V157H1065V160H1050Z" fill="#AF3931"/>
<path d="M1200 100V115H1197V103L1185 103V100H1200Z" fill="#AF3931"/>
<path d="M1200 160V145H1197V157H1185V160H1200Z" fill="#AF3931"/>
</g>
<rect id="Rectangle 6_11" x="1055" y="105" width="140" height="50" fill="#98231B" fill-opacity="0.2"/>
<g id="Union_16">
<path d="M1178 103V100H1073V103L1178 103Z" fill="white" fill-opacity="0.2"/>
<path d="M1178 160V157H1073V160H1178Z" fill="white" fill-opacity="0.2"/>
<path d="M1050 123H1053V138H1050V123Z" fill="white" fill-opacity="0.2"/>
<path d="M1200 123H1197V138H1200V123Z" fill="white" fill-opacity="0.2"/>
</g>
<path id="Accept" d="M1073.23 139L1080.83 122.2H1083.21L1090.84 139H1088.32L1081.53 123.544H1082.49L1075.7 139H1073.23ZM1076.47 134.8L1077.11 132.88H1086.57L1087.27 134.8H1076.47ZM1102.04 139.144C1100.74 139.144 1099.58 138.864 1098.56 138.304C1097.55 137.744 1096.76 136.976 1096.18 136C1095.61 135.024 1095.32 133.904 1095.32 132.64C1095.32 131.376 1095.61 130.256 1096.18 129.28C1096.76 128.304 1097.55 127.544 1098.56 127C1099.58 126.44 1100.74 126.16 1102.04 126.16C1103.19 126.16 1104.21 126.392 1105.11 126.856C1106.02 127.304 1106.73 127.976 1107.22 128.872L1105.47 130C1105.05 129.376 1104.54 128.92 1103.93 128.632C1103.34 128.328 1102.7 128.176 1102.01 128.176C1101.18 128.176 1100.44 128.36 1099.78 128.728C1099.13 129.096 1098.61 129.616 1098.22 130.288C1097.84 130.944 1097.65 131.728 1097.65 132.64C1097.65 133.552 1097.84 134.344 1098.22 135.016C1098.61 135.688 1099.13 136.208 1099.78 136.576C1100.44 136.944 1101.18 137.128 1102.01 137.128C1102.7 137.128 1103.34 136.984 1103.93 136.696C1104.54 136.392 1105.05 135.928 1105.47 135.304L1107.22 136.408C1106.73 137.288 1106.02 137.968 1105.11 138.448C1104.21 138.912 1103.19 139.144 1102.04 139.144ZM1119.16 139.144C1117.87 139.144 1116.71 138.864 1115.68 138.304C1114.67 137.744 1113.88 136.976 1113.31 136C1112.73 135.024 1112.44 133.904 1112.44 132.64C1112.44 131.376 1112.73 130.256 1113.31 129.28C1113.88 128.304 1114.67 127.544 1115.68 127C1116.71 126.44 1117.87 126.16 1119.16 126.16C1120.31 126.16 1121.34 126.392 1122.23 126.856C1123.15 127.304 1123.85 127.976 1124.35 128.872L1122.59 130C1122.18 129.376 1121.67 128.92 1121.06 128.632C1120.47 128.328 1119.83 128.176 1119.14 128.176C1118.31 128.176 1117.56 128.36 1116.91 128.728C1116.25 129.096 1115.73 129.616 1115.35 130.288C1114.96 130.944 1114.77 131.728 1114.77 132.64C1114.77 133.552 1114.96 134.344 1115.35 135.016C1115.73 135.688 1116.25 136.208 1116.91 136.576C1117.56 136.944 1118.31 137.128 1119.14 137.128C1119.83 137.128 1120.47 136.984 1121.06 136.696C1121.67 136.392 1122.18 135.928 1122.59 135.304L1124.35 136.408C1123.85 137.288 1123.15 137.968 1122.23 138.448C1121.34 138.912 1120.31 139.144 1119.16 139.144ZM1136.41 139.144C1135.05 139.144 1133.85 138.864 1132.81 138.304C1131.78 137.744 1130.98 136.976 1130.41 136C1129.85 135.024 1129.57 133.904 1129.57 132.64C1129.57 131.376 1129.84 130.256 1130.38 129.28C1130.94 128.304 1131.7 127.544 1132.66 127C1133.64 126.44 1134.73 126.16 1135.95 126.16C1137.18 126.16 1138.27 126.432 1139.21 126.976C1140.16 127.52 1140.89 128.288 1141.42 129.28C1141.97 130.256 1142.24 131.4 1142.24 132.712C1142.24 132.808 1142.23 132.92 1142.21 133.048C1142.21 133.176 1142.21 133.296 1142.19 133.408H1131.37V131.752H1140.99L1140.05 132.328C1140.07 131.512 1139.9 130.784 1139.55 130.144C1139.2 129.504 1138.71 129.008 1138.09 128.656C1137.48 128.288 1136.77 128.104 1135.95 128.104C1135.15 128.104 1134.44 128.288 1133.81 128.656C1133.19 129.008 1132.7 129.512 1132.35 130.168C1132 130.808 1131.82 131.544 1131.82 132.376V132.76C1131.82 133.608 1132.01 134.368 1132.4 135.04C1132.8 135.696 1133.35 136.208 1134.05 136.576C1134.76 136.944 1135.57 137.128 1136.48 137.128C1137.23 137.128 1137.91 137 1138.52 136.744C1139.14 136.488 1139.69 136.104 1140.15 135.592L1141.42 137.08C1140.85 137.752 1140.13 138.264 1139.26 138.616C1138.41 138.968 1137.46 139.144 1136.41 139.144ZM1155.78 139.144C1154.73 139.144 1153.76 138.904 1152.88 138.424C1152.01 137.928 1151.32 137.2 1150.79 136.24C1150.28 135.28 1150.02 134.08 1150.02 132.64C1150.02 131.2 1150.27 130 1150.77 129.04C1151.28 128.08 1151.97 127.36 1152.83 126.88C1153.71 126.4 1154.69 126.16 1155.78 126.16C1157.03 126.16 1158.13 126.432 1159.09 126.976C1160.05 127.52 1160.81 128.28 1161.37 129.256C1161.93 130.216 1162.21 131.344 1162.21 132.64C1162.21 133.936 1161.93 135.072 1161.37 136.048C1160.81 137.024 1160.05 137.784 1159.09 138.328C1158.13 138.872 1157.03 139.144 1155.78 139.144ZM1149.04 143.656V126.28H1151.25V129.712L1151.1 132.664L1151.34 135.616V143.656H1149.04ZM1155.59 137.128C1156.41 137.128 1157.13 136.944 1157.77 136.576C1158.43 136.208 1158.94 135.688 1159.31 135.016C1159.69 134.328 1159.89 133.536 1159.89 132.64C1159.89 131.728 1159.69 130.944 1159.31 130.288C1158.94 129.616 1158.43 129.096 1157.77 128.728C1157.13 128.36 1156.41 128.176 1155.59 128.176C1154.79 128.176 1154.06 128.36 1153.41 128.728C1152.77 129.096 1152.25 129.616 1151.87 130.288C1151.5 130.944 1151.32 131.728 1151.32 132.64C1151.32 133.536 1151.5 134.328 1151.87 135.016C1152.25 135.688 1152.77 136.208 1153.41 136.576C1154.06 136.944 1154.79 137.128 1155.59 137.128ZM1173.36 139.144C1172.08 139.144 1171.09 138.8 1170.39 138.112C1169.68 137.424 1169.33 136.44 1169.33 135.16V123.496H1171.64V135.064C1171.64 135.752 1171.8 136.28 1172.14 136.648C1172.49 137.016 1172.99 137.2 1173.63 137.2C1174.35 137.2 1174.95 137 1175.43 136.6L1176.15 138.256C1175.8 138.56 1175.37 138.784 1174.88 138.928C1174.4 139.072 1173.89 139.144 1173.36 139.144ZM1167.17 128.176V126.28H1175.28V128.176H1167.17Z" fill="#AF3931"/>
<g id="Dots_12">
<path d="M1060.5 119C1059.67 119 1059 118.328 1059 117.5C1059 116.672 1059.67 116 1060.5 116C1061.33 116 1062 116.672 1062 117.5C1062 118.328 1061.33 119 1060.5 119Z" fill="#AF3931"/>
<path d="M1060.5 131C1059.67 131 1059 130.328 1059 129.5C1059 128.672 1059.67 128 1060.5 128C1061.33 128 1062 128.672 1062 129.5C1062 130.328 1061.33 131 1060.5 131Z" fill="#AF3931"/>
<path d="M1060.5 143C1059.67 143 1059 142.328 1059 141.5C1059 140.672 1059.67 140 1060.5 140C1061.33 140 1062 140.672 1062 141.5C1062 142.328 1061.33 143 1060.5 143Z" fill="#AF3931"/>
</g>
</g>
<g id="Button v6 03" clip-path="url(#clip16_1_337)">
<g id="Border_17">
<path d="M1050 340V355H1053V343L1065 343V340H1050Z" fill="#AF3931"/>
<path d="M1050 400V385H1053V397H1065V400H1050Z" fill="#AF3931"/>
<path d="M1200 340V355H1197V343L1185 343V340H1200Z" fill="#AF3931"/>
<path d="M1200 400V385H1197V397H1185V400H1200Z" fill="#AF3931"/>
</g>
<g id="Union_17">
<path d="M1178 343V340H1073V343L1178 343Z" fill="white" fill-opacity="0.2"/>
<path d="M1178 400V397H1073V400H1178Z" fill="white" fill-opacity="0.2"/>
<path d="M1050 363H1053V378H1050V363Z" fill="white" fill-opacity="0.2"/>
<path d="M1200 363H1197V378H1200V363Z" fill="white" fill-opacity="0.2"/>
</g>
<path id="Accept_2" d="M1073.23 379L1080.83 362.2H1083.21L1090.84 379H1088.32L1081.53 363.544H1082.49L1075.7 379H1073.23ZM1076.47 374.8L1077.11 372.88H1086.57L1087.27 374.8H1076.47ZM1102.04 379.144C1100.74 379.144 1099.58 378.864 1098.56 378.304C1097.55 377.744 1096.76 376.976 1096.18 376C1095.61 375.024 1095.32 373.904 1095.32 372.64C1095.32 371.376 1095.61 370.256 1096.18 369.28C1096.76 368.304 1097.55 367.544 1098.56 367C1099.58 366.44 1100.74 366.16 1102.04 366.16C1103.19 366.16 1104.21 366.392 1105.11 366.856C1106.02 367.304 1106.73 367.976 1107.22 368.872L1105.47 370C1105.05 369.376 1104.54 368.92 1103.93 368.632C1103.34 368.328 1102.7 368.176 1102.01 368.176C1101.18 368.176 1100.44 368.36 1099.78 368.728C1099.13 369.096 1098.61 369.616 1098.22 370.288C1097.84 370.944 1097.65 371.728 1097.65 372.64C1097.65 373.552 1097.84 374.344 1098.22 375.016C1098.61 375.688 1099.13 376.208 1099.78 376.576C1100.44 376.944 1101.18 377.128 1102.01 377.128C1102.7 377.128 1103.34 376.984 1103.93 376.696C1104.54 376.392 1105.05 375.928 1105.47 375.304L1107.22 376.408C1106.73 377.288 1106.02 377.968 1105.11 378.448C1104.21 378.912 1103.19 379.144 1102.04 379.144ZM1119.16 379.144C1117.87 379.144 1116.71 378.864 1115.68 378.304C1114.67 377.744 1113.88 376.976 1113.31 376C1112.73 375.024 1112.44 373.904 1112.44 372.64C1112.44 371.376 1112.73 370.256 1113.31 369.28C1113.88 368.304 1114.67 367.544 1115.68 367C1116.71 366.44 1117.87 366.16 1119.16 366.16C1120.31 366.16 1121.34 366.392 1122.23 366.856C1123.15 367.304 1123.85 367.976 1124.35 368.872L1122.59 370C1122.18 369.376 1121.67 368.92 1121.06 368.632C1120.47 368.328 1119.83 368.176 1119.14 368.176C1118.31 368.176 1117.56 368.36 1116.91 368.728C1116.25 369.096 1115.73 369.616 1115.35 370.288C1114.96 370.944 1114.77 371.728 1114.77 372.64C1114.77 373.552 1114.96 374.344 1115.35 375.016C1115.73 375.688 1116.25 376.208 1116.91 376.576C1117.56 376.944 1118.31 377.128 1119.14 377.128C1119.83 377.128 1120.47 376.984 1121.06 376.696C1121.67 376.392 1122.18 375.928 1122.59 375.304L1124.35 376.408C1123.85 377.288 1123.15 377.968 1122.23 378.448C1121.34 378.912 1120.31 379.144 1119.16 379.144ZM1136.41 379.144C1135.05 379.144 1133.85 378.864 1132.81 378.304C1131.78 377.744 1130.98 376.976 1130.41 376C1129.85 375.024 1129.57 373.904 1129.57 372.64C1129.57 371.376 1129.84 370.256 1130.38 369.28C1130.94 368.304 1131.7 367.544 1132.66 367C1133.64 366.44 1134.73 366.16 1135.95 366.16C1137.18 366.16 1138.27 366.432 1139.21 366.976C1140.16 367.52 1140.89 368.288 1141.42 369.28C1141.97 370.256 1142.24 371.4 1142.24 372.712C1142.24 372.808 1142.23 372.92 1142.21 373.048C1142.21 373.176 1142.21 373.296 1142.19 373.408H1131.37V371.752H1140.99L1140.05 372.328C1140.07 371.512 1139.9 370.784 1139.55 370.144C1139.2 369.504 1138.71 369.008 1138.09 368.656C1137.48 368.288 1136.77 368.104 1135.95 368.104C1135.15 368.104 1134.44 368.288 1133.81 368.656C1133.19 369.008 1132.7 369.512 1132.35 370.168C1132 370.808 1131.82 371.544 1131.82 372.376V372.76C1131.82 373.608 1132.01 374.368 1132.4 375.04C1132.8 375.696 1133.35 376.208 1134.05 376.576C1134.76 376.944 1135.57 377.128 1136.48 377.128C1137.23 377.128 1137.91 377 1138.52 376.744C1139.14 376.488 1139.69 376.104 1140.15 375.592L1141.42 377.08C1140.85 377.752 1140.13 378.264 1139.26 378.616C1138.41 378.968 1137.46 379.144 1136.41 379.144ZM1155.78 379.144C1154.73 379.144 1153.76 378.904 1152.88 378.424C1152.01 377.928 1151.32 377.2 1150.79 376.24C1150.28 375.28 1150.02 374.08 1150.02 372.64C1150.02 371.2 1150.27 370 1150.77 369.04C1151.28 368.08 1151.97 367.36 1152.83 366.88C1153.71 366.4 1154.69 366.16 1155.78 366.16C1157.03 366.16 1158.13 366.432 1159.09 366.976C1160.05 367.52 1160.81 368.28 1161.37 369.256C1161.93 370.216 1162.21 371.344 1162.21 372.64C1162.21 373.936 1161.93 375.072 1161.37 376.048C1160.81 377.024 1160.05 377.784 1159.09 378.328C1158.13 378.872 1157.03 379.144 1155.78 379.144ZM1149.04 383.656V366.28H1151.25V369.712L1151.1 372.664L1151.34 375.616V383.656H1149.04ZM1155.59 377.128C1156.41 377.128 1157.13 376.944 1157.77 376.576C1158.43 376.208 1158.94 375.688 1159.31 375.016C1159.69 374.328 1159.89 373.536 1159.89 372.64C1159.89 371.728 1159.69 370.944 1159.31 370.288C1158.94 369.616 1158.43 369.096 1157.77 368.728C1157.13 368.36 1156.41 368.176 1155.59 368.176C1154.79 368.176 1154.06 368.36 1153.41 368.728C1152.77 369.096 1152.25 369.616 1151.87 370.288C1151.5 370.944 1151.32 371.728 1151.32 372.64C1151.32 373.536 1151.5 374.328 1151.87 375.016C1152.25 375.688 1152.77 376.208 1153.41 376.576C1154.06 376.944 1154.79 377.128 1155.59 377.128ZM1173.36 379.144C1172.08 379.144 1171.09 378.8 1170.39 378.112C1169.68 377.424 1169.33 376.44 1169.33 375.16V363.496H1171.64V375.064C1171.64 375.752 1171.8 376.28 1172.14 376.648C1172.49 377.016 1172.99 377.2 1173.63 377.2C1174.35 377.2 1174.95 377 1175.43 376.6L1176.15 378.256C1175.8 378.56 1175.37 378.784 1174.88 378.928C1174.4 379.072 1173.89 379.144 1173.36 379.144ZM1167.17 368.176V366.28H1175.28V368.176H1167.17Z" fill="#AF3931"/>
<g id="Dots_13">
<path d="M1060.5 359C1059.67 359 1059 358.328 1059 357.5C1059 356.672 1059.67 356 1060.5 356C1061.33 356 1062 356.672 1062 357.5C1062 358.328 1061.33 359 1060.5 359Z" fill="#AF3931"/>
<path d="M1060.5 371C1059.67 371 1059 370.328 1059 369.5C1059 368.672 1059.67 368 1060.5 368C1061.33 368 1062 368.672 1062 369.5C1062 370.328 1061.33 371 1060.5 371Z" fill="#AF3931"/>
<path d="M1060.5 383C1059.67 383 1059 382.328 1059 381.5C1059 380.672 1059.67 380 1060.5 380C1061.33 380 1062 380.672 1062 381.5C1062 382.328 1061.33 383 1060.5 383Z" fill="#AF3931"/>
</g>
</g>
<g id="Button v5 03" clip-path="url(#clip17_1_337)">
<g id="Border_18">
<path d="M1050 220V235H1053V223L1065 223V220H1050Z" fill="#EAEAEA"/>
<path d="M1050 280V265H1053V277H1065V280H1050Z" fill="#EAEAEA"/>
<path d="M1200 220V235H1197V223L1185 223V220H1200Z" fill="#EAEAEA"/>
<path d="M1200 280V265H1197V277H1185V280H1200Z" fill="#EAEAEA"/>
</g>
<rect id="Rectangle 6_12" x="1055" y="225" width="140" height="50" fill="white" fill-opacity="0.2"/>
<g id="Union_18">
<path d="M1178 223V220H1073V223L1178 223Z" fill="white" fill-opacity="0.2"/>
<path d="M1178 280V277H1073V280H1178Z" fill="white" fill-opacity="0.2"/>
<path d="M1050 243H1053V258H1050V243Z" fill="white" fill-opacity="0.2"/>
<path d="M1200 243H1197V258H1200V243Z" fill="white" fill-opacity="0.2"/>
</g>
<path id="Accept_3" d="M1073.23 259L1080.83 242.2H1083.21L1090.84 259H1088.32L1081.53 243.544H1082.49L1075.7 259H1073.23ZM1076.47 254.8L1077.11 252.88H1086.57L1087.27 254.8H1076.47ZM1102.04 259.144C1100.74 259.144 1099.58 258.864 1098.56 258.304C1097.55 257.744 1096.76 256.976 1096.18 256C1095.61 255.024 1095.32 253.904 1095.32 252.64C1095.32 251.376 1095.61 250.256 1096.18 249.28C1096.76 248.304 1097.55 247.544 1098.56 247C1099.58 246.44 1100.74 246.16 1102.04 246.16C1103.19 246.16 1104.21 246.392 1105.11 246.856C1106.02 247.304 1106.73 247.976 1107.22 248.872L1105.47 250C1105.05 249.376 1104.54 248.92 1103.93 248.632C1103.34 248.328 1102.7 248.176 1102.01 248.176C1101.18 248.176 1100.44 248.36 1099.78 248.728C1099.13 249.096 1098.61 249.616 1098.22 250.288C1097.84 250.944 1097.65 251.728 1097.65 252.64C1097.65 253.552 1097.84 254.344 1098.22 255.016C1098.61 255.688 1099.13 256.208 1099.78 256.576C1100.44 256.944 1101.18 257.128 1102.01 257.128C1102.7 257.128 1103.34 256.984 1103.93 256.696C1104.54 256.392 1105.05 255.928 1105.47 255.304L1107.22 256.408C1106.73 257.288 1106.02 257.968 1105.11 258.448C1104.21 258.912 1103.19 259.144 1102.04 259.144ZM1119.16 259.144C1117.87 259.144 1116.71 258.864 1115.68 258.304C1114.67 257.744 1113.88 256.976 1113.31 256C1112.73 255.024 1112.44 253.904 1112.44 252.64C1112.44 251.376 1112.73 250.256 1113.31 249.28C1113.88 248.304 1114.67 247.544 1115.68 247C1116.71 246.44 1117.87 246.16 1119.16 246.16C1120.31 246.16 1121.34 246.392 1122.23 246.856C1123.15 247.304 1123.85 247.976 1124.35 248.872L1122.59 250C1122.18 249.376 1121.67 248.92 1121.06 248.632C1120.47 248.328 1119.83 248.176 1119.14 248.176C1118.31 248.176 1117.56 248.36 1116.91 248.728C1116.25 249.096 1115.73 249.616 1115.35 250.288C1114.96 250.944 1114.77 251.728 1114.77 252.64C1114.77 253.552 1114.96 254.344 1115.35 255.016C1115.73 255.688 1116.25 256.208 1116.91 256.576C1117.56 256.944 1118.31 257.128 1119.14 257.128C1119.83 257.128 1120.47 256.984 1121.06 256.696C1121.67 256.392 1122.18 255.928 1122.59 255.304L1124.35 256.408C1123.85 257.288 1123.15 257.968 1122.23 258.448C1121.34 258.912 1120.31 259.144 1119.16 259.144ZM1136.41 259.144C1135.05 259.144 1133.85 258.864 1132.81 258.304C1131.78 257.744 1130.98 256.976 1130.41 256C1129.85 255.024 1129.57 253.904 1129.57 252.64C1129.57 251.376 1129.84 250.256 1130.38 249.28C1130.94 248.304 1131.7 247.544 1132.66 247C1133.64 246.44 1134.73 246.16 1135.95 246.16C1137.18 246.16 1138.27 246.432 1139.21 246.976C1140.16 247.52 1140.89 248.288 1141.42 249.28C1141.97 250.256 1142.24 251.4 1142.24 252.712C1142.24 252.808 1142.23 252.92 1142.21 253.048C1142.21 253.176 1142.21 253.296 1142.19 253.408H1131.37V251.752H1140.99L1140.05 252.328C1140.07 251.512 1139.9 250.784 1139.55 250.144C1139.2 249.504 1138.71 249.008 1138.09 248.656C1137.48 248.288 1136.77 248.104 1135.95 248.104C1135.15 248.104 1134.44 248.288 1133.81 248.656C1133.19 249.008 1132.7 249.512 1132.35 250.168C1132 250.808 1131.82 251.544 1131.82 252.376V252.76C1131.82 253.608 1132.01 254.368 1132.4 255.04C1132.8 255.696 1133.35 256.208 1134.05 256.576C1134.76 256.944 1135.57 257.128 1136.48 257.128C1137.23 257.128 1137.91 257 1138.52 256.744C1139.14 256.488 1139.69 256.104 1140.15 255.592L1141.42 257.08C1140.85 257.752 1140.13 258.264 1139.26 258.616C1138.41 258.968 1137.46 259.144 1136.41 259.144ZM1155.78 259.144C1154.73 259.144 1153.76 258.904 1152.88 258.424C1152.01 257.928 1151.32 257.2 1150.79 256.24C1150.28 255.28 1150.02 254.08 1150.02 252.64C1150.02 251.2 1150.27 250 1150.77 249.04C1151.28 248.08 1151.97 247.36 1152.83 246.88C1153.71 246.4 1154.69 246.16 1155.78 246.16C1157.03 246.16 1158.13 246.432 1159.09 246.976C1160.05 247.52 1160.81 248.28 1161.37 249.256C1161.93 250.216 1162.21 251.344 1162.21 252.64C1162.21 253.936 1161.93 255.072 1161.37 256.048C1160.81 257.024 1160.05 257.784 1159.09 258.328C1158.13 258.872 1157.03 259.144 1155.78 259.144ZM1149.04 263.656V246.28H1151.25V249.712L1151.1 252.664L1151.34 255.616V263.656H1149.04ZM1155.59 257.128C1156.41 257.128 1157.13 256.944 1157.77 256.576C1158.43 256.208 1158.94 255.688 1159.31 255.016C1159.69 254.328 1159.89 253.536 1159.89 252.64C1159.89 251.728 1159.69 250.944 1159.31 250.288C1158.94 249.616 1158.43 249.096 1157.77 248.728C1157.13 248.36 1156.41 248.176 1155.59 248.176C1154.79 248.176 1154.06 248.36 1153.41 248.728C1152.77 249.096 1152.25 249.616 1151.87 250.288C1151.5 250.944 1151.32 251.728 1151.32 252.64C1151.32 253.536 1151.5 254.328 1151.87 255.016C1152.25 255.688 1152.77 256.208 1153.41 256.576C1154.06 256.944 1154.79 257.128 1155.59 257.128ZM1173.36 259.144C1172.08 259.144 1171.09 258.8 1170.39 258.112C1169.68 257.424 1169.33 256.44 1169.33 255.16V243.496H1171.64V255.064C1171.64 255.752 1171.8 256.28 1172.14 256.648C1172.49 257.016 1172.99 257.2 1173.63 257.2C1174.35 257.2 1174.95 257 1175.43 256.6L1176.15 258.256C1175.8 258.56 1175.37 258.784 1174.88 258.928C1174.4 259.072 1173.89 259.144 1173.36 259.144ZM1167.17 248.176V246.28H1175.28V248.176H1167.17Z" fill="#EAEAEA"/>
</g>
<g id="Button v4 02" clip-path="url(#clip18_1_337)">
<g id="Border_19">
<path d="M1240 100V115H1243V103L1255 103V100H1240Z" fill="#AF3931"/>
<path d="M1240 160V145H1243V157H1255V160H1240Z" fill="#AF3931"/>
<path d="M1390 100V115H1387V103L1375 103V100H1390Z" fill="#AF3931"/>
<path d="M1390 160V145H1387V157H1375V160H1390Z" fill="#AF3931"/>
</g>
<rect id="Rectangle 6_13" x="1245" y="105" width="140" height="50" fill="#98231B" fill-opacity="0.2"/>
<g id="Union_19">
<path d="M1368 103V100H1263V103L1368 103Z" fill="white" fill-opacity="0.2"/>
<path d="M1368 160V157H1263V160H1368Z" fill="white" fill-opacity="0.2"/>
<path d="M1240 123H1243V138H1240V123Z" fill="white" fill-opacity="0.2"/>
<path d="M1390 123H1387V138H1390V123Z" fill="white" fill-opacity="0.2"/>
</g>
<g id="Accept_4">
<path d="M1335.43 115L1337.55 117.121L1309.26 145.406L1307.14 143.284L1335.43 115Z" fill="#AF3931"/>
<path d="M1293 129.142L1295.12 127.021L1305.73 137.627L1303.61 139.749L1293 129.142Z" fill="#AF3931"/>
</g>
<g id="Dots_14">
<path d="M1250.5 119C1249.67 119 1249 118.328 1249 117.5C1249 116.672 1249.67 116 1250.5 116C1251.33 116 1252 116.672 1252 117.5C1252 118.328 1251.33 119 1250.5 119Z" fill="#AF3931"/>
<path d="M1250.5 131C1249.67 131 1249 130.328 1249 129.5C1249 128.672 1249.67 128 1250.5 128C1251.33 128 1252 128.672 1252 129.5C1252 130.328 1251.33 131 1250.5 131Z" fill="#AF3931"/>
<path d="M1250.5 143C1249.67 143 1249 142.328 1249 141.5C1249 140.672 1249.67 140 1250.5 140C1251.33 140 1252 140.672 1252 141.5C1252 142.328 1251.33 143 1250.5 143Z" fill="#AF3931"/>
</g>
</g>
<g id="Button v6 02" clip-path="url(#clip19_1_337)">
<g id="Border_20">
<path d="M1240 340V355H1243V343L1255 343V340H1240Z" fill="#AF3931"/>
<path d="M1240 400V385H1243V397H1255V400H1240Z" fill="#AF3931"/>
<path d="M1390 340V355H1387V343L1375 343V340H1390Z" fill="#AF3931"/>
<path d="M1390 400V385H1387V397H1375V400H1390Z" fill="#AF3931"/>
</g>
<g id="Union_20">
<path d="M1368 343V340H1263V343L1368 343Z" fill="white" fill-opacity="0.2"/>
<path d="M1368 400V397H1263V400H1368Z" fill="white" fill-opacity="0.2"/>
<path d="M1240 363H1243V378H1240V363Z" fill="white" fill-opacity="0.2"/>
<path d="M1390 363H1387V378H1390V363Z" fill="white" fill-opacity="0.2"/>
</g>
<g id="Accept_5">
<path d="M1335.43 355L1337.55 357.121L1309.26 385.406L1307.14 383.284L1335.43 355Z" fill="#AF3931"/>
<path d="M1293 369.142L1295.12 367.021L1305.73 377.627L1303.61 379.749L1293 369.142Z" fill="#AF3931"/>
</g>
<g id="Dots_15">
<path d="M1250.5 359C1249.67 359 1249 358.328 1249 357.5C1249 356.672 1249.67 356 1250.5 356C1251.33 356 1252 356.672 1252 357.5C1252 358.328 1251.33 359 1250.5 359Z" fill="#AF3931"/>
<path d="M1250.5 371C1249.67 371 1249 370.328 1249 369.5C1249 368.672 1249.67 368 1250.5 368C1251.33 368 1252 368.672 1252 369.5C1252 370.328 1251.33 371 1250.5 371Z" fill="#AF3931"/>
<path d="M1250.5 383C1249.67 383 1249 382.328 1249 381.5C1249 380.672 1249.67 380 1250.5 380C1251.33 380 1252 380.672 1252 381.5C1252 382.328 1251.33 383 1250.5 383Z" fill="#AF3931"/>
</g>
</g>
<g id="Button v5 02" clip-path="url(#clip20_1_337)">
<g id="Border_21">
<path d="M1240 220V235H1243V223L1255 223V220H1240Z" fill="#EAEAEA"/>
<path d="M1240 280V265H1243V277H1255V280H1240Z" fill="#EAEAEA"/>
<path d="M1390 220V235H1387V223L1375 223V220H1390Z" fill="#EAEAEA"/>
<path d="M1390 280V265H1387V277H1375V280H1390Z" fill="#EAEAEA"/>
</g>
<rect id="Rectangle 6_14" x="1245" y="225" width="140" height="50" fill="white" fill-opacity="0.2"/>
<g id="Union_21">
<path d="M1368 223V220H1263V223L1368 223Z" fill="white" fill-opacity="0.2"/>
<path d="M1368 280V277H1263V280H1368Z" fill="white" fill-opacity="0.2"/>
<path d="M1240 243H1243V258H1240V243Z" fill="white" fill-opacity="0.2"/>
<path d="M1390 243H1387V258H1390V243Z" fill="white" fill-opacity="0.2"/>
</g>
<g id="Accept_6">
<path d="M1335.43 235L1337.55 237.121L1309.26 265.406L1307.14 263.284L1335.43 235Z" fill="#EAEAEA"/>
<path d="M1293 249.142L1295.12 247.021L1305.73 257.627L1303.61 259.749L1293 249.142Z" fill="#EAEAEA"/>
</g>
</g>
<g id="Button v4 01" clip-path="url(#clip21_1_337)">
<g id="Border_22">
<path d="M1430 100V115H1433V103L1445 103V100H1430Z" fill="#AF3931"/>
<path d="M1430 160V145H1433V157H1445V160H1430Z" fill="#AF3931"/>
<path d="M1580 100V115H1577V103L1565 103V100H1580Z" fill="#AF3931"/>
<path d="M1580 160V145H1577V157H1565V160H1580Z" fill="#AF3931"/>
</g>
<rect id="Rectangle 6_15" x="1435" y="105" width="140" height="50" fill="#98231B" fill-opacity="0.2"/>
<g id="Union_22">
<path d="M1558 103V100H1453V103L1558 103Z" fill="white" fill-opacity="0.2"/>
<path d="M1558 160V157H1453V160H1558Z" fill="white" fill-opacity="0.2"/>
<path d="M1430 123H1433V138H1430V123Z" fill="white" fill-opacity="0.2"/>
<path d="M1580 123H1577V138H1580V123Z" fill="white" fill-opacity="0.2"/>
</g>
<g id="Decline_4">
<path d="M1490.3 116.918L1492.42 114.797L1520.7 143.081L1518.58 145.203L1490.3 116.918Z" fill="#AF3931"/>
<path d="M1518.58 114.797L1520.7 116.918L1510.1 127.525L1507.97 125.404L1518.58 114.797Z" fill="#AF3931"/>
<path d="M1503.03 134.596L1500.9 132.475L1490.3 143.081L1492.42 145.203L1503.03 134.596Z" fill="#AF3931"/>
</g>
<g id="Dots_16">
<path d="M1440.5 119C1439.67 119 1439 118.328 1439 117.5C1439 116.672 1439.67 116 1440.5 116C1441.33 116 1442 116.672 1442 117.5C1442 118.328 1441.33 119 1440.5 119Z" fill="#AF3931"/>
<path d="M1440.5 131C1439.67 131 1439 130.328 1439 129.5C1439 128.672 1439.67 128 1440.5 128C1441.33 128 1442 128.672 1442 129.5C1442 130.328 1441.33 131 1440.5 131Z" fill="#AF3931"/>
<path d="M1440.5 143C1439.67 143 1439 142.328 1439 141.5C1439 140.672 1439.67 140 1440.5 140C1441.33 140 1442 140.672 1442 141.5C1442 142.328 1441.33 143 1440.5 143Z" fill="#AF3931"/>
</g>
</g>
<g id="Button v6 01" clip-path="url(#clip22_1_337)">
<g id="Border_23">
<path d="M1430 340V355H1433V343L1445 343V340H1430Z" fill="#AF3931"/>
<path d="M1430 400V385H1433V397H1445V400H1430Z" fill="#AF3931"/>
<path d="M1580 340V355H1577V343L1565 343V340H1580Z" fill="#AF3931"/>
<path d="M1580 400V385H1577V397H1565V400H1580Z" fill="#AF3931"/>
</g>
<g id="Union_23">
<path d="M1558 343V340H1453V343L1558 343Z" fill="white" fill-opacity="0.2"/>
<path d="M1558 400V397H1453V400H1558Z" fill="white" fill-opacity="0.2"/>
<path d="M1430 363H1433V378H1430V363Z" fill="white" fill-opacity="0.2"/>
<path d="M1580 363H1577V378H1580V363Z" fill="white" fill-opacity="0.2"/>
</g>
<g id="Decline_5">
<path d="M1490.3 356.918L1492.42 354.797L1520.7 383.081L1518.58 385.203L1490.3 356.918Z" fill="#AF3931"/>
<path d="M1518.58 354.797L1520.7 356.918L1510.1 367.525L1507.97 365.404L1518.58 354.797Z" fill="#AF3931"/>
<path d="M1503.03 374.596L1500.9 372.475L1490.3 383.081L1492.42 385.203L1503.03 374.596Z" fill="#AF3931"/>
</g>
<g id="Dots_17">
<path d="M1440.5 359C1439.67 359 1439 358.328 1439 357.5C1439 356.672 1439.67 356 1440.5 356C1441.33 356 1442 356.672 1442 357.5C1442 358.328 1441.33 359 1440.5 359Z" fill="#AF3931"/>
<path d="M1440.5 371C1439.67 371 1439 370.328 1439 369.5C1439 368.672 1439.67 368 1440.5 368C1441.33 368 1442 368.672 1442 369.5C1442 370.328 1441.33 371 1440.5 371Z" fill="#AF3931"/>
<path d="M1440.5 383C1439.67 383 1439 382.328 1439 381.5C1439 380.672 1439.67 380 1440.5 380C1441.33 380 1442 380.672 1442 381.5C1442 382.328 1441.33 383 1440.5 383Z" fill="#AF3931"/>
</g>
</g>
<g id="Button v5 01" clip-path="url(#clip23_1_337)">
<g id="Border_24">
<path d="M1430 220V235H1433V223L1445 223V220H1430Z" fill="#EAEAEA"/>
<path d="M1430 280V265H1433V277H1445V280H1430Z" fill="#EAEAEA"/>
<path d="M1580 220V235H1577V223L1565 223V220H1580Z" fill="#EAEAEA"/>
<path d="M1580 280V265H1577V277H1565V280H1580Z" fill="#EAEAEA"/>
</g>
<rect id="Rectangle 6_16" x="1435" y="225" width="140" height="50" fill="white" fill-opacity="0.2"/>
<g id="Union_24">
<path d="M1558 223V220H1453V223L1558 223Z" fill="white" fill-opacity="0.2"/>
<path d="M1558 280V277H1453V280H1558Z" fill="white" fill-opacity="0.2"/>
<path d="M1430 243H1433V258H1430V243Z" fill="white" fill-opacity="0.2"/>
<path d="M1580 243H1577V258H1580V243Z" fill="white" fill-opacity="0.2"/>
</g>
<g id="Decline_6">
<path d="M1490.3 236.918L1492.42 234.797L1520.7 263.081L1518.58 265.203L1490.3 236.918Z" fill="#EAEAEA"/>
<path d="M1518.58 234.797L1520.7 236.918L1510.1 247.525L1507.97 245.404L1518.58 234.797Z" fill="#EAEAEA"/>
<path d="M1503.03 254.596L1500.9 252.475L1490.3 263.081L1492.42 265.203L1503.03 254.596Z" fill="#EAEAEA"/>
</g>
</g>
</g>
<defs>
<clipPath id="clip0_1_337">
<rect width="150" height="60" fill="white" transform="translate(100 100)"/>
</clipPath>
<clipPath id="clip1_1_337">
<rect width="150" height="60" fill="white" transform="translate(100 340)"/>
</clipPath>
<clipPath id="clip2_1_337">
<rect width="150" height="60" fill="white" transform="translate(100 220)"/>
</clipPath>
<clipPath id="clip3_1_337">
<rect width="150" height="60" fill="white" transform="translate(290 100)"/>
</clipPath>
<clipPath id="clip4_1_337">
<rect width="150" height="60" fill="white" transform="translate(290 340)"/>
</clipPath>
<clipPath id="clip5_1_337">
<rect width="150" height="60" fill="white" transform="translate(290 220)"/>
</clipPath>
<clipPath id="clip6_1_337">
<rect width="150" height="60" fill="white" transform="translate(480 100)"/>
</clipPath>
<clipPath id="clip7_1_337">
<rect width="150" height="60" fill="white" transform="translate(480 340)"/>
</clipPath>
<clipPath id="clip8_1_337">
<rect width="150" height="60" fill="white" transform="translate(480 220)"/>
</clipPath>
<clipPath id="clip9_1_337">
<rect width="150" height="60" fill="white" transform="translate(670 100)"/>
</clipPath>
<clipPath id="clip10_1_337">
<rect width="150" height="60" fill="white" transform="translate(670 340)"/>
</clipPath>
<clipPath id="clip11_1_337">
<rect width="150" height="60" fill="white" transform="translate(670 220)"/>
</clipPath>
<clipPath id="clip12_1_337">
<rect width="150" height="60" fill="white" transform="translate(860 100)"/>
</clipPath>
<clipPath id="clip13_1_337">
<rect width="150" height="60" fill="white" transform="translate(860 340)"/>
</clipPath>
<clipPath id="clip14_1_337">
<rect width="150" height="60" fill="white" transform="translate(860 220)"/>
</clipPath>
<clipPath id="clip15_1_337">
<rect width="150" height="60" fill="white" transform="translate(1050 100)"/>
</clipPath>
<clipPath id="clip16_1_337">
<rect width="150" height="60" fill="white" transform="translate(1050 340)"/>
</clipPath>
<clipPath id="clip17_1_337">
<rect width="150" height="60" fill="white" transform="translate(1050 220)"/>
</clipPath>
<clipPath id="clip18_1_337">
<rect width="150" height="60" fill="white" transform="translate(1240 100)"/>
</clipPath>
<clipPath id="clip19_1_337">
<rect width="150" height="60" fill="white" transform="translate(1240 340)"/>
</clipPath>
<clipPath id="clip20_1_337">
<rect width="150" height="60" fill="white" transform="translate(1240 220)"/>
</clipPath>
<clipPath id="clip21_1_337">
<rect width="150" height="60" fill="white" transform="translate(1430 100)"/>
</clipPath>
<clipPath id="clip22_1_337">
<rect width="150" height="60" fill="white" transform="translate(1430 340)"/>
</clipPath>
<clipPath id="clip23_1_337">
<rect width="150" height="60" fill="white" transform="translate(1430 220)"/>
</clipPath>
</defs>
</svg>
