<svg width="2110" height="280" viewBox="0 0 2110 280" fill="none" xmlns="http://www.w3.org/2000/svg">
<g id="Button Pack 4">
<path d="M0 2C0 0.895426 0.895431 0 2 0H2108C2109.1 0 2110 0.895431 2110 2V278C2110 279.105 2109.1 280 2108 280H2.00005C0.895484 280 0 279.105 0 278V2Z" fill="#232323"/>
<path d="M2 1H2108V-1H2V1ZM2109 2V278H2111V2H2109ZM2108 279H2.00005V281H2108V279ZM1 278V2H-1V278H1ZM2.00005 279C1.44773 279 1 278.552 1 278H-1C-1 279.657 0.343234 281 2.00005 281V279ZM2109 278C2109 278.552 2108.55 279 2108 279V281C2109.66 281 2111 279.657 2111 278H2109ZM2108 1C2108.55 1 2109 1.44775 2109 2H2111C2111 0.343111 2109.66 -1 2108 -1V1ZM2 -1C0.343149 -1 -1 0.343139 -1 2H1C1 1.44771 1.44771 1 2 1V-1Z" fill="white" fill-opacity="0.1"/>
<g id="Button 7" clip-path="url(#clip0_1_589)">
<g id="Border">
<path id="Border_2" d="M100 100V115H103V103L115 103V100H100Z" fill="#AF3931"/>
<path id="Border_3" d="M100 180V165H103V177L115 177V180H100Z" fill="#AF3931"/>
<path id="Border_4" d="M450 100V115H447V103L435 103V100H450Z" fill="#AF3931"/>
<path id="Border_5" d="M450 180V165H447V177L435 177V180H450Z" fill="#AF3931"/>
</g>
<rect id="Rectangle 92" x="180" y="115" width="190" height="50" fill="#98231B" fill-opacity="0.2"/>
<path id="Warning" fill-rule="evenodd" clip-rule="evenodd" d="M122.025 105L106 105L106 120.87L122.025 105ZM106 160.752L106 141.466L142.822 105L162.296 105L106 160.752ZM132.003 175L112.528 175L176 112.142L176 131.428L132.003 175ZM172.392 175L152.918 175L176 152.141L176 171.427L172.392 175Z" fill="#98231B" fill-opacity="0.8"/>
<path id="Warning_2" fill-rule="evenodd" clip-rule="evenodd" d="M390.025 105L374 105V120.87L390.025 105ZM374 160.752L374 141.466L410.822 105L430.296 105L374 160.752ZM400.003 175L380.528 175L444 112.142L444 131.428L400.003 175ZM440.392 175L420.918 175L444 152.141V171.427L440.392 175Z" fill="#98231B" fill-opacity="0.8"/>
<rect id="Rectangle 93" x="180" y="105" width="190" height="5" fill="#AF3931"/>
<rect id="Rectangle 94" x="180" y="170" width="190" height="5" fill="#AF3931"/>
<path id="&#60;DANGER&#62;" d="M206.44 143.88L195.688 139.632V137.568L206.44 133.32V135.312L196.48 139.152V138.048L206.44 141.888V143.88ZM214.168 147V130.2H221.248C223.04 130.2 224.616 130.552 225.976 131.256C227.352 131.96 228.416 132.944 229.168 134.208C229.936 135.472 230.32 136.936 230.32 138.6C230.32 140.264 229.936 141.728 229.168 142.992C228.416 144.256 227.352 145.24 225.976 145.944C224.616 146.648 223.04 147 221.248 147H214.168ZM216.568 144.912H221.104C222.496 144.912 223.696 144.648 224.704 144.12C225.728 143.592 226.52 142.856 227.08 141.912C227.64 140.952 227.92 139.848 227.92 138.6C227.92 137.336 227.64 136.232 227.08 135.288C226.52 134.344 225.728 133.608 224.704 133.08C223.696 132.552 222.496 132.288 221.104 132.288H216.568V144.912ZM234.818 147L242.426 130.2H244.802L252.434 147H249.914L243.122 131.544H244.082L237.29 147H234.818ZM238.058 142.8L238.706 140.88H248.162L248.858 142.8H238.058ZM258.54 147V130.2H260.508L271.62 144H270.588V130.2H272.988V147H271.02L259.908 133.2H260.94V147H258.54ZM289.201 147.192C287.905 147.192 286.713 146.984 285.625 146.568C284.537 146.136 283.593 145.536 282.793 144.768C281.993 143.984 281.369 143.072 280.921 142.032C280.473 140.992 280.249 139.848 280.249 138.6C280.249 137.352 280.473 136.208 280.921 135.168C281.369 134.128 281.993 133.224 282.793 132.456C283.609 131.672 284.561 131.072 285.649 130.656C286.737 130.224 287.937 130.008 289.249 130.008C290.577 130.008 291.793 130.224 292.897 130.656C294.001 131.088 294.937 131.736 295.705 132.6L294.217 134.088C293.529 133.416 292.777 132.928 291.961 132.624C291.161 132.304 290.289 132.144 289.345 132.144C288.385 132.144 287.489 132.304 286.657 132.624C285.841 132.944 285.129 133.392 284.521 133.968C283.929 134.544 283.465 135.232 283.129 136.032C282.809 136.816 282.649 137.672 282.649 138.6C282.649 139.512 282.809 140.368 283.129 141.168C283.465 141.952 283.929 142.64 284.521 143.232C285.129 143.808 285.841 144.256 286.657 144.576C287.473 144.896 288.361 145.056 289.321 145.056C290.217 145.056 291.073 144.92 291.889 144.648C292.721 144.36 293.489 143.888 294.193 143.232L295.561 145.056C294.729 145.76 293.753 146.296 292.633 146.664C291.529 147.016 290.385 147.192 289.201 147.192ZM293.257 144.744V138.504H295.561V145.056L293.257 144.744ZM305.94 137.448H314.58V139.488H305.94V137.448ZM306.156 144.912H315.948V147H303.756V130.2H315.612V132.288H306.156V144.912ZM323.434 147V130.2H329.986C331.458 130.2 332.714 130.432 333.754 130.896C334.794 131.36 335.594 132.032 336.154 132.912C336.714 133.792 336.994 134.84 336.994 136.056C336.994 137.272 336.714 138.32 336.154 139.2C335.594 140.064 334.794 140.728 333.754 141.192C332.714 141.656 331.458 141.888 329.986 141.888H324.754L325.834 140.784V147H323.434ZM334.666 147L330.394 140.904H332.962L337.282 147H334.666ZM325.834 141.024L324.754 139.848H329.914C331.45 139.848 332.61 139.52 333.394 138.864C334.194 138.192 334.594 137.256 334.594 136.056C334.594 134.856 334.194 133.928 333.394 133.272C332.61 132.616 331.45 132.288 329.914 132.288H324.754L325.834 131.088V141.024ZM343.56 143.88V141.888L353.544 138.048V139.152L343.56 135.312V133.32L354.312 137.568V139.632L343.56 143.88Z" fill="white"/>
<path id="Vector" d="M144.8 156.316V150.607C144.8 150.327 144.705 150.091 144.514 149.901C144.324 149.711 144.099 149.615 143.838 149.615H138.069C137.809 149.615 137.583 149.711 137.393 149.901C137.203 150.091 137.107 150.327 137.107 150.607V156.316C137.107 156.597 137.203 156.832 137.393 157.022C137.583 157.213 137.809 157.308 138.069 157.308H143.838C144.099 157.308 144.324 157.213 144.514 157.022C144.705 156.832 144.8 156.597 144.8 156.316ZM144.74 145.078L145.28 131.286C145.28 131.046 145.18 130.855 144.98 130.715C144.72 130.495 144.479 130.385 144.259 130.385H137.648C137.428 130.385 137.188 130.495 136.927 130.715C136.727 130.855 136.627 131.066 136.627 131.346L137.137 145.078C137.137 145.278 137.238 145.444 137.438 145.574C137.638 145.704 137.879 145.769 138.159 145.769H143.718C143.998 145.769 144.234 145.704 144.424 145.574C144.614 145.444 144.72 145.278 144.74 145.078ZM144.319 117.013L167.396 159.321C168.097 160.583 168.077 161.845 167.336 163.107C166.995 163.688 166.529 164.149 165.939 164.489C165.348 164.83 164.712 165 164.03 165H117.877C117.196 165 116.56 164.83 115.969 164.489C115.378 164.149 114.912 163.688 114.571 163.107C113.83 161.845 113.81 160.583 114.511 159.321L137.588 117.013C137.929 116.392 138.399 115.901 139 115.541C139.601 115.18 140.252 115 140.954 115C141.655 115 142.306 115.18 142.907 115.541C143.508 115.901 143.978 116.392 144.319 117.013Z" fill="white" fill-opacity="0.9"/>
<path id="Vector_2" d="M412.8 156.316V150.607C412.8 150.327 412.705 150.091 412.514 149.901C412.324 149.711 412.099 149.615 411.838 149.615H406.069C405.809 149.615 405.583 149.711 405.393 149.901C405.203 150.091 405.107 150.327 405.107 150.607V156.316C405.107 156.597 405.203 156.832 405.393 157.022C405.583 157.213 405.809 157.308 406.069 157.308H411.838C412.099 157.308 412.324 157.213 412.514 157.022C412.705 156.832 412.8 156.597 412.8 156.316ZM412.74 145.078L413.28 131.286C413.28 131.046 413.18 130.855 412.98 130.715C412.72 130.495 412.479 130.385 412.259 130.385H405.648C405.428 130.385 405.188 130.495 404.927 130.715C404.727 130.855 404.627 131.066 404.627 131.346L405.137 145.078C405.137 145.278 405.238 145.444 405.438 145.574C405.638 145.704 405.879 145.769 406.159 145.769H411.718C411.998 145.769 412.234 145.704 412.424 145.574C412.614 145.444 412.72 145.278 412.74 145.078ZM412.319 117.013L435.396 159.321C436.097 160.583 436.077 161.845 435.336 163.107C434.995 163.688 434.529 164.149 433.939 164.489C433.348 164.83 432.712 165 432.03 165H385.877C385.196 165 384.56 164.83 383.969 164.489C383.378 164.149 382.912 163.688 382.571 163.107C381.83 161.845 381.81 160.583 382.511 159.321L405.588 117.013C405.929 116.392 406.399 115.901 407 115.541C407.601 115.18 408.252 115 408.954 115C409.655 115 410.306 115.18 410.907 115.541C411.508 115.901 411.978 116.392 412.319 117.013Z" fill="white" fill-opacity="0.9"/>
</g>
<g id="Button 8" clip-path="url(#clip1_1_589)">
<g id="Border_6">
<path id="Border_7" d="M490 100V115H493V103L505 103V100H490Z" fill="#AF3931"/>
<path id="Border_8" d="M490 180V165H493V177L505 177V180H490Z" fill="#AF3931"/>
<path id="Border_9" d="M840 100V115H837V103L825 103V100H840Z" fill="#AF3931"/>
<path id="Border_10" d="M840 180V165H837V177L825 177V180H840Z" fill="#AF3931"/>
</g>
<rect id="Rectangle 92_2" x="570" y="115" width="190" height="50" fill="#98231B" fill-opacity="0.2"/>
<path id="Warning_3" fill-rule="evenodd" clip-rule="evenodd" d="M512.025 105L496 105V120.87L512.025 105ZM496 160.752L496 141.466L532.822 105L552.296 105L496 160.752ZM522.003 175L502.528 175L566 112.142V131.428L522.003 175ZM562.392 175L542.918 175L566 152.141V171.427L562.392 175Z" fill="#98231B" fill-opacity="0.8"/>
<path id="Warning_4" fill-rule="evenodd" clip-rule="evenodd" d="M780.025 105L764 105V120.87L780.025 105ZM764 160.752V141.466L800.822 105L820.296 105L764 160.752ZM790.003 175L770.528 175L834 112.142V131.428L790.003 175ZM830.392 175L810.918 175L834 152.141V171.427L830.392 175Z" fill="#98231B" fill-opacity="0.8"/>
<rect id="Rectangle 93_2" x="570" y="105" width="190" height="5" fill="#AF3931"/>
<rect id="Rectangle 94_2" x="570" y="170" width="190" height="5" fill="#AF3931"/>
<path id="&#60;ACCEPT&#62;" d="M601.596 143.88L590.844 139.632V137.568L601.596 133.32V135.312L591.636 139.152V138.048L601.596 141.888V143.88ZM606.781 147L614.389 130.2H616.765L624.397 147H621.877L615.085 131.544H616.045L609.253 147H606.781ZM610.021 142.8L610.669 140.88H620.125L620.821 142.8H610.021ZM637.78 147.192C636.5 147.192 635.316 146.984 634.228 146.568C633.156 146.136 632.22 145.536 631.42 144.768C630.636 143.984 630.02 143.072 629.572 142.032C629.124 140.992 628.9 139.848 628.9 138.6C628.9 137.352 629.124 136.208 629.572 135.168C630.02 134.128 630.644 133.224 631.444 132.456C632.244 131.672 633.18 131.072 634.252 130.656C635.34 130.224 636.524 130.008 637.804 130.008C639.1 130.008 640.292 130.232 641.38 130.68C642.484 131.112 643.42 131.76 644.188 132.624L642.628 134.136C641.988 133.464 641.268 132.968 640.468 132.648C639.668 132.312 638.812 132.144 637.9 132.144C636.956 132.144 636.076 132.304 635.26 132.624C634.46 132.944 633.764 133.392 633.172 133.968C632.58 134.544 632.116 135.232 631.78 136.032C631.46 136.816 631.3 137.672 631.3 138.6C631.3 139.528 631.46 140.392 631.78 141.192C632.116 141.976 632.58 142.656 633.172 143.232C633.764 143.808 634.46 144.256 635.26 144.576C636.076 144.896 636.956 145.056 637.9 145.056C638.812 145.056 639.668 144.896 640.468 144.576C641.268 144.24 641.988 143.728 642.628 143.04L644.188 144.552C643.42 145.416 642.484 146.072 641.38 146.52C640.292 146.968 639.092 147.192 637.78 147.192ZM658.373 147.192C657.093 147.192 655.909 146.984 654.821 146.568C653.749 146.136 652.813 145.536 652.013 144.768C651.229 143.984 650.613 143.072 650.165 142.032C649.717 140.992 649.493 139.848 649.493 138.6C649.493 137.352 649.717 136.208 650.165 135.168C650.613 134.128 651.237 133.224 652.037 132.456C652.837 131.672 653.773 131.072 654.845 130.656C655.933 130.224 657.117 130.008 658.397 130.008C659.693 130.008 660.885 130.232 661.973 130.68C663.077 131.112 664.013 131.76 664.781 132.624L663.221 134.136C662.581 133.464 661.861 132.968 661.061 132.648C660.261 132.312 659.405 132.144 658.493 132.144C657.549 132.144 656.669 132.304 655.853 132.624C655.053 132.944 654.357 133.392 653.765 133.968C653.173 134.544 652.709 135.232 652.373 136.032C652.053 136.816 651.893 137.672 651.893 138.6C651.893 139.528 652.053 140.392 652.373 141.192C652.709 141.976 653.173 142.656 653.765 143.232C654.357 143.808 655.053 144.256 655.853 144.576C656.669 144.896 657.549 145.056 658.493 145.056C659.405 145.056 660.261 144.896 661.061 144.576C661.861 144.24 662.581 143.728 663.221 143.04L664.781 144.552C664.013 145.416 663.077 146.072 661.973 146.52C660.885 146.968 659.685 147.192 658.373 147.192ZM673.988 137.448H682.628V139.488H673.988V137.448ZM674.204 144.912H683.996V147H671.804V130.2H683.66V132.288H674.204V144.912ZM691.483 147V130.2H698.035C699.507 130.2 700.763 130.432 701.803 130.896C702.843 131.36 703.643 132.032 704.203 132.912C704.763 133.792 705.043 134.84 705.043 136.056C705.043 137.272 704.763 138.32 704.203 139.2C703.643 140.064 702.843 140.736 701.803 141.216C700.763 141.68 699.507 141.912 698.035 141.912H692.803L693.883 140.784V147H691.483ZM693.883 141.024L692.803 139.824H697.963C699.499 139.824 700.659 139.496 701.443 138.84C702.243 138.184 702.643 137.256 702.643 136.056C702.643 134.856 702.243 133.928 701.443 133.272C700.659 132.616 699.499 132.288 697.963 132.288H692.803L693.883 131.088V141.024ZM714.965 147V132.288H709.205V130.2H723.101V132.288H717.341V147H714.965ZM728.403 143.88V141.888L738.387 138.048V139.152L728.403 135.312V133.32L739.155 137.568V139.632L728.403 143.88Z" fill="white"/>
<path id="Vector_3" d="M534.8 156.316V150.607C534.8 150.327 534.705 150.091 534.514 149.901C534.324 149.711 534.099 149.615 533.838 149.615H528.069C527.809 149.615 527.583 149.711 527.393 149.901C527.203 150.091 527.107 150.327 527.107 150.607V156.316C527.107 156.597 527.203 156.832 527.393 157.022C527.583 157.213 527.809 157.308 528.069 157.308H533.838C534.099 157.308 534.324 157.213 534.514 157.022C534.705 156.832 534.8 156.597 534.8 156.316ZM534.74 145.078L535.28 131.286C535.28 131.046 535.18 130.855 534.98 130.715C534.72 130.495 534.479 130.385 534.259 130.385H527.648C527.428 130.385 527.188 130.495 526.927 130.715C526.727 130.855 526.627 131.066 526.627 131.346L527.137 145.078C527.137 145.278 527.238 145.444 527.438 145.574C527.638 145.704 527.879 145.769 528.159 145.769H533.718C533.998 145.769 534.234 145.704 534.424 145.574C534.614 145.444 534.72 145.278 534.74 145.078ZM534.319 117.013L557.396 159.321C558.097 160.583 558.077 161.845 557.336 163.107C556.995 163.688 556.529 164.149 555.939 164.489C555.348 164.83 554.712 165 554.03 165H507.877C507.196 165 506.56 164.83 505.969 164.489C505.378 164.149 504.912 163.688 504.571 163.107C503.83 161.845 503.81 160.583 504.511 159.321L527.588 117.013C527.929 116.392 528.399 115.901 529 115.541C529.601 115.18 530.252 115 530.954 115C531.655 115 532.306 115.18 532.907 115.541C533.508 115.901 533.978 116.392 534.319 117.013Z" fill="white" fill-opacity="0.9"/>
<path id="Vector_4" d="M802.8 156.316V150.607C802.8 150.327 802.705 150.091 802.514 149.901C802.324 149.711 802.099 149.615 801.838 149.615H796.069C795.809 149.615 795.583 149.711 795.393 149.901C795.203 150.091 795.107 150.327 795.107 150.607V156.316C795.107 156.597 795.203 156.832 795.393 157.022C795.583 157.213 795.809 157.308 796.069 157.308H801.838C802.099 157.308 802.324 157.213 802.514 157.022C802.705 156.832 802.8 156.597 802.8 156.316ZM802.74 145.078L803.28 131.286C803.28 131.046 803.18 130.855 802.98 130.715C802.72 130.495 802.479 130.385 802.259 130.385H795.648C795.428 130.385 795.188 130.495 794.927 130.715C794.727 130.855 794.627 131.066 794.627 131.346L795.137 145.078C795.137 145.278 795.238 145.444 795.438 145.574C795.638 145.704 795.879 145.769 796.159 145.769H801.718C801.998 145.769 802.234 145.704 802.424 145.574C802.614 145.444 802.72 145.278 802.74 145.078ZM802.319 117.013L825.396 159.321C826.097 160.583 826.077 161.845 825.336 163.107C824.995 163.688 824.529 164.149 823.939 164.489C823.348 164.83 822.712 165 822.03 165H775.877C775.196 165 774.56 164.83 773.969 164.489C773.378 164.149 772.912 163.688 772.571 163.107C771.83 161.845 771.81 160.583 772.511 159.321L795.588 117.013C795.929 116.392 796.399 115.901 797 115.541C797.601 115.18 798.252 115 798.954 115C799.655 115 800.306 115.18 800.907 115.541C801.508 115.901 801.978 116.392 802.319 117.013Z" fill="white" fill-opacity="0.9"/>
</g>
<g id="Button 9" clip-path="url(#clip2_1_589)">
<g id="Border_11">
<path id="Border_12" d="M880 100V115H883V103L895 103V100H880Z" fill="#AF3931"/>
<path id="Border_13" d="M880 180V165H883V177L895 177V180H880Z" fill="#AF3931"/>
<path id="Border_14" d="M1230 100V115H1227V103L1215 103V100H1230Z" fill="#AF3931"/>
<path id="Border_15" d="M1230 180V165H1227V177L1215 177V180H1230Z" fill="#AF3931"/>
</g>
<rect id="Rectangle 92_3" x="960" y="115" width="190" height="50" fill="#98231B" fill-opacity="0.2"/>
<path id="Warning_5" fill-rule="evenodd" clip-rule="evenodd" d="M902.025 105L886 105V120.87L902.025 105ZM886 160.752V141.466L922.822 105L942.296 105L886 160.752ZM912.003 175L892.528 175L956 112.142V131.428L912.003 175ZM952.392 175L932.918 175L956 152.141V171.427L952.392 175Z" fill="#98231B" fill-opacity="0.8"/>
<path id="Warning_6" fill-rule="evenodd" clip-rule="evenodd" d="M1170.02 105L1154 105V120.87L1170.02 105ZM1154 160.752V141.466L1190.82 105L1210.3 105L1154 160.752ZM1180 175L1160.53 175L1224 112.142V131.428L1180 175ZM1220.39 175L1200.92 175L1224 152.141V171.427L1220.39 175Z" fill="#98231B" fill-opacity="0.8"/>
<rect id="Rectangle 93_3" x="960" y="105" width="190" height="5" fill="#AF3931"/>
<rect id="Rectangle 94_3" x="960" y="170" width="190" height="5" fill="#AF3931"/>
<path id="&#60;HACK&#62;" d="M1008.68 143.88L997.932 139.632V137.568L1008.68 133.32V135.312L998.724 139.152V138.048L1008.68 141.888V143.88ZM1028.46 130.2H1030.86V147H1028.46V130.2ZM1018.81 147H1016.41V130.2H1018.81V147ZM1028.68 139.512H1018.57V137.424H1028.68V139.512ZM1036.95 147L1044.55 130.2H1046.93L1054.56 147H1052.04L1045.25 131.544H1046.21L1039.42 147H1036.95ZM1040.19 142.8L1040.83 140.88H1050.29L1050.99 142.8H1040.19ZM1067.95 147.192C1066.67 147.192 1065.48 146.984 1064.39 146.568C1063.32 146.136 1062.39 145.536 1061.59 144.768C1060.8 143.984 1060.19 143.072 1059.74 142.032C1059.29 140.992 1059.07 139.848 1059.07 138.6C1059.07 137.352 1059.29 136.208 1059.74 135.168C1060.19 134.128 1060.81 133.224 1061.61 132.456C1062.41 131.672 1063.35 131.072 1064.42 130.656C1065.51 130.224 1066.69 130.008 1067.97 130.008C1069.27 130.008 1070.46 130.232 1071.55 130.68C1072.65 131.112 1073.59 131.76 1074.35 132.624L1072.79 134.136C1072.15 133.464 1071.43 132.968 1070.63 132.648C1069.83 132.312 1068.98 132.144 1068.07 132.144C1067.12 132.144 1066.24 132.304 1065.43 132.624C1064.63 132.944 1063.93 133.392 1063.34 133.968C1062.75 134.544 1062.28 135.232 1061.95 136.032C1061.63 136.816 1061.47 137.672 1061.47 138.6C1061.47 139.528 1061.63 140.392 1061.95 141.192C1062.28 141.976 1062.75 142.656 1063.34 143.232C1063.93 143.808 1064.63 144.256 1065.43 144.576C1066.24 144.896 1067.12 145.056 1068.07 145.056C1068.98 145.056 1069.83 144.896 1070.63 144.576C1071.43 144.24 1072.15 143.728 1072.79 143.04L1074.35 144.552C1073.59 145.416 1072.65 146.072 1071.55 146.52C1070.46 146.968 1069.26 147.192 1067.95 147.192ZM1083.49 142.944L1083.37 140.016L1092.9 130.2H1095.63L1088.27 137.976L1086.92 139.464L1083.49 142.944ZM1081.38 147V130.2H1083.78V147H1081.38ZM1093.28 147L1086.39 138.984L1088 137.208L1096.09 147H1093.28ZM1101.32 143.88V141.888L1111.3 138.048V139.152L1101.32 135.312V133.32L1112.07 137.568V139.632L1101.32 143.88Z" fill="white"/>
<path id="Vector_5" d="M924.8 156.316V150.607C924.8 150.327 924.705 150.091 924.514 149.901C924.324 149.711 924.099 149.615 923.838 149.615H918.069C917.809 149.615 917.583 149.711 917.393 149.901C917.203 150.091 917.107 150.327 917.107 150.607V156.316C917.107 156.597 917.203 156.832 917.393 157.022C917.583 157.213 917.809 157.308 918.069 157.308H923.838C924.099 157.308 924.324 157.213 924.514 157.022C924.705 156.832 924.8 156.597 924.8 156.316ZM924.74 145.078L925.28 131.286C925.28 131.046 925.18 130.855 924.98 130.715C924.72 130.495 924.479 130.385 924.259 130.385H917.648C917.428 130.385 917.188 130.495 916.927 130.715C916.727 130.855 916.627 131.066 916.627 131.346L917.137 145.078C917.137 145.278 917.238 145.444 917.438 145.574C917.638 145.704 917.879 145.769 918.159 145.769H923.718C923.998 145.769 924.234 145.704 924.424 145.574C924.614 145.444 924.72 145.278 924.74 145.078ZM924.319 117.013L947.396 159.321C948.097 160.583 948.077 161.845 947.336 163.107C946.995 163.688 946.529 164.149 945.939 164.489C945.348 164.83 944.712 165 944.03 165H897.877C897.196 165 896.56 164.83 895.969 164.489C895.378 164.149 894.912 163.688 894.571 163.107C893.83 161.845 893.81 160.583 894.511 159.321L917.588 117.013C917.929 116.392 918.399 115.901 919 115.541C919.601 115.18 920.252 115 920.954 115C921.655 115 922.306 115.18 922.907 115.541C923.508 115.901 923.978 116.392 924.319 117.013Z" fill="white" fill-opacity="0.9"/>
<path id="Vector_6" d="M1192.8 156.316V150.607C1192.8 150.327 1192.7 150.091 1192.51 149.901C1192.32 149.711 1192.1 149.615 1191.84 149.615H1186.07C1185.81 149.615 1185.58 149.711 1185.39 149.901C1185.2 150.091 1185.11 150.327 1185.11 150.607V156.316C1185.11 156.597 1185.2 156.832 1185.39 157.022C1185.58 157.213 1185.81 157.308 1186.07 157.308H1191.84C1192.1 157.308 1192.32 157.213 1192.51 157.022C1192.7 156.832 1192.8 156.597 1192.8 156.316ZM1192.74 145.078L1193.28 131.286C1193.28 131.046 1193.18 130.855 1192.98 130.715C1192.72 130.495 1192.48 130.385 1192.26 130.385H1185.65C1185.43 130.385 1185.19 130.495 1184.93 130.715C1184.73 130.855 1184.63 131.066 1184.63 131.346L1185.14 145.078C1185.14 145.278 1185.24 145.444 1185.44 145.574C1185.64 145.704 1185.88 145.769 1186.16 145.769H1191.72C1192 145.769 1192.23 145.704 1192.42 145.574C1192.61 145.444 1192.72 145.278 1192.74 145.078ZM1192.32 117.013L1215.4 159.321C1216.1 160.583 1216.08 161.845 1215.34 163.107C1215 163.688 1214.53 164.149 1213.94 164.489C1213.35 164.83 1212.71 165 1212.03 165H1165.88C1165.2 165 1164.56 164.83 1163.97 164.489C1163.38 164.149 1162.91 163.688 1162.57 163.107C1161.83 161.845 1161.81 160.583 1162.51 159.321L1185.59 117.013C1185.93 116.392 1186.4 115.901 1187 115.541C1187.6 115.18 1188.25 115 1188.95 115C1189.65 115 1190.31 115.18 1190.91 115.541C1191.51 115.901 1191.98 116.392 1192.32 117.013Z" fill="white" fill-opacity="0.9"/>
</g>
<g id="Button 10" clip-path="url(#clip3_1_589)">
<g id="Border_16">
<path id="Border_17" d="M1270 100V115H1273V103L1285 103V100H1270Z" fill="#AF3931"/>
<path id="Border_18" d="M1270 180V165H1273V177L1285 177V180H1270Z" fill="#AF3931"/>
<path id="Border_19" d="M1620 100V115H1617V103L1605 103V100H1620Z" fill="#AF3931"/>
<path id="Border_20" d="M1620 180V165H1617V177L1605 177V180H1620Z" fill="#AF3931"/>
</g>
<rect id="Rectangle 92_4" x="1350" y="115" width="190" height="50" fill="#98231B" fill-opacity="0.2"/>
<path id="Warning_7" fill-rule="evenodd" clip-rule="evenodd" d="M1292.02 105L1276 105V120.87L1292.02 105ZM1276 160.752V141.466L1312.82 105L1332.3 105L1276 160.752ZM1302 175L1282.53 175L1346 112.142V131.428L1302 175ZM1342.39 175L1322.92 175L1346 152.141V171.427L1342.39 175Z" fill="#98231B" fill-opacity="0.8"/>
<path id="Warning_8" fill-rule="evenodd" clip-rule="evenodd" d="M1560.02 105L1544 105V120.87L1560.02 105ZM1544 160.752V141.466L1580.82 105L1600.3 105L1544 160.752ZM1570 175L1550.53 175L1614 112.142V131.428L1570 175ZM1610.39 175L1590.92 175L1614 152.141V171.427L1610.39 175Z" fill="#98231B" fill-opacity="0.8"/>
<rect id="Rectangle 93_4" x="1350" y="105" width="190" height="5" fill="#AF3931"/>
<rect id="Rectangle 94_4" x="1350" y="170" width="190" height="5" fill="#AF3931"/>
<path id="&#60;DENIED&#62;" d="M1381.43 143.88L1370.68 139.632V137.568L1381.43 133.32V135.312L1371.47 139.152V138.048L1381.43 141.888V143.88ZM1389.16 147V130.2H1396.24C1398.03 130.2 1399.61 130.552 1400.97 131.256C1402.34 131.96 1403.41 132.944 1404.16 134.208C1404.93 135.472 1405.31 136.936 1405.31 138.6C1405.31 140.264 1404.93 141.728 1404.16 142.992C1403.41 144.256 1402.34 145.24 1400.97 145.944C1399.61 146.648 1398.03 147 1396.24 147H1389.16ZM1391.56 144.912H1396.1C1397.49 144.912 1398.69 144.648 1399.7 144.12C1400.72 143.592 1401.51 142.856 1402.07 141.912C1402.63 140.952 1402.91 139.848 1402.91 138.6C1402.91 137.336 1402.63 136.232 1402.07 135.288C1401.51 134.344 1400.72 133.608 1399.7 133.08C1398.69 132.552 1397.49 132.288 1396.1 132.288H1391.56V144.912ZM1414.77 137.448H1423.41V139.488H1414.77V137.448ZM1414.99 144.912H1424.78V147H1412.59V130.2H1424.44V132.288H1414.99V144.912ZM1432.27 147V130.2H1434.23L1445.35 144H1444.31V130.2H1446.71V147H1444.75L1433.63 133.2H1434.67V147H1432.27ZM1455.34 147V130.2H1457.74V147H1455.34ZM1468.56 137.448H1477.2V139.488H1468.56V137.448ZM1468.77 144.912H1478.57V147H1466.37V130.2H1478.23V132.288H1468.77V144.912ZM1486.05 147V130.2H1493.13C1494.92 130.2 1496.5 130.552 1497.86 131.256C1499.24 131.96 1500.3 132.944 1501.05 134.208C1501.82 135.472 1502.2 136.936 1502.2 138.6C1502.2 140.264 1501.82 141.728 1501.05 142.992C1500.3 144.256 1499.24 145.24 1497.86 145.944C1496.5 146.648 1494.92 147 1493.13 147H1486.05ZM1488.45 144.912H1492.99C1494.38 144.912 1495.58 144.648 1496.59 144.12C1497.61 143.592 1498.4 142.856 1498.96 141.912C1499.52 140.952 1499.8 139.848 1499.8 138.6C1499.8 137.336 1499.52 136.232 1498.96 135.288C1498.4 134.344 1497.61 133.608 1496.59 133.08C1495.58 132.552 1494.38 132.288 1492.99 132.288H1488.45V144.912ZM1508.57 143.88V141.888L1518.55 138.048V139.152L1508.57 135.312V133.32L1519.32 137.568V139.632L1508.57 143.88Z" fill="white"/>
<path id="Vector_7" d="M1314.8 156.316V150.607C1314.8 150.327 1314.7 150.091 1314.51 149.901C1314.32 149.711 1314.1 149.615 1313.84 149.615H1308.07C1307.81 149.615 1307.58 149.711 1307.39 149.901C1307.2 150.091 1307.11 150.327 1307.11 150.607V156.316C1307.11 156.597 1307.2 156.832 1307.39 157.022C1307.58 157.213 1307.81 157.308 1308.07 157.308H1313.84C1314.1 157.308 1314.32 157.213 1314.51 157.022C1314.7 156.832 1314.8 156.597 1314.8 156.316ZM1314.74 145.078L1315.28 131.286C1315.28 131.046 1315.18 130.855 1314.98 130.715C1314.72 130.495 1314.48 130.385 1314.26 130.385H1307.65C1307.43 130.385 1307.19 130.495 1306.93 130.715C1306.73 130.855 1306.63 131.066 1306.63 131.346L1307.14 145.078C1307.14 145.278 1307.24 145.444 1307.44 145.574C1307.64 145.704 1307.88 145.769 1308.16 145.769H1313.72C1314 145.769 1314.23 145.704 1314.42 145.574C1314.61 145.444 1314.72 145.278 1314.74 145.078ZM1314.32 117.013L1337.4 159.321C1338.1 160.583 1338.08 161.845 1337.34 163.107C1337 163.688 1336.53 164.149 1335.94 164.489C1335.35 164.83 1334.71 165 1334.03 165H1287.88C1287.2 165 1286.56 164.83 1285.97 164.489C1285.38 164.149 1284.91 163.688 1284.57 163.107C1283.83 161.845 1283.81 160.583 1284.51 159.321L1307.59 117.013C1307.93 116.392 1308.4 115.901 1309 115.541C1309.6 115.18 1310.25 115 1310.95 115C1311.65 115 1312.31 115.18 1312.91 115.541C1313.51 115.901 1313.98 116.392 1314.32 117.013Z" fill="white" fill-opacity="0.9"/>
<path id="Vector_8" d="M1582.8 156.316V150.607C1582.8 150.327 1582.7 150.091 1582.51 149.901C1582.32 149.711 1582.1 149.615 1581.84 149.615H1576.07C1575.81 149.615 1575.58 149.711 1575.39 149.901C1575.2 150.091 1575.11 150.327 1575.11 150.607V156.316C1575.11 156.597 1575.2 156.832 1575.39 157.022C1575.58 157.213 1575.81 157.308 1576.07 157.308H1581.84C1582.1 157.308 1582.32 157.213 1582.51 157.022C1582.7 156.832 1582.8 156.597 1582.8 156.316ZM1582.74 145.078L1583.28 131.286C1583.28 131.046 1583.18 130.855 1582.98 130.715C1582.72 130.495 1582.48 130.385 1582.26 130.385H1575.65C1575.43 130.385 1575.19 130.495 1574.93 130.715C1574.73 130.855 1574.63 131.066 1574.63 131.346L1575.14 145.078C1575.14 145.278 1575.24 145.444 1575.44 145.574C1575.64 145.704 1575.88 145.769 1576.16 145.769H1581.72C1582 145.769 1582.23 145.704 1582.42 145.574C1582.61 145.444 1582.72 145.278 1582.74 145.078ZM1582.32 117.013L1605.4 159.321C1606.1 160.583 1606.08 161.845 1605.34 163.107C1605 163.688 1604.53 164.149 1603.94 164.489C1603.35 164.83 1602.71 165 1602.03 165H1555.88C1555.2 165 1554.56 164.83 1553.97 164.489C1553.38 164.149 1552.91 163.688 1552.57 163.107C1551.83 161.845 1551.81 160.583 1552.51 159.321L1575.59 117.013C1575.93 116.392 1576.4 115.901 1577 115.541C1577.6 115.18 1578.25 115 1578.95 115C1579.65 115 1580.31 115.18 1580.91 115.541C1581.51 115.901 1581.98 116.392 1582.32 117.013Z" fill="white" fill-opacity="0.9"/>
</g>
<g id="Button 11" clip-path="url(#clip4_1_589)">
<g id="Border_21">
<path id="Border_22" d="M1660 100V115H1663V103L1675 103V100H1660Z" fill="#AF3931"/>
<path id="Border_23" d="M1660 180V165H1663V177L1675 177V180H1660Z" fill="#AF3931"/>
<path id="Border_24" d="M2010 100V115H2007V103L1995 103V100H2010Z" fill="#AF3931"/>
<path id="Border_25" d="M2010 180V165H2007V177L1995 177V180H2010Z" fill="#AF3931"/>
</g>
<rect id="Rectangle 92_5" x="1740" y="115" width="190" height="50" fill="#98231B" fill-opacity="0.2"/>
<path id="Warning_9" fill-rule="evenodd" clip-rule="evenodd" d="M1682.02 105L1666 105V120.87L1682.02 105ZM1666 160.752V141.466L1702.82 105L1722.3 105L1666 160.752ZM1692 175L1672.53 175L1736 112.142V131.428L1692 175ZM1732.39 175L1712.92 175L1736 152.141V171.427L1732.39 175Z" fill="#98231B" fill-opacity="0.8"/>
<path id="Warning_10" fill-rule="evenodd" clip-rule="evenodd" d="M1950.02 105L1934 105V120.87L1950.02 105ZM1934 160.752V141.466L1970.82 105L1990.3 105L1934 160.752ZM1960 175L1940.53 175L2004 112.142V131.428L1960 175ZM2000.39 175L1980.92 175L2004 152.141V171.427L2000.39 175Z" fill="#98231B" fill-opacity="0.8"/>
<rect id="Rectangle 93_5" x="1740" y="105" width="190" height="5" fill="#AF3931"/>
<rect id="Rectangle 94_5" x="1740" y="170" width="190" height="5" fill="#AF3931"/>
<path id="WARRNING" d="M1757.53 147L1751.91 130.2H1754.39L1759.55 145.704H1758.3L1763.65 130.2H1765.86L1771.09 145.704H1769.89L1775.12 130.2H1777.4L1771.79 147H1769.27L1764.37 132.624H1765.02L1760.1 147H1757.53ZM1780.85 147L1788.46 130.2H1790.84L1798.47 147H1795.95L1789.16 131.544H1790.12L1783.33 147H1780.85ZM1784.09 142.8L1784.74 140.88H1794.2L1794.89 142.8H1784.09ZM1804.58 147V130.2H1811.13C1812.6 130.2 1813.86 130.432 1814.9 130.896C1815.94 131.36 1816.74 132.032 1817.3 132.912C1817.86 133.792 1818.14 134.84 1818.14 136.056C1818.14 137.272 1817.86 138.32 1817.3 139.2C1816.74 140.064 1815.94 140.728 1814.9 141.192C1813.86 141.656 1812.6 141.888 1811.13 141.888H1805.9L1806.98 140.784V147H1804.58ZM1815.81 147L1811.54 140.904H1814.11L1818.43 147H1815.81ZM1806.98 141.024L1805.9 139.848H1811.06C1812.59 139.848 1813.75 139.52 1814.54 138.864C1815.34 138.192 1815.74 137.256 1815.74 136.056C1815.74 134.856 1815.34 133.928 1814.54 133.272C1813.75 132.616 1812.59 132.288 1811.06 132.288H1805.9L1806.98 131.088V141.024ZM1825.61 147V130.2H1832.17C1833.64 130.2 1834.89 130.432 1835.93 130.896C1836.97 131.36 1837.77 132.032 1838.33 132.912C1838.89 133.792 1839.17 134.84 1839.17 136.056C1839.17 137.272 1838.89 138.32 1838.33 139.2C1837.77 140.064 1836.97 140.728 1835.93 141.192C1834.89 141.656 1833.64 141.888 1832.17 141.888H1826.93L1828.01 140.784V147H1825.61ZM1836.85 147L1832.57 140.904H1835.14L1839.46 147H1836.85ZM1828.01 141.024L1826.93 139.848H1832.09C1833.63 139.848 1834.79 139.52 1835.57 138.864C1836.37 138.192 1836.77 137.256 1836.77 136.056C1836.77 134.856 1836.37 133.928 1835.57 133.272C1834.79 132.616 1833.63 132.288 1832.09 132.288H1826.93L1828.01 131.088V141.024ZM1846.65 147V130.2H1848.62L1859.73 144H1858.7V130.2H1861.1V147H1859.13L1848.02 133.2H1849.05V147H1846.65ZM1869.73 147V130.2H1872.13V147H1869.73ZM1880.76 147V130.2H1882.73L1893.84 144H1892.81V130.2H1895.21V147H1893.24L1882.13 133.2H1883.16V147H1880.76ZM1911.42 147.192C1910.12 147.192 1908.93 146.984 1907.84 146.568C1906.75 146.136 1905.81 145.536 1905.01 144.768C1904.21 143.984 1903.59 143.072 1903.14 142.032C1902.69 140.992 1902.47 139.848 1902.47 138.6C1902.47 137.352 1902.69 136.208 1903.14 135.168C1903.59 134.128 1904.21 133.224 1905.01 132.456C1905.83 131.672 1906.78 131.072 1907.87 130.656C1908.95 130.224 1910.15 130.008 1911.47 130.008C1912.79 130.008 1914.01 130.224 1915.11 130.656C1916.22 131.088 1917.15 131.736 1917.92 132.6L1916.43 134.088C1915.75 133.416 1914.99 132.928 1914.18 132.624C1913.38 132.304 1912.51 132.144 1911.56 132.144C1910.6 132.144 1909.71 132.304 1908.87 132.624C1908.06 132.944 1907.35 133.392 1906.74 133.968C1906.15 134.544 1905.68 135.232 1905.35 136.032C1905.03 136.816 1904.87 137.672 1904.87 138.6C1904.87 139.512 1905.03 140.368 1905.35 141.168C1905.68 141.952 1906.15 142.64 1906.74 143.232C1907.35 143.808 1908.06 144.256 1908.87 144.576C1909.69 144.896 1910.58 145.056 1911.54 145.056C1912.43 145.056 1913.29 144.92 1914.11 144.648C1914.94 144.36 1915.71 143.888 1916.41 143.232L1917.78 145.056C1916.95 145.76 1915.97 146.296 1914.85 146.664C1913.75 147.016 1912.6 147.192 1911.42 147.192ZM1915.47 144.744V138.504H1917.78V145.056L1915.47 144.744Z" fill="white"/>
<path id="Vector_9" d="M1704.8 156.316V150.607C1704.8 150.327 1704.7 150.091 1704.51 149.901C1704.32 149.711 1704.1 149.615 1703.84 149.615H1698.07C1697.81 149.615 1697.58 149.711 1697.39 149.901C1697.2 150.091 1697.11 150.327 1697.11 150.607V156.316C1697.11 156.597 1697.2 156.832 1697.39 157.022C1697.58 157.213 1697.81 157.308 1698.07 157.308H1703.84C1704.1 157.308 1704.32 157.213 1704.51 157.022C1704.7 156.832 1704.8 156.597 1704.8 156.316ZM1704.74 145.078L1705.28 131.286C1705.28 131.046 1705.18 130.855 1704.98 130.715C1704.72 130.495 1704.48 130.385 1704.26 130.385H1697.65C1697.43 130.385 1697.19 130.495 1696.93 130.715C1696.73 130.855 1696.63 131.066 1696.63 131.346L1697.14 145.078C1697.14 145.278 1697.24 145.444 1697.44 145.574C1697.64 145.704 1697.88 145.769 1698.16 145.769H1703.72C1704 145.769 1704.23 145.704 1704.42 145.574C1704.61 145.444 1704.72 145.278 1704.74 145.078ZM1704.32 117.013L1727.4 159.321C1728.1 160.583 1728.08 161.845 1727.34 163.107C1727 163.688 1726.53 164.149 1725.94 164.489C1725.35 164.83 1724.71 165 1724.03 165H1677.88C1677.2 165 1676.56 164.83 1675.97 164.489C1675.38 164.149 1674.91 163.688 1674.57 163.107C1673.83 161.845 1673.81 160.583 1674.51 159.321L1697.59 117.013C1697.93 116.392 1698.4 115.901 1699 115.541C1699.6 115.18 1700.25 115 1700.95 115C1701.65 115 1702.31 115.18 1702.91 115.541C1703.51 115.901 1703.98 116.392 1704.32 117.013Z" fill="white" fill-opacity="0.9"/>
<path id="Vector_10" d="M1972.8 156.316V150.607C1972.8 150.327 1972.7 150.091 1972.51 149.901C1972.32 149.711 1972.1 149.615 1971.84 149.615H1966.07C1965.81 149.615 1965.58 149.711 1965.39 149.901C1965.2 150.091 1965.11 150.327 1965.11 150.607V156.316C1965.11 156.597 1965.2 156.832 1965.39 157.022C1965.58 157.213 1965.81 157.308 1966.07 157.308H1971.84C1972.1 157.308 1972.32 157.213 1972.51 157.022C1972.7 156.832 1972.8 156.597 1972.8 156.316ZM1972.74 145.078L1973.28 131.286C1973.28 131.046 1973.18 130.855 1972.98 130.715C1972.72 130.495 1972.48 130.385 1972.26 130.385H1965.65C1965.43 130.385 1965.19 130.495 1964.93 130.715C1964.73 130.855 1964.63 131.066 1964.63 131.346L1965.14 145.078C1965.14 145.278 1965.24 145.444 1965.44 145.574C1965.64 145.704 1965.88 145.769 1966.16 145.769H1971.72C1972 145.769 1972.23 145.704 1972.42 145.574C1972.61 145.444 1972.72 145.278 1972.74 145.078ZM1972.32 117.013L1995.4 159.321C1996.1 160.583 1996.08 161.845 1995.34 163.107C1995 163.688 1994.53 164.149 1993.94 164.489C1993.35 164.83 1992.71 165 1992.03 165H1945.88C1945.2 165 1944.56 164.83 1943.97 164.489C1943.38 164.149 1942.91 163.688 1942.57 163.107C1941.83 161.845 1941.81 160.583 1942.51 159.321L1965.59 117.013C1965.93 116.392 1966.4 115.901 1967 115.541C1967.6 115.18 1968.25 115 1968.95 115C1969.65 115 1970.31 115.18 1970.91 115.541C1971.51 115.901 1971.98 116.392 1972.32 117.013Z" fill="white" fill-opacity="0.9"/>
</g>
</g>
<defs>
<clipPath id="clip0_1_589">
<rect width="350" height="80" fill="white" transform="translate(100 100)"/>
</clipPath>
<clipPath id="clip1_1_589">
<rect width="350" height="80" fill="white" transform="translate(490 100)"/>
</clipPath>
<clipPath id="clip2_1_589">
<rect width="350" height="80" fill="white" transform="translate(880 100)"/>
</clipPath>
<clipPath id="clip3_1_589">
<rect width="350" height="80" fill="white" transform="translate(1270 100)"/>
</clipPath>
<clipPath id="clip4_1_589">
<rect width="350" height="80" fill="white" transform="translate(1660 100)"/>
</clipPath>
</defs>
</svg>
