<svg width="787" height="500" viewBox="0 0 787 500" fill="none" xmlns="http://www.w3.org/2000/svg">
<g id="Decals 2">
<path d="M0 2C0 0.895435 0.895431 0 2 0H784.603C785.707 0 786.603 0.895431 786.603 2V498C786.603 499.105 785.707 500 784.603 500H1.99998C0.895411 500 0 499.105 0 498V2Z" fill="#232323"/>
<path d="M2 1H784.603V-1H2V1ZM785.603 2V498H787.603V2H785.603ZM784.603 499H1.99998V501H784.603V499ZM1 498V2H-1V498H1ZM1.99998 499C1.44771 499 1 498.552 1 498H-1C-1 499.657 0.343113 501 1.99998 501V499ZM785.603 498C785.603 498.552 785.155 499 784.603 499V501C786.259 501 787.603 499.657 787.603 498H785.603ZM784.603 1C785.155 1 785.603 1.4477 785.603 2H787.603C787.603 0.343159 786.259 -1 784.603 -1V1ZM2 -1C0.343143 -1 -1 0.343152 -1 2H1C1 1.44772 1.44772 1 2 1V-1Z" fill="white" fill-opacity="0.1"/>
<g id="Arrows v1 03">
<path d="M100 100L135.542 150L100 200H140.964L176.506 150L140.964 100H100Z" fill="#AF3931"/>
<path d="M148.795 100L184.337 150L148.795 200H189.759L225.301 150L189.759 100H148.795Z" fill="#AF3931"/>
<path d="M233.133 150L197.59 100H238.554L274.096 150L238.554 200H197.59L233.133 150Z" fill="#AF3931"/>
</g>
<g id="Arrows v1 02">
<path d="M383.638 150L348.096 100H389.06L424.602 150L389.06 200H348.096L383.638 150Z" fill="#AF3931"/>
<path d="M432.434 150L396.891 100H437.855L473.397 150L437.855 200H396.891L432.434 150Z" fill="#AF3931"/>
</g>
<path id="Arrows v1 01" d="M578.699 100L614.241 150L578.699 200H619.663L655.205 150L619.663 100H578.699Z" fill="#AF3931"/>
<path id="Arrow v2 03" d="M229.603 350L143 400L143 300L229.603 350Z" fill="#AF3931"/>
<g id="Arrow v2 02">
<path d="M686.603 350L600 400L600 300L686.603 350Z" fill="#AF3931"/>
<path d="M546.699 350L590 375L590 325L546.699 350Z" fill="#AF3931"/>
</g>
<g id="Arrow v2 01">
<path d="M420.699 350L334.096 400L334.096 300L420.699 350Z" fill="#AF3931"/>
<path d="M400.096 370L434.737 350L400.096 330L400.096 300L486.699 350L400.096 400V370Z" fill="#AF3931"/>
</g>
</g>
</svg>
