<svg width="462" height="788" viewBox="0 0 462 788" fill="none" xmlns="http://www.w3.org/2000/svg">
<g id="Decals">
<path d="M0 2.00001C0 0.895441 0.895431 0 2 0H459.891C460.995 0 461.891 0.895431 461.891 2V786C461.891 787.105 460.995 788 459.891 788H2C0.895435 788 0 787.105 0 786V2.00001Z" fill="#232323"/>
<path d="M2 1H459.891V-1H2V1ZM460.891 2V786H462.891V2H460.891ZM459.891 787H2V789H459.891V787ZM1 786V2.00001H-1V786H1ZM2 787C1.44772 787 1 786.552 1 786H-1C-1 787.657 0.343154 789 2 789V787ZM460.891 786C460.891 786.552 460.443 787 459.891 787V789C461.548 789 462.891 787.657 462.891 786H460.891ZM459.891 1C460.443 1 460.891 1.44772 460.891 2H462.891C462.891 0.343143 461.548 -1 459.891 -1V1ZM2 -1C0.343139 -1 -1 0.343164 -1 2.00001H1C1 1.44772 1.44772 1 2 1V-1Z" fill="white" fill-opacity="0.1"/>
<g id="R_Element">
<path d="M139.318 461.5C141.243 458.167 146.054 458.167 147.979 461.5L182.62 521.5C184.544 524.833 182.138 529 178.289 529H109.007C105.158 529 102.753 524.833 104.677 521.5L139.318 461.5Z" fill="#AF3931"/>
<path d="M244.967 461.5C246.891 458.167 251.703 458.167 253.627 461.5L288.268 521.5C290.193 524.833 287.787 529 283.938 529H214.656C210.807 529 208.401 524.833 210.326 521.5L244.967 461.5Z" fill="#AF3931"/>
<path d="M191.967 506.5C193.891 509.833 198.703 509.833 200.627 506.5L235.268 446.5C237.193 443.167 234.787 439 230.938 439H161.656C157.807 439 155.401 443.167 157.326 446.5L191.967 506.5Z" fill="#AF3931"/>
</g>
<g id="Decal 01">
<path id="Warning" fill-rule="evenodd" clip-rule="evenodd" d="M100 204.54L100 246.966L103.034 250L145.46 250L100 204.54ZM233.193 250L190.767 250L100 159.233L100 116.807L233.193 250ZM321.183 250L278.757 250L128.757 100L171.183 100L321.183 250ZM350 190.827L350 233.253L216.747 100L259.173 100L350 190.827ZM350 102.837L350 145.263L304.737 100L347.163 100L350 102.837Z" fill="#AF3931"/>
<g id="Border">
<path d="M100 268V285H105V273L117 273V268H100Z" fill="#AF3931"/>
<path d="M105 333H100V350H117V345H105V333Z" fill="#AF3931"/>
</g>
<g id="Border_2">
<path d="M350 268V285H345V273L333 273V268H350Z" fill="#AF3931"/>
<path d="M345 333H350V350H333V345H345V333Z" fill="#AF3931"/>
</g>
<path id="DECAL!" opacity="0.8" d="M135.8 323V295H148.52C151.56 295 154.24 295.587 156.56 296.76C158.88 297.907 160.694 299.52 162 301.6C163.307 303.68 163.96 306.147 163.96 309C163.96 311.827 163.307 314.293 162 316.4C160.694 318.48 158.88 320.107 156.56 321.28C154.24 322.427 151.56 323 148.52 323H135.8ZM142.28 317.68H148.2C150.067 317.68 151.68 317.333 153.04 316.64C154.427 315.92 155.494 314.907 156.24 313.6C157.014 312.293 157.4 310.76 157.4 309C157.4 307.213 157.014 305.68 156.24 304.4C155.494 303.093 154.427 302.093 153.04 301.4C151.68 300.68 150.067 300.32 148.2 300.32H142.28V317.68ZM180.807 306.28H194.287V311.32H180.807V306.28ZM181.287 317.8H196.527V323H174.847V295H196.007V300.2H181.287V317.8ZM221.083 323.48C218.923 323.48 216.91 323.133 215.043 322.44C213.203 321.72 211.603 320.707 210.243 319.4C208.883 318.093 207.817 316.56 207.043 314.8C206.297 313.04 205.923 311.107 205.923 309C205.923 306.893 206.297 304.96 207.043 303.2C207.817 301.44 208.883 299.907 210.243 298.6C211.63 297.293 213.243 296.293 215.083 295.6C216.923 294.88 218.937 294.52 221.123 294.52C223.55 294.52 225.737 294.947 227.683 295.8C229.657 296.627 231.31 297.853 232.643 299.48L228.483 303.32C227.523 302.227 226.457 301.413 225.283 300.88C224.11 300.32 222.83 300.04 221.443 300.04C220.137 300.04 218.937 300.253 217.843 300.68C216.75 301.107 215.803 301.72 215.003 302.52C214.203 303.32 213.577 304.267 213.123 305.36C212.697 306.453 212.483 307.667 212.483 309C212.483 310.333 212.697 311.547 213.123 312.64C213.577 313.733 214.203 314.68 215.003 315.48C215.803 316.28 216.75 316.893 217.843 317.32C218.937 317.747 220.137 317.96 221.443 317.96C222.83 317.96 224.11 317.693 225.283 317.16C226.457 316.6 227.523 315.76 228.483 314.64L232.643 318.48C231.31 320.107 229.657 321.347 227.683 322.2C225.737 323.053 223.537 323.48 221.083 323.48ZM238.831 323L251.311 295H257.711L270.231 323H263.431L253.191 298.28H255.751L245.471 323H238.831ZM245.071 317L246.791 312.08H261.191L262.951 317H245.071ZM279.136 323V295H285.616V317.72H299.656V323H279.136ZM309.277 313.28L308.037 295H315.477L314.237 313.28H309.277ZM311.757 323.32C310.637 323.32 309.717 322.96 308.997 322.24C308.277 321.52 307.917 320.667 307.917 319.68C307.917 318.667 308.277 317.827 308.997 317.16C309.717 316.467 310.637 316.12 311.757 316.12C312.904 316.12 313.824 316.467 314.517 317.16C315.237 317.827 315.597 318.667 315.597 319.68C315.597 320.667 315.237 321.52 314.517 322.24C313.824 322.96 312.904 323.32 311.757 323.32Z" fill="#EAEAEA"/>
</g>
<g id="R_Element_2">
<path d="M228.615 620.5C230.54 617.167 235.351 617.167 237.275 620.5L271.916 680.5C273.841 683.833 271.435 688 267.586 688H198.304C194.455 688 192.05 683.833 193.974 680.5L228.615 620.5Z" fill="#AF3931"/>
<path fill-rule="evenodd" clip-rule="evenodd" d="M322.242 629L292.797 680H351.687L322.242 629ZM326.572 620.5C324.648 617.167 319.837 617.167 317.912 620.5L283.271 680.5C281.347 683.833 283.752 688 287.601 688H356.883C360.732 688 363.138 683.833 361.213 680.5L326.572 620.5Z" fill="#AF3931"/>
<path d="M147.979 620.5C146.054 617.167 141.243 617.167 139.318 620.5L123.441 648H163.856L147.979 620.5Z" fill="#EAEAEA"/>
<path d="M169.629 658H117.668L104.677 680.5C102.753 683.833 105.158 688 109.007 688H178.289C182.138 688 184.544 683.833 182.62 680.5L169.629 658Z" fill="#AF3931"/>
</g>
</g>
</svg>
