<svg width="960" height="285" viewBox="0 0 960 285" fill="none" xmlns="http://www.w3.org/2000/svg">
<g id="HUD Pack v1">
<path d="M0 2C0 0.895434 0.895431 0 2 0H958C959.105 0 960 0.895431 960 2V283C960 284.105 959.105 285 958 285H2.00003C0.895457 285 0 284.105 0 283V2Z" fill="#232323"/>
<path d="M2 1H958V-1H2V1ZM959 2V283H961V2H959ZM958 284H2.00003V286H958V284ZM1 283V2H-1V283H1ZM2.00003 284C1.44772 284 1 283.552 1 283H-1C-1 284.657 0.34319 286 2.00003 286V284ZM959 283C959 283.552 958.552 284 958 284V286C959.657 286 961 284.657 961 283H959ZM958 1C958.552 1 959 1.44773 959 2H961C961 0.343128 959.657 -1 958 -1V1ZM2 -1C0.343144 -1 -1 0.343151 -1 2H1C1 1.44772 1.44772 1 2 1V-1Z" fill="white" fill-opacity="0.1"/>
<g id="HUD INFO">
<g id="Element">
<path d="M855 105H505V185H815L855 145V105Z" fill="#98231B" fill-opacity="0.2"/>
<path d="M500 140V100H587.5M850 157L860 147V127M505 105H855V145L815 185H505V105Z" stroke="#AF3931" stroke-width="3"/>
</g>
<g id="BAR" filter="url(#filter0_i_1_395)">
<rect x="510" y="110" width="340" height="30" fill="#AF3931"/>
</g>
<g id="BAR_2" filter="url(#filter1_i_1_395)">
<rect x="510" y="110" width="285" height="30" fill="#98231B" fill-opacity="0.8"/>
</g>
<g id="Frame 1">
<path id="Fire" d="M522.499 173.5C520.997 173.5 519.528 173.048 518.285 172.204C517.042 171.359 516.081 170.161 515.528 168.764C514.974 167.366 514.853 165.835 515.18 164.368C515.507 162.901 516.267 161.567 517.361 160.537C518.703 159.274 521.999 157 521.499 152C527.499 156 530.499 160 524.499 166C525.499 166 526.999 166 529.499 163.53C529.769 164.303 529.999 165.134 529.999 166C529.999 167.989 529.209 169.897 527.803 171.303C526.396 172.71 524.488 173.5 522.499 173.5Z" fill="#EAEAEA"/>
<path id="Fuel" d="M544.409 162.586H553.289V164.122H544.409V162.586ZM544.601 171.25H542.825V154.45H554.345V155.986H544.601V171.25ZM562.439 171.37C561.367 171.37 560.431 171.17 559.631 170.77C558.831 170.37 558.207 169.77 557.759 168.97C557.327 168.17 557.111 167.17 557.111 165.97V158.65H558.815V165.778C558.815 167.122 559.143 168.138 559.799 168.826C560.471 169.498 561.407 169.834 562.607 169.834C563.487 169.834 564.247 169.658 564.887 169.306C565.543 168.938 566.039 168.41 566.375 167.722C566.727 167.034 566.903 166.21 566.903 165.25V158.65H568.607V171.25H566.975V167.794L567.239 168.418C566.839 169.346 566.215 170.074 565.367 170.602C564.535 171.114 563.559 171.37 562.439 171.37ZM578.708 171.37C577.396 171.37 576.244 171.098 575.252 170.554C574.26 169.994 573.484 169.234 572.924 168.274C572.364 167.298 572.084 166.186 572.084 164.938C572.084 163.69 572.348 162.586 572.876 161.626C573.42 160.666 574.156 159.914 575.084 159.37C576.028 158.81 577.084 158.53 578.252 158.53C579.436 158.53 580.484 158.802 581.396 159.346C582.324 159.874 583.052 160.626 583.58 161.602C584.108 162.562 584.372 163.674 584.372 164.938C584.372 165.018 584.364 165.106 584.348 165.202C584.348 165.282 584.348 165.37 584.348 165.466H573.38V164.194H583.436L582.764 164.698C582.764 163.786 582.564 162.978 582.164 162.274C581.78 161.554 581.252 160.994 580.58 160.594C579.908 160.194 579.132 159.994 578.252 159.994C577.388 159.994 576.612 160.194 575.924 160.594C575.236 160.994 574.7 161.554 574.316 162.274C573.932 162.994 573.74 163.818 573.74 164.746V165.01C573.74 165.97 573.948 166.818 574.364 167.554C574.796 168.274 575.388 168.842 576.14 169.258C576.908 169.658 577.78 169.858 578.756 169.858C579.524 169.858 580.236 169.722 580.892 169.45C581.564 169.178 582.14 168.762 582.62 168.202L583.58 169.306C583.02 169.978 582.316 170.49 581.468 170.842C580.636 171.194 579.716 171.37 578.708 171.37ZM587.84 171.25V153.442H589.544V171.25H587.84Z" fill="#EAEAEA"/>
<path id="84" d="M610.045 171.394C608.701 171.394 607.541 171.202 606.565 170.818C605.605 170.434 604.861 169.882 604.333 169.162C603.821 168.426 603.565 167.562 603.565 166.57C603.565 165.61 603.813 164.794 604.309 164.122C604.821 163.434 605.557 162.906 606.517 162.538C607.493 162.17 608.669 161.986 610.045 161.986C611.405 161.986 612.573 162.17 613.549 162.538C614.525 162.906 615.269 163.434 615.781 164.122C616.309 164.794 616.573 165.61 616.573 166.57C616.573 167.562 616.309 168.426 615.781 169.162C615.253 169.882 614.501 170.434 613.525 170.818C612.549 171.202 611.389 171.394 610.045 171.394ZM610.045 169.93C611.533 169.93 612.693 169.626 613.525 169.018C614.373 168.41 614.797 167.586 614.797 166.546C614.797 165.506 614.373 164.69 613.525 164.098C612.693 163.49 611.533 163.186 610.045 163.186C608.557 163.186 607.397 163.49 606.565 164.098C605.733 164.69 605.317 165.506 605.317 166.546C605.317 167.586 605.733 168.41 606.565 169.018C607.397 169.626 608.557 169.93 610.045 169.93ZM610.045 162.97C608.797 162.97 607.733 162.802 606.853 162.466C605.989 162.13 605.325 161.65 604.861 161.026C604.397 160.386 604.165 159.626 604.165 158.746C604.165 157.818 604.405 157.026 604.885 156.37C605.381 155.698 606.069 155.186 606.949 154.834C607.829 154.482 608.861 154.306 610.045 154.306C611.229 154.306 612.261 154.482 613.141 154.834C614.037 155.186 614.733 155.698 615.229 156.37C615.725 157.026 615.973 157.818 615.973 158.746C615.973 159.626 615.741 160.386 615.277 161.026C614.813 161.65 614.133 162.13 613.237 162.466C612.357 162.802 611.293 162.97 610.045 162.97ZM610.045 161.818C611.357 161.818 612.381 161.546 613.117 161.002C613.853 160.458 614.221 159.73 614.221 158.818C614.221 157.858 613.837 157.114 613.069 156.586C612.317 156.042 611.309 155.77 610.045 155.77C608.781 155.77 607.773 156.042 607.021 156.586C606.269 157.114 605.893 157.85 605.893 158.794C605.893 159.722 606.253 160.458 606.973 161.002C607.709 161.546 608.733 161.818 610.045 161.818ZM618.678 166.834V165.586L627.582 154.45H629.502L620.67 165.586L619.734 165.298H633.246V166.834H618.678ZM628.158 171.25V166.834L628.206 165.298V161.41H629.886V171.25H628.158Z" fill="#EAEAEA"/>
</g>
</g>
<g id="HUD INFO_2">
<g id="Element_2">
<path d="M105 105H455V185H145L105 145V105Z" fill="#98231B" fill-opacity="0.2"/>
<path d="M460 140V100H372.5M110 157L100 147V127M455 105H105V145L145 185H455V105Z" stroke="#AF3931" stroke-width="3"/>
</g>
<g id="BAR_3" filter="url(#filter2_i_1_395)">
<rect width="340" height="30" transform="matrix(-1 0 0 1 450 110)" fill="#AF3931"/>
</g>
<g id="BAR_4" filter="url(#filter3_i_1_395)">
<rect width="285" height="30" transform="matrix(-1 0 0 1 395 110)" fill="#98231B" fill-opacity="0.8"/>
</g>
<g id="Frame 1_2">
<path id="Charging" d="M274.572 171.551C273.308 171.551 272.14 171.343 271.068 170.927C269.996 170.495 269.068 169.895 268.284 169.127C267.5 168.359 266.884 167.455 266.436 166.415C266.004 165.375 265.788 164.239 265.788 163.007C265.788 161.775 266.004 160.639 266.436 159.599C266.884 158.559 267.5 157.655 268.284 156.887C269.084 156.119 270.02 155.527 271.092 155.111C272.164 154.679 273.332 154.463 274.596 154.463C275.812 154.463 276.956 154.671 278.028 155.087C279.1 155.487 280.004 156.095 280.74 156.911L279.612 158.039C278.924 157.335 278.164 156.831 277.332 156.527C276.5 156.207 275.604 156.047 274.644 156.047C273.636 156.047 272.7 156.223 271.836 156.575C270.972 156.911 270.22 157.399 269.58 158.039C268.94 158.663 268.436 159.399 268.068 160.247C267.716 161.079 267.54 161.999 267.54 163.007C267.54 164.015 267.716 164.943 268.068 165.791C268.436 166.623 268.94 167.359 269.58 167.999C270.22 168.623 270.972 169.111 271.836 169.463C272.7 169.799 273.636 169.967 274.644 169.967C275.604 169.967 276.5 169.807 277.332 169.487C278.164 169.167 278.924 168.655 279.612 167.951L280.74 169.079C280.004 169.895 279.1 170.511 278.028 170.927C276.956 171.343 275.804 171.551 274.572 171.551ZM290.598 158.687C291.622 158.687 292.518 158.887 293.286 159.287C294.07 159.671 294.678 160.263 295.11 161.063C295.558 161.863 295.782 162.871 295.782 164.087V171.407H294.078V164.255C294.078 162.927 293.742 161.927 293.07 161.255C292.414 160.567 291.486 160.223 290.286 160.223C289.39 160.223 288.606 160.407 287.934 160.775C287.278 161.127 286.766 161.647 286.398 162.335C286.046 163.007 285.87 163.823 285.87 164.783V171.407H284.166V153.599H285.87V162.263L285.534 161.615C285.934 160.703 286.574 159.991 287.454 159.479C288.334 158.951 289.382 158.687 290.598 158.687ZM308.281 171.407V168.623L308.209 168.167V163.511C308.209 162.439 307.905 161.615 307.297 161.039C306.705 160.463 305.817 160.175 304.633 160.175C303.817 160.175 303.041 160.311 302.305 160.583C301.569 160.855 300.945 161.215 300.433 161.663L299.665 160.391C300.305 159.847 301.073 159.431 301.969 159.143C302.865 158.839 303.809 158.687 304.801 158.687C306.433 158.687 307.689 159.095 308.569 159.911C309.465 160.711 309.913 161.935 309.913 163.583V171.407H308.281ZM303.937 171.527C302.993 171.527 302.169 171.375 301.465 171.071C300.777 170.751 300.249 170.319 299.881 169.775C299.513 169.215 299.329 168.575 299.329 167.855C299.329 167.199 299.481 166.607 299.785 166.079C300.105 165.535 300.617 165.103 301.321 164.783C302.041 164.447 303.001 164.279 304.201 164.279H308.545V165.551H304.249C303.033 165.551 302.185 165.767 301.705 166.199C301.241 166.631 301.009 167.167 301.009 167.807C301.009 168.527 301.289 169.103 301.849 169.535C302.409 169.967 303.193 170.183 304.201 170.183C305.161 170.183 305.985 169.967 306.673 169.535C307.377 169.087 307.889 168.447 308.209 167.615L308.593 168.791C308.273 169.623 307.713 170.287 306.913 170.783C306.129 171.279 305.137 171.527 303.937 171.527ZM314.541 171.407V158.807H316.173V162.239L316.005 161.639C316.357 160.679 316.949 159.951 317.781 159.455C318.613 158.943 319.645 158.687 320.877 158.687V160.343C320.813 160.343 320.749 160.343 320.685 160.343C320.621 160.327 320.557 160.319 320.493 160.319C319.165 160.319 318.125 160.727 317.373 161.543C316.621 162.343 316.245 163.487 316.245 164.975V171.407H314.541ZM329.245 176.183C328.093 176.183 326.989 176.015 325.933 175.679C324.877 175.343 324.021 174.863 323.365 174.239L324.229 172.943C324.821 173.471 325.549 173.887 326.413 174.191C327.293 174.511 328.221 174.671 329.197 174.671C330.797 174.671 331.973 174.295 332.725 173.543C333.477 172.807 333.853 171.655 333.853 170.087V166.943L334.093 164.783L333.925 162.623V158.807H335.557V169.871C335.557 172.047 335.021 173.639 333.949 174.647C332.893 175.671 331.325 176.183 329.245 176.183ZM328.933 170.927C327.733 170.927 326.653 170.671 325.693 170.159C324.733 169.631 323.973 168.903 323.413 167.975C322.869 167.047 322.597 165.983 322.597 164.783C322.597 163.583 322.869 162.527 323.413 161.615C323.973 160.687 324.733 159.967 325.693 159.455C326.653 158.943 327.733 158.687 328.933 158.687C330.053 158.687 331.061 158.919 331.957 159.383C332.853 159.847 333.565 160.535 334.093 161.447C334.621 162.359 334.885 163.471 334.885 164.783C334.885 166.095 334.621 167.207 334.093 168.119C333.565 169.031 332.853 169.727 331.957 170.207C331.061 170.687 330.053 170.927 328.933 170.927ZM329.101 169.415C330.029 169.415 330.853 169.223 331.573 168.839C332.293 168.439 332.861 167.895 333.277 167.207C333.693 166.503 333.901 165.695 333.901 164.783C333.901 163.871 333.693 163.071 333.277 162.383C332.861 161.695 332.293 161.159 331.573 160.775C330.853 160.375 330.029 160.175 329.101 160.175C328.189 160.175 327.365 160.375 326.629 160.775C325.909 161.159 325.341 161.695 324.925 162.383C324.525 163.071 324.325 163.871 324.325 164.783C324.325 165.695 324.525 166.503 324.925 167.207C325.341 167.895 325.909 168.439 326.629 168.839C327.365 169.223 328.189 169.415 329.101 169.415ZM340.299 171.407V158.807H342.003V171.407H340.299ZM341.163 156.023C340.811 156.023 340.515 155.903 340.275 155.663C340.035 155.423 339.915 155.135 339.915 154.799C339.915 154.463 340.035 154.183 340.275 153.959C340.515 153.719 340.811 153.599 341.163 153.599C341.515 153.599 341.811 153.711 342.051 153.935C342.291 154.159 342.411 154.439 342.411 154.775C342.411 155.127 342.291 155.423 342.051 155.663C341.827 155.903 341.531 156.023 341.163 156.023ZM353.176 158.687C354.2 158.687 355.096 158.887 355.864 159.287C356.648 159.671 357.256 160.263 357.688 161.063C358.136 161.863 358.36 162.871 358.36 164.087V171.407H356.656V164.255C356.656 162.927 356.32 161.927 355.648 161.255C354.992 160.567 354.064 160.223 352.864 160.223C351.968 160.223 351.184 160.407 350.512 160.775C349.856 161.127 349.344 161.647 348.976 162.335C348.624 163.007 348.448 163.823 348.448 164.783V171.407H346.744V158.807H348.376V162.263L348.112 161.615C348.512 160.703 349.152 159.991 350.032 159.479C350.912 158.951 351.96 158.687 353.176 158.687ZM368.339 176.183C367.187 176.183 366.083 176.015 365.027 175.679C363.971 175.343 363.115 174.863 362.459 174.239L363.323 172.943C363.915 173.471 364.643 173.887 365.507 174.191C366.387 174.511 367.315 174.671 368.291 174.671C369.891 174.671 371.067 174.295 371.819 173.543C372.571 172.807 372.947 171.655 372.947 170.087V166.943L373.187 164.783L373.019 162.623V158.807H374.651V169.871C374.651 172.047 374.115 173.639 373.043 174.647C371.987 175.671 370.419 176.183 368.339 176.183ZM368.027 170.927C366.827 170.927 365.747 170.671 364.787 170.159C363.827 169.631 363.067 168.903 362.507 167.975C361.963 167.047 361.691 165.983 361.691 164.783C361.691 163.583 361.963 162.527 362.507 161.615C363.067 160.687 363.827 159.967 364.787 159.455C365.747 158.943 366.827 158.687 368.027 158.687C369.147 158.687 370.155 158.919 371.051 159.383C371.947 159.847 372.659 160.535 373.187 161.447C373.715 162.359 373.979 163.471 373.979 164.783C373.979 166.095 373.715 167.207 373.187 168.119C372.659 169.031 371.947 169.727 371.051 170.207C370.155 170.687 369.147 170.927 368.027 170.927ZM368.195 169.415C369.123 169.415 369.947 169.223 370.667 168.839C371.387 168.439 371.955 167.895 372.371 167.207C372.787 166.503 372.995 165.695 372.995 164.783C372.995 163.871 372.787 163.071 372.371 162.383C371.955 161.695 371.387 161.159 370.667 160.775C369.947 160.375 369.123 160.175 368.195 160.175C367.283 160.175 366.459 160.375 365.723 160.775C365.003 161.159 364.435 161.695 364.019 162.383C363.619 163.071 363.419 163.871 363.419 164.783C363.419 165.695 363.619 166.503 364.019 167.207C364.435 167.895 365.003 168.439 365.723 168.839C366.459 169.223 367.283 169.415 368.195 169.415Z" fill="#EAEAEA"/>
<path id="84_2" d="M395.477 171.551C394.133 171.551 392.973 171.359 391.997 170.975C391.037 170.591 390.293 170.039 389.765 169.319C389.253 168.583 388.997 167.719 388.997 166.727C388.997 165.767 389.245 164.951 389.741 164.279C390.253 163.591 390.989 163.063 391.949 162.695C392.925 162.327 394.101 162.143 395.477 162.143C396.837 162.143 398.005 162.327 398.981 162.695C399.957 163.063 400.701 163.591 401.213 164.279C401.741 164.951 402.005 165.767 402.005 166.727C402.005 167.719 401.741 168.583 401.213 169.319C400.685 170.039 399.933 170.591 398.957 170.975C397.981 171.359 396.821 171.551 395.477 171.551ZM395.477 170.087C396.965 170.087 398.125 169.783 398.957 169.175C399.805 168.567 400.229 167.743 400.229 166.703C400.229 165.663 399.805 164.847 398.957 164.255C398.125 163.647 396.965 163.343 395.477 163.343C393.989 163.343 392.829 163.647 391.997 164.255C391.165 164.847 390.749 165.663 390.749 166.703C390.749 167.743 391.165 168.567 391.997 169.175C392.829 169.783 393.989 170.087 395.477 170.087ZM395.477 163.127C394.229 163.127 393.165 162.959 392.285 162.623C391.421 162.287 390.757 161.807 390.293 161.183C389.829 160.543 389.597 159.783 389.597 158.903C389.597 157.975 389.837 157.183 390.317 156.527C390.813 155.855 391.501 155.343 392.381 154.991C393.261 154.639 394.293 154.463 395.477 154.463C396.661 154.463 397.693 154.639 398.573 154.991C399.469 155.343 400.165 155.855 400.661 156.527C401.157 157.183 401.405 157.975 401.405 158.903C401.405 159.783 401.173 160.543 400.709 161.183C400.245 161.807 399.565 162.287 398.669 162.623C397.789 162.959 396.725 163.127 395.477 163.127ZM395.477 161.975C396.789 161.975 397.813 161.703 398.549 161.159C399.285 160.615 399.653 159.887 399.653 158.975C399.653 158.015 399.269 157.271 398.501 156.743C397.749 156.199 396.741 155.927 395.477 155.927C394.213 155.927 393.205 156.199 392.453 156.743C391.701 157.271 391.325 158.007 391.325 158.951C391.325 159.879 391.685 160.615 392.405 161.159C393.141 161.703 394.165 161.975 395.477 161.975ZM404.109 166.991V165.743L413.013 154.607H414.933L406.101 165.743L405.165 165.455H418.677V166.991H404.109ZM413.589 171.407V166.991L413.637 165.455V161.567H415.317V171.407H413.589Z" fill="#EAEAEA"/>
<g id="Lightning">
<path fill-rule="evenodd" clip-rule="evenodd" d="M433.096 152.6C433.258 152.235 433.619 152 434.019 152H441.996C442.746 152 443.235 152.79 442.899 153.462L440.63 158H443.988C444.888 158 445.338 159.088 444.702 159.724L432.749 171.677C431.995 172.431 430.739 171.655 431.077 170.644L433.625 163H430.027C429.858 163 429.693 162.958 429.545 162.878C429.397 162.797 429.271 162.682 429.18 162.54C429.088 162.399 429.033 162.238 429.02 162.07C429.006 161.902 429.035 161.734 429.104 161.58L433.096 152.6Z" fill="#EAEAEA"/>
</g>
</g>
</g>
</g>
<defs>
<filter id="filter0_i_1_395" x="510" y="110" width="340" height="34" filterUnits="userSpaceOnUse" color-interpolation-filters="sRGB">
<feFlood flood-opacity="0" result="BackgroundImageFix"/>
<feBlend mode="normal" in="SourceGraphic" in2="BackgroundImageFix" result="shape"/>
<feColorMatrix in="SourceAlpha" type="matrix" values="0 0 0 0 0 0 0 0 0 0 0 0 0 0 0 0 0 0 127 0" result="hardAlpha"/>
<feOffset dy="4"/>
<feGaussianBlur stdDeviation="2"/>
<feComposite in2="hardAlpha" operator="arithmetic" k2="-1" k3="1"/>
<feColorMatrix type="matrix" values="0 0 0 0 0 0 0 0 0 0 0 0 0 0 0 0 0 0 0.25 0"/>
<feBlend mode="normal" in2="shape" result="effect1_innerShadow_1_395"/>
</filter>
<filter id="filter1_i_1_395" x="510" y="110" width="285" height="34" filterUnits="userSpaceOnUse" color-interpolation-filters="sRGB">
<feFlood flood-opacity="0" result="BackgroundImageFix"/>
<feBlend mode="normal" in="SourceGraphic" in2="BackgroundImageFix" result="shape"/>
<feColorMatrix in="SourceAlpha" type="matrix" values="0 0 0 0 0 0 0 0 0 0 0 0 0 0 0 0 0 0 127 0" result="hardAlpha"/>
<feOffset dy="4"/>
<feGaussianBlur stdDeviation="2"/>
<feComposite in2="hardAlpha" operator="arithmetic" k2="-1" k3="1"/>
<feColorMatrix type="matrix" values="0 0 0 0 0 0 0 0 0 0 0 0 0 0 0 0 0 0 0.25 0"/>
<feBlend mode="normal" in2="shape" result="effect1_innerShadow_1_395"/>
</filter>
<filter id="filter2_i_1_395" x="110" y="110" width="340" height="34" filterUnits="userSpaceOnUse" color-interpolation-filters="sRGB">
<feFlood flood-opacity="0" result="BackgroundImageFix"/>
<feBlend mode="normal" in="SourceGraphic" in2="BackgroundImageFix" result="shape"/>
<feColorMatrix in="SourceAlpha" type="matrix" values="0 0 0 0 0 0 0 0 0 0 0 0 0 0 0 0 0 0 127 0" result="hardAlpha"/>
<feOffset dy="4"/>
<feGaussianBlur stdDeviation="2"/>
<feComposite in2="hardAlpha" operator="arithmetic" k2="-1" k3="1"/>
<feColorMatrix type="matrix" values="0 0 0 0 0 0 0 0 0 0 0 0 0 0 0 0 0 0 0.25 0"/>
<feBlend mode="normal" in2="shape" result="effect1_innerShadow_1_395"/>
</filter>
<filter id="filter3_i_1_395" x="110" y="110" width="285" height="34" filterUnits="userSpaceOnUse" color-interpolation-filters="sRGB">
<feFlood flood-opacity="0" result="BackgroundImageFix"/>
<feBlend mode="normal" in="SourceGraphic" in2="BackgroundImageFix" result="shape"/>
<feColorMatrix in="SourceAlpha" type="matrix" values="0 0 0 0 0 0 0 0 0 0 0 0 0 0 0 0 0 0 127 0" result="hardAlpha"/>
<feOffset dy="4"/>
<feGaussianBlur stdDeviation="2"/>
<feComposite in2="hardAlpha" operator="arithmetic" k2="-1" k3="1"/>
<feColorMatrix type="matrix" values="0 0 0 0 0 0 0 0 0 0 0 0 0 0 0 0 0 0 0.25 0"/>
<feBlend mode="normal" in2="shape" result="effect1_innerShadow_1_395"/>
</filter>
</defs>
</svg>
