<svg width="865" height="300" viewBox="0 0 865 300" fill="none" xmlns="http://www.w3.org/2000/svg">
<g id="Item Pack v1">
<path d="M0 2C0 0.895429 0.895431 0 2 0H863C864.105 0 865 0.895431 865 2V298C865 299.105 864.105 300 863 300H1.99999C0.895418 300 0 299.105 0 298V2Z" fill="#232323"/>
<path d="M2 1H863V-1H2V1ZM864 2V298H866V2H864ZM863 299H1.99999V301H863V299ZM1 298V2H-1V298H1ZM1.99999 299C1.44771 299 1 298.552 1 298H-1C-1 299.657 0.343124 301 1.99999 301V299ZM864 298C864 298.552 863.552 299 863 299V301C864.657 301 866 299.657 866 298H864ZM863 1C863.552 1 864 1.44771 864 2H866C866 0.343154 864.657 -1 863 -1V1ZM2 -1C0.343147 -1 -1 0.343143 -1 2H1C1 1.44771 1.44771 1 2 1V-1Z" fill="white" fill-opacity="0.1"/>
<g id="Item v1 05" filter="url(#filter0_i_1_369)">
<g clip-path="url(#clip0_1_369)">
<rect x="100" y="100" width="100" height="100" fill="#98231B" fill-opacity="0.2"/>
<path id="Warning" fill-rule="evenodd" clip-rule="evenodd" d="M100 181.816L100 198.787L101.213 200L118.184 200L100 181.816ZM153.277 200L136.307 200L100 163.693L100 146.723L153.277 200ZM188.473 200L171.503 200L111.503 140L128.473 140L188.473 200ZM200 176.331L200 193.301L146.699 140L163.669 140L200 176.331ZM200 141.135L200 158.105L181.895 140L198.865 140L200 141.135Z" fill="#AF3931"/>
<path id="LOCKED" d="M110.57 135V123.8H113.162V132.888H118.778V135H110.57ZM127.895 135.192C127.009 135.192 126.188 135.048 125.431 134.76C124.684 134.472 124.033 134.067 123.479 133.544C122.935 133.021 122.508 132.408 122.199 131.704C121.9 131 121.751 130.232 121.751 129.4C121.751 128.568 121.9 127.8 122.199 127.096C122.508 126.392 122.94 125.779 123.495 125.256C124.049 124.733 124.7 124.328 125.447 124.04C126.193 123.752 127.004 123.608 127.879 123.608C128.764 123.608 129.575 123.752 130.311 124.04C131.057 124.328 131.703 124.733 132.247 125.256C132.801 125.779 133.233 126.392 133.543 127.096C133.852 127.789 134.007 128.557 134.007 129.4C134.007 130.232 133.852 131.005 133.543 131.72C133.233 132.424 132.801 133.037 132.247 133.56C131.703 134.072 131.057 134.472 130.311 134.76C129.575 135.048 128.769 135.192 127.895 135.192ZM127.879 132.984C128.38 132.984 128.839 132.899 129.255 132.728C129.681 132.557 130.055 132.312 130.375 131.992C130.695 131.672 130.94 131.293 131.111 130.856C131.292 130.419 131.383 129.933 131.383 129.4C131.383 128.867 131.292 128.381 131.111 127.944C130.94 127.507 130.695 127.128 130.375 126.808C130.065 126.488 129.697 126.243 129.271 126.072C128.844 125.901 128.38 125.816 127.879 125.816C127.377 125.816 126.913 125.901 126.487 126.072C126.071 126.243 125.703 126.488 125.383 126.808C125.063 127.128 124.812 127.507 124.631 127.944C124.46 128.381 124.375 128.867 124.375 129.4C124.375 129.923 124.46 130.408 124.631 130.856C124.812 131.293 125.057 131.672 125.367 131.992C125.687 132.312 126.06 132.557 126.487 132.728C126.913 132.899 127.377 132.984 127.879 132.984ZM143.715 135.192C142.851 135.192 142.045 135.053 141.299 134.776C140.563 134.488 139.923 134.083 139.379 133.56C138.835 133.037 138.408 132.424 138.099 131.72C137.8 131.016 137.651 130.243 137.651 129.4C137.651 128.557 137.8 127.784 138.099 127.08C138.408 126.376 138.835 125.763 139.379 125.24C139.933 124.717 140.579 124.317 141.315 124.04C142.051 123.752 142.856 123.608 143.731 123.608C144.701 123.608 145.576 123.779 146.355 124.12C147.144 124.451 147.805 124.941 148.339 125.592L146.675 127.128C146.291 126.691 145.864 126.365 145.395 126.152C144.925 125.928 144.413 125.816 143.859 125.816C143.336 125.816 142.856 125.901 142.419 126.072C141.981 126.243 141.603 126.488 141.283 126.808C140.963 127.128 140.712 127.507 140.531 127.944C140.36 128.381 140.275 128.867 140.275 129.4C140.275 129.933 140.36 130.419 140.531 130.856C140.712 131.293 140.963 131.672 141.283 131.992C141.603 132.312 141.981 132.557 142.419 132.728C142.856 132.899 143.336 132.984 143.859 132.984C144.413 132.984 144.925 132.877 145.395 132.664C145.864 132.44 146.291 132.104 146.675 131.656L148.339 133.192C147.805 133.843 147.144 134.339 146.355 134.68C145.576 135.021 144.696 135.192 143.715 135.192ZM154.809 132.44L154.665 129.448L160.025 123.8H162.905L158.073 129L156.633 130.536L154.809 132.44ZM152.489 135V123.8H155.065V135H152.489ZM160.153 135L156.169 130.12L157.865 128.28L163.177 135H160.153ZM169.117 128.312H174.509V130.328H169.117V128.312ZM169.309 132.92H175.405V135H166.733V123.8H175.197V125.88H169.309V132.92ZM179.867 135V123.8H184.955C186.171 123.8 187.243 124.035 188.171 124.504C189.099 124.963 189.824 125.608 190.347 126.44C190.87 127.272 191.131 128.259 191.131 129.4C191.131 130.531 190.87 131.517 190.347 132.36C189.824 133.192 189.099 133.843 188.171 134.312C187.243 134.771 186.171 135 184.955 135H179.867ZM182.459 132.872H184.827C185.574 132.872 186.219 132.733 186.763 132.456C187.318 132.168 187.744 131.763 188.043 131.24C188.352 130.717 188.507 130.104 188.507 129.4C188.507 128.685 188.352 128.072 188.043 127.56C187.744 127.037 187.318 126.637 186.763 126.36C186.219 126.072 185.574 125.928 184.827 125.928H182.459V132.872Z" fill="#EAEAEA"/>
<g id="Dots">
<path d="M133 112.5C133 113.881 131.881 115 130.5 115C129.119 115 128 113.881 128 112.5C128 111.119 129.119 110 130.5 110C131.881 110 133 111.119 133 112.5Z" fill="#AF3931"/>
<path d="M153 112.5C153 113.881 151.881 115 150.5 115C149.119 115 148 113.881 148 112.5C148 111.119 149.119 110 150.5 110C151.881 110 153 111.119 153 112.5Z" fill="#AF3931"/>
<path d="M173 112.5C173 113.881 171.881 115 170.5 115C169.119 115 168 113.881 168 112.5C168 111.119 169.119 110 170.5 110C171.881 110 173 111.119 173 112.5Z" fill="#AF3931"/>
</g>
</g>
<rect x="102.5" y="102.5" width="95" height="95" stroke="#AF3931" stroke-width="5"/>
</g>
<g id="Item v1 04" filter="url(#filter1_i_1_369)">
<g clip-path="url(#clip1_1_369)">
<rect x="240" y="100" width="100" height="100" fill="#98231B" fill-opacity="0.2"/>
<path id="Warning_2" fill-rule="evenodd" clip-rule="evenodd" d="M258.184 100L241.213 100L240 101.213L240 118.184L258.184 100ZM240 153.277L240 136.307L276.307 100L293.277 100L240 153.277ZM240 188.473L240 171.503L300 111.503L300 128.473L240 188.473ZM263.669 200L246.699 200L300 146.699L300 163.669L263.669 200ZM298.865 200L281.895 200L300 181.895L300 198.865L298.865 200Z" fill="#AF3931"/>
<path id="LOCKED_2" d="M305 110.57L316.2 110.57L316.2 113.162L307.112 113.162L307.112 118.778L305 118.778L305 110.57ZM304.808 127.895C304.808 127.009 304.952 126.188 305.24 125.431C305.528 124.684 305.933 124.033 306.456 123.479C306.979 122.935 307.592 122.508 308.296 122.199C309 121.9 309.768 121.751 310.6 121.751C311.432 121.751 312.2 121.9 312.904 122.199C313.608 122.508 314.221 122.94 314.744 123.495C315.267 124.049 315.672 124.7 315.96 125.447C316.248 126.193 316.392 127.004 316.392 127.879C316.392 128.764 316.248 129.575 315.96 130.311C315.672 131.057 315.267 131.703 314.744 132.247C314.221 132.801 313.608 133.233 312.904 133.543C312.211 133.852 311.443 134.007 310.6 134.007C309.768 134.007 308.995 133.852 308.28 133.543C307.576 133.233 306.963 132.801 306.44 132.247C305.928 131.703 305.528 131.057 305.24 130.311C304.952 129.575 304.808 128.769 304.808 127.895ZM307.016 127.879C307.016 128.38 307.101 128.839 307.272 129.255C307.443 129.681 307.688 130.055 308.008 130.375C308.328 130.695 308.707 130.94 309.144 131.111C309.581 131.292 310.067 131.383 310.6 131.383C311.133 131.383 311.619 131.292 312.056 131.111C312.493 130.94 312.872 130.695 313.192 130.375C313.512 130.065 313.757 129.697 313.928 129.271C314.099 128.844 314.184 128.38 314.184 127.879C314.184 127.377 314.099 126.913 313.928 126.487C313.757 126.071 313.512 125.703 313.192 125.383C312.872 125.063 312.493 124.812 312.056 124.631C311.619 124.46 311.133 124.375 310.6 124.375C310.077 124.375 309.592 124.46 309.144 124.631C308.707 124.812 308.328 125.057 308.008 125.367C307.688 125.687 307.443 126.06 307.272 126.487C307.101 126.913 307.016 127.377 307.016 127.879ZM304.808 143.715C304.808 142.851 304.947 142.045 305.224 141.299C305.512 140.563 305.917 139.923 306.44 139.379C306.963 138.835 307.576 138.408 308.28 138.099C308.984 137.8 309.757 137.651 310.6 137.651C311.443 137.651 312.216 137.8 312.92 138.099C313.624 138.408 314.237 138.835 314.76 139.379C315.283 139.933 315.683 140.579 315.96 141.315C316.248 142.051 316.392 142.856 316.392 143.731C316.392 144.701 316.221 145.576 315.88 146.355C315.549 147.144 315.059 147.805 314.408 148.339L312.872 146.675C313.309 146.291 313.635 145.864 313.848 145.395C314.072 144.925 314.184 144.413 314.184 143.859C314.184 143.336 314.099 142.856 313.928 142.419C313.757 141.981 313.512 141.603 313.192 141.283C312.872 140.963 312.493 140.712 312.056 140.531C311.619 140.36 311.133 140.275 310.6 140.275C310.067 140.275 309.581 140.36 309.144 140.531C308.707 140.712 308.328 140.963 308.008 141.283C307.688 141.603 307.443 141.981 307.272 142.419C307.101 142.856 307.016 143.336 307.016 143.859C307.016 144.413 307.123 144.925 307.336 145.395C307.56 145.864 307.896 146.291 308.344 146.675L306.808 148.339C306.157 147.805 305.661 147.144 305.32 146.355C304.979 145.576 304.808 144.696 304.808 143.715ZM307.56 154.809L310.552 154.665L316.2 160.025L316.2 162.905L311 158.073L309.464 156.633L307.56 154.809ZM305 152.489L316.2 152.489L316.2 155.065L305 155.065L305 152.489ZM305 160.153L309.88 156.169L311.72 157.865L305 163.177L305 160.153ZM311.688 169.117L311.688 174.509L309.672 174.509L309.672 169.117L311.688 169.117ZM307.08 169.309L307.08 175.405L305 175.405L305 166.733L316.2 166.733L316.2 175.197L314.12 175.197L314.12 169.309L307.08 169.309ZM305 179.867L316.2 179.867L316.2 184.955C316.2 186.171 315.965 187.243 315.496 188.171C315.037 189.099 314.392 189.824 313.56 190.347C312.728 190.87 311.741 191.131 310.6 191.131C309.469 191.131 308.483 190.87 307.64 190.347C306.808 189.824 306.157 189.099 305.688 188.171C305.229 187.243 305 186.171 305 184.955L305 179.867ZM307.128 182.459L307.128 184.827C307.128 185.574 307.267 186.219 307.544 186.763C307.832 187.318 308.237 187.744 308.76 188.043C309.283 188.352 309.896 188.507 310.6 188.507C311.315 188.507 311.928 188.352 312.44 188.043C312.963 187.744 313.363 187.318 313.64 186.763C313.928 186.219 314.072 185.574 314.072 184.827L314.072 182.459L307.128 182.459Z" fill="#EAEAEA"/>
<g id="Dots_2">
<path d="M327.5 167C328.881 167 330 168.119 330 169.5C330 170.881 328.881 172 327.5 172C326.119 172 325 170.881 325 169.5C325 168.119 326.119 167 327.5 167Z" fill="#AF3931"/>
<path d="M327.5 147C328.881 147 330 148.119 330 149.5C330 150.881 328.881 152 327.5 152C326.119 152 325 150.881 325 149.5C325 148.119 326.119 147 327.5 147Z" fill="#AF3931"/>
<path d="M327.5 127C328.881 127 330 128.119 330 129.5C330 130.881 328.881 132 327.5 132C326.119 132 325 130.881 325 129.5C325 128.119 326.119 127 327.5 127Z" fill="#AF3931"/>
</g>
</g>
<rect x="242.5" y="102.5" width="95" height="95" stroke="#AF3931" stroke-width="5"/>
</g>
<g id="Item v1 03" filter="url(#filter2_i_1_369)">
<g clip-path="url(#clip2_1_369)">
<rect x="380" y="100" width="100" height="100" fill="#98231B" fill-opacity="0.2"/>
<path id="Warning_3" fill-rule="evenodd" clip-rule="evenodd" d="M425.486 100L413.93 100L400 113.763L400 125.18L425.486 100ZM400 148.791L400 137.373L428 109.709L428 121.127L400 148.791ZM400 172.47V161.052L428 133.389V144.806L400 172.47ZM400 196.149V184.732L428 157.068V168.486L400 196.149ZM420.07 200L408.514 200L428 180.748L428 192.165L420.07 200Z" fill="#AF3931"/>
<path id="LOCKED_3" d="M433 110.57L444.2 110.57L444.2 113.162L435.112 113.162L435.112 118.778L433 118.778L433 110.57ZM432.808 127.895C432.808 127.009 432.952 126.188 433.24 125.431C433.528 124.684 433.933 124.033 434.456 123.479C434.979 122.935 435.592 122.508 436.296 122.199C437 121.9 437.768 121.751 438.6 121.751C439.432 121.751 440.2 121.9 440.904 122.199C441.608 122.508 442.221 122.94 442.744 123.495C443.267 124.049 443.672 124.7 443.96 125.447C444.248 126.193 444.392 127.004 444.392 127.879C444.392 128.764 444.248 129.575 443.96 130.311C443.672 131.057 443.267 131.703 442.744 132.247C442.221 132.801 441.608 133.233 440.904 133.543C440.211 133.852 439.443 134.007 438.6 134.007C437.768 134.007 436.995 133.852 436.28 133.543C435.576 133.233 434.963 132.801 434.44 132.247C433.928 131.703 433.528 131.057 433.24 130.311C432.952 129.575 432.808 128.769 432.808 127.895ZM435.016 127.879C435.016 128.38 435.101 128.839 435.272 129.255C435.443 129.681 435.688 130.055 436.008 130.375C436.328 130.695 436.707 130.94 437.144 131.111C437.581 131.292 438.067 131.383 438.6 131.383C439.133 131.383 439.619 131.292 440.056 131.111C440.493 130.94 440.872 130.695 441.192 130.375C441.512 130.065 441.757 129.697 441.928 129.271C442.099 128.844 442.184 128.38 442.184 127.879C442.184 127.377 442.099 126.913 441.928 126.487C441.757 126.071 441.512 125.703 441.192 125.383C440.872 125.063 440.493 124.812 440.056 124.631C439.619 124.46 439.133 124.375 438.6 124.375C438.077 124.375 437.592 124.46 437.144 124.631C436.707 124.812 436.328 125.057 436.008 125.367C435.688 125.687 435.443 126.06 435.272 126.487C435.101 126.913 435.016 127.377 435.016 127.879ZM432.808 143.715C432.808 142.851 432.947 142.045 433.224 141.299C433.512 140.563 433.917 139.923 434.44 139.379C434.963 138.835 435.576 138.408 436.28 138.099C436.984 137.8 437.757 137.651 438.6 137.651C439.443 137.651 440.216 137.8 440.92 138.099C441.624 138.408 442.237 138.835 442.76 139.379C443.283 139.933 443.683 140.579 443.96 141.315C444.248 142.051 444.392 142.856 444.392 143.731C444.392 144.701 444.221 145.576 443.88 146.355C443.549 147.144 443.059 147.805 442.408 148.339L440.872 146.675C441.309 146.291 441.635 145.864 441.848 145.395C442.072 144.925 442.184 144.413 442.184 143.859C442.184 143.336 442.099 142.856 441.928 142.419C441.757 141.981 441.512 141.603 441.192 141.283C440.872 140.963 440.493 140.712 440.056 140.531C439.619 140.36 439.133 140.275 438.6 140.275C438.067 140.275 437.581 140.36 437.144 140.531C436.707 140.712 436.328 140.963 436.008 141.283C435.688 141.603 435.443 141.981 435.272 142.419C435.101 142.856 435.016 143.336 435.016 143.859C435.016 144.413 435.123 144.925 435.336 145.395C435.56 145.864 435.896 146.291 436.344 146.675L434.808 148.339C434.157 147.805 433.661 147.144 433.32 146.355C432.979 145.576 432.808 144.696 432.808 143.715ZM435.56 154.809L438.552 154.665L444.2 160.025L444.2 162.905L439 158.073L437.464 156.633L435.56 154.809ZM433 152.489L444.2 152.489L444.2 155.065L433 155.065L433 152.489ZM433 160.153L437.88 156.169L439.72 157.865L433 163.177L433 160.153ZM439.688 169.117L439.688 174.509L437.672 174.509L437.672 169.117L439.688 169.117ZM435.08 169.309L435.08 175.405L433 175.405L433 166.733L444.2 166.733L444.2 175.197L442.12 175.197L442.12 169.309L435.08 169.309ZM433 179.867L444.2 179.867L444.2 184.955C444.2 186.171 443.965 187.243 443.496 188.171C443.037 189.099 442.392 189.824 441.56 190.347C440.728 190.87 439.741 191.131 438.6 191.131C437.469 191.131 436.483 190.87 435.64 190.347C434.808 189.824 434.157 189.099 433.688 188.171C433.229 187.243 433 186.171 433 184.955L433 179.867ZM435.128 182.459L435.128 184.827C435.128 185.574 435.267 186.219 435.544 186.763C435.832 187.318 436.237 187.744 436.76 188.043C437.283 188.352 437.896 188.507 438.6 188.507C439.315 188.507 439.928 188.352 440.44 188.043C440.963 187.744 441.363 187.318 441.64 186.763C441.928 186.219 442.072 185.574 442.072 184.827L442.072 182.459L435.128 182.459Z" fill="#EAEAEA"/>
<g id="Dots_3">
<path d="M467.5 167C468.881 167 470 168.119 470 169.5C470 170.881 468.881 172 467.5 172C466.119 172 465 170.881 465 169.5C465 168.119 466.119 167 467.5 167Z" fill="#AF3931"/>
<path d="M467.5 147C468.881 147 470 148.119 470 149.5C470 150.881 468.881 152 467.5 152C466.119 152 465 150.881 465 149.5C465 148.119 466.119 147 467.5 147Z" fill="#AF3931"/>
<path d="M467.5 127C468.881 127 470 128.119 470 129.5C470 130.881 468.881 132 467.5 132C466.119 132 465 130.881 465 129.5C465 128.119 466.119 127 467.5 127Z" fill="#AF3931"/>
</g>
</g>
<rect x="382.5" y="102.5" width="95" height="95" stroke="#AF3931" stroke-width="5"/>
</g>
<g id="Item v1 02" filter="url(#filter3_i_1_369)">
<g clip-path="url(#clip3_1_369)">
<rect x="520" y="100" width="100" height="100" fill="#98231B" fill-opacity="0.2"/>
<path id="Warning_4" fill-rule="evenodd" clip-rule="evenodd" d="M520 146.514L520 158.07L533.763 172L545.18 172L520 146.514ZM568.791 172L557.373 172L529.709 144L541.127 144L568.791 172ZM592.47 172L581.052 172L553.389 144L564.806 144L592.47 172ZM616.149 172L604.732 172L577.068 144L588.486 144L616.149 172ZM620 151.93L620 163.486L600.748 144L612.165 144L620 151.93Z" fill="#AF3931"/>
<path id="LOCKED_4" d="M530.57 139V127.8L533.162 127.8V136.888L538.778 136.888V139L530.57 139ZM547.895 139.192C547.009 139.192 546.188 139.048 545.431 138.76C544.684 138.472 544.033 138.067 543.479 137.544C542.935 137.021 542.508 136.408 542.199 135.704C541.9 135 541.751 134.232 541.751 133.4C541.751 132.568 541.9 131.8 542.199 131.096C542.508 130.392 542.94 129.779 543.495 129.256C544.049 128.733 544.7 128.328 545.447 128.04C546.193 127.752 547.004 127.608 547.879 127.608C548.764 127.608 549.575 127.752 550.311 128.04C551.057 128.328 551.703 128.733 552.247 129.256C552.801 129.779 553.233 130.392 553.543 131.096C553.852 131.789 554.007 132.557 554.007 133.4C554.007 134.232 553.852 135.005 553.543 135.72C553.233 136.424 552.801 137.037 552.247 137.56C551.703 138.072 551.057 138.472 550.311 138.76C549.575 139.048 548.769 139.192 547.895 139.192ZM547.879 136.984C548.38 136.984 548.839 136.899 549.255 136.728C549.681 136.557 550.055 136.312 550.375 135.992C550.695 135.672 550.94 135.293 551.111 134.856C551.292 134.419 551.383 133.933 551.383 133.4C551.383 132.867 551.292 132.381 551.111 131.944C550.94 131.507 550.695 131.128 550.375 130.808C550.065 130.488 549.697 130.243 549.271 130.072C548.844 129.901 548.38 129.816 547.879 129.816C547.377 129.816 546.913 129.901 546.487 130.072C546.071 130.243 545.703 130.488 545.383 130.808C545.063 131.128 544.812 131.507 544.631 131.944C544.46 132.381 544.375 132.867 544.375 133.4C544.375 133.923 544.46 134.408 544.631 134.856C544.812 135.293 545.057 135.672 545.367 135.992C545.687 136.312 546.06 136.557 546.487 136.728C546.913 136.899 547.377 136.984 547.879 136.984ZM563.715 139.192C562.851 139.192 562.045 139.053 561.299 138.776C560.563 138.488 559.923 138.083 559.379 137.56C558.835 137.037 558.408 136.424 558.099 135.72C557.8 135.016 557.651 134.243 557.651 133.4C557.651 132.557 557.8 131.784 558.099 131.08C558.408 130.376 558.835 129.763 559.379 129.24C559.933 128.717 560.579 128.317 561.315 128.04C562.051 127.752 562.856 127.608 563.731 127.608C564.701 127.608 565.576 127.779 566.355 128.12C567.144 128.451 567.805 128.941 568.339 129.592L566.675 131.128C566.291 130.691 565.864 130.365 565.395 130.152C564.925 129.928 564.413 129.816 563.859 129.816C563.336 129.816 562.856 129.901 562.419 130.072C561.981 130.243 561.603 130.488 561.283 130.808C560.963 131.128 560.712 131.507 560.531 131.944C560.36 132.381 560.275 132.867 560.275 133.4C560.275 133.933 560.36 134.419 560.531 134.856C560.712 135.293 560.963 135.672 561.283 135.992C561.603 136.312 561.981 136.557 562.419 136.728C562.856 136.899 563.336 136.984 563.859 136.984C564.413 136.984 564.925 136.877 565.395 136.664C565.864 136.44 566.291 136.104 566.675 135.656L568.339 137.192C567.805 137.843 567.144 138.339 566.355 138.68C565.576 139.021 564.696 139.192 563.715 139.192ZM574.809 136.44L574.665 133.448L580.025 127.8L582.905 127.8L578.073 133L576.633 134.536L574.809 136.44ZM572.489 139V127.8L575.065 127.8V139H572.489ZM580.153 139L576.169 134.12L577.865 132.28L583.177 139H580.153ZM589.117 132.312H594.509V134.328H589.117V132.312ZM589.309 136.92H595.405V139H586.733V127.8L595.197 127.8V129.88H589.309V136.92ZM599.867 139V127.8H604.955C606.171 127.8 607.243 128.035 608.171 128.504C609.099 128.963 609.824 129.608 610.347 130.44C610.87 131.272 611.131 132.259 611.131 133.4C611.131 134.531 610.87 135.517 610.347 136.36C609.824 137.192 609.099 137.843 608.171 138.312C607.243 138.771 606.171 139 604.955 139L599.867 139ZM602.459 136.872L604.827 136.872C605.574 136.872 606.219 136.733 606.763 136.456C607.318 136.168 607.744 135.763 608.043 135.24C608.352 134.717 608.507 134.104 608.507 133.4C608.507 132.685 608.352 132.072 608.043 131.56C607.744 131.037 607.318 130.637 606.763 130.36C606.219 130.072 605.574 129.928 604.827 129.928L602.459 129.928V136.872Z" fill="#EAEAEA"/>
<g id="Dots_4">
<path d="M553 187.5C553 188.881 551.881 190 550.5 190C549.119 190 548 188.881 548 187.5C548 186.119 549.119 185 550.5 185C551.881 185 553 186.119 553 187.5Z" fill="#AF3931"/>
<path d="M573 187.5C573 188.881 571.881 190 570.5 190C569.119 190 568 188.881 568 187.5C568 186.119 569.119 185 570.5 185C571.881 185 573 186.119 573 187.5Z" fill="#AF3931"/>
<path d="M593 187.5C593 188.881 591.881 190 590.5 190C589.119 190 588 188.881 588 187.5C588 186.119 589.119 185 590.5 185C591.881 185 593 186.119 593 187.5Z" fill="#AF3931"/>
</g>
</g>
<rect x="522.5" y="102.5" width="95" height="95" stroke="#AF3931" stroke-width="5"/>
</g>
<g id="Item v1 01" filter="url(#filter4_i_1_369)">
<rect x="665" y="100" width="100" height="100" fill="#98231B" fill-opacity="0.2"/>
<rect x="667.5" y="102.5" width="95" height="95" stroke="#AF3931" stroke-width="5"/>
<g id="Dots_5">
<path d="M698 187.5C698 188.881 696.881 190 695.5 190C694.119 190 693 188.881 693 187.5C693 186.119 694.119 185 695.5 185C696.881 185 698 186.119 698 187.5Z" fill="#AF3931"/>
<path d="M718 187.5C718 188.881 716.881 190 715.5 190C714.119 190 713 188.881 713 187.5C713 186.119 714.119 185 715.5 185C716.881 185 718 186.119 718 187.5Z" fill="#AF3931"/>
<path d="M738 187.5C738 188.881 736.881 190 735.5 190C734.119 190 733 188.881 733 187.5C733 186.119 734.119 185 735.5 185C736.881 185 738 186.119 738 187.5Z" fill="#AF3931"/>
</g>
</g>
</g>
<defs>
<filter id="filter0_i_1_369" x="100" y="100" width="100" height="104" filterUnits="userSpaceOnUse" color-interpolation-filters="sRGB">
<feFlood flood-opacity="0" result="BackgroundImageFix"/>
<feBlend mode="normal" in="SourceGraphic" in2="BackgroundImageFix" result="shape"/>
<feColorMatrix in="SourceAlpha" type="matrix" values="0 0 0 0 0 0 0 0 0 0 0 0 0 0 0 0 0 0 127 0" result="hardAlpha"/>
<feOffset dy="10"/>
<feGaussianBlur stdDeviation="2"/>
<feComposite in2="hardAlpha" operator="arithmetic" k2="-1" k3="1"/>
<feColorMatrix type="matrix" values="0 0 0 0 0 0 0 0 0 0 0 0 0 0 0 0 0 0 0.25 0"/>
<feBlend mode="normal" in2="shape" result="effect1_innerShadow_1_369"/>
</filter>
<filter id="filter1_i_1_369" x="240" y="100" width="100" height="104" filterUnits="userSpaceOnUse" color-interpolation-filters="sRGB">
<feFlood flood-opacity="0" result="BackgroundImageFix"/>
<feBlend mode="normal" in="SourceGraphic" in2="BackgroundImageFix" result="shape"/>
<feColorMatrix in="SourceAlpha" type="matrix" values="0 0 0 0 0 0 0 0 0 0 0 0 0 0 0 0 0 0 127 0" result="hardAlpha"/>
<feOffset dy="10"/>
<feGaussianBlur stdDeviation="2"/>
<feComposite in2="hardAlpha" operator="arithmetic" k2="-1" k3="1"/>
<feColorMatrix type="matrix" values="0 0 0 0 0 0 0 0 0 0 0 0 0 0 0 0 0 0 0.25 0"/>
<feBlend mode="normal" in2="shape" result="effect1_innerShadow_1_369"/>
</filter>
<filter id="filter2_i_1_369" x="380" y="100" width="100" height="104" filterUnits="userSpaceOnUse" color-interpolation-filters="sRGB">
<feFlood flood-opacity="0" result="BackgroundImageFix"/>
<feBlend mode="normal" in="SourceGraphic" in2="BackgroundImageFix" result="shape"/>
<feColorMatrix in="SourceAlpha" type="matrix" values="0 0 0 0 0 0 0 0 0 0 0 0 0 0 0 0 0 0 127 0" result="hardAlpha"/>
<feOffset dy="10"/>
<feGaussianBlur stdDeviation="2"/>
<feComposite in2="hardAlpha" operator="arithmetic" k2="-1" k3="1"/>
<feColorMatrix type="matrix" values="0 0 0 0 0 0 0 0 0 0 0 0 0 0 0 0 0 0 0.25 0"/>
<feBlend mode="normal" in2="shape" result="effect1_innerShadow_1_369"/>
</filter>
<filter id="filter3_i_1_369" x="520" y="100" width="100" height="104" filterUnits="userSpaceOnUse" color-interpolation-filters="sRGB">
<feFlood flood-opacity="0" result="BackgroundImageFix"/>
<feBlend mode="normal" in="SourceGraphic" in2="BackgroundImageFix" result="shape"/>
<feColorMatrix in="SourceAlpha" type="matrix" values="0 0 0 0 0 0 0 0 0 0 0 0 0 0 0 0 0 0 127 0" result="hardAlpha"/>
<feOffset dy="10"/>
<feGaussianBlur stdDeviation="2"/>
<feComposite in2="hardAlpha" operator="arithmetic" k2="-1" k3="1"/>
<feColorMatrix type="matrix" values="0 0 0 0 0 0 0 0 0 0 0 0 0 0 0 0 0 0 0.25 0"/>
<feBlend mode="normal" in2="shape" result="effect1_innerShadow_1_369"/>
</filter>
<filter id="filter4_i_1_369" x="665" y="100" width="100" height="104" filterUnits="userSpaceOnUse" color-interpolation-filters="sRGB">
<feFlood flood-opacity="0" result="BackgroundImageFix"/>
<feBlend mode="normal" in="SourceGraphic" in2="BackgroundImageFix" result="shape"/>
<feColorMatrix in="SourceAlpha" type="matrix" values="0 0 0 0 0 0 0 0 0 0 0 0 0 0 0 0 0 0 127 0" result="hardAlpha"/>
<feOffset dy="10"/>
<feGaussianBlur stdDeviation="2"/>
<feComposite in2="hardAlpha" operator="arithmetic" k2="-1" k3="1"/>
<feColorMatrix type="matrix" values="0 0 0 0 0 0 0 0 0 0 0 0 0 0 0 0 0 0 0.25 0"/>
<feBlend mode="normal" in2="shape" result="effect1_innerShadow_1_369"/>
</filter>
<clipPath id="clip0_1_369">
<rect x="100" y="100" width="100" height="100" fill="white"/>
</clipPath>
<clipPath id="clip1_1_369">
<rect x="240" y="100" width="100" height="100" fill="white"/>
</clipPath>
<clipPath id="clip2_1_369">
<rect x="380" y="100" width="100" height="100" fill="white"/>
</clipPath>
<clipPath id="clip3_1_369">
<rect x="520" y="100" width="100" height="100" fill="white"/>
</clipPath>
</defs>
</svg>
