<svg width="984" height="1000" viewBox="0 0 984 1000" fill="none" xmlns="http://www.w3.org/2000/svg">
<g id="Random Elements">
<path d="M0 1.99997C0 0.895405 0.89543 0 2 0H982C983.105 0 984 0.895431 984 2V998C984 999.105 983.105 1000 982 1000H2C0.895429 1000 0 999.105 0 998V1.99997Z" fill="#232323"/>
<path d="M2 1H982V-1H2V1ZM983 2V998H985V2H983ZM982 999H2V1001H982V999ZM1 998V1.99997H-1V998H1ZM2 999C1.44771 999 1 998.552 1 998H-1C-1 999.657 0.343143 1001 2 1001V999ZM983 998C983 998.552 982.552 999 982 999V1001C983.657 1001 985 999.657 985 998H983ZM982 1C982.552 1 983 1.44771 983 2H985C985 0.343147 983.657 -1 982 -1V1ZM2 -1C0.343162 -1 -1 0.343103 -1 1.99997H1C1 1.44771 1.4477 1 2 1V-1Z" fill="white" fill-opacity="0.1"/>
<g id="MECH - HUD PARTS">
<path id="Warning" opacity="0.2" fill-rule="evenodd" clip-rule="evenodd" d="M170.46 131H128.034L125 134.034V176.46L170.46 131ZM125 264.193V221.767L215.767 131H258.193L125 264.193ZM125 352.183V309.757L275 159.757V202.183L125 352.183ZM184.173 381H141.747L275 247.747V290.173L184.173 381ZM272.163 381H229.737L275 335.737V378.163L272.163 381Z" fill="#AF3931"/>
<g id="Sign">
<g id="HUD">
<path d="M169.75 369.74L163.25 363.24L180.75 345.74H223.75L231.25 353.24H319.25L326.75 345.74H369.75L387.25 363.24L380.75 369.74H169.75Z" fill="#AF3931"/>
<path d="M251.5 145.379L260.379 143L266.785 166.905L245.285 204.145L235.039 206.89L191.039 283.1L193.785 293.345L172.285 330.584L148.379 336.99L146 328.111L251.5 145.379Z" fill="#AF3931"/>
<path d="M299.285 145.379L290.405 143L284 166.905L305.5 204.145L315.745 206.89L359.745 283.1L357 293.345L378.5 330.584L402.405 336.99L404.785 328.111L299.285 145.379Z" fill="#AF3931"/>
</g>
<path id="HUD_2" d="M200 226L153 307" stroke="#AF3931" stroke-opacity="0.5" stroke-width="2"/>
<path id="HUD_3" d="M309 153L403 316" stroke="#AF3931" stroke-opacity="0.5" stroke-width="2"/>
<path id="Inner Stroke" opacity="0.5" fill-rule="evenodd" clip-rule="evenodd" d="M272.519 241L239.321 298.501L242.207 303.5H308.602L311.489 298.499L278.292 241H272.519ZM317.262 318.5L328.81 298.499L286.953 226H263.859L222 298.501L233.546 318.5H317.262Z" fill="#AF3931"/>
<g id="Vector" opacity="0.3">
<path d="M274.61 187L287.904 210.026H261.316L274.61 187Z" fill="white"/>
<path d="M208.294 303.974L221.588 327H195L208.294 303.974Z" fill="white"/>
<path d="M340.926 303.974L354.22 327H327.632L340.926 303.974Z" fill="white"/>
</g>
<path id="!" d="M286.316 283.684H264.424L263 237H287.793L286.316 283.684ZM263.739 290.7H287.054V307H263.739V290.7Z" fill="white"/>
<rect id="Rectangle 92" x="367.213" y="143" width="5" height="30" transform="rotate(45 367.213 143)" fill="white"/>
<rect id="Rectangle 93" x="401.962" y="143" width="5" height="30" transform="rotate(45 401.962 143)" fill="#AF3931"/>
</g>
<path id="CAUTION" d="M162.688 400.836C161.845 400.836 161.067 400.697 160.352 400.42C159.637 400.132 159.019 399.732 158.496 399.22C157.973 398.708 157.563 398.105 157.264 397.412C156.976 396.718 156.832 395.961 156.832 395.14C156.832 394.318 156.976 393.561 157.264 392.868C157.563 392.174 157.973 391.572 158.496 391.06C159.029 390.548 159.653 390.153 160.368 389.876C161.083 389.588 161.861 389.444 162.704 389.444C163.515 389.444 164.277 389.582 164.992 389.86C165.707 390.126 166.309 390.532 166.8 391.076L166.048 391.828C165.589 391.358 165.083 391.022 164.528 390.82C163.973 390.606 163.376 390.5 162.736 390.5C162.064 390.5 161.44 390.617 160.864 390.852C160.288 391.076 159.787 391.401 159.36 391.828C158.933 392.244 158.597 392.734 158.352 393.3C158.117 393.854 158 394.468 158 395.14C158 395.812 158.117 396.43 158.352 396.996C158.597 397.55 158.933 398.041 159.36 398.468C159.787 398.884 160.288 399.209 160.864 399.444C161.44 399.668 162.064 399.78 162.736 399.78C163.376 399.78 163.973 399.673 164.528 399.46C165.083 399.246 165.589 398.905 166.048 398.436L166.8 399.188C166.309 399.732 165.707 400.142 164.992 400.42C164.277 400.697 163.509 400.836 162.688 400.836ZM171.251 400.74L176.371 389.54H177.539L182.659 400.74H181.411L176.707 390.228H177.187L172.483 400.74H171.251ZM173.267 397.748L173.619 396.788H180.131L180.483 397.748H173.267ZM192.789 400.836C191.36 400.836 190.234 400.425 189.413 399.604C188.592 398.782 188.181 397.566 188.181 395.956V389.54H189.365V395.908C189.365 397.23 189.664 398.206 190.261 398.836C190.858 399.465 191.701 399.78 192.789 399.78C193.888 399.78 194.736 399.465 195.333 398.836C195.93 398.206 196.229 397.23 196.229 395.908V389.54H197.381V395.956C197.381 397.566 196.97 398.782 196.149 399.604C195.338 400.425 194.218 400.836 192.789 400.836ZM206.906 400.74V390.564H202.97V389.54H212.026V390.564H208.09V400.74H206.906ZM217.918 400.74V389.54H219.102V400.74H217.918ZM231.642 400.836C230.799 400.836 230.015 400.697 229.29 400.42C228.575 400.132 227.951 399.732 227.418 399.22C226.895 398.697 226.485 398.094 226.186 397.412C225.898 396.718 225.754 395.961 225.754 395.14C225.754 394.318 225.898 393.566 226.186 392.884C226.485 392.19 226.895 391.588 227.418 391.076C227.951 390.553 228.575 390.153 229.29 389.876C230.005 389.588 230.789 389.444 231.642 389.444C232.485 389.444 233.263 389.588 233.978 389.876C234.693 390.153 235.311 390.548 235.834 391.06C236.367 391.572 236.778 392.174 237.066 392.868C237.365 393.561 237.514 394.318 237.514 395.14C237.514 395.961 237.365 396.718 237.066 397.412C236.778 398.105 236.367 398.708 235.834 399.22C235.311 399.732 234.693 400.132 233.978 400.42C233.263 400.697 232.485 400.836 231.642 400.836ZM231.642 399.78C232.314 399.78 232.933 399.668 233.498 399.444C234.074 399.209 234.57 398.884 234.986 398.468C235.413 398.041 235.743 397.55 235.978 396.996C236.213 396.43 236.33 395.812 236.33 395.14C236.33 394.468 236.213 393.854 235.978 393.3C235.743 392.734 235.413 392.244 234.986 391.828C234.57 391.401 234.074 391.076 233.498 390.852C232.933 390.617 232.314 390.5 231.642 390.5C230.97 390.5 230.346 390.617 229.77 390.852C229.194 391.076 228.693 391.401 228.266 391.828C227.85 392.244 227.519 392.734 227.274 393.3C227.039 393.854 226.922 394.468 226.922 395.14C226.922 395.801 227.039 396.414 227.274 396.98C227.519 397.545 227.85 398.041 228.266 398.468C228.693 398.884 229.194 399.209 229.77 399.444C230.346 399.668 230.97 399.78 231.642 399.78ZM244.168 400.74V389.54H245.144L252.872 399.268H252.36V389.54H253.528V400.74H252.552L244.84 391.012H245.352V400.74H244.168Z" fill="#AF3931"/>
<path id="HULL [BREACH]" d="M365.928 386H366.658V393H365.928V386ZM361.548 393H360.808V386H361.548V393ZM365.998 389.77H361.468V389.12H365.998V389.77ZM374.263 393.06C373.369 393.06 372.666 392.803 372.153 392.29C371.639 391.777 371.383 391.017 371.383 390.01V386H372.123V389.98C372.123 390.807 372.309 391.417 372.683 391.81C373.056 392.203 373.583 392.4 374.263 392.4C374.949 392.4 375.479 392.203 375.853 391.81C376.226 391.417 376.413 390.807 376.413 389.98V386H377.133V390.01C377.133 391.017 376.876 391.777 376.363 392.29C375.856 392.803 375.156 393.06 374.263 393.06ZM381.863 393V386H382.603V392.36H386.523V393H381.863ZM390.251 393V386H390.991V392.36H394.911V393H390.251ZM328.425 406.94V397.58H330.255V398.17H329.135V406.35H330.255V406.94H328.425ZM334.109 405V398H337.129C337.909 398 338.512 398.157 338.939 398.47C339.372 398.783 339.589 399.227 339.589 399.8C339.589 400.18 339.499 400.5 339.319 400.76C339.145 401.02 338.905 401.217 338.599 401.35C338.299 401.483 337.969 401.55 337.609 401.55L337.779 401.31C338.225 401.31 338.609 401.38 338.929 401.52C339.255 401.653 339.509 401.857 339.689 402.13C339.869 402.397 339.959 402.73 339.959 403.13C339.959 403.723 339.739 404.183 339.299 404.51C338.865 404.837 338.209 405 337.329 405H334.109ZM334.849 404.39H337.319C337.932 404.39 338.402 404.287 338.729 404.08C339.055 403.867 339.219 403.53 339.219 403.07C339.219 402.617 339.055 402.287 338.729 402.08C338.402 401.867 337.932 401.76 337.319 401.76H334.769V401.15H337.079C337.639 401.15 338.072 401.043 338.379 400.83C338.692 400.617 338.849 400.3 338.849 399.88C338.849 399.453 338.692 399.137 338.379 398.93C338.072 398.717 337.639 398.61 337.079 398.61H334.849V404.39ZM344.148 405V398H346.768C347.361 398 347.871 398.097 348.298 398.29C348.724 398.477 349.051 398.75 349.278 399.11C349.511 399.463 349.628 399.893 349.628 400.4C349.628 400.893 349.511 401.32 349.278 401.68C349.051 402.033 348.724 402.307 348.298 402.5C347.871 402.687 347.361 402.78 346.768 402.78H344.558L344.888 402.44V405H344.148ZM348.928 405L347.128 402.46H347.928L349.738 405H348.928ZM344.888 402.5L344.558 402.15H346.748C347.448 402.15 347.978 401.997 348.338 401.69C348.704 401.383 348.888 400.953 348.888 400.4C348.888 399.84 348.704 399.407 348.338 399.1C347.978 398.793 347.448 398.64 346.748 398.64H344.558L344.888 398.29V402.5ZM354.534 401.13H358.234V401.76H354.534V401.13ZM354.614 404.36H358.824V405H353.874V398H358.674V398.64H354.614V404.36ZM361.944 405L365.144 398H365.874L369.074 405H368.294L365.354 398.43H365.654L362.714 405H361.944ZM363.204 403.13L363.424 402.53H367.494L367.714 403.13H363.204ZM375.674 405.06C375.147 405.06 374.661 404.973 374.214 404.8C373.767 404.62 373.381 404.37 373.054 404.05C372.727 403.73 372.471 403.353 372.284 402.92C372.104 402.487 372.014 402.013 372.014 401.5C372.014 400.987 372.104 400.513 372.284 400.08C372.471 399.647 372.727 399.27 373.054 398.95C373.387 398.63 373.777 398.383 374.224 398.21C374.671 398.03 375.157 397.94 375.684 397.94C376.191 397.94 376.667 398.027 377.114 398.2C377.561 398.367 377.937 398.62 378.244 398.96L377.774 399.43C377.487 399.137 377.171 398.927 376.824 398.8C376.477 398.667 376.104 398.6 375.704 398.6C375.284 398.6 374.894 398.673 374.534 398.82C374.174 398.96 373.861 399.163 373.594 399.43C373.327 399.69 373.117 399.997 372.964 400.35C372.817 400.697 372.744 401.08 372.744 401.5C372.744 401.92 372.817 402.307 372.964 402.66C373.117 403.007 373.327 403.313 373.594 403.58C373.861 403.84 374.174 404.043 374.534 404.19C374.894 404.33 375.284 404.4 375.704 404.4C376.104 404.4 376.477 404.333 376.824 404.2C377.171 404.067 377.487 403.853 377.774 403.56L378.244 404.03C377.937 404.37 377.561 404.627 377.114 404.8C376.667 404.973 376.187 405.06 375.674 405.06ZM387.442 398H388.172V405H387.442V398ZM383.062 405H382.322V398H383.062V405ZM387.512 401.77H382.982V401.12H387.512V401.77ZM393.856 406.94H392.026V406.35H393.146V398.17H392.026V397.58H393.856V406.94Z" fill="white"/>
<path id="Vector 174" d="M146 411.74H286" stroke="#AF3931" stroke-width="2"/>
<path id="Vector 175" d="M315 412H405" stroke="#AF3931" stroke-width="2"/>
<path id="WARNING WARNING WARNING" opacity="0.2" d="M169.861 428L167.501 421H168.261L170.471 427.59H170.091L172.371 421H173.051L175.301 427.59H174.941L177.171 421H177.881L175.521 428H174.741L172.591 421.75H172.791L170.631 428H169.861ZM180.403 428L183.603 421H184.333L187.533 428H186.753L183.813 421.43H184.113L181.173 428H180.403ZM181.663 426.13L181.883 425.53H185.953L186.173 426.13H181.663ZM191.191 428V421H193.811C194.404 421 194.914 421.097 195.341 421.29C195.767 421.477 196.094 421.75 196.321 422.11C196.554 422.463 196.671 422.893 196.671 423.4C196.671 423.893 196.554 424.32 196.321 424.68C196.094 425.033 195.767 425.307 195.341 425.5C194.914 425.687 194.404 425.78 193.811 425.78H191.601L191.931 425.44V428H191.191ZM195.971 428L194.171 425.46H194.971L196.781 428H195.971ZM191.931 425.5L191.601 425.15H193.791C194.491 425.15 195.021 424.997 195.381 424.69C195.747 424.383 195.931 423.953 195.931 423.4C195.931 422.84 195.747 422.407 195.381 422.1C195.021 421.793 194.491 421.64 193.791 421.64H191.601L191.931 421.29V425.5ZM200.917 428V421H201.527L206.357 427.08H206.037V421H206.767V428H206.157L201.337 421.92H201.657V428H200.917ZM211.552 428V421H212.292V428H211.552ZM217.07 428V421H217.68L222.51 427.08H222.19V421H222.92V428H222.31L217.49 421.92H217.81V428H217.07ZM230.774 428.06C230.241 428.06 229.748 427.973 229.294 427.8C228.848 427.62 228.458 427.37 228.124 427.05C227.798 426.73 227.541 426.353 227.354 425.92C227.174 425.487 227.084 425.013 227.084 424.5C227.084 423.987 227.174 423.513 227.354 423.08C227.541 422.647 227.801 422.27 228.134 421.95C228.468 421.63 228.858 421.383 229.304 421.21C229.758 421.03 230.251 420.94 230.784 420.94C231.318 420.94 231.804 421.023 232.244 421.19C232.691 421.357 233.071 421.61 233.384 421.95L232.924 422.42C232.631 422.127 232.308 421.917 231.954 421.79C231.601 421.663 231.221 421.6 230.814 421.6C230.381 421.6 229.981 421.673 229.614 421.82C229.254 421.96 228.938 422.163 228.664 422.43C228.398 422.69 228.188 422.997 228.034 423.35C227.888 423.697 227.814 424.08 227.814 424.5C227.814 424.913 227.888 425.297 228.034 425.65C228.188 426.003 228.398 426.313 228.664 426.58C228.938 426.84 229.254 427.043 229.614 427.19C229.981 427.33 230.378 427.4 230.804 427.4C231.204 427.4 231.581 427.34 231.934 427.22C232.294 427.1 232.624 426.897 232.924 426.61L233.344 427.17C233.011 427.463 232.621 427.687 232.174 427.84C231.728 427.987 231.261 428.06 230.774 428.06ZM232.634 427.08V424.5H233.344V427.17L232.634 427.08ZM244.646 428L242.286 421H243.046L245.256 427.59H244.876L247.156 421H247.836L250.086 427.59H249.726L251.956 421H252.666L250.306 428H249.526L247.376 421.75H247.576L245.416 428H244.646ZM255.188 428L258.388 421H259.118L262.318 428H261.538L258.598 421.43H258.898L255.958 428H255.188ZM256.448 426.13L256.668 425.53H260.738L260.958 426.13H256.448ZM265.976 428V421H268.596C269.189 421 269.699 421.097 270.126 421.29C270.553 421.477 270.879 421.75 271.106 422.11C271.339 422.463 271.456 422.893 271.456 423.4C271.456 423.893 271.339 424.32 271.106 424.68C270.879 425.033 270.553 425.307 270.126 425.5C269.699 425.687 269.189 425.78 268.596 425.78H266.386L266.716 425.44V428H265.976ZM270.756 428L268.956 425.46H269.756L271.566 428H270.756ZM266.716 425.5L266.386 425.15H268.576C269.276 425.15 269.806 424.997 270.166 424.69C270.533 424.383 270.716 423.953 270.716 423.4C270.716 422.84 270.533 422.407 270.166 422.1C269.806 421.793 269.276 421.64 268.576 421.64H266.386L266.716 421.29V425.5ZM275.703 428V421H276.313L281.143 427.08H280.823V421H281.553V428H280.943L276.123 421.92H276.443V428H275.703ZM286.337 428V421H287.077V428H286.337ZM291.855 428V421H292.465L297.295 427.08H296.975V421H297.705V428H297.095L292.275 421.92H292.595V428H291.855ZM305.56 428.06C305.026 428.06 304.533 427.973 304.08 427.8C303.633 427.62 303.243 427.37 302.91 427.05C302.583 426.73 302.326 426.353 302.14 425.92C301.96 425.487 301.87 425.013 301.87 424.5C301.87 423.987 301.96 423.513 302.14 423.08C302.326 422.647 302.586 422.27 302.92 421.95C303.253 421.63 303.643 421.383 304.09 421.21C304.543 421.03 305.036 420.94 305.57 420.94C306.103 420.94 306.59 421.023 307.03 421.19C307.476 421.357 307.856 421.61 308.17 421.95L307.71 422.42C307.416 422.127 307.093 421.917 306.74 421.79C306.386 421.663 306.006 421.6 305.6 421.6C305.166 421.6 304.766 421.673 304.4 421.82C304.04 421.96 303.723 422.163 303.45 422.43C303.183 422.69 302.973 422.997 302.82 423.35C302.673 423.697 302.6 424.08 302.6 424.5C302.6 424.913 302.673 425.297 302.82 425.65C302.973 426.003 303.183 426.313 303.45 426.58C303.723 426.84 304.04 427.043 304.4 427.19C304.766 427.33 305.163 427.4 305.59 427.4C305.99 427.4 306.366 427.34 306.72 427.22C307.08 427.1 307.41 426.897 307.71 426.61L308.13 427.17C307.796 427.463 307.406 427.687 306.96 427.84C306.513 427.987 306.046 428.06 305.56 428.06ZM307.42 427.08V424.5H308.13V427.17L307.42 427.08ZM319.431 428L317.071 421H317.831L320.041 427.59H319.661L321.941 421H322.621L324.871 427.59H324.511L326.741 421H327.451L325.091 428H324.311L322.161 421.75H322.361L320.201 428H319.431ZM329.973 428L333.173 421H333.903L337.103 428H336.323L333.383 421.43H333.683L330.743 428H329.973ZM331.233 426.13L331.453 425.53H335.523L335.743 426.13H331.233ZM340.761 428V421H343.381C343.974 421 344.484 421.097 344.911 421.29C345.338 421.477 345.664 421.75 345.891 422.11C346.124 422.463 346.241 422.893 346.241 423.4C346.241 423.893 346.124 424.32 345.891 424.68C345.664 425.033 345.338 425.307 344.911 425.5C344.484 425.687 343.974 425.78 343.381 425.78H341.171L341.501 425.44V428H340.761ZM345.541 428L343.741 425.46H344.541L346.351 428H345.541ZM341.501 425.5L341.171 425.15H343.361C344.061 425.15 344.591 424.997 344.951 424.69C345.318 424.383 345.501 423.953 345.501 423.4C345.501 422.84 345.318 422.407 344.951 422.1C344.591 421.793 344.061 421.64 343.361 421.64H341.171L341.501 421.29V425.5ZM350.488 428V421H351.098L355.928 427.08H355.608V421H356.338V428H355.728L350.908 421.92H351.228V428H350.488ZM361.122 428V421H361.862V428H361.122ZM366.64 428V421H367.25L372.08 427.08H371.76V421H372.49V428H371.88L367.06 421.92H367.38V428H366.64ZM380.345 428.06C379.811 428.06 379.318 427.973 378.865 427.8C378.418 427.62 378.028 427.37 377.695 427.05C377.368 426.73 377.111 426.353 376.925 425.92C376.745 425.487 376.655 425.013 376.655 424.5C376.655 423.987 376.745 423.513 376.925 423.08C377.111 422.647 377.371 422.27 377.705 421.95C378.038 421.63 378.428 421.383 378.875 421.21C379.328 421.03 379.821 420.94 380.355 420.94C380.888 420.94 381.375 421.023 381.815 421.19C382.261 421.357 382.641 421.61 382.955 421.95L382.495 422.42C382.201 422.127 381.878 421.917 381.525 421.79C381.171 421.663 380.791 421.6 380.385 421.6C379.951 421.6 379.551 421.673 379.185 421.82C378.825 421.96 378.508 422.163 378.235 422.43C377.968 422.69 377.758 422.997 377.605 423.35C377.458 423.697 377.385 424.08 377.385 424.5C377.385 424.913 377.458 425.297 377.605 425.65C377.758 426.003 377.968 426.313 378.235 426.58C378.508 426.84 378.825 427.043 379.185 427.19C379.551 427.33 379.948 427.4 380.375 427.4C380.775 427.4 381.151 427.34 381.505 427.22C381.865 427.1 382.195 426.897 382.495 426.61L382.915 427.17C382.581 427.463 382.191 427.687 381.745 427.84C381.298 427.987 380.831 428.06 380.345 428.06ZM382.205 427.08V424.5H382.915V427.17L382.205 427.08Z" fill="white"/>
</g>
<g id="MECH - BUTTONS">
<g id="Button" clip-path="url(#clip0_1_817)">
<g id="Warning_2" opacity="0.15">
<path d="M135 647.117L135 682.472L138.397 685H185.915L135 647.117Z" fill="#AF3931"/>
<path d="M284.176 685L236.658 685L135 609.361L135 574.006L284.176 685Z" fill="#AF3931"/>
<path d="M382.725 685H335.207L167.207 560L214.725 560L382.725 685Z" fill="#AF3931"/>
<path d="M415 635.689V671.045L265.756 560L313.274 560L415 635.689Z" fill="#AF3931"/>
<path d="M415 562.364V597.72L364.305 560L411.822 560L415 562.364Z" fill="#AF3931"/>
</g>
<g id="Pipe_Stroke">
<rect id="Stroke" x="126.5" y="589.5" width="297" height="67" stroke="#AF3931" stroke-opacity="0.7" stroke-width="3"/>
<path id="Pipe_TL" fill-rule="evenodd" clip-rule="evenodd" d="M124 587H166.5V592H129V609.5H124V587Z" fill="#AF3931"/>
<path id="Pipe_TR" fill-rule="evenodd" clip-rule="evenodd" d="M426 587H383.5V592H421V609.5H426V587Z" fill="#AF3931"/>
<path id="Pipe_DL" fill-rule="evenodd" clip-rule="evenodd" d="M124 659H166.5V654H129V636.5H124V659Z" fill="#AF3931"/>
<path id="Pipe_DR" fill-rule="evenodd" clip-rule="evenodd" d="M426 659H383.5V654H421V636.5H426V659Z" fill="#AF3931"/>
<rect id="Pipe_TM" x="225" y="587" width="100" height="5" fill="#AF3931"/>
<rect id="Pipe_DM" x="225" y="654" width="100" height="5" fill="#AF3931"/>
</g>
<g id="Text">
<path id="Vector_2" d="M236.167 631.667V615L227.833 623.333L236.167 631.667Z" fill="#AF3931"/>
<path id="Text_2" d="M259.258 615.248V617.96H254.794V632H251.434V617.96H246.97V615.248H259.258ZM265.069 617.96V622.16H270.709V624.824H265.069V629.264H271.429V632H261.709V615.224H271.429V617.96H265.069ZM284.515 632L280.891 626.36L277.603 632H273.811L279.091 623.552L273.739 615.248H277.603L281.227 620.864L284.491 615.248H288.283L283.027 623.672L288.379 632H284.515ZM302.336 615.248V617.96H297.872V632H294.512V617.96H290.048V615.248H302.336Z" fill="#AF3931"/>
<path id="Vector_3" d="M313.167 631.667V615L321.5 623.333L313.167 631.667Z" fill="#AF3931"/>
</g>
<g id="DETAILS">
<rect id="Rectangle 21" opacity="0.5" x="133" y="603" width="3" height="40" fill="#AF3931"/>
<rect id="Rectangle 23" opacity="0.5" x="417" y="643" width="3" height="40" transform="rotate(180 417 643)" fill="#AF3931"/>
<rect id="Rectangle 22" opacity="0.5" x="140" y="613" width="3" height="20" fill="#AF3931"/>
<rect id="Rectangle 25" opacity="0.5" x="207" y="622" width="2" height="60" transform="rotate(90 207 622)" fill="#AF3931"/>
<rect id="Rectangle 26" opacity="0.5" x="403" y="622" width="2" height="60" transform="rotate(90 403 622)" fill="#AF3931"/>
<rect id="Rectangle 24" opacity="0.5" x="410" y="633" width="3" height="20" transform="rotate(180 410 633)" fill="#AF3931"/>
</g>
</g>
<g id="Button_2" clip-path="url(#clip1_1_817)">
<g id="Subtract" opacity="0.05">
<path d="M132 812.941L132 799H161.991L236.484 855H187.949L132 812.941Z" fill="white"/>
<path d="M136.118 855L132 851.905V855H136.118Z" fill="white"/>
<path d="M418 855V840.111L363.312 799H314.777L389.27 855H418Z" fill="white"/>
<path d="M337.145 855L262.652 799H214.116L288.609 855H337.145Z" fill="white"/>
<path d="M418 800.927L415.437 799H418V800.927Z" fill="white"/>
</g>
<rect id="BG" x="132" y="799" width="286" height="56" fill="#AF3931" fill-opacity="0.3"/>
<g id="Selected">
<rect id="Selected_Left" x="118" y="858" width="3" height="5" fill="#AF3931"/>
<rect id="Selected_Right" x="429" y="791" width="3" height="5" fill="#AF3931"/>
</g>
<g id="Details">
<g id="Group 5">
<rect id="Rectangle 21_2" x="141" y="807" width="3" height="40" fill="white"/>
<rect id="Rectangle 22_2" x="148" y="817" width="3" height="20" fill="#AF3931"/>
</g>
<g id="Group 4">
<rect id="Rectangle 23_2" x="409" y="847" width="3" height="40" transform="rotate(180 409 847)" fill="white"/>
<rect id="Rectangle 24_2" x="402" y="837" width="3" height="20" transform="rotate(180 402 837)" fill="#AF3931"/>
</g>
</g>
<rect id="Top" opacity="0.5" x="137" y="791" width="276" height="5" fill="#AF3931"/>
<path id="Border_Left" d="M134 791V796H129L129 858H134V863H124V791H134Z" fill="#AF3931"/>
<rect id="Bottom" opacity="0.5" x="413" y="863" width="276" height="5" transform="rotate(180 413 863)" fill="#AF3931"/>
<path id="Border_Right" d="M416 863V858H421L421 796H416V791H426V863H416Z" fill="#AF3931"/>
<g id="Text_3">
<path id="Vector_4" d="M236.167 835.667V819L227.833 827.333L236.167 835.667Z" fill="#AF3931"/>
<path id="Text_4" d="M259.258 819.248V821.96H254.794V836H251.434V821.96H246.97V819.248H259.258ZM265.069 821.96V826.16H270.709V828.824H265.069V833.264H271.429V836H261.709V819.224H271.429V821.96H265.069ZM284.515 836L280.891 830.36L277.603 836H273.811L279.091 827.552L273.739 819.248H277.603L281.227 824.864L284.491 819.248H288.283L283.027 827.672L288.379 836H284.515ZM302.336 819.248V821.96H297.872V836H294.512V821.96H290.048V819.248H302.336Z" fill="white"/>
<path id="Vector_5" d="M313.167 835.667V819L321.5 827.333L313.167 835.667Z" fill="#AF3931"/>
</g>
</g>
<g id="Button_3">
<rect x="125.5" y="690.5" width="299" height="69" stroke="#AF3931" stroke-width="3"/>
<g id="Pipe_Stroke_2">
<path id="Pipe_TL_2" fill-rule="evenodd" clip-rule="evenodd" d="M135 700H174.404V703.472H139.636V715.625H135V700Z" fill="#AF3931"/>
<path id="Pipe_TR_2" fill-rule="evenodd" clip-rule="evenodd" d="M415 700H375.596V703.472H410.364V715.625H415V700Z" fill="#AF3931"/>
<path id="Pipe_DL_2" fill-rule="evenodd" clip-rule="evenodd" d="M135 750H174.404V746.528H139.636V734.375H135V750Z" fill="#AF3931"/>
<path id="Pipe_DR_2" fill-rule="evenodd" clip-rule="evenodd" d="M415 750H375.596V746.528H410.364V734.375H415V750Z" fill="#AF3931"/>
<rect id="Pipe_TM_2" x="228.642" y="700" width="92.7152" height="3.47222" fill="#AF3931"/>
<rect id="Pipe_DM_2" x="228.642" y="746.528" width="92.7152" height="3.47222" fill="#AF3931"/>
</g>
<g id="Text_5">
<path id="Vector_6" d="M236.167 733.667V717L227.833 725.333L236.167 733.667Z" fill="#AF3931"/>
<path id="Text_6" d="M259.258 717.248V719.96H254.794V734H251.434V719.96H246.97V717.248H259.258ZM265.069 719.96V724.16H270.709V726.824H265.069V731.264H271.429V734H261.709V717.224H271.429V719.96H265.069ZM284.515 734L280.891 728.36L277.603 734H273.811L279.091 725.552L273.739 717.248H277.603L281.227 722.864L284.491 717.248H288.283L283.027 725.672L288.379 734H284.515ZM302.336 717.248V719.96H297.872V734H294.512V719.96H290.048V717.248H302.336Z" fill="#AF3931"/>
<path id="Vector_7" d="M313.167 733.667V717L321.5 725.333L313.167 733.667Z" fill="#AF3931"/>
</g>
<g id="DETAILS_2">
<rect id="Rectangle 25_2" opacity="0.5" x="225" y="724" width="2" height="60" transform="rotate(90 225 724)" fill="white"/>
<rect id="Rectangle 26_2" opacity="0.5" x="385" y="724" width="2" height="60" transform="rotate(90 385 724)" fill="white"/>
<rect id="Rectangle 22_3" opacity="0.5" x="157" y="715" width="3" height="20" fill="white"/>
<rect id="Rectangle 27" opacity="0.5" x="149" y="720" width="3" height="10" fill="white"/>
<rect id="Rectangle 28" opacity="0.5" x="398" y="720" width="3" height="10" fill="white"/>
<rect id="Rectangle 24_3" opacity="0.5" x="393" y="735" width="3" height="20" transform="rotate(180 393 735)" fill="white"/>
<rect id="Rectangle 21_3" x="126" y="705" width="3" height="40" fill="#AF3931"/>
<rect id="Rectangle 23_3" x="424" y="745" width="3" height="40" transform="rotate(180 424 745)" fill="#AF3931"/>
<rect id="Rectangle 29" opacity="0.5" x="127" y="753" width="5" height="5" fill="#AF3931"/>
<rect id="Rectangle 31" opacity="0.5" x="423" y="697" width="5" height="5" transform="rotate(180 423 697)" fill="#AF3931"/>
<rect id="Rectangle 30" opacity="0.5" x="132" y="756" width="25" height="2" fill="#AF3931"/>
<rect id="Rectangle 32" opacity="0.5" x="418" y="694" width="25" height="2" transform="rotate(180 418 694)" fill="#AF3931"/>
</g>
</g>
</g>
<g id="MECH - DANGER">
<g id="DANGER">
<g id="Warning_3" opacity="0.2">
<path d="M870 236.795V181.923L866.093 178L811.448 178L870 236.795Z" fill="#98231B"/>
<path d="M698.447 178L753.092 178L870 295.392V350.263L698.447 178Z" fill="#98231B"/>
<path d="M585.116 178L639.761 178L832.961 372L778.316 372L585.116 178Z" fill="#98231B"/>
<path d="M548 254.53L548 199.659L719.63 372H664.985L548 254.53Z" fill="#98231B"/>
<path d="M548 368.331L548 313.459L606.299 372H551.654L548 368.331Z" fill="#98231B"/>
</g>
<path id="Vector_8" d="M712.8 291.316V285.607C712.8 285.327 712.705 285.091 712.514 284.901C712.324 284.711 712.099 284.615 711.838 284.615H706.069C705.809 284.615 705.583 284.711 705.393 284.901C705.203 285.091 705.107 285.327 705.107 285.607V291.316C705.107 291.597 705.203 291.832 705.393 292.022C705.583 292.213 705.809 292.308 706.069 292.308H711.838C712.099 292.308 712.324 292.213 712.514 292.022C712.705 291.832 712.8 291.597 712.8 291.316ZM712.74 280.078L713.28 266.286C713.28 266.046 713.18 265.855 712.98 265.715C712.72 265.495 712.479 265.385 712.259 265.385H705.648C705.428 265.385 705.188 265.495 704.927 265.715C704.727 265.855 704.627 266.066 704.627 266.346L705.137 280.078C705.137 280.278 705.238 280.444 705.438 280.574C705.638 280.704 705.879 280.769 706.159 280.769H711.718C711.998 280.769 712.234 280.704 712.424 280.574C712.614 280.444 712.72 280.278 712.74 280.078ZM712.319 252.013L735.396 294.321C736.097 295.583 736.077 296.845 735.336 298.107C734.995 298.688 734.529 299.149 733.939 299.489C733.348 299.83 732.712 300 732.03 300H685.877C685.196 300 684.56 299.83 683.969 299.489C683.378 299.149 682.912 298.688 682.571 298.107C681.83 296.845 681.81 295.583 682.511 294.321L705.588 252.013C705.929 251.392 706.399 250.901 707 250.541C707.601 250.18 708.252 250 708.954 250C709.655 250 710.306 250.18 710.907 250.541C711.508 250.901 711.978 251.392 712.319 252.013Z" fill="#98231B" fill-opacity="0.9"/>
<path id="Union" fill-rule="evenodd" clip-rule="evenodd" d="M812.308 213.846L826.154 200H859.846V232.769L851.077 241.538V308.462L859.846 317.231V350H826.154L812.308 336.154H605.538L591.692 350H558V317.231L566.769 308.462V241.538L558 232.769V200H591.692L605.538 213.846H812.308ZM605.538 232.769V317.231H812.308V232.769H605.538Z" fill="#AF3931"/>
<path id="Vector 176" d="M860 244.441L870 235V315L860 305.559V244.441Z" fill="white" fill-opacity="0.3"/>
<path id="Vector 178" d="M611.168 345L599 355H819L806.832 345H611.168Z" fill="white" fill-opacity="0.3"/>
<g id="Timer">
<path id="[00:00:12]" d="M676.197 208.94V199.58H678.027V200.17H676.907V208.35H678.027V208.94H676.197ZM684.05 207.06C683.51 207.06 683.03 206.92 682.61 206.64C682.19 206.353 681.86 205.947 681.62 205.42C681.38 204.887 681.26 204.247 681.26 203.5C681.26 202.753 681.38 202.117 681.62 201.59C681.86 201.057 682.19 200.65 682.61 200.37C683.03 200.083 683.51 199.94 684.05 199.94C684.59 199.94 685.07 200.083 685.49 200.37C685.91 200.65 686.24 201.057 686.48 201.59C686.727 202.117 686.85 202.753 686.85 203.5C686.85 204.247 686.727 204.887 686.48 205.42C686.24 205.947 685.91 206.353 685.49 206.64C685.07 206.92 684.59 207.06 684.05 207.06ZM684.05 206.4C684.464 206.4 684.824 206.29 685.13 206.07C685.437 205.843 685.677 205.517 685.85 205.09C686.024 204.657 686.11 204.127 686.11 203.5C686.11 202.873 686.024 202.347 685.85 201.92C685.677 201.487 685.437 201.16 685.13 200.94C684.824 200.713 684.464 200.6 684.05 200.6C683.65 200.6 683.294 200.713 682.98 200.94C682.667 201.16 682.424 201.487 682.25 201.92C682.077 202.347 681.99 202.873 681.99 203.5C681.99 204.127 682.077 204.657 682.25 205.09C682.424 205.517 682.667 205.843 682.98 206.07C683.294 206.29 683.65 206.4 684.05 206.4ZM693.171 207.06C692.631 207.06 692.151 206.92 691.731 206.64C691.311 206.353 690.981 205.947 690.741 205.42C690.501 204.887 690.381 204.247 690.381 203.5C690.381 202.753 690.501 202.117 690.741 201.59C690.981 201.057 691.311 200.65 691.731 200.37C692.151 200.083 692.631 199.94 693.171 199.94C693.711 199.94 694.191 200.083 694.611 200.37C695.031 200.65 695.361 201.057 695.601 201.59C695.848 202.117 695.971 202.753 695.971 203.5C695.971 204.247 695.848 204.887 695.601 205.42C695.361 205.947 695.031 206.353 694.611 206.64C694.191 206.92 693.711 207.06 693.171 207.06ZM693.171 206.4C693.585 206.4 693.945 206.29 694.251 206.07C694.558 205.843 694.798 205.517 694.971 205.09C695.145 204.657 695.231 204.127 695.231 203.5C695.231 202.873 695.145 202.347 694.971 201.92C694.798 201.487 694.558 201.16 694.251 200.94C693.945 200.713 693.585 200.6 693.171 200.6C692.771 200.6 692.415 200.713 692.101 200.94C691.788 201.16 691.545 201.487 691.371 201.92C691.198 202.347 691.111 202.873 691.111 203.5C691.111 204.127 691.198 204.657 691.371 205.09C691.545 205.517 691.788 205.843 692.101 206.07C692.415 206.29 692.771 206.4 693.171 206.4ZM700.042 202.79C699.896 202.79 699.769 202.737 699.662 202.63C699.562 202.523 699.512 202.393 699.512 202.24C699.512 202.08 699.562 201.95 699.662 201.85C699.769 201.75 699.896 201.7 700.042 201.7C700.189 201.7 700.312 201.75 700.412 201.85C700.519 201.95 700.572 202.08 700.572 202.24C700.572 202.393 700.519 202.523 700.412 202.63C700.312 202.737 700.189 202.79 700.042 202.79ZM700.042 207.05C699.896 207.05 699.769 206.997 699.662 206.89C699.562 206.783 699.512 206.653 699.512 206.5C699.512 206.34 699.562 206.21 699.662 206.11C699.769 206.01 699.896 205.96 700.042 205.96C700.189 205.96 700.312 206.01 700.412 206.11C700.519 206.21 700.572 206.34 700.572 206.5C700.572 206.653 700.519 206.783 700.412 206.89C700.312 206.997 700.189 207.05 700.042 207.05ZM706.912 207.06C706.372 207.06 705.892 206.92 705.472 206.64C705.052 206.353 704.722 205.947 704.482 205.42C704.242 204.887 704.122 204.247 704.122 203.5C704.122 202.753 704.242 202.117 704.482 201.59C704.722 201.057 705.052 200.65 705.472 200.37C705.892 200.083 706.372 199.94 706.912 199.94C707.452 199.94 707.932 200.083 708.352 200.37C708.772 200.65 709.102 201.057 709.342 201.59C709.588 202.117 709.712 202.753 709.712 203.5C709.712 204.247 709.588 204.887 709.342 205.42C709.102 205.947 708.772 206.353 708.352 206.64C707.932 206.92 707.452 207.06 706.912 207.06ZM706.912 206.4C707.325 206.4 707.685 206.29 707.992 206.07C708.298 205.843 708.538 205.517 708.712 205.09C708.885 204.657 708.972 204.127 708.972 203.5C708.972 202.873 708.885 202.347 708.712 201.92C708.538 201.487 708.298 201.16 707.992 200.94C707.685 200.713 707.325 200.6 706.912 200.6C706.512 200.6 706.155 200.713 705.842 200.94C705.528 201.16 705.285 201.487 705.112 201.92C704.938 202.347 704.852 202.873 704.852 203.5C704.852 204.127 704.938 204.657 705.112 205.09C705.285 205.517 705.528 205.843 705.842 206.07C706.155 206.29 706.512 206.4 706.912 206.4ZM716.033 207.06C715.493 207.06 715.013 206.92 714.593 206.64C714.173 206.353 713.843 205.947 713.603 205.42C713.363 204.887 713.243 204.247 713.243 203.5C713.243 202.753 713.363 202.117 713.603 201.59C713.843 201.057 714.173 200.65 714.593 200.37C715.013 200.083 715.493 199.94 716.033 199.94C716.573 199.94 717.053 200.083 717.473 200.37C717.893 200.65 718.223 201.057 718.463 201.59C718.709 202.117 718.833 202.753 718.833 203.5C718.833 204.247 718.709 204.887 718.463 205.42C718.223 205.947 717.893 206.353 717.473 206.64C717.053 206.92 716.573 207.06 716.033 207.06ZM716.033 206.4C716.446 206.4 716.806 206.29 717.113 206.07C717.419 205.843 717.659 205.517 717.833 205.09C718.006 204.657 718.093 204.127 718.093 203.5C718.093 202.873 718.006 202.347 717.833 201.92C717.659 201.487 717.419 201.16 717.113 200.94C716.806 200.713 716.446 200.6 716.033 200.6C715.633 200.6 715.276 200.713 714.963 200.94C714.649 201.16 714.406 201.487 714.233 201.92C714.059 202.347 713.973 202.873 713.973 203.5C713.973 204.127 714.059 204.657 714.233 205.09C714.406 205.517 714.649 205.843 714.963 206.07C715.276 206.29 715.633 206.4 716.033 206.4ZM722.904 202.79C722.757 202.79 722.63 202.737 722.524 202.63C722.424 202.523 722.374 202.393 722.374 202.24C722.374 202.08 722.424 201.95 722.524 201.85C722.63 201.75 722.757 201.7 722.904 201.7C723.05 201.7 723.174 201.75 723.274 201.85C723.38 201.95 723.434 202.08 723.434 202.24C723.434 202.393 723.38 202.523 723.274 202.63C723.174 202.737 723.05 202.79 722.904 202.79ZM722.904 207.05C722.757 207.05 722.63 206.997 722.524 206.89C722.424 206.783 722.374 206.653 722.374 206.5C722.374 206.34 722.424 206.21 722.524 206.11C722.63 206.01 722.757 205.96 722.904 205.96C723.05 205.96 723.174 206.01 723.274 206.11C723.38 206.21 723.434 206.34 723.434 206.5C723.434 206.653 723.38 206.783 723.274 206.89C723.174 206.997 723.05 207.05 722.904 207.05ZM728.203 207V200.3L728.523 200.64H726.553V200H728.923V207H728.203ZM732.966 207V206.49L735.876 203.64C736.143 203.38 736.343 203.153 736.476 202.96C736.61 202.76 736.7 202.573 736.746 202.4C736.793 202.227 736.816 202.063 736.816 201.91C736.816 201.503 736.676 201.183 736.396 200.95C736.123 200.717 735.716 200.6 735.176 200.6C734.763 200.6 734.396 200.663 734.076 200.79C733.763 200.917 733.493 201.113 733.266 201.38L732.756 200.94C733.03 200.62 733.38 200.373 733.806 200.2C734.233 200.027 734.71 199.94 735.236 199.94C735.71 199.94 736.12 200.017 736.466 200.17C736.813 200.317 737.08 200.533 737.266 200.82C737.46 201.107 737.556 201.443 737.556 201.83C737.556 202.057 737.523 202.28 737.456 202.5C737.396 202.72 737.283 202.953 737.116 203.2C736.956 203.44 736.72 203.713 736.406 204.02L733.736 206.64L733.536 206.36H737.876V207H732.966ZM742.8 208.94H740.97V208.35H742.09V200.17H740.97V199.58H742.8V208.94Z" fill="white"/>
<path id="Polygon 20" d="M663 203.5L668.25 200.469L668.25 206.531L663 203.5Z" fill="white"/>
<path id="Polygon 21" d="M756 203.5L750.75 200.469L750.75 206.531L756 203.5Z" fill="white"/>
</g>
<g id="Error">
<path id="Vector_9" d="M584.216 238.499H585.015C585.054 238.499 585.087 238.487 585.114 238.462C585.141 238.438 585.154 238.408 585.154 238.375V237.625C585.154 237.592 585.141 237.562 585.114 237.538C585.087 237.513 585.054 237.501 585.015 237.501L584.216 237.501C584.176 237.501 584.144 237.513 584.117 237.538C584.09 237.562 584.077 237.592 584.077 237.625V238.375C584.077 238.408 584.09 238.438 584.117 238.462C584.144 238.487 584.176 238.499 584.216 238.499ZM585.789 238.492L587.72 238.562C587.754 238.562 587.78 238.549 587.8 238.523C587.831 238.489 587.846 238.458 587.846 238.429V237.571C587.846 237.542 587.831 237.511 587.8 237.477C587.78 237.451 587.751 237.438 587.712 237.438L585.789 237.504C585.761 237.504 585.738 237.517 585.72 237.543C585.701 237.569 585.692 237.601 585.692 237.637V238.359C585.692 238.395 585.701 238.426 585.72 238.451C585.738 238.475 585.761 238.489 585.789 238.492ZM589.718 238.437L583.795 241.434C583.618 241.525 583.442 241.522 583.265 241.426C583.184 241.382 583.119 241.321 583.072 241.244C583.024 241.168 583 241.085 583 240.997L583 235.003C583 234.915 583.024 234.832 583.072 234.756C583.119 234.679 583.184 234.618 583.265 234.574C583.442 234.478 583.618 234.475 583.795 234.566L589.718 237.563C589.805 237.607 589.874 237.668 589.924 237.746C589.975 237.824 590 237.909 590 238C590 238.091 589.975 238.176 589.924 238.254C589.874 238.332 589.805 238.393 589.718 238.437Z" fill="white" fill-opacity="0.5"/>
<path id="ERROR" d="M586.87 253.421L586.87 257.121L586.24 257.121L586.24 253.421L586.87 253.421ZM583.64 253.501L583.64 257.711L583 257.711L583 252.761L590 252.761L590 257.561L589.36 257.561L589.36 253.501L583.64 253.501ZM583 261.951L590 261.951L590 264.571C590 265.164 589.903 265.674 589.71 266.101C589.523 266.527 589.25 266.854 588.89 267.081C588.537 267.314 588.107 267.431 587.6 267.431C587.107 267.431 586.68 267.314 586.32 267.081C585.967 266.854 585.693 266.527 585.5 266.101C585.313 265.674 585.22 265.164 585.22 264.571L585.22 262.361L585.56 262.691L583 262.691L583 261.951ZM583 266.731L585.54 264.931L585.54 265.731L583 267.541L583 266.731ZM585.5 262.691L585.85 262.361L585.85 264.551C585.85 265.251 586.003 265.781 586.31 266.141C586.617 266.507 587.047 266.691 587.6 266.691C588.16 266.691 588.593 266.507 588.9 266.141C589.207 265.781 589.36 265.251 589.36 264.551L589.36 262.361L589.71 262.691L585.5 262.691ZM583 271.677L590 271.677L590 274.297C590 274.89 589.903 275.4 589.71 275.827C589.523 276.254 589.25 276.58 588.89 276.807C588.537 277.04 588.107 277.157 587.6 277.157C587.107 277.157 586.68 277.04 586.32 276.807C585.967 276.58 585.693 276.254 585.5 275.827C585.313 275.4 585.22 274.89 585.22 274.297L585.22 272.087L585.56 272.417L583 272.417L583 271.677ZM583 276.457L585.54 274.657L585.54 275.457L583 277.267L583 276.457ZM585.5 272.417L585.85 272.087L585.85 274.277C585.85 274.977 586.003 275.507 586.31 275.867C586.617 276.234 587.047 276.417 587.6 276.417C588.16 276.417 588.593 276.234 588.9 275.867C589.207 275.507 589.36 274.977 589.36 274.277L589.36 272.087L589.71 272.417L585.5 272.417ZM582.94 284.464C582.94 283.937 583.027 283.447 583.2 282.994C583.38 282.547 583.63 282.157 583.95 281.824C584.277 281.497 584.653 281.24 585.08 281.054C585.513 280.874 585.987 280.784 586.5 280.784C587.013 280.784 587.483 280.874 587.91 281.054C588.343 281.24 588.72 281.497 589.04 281.824C589.367 282.157 589.617 282.547 589.79 282.994C589.97 283.44 590.06 283.93 590.06 284.464C590.06 284.99 589.97 285.477 589.79 285.924C589.617 286.37 589.37 286.757 589.05 287.084C588.73 287.417 588.353 287.674 587.92 287.854C587.487 288.04 587.013 288.134 586.5 288.134C585.987 288.134 585.513 288.04 585.08 287.854C584.647 287.674 584.27 287.417 583.95 287.084C583.63 286.757 583.38 286.37 583.2 285.924C583.027 285.477 582.94 284.99 582.94 284.464ZM583.6 284.464C583.6 284.884 583.67 285.27 583.81 285.624C583.957 285.984 584.16 286.294 584.42 286.554C584.687 286.82 584.993 287.027 585.34 287.174C585.693 287.32 586.08 287.394 586.5 287.394C586.92 287.394 587.303 287.32 587.65 287.174C588.003 287.027 588.31 286.82 588.57 286.554C588.837 286.294 589.04 285.984 589.18 285.624C589.327 285.27 589.4 284.884 589.4 284.464C589.4 284.044 589.327 283.654 589.18 283.294C589.04 282.934 588.837 282.62 588.57 282.354C588.31 282.094 588.003 281.887 587.65 281.734C587.303 281.587 586.92 281.514 586.5 281.514C586.087 281.514 585.703 281.587 585.35 281.734C584.997 281.887 584.687 282.094 584.42 282.354C584.16 282.62 583.957 282.934 583.81 283.294C583.67 283.654 583.6 284.044 583.6 284.464ZM583 292.292L590 292.292L590 294.912C590 295.506 589.903 296.016 589.71 296.442C589.523 296.869 589.25 297.196 588.89 297.422C588.537 297.656 588.107 297.772 587.6 297.772C587.107 297.772 586.68 297.656 586.32 297.422C585.967 297.196 585.693 296.869 585.5 296.442C585.313 296.016 585.22 295.506 585.22 294.912L585.22 292.702L585.56 293.032L583 293.032L583 292.292ZM583 297.072L585.54 295.272L585.54 296.072L583 297.882L583 297.072ZM585.5 293.032L585.85 292.702L585.85 294.892C585.85 295.592 586.003 296.122 586.31 296.482C586.617 296.849 587.047 297.032 587.6 297.032C588.16 297.032 588.593 296.849 588.9 296.482C589.207 296.122 589.36 295.592 589.36 294.892L589.36 292.702L589.71 293.032L585.5 293.032Z" fill="white" fill-opacity="0.5"/>
<path id="Vector_10" d="M584.216 312.499H585.015C585.054 312.499 585.087 312.487 585.114 312.462C585.141 312.438 585.154 312.408 585.154 312.375V311.625C585.154 311.592 585.141 311.562 585.114 311.538C585.087 311.513 585.054 311.501 585.015 311.501L584.216 311.501C584.176 311.501 584.144 311.513 584.117 311.538C584.09 311.562 584.077 311.592 584.077 311.625V312.375C584.077 312.408 584.09 312.438 584.117 312.462C584.144 312.487 584.176 312.499 584.216 312.499ZM585.789 312.492L587.72 312.562C587.754 312.562 587.78 312.549 587.8 312.523C587.831 312.489 587.846 312.458 587.846 312.429V311.571C587.846 311.542 587.831 311.511 587.8 311.477C587.78 311.451 587.751 311.438 587.712 311.438L585.789 311.504C585.761 311.504 585.738 311.517 585.72 311.543C585.701 311.569 585.692 311.601 585.692 311.637V312.359C585.692 312.395 585.701 312.426 585.72 312.451C585.738 312.475 585.761 312.489 585.789 312.492ZM589.718 312.437L583.795 315.434C583.618 315.525 583.442 315.522 583.265 315.426C583.184 315.382 583.119 315.321 583.072 315.244C583.024 315.168 583 315.085 583 314.997L583 309.003C583 308.915 583.024 308.832 583.072 308.756C583.119 308.679 583.184 308.618 583.265 308.574C583.442 308.478 583.618 308.475 583.795 308.566L589.718 311.563C589.805 311.607 589.874 311.668 589.924 311.746C589.975 311.824 590 311.909 590 312C590 312.091 589.975 312.176 589.924 312.254C589.874 312.332 589.805 312.393 589.718 312.437Z" fill="white" fill-opacity="0.5"/>
</g>
<path id="[DANGER]" d="M628.676 287.656V265.192H633.692V267.088H630.98V285.76H633.692V287.656H628.676ZM642.668 283V266.2H649.748C651.54 266.2 653.116 266.552 654.476 267.256C655.852 267.96 656.916 268.944 657.668 270.208C658.436 271.472 658.82 272.936 658.82 274.6C658.82 276.264 658.436 277.728 657.668 278.992C656.916 280.256 655.852 281.24 654.476 281.944C653.116 282.648 651.54 283 649.748 283H642.668ZM645.068 280.912H649.604C650.996 280.912 652.196 280.648 653.204 280.12C654.228 279.592 655.02 278.856 655.58 277.912C656.14 276.952 656.42 275.848 656.42 274.6C656.42 273.336 656.14 272.232 655.58 271.288C655.02 270.344 654.228 269.608 653.204 269.08C652.196 268.552 650.996 268.288 649.604 268.288H645.068V280.912ZM665.718 283L673.326 266.2H675.702L683.334 283H680.814L674.022 267.544H674.982L668.19 283H665.718ZM668.958 278.8L669.606 276.88H679.062L679.758 278.8H668.958ZM691.84 283V266.2H693.808L704.92 280H703.888V266.2H706.288V283H704.32L693.208 269.2H694.24V283H691.84ZM724.901 283.192C723.605 283.192 722.413 282.984 721.325 282.568C720.237 282.136 719.293 281.536 718.493 280.768C717.693 279.984 717.069 279.072 716.621 278.032C716.173 276.992 715.949 275.848 715.949 274.6C715.949 273.352 716.173 272.208 716.621 271.168C717.069 270.128 717.693 269.224 718.493 268.456C719.309 267.672 720.261 267.072 721.349 266.656C722.437 266.224 723.637 266.008 724.949 266.008C726.277 266.008 727.493 266.224 728.597 266.656C729.701 267.088 730.637 267.736 731.405 268.6L729.917 270.088C729.229 269.416 728.477 268.928 727.661 268.624C726.861 268.304 725.989 268.144 725.045 268.144C724.085 268.144 723.189 268.304 722.357 268.624C721.541 268.944 720.829 269.392 720.221 269.968C719.629 270.544 719.165 271.232 718.829 272.032C718.509 272.816 718.349 273.672 718.349 274.6C718.349 275.512 718.509 276.368 718.829 277.168C719.165 277.952 719.629 278.64 720.221 279.232C720.829 279.808 721.541 280.256 722.357 280.576C723.173 280.896 724.061 281.056 725.021 281.056C725.917 281.056 726.773 280.92 727.589 280.648C728.421 280.36 729.189 279.888 729.893 279.232L731.261 281.056C730.429 281.76 729.453 282.296 728.333 282.664C727.229 283.016 726.085 283.192 724.901 283.192ZM728.957 280.744V274.504H731.261V281.056L728.957 280.744ZM744.04 273.448H752.68V275.488H744.04V273.448ZM744.256 280.912H754.048V283H741.856V266.2H753.712V268.288H744.256V280.912ZM763.934 283V266.2H770.486C771.958 266.2 773.214 266.432 774.254 266.896C775.294 267.36 776.094 268.032 776.654 268.912C777.214 269.792 777.494 270.84 777.494 272.056C777.494 273.272 777.214 274.32 776.654 275.2C776.094 276.064 775.294 276.728 774.254 277.192C773.214 277.656 771.958 277.888 770.486 277.888H765.254L766.334 276.784V283H763.934ZM775.166 283L770.894 276.904H773.462L777.782 283H775.166ZM766.334 277.024L765.254 275.848H770.414C771.95 275.848 773.11 275.52 773.894 274.864C774.694 274.192 775.094 273.256 775.094 272.056C775.094 270.856 774.694 269.928 773.894 269.272C773.11 268.616 771.95 268.288 770.414 268.288H765.254L766.334 267.088V277.024ZM790.324 287.656H785.308V285.76H788.02V267.088H785.308V265.192H790.324V287.656Z" fill="white"/>
<g id="Vector_11">
<path d="M822.213 155L825.749 158.536L804.536 179.749L801 176.213L822.213 155Z" fill="white"/>
<path d="M856.962 155L860.498 158.536L839.285 179.749L835.749 176.213L856.962 155Z" fill="#AF3931"/>
</g>
<g id="Vector_12">
<path d="M579.213 394.749L582.749 391.213L561.536 370L558 373.536L579.213 394.749Z" fill="white"/>
<path d="M613.962 394.749L617.498 391.213L596.285 370L592.749 373.536L613.962 394.749Z" fill="#AF3931"/>
</g>
<path id="Vector 177" d="M558 244.441L548 235V315L558 305.559V244.441Z" fill="white" fill-opacity="0.3"/>
</g>
</g>
<g id="MECH - ELEMENTS">
<g id="Elements 1">
<g id="Element">
<rect x="675.333" y="593" width="68" height="68" stroke="#AF3931" stroke-width="2"/>
<path id="-03" d="M685.842 648.408V646.416H692.298V648.408H685.842ZM707.841 654.192C706.529 654.192 705.353 653.856 704.313 653.184C703.289 652.512 702.473 651.536 701.865 650.256C701.273 648.976 700.977 647.424 700.977 645.6C700.977 643.776 701.273 642.224 701.865 640.944C702.473 639.664 703.289 638.688 704.313 638.016C705.353 637.344 706.529 637.008 707.841 637.008C709.137 637.008 710.305 637.344 711.345 638.016C712.385 638.688 713.201 639.664 713.793 640.944C714.385 642.224 714.681 643.776 714.681 645.6C714.681 647.424 714.385 648.976 713.793 650.256C713.201 651.536 712.385 652.512 711.345 653.184C710.305 653.856 709.137 654.192 707.841 654.192ZM707.841 652.056C708.721 652.056 709.489 651.816 710.145 651.336C710.817 650.856 711.337 650.136 711.705 649.176C712.089 648.216 712.281 647.024 712.281 645.6C712.281 644.176 712.089 642.984 711.705 642.024C711.337 641.064 710.817 640.344 710.145 639.864C709.489 639.384 708.721 639.144 707.841 639.144C706.961 639.144 706.185 639.384 705.513 639.864C704.841 640.344 704.313 641.064 703.929 642.024C703.561 642.984 703.377 644.176 703.377 645.6C703.377 647.024 703.561 648.216 703.929 649.176C704.313 650.136 704.841 650.856 705.513 651.336C706.185 651.816 706.961 652.056 707.841 652.056ZM727.887 654.192C726.703 654.192 725.551 654.008 724.431 653.64C723.327 653.272 722.423 652.776 721.719 652.152L722.823 650.256C723.383 650.784 724.111 651.216 725.007 651.552C725.903 651.888 726.863 652.056 727.887 652.056C729.135 652.056 730.103 651.792 730.791 651.264C731.495 650.72 731.847 649.992 731.847 649.08C731.847 648.2 731.511 647.496 730.839 646.968C730.183 646.424 729.135 646.152 727.695 646.152H726.351V644.472L731.343 638.328L731.679 639.288H722.487V637.2H733.575V638.832L728.607 644.952L727.359 644.208H728.151C730.183 644.208 731.703 644.664 732.711 645.576C733.735 646.488 734.247 647.648 734.247 649.056C734.247 650 734.015 650.864 733.551 651.648C733.087 652.432 732.383 653.056 731.439 653.52C730.511 653.968 729.327 654.192 727.887 654.192Z" fill="white"/>
</g>
<g id="Element_2">
<rect x="595.333" y="593" width="68" height="68" fill="#AF3931"/>
<rect x="595.333" y="593" width="68" height="68" stroke="#AF3931" stroke-width="2"/>
<path id="-03_2" d="M605.842 648.408V646.416H612.298V648.408H605.842ZM627.841 654.192C626.529 654.192 625.353 653.856 624.313 653.184C623.289 652.512 622.473 651.536 621.865 650.256C621.273 648.976 620.977 647.424 620.977 645.6C620.977 643.776 621.273 642.224 621.865 640.944C622.473 639.664 623.289 638.688 624.313 638.016C625.353 637.344 626.529 637.008 627.841 637.008C629.137 637.008 630.305 637.344 631.345 638.016C632.385 638.688 633.201 639.664 633.793 640.944C634.385 642.224 634.681 643.776 634.681 645.6C634.681 647.424 634.385 648.976 633.793 650.256C633.201 651.536 632.385 652.512 631.345 653.184C630.305 653.856 629.137 654.192 627.841 654.192ZM627.841 652.056C628.721 652.056 629.489 651.816 630.145 651.336C630.817 650.856 631.337 650.136 631.705 649.176C632.089 648.216 632.281 647.024 632.281 645.6C632.281 644.176 632.089 642.984 631.705 642.024C631.337 641.064 630.817 640.344 630.145 639.864C629.489 639.384 628.721 639.144 627.841 639.144C626.961 639.144 626.185 639.384 625.513 639.864C624.841 640.344 624.313 641.064 623.929 642.024C623.561 642.984 623.377 644.176 623.377 645.6C623.377 647.024 623.561 648.216 623.929 649.176C624.313 650.136 624.841 650.856 625.513 651.336C626.185 651.816 626.961 652.056 627.841 652.056ZM647.887 654.192C646.703 654.192 645.551 654.008 644.431 653.64C643.327 653.272 642.423 652.776 641.719 652.152L642.823 650.256C643.383 650.784 644.111 651.216 645.007 651.552C645.903 651.888 646.863 652.056 647.887 652.056C649.135 652.056 650.103 651.792 650.791 651.264C651.495 650.72 651.847 649.992 651.847 649.08C651.847 648.2 651.511 647.496 650.839 646.968C650.183 646.424 649.135 646.152 647.695 646.152H646.351V644.472L651.343 638.328L651.679 639.288H642.487V637.2H653.575V638.832L648.607 644.952L647.359 644.208H648.151C650.183 644.208 651.703 644.664 652.711 645.576C653.735 646.488 654.247 647.648 654.247 649.056C654.247 650 654.015 650.864 653.551 651.648C653.087 652.432 652.383 653.056 651.439 653.52C650.511 653.968 649.327 654.192 647.887 654.192Z" fill="white"/>
</g>
<g id="Element_3">
<rect x="755.333" y="593" width="68" height="68" fill="#AF3931"/>
<rect x="755.333" y="593" width="68" height="68" stroke="#AF3931" stroke-width="2"/>
<path id="-03_3" d="M765.842 648.408V646.416H772.298V648.408H765.842ZM787.841 654.192C786.529 654.192 785.353 653.856 784.313 653.184C783.289 652.512 782.473 651.536 781.865 650.256C781.273 648.976 780.977 647.424 780.977 645.6C780.977 643.776 781.273 642.224 781.865 640.944C782.473 639.664 783.289 638.688 784.313 638.016C785.353 637.344 786.529 637.008 787.841 637.008C789.137 637.008 790.305 637.344 791.345 638.016C792.385 638.688 793.201 639.664 793.793 640.944C794.385 642.224 794.681 643.776 794.681 645.6C794.681 647.424 794.385 648.976 793.793 650.256C793.201 651.536 792.385 652.512 791.345 653.184C790.305 653.856 789.137 654.192 787.841 654.192ZM787.841 652.056C788.721 652.056 789.489 651.816 790.145 651.336C790.817 650.856 791.337 650.136 791.705 649.176C792.089 648.216 792.281 647.024 792.281 645.6C792.281 644.176 792.089 642.984 791.705 642.024C791.337 641.064 790.817 640.344 790.145 639.864C789.489 639.384 788.721 639.144 787.841 639.144C786.961 639.144 786.185 639.384 785.513 639.864C784.841 640.344 784.313 641.064 783.929 642.024C783.561 642.984 783.377 644.176 783.377 645.6C783.377 647.024 783.561 648.216 783.929 649.176C784.313 650.136 784.841 650.856 785.513 651.336C786.185 651.816 786.961 652.056 787.841 652.056ZM807.887 654.192C806.703 654.192 805.551 654.008 804.431 653.64C803.327 653.272 802.423 652.776 801.719 652.152L802.823 650.256C803.383 650.784 804.111 651.216 805.007 651.552C805.903 651.888 806.863 652.056 807.887 652.056C809.135 652.056 810.103 651.792 810.791 651.264C811.495 650.72 811.847 649.992 811.847 649.08C811.847 648.2 811.511 647.496 810.839 646.968C810.183 646.424 809.135 646.152 807.695 646.152H806.351V644.472L811.343 638.328L811.679 639.288H802.487V637.2H813.575V638.832L808.607 644.952L807.359 644.208H808.151C810.183 644.208 811.703 644.664 812.711 645.576C813.735 646.488 814.247 647.648 814.247 649.056C814.247 650 814.015 650.864 813.551 651.648C813.087 652.432 812.383 653.056 811.439 653.52C810.511 653.968 809.327 654.192 807.887 654.192Z" fill="white"/>
</g>
<path id="Vector_13" d="M834.333 635.667V619L842.667 627.333L834.333 635.667Z" fill="white"/>
<path id="Vector_14" d="M584.333 619.333V636L576 627.667L584.333 619.333Z" fill="white"/>
</g>
<g id="Frame 101">
<path id="Vector_15" d="M576 717L591 702V717H576Z" fill="#AF3931"/>
<path id="[DMR]" d="M602.68 720.104V705.128H606.024V706.392H604.216V718.84H606.024V720.104H602.68ZM612.008 717V705.8H616.728C617.923 705.8 618.973 706.035 619.88 706.504C620.797 706.973 621.507 707.629 622.008 708.472C622.52 709.315 622.776 710.291 622.776 711.4C622.776 712.509 622.52 713.485 622.008 714.328C621.507 715.171 620.797 715.827 619.88 716.296C618.973 716.765 617.923 717 616.728 717H612.008ZM613.608 715.608H616.632C617.56 715.608 618.36 715.432 619.032 715.08C619.715 714.728 620.243 714.237 620.616 713.608C620.989 712.968 621.176 712.232 621.176 711.4C621.176 710.557 620.989 709.821 620.616 709.192C620.243 708.563 619.715 708.072 619.032 707.72C618.36 707.368 617.56 707.192 616.632 707.192H613.608V715.608ZM629.227 717V705.8H630.539L635.563 714.264H634.859L639.819 705.8H641.131L641.147 717H639.611L639.595 708.216H639.963L635.547 715.64H634.811L630.363 708.216H630.763V717H629.227ZM648.508 717V705.8H652.876C653.857 705.8 654.695 705.955 655.388 706.264C656.081 706.573 656.615 707.021 656.988 707.608C657.361 708.195 657.548 708.893 657.548 709.704C657.548 710.515 657.361 711.213 656.988 711.8C656.615 712.376 656.081 712.819 655.388 713.128C654.695 713.437 653.857 713.592 652.876 713.592H649.388L650.108 712.856V717H648.508ZM655.996 717L653.148 712.936H654.86L657.74 717H655.996ZM650.108 713.016L649.388 712.232H652.828C653.852 712.232 654.625 712.013 655.148 711.576C655.681 711.128 655.948 710.504 655.948 709.704C655.948 708.904 655.681 708.285 655.148 707.848C654.625 707.411 653.852 707.192 652.828 707.192H649.388L650.108 706.392V713.016ZM666.101 720.104H662.757V718.84H664.565V706.392H662.757V705.128H666.101V720.104Z" fill="white"/>
<path id=":ODST" d="M679.824 710.632C679.525 710.632 679.269 710.531 679.056 710.328C678.843 710.115 678.736 709.848 678.736 709.528C678.736 709.208 678.843 708.947 679.056 708.744C679.269 708.541 679.525 708.44 679.824 708.44C680.112 708.44 680.357 708.541 680.56 708.744C680.773 708.947 680.88 709.208 680.88 709.528C680.88 709.848 680.773 710.115 680.56 710.328C680.357 710.531 680.112 710.632 679.824 710.632ZM679.824 717.096C679.525 717.096 679.269 716.995 679.056 716.792C678.843 716.579 678.736 716.312 678.736 715.992C678.736 715.672 678.843 715.411 679.056 715.208C679.269 715.005 679.525 714.904 679.824 714.904C680.112 714.904 680.357 715.005 680.56 715.208C680.773 715.411 680.88 715.672 680.88 715.992C680.88 716.312 680.773 716.579 680.56 716.792C680.357 716.995 680.112 717.096 679.824 717.096ZM692.361 717.128C691.508 717.128 690.713 716.984 689.977 716.696C689.252 716.408 688.622 716.008 688.089 715.496C687.556 714.973 687.14 714.365 686.841 713.672C686.542 712.979 686.393 712.221 686.393 711.4C686.393 710.579 686.542 709.821 686.841 709.128C687.14 708.435 687.556 707.832 688.089 707.32C688.622 706.797 689.252 706.392 689.977 706.104C690.702 705.816 691.497 705.672 692.361 705.672C693.214 705.672 693.998 705.816 694.713 706.104C695.438 706.381 696.068 706.781 696.601 707.304C697.145 707.816 697.561 708.419 697.849 709.112C698.148 709.805 698.297 710.568 698.297 711.4C698.297 712.232 698.148 712.995 697.849 713.688C697.561 714.381 697.145 714.989 696.601 715.512C696.068 716.024 695.438 716.424 694.713 716.712C693.998 716.989 693.214 717.128 692.361 717.128ZM692.361 715.704C692.98 715.704 693.55 715.597 694.073 715.384C694.606 715.171 695.065 714.872 695.449 714.488C695.844 714.093 696.148 713.635 696.361 713.112C696.585 712.589 696.697 712.019 696.697 711.4C696.697 710.781 696.585 710.211 696.361 709.688C696.148 709.165 695.844 708.712 695.449 708.328C695.065 707.933 694.606 707.629 694.073 707.416C693.55 707.203 692.98 707.096 692.361 707.096C691.732 707.096 691.15 707.203 690.617 707.416C690.094 707.629 689.636 707.933 689.241 708.328C688.846 708.712 688.537 709.165 688.313 709.688C688.1 710.211 687.993 710.781 687.993 711.4C687.993 712.019 688.1 712.589 688.313 713.112C688.537 713.635 688.846 714.093 689.241 714.488C689.636 714.872 690.094 715.171 690.617 715.384C691.15 715.597 691.732 715.704 692.361 715.704ZM704.743 717V705.8H709.463C710.657 705.8 711.708 706.035 712.615 706.504C713.532 706.973 714.241 707.629 714.743 708.472C715.255 709.315 715.511 710.291 715.511 711.4C715.511 712.509 715.255 713.485 714.743 714.328C714.241 715.171 713.532 715.827 712.615 716.296C711.708 716.765 710.657 717 709.463 717H704.743ZM706.343 715.608H709.367C710.295 715.608 711.095 715.432 711.767 715.08C712.449 714.728 712.977 714.237 713.351 713.608C713.724 712.968 713.911 712.232 713.911 711.4C713.911 710.557 713.724 709.821 713.351 709.192C712.977 708.563 712.449 708.072 711.767 707.72C711.095 707.368 710.295 707.192 709.367 707.192H706.343V715.608ZM725.225 717.128C724.372 717.128 723.556 717 722.777 716.744C721.999 716.477 721.385 716.136 720.937 715.72L721.529 714.472C721.956 714.845 722.5 715.155 723.161 715.4C723.823 715.645 724.511 715.768 725.225 715.768C725.876 715.768 726.404 715.693 726.809 715.544C727.215 715.395 727.513 715.192 727.705 714.936C727.897 714.669 727.993 714.371 727.993 714.04C727.993 713.656 727.865 713.347 727.609 713.112C727.364 712.877 727.039 712.691 726.633 712.552C726.239 712.403 725.801 712.275 725.321 712.168C724.841 712.061 724.356 711.939 723.865 711.8C723.385 711.651 722.943 711.464 722.537 711.24C722.143 711.016 721.823 710.717 721.577 710.344C721.332 709.96 721.209 709.469 721.209 708.872C721.209 708.296 721.359 707.768 721.657 707.288C721.967 706.797 722.436 706.408 723.065 706.12C723.705 705.821 724.516 705.672 725.497 705.672C726.148 705.672 726.793 705.757 727.433 705.928C728.073 706.099 728.628 706.344 729.097 706.664L728.569 707.944C728.089 707.624 727.583 707.395 727.049 707.256C726.516 707.107 725.999 707.032 725.497 707.032C724.868 707.032 724.351 707.112 723.945 707.272C723.54 707.432 723.241 707.645 723.049 707.912C722.868 708.179 722.777 708.477 722.777 708.808C722.777 709.203 722.9 709.517 723.145 709.752C723.401 709.987 723.727 710.173 724.121 710.312C724.527 710.451 724.969 710.579 725.449 710.696C725.929 710.803 726.409 710.925 726.889 711.064C727.38 711.203 727.823 711.384 728.217 711.608C728.623 711.832 728.948 712.131 729.193 712.504C729.439 712.877 729.561 713.357 729.561 713.944C729.561 714.509 729.407 715.037 729.097 715.528C728.788 716.008 728.308 716.397 727.657 716.696C727.017 716.984 726.207 717.128 725.225 717.128ZM737.967 717V707.192H734.127V705.8H743.391V707.192H739.551V717H737.967Z" fill="#AF3931"/>
</g>
<g id="Target">
<g clip-path="url(#clip2_1_817)">
<path id="Ellipse 88" d="M676 807C676 800.434 674.707 793.932 672.194 787.866C669.681 781.8 665.998 776.288 661.355 771.645C656.712 767.002 651.2 763.319 645.134 760.806C639.068 758.293 632.566 757 626 757" stroke="#AF3931" stroke-width="7"/>
<path id="Ellipse 92" d="M576 807C576 813.566 577.293 820.068 579.806 826.134C582.319 832.2 586.002 837.712 590.645 842.355C595.288 846.998 600.8 850.681 606.866 853.194C612.932 855.707 619.434 857 626 857" stroke="#AF3931" stroke-width="7"/>
<path id="Ellipse 89" d="M666 807C666 812.253 664.965 817.454 662.955 822.307C660.945 827.16 657.999 831.57 654.284 835.284C650.57 838.999 646.16 841.945 641.307 843.955C636.454 845.965 631.253 847 626 847C620.747 847 615.546 845.965 610.693 843.955C605.84 841.945 601.43 838.999 597.716 835.284C594.001 831.57 591.055 827.16 589.045 822.307C587.035 817.454 586 812.253 586 807L606 807C606 809.626 606.517 812.227 607.522 814.654C608.528 817.08 610.001 819.285 611.858 821.142C613.715 822.999 615.92 824.472 618.346 825.478C620.773 826.483 623.374 827 626 827C628.626 827 631.227 826.483 633.654 825.478C636.08 824.472 638.285 822.999 640.142 821.142C641.999 819.285 643.472 817.08 644.478 814.654C645.483 812.227 646 809.626 646 807H666Z" fill="#AF3931" fill-opacity="0.7"/>
<path id="Ellipse 90" d="M641 807C641 808.97 640.612 810.92 639.858 812.74C639.104 814.56 637.999 816.214 636.607 817.607C635.214 818.999 633.56 820.104 631.74 820.858C629.92 821.612 627.97 822 626 822C624.03 822 622.08 821.612 620.26 820.858C618.44 820.104 616.786 818.999 615.393 817.607C614.001 816.214 612.896 814.56 612.142 812.74C611.388 810.92 611 808.97 611 807H613.25C613.25 808.674 613.58 810.332 614.221 811.879C614.861 813.426 615.8 814.832 616.984 816.016C618.168 817.2 619.574 818.139 621.121 818.779C622.668 819.42 624.326 819.75 626 819.75C627.674 819.75 629.332 819.42 630.879 818.779C632.426 818.139 633.832 817.2 635.016 816.016C636.2 814.832 637.139 813.426 637.779 811.879C638.42 810.332 638.75 808.674 638.75 807H641Z" fill="white"/>
<path id="Ellipse 91" opacity="0.5" d="M611 807C611 805.03 611.388 803.08 612.142 801.26C612.896 799.44 614.001 797.786 615.393 796.393C616.786 795.001 618.44 793.896 620.26 793.142C622.08 792.388 624.03 792 626 792C627.97 792 629.92 792.388 631.74 793.142C633.56 793.896 635.214 795.001 636.607 796.393C637.999 797.786 639.104 799.44 639.858 801.26C640.612 803.08 641 805.03 641 807L640.25 807C640.25 805.129 639.881 803.276 639.165 801.547C638.449 799.818 637.4 798.247 636.076 796.924C634.753 795.6 633.182 794.551 631.453 793.835C629.724 793.119 627.871 792.75 626 792.75C624.129 792.75 622.276 793.119 620.547 793.835C618.818 794.551 617.247 795.6 615.924 796.924C614.6 798.247 613.551 799.818 612.835 801.547C612.119 803.276 611.75 805.129 611.75 807L611 807Z" fill="#AF3931"/>
<path id="Union_2" d="M628 799H624V804.5H618.5V808.5H624V814H628V808.5H633.5V804.5H628V799Z" fill="white"/>
</g>
<rect x="577" y="758" width="98" height="98" rx="49" stroke="#AF3931" stroke-opacity="0.5" stroke-width="2"/>
</g>
</g>
</g>
<defs>
<clipPath id="clip0_1_817">
<rect width="302" height="72" fill="white" transform="translate(124 587)"/>
</clipPath>
<clipPath id="clip1_1_817">
<rect width="314" height="72" fill="white" transform="translate(118 791)"/>
</clipPath>
<clipPath id="clip2_1_817">
<rect x="576" y="757" width="100" height="100" rx="50" fill="white"/>
</clipPath>
</defs>
</svg>
