<svg width="1120" height="1156" viewBox="0 0 1120 1156" fill="none" xmlns="http://www.w3.org/2000/svg">
<g id="Random Elements/Decals">
<path d="M0 1.99998C0 0.895409 0.895431 0 2 0H1118C1119.1 0 1120 0.895431 1120 2V1153.6C1120 1154.71 1119.1 1155.6 1118 1155.6H1.99998C0.89541 1155.6 0 1154.71 0 1153.6V1.99998Z" fill="#232323"/>
<path d="M2 1H1118V-1H2V1ZM1119 2V1153.6H1121V2H1119ZM1118 1154.6H1.99998V1156.6H1118V1154.6ZM1 1153.6V1.99998H-1V1153.6H1ZM1.99998 1154.6C1.44771 1154.6 1 1154.15 1 1153.6H-1C-1 1155.26 0.343111 1156.6 1.99998 1156.6V1154.6ZM1119 1153.6C1119 1154.15 1118.55 1154.6 1118 1154.6V1156.6C1119.66 1156.6 1121 1155.26 1121 1153.6H1119ZM1118 1C1118.55 1 1119 1.4477 1119 2H1121C1121 0.343159 1119.66 -1 1118 -1V1ZM2 -1C0.34316 -1 -1 0.343111 -1 1.99998H1C1 1.44771 1.4477 1 2 1V-1Z" fill="white" fill-opacity="0.1"/>
<g id="Element v1 01">
<path d="M803.548 128.284L775.264 100L746.98 128.284L775.264 156.569L803.548 128.284Z" fill="#AF3931"/>
<path d="M817.691 142.426L789.406 170.711L817.691 198.995L845.975 170.711L817.691 142.426Z" fill="#AF3931"/>
<path d="M803.548 213.137L775.264 184.853L746.98 213.137L775.264 241.421L803.548 213.137Z" fill="#AF3931"/>
<path d="M732.838 198.995L761.122 170.711L732.838 142.426L704.553 170.711L732.838 198.995Z" fill="#AF3931"/>
</g>
<g id="Element v1 02">
<path d="M199.284 128.284L171 100L142.716 128.284L171 156.569L199.284 128.284Z" fill="#3A2321"/>
<path d="M199.284 213.137L171 184.853L142.716 213.137L171 241.421L199.284 213.137Z" fill="#3A2321"/>
<path d="M128.574 198.995L156.858 170.711L128.574 142.426L100.289 170.711L128.574 198.995Z" fill="#3A2321"/>
<path d="M185.142 170.711L213.426 142.426L241.711 170.711L213.426 198.995L185.142 170.711Z" fill="#AF3931"/>
</g>
<g id="Element v1 03">
<path d="M400.706 128.284L372.421 100L344.137 128.284L372.421 156.569L400.706 128.284Z" fill="#3A2321"/>
<path d="M329.995 198.995L358.279 170.711L329.995 142.426L301.711 170.711L329.995 198.995Z" fill="#3A2321"/>
<path d="M386.564 170.711L414.848 142.426L443.132 170.711L414.848 198.995L386.564 170.711Z" fill="#AF3931"/>
<path d="M372.421 184.853L400.706 213.137L372.421 241.421L344.137 213.137L372.421 184.853Z" fill="#AF3931"/>
</g>
<g id="Element v1 04">
<path d="M602.127 128.284L573.843 100L545.559 128.284L573.843 156.569L602.127 128.284Z" fill="#3A2321"/>
<path d="M587.985 170.711L616.269 142.426L644.553 170.711L616.269 198.995L587.985 170.711Z" fill="#AF3931"/>
<path d="M573.843 184.853L602.127 213.137L573.843 241.421L545.559 213.137L573.843 184.853Z" fill="#AF3931"/>
<path d="M559.701 170.711L531.416 198.995L503.132 170.711L531.416 142.426L559.701 170.711Z" fill="#AF3931"/>
</g>
<g id="Element v2 04">
<path d="M765.264 352L714.553 402.711H765.264V352Z" fill="#AF3931"/>
<path d="M714.553 422.711L765.264 473.421V422.711H714.553Z" fill="#AF3931"/>
<path d="M785.264 473.421V422.711H835.975L785.264 473.421Z" fill="#AF3931"/>
<path d="M785.264 352L835.975 402.711H785.264V352Z" fill="#AF3931"/>
</g>
<g id="Element v2 03">
<path d="M161 352L110.289 402.711H161V352Z" fill="#3A2321"/>
<path d="M110.289 422.711L161 473.421V422.711H110.289Z" fill="#3A2321"/>
<path d="M181 473.421V422.711H231.711L181 473.421Z" fill="#3A2321"/>
<path d="M181 352L231.711 402.711H181V352Z" fill="#AF3931"/>
</g>
<g id="Element v2 02">
<path d="M362.421 352L311.711 402.711H362.421V352Z" fill="#3A2321"/>
<path d="M311.711 422.711L362.421 473.421V422.711H311.711Z" fill="#3A2321"/>
<path d="M382.421 473.421V422.711H433.132L382.421 473.421Z" fill="#AF3931"/>
<path d="M382.421 352L433.132 402.711H382.421V352Z" fill="#AF3931"/>
</g>
<g id="Element v2 01">
<path d="M563.843 352L513.132 402.711H563.843V352Z" fill="#3A2321"/>
<path d="M513.132 422.711L563.843 473.421V422.711H513.132Z" fill="#AF3931"/>
<path d="M583.843 473.421V422.711H634.553L583.843 473.421Z" fill="#AF3931"/>
<path d="M583.843 352L634.553 402.711H583.843V352Z" fill="#AF3931"/>
</g>
<g id="Element v4 04">
<path d="M175 826.301L100 869.603V845.931L134 826.301L100 806.671V783L175 826.301Z" fill="#AF3931"/>
<path d="M155 869.603L230 826.301L155 783V806.671L189 826.301L155 845.931V869.603Z" fill="#AF3931"/>
<path d="M210 869.603L285 826.301L210 783V806.671L244 826.301L210 845.931V869.603Z" fill="#AF3931"/>
</g>
<g id="Element v5 04">
<path d="M175 1012.3L100 1055.6V1031.93L134 1012.3L100 992.671V969L175 1012.3Z" fill="#AF3931"/>
<path d="M155 1055.6L230 1012.3L155 969V992.671L189 1012.3L155 1031.93V1055.6Z" fill="#AF3931"/>
<path d="M210 1055.6L285 1012.3L210 969V992.671L244 1012.3L210 1031.93V1055.6Z" fill="#AF3931"/>
</g>
<g id="Element v4 03">
<path d="M420 826.301L345 869.603V845.931L379 826.301L345 806.671V783L420 826.301Z" fill="#AF3931"/>
<path d="M400 869.603L475 826.301L400 783V806.671L434 826.301L400 845.931V869.603Z" fill="#AF3931"/>
<path d="M455 869.603L530 826.301L455 783V806.671L489 826.301L455 845.931V869.603Z" fill="#3A2321"/>
</g>
<g id="Element v5 03">
<path d="M420 1012.3L345 1055.6V1031.93L379 1012.3L345 992.671V969L420 1012.3Z" fill="#AF3931"/>
<path d="M400 1055.6L475 1012.3L400 969V992.671L434 1012.3L400 1031.93V1055.6Z" fill="#AF3931"/>
<path d="M455 1055.6L530 1012.3L455 969V992.671L489 1012.3L455 1031.93V1055.6Z" fill="#3A2321"/>
</g>
<g id="Element v4 02">
<path d="M665 826.301L590 869.603V845.931L624 826.301L590 806.671V783L665 826.301Z" fill="#AF3931"/>
<path d="M645 869.603L720 826.301L645 783V806.671L679 826.301L645 845.931V869.603Z" fill="#3A2321"/>
<path d="M700 869.603L775 826.301L700 783V806.671L734 826.301L700 845.931V869.603Z" fill="#3A2321"/>
</g>
<g id="Element v5 02">
<path d="M665 1012.3L590 1055.6V1031.93L624 1012.3L590 992.671V969L665 1012.3Z" fill="#AF3931"/>
<path d="M645 1055.6L720 1012.3L645 969V992.671L679 1012.3L645 1031.93V1055.6Z" fill="#3A2321"/>
<path d="M700 1055.6L775 1012.3L700 969V992.671L734 1012.3L700 1031.93V1055.6Z" fill="#3A2321"/>
</g>
<g id="Element v4 01">
<path d="M910 826.301L835 869.603V845.931L869 826.301L835 806.671V783L910 826.301Z" fill="#3A2321"/>
<path d="M890 869.603L965 826.301L890 783V806.671L924 826.301L890 845.931V869.603Z" fill="#3A2321"/>
<path d="M945 869.603L1020 826.301L945 783V806.671L979 826.301L945 845.931V869.603Z" fill="#3A2321"/>
</g>
<g id="Element v5 01">
<path d="M910 1012.3L835 1055.6V1031.93L869 1012.3L835 992.671V969L910 1012.3Z" fill="#3A2321"/>
<path d="M890 1055.6L965 1012.3L890 969V992.671L924 1012.3L890 1031.93V1055.6Z" fill="#3A2321"/>
<path d="M945 1055.6L1020 1012.3L945 969V992.671L979 1012.3L945 1031.93V1055.6Z" fill="#3A2321"/>
</g>
<g id="Element v3 04">
<path d="M215.47 683L157.735 583L100 683H131.562L157.735 637.667L183.908 683H215.47Z" fill="#AF3931"/>
<path d="M157.333 657.667L172 683H142.667L157.333 657.667Z" fill="#AF3931"/>
</g>
<g id="Element v3 03">
<path d="M390.94 683L333.205 583L275.47 683H307.032L333.205 637.667L359.378 683H390.94Z" fill="#AF3931"/>
<path d="M332.803 657.667L347.47 683H318.137L332.803 657.667Z" fill="#3A2321"/>
</g>
<g id="Element v3 02">
<path d="M741.88 683L684.145 583L626.41 683H657.972L684.145 637.667L710.318 683H741.88Z" fill="#3A2321"/>
<path d="M683.743 657.667L698.41 683H669.077L683.743 657.667Z" fill="#3A2321"/>
</g>
<g id="Element v3 01">
<path d="M566.41 683L508.675 583L450.94 683H482.502L508.675 637.667L534.848 683H566.41Z" fill="#3A2321"/>
<path d="M508.273 657.667L522.94 683H493.607L508.273 657.667Z" fill="#AF3931"/>
</g>
</g>
</svg>
