<svg width="1272" height="54" viewBox="0 0 1272 54" fill="none" xmlns="http://www.w3.org/2000/svg">
<path d="M58.9634 8.48336C58.9634 9.29702 58.7766 10.044 58.4031 10.7243C58.0297 11.3912 57.4561 11.9314 56.6825 12.3449C55.9088 12.7584 54.9484 12.9651 53.8013 12.9651H51.6805V18.0071H48.2591V3.96157H53.8013C54.9218 3.96157 55.8688 4.15498 56.6425 4.5418C57.4161 4.92862 57.9963 5.46216 58.3831 6.14243C58.77 6.8227 58.9634 7.60301 58.9634 8.48336ZM53.5412 10.2441C54.1948 10.2441 54.6817 10.0907 55.0018 9.78388C55.3219 9.47709 55.482 9.04358 55.482 8.48336C55.482 7.92314 55.3219 7.48963 55.0018 7.18285C54.6817 6.87606 54.1948 6.72266 53.5412 6.72266H51.6805V10.2441H53.5412ZM64.1659 8.70345C64.5661 8.08987 65.0663 7.60968 65.6665 7.26288C66.2667 6.90274 66.9337 6.72266 67.6673 6.72266V10.3441H66.7269C65.8732 10.3441 65.233 10.5308 64.8062 10.9043C64.3793 11.2645 64.1659 11.9047 64.1659 12.8251V18.0071H60.7445V6.84271H64.1659V8.70345ZM79.8268 12.2449C79.8268 12.565 79.8068 12.8984 79.7668 13.2452H72.0237C72.0771 13.9389 72.2971 14.4724 72.684 14.8459C73.0841 15.206 73.571 15.3861 74.1445 15.3861C74.9982 15.3861 75.5918 15.026 75.9252 14.3057H79.5667C79.38 15.0393 79.0398 15.6996 78.5463 16.2865C78.0661 16.8734 77.4592 17.3335 76.7256 17.667C75.9919 18.0005 75.1716 18.1672 74.2646 18.1672C73.1708 18.1672 72.1971 17.9338 71.3434 17.4669C70.4898 17.0001 69.8228 16.3331 69.3426 15.4661C68.8624 14.5991 68.6224 13.5854 68.6224 12.4249C68.6224 11.2645 68.8558 10.2507 69.3226 9.38372C69.8028 8.51671 70.4698 7.84978 71.3234 7.38293C72.1771 6.91607 73.1575 6.68265 74.2646 6.68265C75.345 6.68265 76.3054 6.9094 77.1457 7.36292C77.9861 7.81643 78.6397 8.46335 79.1065 9.30369C79.5867 10.144 79.8268 11.1244 79.8268 12.2449ZM76.3254 11.3445C76.3254 10.7576 76.1253 10.2907 75.7252 9.94394C75.325 9.59714 74.8248 9.42373 74.2246 9.42373C73.651 9.42373 73.1642 9.59047 72.764 9.92393C72.3772 10.2574 72.1371 10.7309 72.0437 11.3445H76.3254ZM95.8774 6.72266C97.2646 6.72266 98.365 7.14283 99.1787 7.98316C100.006 8.8235 100.419 9.99063 100.419 11.4846V18.0071H97.0178V11.9447C97.0178 11.2244 96.8244 10.6709 96.4376 10.2841C96.0641 9.88392 95.5439 9.68384 94.877 9.68384C94.21 9.68384 93.6832 9.88392 93.2964 10.2841C92.9229 10.6709 92.7361 11.2244 92.7361 11.9447V18.0071H89.3348V11.9447C89.3348 11.2244 89.1414 10.6709 88.7546 10.2841C88.3811 9.88392 87.8609 9.68384 87.1939 9.68384C86.527 9.68384 86.0001 9.88392 85.6133 10.2841C85.2398 10.6709 85.0531 11.2244 85.0531 11.9447V18.0071H81.6317V6.84271H85.0531V8.24327C85.3999 7.77642 85.8534 7.4096 86.4136 7.14283C86.9738 6.86272 87.6074 6.72266 88.3144 6.72266C89.1547 6.72266 89.9017 6.90274 90.5553 7.26288C91.2222 7.62302 91.7424 8.13656 92.1159 8.80349C92.5027 8.18991 93.0296 7.68971 93.6965 7.30289C94.3634 6.91607 95.0904 6.72266 95.8774 6.72266ZM104.533 5.68225C103.932 5.68225 103.439 5.50885 103.052 5.16205C102.679 4.8019 102.492 4.36173 102.492 3.84152C102.492 3.30798 102.679 2.8678 103.052 2.521C103.439 2.16086 103.932 1.98078 104.533 1.98078C105.12 1.98078 105.6 2.16086 105.973 2.521C106.36 2.8678 106.553 3.30798 106.553 3.84152C106.553 4.36173 106.36 4.8019 105.973 5.16205C105.6 5.50885 105.12 5.68225 104.533 5.68225ZM106.233 6.84271V18.0071H102.812V6.84271H106.233ZM119.737 6.84271V18.0071H116.316V16.4865C115.969 16.9801 115.495 17.3802 114.895 17.687C114.308 17.9805 113.655 18.1272 112.934 18.1272C112.081 18.1272 111.327 17.9404 110.674 17.567C110.02 17.1801 109.513 16.6266 109.153 15.9063C108.793 15.186 108.613 14.339 108.613 13.3653V6.84271H112.014V12.9051C112.014 13.6521 112.207 14.2323 112.594 14.6458C112.981 15.0593 113.501 15.2661 114.155 15.2661C114.822 15.2661 115.349 15.0593 115.736 14.6458C116.122 14.2323 116.316 13.6521 116.316 12.9051V6.84271H119.737ZM136.44 6.72266C137.828 6.72266 138.928 7.14283 139.742 7.98316C140.569 8.8235 140.982 9.99063 140.982 11.4846V18.0071H137.581V11.9447C137.581 11.2244 137.387 10.6709 137.001 10.2841C136.627 9.88392 136.107 9.68384 135.44 9.68384C134.773 9.68384 134.246 9.88392 133.859 10.2841C133.486 10.6709 133.299 11.2244 133.299 11.9447V18.0071H129.898V11.9447C129.898 11.2244 129.704 10.6709 129.318 10.2841C128.944 9.88392 128.424 9.68384 127.757 9.68384C127.09 9.68384 126.563 9.88392 126.176 10.2841C125.803 10.6709 125.616 11.2244 125.616 11.9447V18.0071H122.195V6.84271H125.616V8.24327C125.963 7.77642 126.416 7.4096 126.977 7.14283C127.537 6.86272 128.17 6.72266 128.877 6.72266C129.718 6.72266 130.465 6.90274 131.118 7.26288C131.785 7.62302 132.305 8.13656 132.679 8.80349C133.066 8.18991 133.593 7.68971 134.259 7.30289C134.926 6.91607 135.653 6.72266 136.44 6.72266ZM144.976 18.1672C144.375 18.1672 143.882 17.9938 143.495 17.647C143.122 17.2869 142.935 16.8467 142.935 16.3265C142.935 15.7929 143.122 15.3461 143.495 14.9859C143.882 14.6258 144.375 14.4457 144.976 14.4457C145.562 14.4457 146.043 14.6258 146.416 14.9859C146.803 15.3461 146.996 15.7929 146.996 16.3265C146.996 16.8467 146.803 17.2869 146.416 17.647C146.043 17.9938 145.562 18.1672 144.976 18.1672ZM144.976 10.024C144.375 10.024 143.882 9.85057 143.495 9.50377C143.122 9.14362 142.935 8.70345 142.935 8.18324C142.935 7.6497 143.122 7.20285 143.495 6.84271C143.882 6.48257 144.375 6.3025 144.976 6.3025C145.562 6.3025 146.043 6.48257 146.416 6.84271C146.803 7.20285 146.996 7.6497 146.996 8.18324C146.996 8.70345 146.803 9.14362 146.416 9.50377C146.043 9.85057 145.562 10.024 144.976 10.024ZM169.207 3.96157V18.0071H165.786V9.5838L162.644 18.0071H159.883L156.722 9.56379V18.0071H153.301V3.96157H157.342L161.284 13.6854L165.185 3.96157H169.207ZM176.749 18.1672C175.656 18.1672 174.669 17.9338 173.788 17.4669C172.921 17.0001 172.234 16.3331 171.727 15.4661C171.234 14.5991 170.987 13.5854 170.987 12.4249C170.987 11.2778 171.241 10.2707 171.747 9.40373C172.254 8.52338 172.948 7.84978 173.828 7.38293C174.709 6.91607 175.696 6.68265 176.789 6.68265C177.883 6.68265 178.87 6.91607 179.751 7.38293C180.631 7.84978 181.325 8.52338 181.831 9.40373C182.338 10.2707 182.592 11.2778 182.592 12.4249C182.592 13.572 182.332 14.5858 181.811 15.4661C181.305 16.3331 180.604 17.0001 179.711 17.4669C178.83 17.9338 177.843 18.1672 176.749 18.1672ZM176.749 15.206C177.403 15.206 177.957 14.9659 178.41 14.4857C178.877 14.0056 179.11 13.3186 179.11 12.4249C179.11 11.5312 178.884 10.8443 178.43 10.3641C177.99 9.88392 177.443 9.64382 176.789 9.64382C176.123 9.64382 175.569 9.88392 175.129 10.3641C174.689 10.831 174.469 11.5179 174.469 12.4249C174.469 13.3186 174.682 14.0056 175.109 14.4857C175.549 14.9659 176.096 15.206 176.749 15.206ZM187.828 8.70345C188.228 8.08987 188.729 7.60968 189.329 7.26288C189.929 6.90274 190.596 6.72266 191.33 6.72266V10.3441H190.389C189.536 10.3441 188.895 10.5308 188.468 10.9043C188.042 11.2645 187.828 11.9047 187.828 12.8251V18.0071H184.407V6.84271H187.828V8.70345ZM203.489 12.2449C203.489 12.565 203.469 12.8984 203.429 13.2452H195.686C195.739 13.9389 195.959 14.4724 196.346 14.8459C196.746 15.206 197.233 15.3861 197.807 15.3861C198.661 15.3861 199.254 15.026 199.588 14.3057H203.229C203.042 15.0393 202.702 15.6996 202.209 16.2865C201.728 16.8734 201.121 17.3335 200.388 17.667C199.654 18.0005 198.834 18.1672 197.927 18.1672C196.833 18.1672 195.859 17.9338 195.006 17.4669C194.152 17.0001 193.485 16.3331 193.005 15.4661C192.525 14.5991 192.285 13.5854 192.285 12.4249C192.285 11.2645 192.518 10.2507 192.985 9.38372C193.465 8.51671 194.132 7.84978 194.986 7.38293C195.839 6.91607 196.82 6.68265 197.927 6.68265C199.007 6.68265 199.968 6.9094 200.808 7.36292C201.648 7.81643 202.302 8.46335 202.769 9.30369C203.249 10.144 203.489 11.1244 203.489 12.2449ZM199.988 11.3445C199.988 10.7576 199.788 10.2907 199.387 9.94394C198.987 9.59714 198.487 9.42373 197.887 9.42373C197.313 9.42373 196.826 9.59047 196.426 9.92393C196.039 10.2574 195.799 10.7309 195.706 11.3445H199.988ZM219.638 3.96157V6.70266H215.917V18.0071H212.495V6.70266H208.774V3.96157H219.638ZM228.218 6.72266C229.498 6.72266 230.525 7.1495 231.299 8.00317C232.073 8.8435 232.459 10.004 232.459 11.4846V18.0071H229.058V11.9447C229.058 11.1978 228.865 10.6175 228.478 10.204C228.091 9.79055 227.571 9.5838 226.917 9.5838C226.264 9.5838 225.743 9.79055 225.357 10.204C224.97 10.6175 224.776 11.1978 224.776 11.9447V18.0071H221.355V3.20127H224.776V8.34331C225.123 7.84978 225.597 7.45629 226.197 7.16284C226.797 6.86939 227.471 6.72266 228.218 6.72266ZM234.157 12.4049C234.157 11.2578 234.37 10.2507 234.797 9.38372C235.237 8.51671 235.831 7.84978 236.578 7.38293C237.325 6.91607 238.158 6.68265 239.079 6.68265C239.866 6.68265 240.553 6.84271 241.139 7.16284C241.74 7.48297 242.2 7.90313 242.52 8.42334V6.84271H245.941V18.0071H242.52V16.4265C242.187 16.9467 241.72 17.3669 241.119 17.687C240.533 18.0071 239.846 18.1672 239.059 18.1672C238.152 18.1672 237.325 17.9338 236.578 17.4669C235.831 16.9867 235.237 16.3131 234.797 15.4461C234.37 14.5658 234.157 13.552 234.157 12.4049ZM242.52 12.4249C242.52 11.5713 242.28 10.8977 241.8 10.4041C241.333 9.91059 240.759 9.66383 240.079 9.66383C239.399 9.66383 238.819 9.91059 238.338 10.4041C237.872 10.8843 237.638 11.5512 237.638 12.4049C237.638 13.2586 237.872 13.9389 238.338 14.4457C238.819 14.9393 239.399 15.186 240.079 15.186C240.759 15.186 241.333 14.9393 241.8 14.4457C242.28 13.9522 242.52 13.2786 242.52 12.4249ZM255.219 6.72266C256.526 6.72266 257.567 7.1495 258.341 8.00317C259.127 8.8435 259.521 10.004 259.521 11.4846V18.0071H256.12V11.9447C256.12 11.1978 255.926 10.6175 255.539 10.204C255.153 9.79055 254.632 9.5838 253.979 9.5838C253.325 9.5838 252.805 9.79055 252.418 10.204C252.031 10.6175 251.838 11.1978 251.838 11.9447V18.0071H248.417V6.84271H251.838V8.3233C252.185 7.82977 252.652 7.44295 253.238 7.16284C253.825 6.86939 254.486 6.72266 255.219 6.72266ZM268.199 10.164C266.945 9.4971 266.319 8.45002 266.319 7.02278C266.319 6.3025 266.505 5.6489 266.879 5.06201C267.252 4.46177 267.819 3.98825 268.579 3.64144C269.34 3.2813 270.273 3.10123 271.381 3.10123C272.488 3.10123 273.415 3.2813 274.162 3.64144C274.922 3.98825 275.489 4.46177 275.862 5.06201C276.236 5.6489 276.423 6.3025 276.423 7.02278C276.423 7.74307 276.249 8.36998 275.902 8.90353C275.569 9.43707 275.115 9.85724 274.542 10.164C275.262 10.5108 275.816 10.991 276.202 11.6046C276.589 12.2048 276.783 12.9118 276.783 13.7254C276.783 14.6725 276.543 15.4928 276.062 16.1864C275.582 16.8667 274.929 17.3869 274.102 17.747C273.288 18.1072 272.381 18.2872 271.381 18.2872C270.38 18.2872 269.466 18.1072 268.639 17.747C267.826 17.3869 267.179 16.8667 266.699 16.1864C266.218 15.4928 265.978 14.6725 265.978 13.7254C265.978 12.8984 266.172 12.1848 266.559 11.5846C266.945 10.971 267.492 10.4975 268.199 10.164ZM273.101 7.54299C273.101 6.99611 272.941 6.57594 272.621 6.28249C272.314 5.9757 271.901 5.82231 271.381 5.82231C270.86 5.82231 270.44 5.9757 270.12 6.28249C269.813 6.58928 269.66 7.01611 269.66 7.563C269.66 8.0832 269.82 8.4967 270.14 8.80349C270.46 9.09694 270.874 9.24366 271.381 9.24366C271.887 9.24366 272.301 9.09027 272.621 8.78348C272.941 8.47669 273.101 8.0632 273.101 7.54299ZM271.381 11.6446C270.754 11.6446 270.247 11.818 269.86 12.1648C269.473 12.4983 269.28 12.9651 269.28 13.5654C269.28 14.1256 269.466 14.5858 269.84 14.9459C270.227 15.3061 270.74 15.4861 271.381 15.4861C272.021 15.4861 272.521 15.3061 272.881 14.9459C273.255 14.5858 273.441 14.1256 273.441 13.5654C273.441 12.9785 273.248 12.5116 272.861 12.1648C272.488 11.818 271.994 11.6446 271.381 11.6446ZM278.772 10.5042C278.772 8.20992 279.212 6.40254 280.093 5.08201C280.986 3.76149 282.42 3.10123 284.394 3.10123C286.369 3.10123 287.796 3.76149 288.676 5.08201C289.57 6.40254 290.017 8.20992 290.017 10.5042C290.017 12.8251 289.57 14.6458 288.676 15.9663C287.796 17.2869 286.369 17.9471 284.394 17.9471C282.42 17.9471 280.986 17.2869 280.093 15.9663C279.212 14.6458 278.772 12.8251 278.772 10.5042ZM286.655 10.5042C286.655 9.15696 286.509 8.12322 286.215 7.40293C285.922 6.66931 285.315 6.3025 284.394 6.3025C283.474 6.3025 282.867 6.66931 282.574 7.40293C282.28 8.12322 282.134 9.15696 282.134 10.5042C282.134 11.4112 282.187 12.1648 282.294 12.7651C282.4 13.352 282.614 13.8321 282.934 14.2056C283.267 14.5658 283.754 14.7458 284.394 14.7458C285.035 14.7458 285.515 14.5658 285.835 14.2056C286.168 13.8321 286.389 13.352 286.495 12.7651C286.602 12.1648 286.655 11.4112 286.655 10.5042ZM303.567 18.0071L300.646 12.705H299.826V18.0071H296.404V3.96157H302.147C303.254 3.96157 304.194 4.15498 304.968 4.5418C305.755 4.92862 306.342 5.46216 306.728 6.14243C307.115 6.80936 307.309 7.55633 307.309 8.38332C307.309 9.31703 307.042 10.1507 306.508 10.8843C305.988 11.6179 305.215 12.1381 304.187 12.4449L307.429 18.0071H303.567ZM299.826 10.2841H301.947C302.573 10.2841 303.04 10.1307 303.347 9.82389C303.667 9.51711 303.827 9.0836 303.827 8.52338C303.827 7.98983 303.667 7.56967 303.347 7.26288C303.04 6.95609 302.573 6.8027 301.947 6.8027H299.826V10.2841ZM319.981 12.2449C319.981 12.565 319.961 12.8984 319.921 13.2452H312.177C312.231 13.9389 312.451 14.4724 312.838 14.8459C313.238 15.206 313.725 15.3861 314.298 15.3861C315.152 15.3861 315.746 15.026 316.079 14.3057H319.72C319.534 15.0393 319.194 15.6996 318.7 16.2865C318.22 16.8734 317.613 17.3335 316.879 17.667C316.146 18.0005 315.325 18.1672 314.418 18.1672C313.325 18.1672 312.351 17.9338 311.497 17.4669C310.644 17.0001 309.977 16.3331 309.496 15.4661C309.016 14.5991 308.776 13.5854 308.776 12.4249C308.776 11.2645 309.01 10.2507 309.476 9.38372C309.957 8.51671 310.624 7.84978 311.477 7.38293C312.331 6.91607 313.311 6.68265 314.418 6.68265C315.499 6.68265 316.459 6.9094 317.3 7.36292C318.14 7.81643 318.793 8.46335 319.26 9.30369C319.74 10.144 319.981 11.1244 319.981 12.2449ZM316.479 11.3445C316.479 10.7576 316.279 10.2907 315.879 9.94394C315.479 9.59714 314.979 9.42373 314.378 9.42373C313.805 9.42373 313.318 9.59047 312.918 9.92393C312.531 10.2574 312.291 10.7309 312.197 11.3445H316.479ZM321.105 12.4049C321.105 11.2578 321.319 10.2507 321.745 9.38372C322.186 8.51671 322.779 7.84978 323.526 7.38293C324.273 6.91607 325.107 6.68265 326.027 6.68265C326.814 6.68265 327.501 6.84271 328.088 7.16284C328.688 7.48297 329.148 7.90313 329.469 8.42334V6.84271H332.89V18.0071H329.469V16.4265C329.135 16.9467 328.668 17.3669 328.068 17.687C327.481 18.0071 326.794 18.1672 326.007 18.1672C325.1 18.1672 324.273 17.9338 323.526 17.4669C322.779 16.9867 322.186 16.3131 321.745 15.4461C321.319 14.5658 321.105 13.552 321.105 12.4049ZM329.469 12.4249C329.469 11.5713 329.228 10.8977 328.748 10.4041C328.281 9.91059 327.708 9.66383 327.028 9.66383C326.347 9.66383 325.767 9.91059 325.287 10.4041C324.82 10.8843 324.587 11.5512 324.587 12.4049C324.587 13.2586 324.82 13.9389 325.287 14.4457C325.767 14.9393 326.347 15.186 327.028 15.186C327.708 15.186 328.281 14.9393 328.748 14.4457C329.228 13.9522 329.469 13.2786 329.469 12.4249ZM334.685 12.4049C334.685 11.2578 334.898 10.2507 335.325 9.38372C335.765 8.51671 336.359 7.84978 337.106 7.38293C337.853 6.91607 338.686 6.68265 339.607 6.68265C340.34 6.68265 341.007 6.83604 341.608 7.14283C342.221 7.44962 342.701 7.86312 343.048 8.38332V3.20127H346.47V18.0071H343.048V16.4065C342.728 16.94 342.268 17.3669 341.668 17.687C341.081 18.0071 340.394 18.1672 339.607 18.1672C338.686 18.1672 337.853 17.9338 337.106 17.4669C336.359 16.9867 335.765 16.3131 335.325 15.4461C334.898 14.5658 334.685 13.552 334.685 12.4049ZM343.048 12.4249C343.048 11.5713 342.808 10.8977 342.328 10.4041C341.861 9.91059 341.287 9.66383 340.607 9.66383C339.927 9.66383 339.347 9.91059 338.866 10.4041C338.4 10.8843 338.166 11.5512 338.166 12.4049C338.166 13.2586 338.4 13.9389 338.866 14.4457C339.347 14.9393 339.927 15.186 340.607 15.186C341.287 15.186 341.861 14.9393 342.328 14.4457C342.808 13.9522 343.048 13.2786 343.048 12.4249ZM360.349 6.84271L353.346 23.3092H349.665L352.226 17.627L347.684 6.84271H351.506L354.087 13.8255L356.648 6.84271H360.349ZM370.19 9.56379V12.4049H361.386V9.56379H370.19ZM383.297 3.96157V6.70266H379.575V18.0071H376.154V6.70266H372.432V3.96157H383.297ZM390.096 18.1672C389.002 18.1672 388.015 17.9338 387.135 17.4669C386.268 17.0001 385.581 16.3331 385.074 15.4661C384.58 14.5991 384.333 13.5854 384.333 12.4249C384.333 11.2778 384.587 10.2707 385.094 9.40373C385.601 8.52338 386.294 7.84978 387.175 7.38293C388.055 6.91607 389.042 6.68265 390.136 6.68265C391.229 6.68265 392.217 6.91607 393.097 7.38293C393.977 7.84978 394.671 8.52338 395.178 9.40373C395.685 10.2707 395.938 11.2778 395.938 12.4249C395.938 13.572 395.678 14.5858 395.158 15.4661C394.651 16.3331 393.951 17.0001 393.057 17.4669C392.177 17.9338 391.189 18.1672 390.096 18.1672ZM390.096 15.206C390.749 15.206 391.303 14.9659 391.756 14.4857C392.223 14.0056 392.457 13.3186 392.457 12.4249C392.457 11.5312 392.23 10.8443 391.776 10.3641C391.336 9.88392 390.789 9.64382 390.136 9.64382C389.469 9.64382 388.915 9.88392 388.475 10.3641C388.035 10.831 387.815 11.5179 387.815 12.4249C387.815 13.3186 388.028 14.0056 388.455 14.4857C388.895 14.9659 389.442 15.206 390.096 15.206ZM406.357 9.56379V12.4049H397.553V9.56379H406.357ZM412.721 3.96157V12.3649C412.721 13.2052 412.927 13.8522 413.341 14.3057C413.754 14.7592 414.361 14.9859 415.162 14.9859C415.962 14.9859 416.575 14.7592 417.002 14.3057C417.429 13.8522 417.643 13.2052 417.643 12.3649V3.96157H421.064V12.3449C421.064 13.5987 420.797 14.6591 420.264 15.5262C419.73 16.3932 419.01 17.0468 418.103 17.4869C417.209 17.9271 416.209 18.1472 415.102 18.1472C413.994 18.1472 413.001 17.9338 412.12 17.5069C411.253 17.0668 410.566 16.4132 410.06 15.5462C409.553 14.6658 409.299 13.5987 409.299 12.3449V3.96157H412.721ZM428.008 18.1672C427.035 18.1672 426.168 18.0005 425.407 17.667C424.647 17.3335 424.047 16.88 423.606 16.3065C423.166 15.7196 422.92 15.066 422.866 14.3457H426.248C426.288 14.7325 426.468 15.046 426.788 15.2861C427.108 15.5262 427.501 15.6462 427.968 15.6462C428.395 15.6462 428.722 15.5662 428.949 15.4061C429.189 15.2327 429.309 15.0126 429.309 14.7458C429.309 14.4257 429.142 14.1923 428.809 14.0456C428.475 13.8855 427.935 13.7121 427.188 13.5254C426.388 13.3386 425.721 13.1452 425.187 12.9451C424.654 12.7317 424.193 12.4049 423.807 11.9647C423.42 11.5112 423.226 10.9043 423.226 10.144C423.226 9.50377 423.4 8.92354 423.747 8.40333C424.107 7.86979 424.627 7.44962 425.307 7.14283C426.001 6.83604 426.821 6.68265 427.768 6.68265C429.169 6.68265 430.269 7.02945 431.069 7.72306C431.883 8.41667 432.35 9.33703 432.47 10.4842H429.309C429.255 10.0973 429.082 9.79055 428.789 9.56379C428.508 9.33703 428.135 9.22366 427.668 9.22366C427.268 9.22366 426.961 9.30369 426.748 9.46375C426.534 9.61048 426.428 9.81722 426.428 10.084C426.428 10.4041 426.594 10.6442 426.928 10.8043C427.275 10.9643 427.808 11.1244 428.528 11.2845C429.355 11.4979 430.029 11.7113 430.549 11.9247C431.069 12.1248 431.523 12.4583 431.91 12.9251C432.31 13.3786 432.517 13.9922 432.53 14.7659C432.53 15.4194 432.343 16.0063 431.97 16.5266C431.61 17.0334 431.083 17.4336 430.389 17.727C429.709 18.0205 428.915 18.1672 428.008 18.1672ZM445.147 12.2449C445.147 12.565 445.127 12.8984 445.087 13.2452H437.344C437.398 13.9389 437.618 14.4724 438.005 14.8459C438.405 15.206 438.892 15.3861 439.465 15.3861C440.319 15.3861 440.912 15.026 441.246 14.3057H444.887C444.701 15.0393 444.36 15.6996 443.867 16.2865C443.387 16.8734 442.78 17.3335 442.046 17.667C441.313 18.0005 440.492 18.1672 439.585 18.1672C438.491 18.1672 437.518 17.9338 436.664 17.4669C435.81 17.0001 435.143 16.3331 434.663 15.4661C434.183 14.5991 433.943 13.5854 433.943 12.4249C433.943 11.2645 434.176 10.2507 434.643 9.38372C435.123 8.51671 435.79 7.84978 436.644 7.38293C437.498 6.91607 438.478 6.68265 439.585 6.68265C440.666 6.68265 441.626 6.9094 442.466 7.36292C443.307 7.81643 443.96 8.46335 444.427 9.30369C444.907 10.144 445.147 11.1244 445.147 12.2449ZM441.646 11.3445C441.646 10.7576 441.446 10.2907 441.046 9.94394C440.646 9.59714 440.145 9.42373 439.545 9.42373C438.972 9.42373 438.485 9.59047 438.085 9.92393C437.698 10.2574 437.458 10.7309 437.364 11.3445H441.646ZM459.696 10.8043C460.509 10.9777 461.163 11.3845 461.656 12.0248C462.15 12.6517 462.397 13.372 462.397 14.1856C462.397 15.3594 461.983 16.2931 461.156 16.9867C460.343 17.667 459.202 18.0071 457.735 18.0071H451.192V3.96157H457.515C458.942 3.96157 460.056 4.28837 460.856 4.94196C461.67 5.59555 462.077 6.48257 462.077 7.60301C462.077 8.43001 461.856 9.11695 461.416 9.66383C460.989 10.2107 460.416 10.5909 459.696 10.8043ZM454.614 9.64382H456.855C457.415 9.64382 457.842 9.52377 458.135 9.28368C458.442 9.03025 458.595 8.66343 458.595 8.18324C458.595 7.70305 458.442 7.33624 458.135 7.08281C457.842 6.82937 457.415 6.70266 456.855 6.70266H454.614V9.64382ZM457.135 15.246C457.708 15.246 458.148 15.1193 458.455 14.8659C458.775 14.5991 458.935 14.219 458.935 13.7254C458.935 13.2319 458.769 12.8451 458.435 12.565C458.115 12.2849 457.668 12.1448 457.095 12.1448H454.614V15.246H457.135ZM467.802 8.70345C468.203 8.08987 468.703 7.60968 469.303 7.26288C469.903 6.90274 470.57 6.72266 471.304 6.72266V10.3441H470.363C469.51 10.3441 468.87 10.5308 468.443 10.9043C468.016 11.2645 467.802 11.9047 467.802 12.8251V18.0071H464.381V6.84271H467.802V8.70345ZM483.964 6.84271V18.0071H480.542V16.4865C480.195 16.9801 479.722 17.3802 479.122 17.687C478.535 17.9805 477.881 18.1272 477.161 18.1272C476.307 18.1272 475.554 17.9404 474.9 17.567C474.246 17.1801 473.739 16.6266 473.379 15.9063C473.019 15.186 472.839 14.339 472.839 13.3653V6.84271H476.24V12.9051C476.24 13.6521 476.434 14.2323 476.821 14.6458C477.208 15.0593 477.728 15.2661 478.381 15.2661C479.048 15.2661 479.575 15.0593 479.962 14.6458C480.349 14.2323 480.542 13.6521 480.542 12.9051V6.84271H483.964ZM492.644 15.106V18.0071H490.903C489.662 18.0071 488.695 17.707 488.002 17.1068C487.308 16.4932 486.961 15.4995 486.961 14.1256V9.68384H485.601V6.84271H486.961V4.12163H490.383V6.84271H492.624V9.68384H490.383V14.1656C490.383 14.4991 490.463 14.7392 490.623 14.8859C490.783 15.0326 491.05 15.106 491.423 15.106H492.644ZM493.869 12.4049C493.869 11.2578 494.082 10.2507 494.509 9.38372C494.949 8.51671 495.543 7.84978 496.29 7.38293C497.037 6.91607 497.871 6.68265 498.791 6.68265C499.578 6.68265 500.265 6.84271 500.852 7.16284C501.452 7.48297 501.912 7.90313 502.232 8.42334V6.84271H505.654V18.0071H502.232V16.4265C501.899 16.9467 501.432 17.3669 500.832 17.687C500.245 18.0071 499.558 18.1672 498.771 18.1672C497.864 18.1672 497.037 17.9338 496.29 17.4669C495.543 16.9867 494.949 16.3131 494.509 15.4461C494.082 14.5658 493.869 13.552 493.869 12.4049ZM502.232 12.4249C502.232 11.5713 501.992 10.8977 501.512 10.4041C501.045 9.91059 500.472 9.66383 499.791 9.66383C499.111 9.66383 498.531 9.91059 498.051 10.4041C497.584 10.8843 497.35 11.5512 497.35 12.4049C497.35 13.2586 497.584 13.9389 498.051 14.4457C498.531 14.9393 499.111 15.186 499.791 15.186C500.472 15.186 501.045 14.9393 501.512 14.4457C501.992 13.9522 502.232 13.2786 502.232 12.4249ZM511.55 3.20127V18.0071H508.129V3.20127H511.55ZM515.75 5.68225C515.15 5.68225 514.657 5.50885 514.27 5.16205C513.896 4.8019 513.71 4.36173 513.71 3.84152C513.71 3.30798 513.896 2.8678 514.27 2.521C514.657 2.16086 515.15 1.98078 515.75 1.98078C516.337 1.98078 516.817 2.16086 517.191 2.521C517.578 2.8678 517.771 3.30798 517.771 3.84152C517.771 4.36173 517.578 4.8019 517.191 5.16205C516.817 5.50885 516.337 5.68225 515.75 5.68225ZM517.451 6.84271V18.0071H514.03V6.84271H517.451ZM524.472 18.1672C523.499 18.1672 522.632 18.0005 521.871 17.667C521.111 17.3335 520.511 16.88 520.071 16.3065C519.63 15.7196 519.384 15.066 519.33 14.3457H522.712C522.752 14.7325 522.932 15.046 523.252 15.2861C523.572 15.5262 523.965 15.6462 524.432 15.6462C524.859 15.6462 525.186 15.5662 525.413 15.4061C525.653 15.2327 525.773 15.0126 525.773 14.7458C525.773 14.4257 525.606 14.1923 525.273 14.0456C524.939 13.8855 524.399 13.7121 523.652 13.5254C522.852 13.3386 522.185 13.1452 521.651 12.9451C521.118 12.7317 520.657 12.4049 520.271 11.9647C519.884 11.5112 519.69 10.9043 519.69 10.144C519.69 9.50377 519.864 8.92354 520.211 8.40333C520.571 7.86979 521.091 7.44962 521.771 7.14283C522.465 6.83604 523.285 6.68265 524.232 6.68265C525.633 6.68265 526.733 7.02945 527.533 7.72306C528.347 8.41667 528.814 9.33703 528.934 10.4842H525.773C525.719 10.0973 525.546 9.79055 525.253 9.56379C524.972 9.33703 524.599 9.22366 524.132 9.22366C523.732 9.22366 523.425 9.30369 523.212 9.46375C522.998 9.61048 522.892 9.81722 522.892 10.084C522.892 10.4041 523.058 10.6442 523.392 10.8043C523.739 10.9643 524.272 11.1244 524.992 11.2845C525.819 11.4979 526.493 11.7113 527.013 11.9247C527.533 12.1248 527.987 12.4583 528.374 12.9251C528.774 13.3786 528.981 13.9922 528.994 14.7659C528.994 15.4194 528.807 16.0063 528.434 16.5266C528.074 17.0334 527.547 17.4336 526.853 17.727C526.173 18.0205 525.379 18.1672 524.472 18.1672ZM537.31 15.106V18.0071H535.569C534.328 18.0071 533.361 17.707 532.668 17.1068C531.974 16.4932 531.627 15.4995 531.627 14.1256V9.68384H530.267V6.84271H531.627V4.12163H535.049V6.84271H537.29V9.68384H535.049V14.1656C535.049 14.4991 535.129 14.7392 535.289 14.8859C535.449 15.0326 535.716 15.106 536.089 15.106H537.31ZM58.3631 33.9735V36.7146H54.6417V48.019H51.2203V36.7146H47.4988V33.9735H58.3631ZM70.6044 42.2567C70.6044 42.5769 70.5844 42.9103 70.5444 43.2571H62.8013C62.8547 43.9508 63.0747 44.4843 63.4616 44.8578C63.8617 45.2179 64.3486 45.398 64.9221 45.398C65.7758 45.398 66.3694 45.0379 66.7028 44.3176H70.3443C70.1575 45.0512 69.8174 45.7115 69.3239 46.2984C68.8437 46.8852 68.2368 47.3454 67.5032 47.6789C66.7695 48.0124 65.9492 48.1791 65.0422 48.1791C63.9484 48.1791 62.9747 47.9457 62.121 47.4788C61.2674 47.012 60.6004 46.345 60.1202 45.478C59.64 44.611 59.3999 43.5973 59.3999 42.4368C59.3999 41.2764 59.6334 40.2626 60.1002 39.3956C60.5804 38.5286 61.2473 37.8617 62.101 37.3948C62.9547 36.928 63.9351 36.6945 65.0422 36.6945C66.1226 36.6945 67.083 36.9213 67.9233 37.3748C68.7637 37.8283 69.4173 38.4752 69.8841 39.3156C70.3643 40.1559 70.6044 41.1363 70.6044 42.2567ZM67.103 41.3564C67.103 40.7695 66.9029 40.3026 66.5028 39.9558C66.1026 39.609 65.6024 39.4356 65.0022 39.4356C64.4286 39.4356 63.9417 39.6024 63.5416 39.9358C63.1548 40.2693 62.9147 40.7428 62.8213 41.3564H67.103ZM86.655 36.7346C88.0422 36.7346 89.1426 37.1547 89.9563 37.9951C90.7833 38.8354 91.1968 40.0025 91.1968 41.4964V48.019H87.7954V41.9566C87.7954 41.2363 87.602 40.6828 87.2152 40.296C86.8417 39.8958 86.3215 39.6957 85.6546 39.6957C84.9876 39.6957 84.4608 39.8958 84.0739 40.296C83.7005 40.6828 83.5137 41.2363 83.5137 41.9566V48.019H80.1124V41.9566C80.1124 41.2363 79.919 40.6828 79.5321 40.296C79.1587 39.8958 78.6385 39.6957 77.9715 39.6957C77.3046 39.6957 76.7777 39.8958 76.3909 40.296C76.0174 40.6828 75.8307 41.2363 75.8307 41.9566V48.019H72.4093V36.8546H75.8307V38.2552C76.1775 37.7883 76.631 37.4215 77.1912 37.1547C77.7514 36.8746 78.385 36.7346 79.092 36.7346C79.9323 36.7346 80.6793 36.9146 81.3329 37.2748C81.9998 37.6349 82.52 38.1485 82.8935 38.8154C83.2803 38.2018 83.8072 37.7016 84.4741 37.3148C85.141 36.928 85.868 36.7346 86.655 36.7346ZM97.0109 38.4352C97.3444 37.915 97.8046 37.4949 98.3915 37.1747C98.9784 36.8546 99.6653 36.6945 100.452 36.6945C101.373 36.6945 102.206 36.928 102.953 37.3948C103.7 37.8617 104.287 38.5286 104.714 39.3956C105.154 40.2626 105.374 41.2697 105.374 42.4168C105.374 43.5639 105.154 44.5777 104.714 45.458C104.287 46.325 103.7 46.9986 102.953 47.4788C102.206 47.9457 101.373 48.1791 100.452 48.1791C99.6787 48.1791 98.9917 48.019 98.3915 47.6989C97.8046 47.3788 97.3444 46.9653 97.0109 46.4584V53.3411H93.5896V36.8546H97.0109V38.4352ZM101.893 42.4168C101.893 41.5631 101.653 40.8962 101.173 40.416C100.706 39.9225 100.126 39.6757 99.4319 39.6757C98.7516 39.6757 98.1714 39.9225 97.6912 40.416C97.2244 40.9095 96.9909 41.5831 96.9909 42.4368C96.9909 43.2905 97.2244 43.9641 97.6912 44.4576C98.1714 44.9511 98.7516 45.1979 99.4319 45.1979C100.112 45.1979 100.692 44.9511 101.173 44.4576C101.653 43.9508 101.893 43.2705 101.893 42.4168ZM110.591 33.2132V48.019H107.169V33.2132H110.591ZM112.39 42.4168C112.39 41.2697 112.603 40.2626 113.03 39.3956C113.47 38.5286 114.064 37.8617 114.811 37.3948C115.558 36.928 116.391 36.6945 117.312 36.6945C118.099 36.6945 118.786 36.8546 119.372 37.1747C119.973 37.4949 120.433 37.915 120.753 38.4352V36.8546H124.174V48.019H120.753V46.4384C120.42 46.9586 119.953 47.3788 119.352 47.6989C118.766 48.019 118.079 48.1791 117.292 48.1791C116.385 48.1791 115.558 47.9457 114.811 47.4788C114.064 46.9986 113.47 46.325 113.03 45.458C112.603 44.5777 112.39 43.5639 112.39 42.4168ZM120.753 42.4368C120.753 41.5831 120.513 40.9095 120.033 40.416C119.566 39.9225 118.992 39.6757 118.312 39.6757C117.632 39.6757 117.052 39.9225 116.571 40.416C116.105 40.8962 115.871 41.5631 115.871 42.4168C115.871 43.2705 116.105 43.9508 116.571 44.4576C117.052 44.9511 117.632 45.1979 118.312 45.1979C118.992 45.1979 119.566 44.9511 120.033 44.4576C120.513 43.9641 120.753 43.2905 120.753 42.4368ZM132.872 45.1179V48.019H131.131C129.891 48.019 128.924 47.7189 128.23 47.1187C127.537 46.5051 127.19 45.5114 127.19 44.1375V39.6957H125.829V36.8546H127.19V34.1335H130.611V36.8546H132.852V39.6957H130.611V44.1775C130.611 44.511 130.691 44.7511 130.851 44.8978C131.011 45.0445 131.278 45.1179 131.652 45.1179H132.872ZM145.302 42.2567C145.302 42.5769 145.282 42.9103 145.242 43.2571H137.499C137.552 43.9508 137.772 44.4843 138.159 44.8578C138.559 45.2179 139.046 45.398 139.62 45.398C140.473 45.398 141.067 45.0379 141.4 44.3176H145.042C144.855 45.0512 144.515 45.7115 144.021 46.2984C143.541 46.8852 142.934 47.3454 142.201 47.6789C141.467 48.0124 140.647 48.1791 139.74 48.1791C138.646 48.1791 137.672 47.9457 136.819 47.4788C135.965 47.012 135.298 46.345 134.818 45.478C134.338 44.611 134.098 43.5973 134.098 42.4368C134.098 41.2764 134.331 40.2626 134.798 39.3956C135.278 38.5286 135.945 37.8617 136.799 37.3948C137.652 36.928 138.633 36.6945 139.74 36.6945C140.82 36.6945 141.781 36.9213 142.621 37.3748C143.461 37.8283 144.115 38.4752 144.582 39.3156C145.062 40.1559 145.302 41.1363 145.302 42.2567ZM141.801 41.3564C141.801 40.7695 141.6 40.3026 141.2 39.9558C140.8 39.609 140.3 39.4356 139.7 39.4356C139.126 39.4356 138.639 39.6024 138.239 39.9358C137.852 40.2693 137.612 40.7428 137.519 41.3564H141.801ZM151.649 48.1791C150.675 48.1791 149.808 48.0124 149.048 47.6789C148.287 47.3454 147.687 46.8919 147.247 46.3184C146.807 45.7315 146.56 45.0779 146.507 44.3576H149.888C149.928 44.7444 150.108 45.0579 150.428 45.298C150.748 45.538 151.142 45.6581 151.609 45.6581C152.036 45.6581 152.362 45.5781 152.589 45.418C152.829 45.2446 152.949 45.0245 152.949 44.7577C152.949 44.4376 152.782 44.2042 152.449 44.0575C152.116 43.8974 151.575 43.724 150.828 43.5373C150.028 43.3505 149.361 43.1571 148.828 42.957C148.294 42.7436 147.834 42.4168 147.447 41.9766C147.06 41.5231 146.867 40.9162 146.867 40.1559C146.867 39.5157 147.04 38.9354 147.387 38.4152C147.747 37.8817 148.267 37.4615 148.948 37.1547C149.641 36.8479 150.462 36.6945 151.409 36.6945C152.809 36.6945 153.91 37.0413 154.71 37.735C155.524 38.4286 155.99 39.3489 156.11 40.4961H152.949C152.896 40.1092 152.722 39.8024 152.429 39.5757C152.149 39.3489 151.775 39.2356 151.309 39.2356C150.908 39.2356 150.602 39.3156 150.388 39.4756C150.175 39.6224 150.068 39.8291 150.068 40.0959C150.068 40.416 150.235 40.6561 150.568 40.8162C150.915 40.9762 151.449 41.1363 152.169 41.2964C152.996 41.5098 153.669 41.7232 154.19 41.9366C154.71 42.1367 155.163 42.4702 155.55 42.937C155.95 43.3905 156.157 44.0041 156.17 44.7777C156.17 45.4313 155.984 46.0182 155.61 46.5384C155.25 47.0453 154.723 47.4455 154.03 47.7389C153.349 48.0324 152.556 48.1791 151.649 48.1791Z" fill="black"/>
<path d="M47.0186 20.0079H537.97V21.0083H47.0186V20.0079ZM47.0186 50.0198H157.031V51.0202H47.0186V50.0198Z" fill="black"/>
<a href="https://www.bypeople.com/90-brutalist-business-card-poster-templates-svg-file-format/">
<rect fill="black" fill-opacity="0" width="490.757" height="30"/>
</a>
<a href="https://www.bypeople.com/90-brutalist-business-card-poster-templates-svg-file-format/">
<rect fill="black" fill-opacity="0" y="30" width="109.969" height="30"/>
</a>
<path d="M21.2368 0H14.1083C13.3268 0 12.6925 0.63427 12.6925 1.41578C12.6925 2.19729 13.3268 2.83156 14.1083 2.83156H17.8191L8.42959 12.221C7.87673 12.7739 7.87673 13.6701 8.42959 14.2229C8.70637 14.4997 9.06811 14.6378 9.43055 14.6378C9.79299 14.6378 10.1554 14.4997 10.4315 14.2229L19.821 4.83419V8.54566C19.821 9.32717 20.4552 9.96144 21.2368 9.96144C22.0183 9.96144 22.6525 9.32717 22.6525 8.54566V1.41578C22.6525 0.63427 22.0183 0 21.2368 0Z" fill="black"/>
<path d="M21.2367 12.742C20.4552 12.742 19.8209 13.3763 19.8209 14.1578V19.8209H2.83156V2.83156H8.49469C9.2762 2.83156 9.91047 2.19729 9.91047 1.41578C9.91047 0.63427 9.2762 0 8.49469 0H2.83156C1.26996 0 0 1.26996 0 2.83156V19.8209C0 21.3826 1.26996 22.6525 2.83156 22.6525H19.8209C21.3826 22.6525 22.6525 21.3826 22.6525 19.8209V14.1578C22.6525 13.3763 22.0182 12.742 21.2367 12.742Z" fill="black"/>
<path d="M694.935 10.9643C694.935 9.57713 695.236 8.34331 695.836 7.26288C696.436 6.16911 697.27 5.32211 698.337 4.72187C699.417 4.10829 700.638 3.80151 701.998 3.80151C703.666 3.80151 705.093 4.24168 706.28 5.12203C707.467 6.00238 708.261 7.20285 708.661 8.72346H704.899C704.619 8.13656 704.219 7.68971 703.699 7.38293C703.192 7.07614 702.612 6.92274 701.958 6.92274C700.904 6.92274 700.051 7.28956 699.397 8.02318C698.744 8.7568 698.417 9.73719 698.417 10.9643C698.417 12.1915 698.744 13.1719 699.397 13.9055C700.051 14.6391 700.904 15.0059 701.958 15.0059C702.612 15.0059 703.192 14.8526 703.699 14.5458C704.219 14.239 704.619 13.7921 704.899 13.2052H708.661C708.261 14.7258 707.467 15.9263 706.28 16.8067C705.093 17.6737 703.666 18.1072 701.998 18.1072C700.638 18.1072 699.417 17.8071 698.337 17.2068C697.27 16.5932 696.436 15.7462 695.836 14.6658C695.236 13.5854 694.935 12.3516 694.935 10.9643ZM717.619 6.72266C718.899 6.72266 719.926 7.1495 720.7 8.00317C721.474 8.8435 721.86 10.004 721.86 11.4846V18.0071H718.459V11.9447C718.459 11.1978 718.266 10.6175 717.879 10.204C717.492 9.79055 716.972 9.5838 716.318 9.5838C715.665 9.5838 715.144 9.79055 714.758 10.204C714.371 10.6175 714.177 11.1978 714.177 11.9447V18.0071H710.756V3.20127H714.177V8.34331C714.524 7.84978 714.998 7.45629 715.598 7.16284C716.198 6.86939 716.872 6.72266 717.619 6.72266ZM734.762 12.2449C734.762 12.565 734.742 12.8984 734.702 13.2452H726.959C727.012 13.9389 727.233 14.4724 727.619 14.8459C728.019 15.206 728.506 15.3861 729.08 15.3861C729.934 15.3861 730.527 15.026 730.861 14.3057H734.502C734.315 15.0393 733.975 15.6996 733.482 16.2865C733.001 16.8734 732.395 17.3335 731.661 17.667C730.927 18.0005 730.107 18.1672 729.2 18.1672C728.106 18.1672 727.132 17.9338 726.279 17.4669C725.425 17.0001 724.758 16.3331 724.278 15.4661C723.798 14.5991 723.558 13.5854 723.558 12.4249C723.558 11.2645 723.791 10.2507 724.258 9.38372C724.738 8.51671 725.405 7.84978 726.259 7.38293C727.112 6.91607 728.093 6.68265 729.2 6.68265C730.28 6.68265 731.241 6.9094 732.081 7.36292C732.921 7.81643 733.575 8.46335 734.042 9.30369C734.522 10.144 734.762 11.1244 734.762 12.2449ZM731.261 11.3445C731.261 10.7576 731.061 10.2907 730.661 9.94394C730.26 9.59714 729.76 9.42373 729.16 9.42373C728.586 9.42373 728.1 9.59047 727.699 9.92393C727.313 10.2574 727.072 10.7309 726.979 11.3445H731.261ZM735.887 12.4249C735.887 11.2645 736.12 10.2507 736.587 9.38372C737.067 8.51671 737.728 7.84978 738.568 7.38293C739.422 6.91607 740.395 6.68265 741.489 6.68265C742.89 6.68265 744.057 7.04946 744.99 7.78308C745.937 8.51671 746.558 9.55045 746.851 10.8843H743.21C742.903 10.0306 742.309 9.60381 741.429 9.60381C740.802 9.60381 740.302 9.85057 739.928 10.3441C739.555 10.8243 739.368 11.5179 739.368 12.4249C739.368 13.332 739.555 14.0322 739.928 14.5258C740.302 15.0059 740.802 15.246 741.429 15.246C742.309 15.246 742.903 14.8192 743.21 13.9655H746.851C746.558 15.2727 745.937 16.2998 744.99 17.0468C744.043 17.7937 742.876 18.1672 741.489 18.1672C740.395 18.1672 739.422 17.9338 738.568 17.4669C737.728 17.0001 737.067 16.3331 736.587 15.4661C736.12 14.5991 735.887 13.5854 735.887 12.4249ZM755.504 18.0071L752.103 13.3253V18.0071H748.681V3.20127H752.103V11.3845L755.484 6.84271H759.706L755.064 12.4449L759.746 18.0071H755.504ZM771.932 18.1472C770.612 18.1472 769.398 17.8404 768.291 17.2268C767.197 16.6133 766.323 15.7596 765.67 14.6658C765.029 13.5587 764.709 12.3182 764.709 10.9443C764.709 9.57046 765.029 8.33664 765.67 7.24287C766.323 6.1491 767.197 5.29543 768.291 4.68186C769.398 4.06828 770.612 3.76149 771.932 3.76149C773.253 3.76149 774.46 4.06828 775.553 4.68186C776.661 5.29543 777.528 6.1491 778.155 7.24287C778.795 8.33664 779.115 9.57046 779.115 10.9443C779.115 12.3182 778.795 13.5587 778.155 14.6658C777.514 15.7596 776.647 16.6133 775.553 17.2268C774.46 17.8404 773.253 18.1472 771.932 18.1472ZM771.932 15.026C773.052 15.026 773.946 14.6525 774.613 13.9055C775.293 13.1585 775.634 12.1715 775.634 10.9443C775.634 9.70385 775.293 8.71679 774.613 7.98316C773.946 7.2362 773.052 6.86272 771.932 6.86272C770.798 6.86272 769.891 7.22953 769.211 7.96316C768.544 8.69678 768.211 9.69051 768.211 10.9443C768.211 12.1848 768.544 13.1786 769.211 13.9255C769.891 14.6591 770.798 15.026 771.932 15.026ZM792.043 6.84271V18.0071H788.621V16.4865C788.275 16.9801 787.801 17.3802 787.201 17.687C786.614 17.9805 785.96 18.1272 785.24 18.1272C784.386 18.1272 783.633 17.9404 782.979 17.567C782.325 17.1801 781.819 16.6266 781.458 15.9063C781.098 15.186 780.918 14.339 780.918 13.3653V6.84271H784.32V12.9051C784.32 13.6521 784.513 14.2323 784.9 14.6458C785.287 15.0593 785.807 15.2661 786.46 15.2661C787.127 15.2661 787.654 15.0593 788.041 14.6458C788.428 14.2323 788.621 13.6521 788.621 12.9051V6.84271H792.043ZM800.723 15.106V18.0071H798.982C797.741 18.0071 796.774 17.707 796.081 17.1068C795.387 16.4932 795.04 15.4995 795.04 14.1256V9.68384H793.68V6.84271H795.04V4.12163H798.462V6.84271H800.703V9.68384H798.462V14.1656C798.462 14.4991 798.542 14.7392 798.702 14.8859C798.862 15.0326 799.129 15.106 799.502 15.106H800.723ZM806.288 10.9643C806.288 9.57713 806.588 8.34331 807.189 7.26288C807.789 6.16911 808.622 5.32211 809.69 4.72187C810.77 4.10829 811.99 3.80151 813.351 3.80151C815.018 3.80151 816.446 4.24168 817.633 5.12203C818.82 6.00238 819.613 7.20285 820.014 8.72346H816.252C815.972 8.13656 815.572 7.68971 815.052 7.38293C814.545 7.07614 813.965 6.92274 813.311 6.92274C812.257 6.92274 811.404 7.28956 810.75 8.02318C810.096 8.7568 809.77 9.73719 809.77 10.9643C809.77 12.1915 810.096 13.1719 810.75 13.9055C811.404 14.6391 812.257 15.0059 813.311 15.0059C813.965 15.0059 814.545 14.8526 815.052 14.5458C815.572 14.239 815.972 13.7921 816.252 13.2052H820.014C819.613 14.7258 818.82 15.9263 817.633 16.8067C816.446 17.6737 815.018 18.1072 813.351 18.1072C811.99 18.1072 810.77 17.8071 809.69 17.2068C808.622 16.5932 807.789 15.7462 807.189 14.6658C806.588 13.5854 806.288 12.3516 806.288 10.9643ZM825.53 8.70345C825.93 8.08987 826.431 7.60968 827.031 7.26288C827.631 6.90274 828.298 6.72266 829.032 6.72266V10.3441H828.091C827.238 10.3441 826.597 10.5308 826.17 10.9043C825.744 11.2645 825.53 11.9047 825.53 12.8251V18.0071H822.109V6.84271H825.53V8.70345ZM841.191 12.2449C841.191 12.565 841.171 12.8984 841.131 13.2452H833.388C833.441 13.9389 833.661 14.4724 834.048 14.8459C834.448 15.206 834.935 15.3861 835.509 15.3861C836.362 15.3861 836.956 15.026 837.29 14.3057H840.931C840.744 15.0393 840.404 15.6996 839.911 16.2865C839.43 16.8734 838.823 17.3335 838.09 17.667C837.356 18.0005 836.536 18.1672 835.629 18.1672C834.535 18.1672 833.561 17.9338 832.708 17.4669C831.854 17.0001 831.187 16.3331 830.707 15.4661C830.227 14.5991 829.987 13.5854 829.987 12.4249C829.987 11.2645 830.22 10.2507 830.687 9.38372C831.167 8.51671 831.834 7.84978 832.688 7.38293C833.541 6.91607 834.522 6.68265 835.629 6.68265C836.709 6.68265 837.67 6.9094 838.51 7.36292C839.35 7.81643 840.004 8.46335 840.471 9.30369C840.951 10.144 841.191 11.1244 841.191 12.2449ZM837.69 11.3445C837.69 10.7576 837.49 10.2907 837.089 9.94394C836.689 9.59714 836.189 9.42373 835.589 9.42373C835.015 9.42373 834.528 9.59047 834.128 9.92393C833.741 10.2574 833.501 10.7309 833.408 11.3445H837.69ZM842.316 12.4049C842.316 11.2578 842.529 10.2507 842.956 9.38372C843.396 8.51671 843.99 7.84978 844.737 7.38293C845.484 6.91607 846.317 6.68265 847.238 6.68265C848.025 6.68265 848.712 6.84271 849.298 7.16284C849.899 7.48297 850.359 7.90313 850.679 8.42334V6.84271H854.1V18.0071H850.679V16.4265C850.346 16.9467 849.879 17.3669 849.278 17.687C848.692 18.0071 848.005 18.1672 847.218 18.1672C846.311 18.1672 845.484 17.9338 844.737 17.4669C843.99 16.9867 843.396 16.3131 842.956 15.4461C842.529 14.5658 842.316 13.552 842.316 12.4049ZM850.679 12.4249C850.679 11.5713 850.439 10.8977 849.959 10.4041C849.492 9.91059 848.918 9.66383 848.238 9.66383C847.558 9.66383 846.978 9.91059 846.497 10.4041C846.031 10.8843 845.797 11.5512 845.797 12.4049C845.797 13.2586 846.031 13.9389 846.497 14.4457C846.978 14.9393 847.558 15.186 848.238 15.186C848.918 15.186 849.492 14.9393 849.959 14.4457C850.439 13.9522 850.679 13.2786 850.679 12.4249ZM862.798 15.106V18.0071H861.057C859.817 18.0071 858.85 17.707 858.156 17.1068C857.463 16.4932 857.116 15.4995 857.116 14.1256V9.68384H855.755V6.84271H857.116V4.12163H860.537V6.84271H862.778V9.68384H860.537V14.1656C860.537 14.4991 860.617 14.7392 860.777 14.8859C860.937 15.0326 861.204 15.106 861.578 15.106H862.798ZM866.424 5.68225C865.824 5.68225 865.331 5.50885 864.944 5.16205C864.57 4.8019 864.384 4.36173 864.384 3.84152C864.384 3.30798 864.57 2.8678 864.944 2.521C865.331 2.16086 865.824 1.98078 866.424 1.98078C867.011 1.98078 867.492 2.16086 867.865 2.521C868.252 2.8678 868.445 3.30798 868.445 3.84152C868.445 4.36173 868.252 4.8019 867.865 5.16205C867.492 5.50885 867.011 5.68225 866.424 5.68225ZM868.125 6.84271V18.0071H864.704V6.84271H868.125ZM875.627 14.8059L878.048 6.84271H881.689L877.727 18.0071H873.506L869.544 6.84271H873.206L875.627 14.8059ZM893.653 12.2449C893.653 12.565 893.633 12.8984 893.593 13.2452H885.85C885.904 13.9389 886.124 14.4724 886.51 14.8459C886.911 15.206 887.397 15.3861 887.971 15.3861C888.825 15.3861 889.418 15.026 889.752 14.3057H893.393C893.206 15.0393 892.866 15.6996 892.373 16.2865C891.893 16.8734 891.286 17.3335 890.552 17.667C889.818 18.0005 888.998 18.1672 888.091 18.1672C886.997 18.1672 886.024 17.9338 885.17 17.4669C884.316 17.0001 883.649 16.3331 883.169 15.4661C882.689 14.5991 882.449 13.5854 882.449 12.4249C882.449 11.2645 882.682 10.2507 883.149 9.38372C883.629 8.51671 884.296 7.84978 885.15 7.38293C886.004 6.91607 886.984 6.68265 888.091 6.68265C889.171 6.68265 890.132 6.9094 890.972 7.36292C891.813 7.81643 892.466 8.46335 892.933 9.30369C893.413 10.144 893.653 11.1244 893.653 12.2449ZM890.152 11.3445C890.152 10.7576 889.952 10.2907 889.552 9.94394C889.151 9.59714 888.651 9.42373 888.051 9.42373C887.477 9.42373 886.991 9.59047 886.59 9.92393C886.204 10.2574 885.964 10.7309 885.87 11.3445H890.152ZM909.802 3.96157V6.70266H906.081V18.0071H902.659V6.70266H898.938V3.96157H909.802ZM916.601 18.1672C915.507 18.1672 914.52 17.9338 913.64 17.4669C912.773 17.0001 912.086 16.3331 911.579 15.4661C911.086 14.5991 910.839 13.5854 910.839 12.4249C910.839 11.2778 911.092 10.2707 911.599 9.40373C912.106 8.52338 912.8 7.84978 913.68 7.38293C914.56 6.91607 915.548 6.68265 916.641 6.68265C917.735 6.68265 918.722 6.91607 919.602 7.38293C920.483 7.84978 921.176 8.52338 921.683 9.40373C922.19 10.2707 922.444 11.2778 922.444 12.4249C922.444 13.572 922.183 14.5858 921.663 15.4661C921.156 16.3331 920.456 17.0001 919.562 17.4669C918.682 17.9338 917.695 18.1672 916.601 18.1672ZM916.601 15.206C917.255 15.206 917.808 14.9659 918.262 14.4857C918.729 14.0056 918.962 13.3186 918.962 12.4249C918.962 11.5312 918.735 10.8443 918.282 10.3641C917.842 9.88392 917.295 9.64382 916.641 9.64382C915.974 9.64382 915.421 9.88392 914.981 10.3641C914.54 10.831 914.32 11.5179 914.32 12.4249C914.32 13.3186 914.534 14.0056 914.961 14.4857C915.401 14.9659 915.948 15.206 916.601 15.206ZM929.341 18.1672C928.247 18.1672 927.26 17.9338 926.38 17.4669C925.512 17.0001 924.826 16.3331 924.319 15.4661C923.825 14.5991 923.578 13.5854 923.578 12.4249C923.578 11.2778 923.832 10.2707 924.339 9.40373C924.846 8.52338 925.539 7.84978 926.42 7.38293C927.3 6.91607 928.287 6.68265 929.381 6.68265C930.474 6.68265 931.462 6.91607 932.342 7.38293C933.222 7.84978 933.916 8.52338 934.423 9.40373C934.93 10.2707 935.183 11.2778 935.183 12.4249C935.183 13.572 934.923 14.5858 934.403 15.4661C933.896 16.3331 933.196 17.0001 932.302 17.4669C931.422 17.9338 930.434 18.1672 929.341 18.1672ZM929.341 15.206C929.994 15.206 930.548 14.9659 931.001 14.4857C931.468 14.0056 931.702 13.3186 931.702 12.4249C931.702 11.5312 931.475 10.8443 931.021 10.3641C930.581 9.88392 930.034 9.64382 929.381 9.64382C928.714 9.64382 928.16 9.88392 927.72 10.3641C927.28 10.831 927.06 11.5179 927.06 12.4249C927.06 13.3186 927.273 14.0056 927.7 14.4857C928.14 14.9659 928.687 15.206 929.341 15.206ZM940.419 3.20127V18.0071H936.998V3.20127H940.419ZM949.722 18.0071L946.32 13.3253V18.0071H942.899V3.20127H946.32V11.3845L949.702 6.84271H953.923L949.281 12.4449L953.963 18.0071H949.722ZM956.988 5.68225C956.387 5.68225 955.894 5.50885 955.507 5.16205C955.134 4.8019 954.947 4.36173 954.947 3.84152C954.947 3.30798 955.134 2.8678 955.507 2.521C955.894 2.16086 956.387 1.98078 956.988 1.98078C957.575 1.98078 958.055 2.16086 958.428 2.521C958.815 2.8678 959.009 3.30798 959.009 3.84152C959.009 4.36173 958.815 4.8019 958.428 5.16205C958.055 5.50885 957.575 5.68225 956.988 5.68225ZM958.688 6.84271V18.0071H955.267V6.84271H958.688ZM967.39 15.106V18.0071H965.65C964.409 18.0071 963.442 17.707 962.748 17.1068C962.055 16.4932 961.708 15.4995 961.708 14.1256V9.68384H960.348V6.84271H961.708V4.12163H965.129V6.84271H967.37V9.68384H965.129V14.1656C965.129 14.4991 965.209 14.7392 965.369 14.8859C965.53 15.0326 965.796 15.106 966.17 15.106H967.39ZM972.978 14.8459L970.757 20.5882H968.576L969.736 14.8459H972.978ZM989.384 3.96157V6.70266H985.663V18.0071H982.242V6.70266H978.52V3.96157H989.384ZM997.964 6.72266C999.245 6.72266 1000.27 7.1495 1001.05 8.00317C1001.82 8.8435 1002.21 10.004 1002.21 11.4846V18.0071H998.805V11.9447C998.805 11.1978 998.611 10.6175 998.224 10.204C997.838 9.79055 997.317 9.5838 996.664 9.5838C996.01 9.5838 995.49 9.79055 995.103 10.204C994.716 10.6175 994.523 11.1978 994.523 11.9447V18.0071H991.102V3.20127H994.523V8.34331C994.87 7.84978 995.343 7.45629 995.943 7.16284C996.544 6.86939 997.217 6.72266 997.964 6.72266ZM1015.11 12.2449C1015.11 12.565 1015.09 12.8984 1015.05 13.2452H1007.3C1007.36 13.9389 1007.58 14.4724 1007.96 14.8459C1008.36 15.206 1008.85 15.3861 1009.43 15.3861C1010.28 15.3861 1010.87 15.026 1011.21 14.3057H1014.85C1014.66 15.0393 1014.32 15.6996 1013.83 16.2865C1013.35 16.8734 1012.74 17.3335 1012.01 17.667C1011.27 18.0005 1010.45 18.1672 1009.55 18.1672C1008.45 18.1672 1007.48 17.9338 1006.62 17.4669C1005.77 17.0001 1005.1 16.3331 1004.62 15.4661C1004.14 14.5991 1003.9 13.5854 1003.9 12.4249C1003.9 11.2645 1004.14 10.2507 1004.6 9.38372C1005.08 8.51671 1005.75 7.84978 1006.6 7.38293C1007.46 6.91607 1008.44 6.68265 1009.55 6.68265C1010.63 6.68265 1011.59 6.9094 1012.43 7.36292C1013.27 7.81643 1013.92 8.46335 1014.39 9.30369C1014.87 10.144 1015.11 11.1244 1015.11 12.2449ZM1011.61 11.3445C1011.61 10.7576 1011.41 10.2907 1011.01 9.94394C1010.61 9.59714 1010.11 9.42373 1009.51 9.42373C1008.93 9.42373 1008.45 9.59047 1008.04 9.92393C1007.66 10.2574 1007.42 10.7309 1007.32 11.3445H1011.61ZM1024.57 15.3661H1029.06V18.0071H1021.15V3.96157H1024.57V15.3661ZM1030.01 12.4049C1030.01 11.2578 1030.22 10.2507 1030.65 9.38372C1031.09 8.51671 1031.68 7.84978 1032.43 7.38293C1033.18 6.91607 1034.01 6.68265 1034.93 6.68265C1035.72 6.68265 1036.4 6.84271 1036.99 7.16284C1037.59 7.48297 1038.05 7.90313 1038.37 8.42334V6.84271H1041.79V18.0071H1038.37V16.4265C1038.04 16.9467 1037.57 17.3669 1036.97 17.687C1036.38 18.0071 1035.7 18.1672 1034.91 18.1672C1034 18.1672 1033.18 17.9338 1032.43 17.4669C1031.68 16.9867 1031.09 16.3131 1030.65 15.4461C1030.22 14.5658 1030.01 13.552 1030.01 12.4049ZM1038.37 12.4249C1038.37 11.5713 1038.13 10.8977 1037.65 10.4041C1037.18 9.91059 1036.61 9.66383 1035.93 9.66383C1035.25 9.66383 1034.67 9.91059 1034.19 10.4041C1033.72 10.8843 1033.49 11.5512 1033.49 12.4049C1033.49 13.2586 1033.72 13.9389 1034.19 14.4457C1034.67 14.9393 1035.25 15.186 1035.93 15.186C1036.61 15.186 1037.18 14.9393 1037.65 14.4457C1038.13 13.9522 1038.37 13.2786 1038.37 12.4249ZM1047.69 8.70345C1048.09 8.08987 1048.59 7.60968 1049.19 7.26288C1049.79 6.90274 1050.46 6.72266 1051.19 6.72266V10.3441H1050.25C1049.4 10.3441 1048.76 10.5308 1048.33 10.9043C1047.9 11.2645 1047.69 11.9047 1047.69 12.8251V18.0071H1044.27V6.84271H1047.69V8.70345ZM1057.07 6.68265C1057.85 6.68265 1058.54 6.84271 1059.13 7.16284C1059.73 7.48297 1060.19 7.90313 1060.51 8.42334V6.84271H1063.93V17.9871C1063.93 19.0142 1063.72 19.9412 1063.31 20.7682C1062.91 21.6086 1062.29 22.2755 1061.45 22.769C1060.62 23.2626 1059.59 23.5093 1058.35 23.5093C1056.69 23.5093 1055.35 23.1158 1054.33 22.3289C1053.3 21.5552 1052.71 20.5015 1052.57 19.1676H1055.95C1056.05 19.5944 1056.31 19.9279 1056.71 20.168C1057.11 20.4214 1057.6 20.5481 1058.19 20.5481C1058.89 20.5481 1059.45 20.3414 1059.87 19.9279C1060.29 19.5277 1060.51 18.8808 1060.51 17.9871V16.4065C1060.17 16.9267 1059.71 17.3535 1059.13 17.687C1058.54 18.0071 1057.85 18.1672 1057.07 18.1672C1056.15 18.1672 1055.31 17.9338 1054.57 17.4669C1053.82 16.9867 1053.23 16.3131 1052.79 15.4461C1052.36 14.5658 1052.14 13.552 1052.14 12.4049C1052.14 11.2578 1052.36 10.2507 1052.79 9.38372C1053.23 8.51671 1053.82 7.84978 1054.57 7.38293C1055.31 6.91607 1056.15 6.68265 1057.07 6.68265ZM1060.51 12.4249C1060.51 11.5713 1060.27 10.8977 1059.79 10.4041C1059.32 9.91059 1058.75 9.66383 1058.07 9.66383C1057.39 9.66383 1056.81 9.91059 1056.33 10.4041C1055.86 10.8843 1055.63 11.5512 1055.63 12.4049C1055.63 13.2586 1055.86 13.9389 1056.33 14.4457C1056.81 14.9393 1057.39 15.186 1058.07 15.186C1058.75 15.186 1059.32 14.9393 1059.79 14.4457C1060.27 13.9522 1060.51 13.2786 1060.51 12.4249ZM1076.93 12.2449C1076.93 12.565 1076.91 12.8984 1076.87 13.2452H1069.13C1069.18 13.9389 1069.4 14.4724 1069.79 14.8459C1070.19 15.206 1070.67 15.3861 1071.25 15.3861C1072.1 15.3861 1072.69 15.026 1073.03 14.3057H1076.67C1076.48 15.0393 1076.14 15.6996 1075.65 16.2865C1075.17 16.8734 1074.56 17.3335 1073.83 17.667C1073.09 18.0005 1072.27 18.1672 1071.37 18.1672C1070.27 18.1672 1069.3 17.9338 1068.45 17.4669C1067.59 17.0001 1066.93 16.3331 1066.44 15.4661C1065.96 14.5991 1065.72 13.5854 1065.72 12.4249C1065.72 11.2645 1065.96 10.2507 1066.42 9.38372C1066.91 8.51671 1067.57 7.84978 1068.43 7.38293C1069.28 6.91607 1070.26 6.68265 1071.37 6.68265C1072.45 6.68265 1073.41 6.9094 1074.25 7.36292C1075.09 7.81643 1075.74 8.46335 1076.21 9.30369C1076.69 10.144 1076.93 11.1244 1076.93 12.2449ZM1073.43 11.3445C1073.43 10.7576 1073.23 10.2907 1072.83 9.94394C1072.43 9.59714 1071.93 9.42373 1071.33 9.42373C1070.75 9.42373 1070.27 9.59047 1069.87 9.92393C1069.48 10.2574 1069.24 10.7309 1069.15 11.3445H1073.43ZM1083.28 18.1672C1082.3 18.1672 1081.44 18.0005 1080.67 17.667C1079.91 17.3335 1079.31 16.88 1078.87 16.3065C1078.43 15.7196 1078.19 15.066 1078.13 14.3457H1081.52C1081.56 14.7325 1081.74 15.046 1082.06 15.2861C1082.38 15.5262 1082.77 15.6462 1083.24 15.6462C1083.66 15.6462 1083.99 15.5662 1084.22 15.4061C1084.46 15.2327 1084.58 15.0126 1084.58 14.7458C1084.58 14.4257 1084.41 14.1923 1084.08 14.0456C1083.74 13.8855 1083.2 13.7121 1082.46 13.5254C1081.66 13.3386 1080.99 13.1452 1080.45 12.9451C1079.92 12.7317 1079.46 12.4049 1079.07 11.9647C1078.69 11.5112 1078.49 10.9043 1078.49 10.144C1078.49 9.50377 1078.67 8.92354 1079.01 8.40333C1079.37 7.86979 1079.89 7.44962 1080.57 7.14283C1081.27 6.83604 1082.09 6.68265 1083.04 6.68265C1084.44 6.68265 1085.54 7.02945 1086.34 7.72306C1087.15 8.41667 1087.62 9.33703 1087.74 10.4842H1084.58C1084.52 10.0973 1084.35 9.79055 1084.06 9.56379C1083.78 9.33703 1083.4 9.22366 1082.94 9.22366C1082.54 9.22366 1082.23 9.30369 1082.02 9.46375C1081.8 9.61048 1081.7 9.81722 1081.7 10.084C1081.7 10.4041 1081.86 10.6442 1082.2 10.8043C1082.54 10.9643 1083.08 11.1244 1083.8 11.2845C1084.62 11.4979 1085.3 11.7113 1085.82 11.9247C1086.34 12.1248 1086.79 12.4583 1087.18 12.9251C1087.58 13.3786 1087.78 13.9922 1087.8 14.7659C1087.8 15.4194 1087.61 16.0063 1087.24 16.5266C1086.88 17.0334 1086.35 17.4336 1085.66 17.727C1084.98 18.0205 1084.18 18.1672 1083.28 18.1672ZM1096.11 15.106V18.0071H1094.37C1093.13 18.0071 1092.16 17.707 1091.47 17.1068C1090.78 16.4932 1090.43 15.4995 1090.43 14.1256V9.68384H1089.07V6.84271H1090.43V4.12163H1093.85V6.84271H1096.09V9.68384H1093.85V14.1656C1093.85 14.4991 1093.93 14.7392 1094.09 14.8859C1094.25 15.0326 1094.52 15.106 1094.89 15.106H1096.11ZM1107.52 3.96157C1109 3.96157 1110.3 4.25502 1111.4 4.84192C1112.51 5.42882 1113.36 6.25581 1113.96 7.3229C1114.58 8.37665 1114.88 9.59714 1114.88 10.9844C1114.88 12.3582 1114.58 13.5787 1113.96 14.6458C1113.36 15.7129 1112.5 16.5399 1111.38 17.1268C1110.28 17.7137 1108.99 18.0071 1107.52 18.0071H1102.26V3.96157H1107.52ZM1107.3 15.046C1108.59 15.046 1109.6 14.6925 1110.32 13.9855C1111.04 13.2786 1111.4 12.2782 1111.4 10.9844C1111.4 9.69051 1111.04 8.68344 1110.32 7.96316C1109.6 7.24287 1108.59 6.88273 1107.3 6.88273H1105.68V15.046H1107.3ZM1127.32 12.2449C1127.32 12.565 1127.3 12.8984 1127.26 13.2452H1119.52C1119.57 13.9389 1119.79 14.4724 1120.18 14.8459C1120.58 15.206 1121.06 15.3861 1121.64 15.3861C1122.49 15.3861 1123.09 15.026 1123.42 14.3057H1127.06C1126.87 15.0393 1126.53 15.6996 1126.04 16.2865C1125.56 16.8734 1124.95 17.3335 1124.22 17.667C1123.49 18.0005 1122.66 18.1672 1121.76 18.1672C1120.66 18.1672 1119.69 17.9338 1118.84 17.4669C1117.98 17.0001 1117.32 16.3331 1116.84 15.4661C1116.36 14.5991 1116.12 13.5854 1116.12 12.4249C1116.12 11.2645 1116.35 10.2507 1116.82 9.38372C1117.3 8.51671 1117.96 7.84978 1118.82 7.38293C1119.67 6.91607 1120.65 6.68265 1121.76 6.68265C1122.84 6.68265 1123.8 6.9094 1124.64 7.36292C1125.48 7.81643 1126.13 8.46335 1126.6 9.30369C1127.08 10.144 1127.32 11.1244 1127.32 12.2449ZM1123.82 11.3445C1123.82 10.7576 1123.62 10.2907 1123.22 9.94394C1122.82 9.59714 1122.32 9.42373 1121.72 9.42373C1121.14 9.42373 1120.66 9.59047 1120.26 9.92393C1119.87 10.2574 1119.63 10.7309 1119.54 11.3445H1123.82ZM1133.67 18.1672C1132.69 18.1672 1131.83 18.0005 1131.07 17.667C1130.31 17.3335 1129.71 16.88 1129.27 16.3065C1128.82 15.7196 1128.58 15.066 1128.52 14.3457H1131.91C1131.95 14.7325 1132.13 15.046 1132.45 15.2861C1132.77 15.5262 1133.16 15.6462 1133.63 15.6462C1134.05 15.6462 1134.38 15.5662 1134.61 15.4061C1134.85 15.2327 1134.97 15.0126 1134.97 14.7458C1134.97 14.4257 1134.8 14.1923 1134.47 14.0456C1134.13 13.8855 1133.59 13.7121 1132.85 13.5254C1132.05 13.3386 1131.38 13.1452 1130.85 12.9451C1130.31 12.7317 1129.85 12.4049 1129.47 11.9647C1129.08 11.5112 1128.88 10.9043 1128.88 10.144C1128.88 9.50377 1129.06 8.92354 1129.41 8.40333C1129.77 7.86979 1130.29 7.44962 1130.97 7.14283C1131.66 6.83604 1132.48 6.68265 1133.43 6.68265C1134.83 6.68265 1135.93 7.02945 1136.73 7.72306C1137.54 8.41667 1138.01 9.33703 1138.13 10.4842H1134.97C1134.91 10.0973 1134.74 9.79055 1134.45 9.56379C1134.17 9.33703 1133.79 9.22366 1133.33 9.22366C1132.93 9.22366 1132.62 9.30369 1132.41 9.46375C1132.19 9.61048 1132.09 9.81722 1132.09 10.084C1132.09 10.4041 1132.25 10.6442 1132.59 10.8043C1132.93 10.9643 1133.47 11.1244 1134.19 11.2845C1135.01 11.4979 1135.69 11.7113 1136.21 11.9247C1136.73 12.1248 1137.18 12.4583 1137.57 12.9251C1137.97 13.3786 1138.18 13.9922 1138.19 14.7659C1138.19 15.4194 1138 16.0063 1137.63 16.5266C1137.27 17.0334 1136.74 17.4336 1136.05 17.727C1135.37 18.0205 1134.57 18.1672 1133.67 18.1672ZM1142 5.68225C1141.4 5.68225 1140.91 5.50885 1140.52 5.16205C1140.15 4.8019 1139.96 4.36173 1139.96 3.84152C1139.96 3.30798 1140.15 2.8678 1140.52 2.521C1140.91 2.16086 1141.4 1.98078 1142 1.98078C1142.59 1.98078 1143.07 2.16086 1143.44 2.521C1143.83 2.8678 1144.02 3.30798 1144.02 3.84152C1144.02 4.36173 1143.83 4.8019 1143.44 5.16205C1143.07 5.50885 1142.59 5.68225 1142 5.68225ZM1143.7 6.84271V18.0071H1140.28V6.84271H1143.7ZM1150.42 6.68265C1151.21 6.68265 1151.9 6.84271 1152.49 7.16284C1153.09 7.48297 1153.55 7.90313 1153.87 8.42334V6.84271H1157.29V17.9871C1157.29 19.0142 1157.08 19.9412 1156.67 20.7682C1156.27 21.6086 1155.65 22.2755 1154.81 22.769C1153.98 23.2626 1152.95 23.5093 1151.7 23.5093C1150.05 23.5093 1148.71 23.1158 1147.68 22.3289C1146.66 21.5552 1146.07 20.5015 1145.92 19.1676H1149.3C1149.41 19.5944 1149.66 19.9279 1150.06 20.168C1150.46 20.4214 1150.96 20.5481 1151.54 20.5481C1152.25 20.5481 1152.81 20.3414 1153.23 19.9279C1153.65 19.5277 1153.87 18.8808 1153.87 17.9871V16.4065C1153.53 16.9267 1153.07 17.3535 1152.49 17.687C1151.9 18.0071 1151.21 18.1672 1150.42 18.1672C1149.5 18.1672 1148.67 17.9338 1147.92 17.4669C1147.18 16.9867 1146.58 16.3131 1146.14 15.4461C1145.72 14.5658 1145.5 13.552 1145.5 12.4049C1145.5 11.2578 1145.72 10.2507 1146.14 9.38372C1146.58 8.51671 1147.18 7.84978 1147.92 7.38293C1148.67 6.91607 1149.5 6.68265 1150.42 6.68265ZM1153.87 12.4249C1153.87 11.5713 1153.63 10.8977 1153.15 10.4041C1152.68 9.91059 1152.1 9.66383 1151.42 9.66383C1150.74 9.66383 1150.16 9.91059 1149.68 10.4041C1149.22 10.8843 1148.98 11.5512 1148.98 12.4049C1148.98 13.2586 1149.22 13.9389 1149.68 14.4457C1150.16 14.9393 1150.74 15.186 1151.42 15.186C1152.1 15.186 1152.68 14.9393 1153.15 14.4457C1153.63 13.9522 1153.87 13.2786 1153.87 12.4249ZM1166.56 6.72266C1167.87 6.72266 1168.91 7.1495 1169.69 8.00317C1170.47 8.8435 1170.87 10.004 1170.87 11.4846V18.0071H1167.47V11.9447C1167.47 11.1978 1167.27 10.6175 1166.88 10.204C1166.5 9.79055 1165.98 9.5838 1165.32 9.5838C1164.67 9.5838 1164.15 9.79055 1163.76 10.204C1163.38 10.6175 1163.18 11.1978 1163.18 11.9447V18.0071H1159.76V6.84271H1163.18V8.3233C1163.53 7.82977 1164 7.44295 1164.58 7.16284C1165.17 6.86939 1165.83 6.72266 1166.56 6.72266ZM1184.65 18.0071L1181.73 12.705H1180.91V18.0071H1177.48V3.96157H1183.23C1184.33 3.96157 1185.27 4.15498 1186.05 4.5418C1186.83 4.92862 1187.42 5.46216 1187.81 6.14243C1188.19 6.80936 1188.39 7.55633 1188.39 8.38332C1188.39 9.31703 1188.12 10.1507 1187.59 10.8843C1187.07 11.6179 1186.29 12.1381 1185.27 12.4449L1188.51 18.0071H1184.65ZM1180.91 10.2841H1183.03C1183.65 10.2841 1184.12 10.1307 1184.43 9.82389C1184.75 9.51711 1184.91 9.0836 1184.91 8.52338C1184.91 7.98983 1184.75 7.56967 1184.43 7.26288C1184.12 6.95609 1183.65 6.8027 1183.03 6.8027H1180.91V10.2841ZM1201.06 12.2449C1201.06 12.565 1201.04 12.8984 1201 13.2452H1193.26C1193.31 13.9389 1193.53 14.4724 1193.92 14.8459C1194.32 15.206 1194.8 15.3861 1195.38 15.3861C1196.23 15.3861 1196.83 15.026 1197.16 14.3057H1200.8C1200.61 15.0393 1200.27 15.6996 1199.78 16.2865C1199.3 16.8734 1198.69 17.3335 1197.96 17.667C1197.23 18.0005 1196.41 18.1672 1195.5 18.1672C1194.4 18.1672 1193.43 17.9338 1192.58 17.4669C1191.72 17.0001 1191.06 16.3331 1190.58 15.4661C1190.1 14.5991 1189.86 13.5854 1189.86 12.4249C1189.86 11.2645 1190.09 10.2507 1190.56 9.38372C1191.04 8.51671 1191.7 7.84978 1192.56 7.38293C1193.41 6.91607 1194.39 6.68265 1195.5 6.68265C1196.58 6.68265 1197.54 6.9094 1198.38 7.36292C1199.22 7.81643 1199.87 8.46335 1200.34 9.30369C1200.82 10.144 1201.06 11.1244 1201.06 12.2449ZM1197.56 11.3445C1197.56 10.7576 1197.36 10.2907 1196.96 9.94394C1196.56 9.59714 1196.06 9.42373 1195.46 9.42373C1194.88 9.42373 1194.4 9.59047 1194 9.92393C1193.61 10.2574 1193.37 10.7309 1193.28 11.3445H1197.56ZM1207.41 18.1672C1206.43 18.1672 1205.57 18.0005 1204.81 17.667C1204.05 17.3335 1203.45 16.88 1203.01 16.3065C1202.57 15.7196 1202.32 15.066 1202.26 14.3457H1205.65C1205.69 14.7325 1205.87 15.046 1206.19 15.2861C1206.51 15.5262 1206.9 15.6462 1207.37 15.6462C1207.79 15.6462 1208.12 15.5662 1208.35 15.4061C1208.59 15.2327 1208.71 15.0126 1208.71 14.7458C1208.71 14.4257 1208.54 14.1923 1208.21 14.0456C1207.87 13.8855 1207.33 13.7121 1206.59 13.5254C1205.79 13.3386 1205.12 13.1452 1204.59 12.9451C1204.05 12.7317 1203.59 12.4049 1203.21 11.9647C1202.82 11.5112 1202.63 10.9043 1202.63 10.144C1202.63 9.50377 1202.8 8.92354 1203.15 8.40333C1203.51 7.86979 1204.03 7.44962 1204.71 7.14283C1205.4 6.83604 1206.22 6.68265 1207.17 6.68265C1208.57 6.68265 1209.67 7.02945 1210.47 7.72306C1211.28 8.41667 1211.75 9.33703 1211.87 10.4842H1208.71C1208.65 10.0973 1208.48 9.79055 1208.19 9.56379C1207.91 9.33703 1207.53 9.22366 1207.07 9.22366C1206.67 9.22366 1206.36 9.30369 1206.15 9.46375C1205.93 9.61048 1205.83 9.81722 1205.83 10.084C1205.83 10.4041 1205.99 10.6442 1206.33 10.8043C1206.67 10.9643 1207.21 11.1244 1207.93 11.2845C1208.75 11.4979 1209.43 11.7113 1209.95 11.9247C1210.47 12.1248 1210.92 12.4583 1211.31 12.9251C1211.71 13.3786 1211.92 13.9922 1211.93 14.7659C1211.93 15.4194 1211.74 16.0063 1211.37 16.5266C1211.01 17.0334 1210.48 17.4336 1209.79 17.727C1209.11 18.0205 1208.31 18.1672 1207.41 18.1672ZM1219.1 18.1672C1218.01 18.1672 1217.02 17.9338 1216.14 17.4669C1215.28 17.0001 1214.59 16.3331 1214.08 15.4661C1213.59 14.5991 1213.34 13.5854 1213.34 12.4249C1213.34 11.2778 1213.6 10.2707 1214.1 9.40373C1214.61 8.52338 1215.3 7.84978 1216.18 7.38293C1217.06 6.91607 1218.05 6.68265 1219.14 6.68265C1220.24 6.68265 1221.22 6.91607 1222.11 7.38293C1222.99 7.84978 1223.68 8.52338 1224.19 9.40373C1224.69 10.2707 1224.95 11.2778 1224.95 12.4249C1224.95 13.572 1224.69 14.5858 1224.17 15.4661C1223.66 16.3331 1222.96 17.0001 1222.07 17.4669C1221.18 17.9338 1220.2 18.1672 1219.1 18.1672ZM1219.1 15.206C1219.76 15.206 1220.31 14.9659 1220.76 14.4857C1221.23 14.0056 1221.46 13.3186 1221.46 12.4249C1221.46 11.5312 1221.24 10.8443 1220.78 10.3641C1220.34 9.88392 1219.8 9.64382 1219.14 9.64382C1218.48 9.64382 1217.92 9.88392 1217.48 10.3641C1217.04 10.831 1216.82 11.5179 1216.82 12.4249C1216.82 13.3186 1217.04 14.0056 1217.46 14.4857C1217.9 14.9659 1218.45 15.206 1219.1 15.206ZM1237.79 6.84271V18.0071H1234.36V16.4865C1234.02 16.9801 1233.54 17.3802 1232.94 17.687C1232.36 17.9805 1231.7 18.1272 1230.98 18.1272C1230.13 18.1272 1229.38 17.9404 1228.72 17.567C1228.07 17.1801 1227.56 16.6266 1227.2 15.9063C1226.84 15.186 1226.66 14.339 1226.66 13.3653V6.84271H1230.06V12.9051C1230.06 13.6521 1230.26 14.2323 1230.64 14.6458C1231.03 15.0593 1231.55 15.2661 1232.2 15.2661C1232.87 15.2661 1233.4 15.0593 1233.78 14.6458C1234.17 14.2323 1234.36 13.6521 1234.36 12.9051V6.84271H1237.79ZM1243.66 8.70345C1244.06 8.08987 1244.56 7.60968 1245.17 7.26288C1245.77 6.90274 1246.43 6.72266 1247.17 6.72266V10.3441H1246.23C1245.37 10.3441 1244.73 10.5308 1244.3 10.9043C1243.88 11.2645 1243.66 11.9047 1243.66 12.8251V18.0071H1240.24V6.84271H1243.66V8.70345ZM1248.12 12.4249C1248.12 11.2645 1248.35 10.2507 1248.82 9.38372C1249.3 8.51671 1249.96 7.84978 1250.8 7.38293C1251.66 6.91607 1252.63 6.68265 1253.72 6.68265C1255.12 6.68265 1256.29 7.04946 1257.22 7.78308C1258.17 8.51671 1258.79 9.55045 1259.09 10.8843H1255.44C1255.14 10.0306 1254.54 9.60381 1253.66 9.60381C1253.04 9.60381 1252.54 9.85057 1252.16 10.3441C1251.79 10.8243 1251.6 11.5179 1251.6 12.4249C1251.6 13.332 1251.79 14.0322 1252.16 14.5258C1252.54 15.0059 1253.04 15.246 1253.66 15.246C1254.54 15.246 1255.14 14.8192 1255.44 13.9655H1259.09C1258.79 15.2727 1258.17 16.2998 1257.22 17.0468C1256.28 17.7937 1255.11 18.1672 1253.72 18.1672C1252.63 18.1672 1251.66 17.9338 1250.8 17.4669C1249.96 17.0001 1249.3 16.3331 1248.82 15.4661C1248.35 14.5991 1248.12 13.5854 1248.12 12.4249ZM1271.44 12.2449C1271.44 12.565 1271.42 12.8984 1271.38 13.2452H1263.64C1263.69 13.9389 1263.91 14.4724 1264.3 14.8459C1264.7 15.206 1265.18 15.3861 1265.76 15.3861C1266.61 15.3861 1267.2 15.026 1267.54 14.3057H1271.18C1270.99 15.0393 1270.65 15.6996 1270.16 16.2865C1269.68 16.8734 1269.07 17.3335 1268.34 17.667C1267.6 18.0005 1266.78 18.1672 1265.88 18.1672C1264.78 18.1672 1263.81 17.9338 1262.96 17.4669C1262.1 17.0001 1261.44 16.3331 1260.96 15.4661C1260.48 14.5991 1260.24 13.5854 1260.24 12.4249C1260.24 11.2645 1260.47 10.2507 1260.94 9.38372C1261.42 8.51671 1262.08 7.84978 1262.94 7.38293C1263.79 6.91607 1264.77 6.68265 1265.88 6.68265C1266.96 6.68265 1267.92 6.9094 1268.76 7.36292C1269.6 7.81643 1270.25 8.46335 1270.72 9.30369C1271.2 10.144 1271.44 11.1244 1271.44 12.2449ZM1267.94 11.3445C1267.94 10.7576 1267.74 10.2907 1267.34 9.94394C1266.94 9.59714 1266.44 9.42373 1265.84 9.42373C1265.26 9.42373 1264.78 9.59047 1264.38 9.92393C1263.99 10.2574 1263.75 10.7309 1263.66 11.3445H1267.94ZM706.22 38.4953C706.22 39.3089 706.033 40.0559 705.66 40.7361C705.286 41.4031 704.713 41.9433 703.939 42.3568C703.165 42.7703 702.205 42.977 701.058 42.977H698.937V48.019H695.516V33.9735H701.058C702.178 33.9735 703.125 34.1669 703.899 34.5537C704.673 34.9405 705.253 35.4741 705.64 36.1543C706.026 36.8346 706.22 37.6149 706.22 38.4953ZM700.798 40.256C701.451 40.256 701.938 40.1026 702.258 39.7958C702.578 39.489 702.739 39.0555 702.739 38.4953C702.739 37.935 702.578 37.5015 702.258 37.1947C701.938 36.888 701.451 36.7346 700.798 36.7346H698.937V40.256H700.798ZM707.321 42.4168C707.321 41.2697 707.534 40.2626 707.961 39.3956C708.401 38.5286 708.995 37.8617 709.742 37.3948C710.489 36.928 711.322 36.6945 712.243 36.6945C713.03 36.6945 713.717 36.8546 714.304 37.1747C714.904 37.4949 715.364 37.915 715.684 38.4352V36.8546H719.105V48.019H715.684V46.4384C715.351 46.9586 714.884 47.3788 714.284 47.6989C713.697 48.019 713.01 48.1791 712.223 48.1791C711.316 48.1791 710.489 47.9457 709.742 47.4788C708.995 46.9986 708.401 46.325 707.961 45.458C707.534 44.5777 707.321 43.5639 707.321 42.4168ZM715.684 42.4368C715.684 41.5831 715.444 40.9095 714.964 40.416C714.497 39.9225 713.923 39.6757 713.243 39.6757C712.563 39.6757 711.983 39.9225 711.502 40.416C711.036 40.8962 710.802 41.5631 710.802 42.4168C710.802 43.2705 711.036 43.9508 711.502 44.4576C711.983 44.9511 712.563 45.1979 713.243 45.1979C713.923 45.1979 714.497 44.9511 714.964 44.4576C715.444 43.9641 715.684 43.2905 715.684 42.4368ZM720.9 42.4368C720.9 41.2764 721.134 40.2626 721.601 39.3956C722.081 38.5286 722.741 37.8617 723.581 37.3948C724.435 36.928 725.409 36.6945 726.503 36.6945C727.903 36.6945 729.07 37.0614 730.004 37.795C730.951 38.5286 731.571 39.5623 731.865 40.8962H728.223C727.917 40.0425 727.323 39.6157 726.443 39.6157C725.816 39.6157 725.315 39.8625 724.942 40.356C724.569 40.8362 724.382 41.5298 724.382 42.4368C724.382 43.3438 724.569 44.0441 724.942 44.5377C725.315 45.0178 725.816 45.2579 726.443 45.2579C727.323 45.2579 727.917 44.8311 728.223 43.9774H731.865C731.571 45.2846 730.951 46.3117 730.004 47.0587C729.057 47.8056 727.89 48.1791 726.503 48.1791C725.409 48.1791 724.435 47.9457 723.581 47.4788C722.741 47.012 722.081 46.345 721.601 45.478C721.134 44.611 720.9 43.5973 720.9 42.4368ZM740.518 48.019L737.116 43.3372V48.019H733.695V33.2132H737.116V41.3964L740.498 36.8546H744.719L740.077 42.4568L744.759 48.019H740.518ZM745.383 42.4168C745.383 41.2697 745.596 40.2626 746.023 39.3956C746.463 38.5286 747.057 37.8617 747.804 37.3948C748.551 36.928 749.384 36.6945 750.305 36.6945C751.092 36.6945 751.779 36.8546 752.366 37.1747C752.966 37.4949 753.426 37.915 753.746 38.4352V36.8546H757.167V48.019H753.746V46.4384C753.413 46.9586 752.946 47.3788 752.346 47.6989C751.759 48.019 751.072 48.1791 750.285 48.1791C749.378 48.1791 748.551 47.9457 747.804 47.4788C747.057 46.9986 746.463 46.325 746.023 45.458C745.596 44.5777 745.383 43.5639 745.383 42.4168ZM753.746 42.4368C753.746 41.5831 753.506 40.9095 753.026 40.416C752.559 39.9225 751.985 39.6757 751.305 39.6757C750.625 39.6757 750.045 39.9225 749.564 40.416C749.098 40.8962 748.864 41.5631 748.864 42.4168C748.864 43.2705 749.098 43.9508 749.564 44.4576C750.045 44.9511 750.625 45.1979 751.305 45.1979C751.985 45.1979 752.559 44.9511 753.026 44.4576C753.506 43.9641 753.746 43.2905 753.746 42.4368ZM763.884 36.6945C764.671 36.6945 765.358 36.8546 765.945 37.1747C766.545 37.4949 767.006 37.915 767.326 38.4352V36.8546H770.747V47.999C770.747 49.0261 770.54 49.9531 770.127 50.7801C769.727 51.6205 769.106 52.2874 768.266 52.7809C767.439 53.2744 766.405 53.5212 765.165 53.5212C763.511 53.5212 762.17 53.1277 761.143 52.3407C760.116 51.5671 759.529 50.5134 759.383 49.1795H762.764C762.871 49.6063 763.124 49.9398 763.524 50.1799C763.924 50.4333 764.418 50.56 765.005 50.56C765.712 50.56 766.272 50.3533 766.685 49.9398C767.112 49.5396 767.326 48.8927 767.326 47.999V46.4184C766.992 46.9386 766.532 47.3654 765.945 47.6989C765.358 48.019 764.671 48.1791 763.884 48.1791C762.964 48.1791 762.13 47.9457 761.383 47.4788C760.636 46.9986 760.043 46.325 759.603 45.458C759.176 44.5777 758.962 43.5639 758.962 42.4168C758.962 41.2697 759.176 40.2626 759.603 39.3956C760.043 38.5286 760.636 37.8617 761.383 37.3948C762.13 36.928 762.964 36.6945 763.884 36.6945ZM767.326 42.4368C767.326 41.5831 767.086 40.9095 766.605 40.416C766.139 39.9225 765.565 39.6757 764.885 39.6757C764.204 39.6757 763.624 39.9225 763.144 40.416C762.677 40.8962 762.444 41.5631 762.444 42.4168C762.444 43.2705 762.677 43.9508 763.144 44.4576C763.624 44.9511 764.204 45.1979 764.885 45.1979C765.565 45.1979 766.139 44.9511 766.605 44.4576C767.086 43.9641 767.326 43.2905 767.326 42.4368ZM783.746 42.2567C783.746 42.5769 783.726 42.9103 783.686 43.2571H775.943C775.997 43.9508 776.217 44.4843 776.604 44.8578C777.004 45.2179 777.491 45.398 778.064 45.398C778.918 45.398 779.511 45.0379 779.845 44.3176H783.486C783.3 45.0512 782.959 45.7115 782.466 46.2984C781.986 46.8852 781.379 47.3454 780.645 47.6789C779.912 48.0124 779.091 48.1791 778.184 48.1791C777.09 48.1791 776.117 47.9457 775.263 47.4788C774.409 47.012 773.742 46.345 773.262 45.478C772.782 44.611 772.542 43.5973 772.542 42.4368C772.542 41.2764 772.775 40.2626 773.242 39.3956C773.722 38.5286 774.389 37.8617 775.243 37.3948C776.097 36.928 777.077 36.6945 778.184 36.6945C779.265 36.6945 780.225 36.9213 781.065 37.3748C781.906 37.8283 782.559 38.4752 783.026 39.3156C783.506 40.1559 783.746 41.1363 783.746 42.2567ZM780.245 41.3564C780.245 40.7695 780.045 40.3026 779.645 39.9558C779.245 39.609 778.744 39.4356 778.144 39.4356C777.571 39.4356 777.084 39.6024 776.684 39.9358C776.297 40.2693 776.057 40.7428 775.963 41.3564H780.245ZM796.434 48.1591C795.113 48.1591 793.9 47.8523 792.793 47.2387C791.699 46.6251 790.825 45.7715 790.171 44.6777C789.531 43.5706 789.211 42.3301 789.211 40.9562C789.211 39.5824 789.531 38.3485 790.171 37.2548C790.825 36.161 791.699 35.3073 792.793 34.6938C793.9 34.0802 795.113 33.7734 796.434 33.7734C797.754 33.7734 798.962 34.0802 800.055 34.6938C801.162 35.3073 802.029 36.161 802.656 37.2548C803.297 38.3485 803.617 39.5824 803.617 40.9562C803.617 42.3301 803.297 43.5706 802.656 44.6777C802.016 45.7715 801.149 46.6251 800.055 47.2387C798.962 47.8523 797.754 48.1591 796.434 48.1591ZM796.434 45.0379C797.554 45.0379 798.448 44.6644 799.115 43.9174C799.795 43.1704 800.135 42.1834 800.135 40.9562C800.135 39.7157 799.795 38.7287 799.115 37.9951C798.448 37.2481 797.554 36.8746 796.434 36.8746C795.3 36.8746 794.393 37.2414 793.713 37.9751C793.046 38.7087 792.712 39.7024 792.712 40.9562C792.712 42.1967 793.046 43.1905 793.713 43.9374C794.393 44.671 795.3 45.0379 796.434 45.0379ZM816.545 36.8546V48.019H813.123V46.4984C812.776 46.992 812.303 47.3921 811.703 47.6989C811.116 47.9924 810.462 48.1391 809.742 48.1391C808.888 48.1391 808.135 47.9523 807.481 47.5789C806.827 47.192 806.321 46.6385 805.96 45.9182C805.6 45.1979 805.42 44.3509 805.42 43.3772V36.8546H808.822V42.917C808.822 43.664 809.015 44.2442 809.402 44.6577C809.789 45.0712 810.309 45.2779 810.962 45.2779C811.629 45.2779 812.156 45.0712 812.543 44.6577C812.93 44.2442 813.123 43.664 813.123 42.917V36.8546H816.545ZM825.225 45.1179V48.019H823.484C822.243 48.019 821.276 47.7189 820.583 47.1187C819.889 46.5051 819.542 45.5114 819.542 44.1375V39.6957H818.182V36.8546H819.542V34.1335H822.964V36.8546H825.205V39.6957H822.964V44.1775C822.964 44.511 823.044 44.7511 823.204 44.8978C823.364 45.0445 823.631 45.1179 824.004 45.1179H825.225ZM841.474 33.9735V36.7146H837.753V48.019H834.331V36.7146H830.61V33.9735H841.474ZM850.054 36.7346C851.335 36.7346 852.362 37.1614 853.135 38.0151C853.909 38.8554 854.296 40.0159 854.296 41.4964V48.019H850.894V41.9566C850.894 41.2097 850.701 40.6294 850.314 40.2159C849.927 39.8024 849.407 39.5957 848.754 39.5957C848.1 39.5957 847.58 39.8024 847.193 40.2159C846.806 40.6294 846.613 41.2097 846.613 41.9566V48.019H843.191V33.2132H846.613V38.3552C846.96 37.8617 847.433 37.4682 848.033 37.1747C848.634 36.8813 849.307 36.7346 850.054 36.7346ZM867.197 42.2567C867.197 42.5769 867.177 42.9103 867.137 43.2571H859.394C859.448 43.9508 859.668 44.4843 860.055 44.8578C860.455 45.2179 860.942 45.398 861.515 45.398C862.369 45.398 862.962 45.0379 863.296 44.3176H866.937C866.751 45.0512 866.41 45.7115 865.917 46.2984C865.437 46.8852 864.83 47.3454 864.096 47.6789C863.363 48.0124 862.542 48.1791 861.635 48.1791C860.541 48.1791 859.568 47.9457 858.714 47.4788C857.86 47.012 857.193 46.345 856.713 45.478C856.233 44.611 855.993 43.5973 855.993 42.4368C855.993 41.2764 856.226 40.2626 856.693 39.3956C857.173 38.5286 857.84 37.8617 858.694 37.3948C859.548 36.928 860.528 36.6945 861.635 36.6945C862.716 36.6945 863.676 36.9213 864.516 37.3748C865.357 37.8283 866.01 38.4752 866.477 39.3156C866.957 40.1559 867.197 41.1363 867.197 42.2567ZM863.696 41.3564C863.696 40.7695 863.496 40.3026 863.096 39.9558C862.696 39.609 862.195 39.4356 861.595 39.4356C861.022 39.4356 860.535 39.6024 860.135 39.9358C859.748 40.2693 859.508 40.7428 859.414 41.3564H863.696ZM872.424 38.7153C872.824 38.1018 873.324 37.6216 873.924 37.2748C874.525 36.9146 875.192 36.7346 875.925 36.7346V40.356H874.985C874.131 40.356 873.491 40.5427 873.064 40.9162C872.637 41.2764 872.424 41.9166 872.424 42.837V48.019H869.002V36.8546H872.424V38.7153ZM888.085 42.2567C888.085 42.5769 888.065 42.9103 888.025 43.2571H880.282C880.335 43.9508 880.555 44.4843 880.942 44.8578C881.342 45.2179 881.829 45.398 882.402 45.398C883.256 45.398 883.85 45.0379 884.183 44.3176H887.825C887.638 45.0512 887.298 45.7115 886.804 46.2984C886.324 46.8852 885.717 47.3454 884.983 47.6789C884.25 48.0124 883.429 48.1791 882.522 48.1791C881.429 48.1791 880.455 47.9457 879.601 47.4788C878.748 47.012 878.081 46.345 877.6 45.478C877.12 44.611 876.88 43.5973 876.88 42.4368C876.88 41.2764 877.114 40.2626 877.58 39.3956C878.061 38.5286 878.728 37.8617 879.581 37.3948C880.435 36.928 881.415 36.6945 882.522 36.6945C883.603 36.6945 884.563 36.9213 885.404 37.3748C886.244 37.8283 886.898 38.4752 887.364 39.3156C887.845 40.1559 888.085 41.1363 888.085 42.2567ZM884.583 41.3564C884.583 40.7695 884.383 40.3026 883.983 39.9558C883.583 39.609 883.083 39.4356 882.482 39.4356C881.909 39.4356 881.422 39.6024 881.022 39.9358C880.635 40.2693 880.395 40.7428 880.302 41.3564H884.583Z" fill="black"/>
<path d="M694.275 20.0079H1272V21.0083H694.275V20.0079ZM694.275 50.0198H888.645V51.0202H694.275V50.0198Z" fill="black"/>
<a href="https://www.bypeople.com/creative-toolkit/">
<rect fill="black" fill-opacity="0" width="577.496" height="30"/>
</a>
<a href="https://www.bypeople.com/creative-toolkit/">
<rect fill="black" fill-opacity="0" y="30" width="198.537" height="30"/>
</a>
<path d="M668.493 0H661.365C660.583 0 659.949 0.63427 659.949 1.41578C659.949 2.19729 660.583 2.83156 661.365 2.83156H665.076L655.686 12.221C655.133 12.7739 655.133 13.6701 655.686 14.2229C655.963 14.4997 656.325 14.6378 656.687 14.6378C657.05 14.6378 657.412 14.4997 657.688 14.2229L667.078 4.83419V8.54566C667.078 9.32717 667.712 9.96144 668.493 9.96144C669.275 9.96144 669.909 9.32717 669.909 8.54566V1.41578C669.909 0.63427 669.275 0 668.493 0Z" fill="black"/>
<path d="M668.493 12.742C667.712 12.742 667.077 13.3763 667.077 14.1578V19.8209H650.088V2.83156H655.751C656.533 2.83156 657.167 2.19729 657.167 1.41578C657.167 0.63427 656.533 0 655.751 0H650.088C648.526 0 647.257 1.26996 647.257 2.83156V19.8209C647.257 21.3826 648.526 22.6525 650.088 22.6525H667.077C668.639 22.6525 669.909 21.3826 669.909 19.8209V14.1578C669.909 13.3763 669.275 12.742 668.493 12.742Z" fill="black"/>
</svg>
