<svg width="676" height="1127" viewBox="0 0 676 1127" fill="none" xmlns="http://www.w3.org/2000/svg">
<g clip-path="url(#clip0_312_2362)">
<path d="M676 0H0V1127H676V0Z" fill="black"/>
<path d="M493.806 533.007C493.578 529.364 493.351 525.608 493.351 521.965L493.009 491.118L491.53 342.233L491.416 327.777L488.344 35.0136C488.344 30.9158 485.044 27.6149 480.947 27.6149C476.851 27.7287 473.551 31.1435 473.551 35.2413V35.3551L476.509 327.207L476.623 341.664L477.534 434.432L478.444 522.421C478.671 547.235 483.906 571.025 493.123 592.538C521.458 659.355 587.799 706.365 664.496 706.365H666.544L675.875 706.251V690.771L665.862 690.885C575.51 691.681 500.292 622.019 493.806 533.007ZM661.879 520.713V516.388L661.651 496.582L656.872 33.5339C656.872 22.0373 658.693 10.7685 662.22 -0.158936H646.403C643.33 10.6546 641.737 21.9235 641.737 33.1924L645.948 436.481L646.517 492.94L646.744 520.258C647.086 556.455 657.782 590.034 675.989 618.377V586.278C667.227 566.244 662.22 544.048 661.879 520.713Z" fill="#0013FF"/>
<path d="M661.696 496.664C659.875 475.834 654.527 455.573 645.879 436.678C637.003 417.099 624.486 399.001 608.896 383.065C577.603 350.966 535.727 331.388 491.347 327.631C486.909 327.29 482.471 327.062 478.034 327.062H476.554L447.196 326.721C423.64 326.379 400.199 330.591 378.237 339.128C356.388 330.135 333.175 325.469 309.506 325.241L278.668 324.899H276.619C175.002 324.899 91.819 406.969 90.5673 508.844C90.5673 508.844 85.5604 925.109 85.5604 926.361C86.1293 971.664 68.719 1014.69 36.6292 1047.25C25.7051 1058.51 13.3016 1068.08 -0.012207 1075.82V1093C58.7051 1062.73 99.3294 1002.28 101.264 932.053C101.605 931.711 106.271 508.616 106.271 508.616C107.181 414.367 184.788 338.9 279.009 339.697L309.847 340.038C326.461 340.38 343.075 342.884 359.006 347.779C300.63 378.626 260.347 439.637 259.778 510.096L254.771 997.162C254.771 1010.82 257.047 1024.25 261.599 1037.11C282.65 1100.18 340.685 1121.35 388.933 1113.83C437.523 1106.44 487.592 1068.76 489.072 1001.49L493.282 592.279L493.851 532.861L494.078 512.372C494.192 505.201 493.851 498.03 493.054 490.973C491.006 471.281 485.772 452.044 477.692 434.173C468.703 414.481 456.299 396.269 440.709 380.561C428.192 367.698 413.74 356.771 398.037 348.006C414.082 343.453 430.809 341.177 447.537 341.177L476.668 341.404H478.261C482.699 341.404 487.023 341.632 491.461 342.087C531.858 345.616 569.865 363.487 598.541 392.626C625.51 419.831 642.351 455.231 646.448 492.908C647.244 499.738 647.586 506.567 647.472 513.511C647.472 517.722 650.772 521.137 654.868 521.251H654.982C658.168 521.251 660.899 519.202 661.924 516.356C662.151 515.56 662.379 514.763 662.379 513.966V513.852C662.379 508.161 662.151 502.356 661.696 496.664ZM429.444 391.944C461.306 424.043 478.944 467.638 478.375 512.828L473.254 999.894V1001.94C472.116 1060.56 428.533 1093.23 386.202 1099.72C380.968 1100.52 375.62 1100.97 370.271 1100.86C332.378 1100.86 291.754 1081.05 275.481 1033.02C271.385 1021.75 269.45 1009.8 269.564 997.731L274.571 510.665C275.14 441.003 317.813 381.471 378.237 355.747C397.468 364.397 414.764 376.691 429.444 391.944Z" fill="#0013FF"/>
<path d="M602.567 618.571H136.674V1052.57H602.567V618.571Z" fill="#0013FF"/>
<path d="M176.332 681.927H171.396L185.672 643.048H190.532L204.809 681.927H199.873L188.254 649.198H187.951L176.332 681.927ZM178.155 666.74H198.05V670.917H178.155V666.74ZM214.737 643.048V681.927H210.257V643.048H214.737ZM222.943 681.927V652.768H227.424V681.927H222.943ZM225.222 647.908C224.348 647.908 223.595 647.61 222.962 647.015C222.342 646.42 222.032 645.705 222.032 644.87C222.032 644.035 222.342 643.32 222.962 642.725C223.595 642.13 224.348 641.833 225.222 641.833C226.095 641.833 226.842 642.13 227.462 642.725C228.095 643.32 228.411 644.035 228.411 644.87C228.411 645.705 228.095 646.42 227.462 647.015C226.842 647.61 226.095 647.908 225.222 647.908ZM256.285 659.298L252.26 660.437C252.007 659.766 251.634 659.115 251.14 658.482C250.659 657.836 250.001 657.305 249.166 656.887C248.33 656.469 247.261 656.261 245.957 656.261C244.173 656.261 242.686 656.672 241.496 657.495C240.319 658.305 239.73 659.336 239.73 660.589C239.73 661.703 240.135 662.582 240.945 663.228C241.755 663.873 243.021 664.411 244.742 664.842L249.071 665.905C251.678 666.538 253.621 667.506 254.899 668.809C256.177 670.1 256.816 671.765 256.816 673.802C256.816 675.473 256.335 676.966 255.373 678.282C254.424 679.599 253.095 680.637 251.387 681.396C249.678 682.155 247.691 682.535 245.426 682.535C242.451 682.535 239.99 681.89 238.041 680.599C236.092 679.308 234.858 677.422 234.339 674.941L238.591 673.878C238.996 675.447 239.762 676.625 240.888 677.409C242.027 678.194 243.515 678.586 245.35 678.586C247.438 678.586 249.096 678.143 250.324 677.257C251.564 676.359 252.184 675.283 252.184 674.03C252.184 673.017 251.83 672.17 251.121 671.486C250.412 670.79 249.324 670.271 247.856 669.929L242.996 668.79C240.325 668.158 238.363 667.177 237.111 665.848C235.87 664.506 235.25 662.829 235.25 660.817C235.25 659.172 235.712 657.716 236.636 656.45C237.572 655.185 238.844 654.191 240.452 653.47C242.072 652.749 243.907 652.388 245.957 652.388C248.843 652.388 251.108 653.021 252.754 654.286C254.412 655.552 255.589 657.223 256.285 659.298ZM275.407 682.535C272.774 682.535 270.464 681.909 268.477 680.656C266.503 679.403 264.959 677.65 263.845 675.397C262.744 673.144 262.194 670.512 262.194 667.499C262.194 664.462 262.744 661.81 263.845 659.545C264.959 657.279 266.503 655.52 268.477 654.267C270.464 653.014 272.774 652.388 275.407 652.388C278.039 652.388 280.343 653.014 282.317 654.267C284.304 655.52 285.848 657.279 286.949 659.545C288.063 661.81 288.62 664.462 288.62 667.499C288.62 670.512 288.063 673.144 286.949 675.397C285.848 677.65 284.304 679.403 282.317 680.656C280.343 681.909 278.039 682.535 275.407 682.535ZM275.407 678.51C277.406 678.51 279.052 677.998 280.343 676.973C281.634 675.947 282.589 674.6 283.209 672.929C283.829 671.258 284.14 669.448 284.14 667.499C284.14 665.55 283.829 663.734 283.209 662.051C282.589 660.368 281.634 659.007 280.343 657.969C279.052 656.931 277.406 656.413 275.407 656.413C273.407 656.413 271.762 656.931 270.471 657.969C269.18 659.007 268.224 660.368 267.604 662.051C266.984 663.734 266.674 665.55 266.674 667.499C266.674 669.448 266.984 671.258 267.604 672.929C268.224 674.6 269.18 675.947 270.471 676.973C271.762 677.998 273.407 678.51 275.407 678.51ZM299.939 664.386V681.927H295.459V652.768H299.787V657.324H300.167C300.851 655.843 301.888 654.653 303.28 653.755C304.673 652.843 306.47 652.388 308.672 652.388C310.646 652.388 312.374 652.793 313.855 653.603C315.336 654.4 316.487 655.615 317.31 657.248C318.133 658.868 318.544 660.918 318.544 663.399V681.927H314.064V663.703C314.064 661.412 313.469 659.627 312.279 658.349C311.089 657.058 309.457 656.413 307.381 656.413C305.951 656.413 304.673 656.723 303.546 657.343C302.433 657.963 301.553 658.868 300.907 660.058C300.262 661.247 299.939 662.69 299.939 664.386Z" fill="white"/>
<path d="M206.024 723.28H201.316C201.037 721.926 200.55 720.736 199.854 719.711C199.17 718.686 198.335 717.825 197.348 717.129C196.373 716.42 195.291 715.889 194.101 715.534C192.912 715.18 191.671 715.003 190.381 715.003C188.026 715.003 185.894 715.597 183.983 716.787C182.084 717.977 180.572 719.73 179.446 722.046C178.332 724.362 177.775 727.203 177.775 730.57C177.775 733.936 178.332 736.778 179.446 739.094C180.572 741.41 182.084 743.163 183.983 744.352C185.894 745.542 188.026 746.137 190.381 746.137C191.671 746.137 192.912 745.96 194.101 745.605C195.291 745.251 196.373 744.726 197.348 744.03C198.335 743.321 199.17 742.454 199.854 741.429C200.55 740.391 201.037 739.201 201.316 737.86H206.024C205.669 739.847 205.024 741.625 204.087 743.194C203.151 744.764 201.986 746.099 200.594 747.2C199.202 748.289 197.639 749.118 195.905 749.687C194.184 750.257 192.342 750.541 190.381 750.541C187.065 750.541 184.116 749.731 181.534 748.111C178.952 746.491 176.921 744.188 175.44 741.201C173.959 738.214 173.219 734.67 173.219 730.57C173.219 726.469 173.959 722.925 175.44 719.939C176.921 716.952 178.952 714.648 181.534 713.028C184.116 711.408 187.065 710.598 190.381 710.598C192.342 710.598 194.184 710.883 195.905 711.453C197.639 712.022 199.202 712.857 200.594 713.958C201.986 715.047 203.151 716.376 204.087 717.945C205.024 719.502 205.669 721.28 206.024 723.28ZM217.504 732.468V750.01H213.024V711.13H217.504V725.406H217.884C218.568 723.9 219.593 722.704 220.96 721.818C222.339 720.919 224.174 720.47 226.465 720.47C228.452 720.47 230.192 720.869 231.686 721.666C233.179 722.451 234.337 723.659 235.16 725.292C235.995 726.912 236.413 728.975 236.413 731.481V750.01H231.933V731.785C231.933 729.469 231.331 727.678 230.129 726.412C228.939 725.134 227.288 724.495 225.174 724.495C223.706 724.495 222.39 724.805 221.225 725.425C220.074 726.045 219.162 726.95 218.492 728.14C217.833 729.329 217.504 730.772 217.504 732.468ZM253.19 750.693C251.342 750.693 249.666 750.345 248.159 749.649C246.653 748.94 245.457 747.921 244.571 746.593C243.685 745.251 243.242 743.631 243.242 741.733C243.242 740.062 243.572 738.708 244.23 737.67C244.888 736.619 245.767 735.797 246.868 735.202C247.97 734.607 249.185 734.164 250.513 733.873C251.855 733.569 253.203 733.329 254.557 733.152C256.329 732.924 257.766 732.753 258.867 732.639C259.98 732.513 260.79 732.304 261.297 732.013C261.816 731.722 262.075 731.215 262.075 730.494V730.342C262.075 728.469 261.562 727.013 260.537 725.976C259.525 724.938 257.987 724.419 255.924 724.419C253.785 724.419 252.108 724.887 250.893 725.824C249.678 726.76 248.824 727.76 248.33 728.823L244.078 727.304C244.837 725.533 245.85 724.153 247.115 723.166C248.394 722.166 249.786 721.47 251.292 721.078C252.811 720.673 254.304 720.47 255.772 720.47C256.709 720.47 257.784 720.584 258.999 720.812C260.227 721.027 261.411 721.476 262.55 722.16C263.701 722.843 264.657 723.875 265.416 725.254C266.176 726.634 266.555 728.482 266.555 730.798V750.01H262.075V746.061H261.847C261.543 746.694 261.037 747.371 260.328 748.092C259.62 748.814 258.677 749.428 257.5 749.934C256.323 750.44 254.886 750.693 253.19 750.693ZM253.874 746.669C255.646 746.669 257.139 746.32 258.354 745.624C259.582 744.928 260.506 744.03 261.126 742.929C261.759 741.828 262.075 740.669 262.075 739.454V735.354C261.885 735.582 261.467 735.79 260.822 735.98C260.189 736.158 259.455 736.316 258.62 736.455C257.797 736.581 256.993 736.695 256.209 736.797C255.437 736.885 254.81 736.961 254.329 737.024C253.165 737.176 252.077 737.423 251.064 737.765C250.064 738.094 249.254 738.594 248.634 739.265C248.027 739.923 247.723 740.821 247.723 741.96C247.723 743.517 248.299 744.694 249.45 745.491C250.615 746.276 252.089 746.669 253.874 746.669ZM274.733 750.01V720.85H279.213V750.01H274.733ZM277.011 715.99C276.138 715.99 275.385 715.692 274.752 715.098C274.132 714.503 273.822 713.788 273.822 712.952C273.822 712.117 274.132 711.402 274.752 710.807C275.385 710.212 276.138 709.915 277.011 709.915C277.884 709.915 278.631 710.212 279.251 710.807C279.884 711.402 280.2 712.117 280.2 712.952C280.2 713.788 279.884 714.503 279.251 715.098C278.631 715.692 277.884 715.99 277.011 715.99ZM291.899 732.468V750.01H287.419V720.85H291.748V725.406H292.127C292.811 723.925 293.848 722.736 295.241 721.837C296.633 720.926 298.43 720.47 300.632 720.47C302.607 720.47 304.334 720.875 305.815 721.685C307.296 722.482 308.447 723.697 309.27 725.33C310.093 726.95 310.504 729 310.504 731.481V750.01H306.024V731.785C306.024 729.494 305.429 727.709 304.239 726.431C303.05 725.14 301.417 724.495 299.341 724.495C297.911 724.495 296.633 724.805 295.506 725.425C294.393 726.045 293.513 726.95 292.868 728.14C292.222 729.329 291.899 730.772 291.899 732.468ZM339.346 727.38L335.321 728.519C335.068 727.849 334.695 727.197 334.201 726.564C333.72 725.919 333.062 725.387 332.227 724.969C331.392 724.552 330.322 724.343 329.019 724.343C327.234 724.343 325.747 724.754 324.557 725.577C323.38 726.387 322.792 727.418 322.792 728.671C322.792 729.785 323.197 730.665 324.007 731.31C324.817 731.956 326.082 732.494 327.804 732.924L332.132 733.987C334.739 734.62 336.682 735.588 337.96 736.892C339.238 738.183 339.878 739.847 339.878 741.884C339.878 743.555 339.397 745.049 338.435 746.365C337.486 747.681 336.157 748.719 334.448 749.478C332.739 750.238 330.752 750.617 328.487 750.617C325.513 750.617 323.051 749.972 321.102 748.681C319.153 747.39 317.919 745.504 317.4 743.024L321.653 741.96C322.058 743.53 322.823 744.707 323.95 745.491C325.089 746.276 326.576 746.669 328.411 746.669C330.499 746.669 332.157 746.226 333.385 745.34C334.625 744.441 335.245 743.365 335.245 742.112C335.245 741.1 334.891 740.252 334.182 739.568C333.474 738.872 332.385 738.353 330.917 738.012L326.057 736.873C323.387 736.24 321.425 735.259 320.172 733.93C318.932 732.588 318.311 730.912 318.311 728.899C318.311 727.254 318.773 725.798 319.697 724.533C320.634 723.267 321.906 722.274 323.513 721.552C325.133 720.831 326.968 720.47 329.019 720.47C331.904 720.47 334.17 721.103 335.815 722.369C337.473 723.634 338.65 725.305 339.346 727.38Z" fill="white"/>
<path d="M196.099 787.395C195.681 786.117 195.131 784.971 194.447 783.959C193.776 782.934 192.973 782.06 192.036 781.339C191.112 780.618 190.062 780.067 188.885 779.687C187.708 779.308 186.417 779.118 185.012 779.118C182.708 779.118 180.614 779.713 178.728 780.902C176.842 782.092 175.342 783.845 174.229 786.161C173.115 788.477 172.558 791.318 172.558 794.685C172.558 798.052 173.121 800.893 174.248 803.209C175.374 805.525 176.899 807.278 178.823 808.468C180.747 809.657 182.911 810.252 185.316 810.252C187.543 810.252 189.505 809.778 191.201 808.828C192.909 807.866 194.238 806.512 195.187 804.766C196.149 803.006 196.63 800.937 196.63 798.558L198.073 798.862H186.379V794.685H201.187V798.862C201.187 802.064 200.503 804.848 199.136 807.215C197.782 809.581 195.909 811.417 193.517 812.72C191.137 814.011 188.404 814.657 185.316 814.657C181.873 814.657 178.848 813.847 176.241 812.227C173.647 810.607 171.622 808.303 170.166 805.316C168.723 802.329 168.002 798.786 168.002 794.685C168.002 791.61 168.413 788.844 169.236 786.389C170.071 783.921 171.248 781.82 172.767 780.086C174.286 778.352 176.083 777.023 178.159 776.099C180.234 775.175 182.519 774.713 185.012 774.713C187.062 774.713 188.973 775.024 190.745 775.644C192.53 776.251 194.118 777.118 195.51 778.245C196.915 779.358 198.086 780.694 199.022 782.25C199.959 783.794 200.604 785.509 200.959 787.395H196.099ZM217.224 814.808C215.376 814.808 213.699 814.46 212.193 813.764C210.687 813.056 209.491 812.037 208.605 810.708C207.719 809.366 207.276 807.746 207.276 805.848C207.276 804.177 207.605 802.823 208.263 801.785C208.921 800.735 209.801 799.912 210.902 799.317C212.003 798.722 213.218 798.279 214.547 797.988C215.888 797.685 217.236 797.444 218.59 797.267C220.362 797.039 221.799 796.868 222.9 796.754C224.014 796.628 224.824 796.419 225.33 796.128C225.849 795.837 226.108 795.33 226.108 794.609V794.457C226.108 792.584 225.596 791.129 224.571 790.091C223.558 789.053 222.02 788.534 219.957 788.534C217.818 788.534 216.141 789.002 214.926 789.939C213.711 790.875 212.857 791.875 212.364 792.938L208.111 791.42C208.87 789.648 209.883 788.268 211.149 787.281C212.427 786.281 213.819 785.585 215.325 785.193C216.844 784.788 218.337 784.585 219.805 784.585C220.742 784.585 221.818 784.699 223.033 784.927C224.26 785.142 225.444 785.592 226.583 786.275C227.735 786.958 228.69 787.99 229.449 789.369C230.209 790.749 230.589 792.597 230.589 794.913V814.125H226.108V810.176H225.88C225.577 810.809 225.07 811.486 224.362 812.208C223.653 812.929 222.71 813.543 221.533 814.049C220.356 814.555 218.92 814.808 217.224 814.808ZM217.907 810.784C219.679 810.784 221.172 810.436 222.387 809.74C223.615 809.044 224.539 808.145 225.159 807.044C225.792 805.943 226.108 804.785 226.108 803.57V799.469C225.918 799.697 225.501 799.906 224.855 800.096C224.222 800.273 223.488 800.431 222.653 800.57C221.83 800.697 221.027 800.811 220.242 800.912C219.47 801 218.844 801.076 218.363 801.14C217.198 801.292 216.11 801.538 215.097 801.88C214.097 802.209 213.287 802.709 212.667 803.38C212.06 804.038 211.756 804.937 211.756 806.076C211.756 807.632 212.332 808.809 213.484 809.607C214.648 810.391 216.122 810.784 217.907 810.784ZM238.766 814.125V784.965H243.094V789.521H243.474C244.082 787.965 245.063 786.756 246.417 785.895C247.771 785.022 249.397 784.585 251.296 784.585C253.219 784.585 254.821 785.022 256.099 785.895C257.39 786.756 258.396 787.965 259.117 789.521H259.421C260.168 788.015 261.288 786.819 262.781 785.933C264.275 785.035 266.066 784.585 268.154 784.585C270.761 784.585 272.894 785.402 274.552 787.034C276.21 788.654 277.039 791.179 277.039 794.609V814.125H272.558V794.609C272.558 792.458 271.97 790.92 270.793 789.996C269.616 789.072 268.23 788.61 266.635 788.61C264.585 788.61 262.996 789.23 261.87 790.47C260.744 791.698 260.18 793.255 260.18 795.141V814.125H255.624V794.153C255.624 792.495 255.086 791.16 254.011 790.148C252.935 789.123 251.549 788.61 249.853 788.61C248.689 788.61 247.6 788.92 246.588 789.54C245.588 790.16 244.778 791.021 244.158 792.122C243.55 793.211 243.246 794.47 243.246 795.9V814.125H238.766ZM297.456 814.732C294.647 814.732 292.223 814.112 290.185 812.872C288.16 811.619 286.597 809.873 285.496 807.632C284.408 805.38 283.863 802.76 283.863 799.773C283.863 796.786 284.408 794.153 285.496 791.875C286.597 789.585 288.129 787.8 290.09 786.522C292.065 785.231 294.368 784.585 297.001 784.585C298.519 784.585 300.019 784.838 301.5 785.345C302.981 785.851 304.329 786.674 305.544 787.813C306.759 788.939 307.727 790.433 308.448 792.293C309.17 794.153 309.53 796.444 309.53 799.165V801.064H287.053V797.191H304.974C304.974 795.546 304.645 794.078 303.987 792.787C303.341 791.496 302.417 790.477 301.215 789.73C300.025 788.983 298.621 788.61 297.001 788.61C295.216 788.61 293.672 789.053 292.368 789.939C291.077 790.812 290.084 791.951 289.388 793.356C288.692 794.761 288.344 796.267 288.344 797.874V800.456C288.344 802.658 288.723 804.525 289.483 806.057C290.255 807.575 291.324 808.733 292.691 809.531C294.058 810.315 295.646 810.708 297.456 810.708C298.633 810.708 299.696 810.543 300.646 810.214C301.607 809.873 302.436 809.366 303.133 808.695C303.829 808.012 304.367 807.164 304.746 806.152L309.075 807.367C308.619 808.835 307.853 810.126 306.778 811.239C305.702 812.34 304.373 813.201 302.791 813.821C301.209 814.429 299.431 814.732 297.456 814.732Z" fill="white"/>
<path d="M181.519 882.207H169.521V843.327H182.05C185.822 843.327 189.049 844.105 191.732 845.662C194.415 847.206 196.472 849.427 197.902 852.325C199.332 855.211 200.047 858.666 200.047 862.691C200.047 866.741 199.326 870.228 197.883 873.151C196.44 876.062 194.34 878.302 191.58 879.872C188.821 881.428 185.467 882.207 181.519 882.207ZM174.229 878.03H181.215C184.43 878.03 187.094 877.41 189.207 876.17C191.321 874.929 192.897 873.164 193.935 870.873C194.972 868.582 195.491 865.855 195.491 862.691C195.491 859.552 194.979 856.85 193.953 854.585C192.928 852.306 191.397 850.56 189.359 849.345C187.322 848.117 184.784 847.503 181.747 847.503H174.229V878.03ZM219.563 882.814C216.754 882.814 214.33 882.194 212.292 880.954C210.267 879.701 208.704 877.954 207.603 875.714C206.515 873.461 205.971 870.841 205.971 867.855C205.971 864.868 206.515 862.235 207.603 859.957C208.704 857.666 210.236 855.882 212.197 854.604C214.172 853.313 216.475 852.667 219.108 852.667C220.627 852.667 222.126 852.92 223.607 853.426C225.088 853.933 226.436 854.755 227.651 855.894C228.866 857.021 229.834 858.514 230.555 860.375C231.277 862.235 231.637 864.526 231.637 867.247V869.146H209.16V865.273H227.081C227.081 863.627 226.752 862.159 226.094 860.868C225.449 859.577 224.525 858.559 223.322 857.812C222.133 857.065 220.728 856.692 219.108 856.692C217.323 856.692 215.779 857.135 214.476 858.021C213.185 858.894 212.191 860.033 211.495 861.438C210.799 862.843 210.451 864.349 210.451 865.956V868.538C210.451 870.74 210.831 872.607 211.59 874.138C212.362 875.657 213.431 876.815 214.798 877.613C216.165 878.397 217.754 878.79 219.563 878.79C220.74 878.79 221.804 878.625 222.753 878.296C223.715 877.954 224.544 877.448 225.24 876.777C225.936 876.094 226.474 875.246 226.853 874.233L231.182 875.448C230.726 876.916 229.96 878.207 228.885 879.321C227.809 880.422 226.48 881.283 224.898 881.903C223.316 882.511 221.538 882.814 219.563 882.814ZM261.41 853.047L250.627 882.207H246.07L235.287 853.047H240.147L248.197 876.284H248.5L256.55 853.047H261.41ZM278.505 882.814C275.695 882.814 273.272 882.194 271.234 880.954C269.209 879.701 267.646 877.954 266.545 875.714C265.456 873.461 264.912 870.841 264.912 867.855C264.912 864.868 265.456 862.235 266.545 859.957C267.646 857.666 269.177 855.882 271.139 854.604C273.114 853.313 275.417 852.667 278.049 852.667C279.568 852.667 281.068 852.92 282.549 853.426C284.03 853.933 285.377 854.755 286.592 855.894C287.807 857.021 288.776 858.514 289.497 860.375C290.218 862.235 290.579 864.526 290.579 867.247V869.146H268.102V865.273H286.023C286.023 863.627 285.694 862.159 285.036 860.868C284.39 859.577 283.466 858.559 282.264 857.812C281.074 857.065 279.669 856.692 278.049 856.692C276.265 856.692 274.721 857.135 273.417 858.021C272.126 858.894 271.133 860.033 270.437 861.438C269.741 862.843 269.393 864.349 269.393 865.956V868.538C269.393 870.74 269.772 872.607 270.532 874.138C271.304 875.657 272.373 876.815 273.74 877.613C275.107 878.397 276.695 878.79 278.505 878.79C279.682 878.79 280.745 878.625 281.694 878.296C282.656 877.954 283.485 877.448 284.181 876.777C284.877 876.094 285.415 875.246 285.795 874.233L290.123 875.448C289.668 876.916 288.902 878.207 287.826 879.321C286.751 880.422 285.422 881.283 283.84 881.903C282.258 882.511 280.479 882.814 278.505 882.814ZM301.875 843.327V882.207H297.395V843.327H301.875ZM321.927 882.814C319.295 882.814 316.985 882.188 314.998 880.935C313.023 879.682 311.479 877.929 310.366 875.676C309.264 873.423 308.714 870.791 308.714 867.779C308.714 864.741 309.264 862.09 310.366 859.824C311.479 857.559 313.023 855.8 314.998 854.547C316.985 853.294 319.295 852.667 321.927 852.667C324.56 852.667 326.863 853.294 328.837 854.547C330.824 855.8 332.368 857.559 333.47 859.824C334.583 862.09 335.14 864.741 335.14 867.779C335.14 870.791 334.583 873.423 333.47 875.676C332.368 877.929 330.824 879.682 328.837 880.935C326.863 882.188 324.56 882.814 321.927 882.814ZM321.927 878.79C323.927 878.79 325.572 878.277 326.863 877.252C328.154 876.227 329.109 874.879 329.73 873.208C330.35 871.538 330.66 869.728 330.66 867.779C330.66 865.83 330.35 864.013 329.73 862.33C329.109 860.647 328.154 859.286 326.863 858.249C325.572 857.211 323.927 856.692 321.927 856.692C319.927 856.692 318.282 857.211 316.991 858.249C315.7 859.286 314.745 860.647 314.124 862.33C313.504 864.013 313.194 865.83 313.194 867.779C313.194 869.728 313.504 871.538 314.124 873.208C314.745 874.879 315.7 876.227 316.991 877.252C318.282 878.277 319.927 878.79 321.927 878.79ZM341.979 893.142V853.047H346.308V857.679H346.839C347.168 857.173 347.624 856.527 348.206 855.743C348.801 854.945 349.649 854.237 350.75 853.616C351.864 852.984 353.37 852.667 355.268 852.667C357.724 852.667 359.888 853.281 361.761 854.509C363.634 855.736 365.096 857.476 366.146 859.729C367.197 861.982 367.722 864.64 367.722 867.703C367.722 870.791 367.197 873.468 366.146 875.733C365.096 877.986 363.64 879.732 361.78 880.973C359.919 882.2 357.774 882.814 355.344 882.814C353.471 882.814 351.971 882.504 350.845 881.884C349.719 881.251 348.852 880.536 348.244 879.739C347.637 878.929 347.168 878.258 346.839 877.726H346.46V893.142H341.979ZM346.384 867.627C346.384 869.829 346.706 871.772 347.352 873.455C347.997 875.126 348.94 876.436 350.181 877.385C351.421 878.321 352.94 878.79 354.737 878.79C356.61 878.79 358.173 878.296 359.426 877.309C360.692 876.309 361.641 874.967 362.274 873.284C362.919 871.588 363.242 869.702 363.242 867.627C363.242 865.576 362.925 863.729 362.293 862.083C361.672 860.425 360.729 859.115 359.464 858.154C358.211 857.179 356.635 856.692 354.737 856.692C352.914 856.692 351.383 857.154 350.143 858.078C348.902 858.989 347.966 860.267 347.333 861.913C346.7 863.545 346.384 865.45 346.384 867.627ZM386.782 882.814C383.973 882.814 381.549 882.194 379.511 880.954C377.486 879.701 375.923 877.954 374.822 875.714C373.734 873.461 373.19 870.841 373.19 867.855C373.19 864.868 373.734 862.235 374.822 859.957C375.923 857.666 377.455 855.882 379.416 854.604C381.391 853.313 383.694 852.667 386.327 852.667C387.845 852.667 389.345 852.92 390.826 853.426C392.307 853.933 393.655 854.755 394.87 855.894C396.085 857.021 397.053 858.514 397.774 860.375C398.496 862.235 398.856 864.526 398.856 867.247V869.146H376.379V865.273H394.3C394.3 863.627 393.971 862.159 393.313 860.868C392.668 859.577 391.744 858.559 390.541 857.812C389.352 857.065 387.947 856.692 386.327 856.692C384.542 856.692 382.998 857.135 381.695 858.021C380.404 858.894 379.41 860.033 378.714 861.438C378.018 862.843 377.67 864.349 377.67 865.956V868.538C377.67 870.74 378.05 872.607 378.809 874.138C379.581 875.657 380.65 876.815 382.017 877.613C383.384 878.397 384.973 878.79 386.782 878.79C387.959 878.79 389.023 878.625 389.972 878.296C390.934 877.954 391.763 877.448 392.459 876.777C393.155 876.094 393.693 875.246 394.072 874.233L398.401 875.448C397.945 876.916 397.179 878.207 396.104 879.321C395.028 880.422 393.699 881.283 392.117 881.903C390.535 882.511 388.757 882.814 386.782 882.814ZM405.672 882.207V853.047H410V857.451H410.304C410.836 856.008 411.797 854.838 413.19 853.939C414.582 853.04 416.151 852.591 417.898 852.591C418.227 852.591 418.638 852.598 419.132 852.61C419.625 852.623 419.999 852.642 420.252 852.667V857.223C420.1 857.185 419.752 857.128 419.208 857.053C418.676 856.964 418.113 856.92 417.518 856.92C416.101 856.92 414.835 857.217 413.721 857.812C412.62 858.394 411.747 859.204 411.101 860.242C410.469 861.267 410.152 862.438 410.152 863.754V882.207H405.672Z" fill="white"/>
<path d="M93.7491 72.5113C92.5216 68.7544 90.9035 65.388 88.8948 62.4123C86.9234 59.3993 84.5614 56.8327 81.8088 54.7125C79.0934 52.5922 76.0061 50.9742 72.5467 49.8582C69.0874 48.7423 65.2933 48.1844 61.1644 48.1844C54.3945 48.1844 48.2384 49.9326 42.6961 53.4292C37.1537 56.9257 32.7458 62.0775 29.4725 68.8846C26.1991 75.6916 24.5625 84.0424 24.5625 93.9368C24.5625 103.831 26.2177 112.182 29.5283 118.989C32.8388 125.796 37.3211 130.948 42.975 134.444C48.629 137.941 54.9897 139.689 62.0571 139.689C68.6038 139.689 74.3694 138.294 79.3538 135.505C84.3754 132.678 88.2811 128.697 91.0709 123.564C93.8979 118.394 95.3113 112.312 95.3113 105.319L99.5518 106.212H65.1817V93.9368H108.702V106.212C108.702 115.623 106.694 123.806 102.676 130.762C98.6963 137.718 93.1911 143.111 86.1609 146.943C79.1678 150.737 71.1332 152.634 62.0571 152.634C51.9395 152.634 43.0494 150.253 35.3868 145.492C27.7614 140.731 21.8099 133.961 17.5322 125.182C13.2918 116.404 11.1715 105.989 11.1715 93.9368C11.1715 84.8979 12.3804 76.7703 14.7982 69.5541C17.2532 62.3007 20.7126 56.126 25.1762 51.03C29.6399 45.934 34.9219 42.0283 41.0222 39.3129C47.1225 36.5975 53.8366 35.2398 61.1644 35.2398C67.1903 35.2398 72.8071 36.1511 78.0147 37.9738C83.2595 39.7592 87.9277 42.3072 92.0194 45.6178C96.1483 48.8911 99.589 52.8154 102.342 57.3907C105.094 61.9287 106.991 66.9689 108.033 72.5113H93.7491ZM135.986 151.072V65.3694H149.154V151.072H135.986ZM142.682 51.0858C140.115 51.0858 137.902 50.2116 136.042 48.4634C134.219 46.7151 133.308 44.6135 133.308 42.1585C133.308 39.7034 134.219 37.6018 136.042 35.8535C137.902 34.1053 140.115 33.2311 142.682 33.2311C145.248 33.2311 147.443 34.1053 149.266 35.8535C151.126 37.6018 152.056 39.7034 152.056 42.1585C152.056 44.6135 151.126 46.7151 149.266 48.4634C147.443 50.2116 145.248 51.0858 142.682 51.0858ZM210.543 65.3694V76.5286H166.13V65.3694H210.543ZM179.075 44.8366H192.242V126.521C192.242 130.241 192.782 133.031 193.86 134.891C194.976 136.713 196.39 137.941 198.101 138.573C199.849 139.168 201.69 139.466 203.625 139.466C205.075 139.466 206.266 139.392 207.196 139.243C208.125 139.057 208.869 138.908 209.427 138.796L212.106 150.625C211.213 150.96 209.967 151.295 208.367 151.629C206.768 152.001 204.741 152.187 202.286 152.187C198.566 152.187 194.921 151.388 191.35 149.788C187.816 148.189 184.877 145.752 182.534 142.479C180.228 139.206 179.075 135.077 179.075 130.092V44.8366ZM354.44 72.5113C353.213 68.7544 351.595 65.388 349.586 62.4123C347.615 59.3993 345.253 56.8327 342.5 54.7125C339.785 52.5922 336.697 50.9742 333.238 49.8582C329.779 48.7423 325.984 48.1844 321.856 48.1844C315.086 48.1844 308.93 49.9326 303.387 53.4292C297.845 56.9257 293.437 62.0775 290.164 68.8846C286.89 75.6916 285.254 84.0424 285.254 93.9368C285.254 103.831 286.909 112.182 290.219 118.989C293.53 125.796 298.012 130.948 303.666 134.444C309.32 137.941 315.681 139.689 322.748 139.689C329.295 139.689 335.061 138.294 340.045 135.505C345.067 132.678 348.972 128.697 351.762 123.564C354.589 118.394 356.003 112.312 356.003 105.319L360.243 106.212H325.873V93.9368H369.393V106.212C369.393 115.623 367.385 123.806 363.368 130.762C359.387 137.718 353.882 143.111 346.852 146.943C339.859 150.737 331.824 152.634 322.748 152.634C312.631 152.634 303.741 150.253 296.078 145.492C288.453 140.731 282.501 133.961 278.223 125.182C273.983 116.404 271.863 105.989 271.863 93.9368C271.863 84.8979 273.072 76.7703 275.489 69.5541C277.944 62.3007 281.404 56.126 285.867 51.03C290.331 45.934 295.613 42.0283 301.713 39.3129C307.814 36.5975 314.528 35.2398 321.856 35.2398C327.882 35.2398 333.498 36.1511 338.706 37.9738C343.951 39.7592 348.619 42.3072 352.711 45.6178C356.839 48.8911 360.28 52.8154 363.033 57.3907C365.785 61.9287 367.682 66.9689 368.724 72.5113H354.44ZM445.317 116.032V65.3694H458.485V151.072H445.317V136.565H444.425C442.416 140.917 439.291 144.618 435.051 147.668C430.811 150.681 425.454 152.187 418.982 152.187C413.625 152.187 408.864 151.016 404.698 148.672C400.532 146.292 397.259 142.721 394.878 137.96C392.498 133.161 391.307 127.117 391.307 119.826V65.3694H404.475V118.933C404.475 125.182 406.223 130.167 409.72 133.886C413.253 137.606 417.754 139.466 423.222 139.466C426.496 139.466 429.825 138.629 433.21 136.955C436.632 135.281 439.496 132.715 441.802 129.255C444.146 125.796 445.317 121.388 445.317 116.032ZM514.964 152.857C507.822 152.857 501.518 151.053 496.05 147.445C490.582 143.8 486.304 138.666 483.217 132.045C480.129 125.387 478.586 117.52 478.586 108.444C478.586 99.442 480.129 91.6306 483.217 85.0095C486.304 78.3884 490.6 73.2738 496.105 69.6657C501.611 66.0576 507.971 64.2535 515.187 64.2535C520.767 64.2535 525.175 65.1835 528.411 67.0433C531.684 68.866 534.177 70.949 535.888 73.2924C537.636 75.5986 538.994 77.4957 539.961 78.9836H541.077V36.8021H554.244V151.072H541.523V137.904H539.961C538.994 139.466 537.617 141.437 535.832 143.818C534.046 146.162 531.498 148.263 528.188 150.123C524.877 151.946 520.469 152.857 514.964 152.857ZM516.75 141.028C522.032 141.028 526.495 139.652 530.141 136.899C533.786 134.11 536.557 130.26 538.454 125.35C540.351 120.403 541.3 114.693 541.3 108.22C541.3 101.823 540.37 96.2244 538.51 91.426C536.65 86.5904 533.898 82.8335 530.252 80.1553C526.607 77.4399 522.106 76.0822 516.75 76.0822C511.17 76.0822 506.521 77.5143 502.801 80.3785C499.118 83.2054 496.347 87.0553 494.487 91.9282C492.665 96.7638 491.753 102.195 491.753 108.22C491.753 114.321 492.683 119.863 494.543 124.848C496.44 129.795 499.23 133.738 502.912 136.676C506.632 139.578 511.245 141.028 516.75 141.028Z" fill="white"/>
<path d="M48.6662 352.977C40.9292 352.977 34.1407 351.135 28.3008 347.453C22.498 343.77 17.96 338.619 14.6866 331.997C11.4505 325.376 9.83242 317.639 9.83242 308.786C9.83242 299.859 11.4505 292.066 14.6866 285.408C17.96 278.75 22.498 273.579 28.3008 269.897C34.1407 266.214 40.9292 264.373 48.6662 264.373C56.4032 264.373 63.1731 266.214 68.9758 269.897C74.8157 273.579 79.3538 278.75 82.5899 285.408C85.8633 292.066 87.5 299.859 87.5 308.786C87.5 317.639 85.8633 325.376 82.5899 331.997C79.3538 338.619 74.8157 343.77 68.9758 347.453C63.1731 351.135 56.4032 352.977 48.6662 352.977ZM48.6662 341.148C54.5433 341.148 59.3789 339.641 63.1731 336.629C66.9672 333.616 69.7755 329.654 71.5982 324.744C73.4209 319.834 74.3322 314.515 74.3322 308.786C74.3322 303.058 73.4209 297.72 71.5982 292.773C69.7755 287.826 66.9672 283.827 63.1731 280.777C59.3789 277.727 54.5433 276.202 48.6662 276.202C42.789 276.202 37.9534 277.727 34.1593 280.777C30.3652 283.827 27.5568 287.826 25.7342 292.773C23.9115 297.72 23.0002 303.058 23.0002 308.786C23.0002 314.515 23.9115 319.834 25.7342 324.744C27.5568 329.654 30.3652 333.616 34.1593 336.629C37.9534 339.641 42.789 341.148 48.6662 341.148ZM107.6 351.191V265.489H120.322V278.434H121.214C122.777 274.193 125.604 270.752 129.695 268.111C133.787 265.47 138.4 264.15 143.533 264.15C144.5 264.15 145.709 264.169 147.159 264.206C148.61 264.243 149.707 264.299 150.451 264.373V277.764C150.005 277.653 148.982 277.485 147.383 277.262C145.82 277.002 144.165 276.871 142.417 276.871C138.251 276.871 134.531 277.746 131.258 279.494C128.022 281.205 125.455 283.585 123.558 286.636C121.698 289.649 120.768 293.089 120.768 296.958V351.191H107.6ZM290.15 272.631C288.922 268.874 287.304 265.508 285.295 262.532C283.324 259.519 280.962 256.952 278.209 254.832C275.494 252.712 272.407 251.094 268.947 249.978C265.488 248.862 261.694 248.304 257.565 248.304C250.795 248.304 244.639 250.052 239.097 253.549C233.554 257.045 229.146 262.197 225.873 269.004C222.6 275.811 220.963 284.162 220.963 294.056C220.963 303.951 222.618 312.302 225.929 319.109C229.239 325.916 233.722 331.068 239.376 334.564C245.03 338.061 251.39 339.809 258.458 339.809C265.004 339.809 270.77 338.414 275.754 335.624C280.776 332.797 284.682 328.817 287.472 323.684C290.298 318.514 291.712 312.432 291.712 305.439L295.952 306.331H261.582V294.056H305.103V306.331C305.103 315.742 303.094 323.926 299.077 330.882C295.097 337.837 289.592 343.231 282.561 347.062C275.568 350.856 267.534 352.753 258.458 352.753C248.34 352.753 239.45 350.373 231.787 345.612C224.162 340.85 218.211 334.08 213.933 325.302C209.692 316.523 207.572 306.108 207.572 294.056C207.572 285.018 208.781 276.89 211.199 269.674C213.654 262.42 217.113 256.246 221.577 251.15C226.041 246.054 231.322 242.148 237.423 239.432C243.523 236.717 250.237 235.359 257.565 235.359C263.591 235.359 269.208 236.271 274.415 238.093C279.66 239.879 284.328 242.427 288.42 245.737C292.549 249.011 295.99 252.935 298.742 257.51C301.495 262.048 303.392 267.089 304.433 272.631H290.15ZM332.387 351.191V265.489H345.555V351.191H332.387ZM339.082 251.205C336.516 251.205 334.303 250.331 332.443 248.583C330.62 246.835 329.709 244.733 329.709 242.278C329.709 239.823 330.62 237.721 332.443 235.973C334.303 234.225 336.516 233.351 339.082 233.351C341.649 233.351 343.844 234.225 345.666 235.973C347.526 237.721 348.456 239.823 348.456 242.278C348.456 244.733 347.526 246.835 345.666 248.583C343.844 250.331 341.649 251.205 339.082 251.205ZM406.944 265.489V276.648H362.531V265.489H406.944ZM375.475 244.956H388.643V326.641C388.643 330.361 389.182 333.151 390.261 335.01C391.377 336.833 392.79 338.061 394.501 338.693C396.25 339.288 398.091 339.586 400.025 339.586C401.476 339.586 402.666 339.511 403.596 339.362C404.526 339.177 405.27 339.028 405.828 338.916L408.506 350.745C407.613 351.08 406.367 351.414 404.768 351.749C403.168 352.121 401.141 352.307 398.686 352.307C394.966 352.307 391.321 351.507 387.75 349.908C384.216 348.308 381.278 345.872 378.935 342.599C376.628 339.325 375.475 335.196 375.475 330.212V244.956Z" fill="white"/>
<path d="M15.6352 551.311V437.041H54.2458C63.1731 437.041 70.5009 438.567 76.2292 441.617C81.9576 444.63 86.1981 448.777 88.9506 454.059C91.7032 459.341 93.0795 465.348 93.0795 472.081C93.0795 478.814 91.7032 484.784 88.9506 489.992C86.1981 495.199 81.9762 499.291 76.285 502.267C70.5939 505.205 63.3218 506.674 54.4689 506.674H23.2234V494.176H54.0226C60.1229 494.176 65.0329 493.283 68.7526 491.498C72.5095 489.713 75.2249 487.183 76.8988 483.91C78.6098 480.599 79.4654 476.656 79.4654 472.081C79.4654 467.506 78.6098 463.507 76.8988 460.085C75.1877 456.663 72.4537 454.022 68.6968 452.162C64.9399 450.265 59.9741 449.316 53.7994 449.316H29.4725V551.311H15.6352ZM69.4222 499.979L97.5432 551.311H81.474L53.7994 499.979H69.4222ZM149.363 553.096C141.106 553.096 133.982 551.274 127.994 547.628C122.042 543.946 117.448 538.813 114.212 532.229C111.013 525.608 109.414 517.908 109.414 509.129C109.414 500.351 111.013 492.614 114.212 485.918C117.448 479.186 121.949 473.941 127.715 470.184C133.517 466.39 140.287 464.493 148.024 464.493C152.488 464.493 156.896 465.237 161.248 466.725C165.6 468.213 169.561 470.63 173.132 473.978C176.703 477.289 179.549 481.678 181.669 487.146C183.789 492.614 184.849 499.347 184.849 507.344V512.924H118.787V501.541H171.458C171.458 496.706 170.491 492.391 168.557 488.597C166.66 484.803 163.945 481.808 160.411 479.614C156.914 477.419 152.785 476.322 148.024 476.322C142.779 476.322 138.241 477.623 134.41 480.227C130.616 482.794 127.696 486.142 125.65 490.27C123.604 494.399 122.581 498.826 122.581 503.55V511.138C122.581 517.61 123.697 523.097 125.929 527.598C128.198 532.061 131.341 535.465 135.359 537.808C139.376 540.115 144.044 541.268 149.363 541.268C152.823 541.268 155.947 540.784 158.737 539.817C161.564 538.813 164 537.325 166.046 535.353C168.092 533.345 169.673 530.853 170.789 527.877L183.51 531.448C182.171 535.763 179.921 539.557 176.759 542.83C173.597 546.066 169.692 548.596 165.042 550.418C160.392 552.204 155.166 553.096 149.363 553.096ZM217.155 520.065L216.932 503.773H219.61L257.105 465.609H273.397L233.447 506.005H232.331L217.155 520.065ZM204.88 551.311V437.041H218.048V551.311H204.88ZM259.337 551.311L225.859 508.906L235.233 499.756L276.075 551.311H259.337ZM327.616 465.609V476.768H283.203V465.609H327.616ZM296.148 445.076H309.315V526.761C309.315 530.481 309.855 533.27 310.934 535.13C312.049 536.953 313.463 538.18 315.174 538.813C316.922 539.408 318.764 539.705 320.698 539.705C322.148 539.705 323.339 539.631 324.269 539.482C325.199 539.296 325.943 539.147 326.501 539.036L329.179 550.865C328.286 551.199 327.04 551.534 325.44 551.869C323.841 552.241 321.814 552.427 319.359 552.427C315.639 552.427 311.994 551.627 308.423 550.028C304.889 548.428 301.95 545.992 299.607 542.718C297.301 539.445 296.148 535.316 296.148 530.332V445.076Z" fill="white"/>
</g>
<defs>
<clipPath id="clip0_312_2362">
<rect width="676" height="1127" fill="white"/>
</clipPath>
</defs>
</svg>
