<svg width="1127" height="676" viewBox="0 0 1127 676" fill="none" xmlns="http://www.w3.org/2000/svg">
<g clip-path="url(#clip0_313_2649)">
<path d="M1127 0H0V676H1127V0Z" fill="#E4E4E4"/>
<path d="M396.264 0.0450439H646.661V675.977H396.264V0.0450439Z" fill="#C9C9C9"/>
<path d="M184.679 250.058V42.8517H215.142L349.178 212.415L344.161 215.128C343.444 210.041 342.727 204.954 342.011 198.85C341.294 193.085 340.936 186.981 340.219 180.198C339.86 173.755 339.144 166.633 339.144 159.172C338.785 151.711 338.427 143.911 338.427 135.772C338.068 127.633 338.068 119.155 338.068 110.677V42.5126H371.757V249.719H340.936L209.408 86.2599L212.992 82.1904C214.067 94.0598 214.784 104.573 215.5 112.712C216.217 121.19 216.934 128.312 217.292 134.077C217.651 139.842 218.009 144.59 218.367 148.32C218.726 152.05 218.726 155.103 218.726 157.476C218.726 159.85 218.726 161.885 218.726 163.581V249.719H184.679V250.058Z" fill="#AE2EDC"/>
<path d="M524.429 253.11C509.019 253.11 494.683 250.397 481.781 244.971C468.879 239.545 457.411 232.084 447.735 222.589C438.058 213.093 430.532 201.902 425.156 189.015C419.78 176.128 417.272 161.885 417.272 146.624C417.272 131.364 419.78 117.12 425.156 104.234C430.532 91.3468 438.058 80.1556 447.735 70.6601C457.411 61.1645 468.879 53.7037 481.781 48.2777C494.683 42.8517 509.019 40.1387 524.429 40.1387C539.84 40.1387 554.175 42.8517 567.077 48.2777C579.979 53.7037 591.447 61.1645 601.124 70.6601C610.8 80.4947 618.326 91.6859 623.702 104.573C629.078 117.46 631.587 131.703 631.587 146.624C631.587 161.885 629.078 175.789 623.702 188.676C618.326 201.563 610.8 212.754 601.124 222.589C591.447 232.423 579.979 239.884 567.077 244.971C554.175 250.397 539.84 253.11 524.429 253.11ZM524.429 221.911C535.181 221.911 544.857 219.876 553.817 216.145C562.776 212.415 570.303 206.989 576.754 200.206C583.204 193.424 588.222 185.285 591.806 176.128C595.39 166.972 597.182 156.798 597.182 145.946C597.182 135.094 595.39 124.92 591.806 115.764C588.222 106.608 583.204 98.4685 576.754 91.6859C570.303 84.9034 562.776 79.4774 553.817 75.747C544.857 72.0166 535.181 69.9818 524.429 69.9818C513.678 69.9818 504.001 72.0166 495.041 75.747C486.082 80.1556 478.556 85.5816 472.105 92.3642C465.654 99.1467 460.636 106.947 457.053 116.103C453.469 125.259 451.677 135.433 451.677 146.285C451.677 157.137 453.469 167.311 457.053 176.468C460.636 185.624 465.654 193.763 472.105 200.546C478.556 207.328 486.44 212.415 495.4 216.145C504.001 219.876 513.678 221.911 524.429 221.911Z" fill="#AE2EDC"/>
<path d="M719.033 250.058V73.7122H657.749V42.8517H816.155V73.7122H752.721V250.058H719.033Z" fill="#AE2EDC"/>
<path d="M161.743 584.437L246.68 377.23H281.085L365.306 584.437H329.467L279.293 459.638C278.576 458.282 277.501 454.89 275.709 449.464C273.917 444.038 271.767 438.273 269.617 431.83C267.466 425.386 265.316 419.282 263.524 413.856C261.732 408.43 260.299 405.039 259.94 403.343L267.108 403.004C266.033 406.395 264.241 410.465 262.449 415.891C260.657 420.978 258.865 426.404 256.715 432.169C254.565 437.934 252.773 443.36 250.981 448.447C249.189 453.534 247.397 457.603 246.322 460.995L196.506 584.776H161.743V584.437ZM199.373 532.89L211.917 502.029H311.548L325.883 532.89H199.373Z" fill="#AE2EDC"/>
<path d="M652.48 419.724V377.043H668.911C671.935 377.043 674.617 377.532 677.023 378.58C679.429 379.628 681.491 381.095 683.21 382.981C684.929 384.867 686.235 387.172 687.197 389.757C688.091 392.341 688.572 395.275 688.572 398.419C688.572 401.562 688.091 404.496 687.197 407.08C686.304 409.735 684.997 411.97 683.279 413.856C681.56 415.742 679.498 417.209 677.091 418.187C674.617 419.235 671.935 419.724 668.911 419.724H652.48ZM658.942 414.066L658.736 413.367H668.567C670.698 413.367 672.554 413.018 674.204 412.319C675.854 411.621 677.298 410.643 678.398 409.386C679.566 408.128 680.391 406.522 681.01 404.636C681.629 402.749 681.904 400.654 681.904 398.349C681.904 396.044 681.629 393.948 681.01 392.132C680.391 390.316 679.498 388.709 678.398 387.382C677.229 386.055 675.854 385.077 674.204 384.378C672.554 383.68 670.698 383.33 668.567 383.33H658.53L658.874 382.771V414.066H658.942Z" fill="#130202"/>
<path d="M714.902 420.283C711.946 420.283 709.196 419.724 706.721 418.606C704.247 417.489 702.047 415.952 700.19 413.996C698.334 412.04 696.891 409.735 695.859 407.011C694.828 404.356 694.347 401.422 694.347 398.279C694.347 395.136 694.828 392.202 695.859 389.547C696.891 386.893 698.334 384.588 700.19 382.632C702.047 380.676 704.247 379.139 706.721 378.021C709.196 376.904 711.946 376.345 714.902 376.345C717.858 376.345 720.608 376.904 723.083 378.021C725.558 379.139 727.758 380.676 729.614 382.632C731.47 384.658 732.914 386.963 733.945 389.617C734.976 392.272 735.458 395.205 735.458 398.279C735.458 401.422 734.976 404.286 733.945 406.941C732.914 409.595 731.47 411.9 729.614 413.926C727.758 415.952 725.558 417.489 723.083 418.536C720.608 419.794 717.927 420.283 714.902 420.283ZM714.902 413.926C716.965 413.926 718.821 413.507 720.54 412.739C722.258 411.97 723.702 410.853 724.939 409.455C726.177 408.058 727.139 406.382 727.827 404.496C728.514 402.61 728.858 400.514 728.858 398.279C728.858 396.044 728.514 393.948 727.827 392.062C727.139 390.176 726.177 388.499 724.939 387.102C723.702 385.705 722.258 384.588 720.54 383.819C718.821 383.051 716.965 382.632 714.902 382.632C712.84 382.632 710.984 383.051 709.265 383.819C707.546 384.588 706.103 385.635 704.797 387.033C703.559 388.43 702.597 390.036 701.909 391.922C701.222 393.808 700.878 395.904 700.878 398.139C700.878 400.375 701.222 402.47 701.909 404.356C702.597 406.242 703.559 407.919 704.797 409.316C706.034 410.713 707.546 411.761 709.265 412.529C711.053 413.507 712.909 413.926 714.902 413.926Z" fill="#130202"/>
<path d="M761.307 420.283C758.419 420.283 755.738 419.724 753.263 418.676C750.788 417.628 748.726 416.091 746.87 414.136C745.082 412.18 743.707 409.805 742.676 407.15C741.645 404.496 741.232 401.492 741.232 398.279C741.232 395.205 741.782 392.411 742.814 389.757C743.845 387.102 745.357 384.797 747.213 382.841C749.07 380.815 751.269 379.279 753.744 378.231C756.219 377.113 758.9 376.554 761.788 376.554C763.85 376.554 765.844 376.904 767.769 377.532C769.694 378.161 771.481 379.069 773.062 380.187C774.643 381.304 775.95 382.562 776.912 384.029L772.581 388.569C771.412 387.382 770.244 386.404 769.075 385.635C767.906 384.867 766.669 384.238 765.5 383.819C764.263 383.4 763.025 383.191 761.788 383.191C759.794 383.191 758.007 383.54 756.288 384.308C754.569 385.077 753.126 386.124 751.819 387.452C750.582 388.779 749.551 390.385 748.863 392.271C748.176 394.157 747.763 396.113 747.763 398.349C747.763 400.654 748.107 402.749 748.795 404.635C749.482 406.522 750.513 408.128 751.751 409.455C753.057 410.783 754.569 411.83 756.357 412.529C758.144 413.227 760.138 413.577 762.269 413.577C763.575 413.577 764.881 413.367 766.188 413.018C767.494 412.669 768.662 412.11 769.762 411.411C770.862 410.713 771.894 409.874 772.856 408.966L776.087 414.345C775.193 415.463 773.887 416.441 772.306 417.349C770.725 418.257 768.937 418.955 767.013 419.444C765.225 420.073 763.3 420.283 761.307 420.283Z" fill="#130202"/>
<path d="M792.999 419.724V383.4H781.243V377.043H811.629V383.4H799.461V419.724H792.999Z" fill="#130202"/>
<path d="M837.134 420.283C834.178 420.283 831.428 419.724 828.954 418.606C826.479 417.489 824.279 415.952 822.423 413.996C820.566 412.04 819.123 409.735 818.092 407.011C817.06 404.356 816.579 401.422 816.579 398.279C816.579 395.136 817.06 392.202 818.092 389.547C819.123 386.893 820.566 384.588 822.423 382.632C824.279 380.676 826.479 379.139 828.954 378.021C831.428 376.904 834.178 376.345 837.134 376.345C840.091 376.345 842.84 376.904 845.315 378.021C847.79 379.139 849.99 380.676 851.846 382.632C853.702 384.658 855.146 386.963 856.177 389.617C857.209 392.272 857.69 395.205 857.69 398.279C857.69 401.422 857.209 404.286 856.177 406.941C855.146 409.595 853.702 411.9 851.846 413.926C849.99 415.952 847.79 417.489 845.315 418.536C842.84 419.794 840.091 420.283 837.134 420.283ZM837.134 413.926C839.197 413.926 841.053 413.507 842.772 412.739C844.49 411.97 845.934 410.853 847.172 409.455C848.409 408.058 849.371 406.382 850.059 404.496C850.746 402.61 851.09 400.514 851.09 398.279C851.09 396.044 850.746 393.948 850.059 392.062C849.371 390.176 848.409 388.499 847.172 387.102C845.934 385.705 844.49 384.588 842.772 383.819C841.053 383.051 839.197 382.632 837.134 382.632C835.072 382.632 833.216 383.051 831.497 383.819C829.779 384.588 828.335 385.635 827.029 387.033C825.791 388.43 824.829 390.036 824.141 391.922C823.454 393.808 823.11 395.904 823.11 398.139C823.11 400.375 823.454 402.47 824.141 404.356C824.829 406.242 825.791 407.919 827.029 409.316C828.266 410.713 829.779 411.761 831.497 412.529C833.216 413.507 835.141 413.926 837.134 413.926Z" fill="#130202"/>
<path d="M866.489 419.724V377.043H884.364C886.77 377.043 888.97 377.672 890.963 378.86C892.957 380.047 894.607 381.654 895.776 383.749C896.944 385.775 897.563 388.08 897.563 390.665C897.563 392.97 896.944 395.135 895.776 397.161C894.607 399.187 892.957 400.724 890.963 401.981C888.97 403.169 886.77 403.797 884.295 403.797H872.952V419.864H866.489V419.724ZM872.952 397.301H884.982C886.151 397.301 887.182 397.022 888.076 396.393C888.97 395.834 889.726 394.996 890.207 393.948C890.757 392.9 890.963 391.783 890.963 390.525C890.963 389.128 890.62 387.871 890.001 386.753C889.313 385.705 888.42 384.797 887.251 384.238C886.082 383.61 884.707 383.33 883.264 383.33H872.952V397.301ZM891.445 419.724L880.789 400.444L887.457 398.908L899.35 419.724H891.445Z" fill="#130202"/>
<path d="M669.488 527.992C666.6 527.992 663.919 527.433 661.444 526.385C658.969 525.337 656.907 523.801 655.051 521.845C653.263 519.889 651.888 517.514 650.857 514.859C649.895 512.205 649.413 509.201 649.413 505.988C649.413 502.915 649.963 500.12 650.995 497.466C652.026 494.812 653.538 492.506 655.394 490.55C657.251 488.525 659.451 486.988 661.925 485.94C664.4 484.822 667.081 484.264 669.969 484.264C672.031 484.264 674.025 484.613 675.95 485.242C677.875 485.87 679.662 486.778 681.243 487.896C682.824 489.014 684.131 490.271 685.093 491.738L680.762 496.278C679.593 495.091 678.425 494.113 677.256 493.345C676.087 492.576 674.85 491.948 673.681 491.528C672.444 491.109 671.206 490.9 669.969 490.9C667.975 490.9 666.188 491.249 664.469 492.017C662.75 492.786 661.307 493.834 660 495.161C658.763 496.488 657.732 498.095 657.044 499.981C656.357 501.797 655.944 503.823 655.944 506.058C655.944 508.363 656.288 510.459 656.976 512.345C657.663 514.231 658.694 515.837 659.932 517.165C661.238 518.492 662.75 519.54 664.538 520.238C666.325 520.937 668.319 521.286 670.45 521.286C671.756 521.286 673.062 521.076 674.369 520.727C675.675 520.378 676.844 519.819 677.943 519.12C679.043 518.422 680.075 517.584 681.037 516.676L684.268 522.054C683.374 523.172 682.068 524.15 680.487 525.058C678.906 525.966 677.118 526.665 675.194 527.154C673.406 527.782 671.481 527.992 669.488 527.992Z" fill="#130202"/>
<path d="M693.205 527.433V484.753H699.668V527.433H693.205ZM696.024 509.341V502.984H723.523V509.341H696.024ZM720.635 527.433V484.753H727.098V527.433H720.635Z" fill="#130202"/>
<path d="M738.853 527.433V484.753H765.321V491.109H745.316V521.076H765.321V527.433H738.853ZM741.809 508.712V502.356H762.021V508.712H741.809Z" fill="#130202"/>
<path d="M775.702 527.433V484.753H782.095L797.426 510.04L794.332 509.97L809.8 484.753H815.781V527.433H809.319V509.97C809.319 506.337 809.388 502.984 809.594 500.12C809.8 497.187 810.075 494.323 810.556 491.389L811.381 493.624L797.632 515.209H793.645L780.308 493.903L780.995 491.389C781.408 494.113 781.751 496.907 781.958 499.771C782.164 502.635 782.233 506.058 782.233 509.97V527.433H775.702Z" fill="#130202"/>
<path d="M826.024 527.433V521.286H832.83V490.83H826.024V484.753H846.099V490.83H839.293V521.286H846.099V527.363H826.024V527.433Z" fill="#130202"/>
<path d="M869.198 527.992C866.929 527.992 864.798 527.713 862.873 527.084C860.948 526.455 859.161 525.547 857.579 524.29C855.998 523.032 854.623 521.496 853.317 519.679L857.786 514.51C859.711 517.374 861.635 519.33 863.423 520.448C865.21 521.565 867.341 522.124 869.816 522.124C871.329 522.124 872.704 521.915 873.941 521.426C875.179 520.937 876.141 520.238 876.897 519.4C877.585 518.562 877.997 517.584 877.997 516.466C877.997 515.768 877.86 515.069 877.654 514.371C877.447 513.742 877.035 513.113 876.554 512.624C876.072 512.135 875.385 511.576 874.629 511.157C873.872 510.738 872.91 510.319 871.879 509.97C870.848 509.621 869.61 509.341 868.304 509.062C866.173 508.643 864.248 508.014 862.667 507.315C861.085 506.617 859.711 505.639 858.679 504.591C857.579 503.473 856.823 502.216 856.273 500.819C855.723 499.422 855.517 497.815 855.517 496.069C855.517 494.392 855.861 492.786 856.617 491.319C857.373 489.852 858.404 488.595 859.711 487.477C861.017 486.429 862.529 485.591 864.317 484.962C866.104 484.403 867.96 484.054 870.023 484.054C872.154 484.054 874.147 484.334 875.935 484.892C877.722 485.451 879.303 486.29 880.747 487.407C882.122 488.525 883.291 489.922 884.253 491.529L879.716 496.069C878.891 494.742 877.997 493.624 877.035 492.716C876.004 491.808 874.904 491.109 873.735 490.62C872.566 490.131 871.26 489.922 869.885 489.922C868.304 489.922 866.998 490.131 865.829 490.62C864.66 491.109 863.767 491.808 863.079 492.646C862.392 493.554 862.117 494.532 862.117 495.72C862.117 496.558 862.254 497.326 862.598 498.095C862.942 498.793 863.423 499.422 864.042 499.981C864.729 500.54 865.623 501.029 866.723 501.448C867.823 501.867 869.198 502.216 870.71 502.565C872.91 503.054 874.904 503.683 876.622 504.451C878.341 505.22 879.785 506.058 881.022 507.106C882.191 508.154 883.153 509.271 883.772 510.529C884.391 511.786 884.734 513.183 884.734 514.58C884.734 517.304 884.116 519.679 882.878 521.635C881.641 523.661 879.853 525.128 877.585 526.246C875.11 527.503 872.36 527.992 869.198 527.992Z" fill="#130202"/>
<path d="M901.646 527.433V491.109H889.89V484.753H920.277V491.109H908.177V527.433H901.646Z" fill="#130202"/>
<path d="M660.42 635.345V599.022H648.664V592.665H679.05V599.022H666.951V635.345H660.42Z" fill="#130202"/>
<path d="M687.025 635.345V592.665H713.492V599.022H693.487V628.989H713.492V635.345H687.025ZM689.981 616.625V610.268H710.193V616.625H689.981Z" fill="#130202"/>
<path d="M719.473 635.345L735.766 592.665H742.366L758.522 635.345H751.647L742.022 609.639C741.885 609.36 741.679 608.661 741.335 607.544C740.991 606.426 740.579 605.239 740.166 603.911C739.754 602.584 739.341 601.327 738.998 600.209C738.654 599.092 738.379 598.393 738.31 598.044L739.685 597.974C739.479 598.672 739.135 599.511 738.791 600.628C738.448 601.676 738.104 602.794 737.691 603.981C737.279 605.169 736.935 606.286 736.591 607.334C736.248 608.382 735.904 609.22 735.698 609.919L726.142 635.415H719.473V635.345ZM726.692 624.728L729.098 618.371H748.21L750.96 624.728H726.692Z" fill="#130202"/>
<path d="M782.927 635.904C780.04 635.904 777.358 635.345 774.884 634.298C772.409 633.25 770.346 631.713 768.49 629.757C766.703 627.801 765.328 625.426 764.296 622.772C763.334 620.117 762.853 617.114 762.853 613.9C762.853 610.827 763.403 608.033 764.434 605.378C765.465 602.724 766.978 600.419 768.834 598.463C770.69 596.507 772.89 594.9 775.365 593.853C777.84 592.735 780.521 592.176 783.408 592.176C785.471 592.176 787.464 592.525 789.389 593.154C791.314 593.783 793.101 594.691 794.683 595.808C796.264 596.926 797.57 598.183 798.532 599.65L794.201 604.191C793.033 603.003 791.864 602.025 790.695 601.257C789.527 600.489 788.289 599.86 787.12 599.441C785.883 599.022 784.646 598.812 783.408 598.812C781.414 598.812 779.627 599.161 777.908 599.93C776.19 600.698 774.746 601.746 773.44 603.073C772.202 604.4 771.171 606.007 770.484 607.893C769.796 609.709 769.384 611.735 769.384 613.97C769.384 616.275 769.727 618.371 770.415 620.257C771.102 622.143 772.134 623.75 773.371 625.077C774.677 626.404 776.19 627.452 777.977 628.15C779.765 628.849 781.758 629.198 783.889 629.198C785.196 629.198 786.502 628.989 787.808 628.639C789.114 628.29 790.283 627.731 791.383 627.033C792.483 626.334 793.514 625.496 794.476 624.588L797.708 629.967C796.814 631.084 795.508 632.062 793.926 632.97C792.345 633.878 790.558 634.577 788.633 635.066C786.845 635.695 784.852 635.904 782.927 635.904Z" fill="#130202"/>
<path d="M806.645 635.345V592.665H813.107V635.345H806.645ZM809.463 617.253V610.897H836.962V617.253H809.463ZM834.006 635.345V592.665H840.468V635.345H834.006Z" fill="#130202"/>
<path d="M852.293 635.345V592.665H878.76V599.022H858.755V628.989H878.76V635.345H852.293ZM855.249 616.625V610.268H875.46V616.625H855.249Z" fill="#130202"/>
<path d="M889.141 635.345V592.665H907.015C909.421 592.665 911.621 593.294 913.615 594.481C915.609 595.669 917.259 597.275 918.427 599.371C919.596 601.397 920.215 603.702 920.215 606.286C920.215 608.592 919.596 610.757 918.427 612.783C917.259 614.809 915.609 616.345 913.615 617.603C911.621 618.79 909.421 619.419 906.946 619.419H895.534V635.485H889.141V635.345ZM895.603 612.923H907.634C908.803 612.923 909.834 612.643 910.728 612.014C911.621 611.456 912.377 610.617 912.859 609.57C913.409 608.522 913.615 607.404 913.615 606.147C913.615 604.75 913.271 603.492 912.652 602.375C911.965 601.327 911.071 600.489 909.903 599.86C908.734 599.231 907.359 598.952 905.915 598.952H895.603V612.923ZM914.096 635.345L903.44 616.066L910.109 614.529L922.002 635.415L914.096 635.345Z" fill="#130202"/>
<path d="M182.089 314.622V271.921H200.009C202.375 271.921 204.629 272.484 206.658 273.724C208.687 274.963 210.264 276.54 211.504 278.568C212.744 280.596 213.307 282.962 213.307 285.441C213.307 287.807 212.744 289.948 211.504 291.863C210.264 293.778 208.687 295.468 206.658 296.595C204.629 297.834 202.488 298.398 200.009 298.398H188.513V314.622H182.089ZM188.513 292.201H200.572C201.699 292.201 202.826 291.863 203.728 291.3C204.629 290.736 205.418 289.948 205.869 288.821C206.433 287.807 206.658 286.68 206.658 285.328C206.658 283.864 206.32 282.624 205.644 281.61C204.967 280.484 204.066 279.695 202.939 279.132C201.812 278.568 200.459 278.23 198.994 278.23H188.626V292.201H188.513ZM206.996 314.622L196.29 295.356L202.939 293.778L214.885 314.622H206.996Z" fill="#130202"/>
<path d="M241.37 315.185C238.439 315.185 235.735 314.622 233.142 313.495C230.663 312.368 228.409 310.904 226.606 308.876C224.69 306.96 223.338 304.594 222.323 301.89C221.309 299.186 220.745 296.257 220.745 293.102C220.745 289.948 221.309 287.018 222.323 284.314C223.338 281.61 224.803 279.357 226.606 277.329C228.522 275.414 230.663 273.836 233.142 272.71C235.622 271.583 238.327 271.02 241.37 271.02C244.3 271.02 247.005 271.583 249.597 272.71C252.076 273.836 254.33 275.301 256.133 277.329C257.936 279.357 259.402 281.61 260.416 284.314C261.43 287.018 261.994 289.835 261.994 292.99C261.994 296.144 261.43 298.961 260.416 301.665C259.402 304.369 257.936 306.622 256.133 308.65C254.33 310.678 252.076 312.143 249.597 313.27C247.005 314.622 244.3 315.185 241.37 315.185ZM241.37 308.763C243.398 308.763 245.314 308.425 247.005 307.636C248.695 306.848 250.16 305.721 251.4 304.369C252.64 303.017 253.654 301.327 254.33 299.412C255.006 297.496 255.344 295.468 255.344 293.215C255.344 290.962 255.006 288.934 254.33 287.018C253.654 285.103 252.64 283.526 251.4 282.061C250.16 280.709 248.695 279.582 247.005 278.794C245.314 278.005 243.398 277.667 241.37 277.667C239.341 277.667 237.425 278.005 235.735 278.794C234.044 279.582 232.579 280.596 231.339 282.061C230.1 283.413 229.085 285.103 228.409 287.018C227.733 288.934 227.395 290.962 227.395 293.215C227.395 295.468 227.733 297.496 228.409 299.412C229.085 301.327 230.1 303.017 231.339 304.369C232.579 305.721 234.044 306.848 235.735 307.636C237.425 308.425 239.341 308.763 241.37 308.763Z" fill="#130202"/>
<path d="M270.672 314.622V271.921H288.14C290.845 271.921 293.099 272.372 294.902 273.16C296.705 273.949 298.17 275.188 299.072 276.766C299.974 278.343 300.537 280.371 300.537 282.624C300.537 284.878 299.861 286.906 298.621 288.483C297.381 290.06 295.578 291.187 293.324 291.863V290.624C295.24 291.074 296.818 291.75 298.283 292.764C299.635 293.778 300.762 295.13 301.551 296.595C302.34 298.172 302.678 299.862 302.678 301.89C302.678 303.918 302.34 305.721 301.777 307.298C301.101 308.876 300.199 310.228 299.072 311.242C297.832 312.256 296.367 313.157 294.677 313.608C292.986 314.171 290.958 314.396 288.816 314.396H270.672V314.622ZM277.208 289.61H287.915C289.154 289.61 290.169 289.384 291.07 288.934C291.972 288.483 292.761 287.807 293.324 286.906C293.888 286.004 294.113 285.103 294.113 283.976C294.113 282.174 293.55 280.709 292.31 279.808C291.07 278.794 289.38 278.343 287.126 278.343H277.208V289.61ZM277.208 308.2H288.478C290.169 308.2 291.521 307.974 292.648 307.524C293.775 307.073 294.677 306.284 295.24 305.383C295.804 304.482 296.142 303.242 296.142 301.89C296.142 300.651 295.804 299.524 295.127 298.623C294.451 297.722 293.55 297.046 292.31 296.595C291.07 296.144 289.718 295.919 288.027 295.919H277.095V308.2H277.208Z" fill="#130202"/>
<path d="M311.582 314.622V271.921H338.066V278.23H318.118V308.2H338.066V314.509H311.582V314.622ZM314.512 295.806V289.497H334.685V295.806H314.512Z" fill="#130202"/>
<path d="M348.435 314.622V271.921H366.354C368.721 271.921 370.975 272.484 373.003 273.724C375.032 274.963 376.61 276.54 377.849 278.568C379.089 280.596 379.652 282.962 379.652 285.441C379.652 287.807 379.089 289.948 377.849 291.863C376.61 293.778 375.032 295.468 373.003 296.595C370.975 297.834 368.833 298.398 366.354 298.398H354.971V314.622H348.435ZM354.858 292.201H366.805C367.932 292.201 369.059 291.863 369.96 291.3C370.862 290.736 371.651 289.948 372.102 288.821C372.665 287.807 372.89 286.68 372.89 285.328C372.89 283.864 372.552 282.624 371.876 281.61C371.2 280.484 370.298 279.695 369.171 279.132C368.044 278.568 366.692 278.23 365.227 278.23H354.858V292.201ZM373.341 314.622L362.635 295.356L369.284 293.778L381.23 314.622H373.341Z" fill="#130202"/>
<path d="M403.094 315.185C400.84 315.185 398.699 314.847 396.783 314.284C394.867 313.72 393.064 312.706 391.486 311.467C389.908 310.228 388.443 308.65 387.203 306.848L391.599 301.665C393.515 304.482 395.43 306.51 397.234 307.524C399.037 308.538 401.178 309.214 403.658 309.214C405.123 309.214 406.588 308.988 407.827 308.538C409.067 308.087 410.081 307.411 410.758 306.51C411.434 305.608 411.885 304.707 411.885 303.58C411.885 302.904 411.772 302.116 411.547 301.552C411.321 300.989 410.983 300.313 410.42 299.75C409.969 299.186 409.293 298.736 408.504 298.285C407.715 297.834 406.813 297.496 405.799 297.046C404.785 296.708 403.545 296.37 402.192 296.144C400.051 295.694 398.135 295.13 396.557 294.342C394.98 293.666 393.627 292.652 392.5 291.638C391.373 290.511 390.584 289.272 390.134 287.92C389.57 286.568 389.345 284.99 389.345 283.188C389.345 281.498 389.683 279.92 390.472 278.456C391.261 276.991 392.275 275.752 393.515 274.625C394.867 273.498 396.332 272.71 398.135 272.146C399.938 271.583 401.742 271.245 403.883 271.245C406.024 271.245 408.053 271.583 409.856 272.146C411.659 272.71 413.237 273.611 414.702 274.625C416.055 275.752 417.294 277.104 418.196 278.794L413.688 283.413C412.899 282.061 411.997 280.934 410.983 280.033C409.969 279.132 408.842 278.456 407.715 278.005C406.475 277.554 405.235 277.329 403.883 277.329C402.305 277.329 400.953 277.554 399.826 278.005C398.699 278.456 397.797 279.132 397.121 280.033C396.445 280.934 396.107 281.948 396.107 283.075C396.107 283.976 396.219 284.765 396.557 285.441C396.896 286.117 397.346 286.793 398.023 287.356C398.699 287.92 399.6 288.37 400.727 288.821C401.854 289.272 403.207 289.61 404.785 289.948C407.039 290.398 408.954 291.074 410.645 291.863C412.335 292.652 413.801 293.553 415.04 294.567C416.28 295.581 417.182 296.708 417.745 297.947C418.309 299.186 418.647 300.538 418.647 302.003C418.647 304.707 417.97 307.073 416.731 309.101C415.491 311.129 413.688 312.594 411.434 313.72C408.954 314.622 406.25 315.185 403.094 315.185Z" fill="#130202"/>
<path d="M445.131 315.185C442.201 315.185 439.496 314.622 436.904 313.495C434.425 312.368 432.171 310.904 430.367 308.876C428.452 306.96 427.099 304.594 426.085 301.89C425.071 299.186 424.507 296.257 424.507 293.102C424.507 289.948 425.071 287.018 426.085 284.314C427.099 281.61 428.564 279.357 430.367 277.329C432.283 275.414 434.425 273.836 436.904 272.71C439.383 271.583 442.088 271.02 445.131 271.02C448.061 271.02 450.766 271.583 453.358 272.71C455.838 273.836 458.092 275.301 459.895 277.329C461.698 279.357 463.163 281.61 464.177 284.314C465.192 287.018 465.755 289.835 465.755 292.99C465.755 296.144 465.192 298.961 464.177 301.665C463.163 304.369 461.698 306.622 459.895 308.65C458.092 310.678 455.838 312.143 453.358 313.27C450.879 314.622 448.061 315.185 445.131 315.185ZM445.131 308.763C447.16 308.763 449.076 308.425 450.766 307.636C452.457 306.848 453.922 305.721 455.161 304.369C456.401 303.017 457.415 301.327 458.092 299.412C458.768 297.496 459.106 295.468 459.106 293.215C459.106 290.962 458.768 288.934 458.092 287.018C457.415 285.103 456.401 283.526 455.161 282.061C453.922 280.709 452.457 279.582 450.766 278.794C449.076 278.005 447.16 277.667 445.131 277.667C443.103 277.667 441.187 278.005 439.496 278.794C437.806 279.582 436.341 280.596 435.101 282.061C433.861 283.413 432.847 285.103 432.171 287.018C431.494 288.934 431.156 290.962 431.156 293.215C431.156 295.468 431.494 297.496 432.171 299.412C432.847 301.327 433.861 303.017 435.101 304.369C436.341 305.721 437.806 306.848 439.496 307.636C441.187 308.425 443.103 308.763 445.131 308.763Z" fill="#130202"/>
<path d="M474.433 314.622V271.921H480.294L505.989 306.848L504.975 307.411C504.862 306.397 504.637 305.27 504.524 304.144C504.411 302.904 504.299 301.665 504.186 300.313C504.073 298.961 503.961 297.496 503.961 296.032C503.961 294.567 503.848 292.877 503.848 291.3C503.848 289.61 503.735 287.92 503.735 286.117V272.146H510.272V314.622H504.299L479.054 280.934L479.73 280.033C479.955 282.512 480.068 284.652 480.294 286.342C480.406 288.032 480.519 289.497 480.632 290.736C480.744 291.976 480.857 292.877 480.857 293.666C480.857 294.454 480.97 295.018 480.97 295.581C480.97 296.032 480.97 296.482 480.97 296.82V314.622H474.433Z" fill="#130202"/>
<path d="M193.585 361.547C190.993 361.547 188.626 360.984 186.485 359.857C184.343 358.731 182.653 357.266 181.3 355.351C180.061 353.435 179.385 351.407 179.385 349.154C179.385 347.915 179.61 346.675 179.948 345.549C180.286 344.422 180.85 343.408 181.526 342.507C182.202 341.605 183.104 340.704 184.118 339.915C185.132 339.127 186.259 338.451 187.612 337.887L187.274 339.127C186.259 338.676 185.358 338.225 184.456 337.662C183.667 337.099 182.878 336.423 182.315 335.634C181.751 334.845 181.3 334.057 180.962 333.155C180.624 332.254 180.512 331.353 180.512 330.339C180.512 328.198 181.075 326.283 182.315 324.48C183.442 322.677 185.02 321.325 187.048 320.311C189.077 319.297 191.218 318.734 193.697 318.734C196.177 318.734 198.318 319.297 200.347 320.311C202.375 321.325 203.953 322.79 205.08 324.48C206.207 326.283 206.883 328.198 206.883 330.339C206.883 331.353 206.771 332.254 206.433 333.155C206.094 334.057 205.756 334.845 205.193 335.634C204.629 336.31 203.953 336.986 203.052 337.662C202.15 338.225 201.248 338.789 200.121 339.239L199.896 338.225C201.136 338.676 202.15 339.352 203.164 340.141C204.179 340.929 204.967 341.831 205.756 342.732C206.433 343.746 206.996 344.76 207.447 345.887C207.785 347.013 208.01 348.14 208.01 349.267C208.01 351.633 207.334 353.661 206.094 355.576C204.855 357.491 203.052 358.956 200.91 360.083C198.544 360.984 196.177 361.547 193.585 361.547ZM193.585 355.463C195.05 355.463 196.402 355.125 197.529 354.562C198.656 353.999 199.671 353.21 200.347 352.196C201.023 351.182 201.361 350.055 201.361 348.816C201.361 347.464 201.023 346.337 200.347 345.211C199.671 344.197 198.769 343.295 197.529 342.732C196.402 342.169 195.05 341.831 193.585 341.831C192.12 341.831 190.767 342.169 189.64 342.732C188.513 343.295 187.612 344.197 186.935 345.211C186.259 346.225 185.921 347.464 185.921 348.816C185.921 350.055 186.259 351.182 186.935 352.083C187.612 353.097 188.513 353.886 189.64 354.449C190.767 355.125 192.12 355.463 193.585 355.463ZM193.585 336.197C194.824 336.197 196.064 335.972 197.078 335.521C198.093 335.071 198.882 334.395 199.445 333.493C200.009 332.705 200.347 331.691 200.347 330.564C200.347 329.437 200.009 328.536 199.445 327.635C198.882 326.733 198.093 326.057 197.078 325.607C196.064 325.043 194.937 324.818 193.585 324.818C192.345 324.818 191.105 325.043 190.091 325.607C189.077 326.17 188.288 326.846 187.724 327.635C187.161 328.536 186.823 329.437 186.823 330.564C186.823 331.691 187.161 332.592 187.724 333.493C188.288 334.282 189.077 334.958 190.091 335.521C191.105 335.859 192.232 336.197 193.585 336.197Z" fill="#130202"/>
<path d="M229.085 361.998C225.93 361.998 223.112 361.097 220.858 359.294C218.604 357.491 216.801 355.013 215.561 351.745C214.322 348.478 213.758 344.535 213.758 340.028C213.758 335.521 214.322 331.578 215.674 328.311C216.914 325.043 218.717 322.565 220.971 320.762C223.225 318.959 226.042 318.058 229.198 318.058C232.354 318.058 235.171 318.959 237.425 320.762C239.792 322.565 241.482 325.043 242.722 328.311C243.962 331.578 244.638 335.521 244.638 340.028C244.638 344.535 243.962 348.478 242.722 351.745C241.482 355.013 239.679 357.604 237.425 359.294C235.058 361.097 232.354 361.998 229.085 361.998ZM229.085 356.027C232.015 356.027 234.269 354.675 235.847 351.858C237.425 349.041 238.214 345.098 238.214 340.028C238.214 334.958 237.425 331.015 235.847 328.198C234.269 325.381 232.015 324.029 229.085 324.029C226.155 324.029 223.901 325.381 222.323 328.198C220.745 331.015 219.957 334.958 219.957 340.028C219.957 345.098 220.745 349.041 222.323 351.858C223.901 354.675 226.155 356.027 229.085 356.027Z" fill="#130202"/>
<path d="M268.53 361.435V327.071L269.995 327.409L256.133 344.535L255.908 343.859H282.054V349.943H251.963L249.259 344.422L269.77 318.734H274.729V361.435H268.53Z" fill="#130202"/>
<path d="M287.802 347.013V340.817H305.045V347.013H287.802Z" fill="#130202"/>
<path d="M314.963 361.435L332.318 322.903L332.995 324.818H311.807V318.734H337.841L338.63 322.903L321.837 361.435H314.963Z" fill="#130202"/>
<path d="M347.42 361.435L364.776 322.903L365.452 324.818H344.265V318.734H370.298L371.087 322.903L354.408 361.435H347.42Z" fill="#130202"/>
<path d="M378.864 361.435L376.835 356.477L389.683 341.831C390.359 341.155 391.035 340.253 391.824 339.352C392.613 338.451 393.289 337.437 393.965 336.423C394.642 335.409 395.205 334.395 395.656 333.381C396.107 332.367 396.332 331.465 396.332 330.564C396.332 329.212 396.107 328.198 395.543 327.297C395.092 326.395 394.303 325.719 393.402 325.156C392.5 324.705 391.373 324.48 390.021 324.48C388.894 324.48 387.767 324.818 386.64 325.494C385.513 326.17 384.499 327.184 383.597 328.423C382.695 329.663 381.906 331.127 381.456 332.817L376.497 329.663C377.173 327.297 378.187 325.269 379.54 323.579C380.892 321.889 382.583 320.649 384.499 319.748C386.414 318.847 388.556 318.396 390.81 318.396C393.176 318.396 395.318 318.847 397.121 319.861C398.924 320.875 400.389 322.227 401.404 324.029C402.418 325.832 402.981 327.86 402.981 330.113C402.981 331.015 402.869 332.029 402.643 332.93C402.418 333.944 402.08 334.958 401.629 335.972C401.178 336.986 400.615 338.113 399.938 339.239C399.262 340.366 398.473 341.493 397.459 342.732C396.557 343.971 395.43 345.211 394.303 346.563L384.724 356.928L383.484 355.125H404.108V361.435H378.864Z" fill="#130202"/>
<path d="M409.293 347.013V340.817H426.536V347.013H409.293Z" fill="#130202"/>
<path d="M444.793 361.998C441.863 361.998 439.271 361.322 437.129 359.97C434.988 358.618 432.847 356.252 430.931 352.985L436.002 349.717C437.017 351.182 438.031 352.421 438.933 353.435C439.947 354.337 440.961 355.125 441.976 355.576C442.99 356.027 444.117 356.252 445.244 356.252C446.596 356.252 447.949 355.914 449.188 355.238C450.428 354.562 451.33 353.548 452.119 352.309C452.795 351.069 453.246 349.605 453.246 348.027C453.246 346.45 453.02 345.098 452.457 343.971C451.893 342.845 451.104 342.056 449.977 341.38C448.85 340.817 447.611 340.479 446.145 340.479C445.469 340.479 444.793 340.591 444.004 340.704C443.215 340.817 442.426 341.042 441.637 341.267C440.849 341.493 439.834 341.831 438.933 342.281L437.129 337.437L450.09 322.903L451.33 324.818H433.41V318.734H457.415L458.655 321.213L444.793 336.648L443.328 335.071C443.666 334.958 444.23 334.733 444.906 334.62C445.695 334.507 446.258 334.395 446.709 334.395C448.512 334.395 450.09 334.733 451.668 335.409C453.246 336.085 454.598 336.986 455.725 338.225C456.852 339.465 457.753 340.817 458.43 342.394C459.106 343.971 459.444 345.661 459.444 347.577C459.444 350.393 458.768 352.759 457.528 355.013C456.176 357.153 454.485 358.956 452.231 360.195C449.977 361.322 447.611 361.998 444.793 361.998Z" fill="#130202"/>
<path d="M476.913 361.773C474.208 361.773 471.616 361.097 469.362 359.857C467.108 358.618 465.304 356.703 463.727 354.337L467.333 350.281C469.249 352.421 470.827 353.886 472.292 354.562C473.644 355.351 475.222 355.689 476.8 355.689C478.49 355.689 479.955 355.351 481.195 354.562C482.435 353.773 483.562 352.872 484.351 351.52C485.14 350.281 485.478 348.816 485.478 347.351C485.478 345.774 485.14 344.309 484.351 342.957C483.562 341.718 482.66 340.704 481.421 339.915C480.181 339.127 478.828 338.789 477.251 338.789C476.462 338.789 475.786 338.789 475.109 338.901C474.433 339.014 473.644 339.239 472.63 339.577C471.616 339.915 470.376 340.479 468.798 341.267L465.417 336.535L467.897 318.396H490.549V324.48H471.954L473.193 323.353L471.165 336.873L469.7 335.071C470.151 334.62 470.827 334.282 471.728 333.831C472.743 333.493 473.757 333.155 474.884 332.817C476.011 332.592 477.138 332.367 478.265 332.367C480.857 332.367 483.111 332.93 485.14 334.169C487.168 335.409 488.746 336.986 489.986 339.127C491.113 341.267 491.789 343.633 491.789 346.337C491.789 349.154 491.113 351.633 489.76 353.886C488.408 356.139 486.605 357.942 484.351 359.294C482.322 361.209 479.73 361.773 476.913 361.773Z" fill="#130202"/>
<path d="M501.143 361.435L499.114 356.477L511.962 341.831C512.638 341.155 513.315 340.253 514.103 339.352C514.892 338.451 515.569 337.437 516.245 336.423C516.921 335.409 517.485 334.395 517.935 333.381C518.386 332.367 518.611 331.465 518.611 330.564C518.611 329.212 518.386 328.198 517.823 327.297C517.372 326.395 516.583 325.719 515.681 325.156C514.78 324.705 513.653 324.48 512.3 324.48C511.173 324.48 510.046 324.818 508.919 325.494C507.792 326.17 506.778 327.184 505.876 328.423C504.975 329.663 504.186 331.127 503.735 332.817L498.776 329.663C499.453 327.297 500.467 325.269 501.819 323.579C503.172 321.889 504.862 320.649 506.778 319.748C508.694 318.847 510.835 318.396 513.089 318.396C515.456 318.396 517.597 318.847 519.4 319.861C521.204 320.875 522.669 322.227 523.683 324.029C524.697 325.832 525.261 327.86 525.261 330.113C525.261 331.015 525.148 332.029 524.923 332.93C524.697 333.944 524.359 334.958 523.908 335.972C523.458 336.986 522.894 338.113 522.218 339.239C521.542 340.366 520.753 341.493 519.738 342.732C518.837 343.971 517.71 345.211 516.583 346.563L507.003 357.153L505.764 355.351H526.388V361.66H501.143V361.435Z" fill="#130202"/>
<path d="M545.434 361.435C543.406 361.435 541.377 361.097 539.686 360.308C537.883 359.519 536.418 358.505 535.066 357.153C533.713 355.801 532.699 354.224 532.023 352.421C531.234 350.619 530.896 348.591 530.896 346.337C530.896 345.211 531.009 343.971 531.347 342.619C531.685 341.267 532.136 339.803 532.699 338.113C533.263 336.535 534.051 334.733 534.953 332.93C535.855 331.127 536.869 329.212 537.996 327.297L543.406 317.945H549.717L549.942 318.509L543.293 329.775C542.053 331.803 541.039 333.831 540.137 335.634C539.236 337.549 538.447 339.239 537.771 340.929C537.094 342.619 536.644 344.084 536.305 345.436L534.84 339.127C535.629 337.887 536.418 336.761 537.32 335.859C538.221 334.958 539.123 334.057 540.137 333.493C541.152 332.817 542.279 332.367 543.293 332.029C544.42 331.691 545.547 331.578 546.787 331.578C549.153 331.578 551.182 332.254 553.21 333.493C555.126 334.733 556.704 336.423 557.944 338.563C559.071 340.704 559.747 342.957 559.747 345.549C559.747 348.591 559.184 351.295 557.944 353.661C556.704 356.027 555.014 357.942 552.872 359.294C550.731 360.646 548.252 361.435 545.434 361.435ZM545.434 355.238C547.012 355.238 548.364 354.9 549.604 354.111C550.844 353.323 551.745 352.309 552.534 350.957C553.21 349.605 553.549 348.027 553.549 346.337C553.549 344.873 553.21 343.408 552.422 342.056C551.745 340.704 550.731 339.69 549.491 338.901C548.252 338.113 546.899 337.662 545.434 337.662C543.744 337.662 542.279 338 541.039 338.789C539.799 339.577 538.785 340.591 537.996 341.943C537.32 343.295 536.869 344.647 536.869 346.225C536.869 347.915 537.207 349.492 537.996 350.844C538.672 352.196 539.686 353.323 540.926 354.111C542.391 354.9 543.856 355.238 545.434 355.238Z" fill="#130202"/>
<g opacity="0.07">
<path d="M56.6376 86.333H-7.04382V78.2794L45.0687 42.976L45.9025 44.2999C44.3391 44.5205 42.7757 44.7412 40.8997 44.8515C39.1278 45.0721 37.2518 45.1825 35.1673 45.2928C33.187 45.4031 30.9983 45.5134 28.7053 45.6237C26.4124 45.7341 24.0152 45.7341 21.5138 45.8444C19.0124 45.9547 16.4068 45.9547 13.8012 45.9547H-7.04382V37.0185H56.6376V45.1825L6.4012 79.9343L5.15049 79.0517C8.79837 78.831 12.0293 78.5001 14.5307 78.3897C17.1364 78.1691 19.3251 78.0588 21.0969 77.9484C22.8687 77.8381 24.3279 77.7278 25.4744 77.6175C26.6208 77.6175 27.5589 77.5072 28.2884 77.5072C29.018 77.5072 29.6434 77.5072 30.1645 77.5072H56.6376V86.333Z" fill="black"/>
<path d="M57.5757 -3.35978C57.5757 0.722183 56.7419 4.47317 55.0743 7.89319C53.4067 11.3132 51.1138 14.2919 48.1955 16.9397C45.2772 19.4771 41.8377 21.4629 37.8772 22.8971C33.9166 24.3313 29.5392 24.9933 24.8491 24.9933C20.159 24.9933 15.7815 24.3313 11.821 22.8971C7.86041 21.4629 4.42098 19.4771 1.50268 16.9397C-1.41562 14.4023 -3.70856 11.4235 -5.37616 7.89319C-7.04376 4.47317 -7.87756 0.722183 -7.87756 -3.35978C-7.87756 -7.44173 -7.04376 -11.1927 -5.37616 -14.6127C-3.70856 -18.0328 -1.41562 -21.0115 1.50268 -23.6592C4.52521 -26.1967 7.96463 -28.1825 11.9252 -29.6167C15.8857 -31.0509 20.2632 -31.7128 24.8491 -31.7128C29.5392 -31.7128 33.8124 -31.0509 37.773 -29.6167C41.7335 -28.1825 45.1729 -26.1967 48.1955 -23.6592C51.218 -21.1218 53.5109 -18.1431 55.0743 -14.6127C56.7419 -11.1927 57.5757 -7.44173 57.5757 -3.35978ZM47.987 -3.35978C47.987 -6.11786 47.3617 -8.76561 46.2152 -11.0824C45.0687 -13.3992 43.4011 -15.4953 41.3166 -17.1502C39.2321 -18.805 36.7307 -20.2392 33.9166 -21.1218C31.1026 -22.1147 27.9758 -22.556 24.6406 -22.556C21.3054 -22.556 18.1787 -22.1147 15.3646 -21.1218C12.5505 -20.1289 10.0491 -18.805 7.96463 -17.1502C5.88014 -15.4953 4.21253 -13.3992 3.06606 -11.0824C1.91958 -8.76561 1.29424 -6.11786 1.29424 -3.35978C1.29424 -0.601694 1.91958 2.04606 3.06606 4.36285C4.21253 6.67964 5.77591 8.77578 7.86041 10.4306C9.94491 12.1958 12.3421 13.5197 15.1562 14.4023C17.9702 15.2848 21.097 15.8365 24.4322 15.8365C27.7674 15.8365 30.8941 15.3952 33.7082 14.4023C36.5223 13.5197 39.0237 12.0855 41.1082 10.4306C43.1927 8.66545 44.756 6.67964 45.9025 4.36285C47.4659 2.04606 47.987 -0.491371 47.987 -3.35978Z" fill="black"/>
<path d="M159.403 92.4008L95.722 70.0051V60.9586L159.403 38.7837V48.2715L121.049 61.5103C120.632 61.6206 119.59 61.9515 117.922 62.5032C116.254 62.9445 114.483 63.4961 112.502 64.158C110.522 64.82 108.646 65.2612 106.978 65.8129C105.311 66.2542 104.268 66.5851 103.747 66.8058L103.643 64.9303C104.685 65.2612 105.936 65.7025 107.604 66.1438C109.167 66.5851 110.835 67.1367 112.606 67.578C114.378 68.1297 116.046 68.5709 117.609 69.1226C119.173 69.6742 120.423 70.0051 121.466 70.3361L159.508 83.4646V92.4008H159.403ZM143.561 82.4717L134.077 79.162V52.905L143.561 49.1541V82.4717Z" fill="black"/>
<path d="M5.61487 327.992V273.394H14.9951L56.1578 318.093L54.6129 318.822C54.3922 317.572 54.1714 316.113 53.9507 314.55C53.73 312.988 53.6197 311.425 53.399 309.653C53.2886 307.882 53.0679 306.111 53.0679 304.131C52.9575 302.151 52.8472 300.172 52.8472 297.984C52.7368 295.9 52.7368 293.607 52.7368 291.315V273.394H63.1103V327.992H53.6197L13.1191 284.959L14.2226 283.917C14.5537 287.043 14.7744 289.752 14.9951 291.94C15.2158 294.128 15.4365 296.004 15.5469 297.567C15.6572 299.13 15.7676 300.38 15.878 301.318C15.9883 302.256 15.9883 303.089 15.9883 303.714C15.9883 304.339 15.9883 304.86 15.9883 305.381V328.096H5.61487V327.992Z" fill="black"/>
<path d="M110.232 328.825C105.487 328.825 101.073 328.096 97.0999 326.741C93.1271 325.387 89.5957 323.407 86.6161 320.802C83.6365 318.301 81.319 315.28 79.6637 311.946C78.0083 308.507 77.2358 304.86 77.2358 300.797C77.2358 296.733 78.0083 292.982 79.6637 289.648C81.319 286.21 83.6365 283.292 86.6161 280.791C89.5957 278.291 93.1271 276.311 97.0999 274.852C101.073 273.498 105.487 272.769 110.232 272.769C114.978 272.769 119.392 273.498 123.365 274.852C127.337 276.207 130.869 278.187 133.848 280.791C136.828 283.292 139.145 286.314 140.801 289.752C142.456 293.191 143.229 296.837 143.229 300.901C143.229 304.86 142.456 308.611 140.801 312.05C139.145 315.488 136.828 318.406 133.848 321.01C130.869 323.511 127.337 325.491 123.365 326.95C119.281 328.096 114.978 328.825 110.232 328.825ZM110.232 320.594C113.543 320.594 116.523 320.073 119.281 319.135C122.04 318.197 124.358 316.738 126.344 314.967C128.331 313.196 129.876 311.112 130.979 308.611C132.083 306.215 132.634 303.506 132.634 300.693C132.634 297.879 132.083 295.17 130.979 292.774C129.876 290.377 128.331 288.293 126.344 286.418C124.358 284.647 122.04 283.188 119.281 282.25C116.523 281.312 113.543 280.791 110.232 280.791C106.922 280.791 103.942 281.312 101.183 282.25C98.4242 283.188 96.1067 284.647 94.0099 286.418C92.0235 288.189 90.4785 290.273 89.375 292.67C88.2714 295.066 87.7196 297.775 87.7196 300.693C87.7196 303.506 88.2714 306.215 89.375 308.611C90.4785 311.008 92.0235 313.196 94.0099 314.967C95.9963 316.738 98.4242 318.093 101.183 319.135C103.942 320.177 106.922 320.594 110.232 320.594Z" fill="black"/>
<path d="M170.045 327.992V281.521H151.174V273.394H199.951V281.521H180.529V327.992H170.045Z" fill="black"/>
<path d="M-1.44788 416.14L24.7065 361.542H35.3006L61.2342 416.14H50.1986L34.7488 383.214C34.5281 382.902 34.1971 381.964 33.6453 380.61C33.0935 379.255 32.4314 377.692 31.7692 375.921C31.1071 374.254 30.445 372.587 29.8932 371.232C29.3414 369.773 28.9 368.836 28.7896 368.419L30.9967 368.315C30.6657 369.148 30.1139 370.294 29.5621 371.649C29.0103 373.003 28.4586 374.462 27.7964 375.921C27.1343 377.379 26.5825 378.838 26.0307 380.193C25.4789 381.547 24.9272 382.589 24.5961 383.527L9.25664 416.14H-1.44788ZM10.1395 402.594L14.0019 394.467H44.6809L49.0951 402.594H10.1395Z" fill="black"/>
</g>
<g opacity="0.07">
<path d="M883.939 450.565H947.62V458.619L895.508 493.922L894.674 492.598C896.237 492.378 897.801 492.157 899.677 492.047C901.448 491.936 903.324 491.716 905.409 491.605C907.389 491.495 909.578 491.385 911.871 491.274C914.164 491.164 916.561 491.164 919.062 491.054C921.564 491.054 924.169 490.943 926.775 490.943H947.724V499.88H884.043V491.716L934.071 456.964L935.322 457.847C931.569 458.067 928.443 458.398 925.941 458.508C923.336 458.729 921.147 458.839 919.375 458.95C917.603 459.06 916.144 459.17 914.998 459.281C913.851 459.281 912.913 459.391 912.184 459.391C911.454 459.391 910.829 459.391 910.308 459.391H883.834V450.565H883.939Z" fill="black"/>
<path d="M883.001 540.258C883.001 536.176 883.834 532.425 885.502 529.005C887.17 525.585 889.463 522.606 892.381 519.958C895.299 517.421 898.739 515.435 902.803 514.001C906.764 512.567 911.141 511.905 915.832 511.905C920.522 511.905 924.899 512.567 928.86 514.001C932.82 515.435 936.26 517.421 939.178 519.958C942.096 522.496 944.389 525.475 946.057 529.005C947.724 532.425 948.558 536.176 948.558 540.258C948.558 544.34 947.724 548.091 946.057 551.511C944.389 554.931 942.096 557.91 939.178 560.557C936.155 563.095 932.716 565.081 928.755 566.515C924.795 567.949 920.417 568.611 915.832 568.611C911.141 568.611 906.868 567.949 902.908 566.515C898.947 565.081 895.508 563.095 892.485 560.557C889.463 558.02 887.17 555.041 885.606 551.511C883.834 548.091 883.001 544.34 883.001 540.258ZM892.589 540.258C892.589 543.016 893.215 545.664 894.361 547.98C895.508 550.297 897.175 552.393 899.26 554.048C901.344 555.703 903.846 557.137 906.66 558.02C909.474 559.013 912.601 559.454 915.936 559.454C919.271 559.454 922.398 559.013 925.212 558.02C928.026 557.027 930.527 555.703 932.612 554.048C934.696 552.393 936.364 550.297 937.51 547.98C938.657 545.664 939.282 543.016 939.282 540.258C939.282 537.5 938.657 534.852 937.51 532.535C936.364 530.218 934.8 528.122 932.716 526.467C930.631 524.702 928.234 523.378 925.42 522.496C922.606 521.613 919.479 521.062 916.144 521.062C912.809 521.062 909.682 521.503 906.868 522.496C904.054 523.378 901.553 524.813 899.468 526.467C897.384 528.233 895.82 530.218 894.674 532.535C893.11 534.852 892.589 537.389 892.589 540.258Z" fill="black"/>
<path d="M883.939 591.558H938.136V575.341H947.62V617.153H938.136V600.495H883.939V591.558Z" fill="black"/>
<path d="M781.069 444.497L844.75 466.893V475.939L781.069 498.114V488.627L819.423 475.388C819.84 475.277 820.883 474.947 822.55 474.395C824.218 473.954 825.99 473.402 827.97 472.74C829.95 472.188 831.826 471.637 833.494 471.085C835.161 470.644 836.204 470.313 836.725 470.092L836.829 471.968C835.787 471.637 834.536 471.196 832.868 470.754C831.305 470.313 829.637 469.761 827.866 469.32C826.094 468.768 824.426 468.327 822.863 467.776C821.299 467.334 820.049 466.893 819.006 466.562L781.069 453.654V444.497ZM796.911 454.426L806.395 457.736V483.993L796.911 487.744V454.426Z" fill="black"/>
<path d="M1036.04 350.116H972.358V342.062L1024.47 306.759L1025.3 308.083C1023.74 308.303 1022.18 308.524 1020.3 308.634C1018.53 308.855 1016.65 308.965 1014.57 309.076C1012.59 309.186 1010.4 309.296 1008.11 309.406C1005.81 309.517 1003.42 309.517 1000.92 309.627C998.414 309.737 995.809 309.737 993.203 309.737H972.254V300.801H1035.94V308.965L985.699 343.717L984.448 342.834C988.2 342.614 991.327 342.283 993.829 342.172C996.434 341.952 998.623 341.841 1000.39 341.731C1002.17 341.621 1003.63 341.511 1004.77 341.4C1005.92 341.4 1006.86 341.29 1007.59 341.29C1008.32 341.29 1008.94 341.29 1009.46 341.29H1035.94V350.116H1036.04Z" fill="black"/>
<path d="M1036.87 260.533C1036.87 264.615 1036.04 268.366 1034.37 271.786C1032.7 275.206 1030.41 278.185 1027.49 280.833C1024.57 283.37 1021.14 285.356 1017.07 286.79C1013.11 288.224 1008.73 288.886 1004.04 288.886C999.353 288.886 994.975 288.224 991.015 286.79C987.054 285.356 983.615 283.37 980.696 280.833C977.778 278.295 975.485 275.316 973.817 271.786C972.15 268.366 971.316 264.615 971.316 260.533C971.316 256.451 972.15 252.7 973.817 249.28C975.485 245.86 977.778 242.881 980.696 240.234C983.719 237.696 987.158 235.71 991.119 234.276C995.079 232.842 999.457 232.18 1004.04 232.18C1008.73 232.18 1013.01 232.842 1016.97 234.276C1020.93 235.71 1024.37 237.696 1027.39 240.234C1030.41 242.771 1032.7 245.75 1034.27 249.28C1036.14 252.7 1036.87 256.451 1036.87 260.533ZM1027.39 260.533C1027.39 257.775 1026.76 255.127 1025.62 252.811C1024.47 250.494 1022.8 248.398 1020.72 246.743C1018.63 245.088 1016.13 243.654 1013.32 242.771C1010.5 241.778 1007.38 241.337 1004.04 241.337C1000.71 241.337 997.581 241.778 994.767 242.771C991.953 243.764 989.451 245.088 987.367 246.743C985.282 248.398 983.615 250.494 982.468 252.811C981.322 255.127 980.696 257.775 980.696 260.533C980.696 263.291 981.322 265.939 982.468 268.256C983.615 270.573 985.178 272.669 987.262 274.324C989.347 276.089 991.744 277.413 994.558 278.295C997.372 279.178 1000.5 279.729 1003.83 279.729C1007.17 279.729 1010.3 279.288 1013.11 278.295C1015.92 277.413 1018.43 275.978 1020.51 274.324C1022.59 272.558 1024.16 270.573 1025.3 268.256C1026.76 265.829 1027.39 263.291 1027.39 260.533Z" fill="black"/>
<path d="M1036.04 209.123H981.843V225.34H972.358V183.528H981.843V200.186H1036.04V209.123Z" fill="black"/>
<path d="M1138.81 356.184L1075.12 333.788V324.741L1138.81 302.567V312.054L1100.45 325.293C1100.03 325.403 1098.99 325.734 1097.32 326.286C1095.66 326.727 1093.88 327.279 1091.9 327.941C1089.92 328.603 1088.05 329.044 1086.38 329.596C1084.71 330.037 1083.67 330.368 1083.15 330.589L1083.05 328.713C1084.09 329.044 1085.34 329.485 1087.01 329.927C1088.57 330.368 1090.24 330.92 1092.01 331.361C1093.78 331.912 1095.45 332.354 1097.01 332.905C1098.57 333.457 1099.83 333.788 1100.87 334.119L1138.91 347.247V356.184H1138.81ZM1122.96 346.255L1113.48 342.945V316.688L1122.96 312.937V346.255Z" fill="black"/>
<path d="M984.913 591.811V537.213H994.293L1035.57 581.913L1034.02 582.642C1033.8 581.392 1033.58 579.933 1033.36 578.37C1033.14 576.807 1033.03 575.244 1032.81 573.473C1032.7 571.702 1032.48 569.93 1032.48 567.951C1032.37 565.971 1032.26 563.991 1032.26 561.803C1032.14 559.719 1032.15 557.427 1032.15 555.135V537.213H1042.52V591.811H1033.03L992.527 548.779L993.631 547.737C993.962 550.863 994.183 553.572 994.403 555.76C994.624 557.948 994.845 559.824 994.955 561.386C995.065 562.949 995.176 564.2 995.286 565.137C995.396 566.075 995.396 566.909 995.396 567.534C995.396 568.159 995.396 568.68 995.396 569.201V591.811H984.913Z" fill="black"/>
<path d="M1089.53 592.645C1084.78 592.645 1080.37 591.915 1076.4 590.561C1072.42 589.206 1068.89 587.226 1065.91 584.622C1062.93 582.121 1060.62 579.099 1058.96 575.765C1057.31 572.327 1056.53 568.576 1056.53 564.616C1056.53 560.553 1057.31 556.802 1058.96 553.468C1060.62 550.029 1062.93 547.112 1065.91 544.611C1068.89 542.11 1072.42 540.131 1076.4 538.672C1080.37 537.317 1084.78 536.588 1089.53 536.588C1094.28 536.588 1098.69 537.317 1102.66 538.672C1106.64 540.027 1110.17 542.006 1113.15 544.611C1116.13 547.112 1118.44 550.133 1120.1 553.572C1121.75 557.01 1122.53 560.657 1122.53 564.721C1122.53 568.68 1121.75 572.431 1120.1 575.869C1118.44 579.308 1116.13 582.225 1113.15 584.83C1110.17 587.331 1106.64 589.31 1102.66 590.769C1098.69 591.915 1094.28 592.645 1089.53 592.645ZM1089.53 584.413C1092.84 584.413 1095.82 583.892 1098.58 582.955C1101.34 582.017 1103.66 580.558 1105.64 578.787C1107.63 577.015 1109.17 574.932 1110.28 572.431C1111.38 570.034 1111.93 567.325 1111.93 564.512C1111.93 561.699 1111.38 558.99 1110.28 556.593C1109.17 554.197 1107.63 552.113 1105.64 550.238C1103.66 548.466 1101.34 547.008 1098.58 546.07C1095.82 545.132 1092.84 544.611 1089.53 544.611C1086.22 544.611 1083.24 545.132 1080.48 546.07C1077.72 547.008 1075.4 548.466 1073.31 550.238C1071.32 552.009 1069.78 554.093 1068.67 556.489C1067.57 558.886 1067.02 561.595 1067.02 564.512C1067.02 567.325 1067.57 570.034 1068.67 572.431C1069.78 574.827 1071.32 577.015 1073.31 578.787C1075.29 580.558 1077.72 581.913 1080.48 582.955C1083.24 583.892 1086.33 584.413 1089.53 584.413Z" fill="black"/>
<path d="M977.96 679.959L1004.11 625.362H1014.71L1040.64 679.959H1029.61L1014.05 647.034C1013.83 646.721 1013.49 645.784 1012.94 644.429C1012.39 643.075 1011.73 641.512 1011.07 639.74C1010.4 638.073 1009.74 636.406 1009.19 635.052C1008.64 633.593 1008.2 632.655 1008.09 632.238L1010.29 632.134C1009.96 632.968 1009.41 634.114 1008.86 635.468C1008.31 636.823 1007.76 638.282 1007.09 639.74C1006.43 641.199 1005.88 642.658 1005.33 644.012C1004.78 645.367 1004.23 646.409 1003.89 647.347L988.555 679.959H977.96ZM989.437 666.414L993.3 658.287H1023.98L1028.39 666.414H989.437Z" fill="black"/>
</g>
</g>
<defs>
<clipPath id="clip0_313_2649">
<rect width="1127" height="676" fill="white"/>
</clipPath>
</defs>
</svg>
