<svg width="1127" height="676" viewBox="0 0 1127 676" fill="none" xmlns="http://www.w3.org/2000/svg">
<g clip-path="url(#clip0_314_2830)">
<path d="M1127 0H1.127V676H1127V0Z" fill="white"/>
<path opacity="0.5" d="M990.408 119.99L877.595 483.678L820.681 667.099L817.864 676H649.715L612.524 664.508L383.856 593.528L457.562 356.027L489.118 254.401L506.023 200.321L525.745 136.552L546.933 68.5013L567.444 2.366L568.233 0H627.964L713.053 28.1667L990.408 119.99Z" fill="#B85F3D"/>
<path opacity="0.5" d="M721.731 0L713.053 28.1667L676.2 146.917L657.717 206.405L629.317 298.003L569.586 279.413L489.118 254.401L352.751 212.151L213.454 168.887L17.6939 108.047L53.5325 0H721.731Z" fill="#B85F3D"/>
<path d="M571.953 8.33733C570.487 6.30933 569.022 4.28133 567.445 2.366C566.881 1.57733 566.205 0.788667 565.641 0" stroke="#B85F3D" stroke-width="6.5008" stroke-miterlimit="10" stroke-linecap="round"/>
<path d="M551.103 74.1347C549.751 72.2193 548.285 70.4167 546.933 68.5013C529.014 44.8413 508.728 23.0967 486.3 3.718C484.835 2.47867 483.483 1.23934 482.018 0.112671" stroke="#B85F3D" stroke-width="6.5008" stroke-miterlimit="10" stroke-linecap="round"/>
<path d="M336.184 83.1479C285.469 121.793 277.355 146.354 280.848 162.24C288.287 196.265 350.497 196.603 420.258 256.993C438.628 272.879 455.083 290.793 469.395 310.397" stroke="#B85F3D" stroke-width="6.5008" stroke-miterlimit="10" stroke-linecap="round"/>
<path d="M285.469 60.9526C218.525 111.878 207.932 144.439 212.552 165.395C222.47 210.349 304.403 210.799 396.479 290.455C420.709 311.411 442.46 335.071 461.281 360.871" stroke="#B85F3D" stroke-width="6.5008" stroke-miterlimit="10" stroke-linecap="round"/>
<path d="M532.395 145.34C530.254 142.411 528 139.481 525.858 136.552C503.656 107.371 478.412 80.5567 450.687 56.446C423.301 32.786 396.591 14.6467 371.685 0" stroke="#B85F3D" stroke-width="6.5008" stroke-miterlimit="10" stroke-linecap="round"/>
<path d="M524.28 224.094C518.307 215.982 512.221 208.095 505.91 200.209C481.229 169.563 453.843 141.059 423.977 115.258C354.329 54.9813 288.399 23.998 237.459 0" stroke="#B85F3D" stroke-width="6.5008" stroke-miterlimit="10" stroke-linecap="round"/>
<path d="M609.482 666.761C660.197 628.117 668.198 603.555 664.817 587.669C657.379 553.644 595.169 553.306 525.407 492.917C507.037 477.031 490.583 459.117 476.27 439.513" stroke="#B85F3D" stroke-width="6.5008" stroke-miterlimit="10" stroke-linecap="round"/>
<path d="M672.932 673.634C739.875 622.709 750.469 590.148 745.849 569.192C735.931 524.238 653.998 523.787 561.922 444.132C537.692 423.176 515.941 399.516 497.12 373.715" stroke="#B85F3D" stroke-width="6.5008" stroke-miterlimit="10" stroke-linecap="round"/>
<path d="M515.828 302.623C539.608 335.183 567.106 365.04 597.535 391.517C713.616 492.015 816.962 492.579 829.472 549.137C835.107 574.825 822.485 614.484 743.595 676" stroke="#B85F3D" stroke-width="6.5008" stroke-miterlimit="10" stroke-linecap="round"/>
<path d="M523.942 223.643C553.132 263.527 586.716 300.031 624.133 332.479C730.86 424.866 828.909 448.301 877.595 483.678C893.824 495.395 904.53 508.465 908.249 525.703C914.786 555.221 901.6 599.725 820.569 667.099C817.075 670.029 813.356 672.958 809.637 676" stroke="#B85F3D" stroke-width="6.5008" stroke-miterlimit="10" stroke-linecap="round"/>
<path d="M694.796 346.563C745.511 307.918 753.625 283.357 750.131 267.471C742.693 233.445 680.483 233.107 610.721 172.718C592.351 156.832 575.897 138.918 561.584 119.314" stroke="#B85F3D" stroke-width="6.5008" stroke-miterlimit="10" stroke-linecap="round"/>
<path d="M726.915 353.548C793.859 302.623 804.453 270.062 799.832 249.106C789.914 204.152 707.981 203.701 615.906 124.046C591.675 103.09 569.924 79.4301 551.103 53.6294" stroke="#B85F3D" stroke-width="6.5008" stroke-miterlimit="10" stroke-linecap="round"/>
<path d="M1124.41 632.849V643.89H927.972V632.849H1019.48V35.49H1030.64V632.849H1124.41Z" fill="black"/>
<path d="M90.4675 242.863L85.3407 260.553H82.752L78.6404 246.315L74.3766 260.553L71.8132 260.578L66.8641 242.863H69.3259L73.1837 257.862L77.4475 242.863H80.0363L84.0971 257.812L87.9802 242.863H90.4675ZM99.8983 246.391C100.947 246.391 101.895 246.619 102.741 247.076C103.587 247.516 104.247 248.184 104.721 249.081C105.211 249.978 105.457 251.069 105.457 252.355V260.553H103.172V252.685C103.172 251.297 102.825 250.24 102.132 249.512C101.438 248.768 100.491 248.396 99.2892 248.396C98.071 248.396 97.0981 248.776 96.3705 249.538C95.6599 250.299 95.3045 251.407 95.3045 252.863V260.553H92.995V241.772H95.3045V248.624C95.7614 247.913 96.3874 247.364 97.1827 246.974C97.9948 246.585 98.9 246.391 99.8983 246.391ZM121.919 253.066C121.919 253.506 121.894 253.971 121.843 254.462H110.727C110.811 255.832 111.277 256.906 112.123 257.685C112.985 258.446 114.026 258.827 115.244 258.827C116.243 258.827 117.072 258.598 117.732 258.142C118.408 257.668 118.882 257.042 119.153 256.264H121.64C121.268 257.6 120.523 258.692 119.407 259.538C118.29 260.367 116.902 260.781 115.244 260.781C113.925 260.781 112.74 260.485 111.691 259.893C110.659 259.301 109.847 258.463 109.255 257.38C108.662 256.28 108.366 255.011 108.366 253.573C108.366 252.135 108.654 250.874 109.229 249.792C109.805 248.709 110.608 247.88 111.64 247.304C112.689 246.712 113.891 246.416 115.244 246.416C116.564 246.416 117.732 246.704 118.747 247.279C119.762 247.854 120.54 248.65 121.082 249.665C121.64 250.663 121.919 251.797 121.919 253.066ZM119.534 252.583C119.534 251.704 119.339 250.951 118.95 250.325C118.561 249.682 118.028 249.199 117.351 248.878C116.691 248.54 115.955 248.37 115.143 248.37C113.975 248.37 112.977 248.743 112.148 249.487C111.336 250.232 110.87 251.264 110.752 252.583H119.534ZM131.744 246.391C133.436 246.391 134.807 246.907 135.856 247.939C136.905 248.954 137.429 250.426 137.429 252.355V260.553H135.145V252.685C135.145 251.297 134.798 250.24 134.105 249.512C133.411 248.768 132.463 248.396 131.262 248.396C130.044 248.396 129.071 248.776 128.343 249.538C127.633 250.299 127.277 251.407 127.277 252.863V260.553H124.968V246.644H127.277V248.624C127.734 247.913 128.352 247.364 129.13 246.974C129.925 246.585 130.797 246.391 131.744 246.391ZM150.278 241.772V260.553H147.968V241.772H150.278ZM155.407 244.386C154.967 244.386 154.595 244.233 154.29 243.929C153.986 243.624 153.834 243.252 153.834 242.812C153.834 242.372 153.986 242 154.29 241.695C154.595 241.391 154.967 241.239 155.407 241.239C155.83 241.239 156.185 241.391 156.473 241.695C156.778 242 156.93 242.372 156.93 242.812C156.93 243.252 156.778 243.624 156.473 243.929C156.185 244.233 155.83 244.386 155.407 244.386ZM156.524 246.644V260.553H154.214V246.644H156.524ZM166.12 248.548H163.201V260.553H160.892V248.548H159.09V246.644H160.892V245.655C160.892 244.098 161.289 242.964 162.084 242.254C162.897 241.526 164.191 241.162 165.968 241.162V243.091C164.952 243.091 164.233 243.294 163.81 243.7C163.404 244.09 163.201 244.741 163.201 245.655V246.644H166.12V248.548ZM181.503 253.066C181.503 253.506 181.477 253.971 181.427 254.462H170.31C170.395 255.832 170.86 256.906 171.706 257.685C172.569 258.446 173.61 258.827 174.828 258.827C175.826 258.827 176.655 258.598 177.315 258.142C177.992 257.668 178.466 257.042 178.736 256.264H181.224C180.851 257.6 180.107 258.692 178.99 259.538C177.873 260.367 176.486 260.781 174.828 260.781C173.508 260.781 172.324 260.485 171.275 259.893C170.242 259.301 169.43 258.463 168.838 257.38C168.246 256.28 167.95 255.011 167.95 253.573C167.95 252.135 168.237 250.874 168.813 249.792C169.388 248.709 170.192 247.88 171.224 247.304C172.273 246.712 173.474 246.416 174.828 246.416C176.148 246.416 177.315 246.704 178.33 247.279C179.345 247.854 180.124 248.65 180.665 249.665C181.224 250.663 181.503 251.797 181.503 253.066ZM179.117 252.583C179.117 251.704 178.922 250.951 178.533 250.325C178.144 249.682 177.611 249.199 176.934 248.878C176.274 248.54 175.538 248.37 174.726 248.37C173.559 248.37 172.561 248.743 171.731 249.487C170.919 250.232 170.454 251.264 170.336 252.583H179.117ZM197.054 246.416C198.255 246.416 199.304 246.678 200.201 247.203C201.114 247.727 201.791 248.387 202.231 249.182V246.644H204.566V260.857C204.566 262.126 204.295 263.251 203.754 264.233C203.212 265.231 202.434 266.009 201.419 266.568C200.421 267.126 199.253 267.405 197.916 267.405C196.089 267.405 194.566 266.974 193.348 266.111C192.13 265.248 191.411 264.072 191.191 262.583H193.475C193.729 263.429 194.253 264.106 195.049 264.614C195.844 265.138 196.8 265.4 197.916 265.4C199.185 265.4 200.218 265.003 201.013 264.207C201.825 263.412 202.231 262.295 202.231 260.857V257.939C201.774 258.751 201.097 259.428 200.201 259.969C199.304 260.51 198.255 260.781 197.054 260.781C195.818 260.781 194.693 260.477 193.678 259.867C192.68 259.258 191.893 258.404 191.318 257.304C190.742 256.204 190.455 254.952 190.455 253.548C190.455 252.127 190.742 250.883 191.318 249.817C191.893 248.734 192.68 247.897 193.678 247.304C194.693 246.712 195.818 246.416 197.054 246.416ZM202.231 253.573C202.231 252.524 202.02 251.611 201.597 250.832C201.174 250.054 200.598 249.462 199.871 249.056C199.16 248.633 198.373 248.421 197.51 248.421C196.647 248.421 195.861 248.624 195.15 249.03C194.439 249.436 193.873 250.028 193.45 250.807C193.027 251.585 192.815 252.499 192.815 253.548C192.815 254.614 193.027 255.544 193.45 256.34C193.873 257.118 194.439 257.719 195.15 258.142C195.861 258.548 196.647 258.751 197.51 258.751C198.373 258.751 199.16 258.548 199.871 258.142C200.598 257.719 201.174 257.118 201.597 256.34C202.02 255.544 202.231 254.622 202.231 253.573ZM209.662 244.386C209.222 244.386 208.85 244.233 208.545 243.929C208.241 243.624 208.088 243.252 208.088 242.812C208.088 242.372 208.241 242 208.545 241.695C208.85 241.391 209.222 241.239 209.662 241.239C210.085 241.239 210.44 241.391 210.728 241.695C211.032 242 211.185 242.372 211.185 242.812C211.185 243.252 211.032 243.624 210.728 243.929C210.44 244.233 210.085 244.386 209.662 244.386ZM210.779 246.644V260.553H208.469V246.644H210.779ZM219.892 258.421L224.207 246.644H226.669L221.212 260.553H218.522L213.065 246.644H215.552L219.892 258.421ZM241.632 253.066C241.632 253.506 241.606 253.971 241.555 254.462H230.439C230.524 255.832 230.989 256.906 231.835 257.685C232.698 258.446 233.738 258.827 234.957 258.827C235.955 258.827 236.784 258.598 237.444 258.142C238.121 257.668 238.594 257.042 238.865 256.264H241.352C240.98 257.6 240.236 258.692 239.119 259.538C238.002 260.367 236.615 260.781 234.957 260.781C233.637 260.781 232.452 260.485 231.403 259.893C230.371 259.301 229.559 258.463 228.967 257.38C228.375 256.28 228.079 255.011 228.079 253.573C228.079 252.135 228.366 250.874 228.942 249.792C229.517 248.709 230.321 247.88 231.353 247.304C232.402 246.712 233.603 246.416 234.957 246.416C236.276 246.416 237.444 246.704 238.459 247.279C239.474 247.854 240.253 248.65 240.794 249.665C241.352 250.663 241.632 251.797 241.632 253.066ZM239.246 252.583C239.246 251.704 239.051 250.951 238.662 250.325C238.273 249.682 237.74 249.199 237.063 248.878C236.403 248.54 235.667 248.37 234.855 248.37C233.688 248.37 232.689 248.743 231.86 249.487C231.048 250.232 230.583 251.264 230.464 252.583H239.246ZM249.604 260.781C248.538 260.781 247.582 260.603 246.736 260.248C245.89 259.876 245.222 259.368 244.731 258.725C244.24 258.065 243.969 257.313 243.919 256.467H246.304C246.372 257.16 246.694 257.727 247.269 258.167C247.861 258.607 248.631 258.827 249.578 258.827C250.458 258.827 251.152 258.632 251.66 258.243C252.167 257.854 252.421 257.363 252.421 256.771C252.421 256.162 252.15 255.714 251.609 255.426C251.067 255.121 250.23 254.825 249.096 254.538C248.064 254.267 247.218 253.996 246.558 253.726C245.915 253.438 245.357 253.023 244.883 252.482C244.426 251.924 244.198 251.196 244.198 250.299C244.198 249.589 244.409 248.937 244.832 248.345C245.255 247.753 245.856 247.287 246.634 246.949C247.413 246.594 248.301 246.416 249.299 246.416C250.839 246.416 252.083 246.805 253.03 247.584C253.978 248.362 254.485 249.428 254.553 250.781H252.243C252.193 250.054 251.897 249.47 251.355 249.03C250.831 248.59 250.12 248.37 249.223 248.37C248.394 248.37 247.734 248.548 247.244 248.903C246.753 249.259 246.507 249.724 246.507 250.299C246.507 250.756 246.651 251.137 246.939 251.441C247.244 251.729 247.616 251.966 248.056 252.152C248.513 252.321 249.139 252.516 249.934 252.736C250.932 253.006 251.744 253.277 252.37 253.548C252.996 253.802 253.529 254.191 253.969 254.715C254.426 255.24 254.663 255.925 254.68 256.771C254.68 257.533 254.468 258.218 254.045 258.827C253.622 259.436 253.022 259.918 252.243 260.274C251.482 260.612 250.602 260.781 249.604 260.781ZM269.92 246.644L261.544 267.101H259.158L261.899 260.4L256.29 246.644H258.854L263.219 257.913L267.534 246.644H269.92ZM278.307 260.781C277.004 260.781 275.82 260.485 274.754 259.893C273.705 259.301 272.876 258.463 272.267 257.38C271.674 256.28 271.378 255.011 271.378 253.573C271.378 252.152 271.683 250.9 272.292 249.817C272.918 248.717 273.764 247.88 274.83 247.304C275.896 246.712 277.089 246.416 278.409 246.416C279.728 246.416 280.921 246.712 281.987 247.304C283.053 247.88 283.891 248.709 284.5 249.792C285.126 250.874 285.439 252.135 285.439 253.573C285.439 255.011 285.117 256.28 284.474 257.38C283.848 258.463 282.994 259.301 281.911 259.893C280.828 260.485 279.627 260.781 278.307 260.781ZM278.307 258.751C279.136 258.751 279.914 258.556 280.642 258.167C281.37 257.778 281.953 257.194 282.393 256.416C282.85 255.637 283.078 254.69 283.078 253.573C283.078 252.457 282.859 251.509 282.419 250.731C281.979 249.952 281.403 249.377 280.693 249.005C279.982 248.616 279.212 248.421 278.383 248.421C277.537 248.421 276.759 248.616 276.048 249.005C275.354 249.377 274.796 249.952 274.373 250.731C273.95 251.509 273.739 252.457 273.739 253.573C273.739 254.707 273.942 255.663 274.348 256.441C274.771 257.219 275.329 257.803 276.023 258.192C276.717 258.565 277.478 258.751 278.307 258.751ZM300.81 246.644V260.553H298.501V258.497C298.061 259.208 297.443 259.766 296.648 260.172C295.87 260.561 295.007 260.756 294.059 260.756C292.976 260.756 292.003 260.536 291.14 260.096C290.277 259.639 289.592 258.962 289.085 258.065C288.594 257.169 288.349 256.077 288.349 254.791V246.644H290.633V254.487C290.633 255.857 290.98 256.915 291.673 257.659C292.367 258.387 293.315 258.751 294.516 258.751C295.751 258.751 296.724 258.37 297.435 257.609C298.145 256.847 298.501 255.739 298.501 254.284V246.644H300.81ZM321.435 246.391C322.518 246.391 323.483 246.619 324.329 247.076C325.175 247.516 325.843 248.184 326.334 249.081C326.824 249.978 327.07 251.069 327.07 252.355V260.553H324.785V252.685C324.785 251.297 324.438 250.24 323.745 249.512C323.068 248.768 322.146 248.396 320.978 248.396C319.777 248.396 318.821 248.785 318.11 249.563C317.4 250.325 317.044 251.433 317.044 252.888V260.553H314.76V252.685C314.76 251.297 314.413 250.24 313.72 249.512C313.043 248.768 312.121 248.396 310.953 248.396C309.752 248.396 308.796 248.785 308.085 249.563C307.375 250.325 307.019 251.433 307.019 252.888V260.553H304.71V246.644H307.019V248.65C307.476 247.922 308.085 247.364 308.847 246.974C309.625 246.585 310.479 246.391 311.41 246.391C312.578 246.391 313.61 246.653 314.506 247.177C315.403 247.702 316.072 248.472 316.511 249.487C316.901 248.506 317.544 247.744 318.44 247.203C319.337 246.661 320.335 246.391 321.435 246.391ZM343.548 253.066C343.548 253.506 343.523 253.971 343.472 254.462H332.356C332.44 255.832 332.905 256.906 333.751 257.685C334.614 258.446 335.655 258.827 336.873 258.827C337.871 258.827 338.701 258.598 339.36 258.142C340.037 257.668 340.511 257.042 340.782 256.264H343.269C342.897 257.6 342.152 258.692 341.035 259.538C339.919 260.367 338.531 260.781 336.873 260.781C335.553 260.781 334.369 260.485 333.32 259.893C332.288 259.301 331.476 258.463 330.883 257.38C330.291 256.28 329.995 255.011 329.995 253.573C329.995 252.135 330.283 250.874 330.858 249.792C331.433 248.709 332.237 247.88 333.269 247.304C334.318 246.712 335.52 246.416 336.873 246.416C338.193 246.416 339.36 246.704 340.376 247.279C341.391 247.854 342.169 248.65 342.711 249.665C343.269 250.663 343.548 251.797 343.548 253.066ZM341.162 252.583C341.162 251.704 340.968 250.951 340.579 250.325C340.189 249.682 339.656 249.199 338.98 248.878C338.32 248.54 337.584 248.37 336.772 248.37C335.604 248.37 334.606 248.743 333.777 249.487C332.965 250.232 332.499 251.264 332.381 252.583H341.162ZM348.906 241.772V260.553H346.597V241.772H348.906ZM358.908 260.781C357.606 260.781 356.421 260.485 355.355 259.893C354.306 259.301 353.477 258.463 352.868 257.38C352.276 256.28 351.98 255.011 351.98 253.573C351.98 252.152 352.284 250.9 352.893 249.817C353.519 248.717 354.365 247.88 355.431 247.304C356.497 246.712 357.69 246.416 359.01 246.416C360.33 246.416 361.522 246.712 362.588 247.304C363.654 247.88 364.492 248.709 365.101 249.792C365.727 250.874 366.04 252.135 366.04 253.573C366.04 255.011 365.719 256.28 365.076 257.38C364.45 258.463 363.595 259.301 362.512 259.893C361.429 260.485 360.228 260.781 358.908 260.781ZM358.908 258.751C359.737 258.751 360.516 258.556 361.243 258.167C361.971 257.778 362.555 257.194 362.995 256.416C363.451 255.637 363.68 254.69 363.68 253.573C363.68 252.457 363.46 251.509 363.02 250.731C362.58 249.952 362.005 249.377 361.294 249.005C360.583 248.616 359.814 248.421 358.984 248.421C358.138 248.421 357.36 248.616 356.65 249.005C355.956 249.377 355.397 249.952 354.974 250.731C354.551 251.509 354.34 252.457 354.34 253.573C354.34 254.707 354.543 255.663 354.949 256.441C355.372 257.219 355.93 257.803 356.624 258.192C357.318 258.565 358.079 258.751 358.908 258.751ZM375.853 246.391C377.545 246.391 378.916 246.907 379.965 247.939C381.014 248.954 381.538 250.426 381.538 252.355V260.553H379.254V252.685C379.254 251.297 378.907 250.24 378.214 249.512C377.52 248.768 376.572 248.396 375.371 248.396C374.153 248.396 373.18 248.776 372.452 249.538C371.742 250.299 371.386 251.407 371.386 252.863V260.553H369.077V246.644H371.386V248.624C371.843 247.913 372.461 247.364 373.239 246.974C374.034 246.585 374.906 246.391 375.853 246.391ZM390.235 260.781C389.169 260.781 388.213 260.603 387.367 260.248C386.521 259.876 385.853 259.368 385.362 258.725C384.871 258.065 384.6 257.313 384.55 256.467H386.935C387.003 257.16 387.325 257.727 387.9 258.167C388.492 258.607 389.262 258.827 390.209 258.827C391.089 258.827 391.783 258.632 392.291 258.243C392.798 257.854 393.052 257.363 393.052 256.771C393.052 256.162 392.781 255.714 392.24 255.426C391.698 255.121 390.861 254.825 389.727 254.538C388.695 254.267 387.849 253.996 387.189 253.726C386.546 253.438 385.988 253.023 385.514 252.482C385.057 251.924 384.829 251.196 384.829 250.299C384.829 249.589 385.04 248.937 385.463 248.345C385.886 247.753 386.487 247.287 387.265 246.949C388.044 246.594 388.932 246.416 389.93 246.416C391.47 246.416 392.714 246.805 393.661 247.584C394.609 248.362 395.116 249.428 395.184 250.781H392.874C392.824 250.054 392.527 249.47 391.986 249.03C391.462 248.59 390.751 248.37 389.854 248.37C389.025 248.37 388.365 248.548 387.874 248.903C387.384 249.259 387.138 249.724 387.138 250.299C387.138 250.756 387.282 251.137 387.57 251.441C387.874 251.729 388.247 251.966 388.687 252.152C389.143 252.321 389.77 252.516 390.565 252.736C391.563 253.006 392.375 253.277 393.001 253.548C393.627 253.802 394.16 254.191 394.6 254.715C395.057 255.24 395.294 255.925 395.311 256.771C395.311 257.533 395.099 258.218 394.676 258.827C394.253 259.436 393.653 259.918 392.874 260.274C392.113 260.612 391.233 260.781 390.235 260.781Z" fill="#080807"/>
<path d="M280.081 347.018L250.042 403.706L249.77 436.095L235.118 435.972L235.39 403.583L206.18 346.397L222.502 346.534L242.826 390.535L263.887 346.882L280.081 347.018ZM321.666 437.856C314.983 437.799 308.955 436.249 303.582 433.205C298.21 430.075 294.004 425.755 290.966 420.246C287.928 414.65 286.44 408.211 286.501 400.928C286.561 393.73 288.2 387.36 291.417 381.818C294.634 376.275 298.997 372.027 304.506 369.074C310.015 366.121 316.154 364.673 322.923 364.73C329.692 364.787 335.806 366.338 341.264 369.383C346.723 372.428 351.014 376.748 354.137 382.345C357.261 387.941 358.792 394.337 358.732 401.535C358.671 408.732 356.99 415.102 353.687 420.644C350.384 426.186 345.892 430.476 340.211 433.513C334.617 436.465 328.435 437.912 321.666 437.856ZM321.773 425.132C325.543 425.163 329.063 424.293 332.335 422.521C335.691 420.75 338.413 418.073 340.5 414.492C342.586 410.911 343.651 406.549 343.695 401.408C343.738 396.267 342.789 391.932 340.848 388.403C338.907 384.787 336.316 382.066 333.076 380.24C329.835 378.413 326.329 377.484 322.559 377.452C318.789 377.42 315.269 378.29 311.997 380.062C308.812 381.835 306.262 384.513 304.346 388.096C302.432 391.593 301.453 395.912 301.41 401.053C301.346 408.679 303.224 414.607 307.044 418.838C310.951 422.984 315.861 425.082 321.773 425.132ZM437.647 366.851L437.052 437.668L422.4 437.545L422.47 429.191C420.132 432.085 417.071 434.373 413.287 436.055C409.589 437.652 405.64 438.432 401.442 438.397C395.872 438.35 390.87 437.152 386.434 434.801C382.083 432.45 378.642 428.994 376.109 424.431C373.663 419.869 372.467 414.375 372.521 407.949L372.871 366.307L387.394 366.429L387.062 405.886C387.009 412.226 388.553 417.124 391.694 420.578C394.837 423.946 399.15 425.653 404.633 425.699C410.117 425.745 414.458 424.111 417.657 420.796C420.941 417.396 422.61 412.525 422.664 406.185L422.995 366.728L437.647 366.851ZM465.213 335.463L463.45 361.798L453.425 361.713L451.975 335.352L465.213 335.463ZM493.635 377.604C495.807 374.023 498.658 371.262 502.188 369.321C505.804 367.295 510.054 366.302 514.938 366.343L514.81 381.509L511.083 381.478C505.342 381.43 500.96 382.85 497.937 385.738C494.999 388.626 493.5 393.669 493.439 400.867L493.126 438.139L478.474 438.016L479.069 367.199L493.721 367.322L493.635 377.604ZM593.018 401.832C592.996 404.488 592.804 406.886 592.443 409.025L538.334 408.57C538.715 414.229 540.776 418.788 544.518 422.247C548.259 425.706 552.871 427.459 558.355 427.505C566.238 427.571 571.835 424.319 575.146 417.749L590.955 417.881C588.758 424.375 584.815 429.698 579.124 433.849C573.52 437.915 566.563 439.913 558.251 439.843C551.482 439.786 545.411 438.236 540.039 435.191C534.752 432.062 530.59 427.743 527.551 422.233C524.599 416.638 523.154 410.2 523.215 402.916C523.276 395.633 524.786 389.262 527.746 383.803C530.791 378.259 534.983 374.009 540.321 371.055C545.744 368.102 551.926 366.654 558.866 366.712C565.549 366.768 571.492 368.275 576.694 371.232C581.896 374.189 585.932 378.336 588.8 383.673C591.67 388.924 593.076 394.977 593.018 401.832ZM577.762 397.076C577.722 391.678 575.831 387.335 572.088 384.047C568.345 380.759 563.689 379.092 558.12 379.045C553.064 379.003 548.724 380.594 545.098 383.82C541.472 386.96 539.294 391.269 538.562 396.747L577.762 397.076ZM602.541 403.326C602.601 396.214 604.11 389.929 607.07 384.469C610.115 379.011 614.177 374.803 619.258 371.847C624.425 368.805 630.136 367.311 636.391 367.364C641.018 367.402 645.55 368.469 649.988 370.563C654.513 372.571 658.089 375.258 660.718 378.622L661.005 344.434L675.785 344.558L674.986 439.667L660.205 439.543L660.295 428.875C657.867 432.282 654.502 435.082 650.199 437.273C645.982 439.466 641.131 440.539 635.647 440.493C629.478 440.441 623.836 438.852 618.721 435.724C613.692 432.511 609.702 428.107 606.75 422.513C603.884 416.833 602.481 410.437 602.541 403.326ZM660.504 404.07C660.545 399.186 659.552 394.936 657.526 391.32C655.585 387.705 652.995 384.941 649.755 383.028C646.515 381.116 643.01 380.144 639.24 380.112C635.47 380.081 631.949 380.994 628.677 382.851C625.406 384.623 622.727 387.3 620.64 390.881C618.64 394.378 617.619 398.568 617.578 403.452C617.537 408.336 618.487 412.628 620.426 416.329C622.452 420.031 625.084 422.881 628.324 424.879C631.65 426.792 635.155 427.764 638.839 427.795C642.609 427.827 646.13 426.914 649.402 425.056C652.674 423.198 655.31 420.478 657.311 416.896C659.398 413.229 660.463 408.954 660.504 404.07ZM758.574 369.547L714.258 473.287L699.092 473.16L713.776 438.836L686.472 368.941L702.794 369.078L722.262 423.226L743.408 369.419L758.574 369.547ZM794.731 441.83C789.162 441.783 784.158 440.755 779.719 438.747C775.366 436.654 771.919 433.883 769.377 430.434C766.836 426.899 765.498 422.989 765.363 418.704L780.529 418.831C780.761 421.832 782.153 424.372 784.706 426.45C787.346 428.443 790.636 429.456 794.578 429.489C798.691 429.524 801.867 428.779 804.108 427.255C806.435 425.647 807.609 423.6 807.63 421.115C807.653 418.459 806.384 416.478 803.824 415.171C801.35 413.865 797.378 412.417 791.907 410.829C786.607 409.328 782.292 407.878 778.962 406.479C775.631 405.08 772.736 402.956 770.275 400.108C767.899 397.26 766.731 393.523 766.77 388.896C766.802 385.126 767.945 381.708 770.198 378.642C772.453 375.49 775.644 373.032 779.772 371.267C783.985 369.503 788.791 368.644 794.189 368.689C802.243 368.757 808.695 370.868 813.545 375.021C818.48 379.09 821.09 384.639 821.374 391.668L806.722 391.545C806.492 388.372 805.228 385.834 802.93 383.93C800.632 382.025 797.513 381.056 793.571 381.023C789.716 380.991 786.753 381.694 784.685 383.134C782.616 384.573 781.572 386.492 781.552 388.891C781.536 390.776 782.208 392.367 783.568 393.664C784.928 394.961 786.59 396.003 788.555 396.791C790.52 397.493 793.425 398.417 797.272 399.563C802.401 400.977 806.588 402.426 809.831 403.91C813.162 405.309 816.015 407.39 818.391 410.152C820.767 412.914 821.979 416.566 822.026 421.108C821.992 425.135 820.848 428.724 818.594 431.876C816.339 435.027 813.148 437.486 809.02 439.25C804.978 441.016 800.215 441.876 794.731 441.83ZM853.143 346.048L852.343 441.157L837.691 441.034L838.491 345.925L853.143 346.048ZM936.797 404.72C936.775 407.376 936.583 409.774 936.223 411.913L882.114 411.458C882.494 417.117 884.556 421.676 888.297 425.135C892.038 428.594 896.651 430.346 902.134 430.393C910.017 430.459 915.614 427.207 918.926 420.636L934.734 420.769C932.537 427.263 928.594 432.586 922.903 436.737C917.299 440.803 910.342 442.801 902.031 442.731C895.262 442.674 889.191 441.123 883.818 438.079C878.531 434.95 874.369 430.631 871.33 425.121C868.378 419.526 866.933 413.087 866.994 405.804C867.055 398.521 868.566 392.15 871.525 386.691C874.571 381.147 878.762 376.897 884.1 373.943C889.523 370.99 895.705 369.542 902.645 369.6C909.329 369.656 915.271 371.163 920.474 374.12C925.676 377.077 929.711 381.224 932.58 386.561C935.449 391.812 936.855 397.865 936.797 404.72ZM921.542 399.964C921.501 394.566 919.61 390.222 915.867 386.935C912.124 383.647 907.468 381.98 901.899 381.933C896.844 381.891 892.503 383.482 888.877 386.708C885.251 389.848 883.073 394.157 882.341 399.635L921.542 399.964ZM981.537 406.381L1004.11 442.432L987.534 442.292L972.441 418.13L957.844 442.043L942.55 441.914L965.72 407.276L943.145 371.097L959.725 371.237L974.817 395.399L989.414 371.486L1004.71 371.614L981.537 406.381ZM1023.17 362.386C1020.51 362.364 1018.29 361.446 1016.51 359.631C1014.72 357.817 1013.84 355.582 1013.87 352.925C1013.89 350.269 1014.81 348.049 1016.62 346.265C1018.44 344.48 1020.67 343.6 1023.33 343.622C1025.9 343.643 1028.08 344.561 1029.86 346.376C1031.64 348.19 1032.52 350.426 1032.5 353.082C1032.48 355.738 1031.56 357.958 1029.75 359.743C1027.93 361.527 1025.74 362.408 1023.17 362.386ZM1030.29 371.829L1029.69 442.647L1015.04 442.523L1015.64 371.706L1030.29 371.829ZM1044.34 407.294C1044.4 400.011 1045.91 393.64 1048.87 388.181C1051.92 382.636 1056.07 378.387 1061.32 375.432C1066.57 372.477 1072.58 371.028 1079.35 371.085C1087.92 371.157 1094.97 373.272 1100.51 377.432C1106.13 381.507 1109.89 387.322 1111.8 394.879L1095.99 394.746C1094.74 391.222 1092.7 388.463 1089.89 386.469C1087.08 384.474 1083.53 383.459 1079.25 383.423C1073.25 383.373 1068.43 385.474 1064.8 389.728C1061.25 393.897 1059.45 399.795 1059.38 407.421C1059.32 415.046 1061.02 421.016 1064.5 425.33C1068.06 429.644 1072.84 431.827 1078.84 431.877C1087.32 431.948 1092.97 428.268 1095.77 420.837L1111.58 420.97C1109.46 428.15 1105.56 433.858 1099.87 438.095C1094.18 442.246 1087.13 444.286 1078.74 444.215C1071.97 444.158 1065.98 442.609 1060.78 439.566C1055.58 436.437 1051.5 432.119 1048.55 426.61C1045.68 421.016 1044.28 414.577 1044.34 407.294Z" fill="#080807"/>
<path d="M905.77 190.825C904.602 190.825 903.553 190.622 902.623 190.216C901.709 189.793 900.99 189.217 900.466 188.49C899.941 187.745 899.67 186.891 899.653 185.927H902.115C902.2 186.756 902.538 187.458 903.13 188.033C903.74 188.591 904.619 188.871 905.77 188.871C906.87 188.871 907.733 188.6 908.359 188.058C909.002 187.5 909.323 186.789 909.323 185.927C909.323 185.25 909.137 184.7 908.765 184.277C908.393 183.854 907.927 183.532 907.369 183.312C906.811 183.092 906.058 182.856 905.11 182.602C903.943 182.297 903.004 181.993 902.293 181.688C901.599 181.384 900.999 180.91 900.491 180.267C900 179.607 899.755 178.727 899.755 177.627C899.755 176.663 900 175.808 900.491 175.064C900.982 174.319 901.667 173.744 902.547 173.338C903.443 172.932 904.467 172.729 905.618 172.729C907.276 172.729 908.629 173.143 909.678 173.973C910.744 174.802 911.345 175.901 911.48 177.272H908.942C908.858 176.595 908.503 176.003 907.877 175.495C907.25 174.971 906.421 174.709 905.389 174.709C904.425 174.709 903.638 174.962 903.029 175.47C902.42 175.961 902.115 176.654 902.115 177.551C902.115 178.194 902.293 178.719 902.648 179.125C903.02 179.531 903.469 179.844 903.993 180.064C904.535 180.267 905.288 180.504 906.252 180.774C907.42 181.096 908.359 181.417 909.069 181.739C909.78 182.043 910.389 182.526 910.897 183.185C911.404 183.828 911.658 184.708 911.658 185.825C911.658 186.688 911.43 187.5 910.973 188.261C910.516 189.023 909.839 189.64 908.942 190.114C908.046 190.588 906.988 190.825 905.77 190.825ZM917.874 178.642V186.84C917.874 187.517 918.018 187.999 918.306 188.287C918.593 188.558 919.092 188.693 919.803 188.693H921.503V190.647H919.422C918.136 190.647 917.172 190.351 916.529 189.759C915.886 189.167 915.564 188.194 915.564 186.84V178.642H913.762V176.739H915.564V173.237H917.874V176.739H921.503V178.642H917.874ZM936.992 183.16C936.992 183.6 936.966 184.065 936.916 184.556H925.799C925.884 185.927 926.349 187.001 927.195 187.779C928.058 188.541 929.099 188.921 930.317 188.921C931.315 188.921 932.144 188.693 932.804 188.236C933.481 187.762 933.955 187.136 934.225 186.358H936.713C936.34 187.695 935.596 188.786 934.479 189.632C933.362 190.461 931.975 190.876 930.317 190.876C928.997 190.876 927.813 190.58 926.764 189.987C925.731 189.395 924.919 188.558 924.327 187.475C923.735 186.375 923.439 185.106 923.439 183.668C923.439 182.23 923.726 180.969 924.302 179.886C924.877 178.803 925.681 177.974 926.713 177.399C927.762 176.807 928.963 176.511 930.317 176.511C931.637 176.511 932.804 176.798 933.819 177.373C934.834 177.949 935.613 178.744 936.154 179.759C936.713 180.757 936.992 181.891 936.992 183.16ZM934.606 182.678C934.606 181.798 934.411 181.045 934.022 180.419C933.633 179.776 933.1 179.294 932.423 178.972C931.763 178.634 931.027 178.465 930.215 178.465C929.048 178.465 928.05 178.837 927.22 179.582C926.408 180.326 925.943 181.358 925.825 182.678H934.606ZM942.35 171.866V190.647H940.04V171.866H942.35ZM948.596 171.866V190.647H946.286V171.866H948.596ZM951.669 183.642C951.669 182.221 951.957 180.977 952.532 179.911C953.107 178.829 953.894 177.991 954.892 177.399C955.908 176.807 957.033 176.511 958.268 176.511C959.486 176.511 960.544 176.773 961.44 177.297C962.337 177.822 963.005 178.482 963.445 179.277V176.739H965.78V190.647H963.445V188.058C962.989 188.871 962.303 189.547 961.39 190.089C960.493 190.613 959.444 190.876 958.243 190.876C957.007 190.876 955.891 190.571 954.892 189.962C953.894 189.353 953.107 188.498 952.532 187.399C951.957 186.299 951.669 185.047 951.669 183.642ZM963.445 183.668C963.445 182.619 963.234 181.705 962.811 180.927C962.388 180.148 961.813 179.556 961.085 179.15C960.374 178.727 959.588 178.516 958.725 178.516C957.862 178.516 957.075 178.719 956.364 179.125C955.654 179.531 955.087 180.123 954.664 180.901C954.241 181.68 954.029 182.593 954.029 183.642C954.029 184.708 954.241 185.639 954.664 186.434C955.087 187.212 955.654 187.813 956.364 188.236C957.075 188.642 957.862 188.845 958.725 188.845C959.588 188.845 960.374 188.642 961.085 188.236C961.813 187.813 962.388 187.212 962.811 186.434C963.234 185.639 963.445 184.717 963.445 183.668ZM968.82 181.79C968.82 180.064 969.21 178.516 969.988 177.145C970.766 175.758 971.824 174.675 973.16 173.896C974.514 173.118 976.011 172.729 977.653 172.729C979.582 172.729 981.265 173.194 982.703 174.125C984.141 175.055 985.191 176.375 985.85 178.084H983.084C982.593 177.018 981.883 176.198 980.952 175.622C980.038 175.047 978.939 174.759 977.653 174.759C976.418 174.759 975.309 175.047 974.328 175.622C973.347 176.198 972.577 177.018 972.018 178.084C971.46 179.133 971.181 180.368 971.181 181.79C971.181 183.194 971.46 184.429 972.018 185.495C972.577 186.544 973.347 187.356 974.328 187.932C975.309 188.507 976.418 188.794 977.653 188.794C978.939 188.794 980.038 188.515 980.952 187.957C981.883 187.382 982.593 186.561 983.084 185.495H985.85C985.191 187.187 984.141 188.498 982.703 189.429C981.265 190.343 979.582 190.799 977.653 190.799C976.011 190.799 974.514 190.419 973.16 189.657C971.824 188.879 970.766 187.805 969.988 186.434C969.21 185.064 968.82 183.515 968.82 181.79Z" fill="#080807"/>
<path d="M805.91 222.845C804.962 222.473 804.235 221.931 803.727 221.221C803.22 220.51 802.966 219.647 802.966 218.632C802.966 217.718 803.194 216.898 803.651 216.17C804.108 215.426 804.785 214.842 805.682 214.419C806.595 213.979 807.695 213.759 808.981 213.759C810.267 213.759 811.358 213.979 812.255 214.419C813.169 214.842 813.854 215.426 814.311 216.17C814.784 216.898 815.021 217.718 815.021 218.632C815.021 219.613 814.759 220.476 814.235 221.221C813.71 221.948 812.991 222.49 812.077 222.845C813.126 223.167 813.955 223.733 814.565 224.546C815.191 225.341 815.504 226.305 815.504 227.439C815.504 228.539 815.233 229.503 814.691 230.332C814.15 231.144 813.38 231.779 812.382 232.236C811.4 232.676 810.267 232.896 808.981 232.896C807.695 232.896 806.561 232.676 805.58 232.236C804.616 231.779 803.863 231.144 803.321 230.332C802.78 229.503 802.509 228.539 802.509 227.439C802.509 226.305 802.814 225.332 803.423 224.52C804.032 223.708 804.861 223.15 805.91 222.845ZM812.788 218.911C812.788 217.879 812.45 217.084 811.773 216.525C811.096 215.967 810.165 215.688 808.981 215.688C807.813 215.688 806.891 215.967 806.215 216.525C805.538 217.084 805.199 217.887 805.199 218.937C805.199 219.884 805.546 220.645 806.24 221.221C806.951 221.796 807.864 222.084 808.981 222.084C810.115 222.084 811.028 221.796 811.722 221.221C812.433 220.629 812.788 219.859 812.788 218.911ZM808.981 223.86C807.729 223.86 806.705 224.156 805.91 224.749C805.115 225.324 804.717 226.195 804.717 227.363C804.717 228.446 805.098 229.317 805.859 229.977C806.638 230.637 807.678 230.967 808.981 230.967C810.284 230.967 811.316 230.637 812.077 229.977C812.839 229.317 813.219 228.446 813.219 227.363C813.219 226.229 812.83 225.366 812.052 224.774C811.274 224.165 810.25 223.86 808.981 223.86ZM817.962 216.145V214.038H822.733V232.388H820.398V216.145H817.962ZM838.401 216.043H829.492V221.83C829.881 221.288 830.457 220.848 831.218 220.51C831.98 220.155 832.8 219.977 833.68 219.977C835.084 219.977 836.226 220.273 837.106 220.865C837.986 221.441 838.612 222.194 838.984 223.124C839.374 224.038 839.568 225.011 839.568 226.043C839.568 227.261 839.34 228.353 838.883 229.317C838.426 230.281 837.724 231.043 836.776 231.601C835.846 232.16 834.687 232.439 833.299 232.439C831.523 232.439 830.085 231.982 828.985 231.068C827.885 230.154 827.217 228.936 826.98 227.413H829.239C829.458 228.378 829.924 229.131 830.634 229.672C831.345 230.214 832.242 230.484 833.325 230.484C834.661 230.484 835.668 230.087 836.345 229.292C837.022 228.479 837.36 227.413 837.36 226.094C837.36 224.774 837.022 223.759 836.345 223.048C835.668 222.321 834.67 221.957 833.35 221.957C832.453 221.957 831.667 222.177 830.99 222.617C830.33 223.04 829.848 223.623 829.543 224.368H827.36V214.013H838.401V216.043ZM852.662 222.109V224.063H842.536V222.109H852.662ZM859.586 227.464C859.755 228.429 860.144 229.173 860.753 229.698C861.379 230.222 862.217 230.484 863.266 230.484C864.67 230.484 865.702 229.935 866.362 228.835C867.039 227.735 867.36 225.882 867.327 223.277C866.971 224.038 866.379 224.639 865.55 225.078C864.721 225.501 863.799 225.713 862.784 225.713C861.65 225.713 860.635 225.485 859.738 225.028C858.858 224.554 858.164 223.869 857.657 222.972C857.149 222.075 856.895 220.992 856.895 219.723C856.895 217.913 857.42 216.458 858.469 215.358C859.518 214.241 861.007 213.683 862.936 213.683C865.305 213.683 866.963 214.453 867.91 215.992C868.875 217.532 869.357 219.825 869.357 222.87C869.357 225.002 869.162 226.762 868.773 228.149C868.401 229.537 867.758 230.594 866.844 231.322C865.948 232.05 864.712 232.413 863.139 232.413C861.413 232.413 860.068 231.948 859.103 231.017C858.139 230.087 857.589 228.902 857.454 227.464H859.586ZM863.164 223.759C864.298 223.759 865.229 223.412 865.956 222.718C866.684 222.008 867.047 221.052 867.047 219.85C867.047 218.581 866.692 217.558 865.981 216.779C865.271 216.001 864.273 215.612 862.987 215.612C861.802 215.612 860.855 215.984 860.144 216.728C859.45 217.473 859.103 218.454 859.103 219.673C859.103 220.908 859.45 221.898 860.144 222.642C860.838 223.386 861.845 223.759 863.164 223.759ZM872.603 223.023C872.603 220.112 873.076 217.845 874.024 216.221C874.971 214.58 876.63 213.759 878.998 213.759C881.35 213.759 883 214.58 883.948 216.221C884.895 217.845 885.369 220.112 885.369 223.023C885.369 225.984 884.895 228.285 883.948 229.926C883 231.567 881.35 232.388 878.998 232.388C876.63 232.388 874.971 231.567 874.024 229.926C873.076 228.285 872.603 225.984 872.603 223.023ZM883.085 223.023C883.085 221.551 882.983 220.307 882.78 219.292C882.594 218.26 882.196 217.431 881.587 216.805C880.995 216.179 880.132 215.866 878.998 215.866C877.848 215.866 876.968 216.179 876.359 216.805C875.767 217.431 875.369 218.26 875.166 219.292C874.98 220.307 874.887 221.551 874.887 223.023C874.887 224.546 874.98 225.823 875.166 226.855C875.369 227.887 875.767 228.716 876.359 229.342C876.968 229.968 877.848 230.281 878.998 230.281C880.132 230.281 880.995 229.968 881.587 229.342C882.196 228.716 882.594 227.887 882.78 226.855C882.983 225.823 883.085 224.546 883.085 223.023ZM899.834 215.84L892.778 232.388H890.443L897.6 216.069H887.803V214.089H899.834V215.84ZM912.42 222.109V224.063H902.293V222.109H912.42ZM916.373 223.023C916.373 220.112 916.847 217.845 917.795 216.221C918.742 214.58 920.4 213.759 922.769 213.759C925.121 213.759 926.771 214.58 927.718 216.221C928.666 217.845 929.139 220.112 929.139 223.023C929.139 225.984 928.666 228.285 927.718 229.926C926.771 231.567 925.121 232.388 922.769 232.388C920.4 232.388 918.742 231.567 917.795 229.926C916.847 228.285 916.373 225.984 916.373 223.023ZM926.855 223.023C926.855 221.551 926.754 220.307 926.551 219.292C926.364 218.26 925.967 217.431 925.358 216.805C924.766 216.179 923.903 215.866 922.769 215.866C921.618 215.866 920.739 216.179 920.129 216.805C919.537 217.431 919.14 218.26 918.937 219.292C918.75 220.307 918.657 221.551 918.657 223.023C918.657 224.546 918.75 225.823 918.937 226.855C919.14 227.887 919.537 228.716 920.129 229.342C920.739 229.968 921.618 230.281 922.769 230.281C923.903 230.281 924.766 229.968 925.358 229.342C925.967 228.716 926.364 227.887 926.551 226.855C926.754 225.823 926.855 224.546 926.855 223.023ZM931.701 216.145V214.038H936.472V232.388H934.137V216.145H931.701ZM940.16 230.535C942.309 228.809 943.993 227.397 945.211 226.297C946.429 225.18 947.453 224.021 948.282 222.82C949.128 221.601 949.551 220.409 949.551 219.241C949.551 218.141 949.28 217.278 948.739 216.652C948.214 216.009 947.36 215.688 946.175 215.688C945.025 215.688 944.128 216.052 943.485 216.779C942.859 217.49 942.521 218.446 942.47 219.647H940.237C940.304 217.752 940.88 216.289 941.962 215.256C943.045 214.224 944.441 213.708 946.15 213.708C947.893 213.708 949.272 214.19 950.287 215.155C951.319 216.119 951.835 217.448 951.835 219.14C951.835 220.544 951.412 221.914 950.566 223.251C949.737 224.571 948.79 225.738 947.724 226.754C946.658 227.752 945.296 228.919 943.637 230.256H952.368V232.185H940.16V230.535ZM955.038 223.023C955.038 220.112 955.512 217.845 956.459 216.221C957.407 214.58 959.065 213.759 961.434 213.759C963.786 213.759 965.435 214.58 966.383 216.221C967.33 217.845 967.804 220.112 967.804 223.023C967.804 225.984 967.33 228.285 966.383 229.926C965.435 231.567 963.786 232.388 961.434 232.388C959.065 232.388 957.407 231.567 956.459 229.926C955.512 228.285 955.038 225.984 955.038 223.023ZM965.52 223.023C965.52 221.551 965.418 220.307 965.215 219.292C965.029 218.26 964.632 217.431 964.023 216.805C963.43 216.179 962.567 215.866 961.434 215.866C960.283 215.866 959.403 216.179 958.794 216.805C958.202 217.431 957.804 218.26 957.601 219.292C957.415 220.307 957.322 221.551 957.322 223.023C957.322 224.546 957.415 225.823 957.601 226.855C957.804 227.887 958.202 228.716 958.794 229.342C959.403 229.968 960.283 230.281 961.434 230.281C962.567 230.281 963.43 229.968 964.023 229.342C964.632 228.716 965.029 227.887 965.215 226.855C965.418 225.823 965.52 224.546 965.52 223.023Z" fill="#080807"/>
<path d="M986.593 61.7619L986.567 59.884L994.256 59.7757L994.172 53.812L987.93 53.8999L987.903 52.022L994.146 51.9341L994.034 43.9655L996.343 43.933L996.592 61.6211L986.593 61.7619ZM981.51 62.9249L981.246 44.1456L983.555 44.1131L983.82 62.8924L981.51 62.9249ZM976.345 60.3833C976.785 60.3771 977.159 60.5241 977.468 60.8244C977.777 61.1246 977.934 61.4947 977.94 61.9345C977.947 62.3744 977.8 62.7488 977.499 63.0576C977.199 63.3664 976.829 63.5239 976.389 63.5301C975.966 63.536 975.609 63.3888 975.317 63.0883C975.008 62.7881 974.851 62.418 974.844 61.9781C974.838 61.5383 974.985 61.1639 975.285 60.8551C975.569 60.5465 975.922 60.3892 976.345 60.3833ZM975.196 58.1404L975.001 44.2336L977.31 44.201L977.506 58.1079L975.196 58.1404ZM968.915 55.6652C968.47 56.4668 967.802 57.1362 966.913 57.6733C966.007 58.2275 964.953 58.5131 963.752 58.53C962.517 58.5474 961.396 58.2671 960.39 57.689C959.366 57.1111 958.559 56.2849 957.969 55.2102C957.379 54.1524 957.073 52.913 957.053 51.4919C957.034 50.0876 957.304 48.8316 957.863 47.7238C958.423 46.6161 959.206 45.7505 960.213 45.1271C961.202 44.504 962.315 44.1838 963.55 44.1664C964.734 44.1497 965.787 44.3972 966.708 44.9088C967.612 45.4375 968.307 46.0961 968.791 46.8846L968.662 37.7234L970.972 37.6909L971.261 58.1958L968.951 58.2284L968.915 55.6652ZM959.414 51.4586C959.428 52.5076 959.653 53.4182 960.087 54.1905C960.521 54.9627 961.104 55.5468 961.837 55.9426C962.554 56.3386 963.343 56.5306 964.206 56.5184C965.052 56.5065 965.836 56.2839 966.557 55.8507C967.262 55.4347 967.829 54.826 968.257 54.0246C968.669 53.2404 968.868 52.3323 968.854 51.3003C968.839 50.2514 968.614 49.3323 968.18 48.5431C967.729 47.7711 967.146 47.1786 966.429 46.7656C965.696 46.3698 964.906 46.1779 964.06 46.1898C963.198 46.2019 962.414 46.416 961.709 46.8321C960.987 47.2653 960.421 47.874 960.009 48.6582C959.597 49.4593 959.399 50.3928 959.414 51.4586ZM944.502 56.669L944.386 48.472C944.377 47.7953 944.226 47.3152 943.934 47.0316C943.643 46.765 943.142 46.6366 942.431 46.6466L940.731 46.6706L940.703 44.7165L942.784 44.6872C944.07 44.6691 945.039 44.9516 945.69 45.5347C946.341 46.1178 946.676 47.0861 946.695 48.4395L946.811 56.6364L948.613 56.6111L948.64 58.5144L946.838 58.5398L946.887 62.0418L944.578 62.0744L944.528 58.5723L940.899 58.6234L940.873 56.7201L944.502 56.669ZM931.202 59.0138C930.153 59.0285 929.203 58.8135 928.35 58.3686C927.498 57.9406 926.829 57.2816 926.343 56.3916C925.839 55.5019 925.579 54.4141 925.561 53.1283L925.445 44.9314L927.729 44.8992L927.84 52.7662C927.859 54.1535 928.221 55.2061 928.925 55.9238C929.629 56.6584 930.582 57.0173 931.783 57.0004C933.001 56.9832 933.969 56.5888 934.685 55.8173C935.385 55.0459 935.725 53.9328 935.704 52.4778L935.596 44.7884L937.905 44.7559L938.17 63.5352L935.861 63.5678L935.764 56.7159C935.317 57.4329 934.699 57.9915 933.909 58.3918C933.103 58.7924 932.2 58.9997 931.202 59.0138ZM920.708 61.1668C921.148 61.1606 921.522 61.3076 921.831 61.6078C922.14 61.9081 922.297 62.2781 922.303 62.718C922.31 63.1579 922.163 63.5322 921.862 63.841C921.562 64.1499 921.192 64.3074 920.752 64.3136C920.329 64.3195 919.972 64.1722 919.68 63.8718C919.371 63.5715 919.214 63.2015 919.207 62.7616C919.201 62.3217 919.348 61.9474 919.648 61.6386C919.932 61.33 920.285 61.1727 920.708 61.1668ZM919.559 58.9239L919.363 45.017L921.673 44.9845L921.869 58.8914L919.559 58.9239ZM910.501 44.9134C911.567 44.8984 912.525 45.0626 913.376 45.4059C914.227 45.7662 914.903 46.2644 915.403 46.9003C915.902 47.5533 916.184 48.3023 916.246 49.1475L913.861 49.1811C913.784 48.4884 913.454 47.9262 912.873 47.4944C912.274 47.0629 911.501 46.8538 910.554 46.8671C909.674 46.8795 908.983 47.0838 908.481 47.4801C907.979 47.8763 907.732 48.3706 907.741 48.9627C907.749 49.5718 908.026 50.0163 908.572 50.2963C909.117 50.5932 909.959 50.8774 911.097 51.1491C912.132 51.4053 912.982 51.664 913.646 51.9254C914.293 52.204 914.857 52.6106 915.338 53.1453C915.803 53.6972 916.042 54.4215 916.054 55.3182C916.064 56.0287 915.862 56.6831 915.447 57.2812C915.033 57.8793 914.439 58.353 913.665 58.7023C912.892 59.0685 912.006 59.2587 911.008 59.2727C909.468 59.2944 908.219 58.9228 907.261 58.1579C906.303 57.393 905.78 56.3343 905.693 54.9818L908.003 54.9493C908.064 55.676 908.368 56.2556 908.916 56.6878C909.446 57.1203 910.16 57.3302 911.057 57.3176C911.886 57.3059 912.543 57.119 913.029 56.7568C913.514 56.3946 913.753 55.9259 913.745 55.3507C913.738 54.8939 913.589 54.5152 913.297 54.2148C912.989 53.9314 912.613 53.6998 912.171 53.5199C911.712 53.3572 911.083 53.1714 910.285 52.9627C909.283 52.7061 908.467 52.4468 907.837 52.1849C907.207 51.94 906.669 51.5583 906.222 51.0401C905.757 50.522 905.511 49.8402 905.482 48.9945C905.471 48.2332 905.673 47.545 906.088 46.93C906.502 46.315 907.096 45.8243 907.869 45.4581C908.626 45.109 909.503 44.9274 910.501 44.9134Z" fill="#080807"/>
</g>
<defs>
<clipPath id="clip0_314_2830">
<rect width="1127" height="676" fill="white"/>
</clipPath>
</defs>
</svg>
