<?xml version="1.0" encoding="UTF-8"?>
<svg xmlns="http://www.w3.org/2000/svg" width="16" height="16" viewBox="0 0 16 16" shape-rendering="crispEdges">
  <rect width="16" height="16" fill="#1a1a2e"/>
  <g fill="#e7e5db">
    <polygon points="0,0 4,0 0,4"/>
    <polygon points="4,0 8,0 0,8 0,4"/>
    <polygon points="8,0 12,0 0,12 0,8"/>
    <polygon points="12,0 16,0 0,16 0,12"/>
    <polygon points="16,0 16,4 4,16 0,16"/>
    <polygon points="16,4 16,8 8,16 4,16"/>
    <polygon points="16,8 16,12 12,16 8,16"/>
    <polygon points="16,12 16,16 16,16 12,16"/>
  </g>
</svg>
