<svg width="55" height="14" viewBox="0 0 55 14" fill="none" xmlns="http://www.w3.org/2000/svg">
<g clip-path="url(#clip0_130_25246)">
<circle cx="4" cy="7" r="4" fill="#FFB400"/>
</g>
<path d="M12.52 9.907V9.01L17.083 2.692H18.5V8.88H19.8V9.907H18.5V12H17.33V9.907H12.52ZM17.382 3.927L13.885 8.88H17.382V3.927ZM26.9748 3.628H22.4118V6.592C22.6111 6.31467 22.9058 6.08933 23.2958 5.916C23.6858 5.734 24.1061 5.643 24.5568 5.643C25.2761 5.643 25.8611 5.79467 26.3118 6.098C26.7624 6.39267 27.0831 6.77833 27.2738 7.255C27.4731 7.723 27.5728 8.22133 27.5728 8.75C27.5728 9.374 27.4558 9.933 27.2218 10.427C26.9878 10.921 26.6281 11.311 26.1428 11.597C25.6661 11.883 25.0724 12.026 24.3618 12.026C23.4518 12.026 22.7151 11.792 22.1518 11.324C21.5884 10.856 21.2461 10.232 21.1248 9.452H22.2818C22.3944 9.946 22.6328 10.3317 22.9968 10.609C23.3608 10.8863 23.8201 11.025 24.3748 11.025C25.0594 11.025 25.5751 10.8213 25.9218 10.414C26.2684 9.998 26.4418 9.452 26.4418 8.776C26.4418 8.1 26.2684 7.58 25.9218 7.216C25.5751 6.84333 25.0638 6.657 24.3878 6.657C23.9284 6.657 23.5254 6.76967 23.1788 6.995C22.8408 7.21167 22.5938 7.51067 22.4378 7.892H21.3198V2.588H26.9748V3.628ZM30.5619 10.362L29.1059 13.859H28.3129L29.2619 10.362H30.5619ZM37.715 3.628H33.152V6.592C33.3513 6.31467 33.646 6.08933 34.036 5.916C34.426 5.734 34.8463 5.643 35.297 5.643C36.0163 5.643 36.6013 5.79467 37.052 6.098C37.5027 6.39267 37.8233 6.77833 38.014 7.255C38.2133 7.723 38.313 8.22133 38.313 8.75C38.313 9.374 38.196 9.933 37.962 10.427C37.728 10.921 37.3683 11.311 36.883 11.597C36.4063 11.883 35.8127 12.026 35.102 12.026C34.192 12.026 33.4553 11.792 32.892 11.324C32.3287 10.856 31.9863 10.232 31.865 9.452H33.022C33.1347 9.946 33.373 10.3317 33.737 10.609C34.101 10.8863 34.5603 11.025 35.115 11.025C35.7997 11.025 36.3153 10.8213 36.662 10.414C37.0087 9.998 37.182 9.452 37.182 8.776C37.182 8.1 37.0087 7.58 36.662 7.216C36.3153 6.84333 35.804 6.657 35.128 6.657C34.6687 6.657 34.2657 6.76967 33.919 6.995C33.581 7.21167 33.334 7.51067 33.178 7.892H32.06V2.588H37.715V3.628ZM45.1241 4.837C44.9334 3.875 44.3398 3.394 43.3431 3.394C42.5718 3.394 41.9954 3.693 41.6141 4.291C41.2328 4.88033 41.0464 5.85533 41.0551 7.216C41.2544 6.76533 41.5838 6.41433 42.0431 6.163C42.5111 5.903 43.0311 5.773 43.6031 5.773C44.4958 5.773 45.2064 6.05033 45.7351 6.605C46.2724 7.15967 46.5411 7.92667 46.5411 8.906C46.5411 9.49533 46.4241 10.024 46.1901 10.492C45.9648 10.96 45.6181 11.3327 45.1501 11.61C44.6908 11.8873 44.1318 12.026 43.4731 12.026C42.5804 12.026 41.8828 11.8267 41.3801 11.428C40.8774 11.0293 40.5264 10.479 40.3271 9.777C40.1278 9.075 40.0281 8.20833 40.0281 7.177C40.0281 3.99633 41.1374 2.406 43.3561 2.406C44.2054 2.406 44.8728 2.63567 45.3581 3.095C45.8434 3.55433 46.1294 4.135 46.2161 4.837H45.1241ZM43.3561 6.774C42.9834 6.774 42.6324 6.852 42.3031 7.008C41.9738 7.15533 41.7051 7.385 41.4971 7.697C41.2978 8.00033 41.1981 8.373 41.1981 8.815C41.1981 9.47367 41.3888 10.011 41.7701 10.427C42.1514 10.8343 42.6974 11.038 43.4081 11.038C44.0148 11.038 44.4958 10.8517 44.8511 10.479C45.2151 10.0977 45.3971 9.58633 45.3971 8.945C45.3971 8.269 45.2238 7.74033 44.8771 7.359C44.5304 6.969 44.0234 6.774 43.3561 6.774ZM53.9221 3.524L50.3081 12H49.1121L52.7781 3.641H47.7601V2.627H53.9221V3.524Z" fill="#585757"/>
<defs>
<clipPath id="clip0_130_25246">
<rect width="8" height="8" fill="white" transform="translate(0 3)"/>
</clipPath>
</defs>
</svg>
