<svg width="185" height="136" viewBox="0 0 185 136" fill="none" xmlns="http://www.w3.org/2000/svg">
<rect x="0.5" y="0.5" width="184" height="135" rx="4.5" stroke="#9747FF" stroke-dasharray="10 5"/>
<path d="M25.3857 16.5V96.5" stroke="#E8E8E8"/>
<path d="M19.9677 116.5L18.1477 113.644L16.3977 116.5H15.0677L17.5457 112.692L15.0677 108.828H16.5097L18.3297 111.67L20.0657 108.828H21.3957L18.9317 112.622L21.4097 116.5H19.9677ZM29.271 108.828L24.651 120.112H23.335L24.847 116.416L21.753 108.828H23.167L25.575 115.044L27.955 108.828H29.271ZM31.5036 115.45H35.2696V116.5H30.0476V115.45L33.7716 109.864H30.0756V108.828H35.2416V109.864L31.5036 115.45Z" fill="#959596"/>
<path d="M82.3857 16.5V96.5" stroke="#E8E8E8" stroke-dasharray="4 4"/>
<path d="M76.9677 116.5L75.1477 113.644L73.3977 116.5H72.0677L74.5457 112.692L72.0677 108.828H73.5097L75.3297 111.67L77.0657 108.828H78.3957L75.9317 112.622L78.4097 116.5H76.9677ZM86.271 108.828L81.651 120.112H80.335L81.847 116.416L78.753 108.828H80.167L82.575 115.044L84.955 108.828H86.271ZM88.5036 115.45H92.2696V116.5H87.0476V115.45L90.7716 109.864H87.0756V108.828H92.2416V109.864L88.5036 115.45Z" fill="#959596"/>
<path d="M133.968 116.5L132.148 113.644L130.398 116.5H129.068L131.546 112.692L129.068 108.828H130.51L132.33 111.67L134.066 108.828H135.396L132.932 112.622L135.41 116.5H133.968ZM143.271 108.828L138.651 120.112H137.335L138.847 116.416L135.753 108.828H137.167L139.575 115.044L141.955 108.828H143.271ZM145.504 115.45H149.27V116.5H144.048V115.45L147.772 109.864H144.076V108.828H149.242V109.864L145.504 115.45Z" fill="#959596"/>
</svg>
