<svg xmlns="http://www.w3.org/2000/svg" width="24" height="24" viewBox="0 0 24 24" fill="none" stroke="var(--uip-icon-primary,currentColor)" stroke-width="2" stroke-linecap="round" stroke-linejoin="round">
  <path d="M4 3 2 5v15c0 .6.4 1 1 1h2c.6 0 1-.4 1-1V5Z"  fill="var(--uip-icon-secondary,#7c3aed)" stroke="none" opacity="0.35"/>
  <path d="M6 8h4"  fill="var(--uip-icon-secondary,#7c3aed)" stroke="none" opacity="0.35"/>
  <path d="M6 18h4"  fill="var(--uip-icon-secondary,#7c3aed)" stroke="none" opacity="0.35"/>
  <path d="m12 3-2 2v15c0 .6.4 1 1 1h2c.6 0 1-.4 1-1V5Z"  fill="var(--uip-icon-secondary,#7c3aed)" stroke="none" opacity="0.35"/>
  <path d="M14 8h4"  fill="var(--uip-icon-secondary,#7c3aed)" stroke="none" opacity="0.35"/>
  <path d="M14 18h4"  fill="var(--uip-icon-secondary,#7c3aed)" stroke="none" opacity="0.35"/>
  <path d="m20 3-2 2v15c0 .6.4 1 1 1h2c.6 0 1-.4 1-1V5Z"  fill="var(--uip-icon-secondary,#7c3aed)" stroke="none" opacity="0.35"/>

  <path d="M4 3 2 5v15c0 .6.4 1 1 1h2c.6 0 1-.4 1-1V5Z" />
  <path d="M6 8h4" />
  <path d="M6 18h4" />
  <path d="m12 3-2 2v15c0 .6.4 1 1 1h2c.6 0 1-.4 1-1V5Z" />
  <path d="M14 8h4" />
  <path d="M14 18h4" />
  <path d="m20 3-2 2v15c0 .6.4 1 1 1h2c.6 0 1-.4 1-1V5Z" />
</svg>