<svg xmlns="http://www.w3.org/2000/svg" width="24" height="24" viewBox="0 0 24 24" fill="none" stroke="var(--uip-icon-primary,currentColor)" stroke-width="2" stroke-linecap="round" stroke-linejoin="round">
  <path d="M16 12h6"  fill="var(--uip-icon-secondary,#7c3aed)" stroke="none" opacity="0.35"/>
  <path d="M8 12H2"  fill="var(--uip-icon-secondary,#7c3aed)" stroke="none" opacity="0.35"/>
  <path d="M12 2v2"  fill="var(--uip-icon-secondary,#7c3aed)" stroke="none" opacity="0.35"/>
  <path d="M12 8v2"  fill="var(--uip-icon-secondary,#7c3aed)" stroke="none" opacity="0.35"/>
  <path d="M12 14v2"  fill="var(--uip-icon-secondary,#7c3aed)" stroke="none" opacity="0.35"/>
  <path d="M12 20v2"  fill="var(--uip-icon-secondary,#7c3aed)" stroke="none" opacity="0.35"/>
  <path d="m19 15 3-3-3-3"  fill="var(--uip-icon-secondary,#7c3aed)" stroke="none" opacity="0.35"/>
  <path d="m5 9-3 3 3 3"  fill="var(--uip-icon-secondary,#7c3aed)" stroke="none" opacity="0.35"/>

  <path d="M16 12h6" />
  <path d="M8 12H2" />
  <path d="M12 2v2" />
  <path d="M12 8v2" />
  <path d="M12 14v2" />
  <path d="M12 20v2" />
  <path d="m19 15 3-3-3-3" />
  <path d="m5 9-3 3 3 3" />
</svg>