<svg width="836" height="1061" viewBox="0 0 836 1061" fill="none" xmlns="http://www.w3.org/2000/svg">
<g filter="url(#filter0_dd_2599_0)">
<rect x="18" y="14" width="800" height="1025" rx="16" fill="white"/>
<rect width="742" height="1" transform="matrix(1 0 0 -1 48 138)" fill="#E2E8F0"/>
<path d="M50.2756 91V64.8182H60.6051C62.5909 64.8182 64.2827 65.1974 65.6804 65.956C67.0781 66.706 68.1435 67.75 68.8764 69.0881C69.6179 70.4176 69.9886 71.9517 69.9886 73.6903C69.9886 75.429 69.6136 76.9631 68.8636 78.2926C68.1136 79.6222 67.027 80.6577 65.6037 81.3991C64.1889 82.1406 62.4759 82.5114 60.4645 82.5114H53.8807V78.0753H59.5696C60.6349 78.0753 61.5128 77.892 62.2031 77.5256C62.902 77.1506 63.4219 76.6349 63.7628 75.9787C64.1122 75.3139 64.2869 74.5511 64.2869 73.6903C64.2869 72.821 64.1122 72.0625 63.7628 71.4148C63.4219 70.7585 62.902 70.2514 62.2031 69.8935C61.5043 69.527 60.6179 69.3438 59.544 69.3438H55.8111V91H50.2756ZM73.4819 91V71.3636H78.7617V74.7898H78.9663C79.3242 73.571 79.9251 72.6506 80.7688 72.0284C81.6126 71.3977 82.5842 71.0824 83.6836 71.0824C83.9563 71.0824 84.2504 71.0994 84.5657 71.1335C84.881 71.1676 85.158 71.2145 85.3967 71.2741V76.1065C85.141 76.0298 84.7873 75.9616 84.3356 75.902C83.8839 75.8423 83.4705 75.8125 83.0955 75.8125C82.2944 75.8125 81.5785 75.9872 80.9478 76.3366C80.3256 76.6776 79.8313 77.1548 79.4648 77.7685C79.1069 78.3821 78.9279 79.0895 78.9279 79.8906V91H73.4819ZM96.1705 91.3835C94.1847 91.3835 92.4673 90.9616 91.0185 90.1179C89.5781 89.2656 88.4659 88.081 87.6818 86.5639C86.8977 85.0384 86.5057 83.2699 86.5057 81.2585C86.5057 79.2301 86.8977 77.4574 87.6818 75.9403C88.4659 74.4148 89.5781 73.2301 91.0185 72.3864C92.4673 71.5341 94.1847 71.108 96.1705 71.108C98.1562 71.108 99.8693 71.5341 101.31 72.3864C102.759 73.2301 103.875 74.4148 104.659 75.9403C105.443 77.4574 105.835 79.2301 105.835 81.2585C105.835 83.2699 105.443 85.0384 104.659 86.5639C103.875 88.081 102.759 89.2656 101.31 90.1179C99.8693 90.9616 98.1562 91.3835 96.1705 91.3835ZM96.196 87.1648C97.0994 87.1648 97.8537 86.9091 98.4588 86.3977C99.0639 85.8778 99.5199 85.1705 99.8267 84.2756C100.142 83.3807 100.3 82.3622 100.3 81.2202C100.3 80.0781 100.142 79.0597 99.8267 78.1648C99.5199 77.2699 99.0639 76.5625 98.4588 76.0426C97.8537 75.5227 97.0994 75.2628 96.196 75.2628C95.2841 75.2628 94.517 75.5227 93.8949 76.0426C93.2813 76.5625 92.8168 77.2699 92.5014 78.1648C92.1946 79.0597 92.0412 80.0781 92.0412 81.2202C92.0412 82.3622 92.1946 83.3807 92.5014 84.2756C92.8168 85.1705 93.2813 85.8778 93.8949 86.3977C94.517 86.9091 95.2841 87.1648 96.196 87.1648ZM118.223 98.7727C116.459 98.7727 114.946 98.5298 113.685 98.044C112.432 97.5668 111.435 96.9148 110.693 96.0881C109.952 95.2614 109.47 94.3324 109.249 93.3011L114.286 92.6236C114.439 93.0156 114.682 93.3821 115.014 93.723C115.347 94.0639 115.786 94.3366 116.331 94.5412C116.885 94.7543 117.558 94.8608 118.351 94.8608C119.536 94.8608 120.511 94.571 121.278 93.9915C122.054 93.4205 122.442 92.4616 122.442 91.1151V87.5227H122.212C121.973 88.0682 121.615 88.5838 121.138 89.0696C120.661 89.5554 120.047 89.9517 119.297 90.2585C118.547 90.5653 117.652 90.7188 116.612 90.7188C115.138 90.7188 113.795 90.3778 112.585 89.696C111.384 89.0057 110.425 87.9531 109.709 86.5384C109.001 85.1151 108.648 83.3168 108.648 81.1435C108.648 78.919 109.01 77.0611 109.734 75.5696C110.459 74.0781 111.422 72.9616 112.624 72.2202C113.834 71.4787 115.159 71.108 116.599 71.108C117.699 71.108 118.619 71.2955 119.361 71.6705C120.102 72.0369 120.699 72.4972 121.151 73.0511C121.611 73.5966 121.964 74.1335 122.212 74.6619H122.416V71.3636H127.824V91.1918C127.824 92.8622 127.415 94.2599 126.597 95.3849C125.778 96.5099 124.645 97.3537 123.196 97.9162C121.756 98.4872 120.098 98.7727 118.223 98.7727ZM118.338 86.6278C119.216 86.6278 119.957 86.4105 120.562 85.9759C121.176 85.5327 121.645 84.902 121.969 84.0838C122.301 83.2571 122.467 82.2685 122.467 81.1179C122.467 79.9673 122.305 78.9702 121.982 78.1264C121.658 77.2741 121.189 76.6136 120.575 76.1449C119.962 75.6761 119.216 75.4418 118.338 75.4418C117.443 75.4418 116.689 75.6847 116.075 76.1705C115.462 76.6477 114.997 77.3125 114.682 78.1648C114.366 79.017 114.209 80.0014 114.209 81.1179C114.209 82.2514 114.366 83.2315 114.682 84.0582C115.006 84.8764 115.47 85.5114 116.075 85.9631C116.689 86.4062 117.443 86.6278 118.338 86.6278ZM132.158 91V71.3636H137.438V74.7898H137.642C138 73.571 138.601 72.6506 139.445 72.0284C140.288 71.3977 141.26 71.0824 142.359 71.0824C142.632 71.0824 142.926 71.0994 143.241 71.1335C143.557 71.1676 143.834 71.2145 144.072 71.2741V76.1065C143.817 76.0298 143.463 75.9616 143.011 75.902C142.56 75.8423 142.146 75.8125 141.771 75.8125C140.97 75.8125 140.254 75.9872 139.624 76.3366C139.001 76.6776 138.507 77.1548 138.141 77.7685C137.783 78.3821 137.604 79.0895 137.604 79.8906V91H132.158ZM154.923 91.3835C152.903 91.3835 151.164 90.9744 149.707 90.1562C148.258 89.3295 147.142 88.1619 146.358 86.6534C145.574 85.1364 145.181 83.3423 145.181 81.2713C145.181 79.2514 145.574 77.4787 146.358 75.9531C147.142 74.4276 148.245 73.2386 149.669 72.3864C151.1 71.5341 152.779 71.108 154.706 71.108C156.001 71.108 157.207 71.3168 158.324 71.7344C159.449 72.1435 160.429 72.7614 161.264 73.5881C162.108 74.4148 162.764 75.4545 163.233 76.7074C163.701 77.9517 163.936 79.4091 163.936 81.0795V82.5753H147.355V79.2003H158.809C158.809 78.4162 158.639 77.7216 158.298 77.1165C157.957 76.5114 157.484 76.0384 156.879 75.6974C156.282 75.348 155.588 75.1733 154.795 75.1733C153.968 75.1733 153.235 75.3651 152.596 75.7486C151.966 76.1236 151.471 76.6307 151.113 77.2699C150.755 77.9006 150.572 78.6037 150.564 79.3793V82.5881C150.564 83.5597 150.743 84.3991 151.1 85.1065C151.467 85.8139 151.983 86.3594 152.647 86.7429C153.312 87.1264 154.1 87.3182 155.012 87.3182C155.618 87.3182 156.172 87.233 156.674 87.0625C157.177 86.892 157.608 86.6364 157.966 86.2955C158.324 85.9545 158.596 85.5369 158.784 85.0426L163.821 85.375C163.565 86.5852 163.041 87.642 162.248 88.5455C161.464 89.4403 160.45 90.1392 159.206 90.642C157.97 91.1364 156.542 91.3835 154.923 91.3835ZM183.828 76.9631L178.842 77.2699C178.757 76.8437 178.574 76.4602 178.292 76.1193C178.011 75.7699 177.64 75.4929 177.18 75.2884C176.728 75.0753 176.187 74.9688 175.556 74.9688C174.713 74.9688 174.001 75.1477 173.422 75.5057C172.842 75.8551 172.552 76.3239 172.552 76.9119C172.552 77.3807 172.74 77.777 173.115 78.1009C173.49 78.4247 174.133 78.6847 175.045 78.8807L178.599 79.5966C180.508 79.9886 181.931 80.6193 182.869 81.4886C183.806 82.358 184.275 83.5 184.275 84.9148C184.275 86.2017 183.896 87.331 183.137 88.3026C182.387 89.2741 181.356 90.0327 180.044 90.5781C178.74 91.1151 177.235 91.3835 175.531 91.3835C172.931 91.3835 170.86 90.8423 169.318 89.7599C167.784 88.669 166.885 87.1861 166.62 85.3111L171.977 85.0298C172.139 85.8224 172.531 86.4276 173.153 86.8452C173.775 87.2543 174.572 87.4588 175.544 87.4588C176.498 87.4588 177.265 87.2756 177.845 86.9091C178.433 86.5341 178.731 86.0526 178.74 85.4645C178.731 84.9702 178.522 84.5653 178.113 84.25C177.704 83.9261 177.074 83.679 176.221 83.5085L172.821 82.831C170.903 82.4474 169.475 81.7827 168.538 80.8366C167.609 79.8906 167.145 78.6847 167.145 77.2188C167.145 75.9574 167.485 74.8707 168.167 73.9588C168.858 73.0469 169.825 72.3438 171.069 71.8494C172.322 71.3551 173.788 71.108 175.467 71.108C177.947 71.108 179.899 71.6321 181.322 72.6804C182.754 73.7287 183.589 75.1562 183.828 76.9631ZM204.043 76.9631L199.057 77.2699C198.972 76.8437 198.788 76.4602 198.507 76.1193C198.226 75.7699 197.855 75.4929 197.395 75.2884C196.943 75.0753 196.402 74.9688 195.771 74.9688C194.928 74.9688 194.216 75.1477 193.636 75.5057C193.057 75.8551 192.767 76.3239 192.767 76.9119C192.767 77.3807 192.955 77.777 193.33 78.1009C193.705 78.4247 194.348 78.6847 195.26 78.8807L198.814 79.5966C200.723 79.9886 202.146 80.6193 203.084 81.4886C204.021 82.358 204.49 83.5 204.49 84.9148C204.49 86.2017 204.111 87.331 203.352 88.3026C202.602 89.2741 201.571 90.0327 200.259 90.5781C198.955 91.1151 197.45 91.3835 195.746 91.3835C193.146 91.3835 191.075 90.8423 189.533 89.7599C187.999 88.669 187.099 87.1861 186.835 85.3111L192.192 85.0298C192.354 85.8224 192.746 86.4276 193.368 86.8452C193.99 87.2543 194.787 87.4588 195.759 87.4588C196.713 87.4588 197.48 87.2756 198.06 86.9091C198.648 86.5341 198.946 86.0526 198.955 85.4645C198.946 84.9702 198.737 84.5653 198.328 84.25C197.919 83.9261 197.288 83.679 196.436 83.5085L193.036 82.831C191.118 82.4474 189.69 81.7827 188.753 80.8366C187.824 79.8906 187.359 78.6847 187.359 77.2188C187.359 75.9574 187.7 74.8707 188.382 73.9588C189.072 73.0469 190.04 72.3438 191.284 71.8494C192.537 71.3551 194.003 71.108 195.682 71.108C198.162 71.108 200.114 71.6321 201.537 72.6804C202.969 73.7287 203.804 75.1562 204.043 76.9631Z" fill="#27272E"/>
<path d="M57.446 181.727L53.2415 177.58L49.0369 181.727L53.2415 185.932L57.446 181.727ZM62.7869 187.125L58.6392 182.92L54.4347 187.125L58.6392 191.273L62.7869 187.125ZM62.7869 176.386L58.6392 172.182L54.4347 176.386L58.6392 180.534L62.7869 176.386ZM68.1278 181.727L63.9801 177.58L59.8324 181.727L63.9801 185.932L68.1278 181.727ZM80.5089 189H83.1438V184.085H85.9279C89.2873 184.085 91.0913 182.068 91.0913 179.27C91.0913 176.493 89.3086 174.455 85.9634 174.455H80.5089V189ZM83.1438 181.919V176.656H85.5586C87.533 176.656 88.4066 177.722 88.4066 179.27C88.4066 180.818 87.533 181.919 85.5728 181.919H83.1438ZM93.2663 189H95.8374V182.587C95.8374 181.202 96.8814 180.222 98.2947 180.222C98.728 180.222 99.2678 180.3 99.4879 180.371V178.006C99.2536 177.963 98.8487 177.935 98.5646 177.935C97.3146 177.935 96.2706 178.645 95.8729 179.909H95.7592V178.091H93.2663V189ZM105.505 189.213C108.701 189.213 110.733 186.962 110.733 183.588C110.733 180.207 108.701 177.949 105.505 177.949C102.309 177.949 100.278 180.207 100.278 183.588C100.278 186.962 102.309 189.213 105.505 189.213ZM105.52 187.153C103.751 187.153 102.885 185.577 102.885 183.581C102.885 181.585 103.751 179.987 105.52 179.987C107.26 179.987 108.126 181.585 108.126 183.581C108.126 185.577 107.26 187.153 105.52 187.153ZM117.659 193.276C120.607 193.276 122.78 191.926 122.78 189.178V178.091H120.244V179.895H120.102C119.712 179.107 118.895 177.949 116.97 177.949C114.449 177.949 112.467 179.923 112.467 183.51C112.467 187.068 114.449 188.844 116.963 188.844C118.831 188.844 119.705 187.842 120.102 187.04H120.23V189.107C120.23 190.669 119.165 191.33 117.702 191.33C116.153 191.33 115.472 190.598 115.159 190.001L112.844 190.562C113.312 192.047 114.882 193.276 117.659 193.276ZM117.68 186.827C115.983 186.827 115.088 185.506 115.088 183.496C115.088 181.514 115.969 180.058 117.68 180.058C119.335 180.058 120.244 181.429 120.244 183.496C120.244 185.577 119.321 186.827 117.68 186.827ZM125.415 189H127.986V182.587C127.986 181.202 129.03 180.222 130.443 180.222C130.876 180.222 131.416 180.3 131.636 180.371V178.006C131.402 177.963 130.997 177.935 130.713 177.935C129.463 177.935 128.419 178.645 128.021 179.909H127.908V178.091H125.415V189ZM137.725 189.213C140.267 189.213 142.015 187.97 142.469 186.074L140.069 185.804C139.721 186.727 138.868 187.21 137.76 187.21C136.098 187.21 134.998 186.116 134.976 184.249H142.576V183.46C142.576 179.632 140.275 177.949 137.59 177.949C134.465 177.949 132.426 180.243 132.426 183.609C132.426 187.033 134.436 189.213 137.725 189.213ZM134.983 182.516C135.061 181.124 136.091 179.952 137.625 179.952C139.103 179.952 140.097 181.031 140.111 182.516H134.983ZM153.373 180.974C153.018 179.128 151.54 177.949 148.984 177.949C146.356 177.949 144.566 179.241 144.573 181.259C144.566 182.849 145.546 183.901 147.641 184.334L149.502 184.724C150.504 184.945 150.972 185.349 150.972 185.967C150.972 186.713 150.163 187.274 148.941 187.274C147.762 187.274 146.995 186.763 146.775 185.783L144.268 186.024C144.587 188.027 146.271 189.213 148.948 189.213C151.675 189.213 153.6 187.8 153.607 185.733C153.6 184.178 152.599 183.226 150.539 182.778L148.678 182.381C147.57 182.132 147.13 181.749 147.137 181.116C147.13 180.378 147.947 179.866 149.019 179.866C150.205 179.866 150.83 180.513 151.029 181.23L153.373 180.974ZM164.349 180.974C163.994 179.128 162.517 177.949 159.96 177.949C157.332 177.949 155.543 179.241 155.55 181.259C155.543 182.849 156.523 183.901 158.618 184.334L160.479 184.724C161.48 184.945 161.949 185.349 161.949 185.967C161.949 186.713 161.139 187.274 159.918 187.274C158.739 187.274 157.972 186.763 157.751 185.783L155.244 186.024C155.564 188.027 157.247 189.213 159.925 189.213C162.652 189.213 164.577 187.8 164.584 185.733C164.577 184.178 163.575 183.226 161.516 182.778L159.655 182.381C158.547 182.132 158.107 181.749 158.114 181.116C158.107 180.378 158.923 179.866 159.996 179.866C161.182 179.866 161.807 180.513 162.006 181.23L164.349 180.974Z" fill="#F7936F"/>
<path d="M49.5852 212.909V226H51.0682V216.054H51.196L55.2869 226H56.7188L60.8097 216.054H60.9375V226H62.4205V212.909H60.5284L56.0795 223.776H55.9261L51.4773 212.909H49.5852ZM68.2836 226.23C69.9966 226.23 70.8915 225.31 71.1983 224.67H71.275V226H72.7836V219.531C72.7836 216.412 70.4057 216.054 69.1529 216.054C67.6699 216.054 65.9824 216.565 65.2154 218.355L66.6472 218.866C66.9796 218.151 67.7658 217.384 69.204 217.384C70.5911 217.384 71.275 218.119 71.275 219.378V219.429C71.275 220.158 70.5336 220.094 68.7438 220.324C66.9221 220.56 64.9341 220.963 64.9341 223.213C64.9341 225.131 66.4171 226.23 68.2836 226.23ZM68.5137 224.875C67.312 224.875 66.4426 224.338 66.4426 223.29C66.4426 222.139 67.4909 221.781 68.6671 221.628C69.3063 221.551 71.0194 221.372 71.275 221.065V222.446C71.275 223.673 70.3034 224.875 68.5137 224.875ZM75.5369 226H77.0455V216.182H75.5369V226ZM76.304 214.545C76.892 214.545 77.3778 214.085 77.3778 213.523C77.3778 212.96 76.892 212.5 76.304 212.5C75.7159 212.5 75.2301 212.96 75.2301 213.523C75.2301 214.085 75.7159 214.545 76.304 214.545ZM81.3169 220.094C81.3169 218.381 82.378 217.409 83.8226 217.409C85.2225 217.409 86.0726 218.323 86.0726 219.864V226H87.5811V219.761C87.5811 217.256 86.2452 216.054 84.2573 216.054C82.7743 216.054 81.8539 216.719 81.3936 217.716H81.2658V216.182H79.8084V226H81.3169V220.094ZM99.3888 226.205C101.562 226.205 102.994 224.875 103.25 223.136H101.741C101.46 224.21 100.565 224.849 99.3888 224.849C97.5991 224.849 96.4485 223.366 96.4485 221.091C96.4485 218.866 97.6246 217.409 99.3888 217.409C100.718 217.409 101.511 218.227 101.741 219.122H103.25C102.994 217.281 101.434 216.054 99.3633 216.054C96.7042 216.054 94.94 218.151 94.94 221.142C94.94 224.082 96.6275 226.205 99.3888 226.205ZM109.444 226.205C112.103 226.205 113.892 224.185 113.892 221.142C113.892 218.074 112.103 216.054 109.444 216.054C106.784 216.054 104.995 218.074 104.995 221.142C104.995 224.185 106.784 226.205 109.444 226.205ZM109.444 224.849C107.424 224.849 106.503 223.111 106.503 221.142C106.503 219.173 107.424 217.409 109.444 217.409C111.463 217.409 112.384 219.173 112.384 221.142C112.384 223.111 111.463 224.849 109.444 224.849ZM116.195 226H117.704V219.864C117.704 218.425 118.752 217.409 119.928 217.409C121.072 217.409 121.871 218.157 121.871 219.276V226H123.405V219.608C123.405 218.342 124.198 217.409 125.579 217.409C126.653 217.409 127.573 217.978 127.573 219.429V226H129.081V219.429C129.081 217.121 127.841 216.054 126.09 216.054C124.684 216.054 123.655 216.7 123.15 217.716H123.047C122.562 216.668 121.705 216.054 120.414 216.054C119.135 216.054 118.189 216.668 117.78 217.716H117.653V216.182H116.195V226ZM131.84 229.682H133.348V224.491H133.476C133.808 225.028 134.448 226.205 136.34 226.205C138.794 226.205 140.507 224.236 140.507 221.116C140.507 218.023 138.794 216.054 136.314 216.054C134.396 216.054 133.808 217.23 133.476 217.741H133.297V216.182H131.84V229.682ZM133.323 221.091C133.323 218.892 134.294 217.409 136.135 217.409C138.053 217.409 138.999 219.02 138.999 221.091C138.999 223.188 138.027 224.849 136.135 224.849C134.32 224.849 133.323 223.315 133.323 221.091ZM146.797 226.205C149.456 226.205 151.246 224.185 151.246 221.142C151.246 218.074 149.456 216.054 146.797 216.054C144.138 216.054 142.348 218.074 142.348 221.142C142.348 224.185 144.138 226.205 146.797 226.205ZM146.797 224.849C144.777 224.849 143.857 223.111 143.857 221.142C143.857 219.173 144.777 217.409 146.797 217.409C148.817 217.409 149.737 219.173 149.737 221.142C149.737 223.111 148.817 224.849 146.797 224.849ZM155.057 220.094C155.057 218.381 156.118 217.409 157.563 217.409C158.963 217.409 159.813 218.323 159.813 219.864V226H161.321V219.761C161.321 217.256 159.985 216.054 157.998 216.054C156.515 216.054 155.594 216.719 155.134 217.716H155.006V216.182H153.549V226H155.057V220.094ZM168.194 226.205C170.189 226.205 171.646 225.207 172.106 223.724L170.649 223.315C170.265 224.338 169.377 224.849 168.194 224.849C166.424 224.849 165.203 223.705 165.133 221.602H172.26V220.963C172.26 217.307 170.086 216.054 168.041 216.054C165.382 216.054 163.618 218.151 163.618 221.168C163.618 224.185 165.356 226.205 168.194 226.205ZM165.133 220.298C165.235 218.771 166.315 217.409 168.041 217.409C169.677 217.409 170.726 218.636 170.726 220.298H165.133ZM176.063 220.094C176.063 218.381 177.124 217.409 178.569 217.409C179.969 217.409 180.819 218.323 180.819 219.864V226H182.327V219.761C182.327 217.256 180.991 216.054 179.003 216.054C177.52 216.054 176.6 216.719 176.14 217.716H176.012V216.182H174.555V226H176.063V220.094ZM189.354 216.182H187.257V213.83H185.749V216.182H184.266V217.46H185.749V223.597C185.749 225.31 187.129 226.128 188.408 226.128C188.97 226.128 189.328 226.026 189.533 225.949L189.226 224.594C189.098 224.619 188.893 224.67 188.561 224.67C187.896 224.67 187.257 224.466 187.257 223.188V217.46H189.354V216.182Z" fill="#718096"/>
<rect x="48" y="265" width="740" height="12" rx="6" fill="#EDF2F7"/>
<path d="M48 271C48 267.686 50.6863 265 54 265H782C785.314 265 788 267.686 788 271C788 274.314 785.314 277 782 277H54C50.6863 277 48 274.314 48 271Z" fill="url(#paint0_linear_2599_0)"/>
<rect x="48" y="307" width="740" height="12" rx="6" fill="#EDF2F7"/>
<path d="M48 313C48 309.686 50.6863 307 54 307H597C600.314 307 603 309.686 603 313C603 316.314 600.314 319 597 319H54C50.6863 319 48 316.314 48 313Z" fill="url(#paint1_linear_2599_0)"/>
<rect x="48" y="349" width="740" height="12" rx="6" fill="#EDF2F7"/>
<path d="M48 355C48 351.686 50.6863 349 54 349H412C415.314 349 418 351.686 418 355C418 358.314 415.314 361 412 361H54C50.6863 361 48 358.314 48 355Z" fill="url(#paint2_linear_2599_0)"/>
<rect x="48" y="391" width="740" height="12" rx="6" fill="#EDF2F7"/>
<path d="M48 397C48 393.686 50.6863 391 54 391H227C230.314 391 233 393.686 233 397C233 400.314 230.314 403 227 403H54C50.6863 403 48 400.314 48 397Z" fill="url(#paint3_linear_2599_0)"/>
<rect x="48" y="433" width="740" height="12" rx="6" fill="#EDF2F7"/>
<path d="M60.4964 524.326C60.0938 521.418 57.8565 519.73 54.9545 519.73C51.5348 519.73 48.9588 522.223 48.9588 526.455C48.9588 530.68 51.5028 533.179 54.9545 533.179C58.0675 533.179 60.1321 531.165 60.4964 528.666L58.1058 528.653C57.8054 530.188 56.5526 531.05 54.9865 531.05C52.8643 531.05 51.343 529.459 51.343 526.455C51.343 523.501 52.8516 521.859 54.9929 521.859C56.5845 521.859 57.831 522.76 58.1058 524.326H60.4964ZM66.7585 533.192C69.635 533.192 71.4631 531.165 71.4631 528.129C71.4631 525.087 69.635 523.054 66.7585 523.054C63.8821 523.054 62.054 525.087 62.054 528.129C62.054 531.165 63.8821 533.192 66.7585 533.192ZM66.7713 531.338C65.1797 531.338 64.3999 529.919 64.3999 528.123C64.3999 526.327 65.1797 524.888 66.7713 524.888C68.3374 524.888 69.1172 526.327 69.1172 528.123C69.1172 529.919 68.3374 531.338 66.7713 531.338ZM75.651 519.909H73.337V533H75.651V519.909ZM82.2231 533.192C85.0995 533.192 86.9276 531.165 86.9276 528.129C86.9276 525.087 85.0995 523.054 82.2231 523.054C79.3467 523.054 77.5185 525.087 77.5185 528.129C77.5185 531.165 79.3467 533.192 82.2231 533.192ZM82.2359 531.338C80.6442 531.338 79.8644 529.919 79.8644 528.123C79.8644 526.327 80.6442 524.888 82.2359 524.888C83.8019 524.888 84.5817 526.327 84.5817 528.123C84.5817 529.919 83.8019 531.338 82.2359 531.338ZM88.8016 533H91.1155V527.228C91.1155 525.982 92.0551 525.099 93.3271 525.099C93.7171 525.099 94.2029 525.17 94.401 525.234V523.105C94.1901 523.067 93.8257 523.041 93.57 523.041C92.445 523.041 91.5054 523.68 91.1475 524.818H91.0452V523.182H88.8016V533ZM103.608 525.777C103.289 524.115 101.959 523.054 99.658 523.054C97.2929 523.054 95.6821 524.217 95.6885 526.033C95.6821 527.464 96.5642 528.411 98.4499 528.8L100.125 529.152C101.026 529.35 101.448 529.714 101.448 530.271C101.448 530.942 100.719 531.447 99.6196 531.447C98.5585 531.447 97.8682 530.987 97.67 530.104L95.4136 530.322C95.7013 532.124 97.2162 533.192 99.626 533.192C102.081 533.192 103.813 531.92 103.819 530.06C103.813 528.66 102.912 527.803 101.058 527.401L99.3831 527.043C98.3859 526.819 97.9896 526.474 97.996 525.905C97.9896 525.24 98.7247 524.78 99.6899 524.78C100.757 524.78 101.32 525.362 101.499 526.007L103.608 525.777Z" fill="black"/>
<rect x="48" y="567" width="740" height="12" rx="6" fill="#EDF2F7"/>
<path d="M48 573C48 569.686 50.6863 567 54 567H412C415.314 567 418 569.686 418 573C418 576.314 415.314 579 412 579H54C50.6863 579 48 576.314 48 573Z" fill="#FF92AE"/>
<rect x="48" y="609" width="740" height="12" rx="6" fill="#EDF2F7"/>
<path d="M48 615C48 611.686 50.6863 609 54 609H412C415.314 609 418 611.686 418 615C418 618.314 415.314 621 412 621H54C50.6863 621 48 618.314 48 615Z" fill="url(#paint4_linear_2599_0)"/>
<rect x="48" y="651" width="740" height="12" rx="6" fill="#EDF2F7"/>
<path d="M48 657C48 653.686 50.6863 651 54 651H412C415.314 651 418 653.686 418 657C418 660.314 415.314 663 412 663H54C50.6863 663 48 660.314 48 657Z" fill="#66CB9F"/>
<rect x="48" y="693" width="740" height="12" rx="6" fill="#EDF2F7"/>
<path d="M48 699C48 695.686 50.6863 693 54 693H412C415.314 693 418 695.686 418 699C418 702.314 415.314 705 412 705H54C50.6863 705 48 702.314 48 699Z" fill="#F7936F"/>
<rect x="48" y="735" width="740" height="12" rx="6" fill="#EDF2F7"/>
<path d="M48 741C48 737.686 50.6863 735 54 735H412C415.314 735 418 737.686 418 741C418 744.314 415.314 747 412 747H54C50.6863 747 48 744.314 48 741Z" fill="#68DBF2"/>
<rect x="48" y="777" width="740" height="12" rx="6" fill="#EDF2F7"/>
<path d="M48 783C48 779.686 50.6863 777 54 777H412C415.314 777 418 779.686 418 783C418 786.314 415.314 789 412 789H54C50.6863 789 48 786.314 48 783Z" fill="#F16063"/>
<path d="M56.4055 867.508H58.6875C58.6428 865.296 56.7571 863.73 53.9702 863.73C51.2216 863.73 49.157 865.277 49.1634 867.591C49.1634 869.47 50.4993 870.55 52.6534 871.107L54.1428 871.49C55.5554 871.848 56.4886 872.289 56.495 873.305C56.4886 874.424 55.4276 875.172 53.8807 875.172C52.3977 875.172 51.2472 874.507 51.1513 873.133H48.8182C48.9141 875.734 50.8509 877.198 53.8999 877.198C57.0384 877.198 58.8601 875.632 58.8665 873.325C58.8601 871.055 56.9872 870.02 55.0185 869.553L53.7912 869.246C52.7173 868.991 51.554 868.537 51.5668 867.444C51.5732 866.46 52.4553 865.737 53.9382 865.737C55.3509 865.737 56.2841 866.396 56.4055 867.508ZM60.7884 877H63.1023V867.182H60.7884V877ZM61.9517 865.788C62.6868 865.788 63.2877 865.226 63.2877 864.536C63.2877 863.839 62.6868 863.276 61.9517 863.276C61.2102 863.276 60.6094 863.839 60.6094 864.536C60.6094 865.226 61.2102 865.788 61.9517 865.788ZM65.2639 877H73.3243V875.082H68.3385V874.999L73.1581 868.761V867.182H65.4301V869.099H70.3264V869.183L65.2639 875.53V877ZM79.4745 877.192C81.7628 877.192 83.3353 876.073 83.7444 874.366L81.5839 874.124C81.2707 874.955 80.5036 875.389 79.5065 875.389C78.0107 875.389 77.0199 874.405 77.0008 872.724H83.8403V872.014C83.8403 868.569 81.7692 867.054 79.353 867.054C76.5405 867.054 74.706 869.119 74.706 872.148C74.706 875.229 76.515 877.192 79.4745 877.192ZM77.0072 871.164C77.0775 869.911 78.0043 868.857 79.385 868.857C80.7146 868.857 81.6094 869.828 81.6222 871.164H77.0072ZM93.4678 869.777C93.1482 868.115 91.8186 867.054 89.5175 867.054C87.1524 867.054 85.5416 868.217 85.548 870.033C85.5416 871.464 86.4237 872.411 88.3094 872.8L89.9841 873.152C90.8854 873.35 91.3073 873.714 91.3073 874.271C91.3073 874.942 90.5786 875.447 89.4791 875.447C88.4181 875.447 87.7277 874.987 87.5296 874.104L85.2732 874.322C85.5608 876.124 87.0757 877.192 89.4855 877.192C91.9401 877.192 93.6723 875.92 93.6787 874.06C93.6723 872.66 92.771 871.803 90.9173 871.401L89.2426 871.043C88.2455 870.819 87.8492 870.474 87.8556 869.905C87.8492 869.24 88.5842 868.78 89.5494 868.78C90.6169 868.78 91.1794 869.362 91.3584 870.007L93.4678 869.777Z" fill="black"/>
<rect x="48" y="911" width="740" height="6" rx="3" fill="#EDF2F7"/>
<path d="M48 914C48 912.343 49.3431 911 51 911H600C601.657 911 603 912.343 603 914C603 915.657 601.657 917 600 917H51C49.3432 917 48 915.657 48 914Z" fill="url(#paint5_linear_2599_0)"/>
<rect x="48" y="947" width="740" height="12" rx="6" fill="#EDF2F7"/>
<path d="M48 953C48 949.686 50.6863 947 54 947H597C600.314 947 603 949.686 603 953C603 956.314 600.314 959 597 959H54C50.6863 959 48 956.314 48 953Z" fill="url(#paint6_linear_2599_0)"/>
<rect x="48" y="989" width="740" height="20" rx="10" fill="#EDF2F7"/>
<path d="M48 999C48 993.477 52.4772 989 58 989H593C598.523 989 603 993.477 603 999C603 1004.52 598.523 1009 593 1009H58C52.4771 1009 48 1004.52 48 999Z" fill="url(#paint7_linear_2599_0)"/>
</g>
<defs>
<filter id="filter0_dd_2599_0" x="0" y="0" width="836" height="1061" filterUnits="userSpaceOnUse" color-interpolation-filters="sRGB">
<feFlood flood-opacity="0" result="BackgroundImageFix"/>
<feColorMatrix in="SourceAlpha" type="matrix" values="0 0 0 0 0 0 0 0 0 0 0 0 0 0 0 0 0 0 127 0" result="hardAlpha"/>
<feMorphology radius="2" operator="erode" in="SourceAlpha" result="effect1_dropShadow_2599_0"/>
<feOffset dy="4"/>
<feGaussianBlur stdDeviation="10"/>
<feColorMatrix type="matrix" values="0 0 0 0 0.196078 0 0 0 0 0.196078 0 0 0 0 0.278431 0 0 0 0.08 0"/>
<feBlend mode="normal" in2="BackgroundImageFix" result="effect1_dropShadow_2599_0"/>
<feColorMatrix in="SourceAlpha" type="matrix" values="0 0 0 0 0 0 0 0 0 0 0 0 0 0 0 0 0 0 127 0" result="hardAlpha"/>
<feOffset/>
<feGaussianBlur stdDeviation="0.5"/>
<feColorMatrix type="matrix" values="0 0 0 0 0.0470588 0 0 0 0 0.101961 0 0 0 0 0.294118 0 0 0 0.1 0"/>
<feBlend mode="normal" in2="effect1_dropShadow_2599_0" result="effect2_dropShadow_2599_0"/>
<feBlend mode="normal" in="SourceGraphic" in2="effect2_dropShadow_2599_0" result="shape"/>
</filter>
<linearGradient id="paint0_linear_2599_0" x1="788" y1="265" x2="787.611" y2="288.994" gradientUnits="userSpaceOnUse">
<stop offset="0.0001" stop-color="#68DBF2"/>
<stop offset="1" stop-color="#509CF5"/>
</linearGradient>
<linearGradient id="paint1_linear_2599_0" x1="603" y1="307" x2="602.481" y2="330.989" gradientUnits="userSpaceOnUse">
<stop offset="0.0001" stop-color="#68DBF2"/>
<stop offset="1" stop-color="#509CF5"/>
</linearGradient>
<linearGradient id="paint2_linear_2599_0" x1="418" y1="349" x2="417.222" y2="372.975" gradientUnits="userSpaceOnUse">
<stop offset="0.0001" stop-color="#68DBF2"/>
<stop offset="1" stop-color="#509CF5"/>
</linearGradient>
<linearGradient id="paint3_linear_2599_0" x1="233" y1="391" x2="231.45" y2="414.899" gradientUnits="userSpaceOnUse">
<stop offset="0.0001" stop-color="#68DBF2"/>
<stop offset="1" stop-color="#509CF5"/>
</linearGradient>
<linearGradient id="paint4_linear_2599_0" x1="418" y1="609" x2="417.222" y2="632.975" gradientUnits="userSpaceOnUse">
<stop offset="0.0001" stop-color="#68DBF2"/>
<stop offset="1" stop-color="#509CF5"/>
</linearGradient>
<linearGradient id="paint5_linear_2599_0" x1="603" y1="911" x2="602.87" y2="922.999" gradientUnits="userSpaceOnUse">
<stop offset="0.0001" stop-color="#68DBF2"/>
<stop offset="1" stop-color="#509CF5"/>
</linearGradient>
<linearGradient id="paint6_linear_2599_0" x1="603" y1="947" x2="602.481" y2="970.989" gradientUnits="userSpaceOnUse">
<stop offset="0.0001" stop-color="#68DBF2"/>
<stop offset="1" stop-color="#509CF5"/>
</linearGradient>
<linearGradient id="paint7_linear_2599_0" x1="603" y1="989" x2="601.56" y2="1028.95" gradientUnits="userSpaceOnUse">
<stop offset="0.0001" stop-color="#68DBF2"/>
<stop offset="1" stop-color="#509CF5"/>
</linearGradient>
</defs>
</svg>
