<svg width="923" height="707" viewBox="0 0 923 707" fill="none" xmlns="http://www.w3.org/2000/svg">
<g filter="url(#filter0_dd_2102_25627)">
<rect x="18" y="14" width="887" height="671" rx="16" fill="#F7FAFC"/>
<rect width="829" height="1" transform="matrix(1 0 0 -1 48 138)" fill="#E2E8F0"/>
<path d="M73.3764 73.9844H67.777C67.6747 73.2599 67.4659 72.6165 67.1506 72.054C66.8352 71.483 66.4304 70.9972 65.9361 70.5966C65.4418 70.196 64.8707 69.8892 64.223 69.6761C63.5838 69.4631 62.8892 69.3565 62.1392 69.3565C60.7841 69.3565 59.6037 69.6932 58.598 70.3665C57.5923 71.0312 56.8125 72.0028 56.2585 73.2812C55.7045 74.5511 55.4276 76.0937 55.4276 77.9091C55.4276 79.7756 55.7045 81.3437 56.2585 82.6136C56.821 83.8835 57.6051 84.8423 58.6108 85.4901C59.6165 86.1378 60.7798 86.4616 62.1009 86.4616C62.8423 86.4616 63.5284 86.3636 64.1591 86.1676C64.7983 85.9716 65.3651 85.6861 65.8594 85.3111C66.3537 84.9276 66.7628 84.4631 67.0866 83.9176C67.419 83.3722 67.6491 82.75 67.777 82.0511L73.3764 82.0767C73.2315 83.2784 72.8693 84.4375 72.2898 85.554C71.7188 86.6619 70.9474 87.6548 69.9759 88.5327C69.0128 89.402 67.8622 90.0923 66.5241 90.6037C65.1946 91.1065 63.6903 91.358 62.0114 91.358C59.6761 91.358 57.5881 90.8295 55.7472 89.7727C53.9148 88.7159 52.4659 87.1861 51.4006 85.1832C50.3438 83.1804 49.8153 80.7557 49.8153 77.9091C49.8153 75.054 50.3523 72.625 51.4261 70.6222C52.5 68.6193 53.9574 67.0937 55.7983 66.0455C57.6392 64.9886 59.7102 64.4602 62.0114 64.4602C63.5284 64.4602 64.9347 64.6733 66.2301 65.0994C67.5341 65.5256 68.6889 66.1477 69.6946 66.9659C70.7003 67.7756 71.5185 68.7685 72.1491 69.9446C72.7884 71.1207 73.1974 72.4673 73.3764 73.9844ZM82.6896 79.6477V91H77.2436V64.8182H82.5362V74.8281H82.7663C83.2095 73.669 83.9254 72.7614 84.9141 72.1051C85.9027 71.4403 87.1428 71.108 88.6342 71.108C89.9979 71.108 91.1868 71.4062 92.201 72.0028C93.2237 72.5909 94.0163 73.4389 94.5788 74.5469C95.1499 75.6463 95.4311 76.9631 95.4226 78.4972V91H89.9766V79.4688C89.9851 78.2585 89.6783 77.3168 89.0561 76.6435C88.4425 75.9702 87.5817 75.6335 86.4737 75.6335C85.7322 75.6335 85.076 75.7912 84.505 76.1065C83.9425 76.4219 83.4993 76.8821 83.1754 77.4872C82.8601 78.0838 82.6982 78.804 82.6896 79.6477ZM105.308 91.3707C104.055 91.3707 102.939 91.1534 101.958 90.7188C100.978 90.2756 100.203 89.6236 99.6317 88.7628C99.0692 87.8935 98.788 86.8111 98.788 85.5156C98.788 84.4247 98.9883 83.5085 99.3888 82.767C99.7894 82.0256 100.335 81.429 101.025 80.9773C101.716 80.5256 102.5 80.1847 103.377 79.9545C104.264 79.7244 105.193 79.5625 106.164 79.4688C107.306 79.3494 108.227 79.2386 108.926 79.1364C109.625 79.0256 110.132 78.8636 110.447 78.6506C110.762 78.4375 110.92 78.1222 110.92 77.7045V77.6278C110.92 76.8182 110.664 76.1918 110.153 75.7486C109.65 75.3054 108.934 75.0838 108.005 75.0838C107.025 75.0838 106.245 75.3011 105.666 75.7358C105.086 76.1619 104.703 76.6989 104.515 77.3466L99.4783 76.9375C99.734 75.7443 100.237 74.7131 100.987 73.8438C101.737 72.9659 102.704 72.2926 103.889 71.8239C105.082 71.3466 106.463 71.108 108.031 71.108C109.122 71.108 110.166 71.2358 111.163 71.4915C112.169 71.7472 113.059 72.1435 113.835 72.6804C114.619 73.2173 115.237 73.9077 115.689 74.7514C116.14 75.5866 116.366 76.5881 116.366 77.7557V91H111.201V88.277H111.048C110.733 88.8906 110.311 89.4318 109.782 89.9006C109.254 90.3608 108.619 90.723 107.877 90.9872C107.136 91.2429 106.279 91.3707 105.308 91.3707ZM106.868 87.6122C107.669 87.6122 108.376 87.4545 108.99 87.1392C109.603 86.8153 110.085 86.3807 110.434 85.8352C110.784 85.2898 110.958 84.6719 110.958 83.9815V81.8977C110.788 82.0085 110.554 82.1108 110.255 82.2045C109.966 82.2898 109.637 82.3707 109.271 82.4474C108.904 82.5156 108.538 82.5795 108.172 82.6392C107.805 82.6903 107.473 82.7372 107.174 82.7798C106.535 82.8736 105.977 83.0227 105.5 83.2273C105.022 83.4318 104.652 83.7088 104.387 84.0582C104.123 84.3991 103.991 84.8253 103.991 85.3366C103.991 86.0781 104.26 86.6449 104.797 87.0369C105.342 87.4205 106.032 87.6122 106.868 87.6122ZM120.591 91V71.3636H125.871V74.7898H126.076C126.434 73.571 127.034 72.6506 127.878 72.0284C128.722 71.3977 129.694 71.0824 130.793 71.0824C131.066 71.0824 131.36 71.0994 131.675 71.1335C131.99 71.1676 132.267 71.2145 132.506 71.2741V76.1065C132.25 76.0298 131.897 75.9616 131.445 75.902C130.993 75.8423 130.58 75.8125 130.205 75.8125C129.404 75.8125 128.688 75.9872 128.057 76.3366C127.435 76.6776 126.941 77.1548 126.574 77.7685C126.216 78.3821 126.037 79.0895 126.037 79.8906V91H120.591ZM146.751 71.3636V75.4545H134.925V71.3636H146.751ZM137.61 66.6591H143.056V84.9659C143.056 85.4687 143.133 85.8608 143.286 86.142C143.44 86.4148 143.653 86.6065 143.925 86.7173C144.207 86.8281 144.531 86.8835 144.897 86.8835C145.153 86.8835 145.408 86.8622 145.664 86.8196C145.92 86.7685 146.116 86.7301 146.252 86.7045L147.109 90.7571C146.836 90.8423 146.452 90.9403 145.958 91.0511C145.464 91.1705 144.863 91.2429 144.156 91.2685C142.843 91.3196 141.692 91.1449 140.704 90.7443C139.724 90.3437 138.961 89.7216 138.415 88.8778C137.87 88.0341 137.602 86.9687 137.61 85.6818V66.6591ZM166.39 76.9631L161.404 77.2699C161.319 76.8437 161.136 76.4602 160.855 76.1193C160.574 75.7699 160.203 75.4929 159.743 75.2884C159.291 75.0753 158.75 74.9688 158.119 74.9688C157.275 74.9688 156.564 75.1477 155.984 75.5057C155.404 75.8551 155.115 76.3239 155.115 76.9119C155.115 77.3807 155.302 77.777 155.677 78.1009C156.052 78.4247 156.696 78.6847 157.608 78.8807L161.162 79.5966C163.071 79.9886 164.494 80.6193 165.431 81.4886C166.369 82.358 166.838 83.5 166.838 84.9148C166.838 86.2017 166.458 87.331 165.7 88.3026C164.95 89.2741 163.919 90.0327 162.606 90.5781C161.302 91.1151 159.798 91.3835 158.093 91.3835C155.494 91.3835 153.423 90.8423 151.88 89.7599C150.346 88.669 149.447 87.1861 149.183 85.3111L154.539 85.0298C154.701 85.8224 155.093 86.4276 155.716 86.8452C156.338 87.2543 157.135 87.4588 158.106 87.4588C159.061 87.4588 159.828 87.2756 160.407 86.9091C160.995 86.5341 161.294 86.0526 161.302 85.4645C161.294 84.9702 161.085 84.5653 160.676 84.25C160.267 83.9261 159.636 83.679 158.784 83.5085L155.383 82.831C153.466 82.4474 152.038 81.7827 151.1 80.8366C150.172 79.8906 149.707 78.6847 149.707 77.2188C149.707 75.9574 150.048 74.8707 150.73 73.9588C151.42 73.0469 152.387 72.3438 153.632 71.8494C154.885 71.3551 156.35 71.108 158.029 71.108C160.51 71.108 162.461 71.6321 163.885 72.6804C165.316 73.7287 166.152 75.1562 166.39 76.9631Z" fill="#27272E"/>
<path d="M49.4347 189H58.4759V186.791H52.0696V174.455H49.4347V189ZM60.6491 189H63.2202V178.091H60.6491V189ZM61.9418 176.543C62.7585 176.543 63.4261 175.918 63.4261 175.151C63.4261 174.376 62.7585 173.751 61.9418 173.751C61.1179 173.751 60.4503 174.376 60.4503 175.151C60.4503 175.918 61.1179 176.543 61.9418 176.543ZM68.435 182.608C68.435 181.031 69.3867 180.122 70.7433 180.122C72.0714 180.122 72.8668 180.996 72.8668 182.452V189H75.4379V182.054C75.445 179.44 73.9535 177.949 71.7021 177.949C70.0685 177.949 68.9464 178.73 68.4492 179.945H68.3214V178.091H65.864V189H68.435V182.608ZM82.881 189.213C85.4237 189.213 87.1708 187.97 87.6254 186.074L85.2248 185.804C84.8768 186.727 84.0245 187.21 82.9165 187.21C81.2546 187.21 80.1538 186.116 80.1325 184.249H87.7319V183.46C87.7319 179.632 85.4308 177.949 82.7461 177.949C79.6211 177.949 77.5827 180.243 77.5827 183.609C77.5827 187.033 79.5927 189.213 82.881 189.213ZM80.1396 182.516C80.2177 181.124 81.2475 179.952 82.7816 179.952C84.2589 179.952 85.2532 181.031 85.2674 182.516H80.1396ZM99.6264 189.213C102.368 189.213 104.115 187.587 104.3 185.271H101.842C101.622 186.443 100.777 187.118 99.6477 187.118C98.0426 187.118 97.0057 185.776 97.0057 183.545C97.0057 181.344 98.0639 180.023 99.6477 180.023C100.884 180.023 101.643 180.818 101.842 181.869H104.3C104.122 179.504 102.276 177.949 99.6122 177.949C96.4162 177.949 94.3991 180.257 94.3991 183.588C94.3991 186.891 96.3665 189.213 99.6264 189.213ZM108.982 182.608C108.982 181.031 109.962 180.122 111.34 180.122C112.689 180.122 113.485 180.982 113.485 182.452V189H116.056V182.054C116.056 179.419 114.564 177.949 112.299 177.949C110.623 177.949 109.557 178.709 109.053 179.945H108.925V174.455H106.411V189H108.982V182.608ZM121.816 189.22C123.527 189.22 124.55 188.418 125.019 187.501H125.104V189H127.576V181.699C127.576 178.815 125.225 177.949 123.144 177.949C120.85 177.949 119.088 178.972 118.52 180.96L120.921 181.301C121.176 180.555 121.901 179.916 123.158 179.916C124.351 179.916 125.005 180.527 125.005 181.599V181.642C125.005 182.381 124.23 182.416 122.306 182.622C120.189 182.849 118.165 183.482 118.165 185.939C118.165 188.084 119.735 189.22 121.816 189.22ZM122.483 187.331C121.411 187.331 120.644 186.841 120.644 185.896C120.644 184.909 121.503 184.497 122.654 184.334C123.328 184.241 124.678 184.071 125.012 183.801V185.087C125.012 186.301 124.032 187.331 122.483 187.331ZM130.161 189H132.732V182.587C132.732 181.202 133.776 180.222 135.189 180.222C135.623 180.222 136.162 180.3 136.382 180.371V178.006C136.148 177.963 135.743 177.935 135.459 177.935C134.209 177.935 133.165 178.645 132.767 179.909H132.654V178.091H130.161V189ZM144.124 178.091H141.972V175.477H139.401V178.091H137.853V180.08H139.401V186.145C139.387 188.197 140.878 189.206 142.81 189.149C143.542 189.128 144.046 188.986 144.323 188.893L143.89 186.884C143.748 186.919 143.456 186.983 143.137 186.983C142.49 186.983 141.972 186.756 141.972 185.719V180.08H144.124V178.091ZM154.74 180.974C154.385 179.128 152.908 177.949 150.351 177.949C147.723 177.949 145.933 179.241 145.94 181.259C145.933 182.849 146.913 183.901 149.009 184.334L150.869 184.724C151.871 184.945 152.339 185.349 152.339 185.967C152.339 186.713 151.53 187.274 150.308 187.274C149.129 187.274 148.362 186.763 148.142 185.783L145.635 186.024C145.955 188.027 147.638 189.213 150.315 189.213C153.043 189.213 154.967 187.8 154.974 185.733C154.967 184.178 153.966 183.226 151.906 182.778L150.045 182.381C148.938 182.132 148.497 181.749 148.504 181.116C148.497 180.378 149.314 179.866 150.386 179.866C151.572 179.866 152.197 180.513 152.396 181.23L154.74 180.974Z" fill="#F7936F"/>
<path d="M48.8693 214.315H52.9858V226H54.571V214.315H58.6875V212.909H48.8693V214.315ZM62.438 220.094C62.438 218.381 63.5311 217.409 65.0204 217.409C66.4395 217.409 67.296 218.304 67.296 219.864V226H68.8045V219.761C68.8045 217.237 67.4622 216.054 65.4551 216.054C63.9082 216.054 63.0261 216.7 62.5659 217.716H62.438V212.909H60.9295V226H62.438V220.094ZM71.5643 226H73.0728V216.182H71.5643V226ZM72.3313 214.545C72.9194 214.545 73.4052 214.085 73.4052 213.523C73.4052 212.96 72.9194 212.5 72.3313 212.5C71.7433 212.5 71.2575 212.96 71.2575 213.523C71.2575 214.085 71.7433 214.545 72.3313 214.545ZM82.7903 218.381C82.3173 216.987 81.2562 216.054 79.313 216.054C77.242 216.054 75.7079 217.23 75.7079 218.892C75.7079 220.247 76.5133 221.155 78.3159 221.577L79.9522 221.96C80.943 222.19 81.4096 222.663 81.4096 223.341C81.4096 224.185 80.5147 224.875 79.1085 224.875C77.8748 224.875 77.1014 224.344 76.8329 223.29L75.4011 223.648C75.7527 225.316 77.127 226.205 79.1341 226.205C81.416 226.205 82.9693 224.958 82.9693 223.264C82.9693 221.896 82.1127 221.033 80.3613 220.605L78.9039 220.247C77.7406 219.96 77.2164 219.57 77.2164 218.815C77.2164 217.972 78.1113 217.358 79.313 217.358C80.6298 217.358 81.1731 218.087 81.4352 218.764L82.7903 218.381ZM90.3026 226H91.8111V216.182H90.3026V226ZM91.0696 214.545C91.6577 214.545 92.1435 214.085 92.1435 213.523C92.1435 212.96 91.6577 212.5 91.0696 212.5C90.4815 212.5 89.9957 212.96 89.9957 213.523C89.9957 214.085 90.4815 214.545 91.0696 214.545ZM101.529 218.381C101.056 216.987 99.9945 216.054 98.0513 216.054C95.9803 216.054 94.4462 217.23 94.4462 218.892C94.4462 220.247 95.2516 221.155 97.0542 221.577L98.6905 221.96C99.6813 222.19 100.148 222.663 100.148 223.341C100.148 224.185 99.253 224.875 97.8468 224.875C96.6131 224.875 95.8397 224.344 95.5712 223.29L94.1394 223.648C94.4909 225.316 95.8652 226.205 97.8723 226.205C100.154 226.205 101.708 224.958 101.708 223.264C101.708 221.896 100.851 221.033 99.0996 220.605L97.6422 220.247C96.4789 219.96 95.9547 219.57 95.9547 218.815C95.9547 217.972 96.8496 217.358 98.0513 217.358C99.3681 217.358 99.9114 218.087 100.173 218.764L101.529 218.381ZM115.228 221.986C115.228 223.827 113.822 224.67 112.697 224.67C111.444 224.67 110.549 223.75 110.549 222.318V216.182H109.041V222.42C109.041 224.926 110.37 226.128 112.211 226.128C113.694 226.128 114.666 225.335 115.126 224.338H115.228V226H116.737V216.182H115.228V221.986ZM126.454 218.381C125.981 216.987 124.92 216.054 122.977 216.054C120.906 216.054 119.372 217.23 119.372 218.892C119.372 220.247 120.177 221.155 121.98 221.577L123.616 221.96C124.607 222.19 125.074 222.663 125.074 223.341C125.074 224.185 124.179 224.875 122.773 224.875C121.539 224.875 120.765 224.344 120.497 223.29L119.065 223.648C119.417 225.316 120.791 226.205 122.798 226.205C125.08 226.205 126.633 224.958 126.633 223.264C126.633 221.896 125.777 221.033 124.025 220.605L122.568 220.247C121.405 219.96 120.881 219.57 120.881 218.815C120.881 217.972 121.775 217.358 122.977 217.358C124.294 217.358 124.837 218.087 125.099 218.764L126.454 218.381ZM133.021 226.205C135.015 226.205 136.472 225.207 136.933 223.724L135.475 223.315C135.092 224.338 134.203 224.849 133.021 224.849C131.25 224.849 130.029 223.705 129.959 221.602H137.086V220.963C137.086 217.307 134.913 216.054 132.867 216.054C130.208 216.054 128.444 218.151 128.444 221.168C128.444 224.185 130.183 226.205 133.021 226.205ZM129.959 220.298C130.061 218.771 131.141 217.409 132.867 217.409C134.504 217.409 135.552 218.636 135.552 220.298H129.959ZM143.088 226.205C144.98 226.205 145.619 225.028 145.952 224.491H146.131V226H147.588V212.909H146.08V217.741H145.952C145.619 217.23 145.031 216.054 143.114 216.054C140.634 216.054 138.92 218.023 138.92 221.116C138.92 224.236 140.634 226.205 143.088 226.205ZM143.293 224.849C141.401 224.849 140.429 223.188 140.429 221.091C140.429 219.02 141.375 217.409 143.293 217.409C145.134 217.409 146.105 218.892 146.105 221.091C146.105 223.315 145.108 224.849 143.293 224.849ZM159.893 216.182H157.796V213.83H156.288V216.182H154.805V217.46H156.288V223.597C156.288 225.31 157.668 226.128 158.947 226.128C159.509 226.128 159.867 226.026 160.072 225.949L159.765 224.594C159.637 224.619 159.433 224.67 159.1 224.67C158.435 224.67 157.796 224.466 157.796 223.188V217.46H159.893V216.182ZM166.045 226.205C168.704 226.205 170.494 224.185 170.494 221.142C170.494 218.074 168.704 216.054 166.045 216.054C163.386 216.054 161.596 218.074 161.596 221.142C161.596 224.185 163.386 226.205 166.045 226.205ZM166.045 224.849C164.025 224.849 163.105 223.111 163.105 221.142C163.105 219.173 164.025 217.409 166.045 217.409C168.065 217.409 168.985 219.173 168.985 221.142C168.985 223.111 168.065 224.849 166.045 224.849ZM181.848 226.205C184.021 226.205 185.453 224.875 185.709 223.136H184.2C183.919 224.21 183.024 224.849 181.848 224.849C180.058 224.849 178.907 223.366 178.907 221.091C178.907 218.866 180.084 217.409 181.848 217.409C183.177 217.409 183.97 218.227 184.2 219.122H185.709C185.453 217.281 183.893 216.054 181.822 216.054C179.163 216.054 177.399 218.151 177.399 221.142C177.399 224.082 179.086 226.205 181.848 226.205ZM187.914 226H189.422V219.787C189.422 218.457 190.471 217.486 191.903 217.486C192.305 217.486 192.721 217.562 192.823 217.588V216.054C192.65 216.041 192.254 216.028 192.03 216.028C190.854 216.028 189.831 216.693 189.474 217.665H189.371V216.182H187.914V226ZM198.429 226.205C200.423 226.205 201.881 225.207 202.341 223.724L200.883 223.315C200.5 224.338 199.611 224.849 198.429 224.849C196.658 224.849 195.437 223.705 195.367 221.602H202.494V220.963C202.494 217.307 200.321 216.054 198.275 216.054C195.616 216.054 193.852 218.151 193.852 221.168C193.852 224.185 195.591 226.205 198.429 226.205ZM195.367 220.298C195.469 218.771 196.55 217.409 198.275 217.409C199.912 217.409 200.96 218.636 200.96 220.298H195.367ZM207.678 226.23C209.391 226.23 210.286 225.31 210.593 224.67H210.67V226H212.178V219.531C212.178 216.412 209.8 216.054 208.547 216.054C207.064 216.054 205.377 216.565 204.61 218.355L206.042 218.866C206.374 218.151 207.16 217.384 208.599 217.384C209.986 217.384 210.67 218.119 210.67 219.378V219.429C210.67 220.158 209.928 220.094 208.138 220.324C206.317 220.56 204.329 220.963 204.329 223.213C204.329 225.131 205.812 226.23 207.678 226.23ZM207.908 224.875C206.706 224.875 205.837 224.338 205.837 223.29C205.837 222.139 206.885 221.781 208.062 221.628C208.701 221.551 210.414 221.372 210.67 221.065V222.446C210.67 223.673 209.698 224.875 207.908 224.875ZM219.201 216.182H217.105V213.83H215.596V216.182H214.113V217.46H215.596V223.597C215.596 225.31 216.977 226.128 218.255 226.128C218.818 226.128 219.176 226.026 219.38 225.949L219.074 224.594C218.946 224.619 218.741 224.67 218.409 224.67C217.744 224.67 217.105 224.466 217.105 223.188V217.46H219.201V216.182ZM225.482 226.205C227.476 226.205 228.933 225.207 229.393 223.724L227.936 223.315C227.553 224.338 226.664 224.849 225.482 224.849C223.711 224.849 222.49 223.705 222.42 221.602H229.547V220.963C229.547 217.307 227.374 216.054 225.328 216.054C222.669 216.054 220.905 218.151 220.905 221.168C220.905 224.185 222.643 226.205 225.482 226.205ZM222.42 220.298C222.522 218.771 223.602 217.409 225.328 217.409C226.964 217.409 228.013 218.636 228.013 220.298H222.42ZM239.793 226.23C241.506 226.23 242.401 225.31 242.708 224.67H242.785V226H244.293V219.531C244.293 216.412 241.915 216.054 240.663 216.054C239.18 216.054 237.492 216.565 236.725 218.355L238.157 218.866C238.489 218.151 239.276 217.384 240.714 217.384C242.101 217.384 242.785 218.119 242.785 219.378V219.429C242.785 220.158 242.043 220.094 240.254 220.324C238.432 220.56 236.444 220.963 236.444 223.213C236.444 225.131 237.927 226.23 239.793 226.23ZM240.023 224.875C238.822 224.875 237.952 224.338 237.952 223.29C237.952 222.139 239.001 221.781 240.177 221.628C240.816 221.551 242.529 221.372 242.785 221.065V222.446C242.785 223.673 241.813 224.875 240.023 224.875ZM248.555 212.909H247.047V226H248.555V212.909ZM252.827 212.909H251.318V226H252.827V212.909ZM263.541 226.23C265.254 226.23 266.149 225.31 266.456 224.67H266.533V226H268.041V219.531C268.041 216.412 265.664 216.054 264.411 216.054C262.928 216.054 261.24 216.565 260.473 218.355L261.905 218.866C262.237 218.151 263.024 217.384 264.462 217.384C265.849 217.384 266.533 218.119 266.533 219.378V219.429C266.533 220.158 265.791 220.094 264.002 220.324C262.18 220.56 260.192 220.963 260.192 223.213C260.192 225.131 261.675 226.23 263.541 226.23ZM263.771 224.875C262.57 224.875 261.7 224.338 261.7 223.29C261.7 222.139 262.749 221.781 263.925 221.628C264.564 221.551 266.277 221.372 266.533 221.065V222.446C266.533 223.673 265.561 224.875 263.771 224.875ZM278.472 216.182H276.835L274.125 224.006H274.023L271.312 216.182H269.676L273.307 226H274.841L278.472 216.182ZM283.053 226.23C284.766 226.23 285.661 225.31 285.968 224.67H286.045V226H287.553V219.531C287.553 216.412 285.175 216.054 283.922 216.054C282.439 216.054 280.752 216.565 279.985 218.355L281.417 218.866C281.749 218.151 282.535 217.384 283.974 217.384C285.361 217.384 286.045 218.119 286.045 219.378V219.429C286.045 220.158 285.303 220.094 283.513 220.324C281.692 220.56 279.704 220.963 279.704 223.213C279.704 225.131 281.187 226.23 283.053 226.23ZM283.283 224.875C282.081 224.875 281.212 224.338 281.212 223.29C281.212 222.139 282.26 221.781 283.437 221.628C284.076 221.551 285.789 221.372 286.045 221.065V222.446C286.045 223.673 285.073 224.875 283.283 224.875ZM294.576 216.182H292.48V213.83H290.971V216.182H289.488V217.46H290.971V223.597C290.971 225.31 292.352 226.128 293.63 226.128C294.193 226.128 294.551 226.026 294.755 225.949L294.449 224.594C294.321 224.619 294.116 224.67 293.784 224.67C293.119 224.67 292.48 224.466 292.48 223.188V217.46H294.576V216.182ZM299.735 226.23C301.448 226.23 302.343 225.31 302.65 224.67H302.726V226H304.235V219.531C304.235 216.412 301.857 216.054 300.604 216.054C299.121 216.054 297.434 216.565 296.667 218.355L298.098 218.866C298.431 218.151 299.217 217.384 300.655 217.384C302.042 217.384 302.726 218.119 302.726 219.378V219.429C302.726 220.158 301.985 220.094 300.195 220.324C298.373 220.56 296.385 220.963 296.385 223.213C296.385 225.131 297.868 226.23 299.735 226.23ZM299.965 224.875C298.763 224.875 297.894 224.338 297.894 223.29C297.894 222.139 298.942 221.781 300.118 221.628C300.757 221.551 302.471 221.372 302.726 221.065V222.446C302.726 223.673 301.755 224.875 299.965 224.875ZM306.988 226H308.497V219.787C308.497 218.457 309.545 217.486 310.977 217.486C311.379 217.486 311.795 217.562 311.897 217.588V216.054C311.725 216.041 311.328 216.028 311.105 216.028C309.928 216.028 308.906 216.693 308.548 217.665H308.445V216.182H306.988V226ZM320.64 218.381C320.167 216.987 319.106 216.054 317.163 216.054C315.092 216.054 313.558 217.23 313.558 218.892C313.558 220.247 314.363 221.155 316.165 221.577L317.802 221.96C318.793 222.19 319.259 222.663 319.259 223.341C319.259 224.185 318.364 224.875 316.958 224.875C315.724 224.875 314.951 224.344 314.683 223.29L313.251 223.648C313.602 225.316 314.977 226.205 316.984 226.205C319.266 226.205 320.819 224.958 320.819 223.264C320.819 221.896 319.962 221.033 318.211 220.605L316.754 220.247C315.59 219.96 315.066 219.57 315.066 218.815C315.066 217.972 315.961 217.358 317.163 217.358C318.479 217.358 319.023 218.087 319.285 218.764L320.64 218.381Z" fill="#718096"/>
<g filter="url(#filter1_dd_2102_25627)">
<rect x="48" y="265" width="815" height="390" rx="16" fill="white"/>
<path d="M79.4716 299.062H81.5C81.4602 297.097 79.7841 295.705 77.3068 295.705C74.8636 295.705 73.0284 297.08 73.0341 299.136C73.0341 300.807 74.2216 301.767 76.1364 302.261L77.4602 302.602C78.7159 302.92 79.5455 303.312 79.5511 304.216C79.5455 305.21 78.6023 305.875 77.2273 305.875C75.9091 305.875 74.8864 305.284 74.8011 304.062H72.7273C72.8125 306.375 74.5341 307.676 77.2443 307.676C80.0341 307.676 81.6534 306.284 81.6591 304.233C81.6534 302.216 79.9886 301.295 78.2386 300.881L77.1477 300.608C76.1932 300.381 75.1591 299.977 75.1705 299.006C75.1761 298.131 75.9602 297.489 77.2784 297.489C78.5341 297.489 79.3636 298.074 79.4716 299.062ZM87.8054 298.773H86.0838V296.682H84.027V298.773H82.7884V300.364H84.027V305.216C84.0156 306.858 85.2088 307.665 86.7543 307.619C87.3395 307.602 87.7429 307.489 87.9645 307.415L87.6179 305.807C87.5043 305.835 87.2713 305.886 87.0156 305.886C86.4986 305.886 86.0838 305.705 86.0838 304.875V300.364H87.8054V298.773ZM92.0369 307.676C93.4062 307.676 94.2244 307.034 94.5994 306.301H94.6676V307.5H96.6449V301.659C96.6449 299.352 94.7642 298.659 93.0994 298.659C91.2642 298.659 89.8551 299.477 89.4006 301.068L91.321 301.341C91.5256 300.744 92.1051 300.233 93.1108 300.233C94.0653 300.233 94.5881 300.722 94.5881 301.58V301.614C94.5881 302.205 93.9688 302.233 92.429 302.398C90.7358 302.58 89.1165 303.085 89.1165 305.051C89.1165 306.767 90.3722 307.676 92.0369 307.676ZM92.571 306.165C91.7131 306.165 91.0994 305.773 91.0994 305.017C91.0994 304.227 91.7869 303.898 92.7074 303.767C93.2472 303.693 94.3267 303.557 94.5938 303.341V304.369C94.5938 305.341 93.8097 306.165 92.571 306.165ZM103.071 298.773H101.349V296.682H99.2926V298.773H98.054V300.364H99.2926V305.216C99.2812 306.858 100.474 307.665 102.02 307.619C102.605 307.602 103.009 307.489 103.23 307.415L102.884 305.807C102.77 305.835 102.537 305.886 102.281 305.886C101.764 305.886 101.349 305.705 101.349 304.875V300.364H103.071V298.773ZM104.791 307.5H106.848V298.773H104.791V307.5ZM105.825 297.534C106.479 297.534 107.013 297.034 107.013 296.42C107.013 295.801 106.479 295.301 105.825 295.301C105.166 295.301 104.632 295.801 104.632 296.42C104.632 297.034 105.166 297.534 105.825 297.534ZM115.861 301.08C115.577 299.602 114.395 298.659 112.349 298.659C110.247 298.659 108.815 299.693 108.821 301.307C108.815 302.58 109.599 303.42 111.276 303.767L112.764 304.08C113.565 304.256 113.94 304.58 113.94 305.074C113.94 305.67 113.293 306.119 112.315 306.119C111.372 306.119 110.759 305.71 110.582 304.926L108.577 305.119C108.832 306.722 110.179 307.67 112.321 307.67C114.503 307.67 116.043 306.54 116.048 304.886C116.043 303.642 115.241 302.881 113.594 302.523L112.105 302.205C111.219 302.006 110.866 301.699 110.872 301.193C110.866 300.602 111.52 300.193 112.378 300.193C113.327 300.193 113.827 300.71 113.986 301.284L115.861 301.08ZM122.102 298.773H120.381V296.682H118.324V298.773H117.085V300.364H118.324V305.216C118.312 306.858 119.506 307.665 121.051 307.619C121.636 307.602 122.04 307.489 122.261 307.415L121.915 305.807C121.801 305.835 121.568 305.886 121.312 305.886C120.795 305.886 120.381 305.705 120.381 304.875V300.364H122.102V298.773ZM123.822 307.5H125.879V298.773H123.822V307.5ZM124.857 297.534C125.51 297.534 126.044 297.034 126.044 296.42C126.044 295.801 125.51 295.301 124.857 295.301C124.197 295.301 123.663 295.801 123.663 296.42C123.663 297.034 124.197 297.534 124.857 297.534ZM131.801 307.67C133.994 307.67 135.392 306.369 135.54 304.517H133.574C133.398 305.455 132.722 305.994 131.818 305.994C130.534 305.994 129.705 304.92 129.705 303.136C129.705 301.375 130.551 300.318 131.818 300.318C132.807 300.318 133.415 300.955 133.574 301.795H135.54C135.398 299.903 133.92 298.659 131.79 298.659C129.233 298.659 127.619 300.506 127.619 303.17C127.619 305.812 129.193 307.67 131.801 307.67ZM144.126 301.08C143.842 299.602 142.661 298.659 140.615 298.659C138.513 298.659 137.081 299.693 137.087 301.307C137.081 302.58 137.865 303.42 139.541 303.767L141.03 304.08C141.831 304.256 142.206 304.58 142.206 305.074C142.206 305.67 141.558 306.119 140.581 306.119C139.638 306.119 139.024 305.71 138.848 304.926L136.842 305.119C137.098 306.722 138.445 307.67 140.587 307.67C142.768 307.67 144.308 306.54 144.314 304.886C144.308 303.642 143.507 302.881 141.859 302.523L140.371 302.205C139.484 302.006 139.132 301.699 139.138 301.193C139.132 300.602 139.786 300.193 140.643 300.193C141.592 300.193 142.092 300.71 142.251 301.284L144.126 301.08Z" fill="#16192C"/>
<rect x="775.5" y="289.5" width="63" height="25" rx="3.5" stroke="#EDF2F7"/>
<path d="M791.717 306H796.476V304.896H793.035V302.911H796.202V301.806H793.035V299.832H796.447V298.727H791.717V306ZM798.736 300.545H797.372L798.992 303.273L797.33 306H798.693L799.837 304.036L800.991 306H802.344L800.671 303.273L802.315 300.545H800.955L799.837 302.559L798.736 300.545ZM803.26 308.045H804.545V305.141H804.599C804.801 305.538 805.224 306.096 806.161 306.096C807.447 306.096 808.409 305.077 808.409 303.28C808.409 301.462 807.418 300.474 806.157 300.474C805.195 300.474 804.794 301.053 804.599 301.447H804.524V300.545H803.26V308.045ZM804.52 303.273C804.52 302.214 804.975 301.529 805.802 301.529C806.658 301.529 807.099 302.257 807.099 303.273C807.099 304.295 806.651 305.041 805.802 305.041C804.982 305.041 804.52 304.331 804.52 303.273ZM811.839 306.107C813.437 306.107 814.453 304.981 814.453 303.294C814.453 301.604 813.437 300.474 811.839 300.474C810.241 300.474 809.225 301.604 809.225 303.294C809.225 304.981 810.241 306.107 811.839 306.107ZM811.846 305.077C810.962 305.077 810.529 304.288 810.529 303.29C810.529 302.293 810.962 301.494 811.846 301.494C812.716 301.494 813.149 302.293 813.149 303.29C813.149 304.288 812.716 305.077 811.846 305.077ZM815.494 306H816.779V302.793C816.779 302.101 817.301 301.611 818.008 301.611C818.225 301.611 818.494 301.65 818.605 301.685V300.503C818.487 300.482 818.285 300.467 818.143 300.467C817.518 300.467 816.996 300.822 816.797 301.455H816.74V300.545H815.494V306ZM822.425 300.545H821.349V299.239H820.064V300.545H819.29V301.54H820.064V304.572C820.057 305.599 820.802 306.103 821.768 306.075C822.134 306.064 822.386 305.993 822.525 305.947L822.308 304.942C822.237 304.96 822.091 304.991 821.932 304.991C821.608 304.991 821.349 304.878 821.349 304.359V301.54H822.425V300.545Z" fill="#16192C"/>
<circle cx="76" cy="340" r="4" fill="url(#paint0_linear_2102_25627)"/>
<path d="M95.7188 337.565H96.9886C96.9503 336.168 95.7145 335.153 93.9418 335.153C92.1903 335.153 90.848 336.155 90.848 337.659C90.848 338.874 91.7173 339.585 93.1193 339.964L94.1506 340.246C95.0838 340.493 95.804 340.8 95.804 341.575C95.804 342.428 94.9901 342.99 93.8693 342.99C92.8551 342.99 92.0114 342.538 91.9347 341.588H90.6136C90.6989 343.169 91.9219 344.145 93.8778 344.145C95.9276 344.145 97.108 343.067 97.108 341.588C97.108 340.016 95.706 339.406 94.598 339.134L93.7457 338.912C93.0639 338.737 92.1562 338.418 92.1605 337.582C92.1605 336.841 92.8381 336.291 93.9119 336.291C94.9134 336.291 95.625 336.76 95.7188 337.565ZM101.336 344.132C103.181 344.132 104.387 342.781 104.387 340.757C104.387 338.72 103.181 337.369 101.336 337.369C99.4911 337.369 98.2852 338.72 98.2852 340.757C98.2852 342.781 99.4911 344.132 101.336 344.132ZM101.341 343.062C100.135 343.062 99.5721 342.01 99.5721 340.753C99.5721 339.5 100.135 338.435 101.341 338.435C102.538 338.435 103.1 339.5 103.1 340.753C103.1 342.01 102.538 343.062 101.341 343.062ZM105.81 344H107.084V339.964C107.084 339.082 107.702 338.469 108.426 338.469C109.134 338.469 109.624 338.938 109.624 339.649V344H110.893V339.828C110.893 339.04 111.375 338.469 112.206 338.469C112.879 338.469 113.433 338.844 113.433 339.73V344H114.707V339.611C114.707 338.115 113.872 337.369 112.688 337.369C111.746 337.369 111.038 337.821 110.723 338.52H110.655C110.369 337.804 109.768 337.369 108.895 337.369C108.03 337.369 107.386 337.8 107.114 338.52H107.033V337.455H105.81V344ZM119.236 344.132C120.664 344.132 121.674 343.429 121.963 342.364L120.757 342.146C120.527 342.764 119.973 343.08 119.249 343.08C118.158 343.08 117.425 342.372 117.391 341.111H122.044V340.659C122.044 338.294 120.63 337.369 119.147 337.369C117.323 337.369 116.121 338.759 116.121 340.77C116.121 342.803 117.306 344.132 119.236 344.132ZM117.395 340.156C117.446 339.227 118.12 338.422 119.155 338.422C120.144 338.422 120.792 339.155 120.796 340.156H117.395ZM126.513 337.455H125.171V335.886H123.897V337.455H122.938V338.477H123.897V342.342C123.893 343.531 124.8 344.107 125.806 344.085C126.211 344.081 126.484 344.004 126.633 343.949L126.403 342.896C126.317 342.913 126.16 342.952 125.955 342.952C125.542 342.952 125.171 342.815 125.171 342.078V338.477H126.513V337.455ZM129.338 340.114C129.338 339.07 129.998 338.473 130.906 338.473C131.784 338.473 132.308 339.031 132.308 339.99V344H133.582V339.837C133.582 338.205 132.687 337.369 131.341 337.369C130.322 337.369 129.708 337.812 129.402 338.52H129.321V335.273H128.064V344H129.338V340.114ZM135.282 344H136.556V337.455H135.282V344ZM135.926 336.445C136.365 336.445 136.731 336.104 136.731 335.686C136.731 335.268 136.365 334.923 135.926 334.923C135.483 334.923 135.12 335.268 135.12 335.686C135.12 336.104 135.483 336.445 135.926 336.445ZM139.545 340.114C139.545 339.07 140.184 338.473 141.07 338.473C141.935 338.473 142.46 339.04 142.46 339.99V344H143.734V339.837C143.734 338.217 142.843 337.369 141.505 337.369C140.521 337.369 139.877 337.825 139.575 338.52H139.494V337.455H138.271V344H139.545V340.114ZM148.187 346.591C149.853 346.591 151.14 345.828 151.14 344.145V337.455H149.891V338.516H149.798C149.572 338.111 149.12 337.369 147.901 337.369C146.32 337.369 145.157 338.618 145.157 340.702C145.157 342.79 146.346 343.902 147.893 343.902C149.094 343.902 149.559 343.224 149.789 342.807H149.87V344.094C149.87 345.121 149.167 345.564 148.2 345.564C147.138 345.564 146.725 345.031 146.499 344.656L145.404 345.108C145.749 345.909 146.623 346.591 148.187 346.591ZM148.174 342.845C147.036 342.845 146.444 341.972 146.444 340.685C146.444 339.428 147.023 338.452 148.174 338.452C149.286 338.452 149.883 339.359 149.883 340.685C149.883 342.036 149.273 342.845 148.174 342.845Z" fill="#425466"/>
<circle cx="180" cy="340" r="4" fill="#FF92AE"/>
<path d="M194.959 344H196.276V340.697H198.065C198.095 340.697 198.121 340.697 198.151 340.697L199.923 344H201.423L199.489 340.467C200.558 340.071 201.091 339.18 201.091 338.009C201.091 336.402 200.094 335.273 198.07 335.273H194.959V344ZM196.276 339.564V336.402H197.929C199.229 336.402 199.766 337.02 199.766 338.009C199.766 338.993 199.229 339.564 197.946 339.564H196.276ZM205.266 344.132C207.111 344.132 208.317 342.781 208.317 340.757C208.317 338.72 207.111 337.369 205.266 337.369C203.421 337.369 202.215 338.72 202.215 340.757C202.215 342.781 203.421 344.132 205.266 344.132ZM205.27 343.062C204.064 343.062 203.502 342.01 203.502 340.753C203.502 339.5 204.064 338.435 205.27 338.435C206.468 338.435 207.03 339.5 207.03 340.753C207.03 342.01 206.468 343.062 205.27 343.062ZM209.739 344H211.013V339.964C211.013 339.082 211.631 338.469 212.356 338.469C213.063 338.469 213.553 338.938 213.553 339.649V344H214.823V339.828C214.823 339.04 215.305 338.469 216.136 338.469C216.809 338.469 217.363 338.844 217.363 339.73V344H218.637V339.611C218.637 338.115 217.802 337.369 216.617 337.369C215.675 337.369 214.968 337.821 214.653 338.52H214.585C214.299 337.804 213.698 337.369 212.825 337.369C211.96 337.369 211.316 337.8 211.043 338.52H210.962V337.455H209.739V344ZM222.25 344.145C223.332 344.145 223.941 343.595 224.184 343.105H224.235V344H225.48V339.653C225.48 337.749 223.98 337.369 222.94 337.369C221.755 337.369 220.664 337.847 220.238 339.04L221.436 339.312C221.623 338.848 222.1 338.401 222.957 338.401C223.779 338.401 224.201 338.831 224.201 339.572V339.602C224.201 340.067 223.724 340.058 222.548 340.195C221.308 340.339 220.038 340.663 220.038 342.151C220.038 343.438 221.005 344.145 222.25 344.145ZM222.527 343.122C221.806 343.122 221.287 342.798 221.287 342.168C221.287 341.486 221.892 341.243 222.629 341.145C223.042 341.089 224.022 340.979 224.206 340.795V341.639C224.206 342.415 223.588 343.122 222.527 343.122ZM228.451 340.114C228.451 339.07 229.09 338.473 229.977 338.473C230.842 338.473 231.366 339.04 231.366 339.99V344H232.64V339.837C232.64 338.217 231.749 337.369 230.411 337.369C229.427 337.369 228.783 337.825 228.481 338.52H228.4V337.455H227.177V344H228.451V340.114ZM234.349 344H235.623V337.455H234.349V344ZM234.992 336.445C235.431 336.445 235.798 336.104 235.798 335.686C235.798 335.268 235.431 334.923 234.992 334.923C234.549 334.923 234.187 335.268 234.187 335.686C234.187 336.104 234.549 336.445 234.992 336.445ZM239.242 344.145C240.324 344.145 240.934 343.595 241.176 343.105H241.228V344H242.472V339.653C242.472 337.749 240.972 337.369 239.932 337.369C238.748 337.369 237.657 337.847 237.23 339.04L238.428 339.312C238.615 338.848 239.093 338.401 239.949 338.401C240.772 338.401 241.194 338.831 241.194 339.572V339.602C241.194 340.067 240.716 340.058 239.54 340.195C238.3 340.339 237.03 340.663 237.03 342.151C237.03 343.438 237.998 344.145 239.242 344.145ZM239.519 343.122C238.799 343.122 238.279 342.798 238.279 342.168C238.279 341.486 238.884 341.243 239.621 341.145C240.034 341.089 241.015 340.979 241.198 340.795V341.639C241.198 342.415 240.58 343.122 239.519 343.122Z" fill="#425466"/>
<path d="M75.1747 394.099C76.7124 394.099 77.7848 393.055 77.7848 391.61C77.7848 390.211 76.8118 389.202 75.4908 389.202C74.9013 389.202 74.3793 389.437 74.1094 389.756H74.0668L74.2763 387.828H77.4048V386.727H73.1861L72.8061 390.477L73.9957 390.673C74.2408 390.403 74.7024 390.222 75.1392 390.225C75.9382 390.229 76.5135 390.818 76.5099 391.642C76.5135 392.455 75.9524 393.034 75.1747 393.034C74.5178 393.034 73.9886 392.619 73.9425 392.022H72.6641C72.6996 393.229 73.7543 394.099 75.1747 394.099ZM78.9386 394H80.2241V392.168L80.6929 391.667L82.3619 394H83.8996L81.6624 390.9L83.7753 388.545H82.2732L80.3129 390.737H80.2241V386.727H78.9386V394Z" fill="#425466"/>
<path d="M72.5149 445.901H75.9844V447.25H77.2415V445.901H78.1719V444.817H77.2415V439.977H75.6009L72.5149 444.853V445.901ZM75.9986 444.817H73.8643V444.761L75.9418 441.469H75.9986V444.817ZM79.2707 447.25H80.5562V445.418L81.0249 444.917L82.694 447.25H84.2316L81.9944 444.15L84.1073 441.795H82.6052L80.645 443.987H80.5562V439.977H79.2707V447.25Z" fill="#425466"/>
<path d="M75.2564 499.599C76.8118 499.599 77.9446 498.708 77.9411 497.479C77.9446 496.57 77.3764 495.917 76.3572 495.771V495.714C77.1456 495.544 77.6747 494.958 77.6712 494.141C77.6747 493.033 76.7301 492.128 75.2777 492.128C73.8643 492.128 72.7706 492.969 72.7422 494.188H74.0099C74.0312 493.577 74.5994 493.197 75.2706 493.197C75.9489 493.197 76.3999 493.609 76.3963 494.219C76.3999 494.855 75.8743 495.278 75.1214 495.278H74.4787V496.293H75.1214C76.0412 496.293 76.5881 496.755 76.5845 497.412C76.5881 498.055 76.0305 498.495 75.2528 498.495C74.5213 498.495 73.9567 498.115 73.9247 497.522H72.5895C72.625 498.751 73.7223 499.599 75.2564 499.599ZM79.1242 499.5H80.4097V497.668L80.8784 497.167L82.5475 499.5H84.0851L81.8479 496.4L83.9608 494.045H82.4587L80.4985 496.237H80.4097V492.227H79.1242V499.5Z" fill="#425466"/>
<path d="M72.6463 552.75H77.6321V551.649H74.4645V551.599L75.718 550.325C77.1314 548.968 77.522 548.308 77.522 547.487C77.522 546.269 76.5312 545.378 75.0682 545.378C73.6264 545.378 72.6037 546.273 72.6037 547.654H73.8572C73.8572 546.912 74.326 546.447 75.0504 546.447C75.7429 546.447 76.2578 546.869 76.2578 547.555C76.2578 548.162 75.8885 548.595 75.1712 549.323L72.6463 551.798V552.75ZM78.8214 552.75H80.107V550.918L80.5757 550.417L82.2447 552.75H83.7824L81.5452 549.65L83.6581 547.295H82.156L80.1957 549.487H80.107V545.477H78.8214V552.75Z" fill="#425466"/>
<path d="M75.6044 598.727H74.3509L72.5433 599.888V601.096L74.2443 600.009H74.2869V606H75.6044V598.727ZM77.4152 606H78.7007V604.168L79.1695 603.667L80.8385 606H82.3761L80.1389 602.9L82.2518 600.545H80.7497L78.7895 602.737H78.7007V598.727H77.4152V606Z" fill="#425466"/>
<path d="M116 587C180.447 578.558 225.528 510.146 302.141 510.146C378.754 510.146 428.14 573.871 484.935 564.666C541.73 555.461 555.248 508.067 575.678 474.892C596.108 441.716 618.065 414.144 657.595 411.379C697.124 408.614 714.375 435.249 744.227 425.536C774.652 416.47 795.302 379 839 379" stroke="#FF92AE" stroke-width="3"/>
<path d="M116 602.494C194.974 604.531 237.711 517.475 237.711 517.475C237.711 517.475 260.18 468.28 299.569 456.514C338.957 444.749 408.47 484.15 474.775 459.665C541.08 435.181 539.264 395.054 607.386 387.573C675.508 380.091 694.15 425.562 748.863 399.766C803.577 373.97 839 376.011 839 376.011" stroke="url(#paint1_linear_2102_25627)" stroke-width="3"/>
<path d="M119.604 622.727H118.351L116.543 623.888V625.096L118.244 624.009H118.287V630H119.604V622.727ZM121.415 630H122.701V628.168L123.169 627.667L124.838 630H126.376L124.139 626.9L126.252 624.545H124.75L122.789 626.737H122.701V622.727H121.415V630Z" fill="#8492A6"/>
<path d="M178.555 630H183.54V628.899H180.373V628.849L181.626 627.575C183.04 626.218 183.43 625.558 183.43 624.737C183.43 623.519 182.439 622.628 180.976 622.628C179.535 622.628 178.512 623.523 178.512 624.904H179.765C179.765 624.162 180.234 623.697 180.959 623.697C181.651 623.697 182.166 624.119 182.166 624.805C182.166 625.412 181.797 625.845 181.079 626.573L178.555 629.048V630ZM184.73 630H186.015V628.168L186.484 627.667L188.153 630H189.691L187.453 626.9L189.566 624.545H188.064L186.104 626.737H186.015V622.727H184.73V630Z" fill="#8492A6"/>
<path d="M244.075 630.099C245.63 630.099 246.763 629.208 246.759 627.979C246.763 627.07 246.195 626.417 245.176 626.271V626.214C245.964 626.044 246.493 625.458 246.49 624.641C246.493 623.533 245.548 622.628 244.096 622.628C242.683 622.628 241.589 623.469 241.561 624.688H242.828C242.85 624.077 243.418 623.697 244.089 623.697C244.767 623.697 245.218 624.109 245.215 624.719C245.218 625.355 244.693 625.778 243.94 625.778H243.297V626.793H243.94C244.86 626.793 245.406 627.255 245.403 627.912C245.406 628.555 244.849 628.995 244.071 628.995C243.34 628.995 242.775 628.615 242.743 628.022H241.408C241.443 629.251 242.541 630.099 244.075 630.099ZM247.943 630H249.228V628.168L249.697 627.667L251.366 630H252.903L250.666 626.9L252.779 624.545H251.277L249.317 626.737H249.228V622.727H247.943V630Z" fill="#8492A6"/>
<path d="M305.241 628.651H308.711V630H309.968V628.651H310.898V627.567H309.968V622.727H308.327L305.241 627.603V628.651ZM308.725 627.567H306.591V627.511L308.668 624.219H308.725V627.567ZM311.997 630H313.283V628.168L313.751 627.667L315.421 630H316.958L314.721 626.9L316.834 624.545H315.332L313.372 626.737H313.283V622.727H311.997V630Z" fill="#8492A6"/>
<path d="M371.811 630.099C373.349 630.099 374.422 629.055 374.422 627.61C374.422 626.211 373.449 625.202 372.127 625.202C371.538 625.202 371.016 625.437 370.746 625.756H370.703L370.913 623.828H374.042V622.727H369.823L369.443 626.477L370.632 626.673C370.877 626.403 371.339 626.222 371.776 626.225C372.575 626.229 373.15 626.818 373.147 627.642C373.15 628.455 372.589 629.034 371.811 629.034C371.154 629.034 370.625 628.619 370.579 628.022H369.301C369.336 629.229 370.391 630.099 371.811 630.099ZM375.575 630H376.861V628.168L377.33 627.667L378.999 630H380.536L378.299 626.9L380.412 624.545H378.91L376.95 626.737H376.861V622.727H375.575V630Z" fill="#8492A6"/>
<path d="M434.855 630.099C436.424 630.11 437.479 629.031 437.475 627.592C437.479 626.218 436.499 625.224 435.224 625.224C434.443 625.224 433.754 625.604 433.406 626.229H433.356C433.36 624.698 433.921 623.768 434.929 623.768C435.554 623.768 435.977 624.13 436.112 624.688H437.408C437.252 623.512 436.303 622.628 434.929 622.628C433.182 622.628 432.078 624.084 432.078 626.57C432.074 629.237 433.459 630.092 434.855 630.099ZM434.847 629.034C434.07 629.034 433.502 628.391 433.498 627.631C433.505 626.868 434.095 626.229 434.865 626.229C435.636 626.229 436.2 626.839 436.197 627.621C436.2 628.416 435.618 629.034 434.847 629.034ZM438.64 630H439.925V628.168L440.394 627.667L442.063 630H443.601L441.364 626.9L443.476 624.545H441.974L440.014 626.737H439.925V622.727H438.64V630Z" fill="#8492A6"/>
<path d="M496.368 630H497.735L500.824 623.853V622.727H495.871V623.828H499.461V623.878L496.368 630ZM501.935 630H503.22V628.168L503.689 627.667L505.358 630H506.896L504.658 626.9L506.771 624.545H505.269L503.309 626.737H503.22V622.727H501.935V630Z" fill="#8492A6"/>
<path d="M561.595 630.099C563.168 630.099 564.294 629.233 564.297 628.05C564.294 627.141 563.623 626.381 562.777 626.239V626.19C563.512 626.026 564.024 625.366 564.027 624.577C564.024 623.459 562.994 622.628 561.595 622.628C560.185 622.628 559.155 623.455 559.159 624.577C559.155 625.366 559.659 626.026 560.409 626.19V626.239C559.549 626.381 558.885 627.141 558.889 628.05C558.885 629.233 560.007 630.099 561.595 630.099ZM561.595 629.084C560.771 629.084 560.238 628.629 560.245 627.958C560.238 627.262 560.81 626.768 561.595 626.768C562.369 626.768 562.937 627.266 562.944 627.958C562.937 628.629 562.408 629.084 561.595 629.084ZM561.595 625.771C560.92 625.771 560.437 625.334 560.444 624.702C560.437 624.077 560.906 623.658 561.595 623.658C562.273 623.658 562.738 624.077 562.745 624.702C562.738 625.337 562.259 625.771 561.595 625.771ZM565.429 630H566.714V628.168L567.183 627.667L568.852 630H570.39L568.153 626.9L570.266 624.545H568.763L566.803 626.737H566.714V622.727H565.429V630Z" fill="#8492A6"/>
<path d="M625.445 622.628C623.868 622.617 622.82 623.7 622.82 625.121C622.824 626.491 623.8 627.482 625.075 627.482C625.86 627.482 626.542 627.102 626.893 626.477H626.943C626.94 628.033 626.375 628.96 625.37 628.96C624.741 628.96 624.319 628.597 624.188 628.018H622.891C623.04 629.222 623.992 630.099 625.37 630.099C627.114 630.099 628.225 628.643 628.222 626.14C628.218 623.491 626.84 622.635 625.445 622.628ZM625.448 623.693C626.226 623.693 626.798 624.339 626.798 625.082C626.801 625.835 626.201 626.481 625.434 626.481C624.66 626.481 624.102 625.87 624.099 625.092C624.099 624.311 624.678 623.693 625.448 623.693ZM629.368 630H630.654V628.168L631.123 627.667L632.792 630H634.329L632.092 626.9L634.205 624.545H632.703L630.743 626.737H630.654V622.727H629.368V630Z" fill="#8492A6"/>
<path d="M689.786 622.727H688.532L686.725 623.888V625.096L688.426 624.009H688.469V630H689.786V622.727ZM694.271 630.138C696.025 630.142 697.073 628.757 697.073 626.371C697.073 623.999 696.018 622.628 694.271 622.628C692.524 622.628 691.473 623.995 691.469 626.371C691.469 628.754 692.517 630.138 694.271 630.138ZM694.271 629.027C693.365 629.027 692.797 628.118 692.801 626.371C692.804 624.638 693.369 623.725 694.271 623.725C695.176 623.725 695.741 624.638 695.745 626.371C695.745 628.118 695.18 629.027 694.271 629.027ZM698.217 630H699.502V628.168L699.971 627.667L701.64 630H703.178L700.94 626.9L703.053 624.545H701.551L699.591 626.737H699.502V622.727H698.217V630Z" fill="#8492A6"/>
<path d="M758.696 622.727H757.443L755.635 623.888V625.096L757.336 624.009H757.379V630H758.696V622.727ZM763.451 622.727H762.197L760.39 623.888V625.096L762.091 624.009H762.133V630H763.451V622.727ZM765.262 630H766.547V628.168L767.016 627.667L768.685 630H770.223L767.985 626.9L770.098 624.545H768.596L766.636 626.737H766.547V622.727H765.262V630Z" fill="#8492A6"/>
<path d="M825.604 622.727H824.351L822.543 623.888V625.096L824.244 624.009H824.287V630H825.604V622.727ZM827.401 630H832.387V628.899H829.219V628.849L830.473 627.575C831.886 626.218 832.277 625.558 832.277 624.737C832.277 623.519 831.286 622.628 829.823 622.628C828.381 622.628 827.358 623.523 827.358 624.904H828.612C828.612 624.162 829.081 623.697 829.805 623.697C830.498 623.697 831.012 624.119 831.012 624.805C831.012 625.412 830.643 625.845 829.926 626.573L827.401 629.048V630ZM833.576 630H834.862V628.168L835.33 627.667L836.999 630H838.537L836.3 626.9L838.413 624.545H836.911L834.95 626.737H834.862V622.727H833.576V630Z" fill="#8492A6"/>
</g>
</g>
<defs>
<filter id="filter0_dd_2102_25627" x="0" y="0" width="923" height="707" filterUnits="userSpaceOnUse" color-interpolation-filters="sRGB">
<feFlood flood-opacity="0" result="BackgroundImageFix"/>
<feColorMatrix in="SourceAlpha" type="matrix" values="0 0 0 0 0 0 0 0 0 0 0 0 0 0 0 0 0 0 127 0" result="hardAlpha"/>
<feMorphology radius="2" operator="erode" in="SourceAlpha" result="effect1_dropShadow_2102_25627"/>
<feOffset dy="4"/>
<feGaussianBlur stdDeviation="10"/>
<feColorMatrix type="matrix" values="0 0 0 0 0.196078 0 0 0 0 0.196078 0 0 0 0 0.278431 0 0 0 0.08 0"/>
<feBlend mode="normal" in2="BackgroundImageFix" result="effect1_dropShadow_2102_25627"/>
<feColorMatrix in="SourceAlpha" type="matrix" values="0 0 0 0 0 0 0 0 0 0 0 0 0 0 0 0 0 0 127 0" result="hardAlpha"/>
<feOffset/>
<feGaussianBlur stdDeviation="0.5"/>
<feColorMatrix type="matrix" values="0 0 0 0 0.0470588 0 0 0 0 0.101961 0 0 0 0 0.294118 0 0 0 0.1 0"/>
<feBlend mode="normal" in2="effect1_dropShadow_2102_25627" result="effect2_dropShadow_2102_25627"/>
<feBlend mode="normal" in="SourceGraphic" in2="effect2_dropShadow_2102_25627" result="shape"/>
</filter>
<filter id="filter1_dd_2102_25627" x="41" y="261" width="829" height="404" filterUnits="userSpaceOnUse" color-interpolation-filters="sRGB">
<feFlood flood-opacity="0" result="BackgroundImageFix"/>
<feColorMatrix in="SourceAlpha" type="matrix" values="0 0 0 0 0 0 0 0 0 0 0 0 0 0 0 0 0 0 127 0" result="hardAlpha"/>
<feMorphology radius="1" operator="erode" in="SourceAlpha" result="effect1_dropShadow_2102_25627"/>
<feOffset dy="3"/>
<feGaussianBlur stdDeviation="4"/>
<feColorMatrix type="matrix" values="0 0 0 0 0.196078 0 0 0 0 0.196078 0 0 0 0 0.278431 0 0 0 0.05 0"/>
<feBlend mode="normal" in2="BackgroundImageFix" result="effect1_dropShadow_2102_25627"/>
<feColorMatrix in="SourceAlpha" type="matrix" values="0 0 0 0 0 0 0 0 0 0 0 0 0 0 0 0 0 0 127 0" result="hardAlpha"/>
<feOffset/>
<feGaussianBlur stdDeviation="0.5"/>
<feColorMatrix type="matrix" values="0 0 0 0 0.0470588 0 0 0 0 0.101961 0 0 0 0 0.294118 0 0 0 0.24 0"/>
<feBlend mode="normal" in2="effect1_dropShadow_2102_25627" result="effect2_dropShadow_2102_25627"/>
<feBlend mode="normal" in="SourceGraphic" in2="effect2_dropShadow_2102_25627" result="shape"/>
</filter>
<linearGradient id="paint0_linear_2102_25627" x1="80" y1="336" x2="72" y2="344" gradientUnits="userSpaceOnUse">
<stop stop-color="#67E9F1"/>
<stop offset="1" stop-color="#24E795"/>
</linearGradient>
<linearGradient id="paint1_linear_2102_25627" x1="839" y1="375.973" x2="709.709" y2="788.572" gradientUnits="userSpaceOnUse">
<stop stop-color="#67E9F1"/>
<stop offset="1" stop-color="#24E795"/>
</linearGradient>
</defs>
</svg>
