<svg width="1897" height="1857" viewBox="0 0 1897 1857" fill="none" xmlns="http://www.w3.org/2000/svg">
<rect x="0.5" y="0.5" width="1896" height="1856" rx="4.5" stroke="#7B61FF" stroke-dasharray="10 5"/>
<g clip-path="url(#clip0_1061_47609)">
<path d="M36 438C36 434.686 38.6863 432 42 432H62C65.3137 432 68 434.686 68 438V576H36V438Z" fill="#5BDCC6"/>
<path d="M36 504C36 500.686 38.6863 498 42 498H62C65.3137 498 68 500.686 68 504V576H36V504Z" fill="#038C8C"/>
<path d="M129.455 406C129.455 402.686 132.141 400 135.455 400H155.455C158.768 400 161.455 402.686 161.455 406V576H129.455V406Z" fill="#5BDCC6"/>
<path d="M129.455 486.667C129.455 483.353 132.141 480.667 135.455 480.667H155.455C158.768 480.667 161.455 483.353 161.455 486.667V576H129.455V486.667Z" fill="#038C8C"/>
<path d="M222.909 470C222.909 466.686 225.595 464 228.909 464H248.909C252.223 464 254.909 466.686 254.909 470V576H222.909V470Z" fill="#5BDCC6"/>
<path d="M222.909 521.333C222.909 518.02 225.595 515.333 228.909 515.333H248.909C252.223 515.333 254.909 518.02 254.909 521.333V576H222.909V521.333Z" fill="#038C8C"/>
<path d="M316.364 430C316.364 426.686 319.05 424 322.364 424H342.364C345.677 424 348.364 426.686 348.364 430V576H316.364V430Z" fill="#5BDCC6"/>
<path d="M316.364 499.667C316.364 496.353 319.05 493.667 322.364 493.667H342.364C345.677 493.667 348.364 496.353 348.364 499.667V576H316.364V499.667Z" fill="#038C8C"/>
<path d="M409.818 470C409.818 466.686 412.504 464 415.818 464H435.818C439.132 464 441.818 466.686 441.818 470V576H409.818V470Z" fill="#5BDCC6"/>
<path d="M409.818 521.333C409.818 518.02 412.504 515.333 415.818 515.333H435.818C439.132 515.333 441.818 518.02 441.818 521.333V576H409.818V521.333Z" fill="#038C8C"/>
<path d="M503.273 414C503.273 410.686 505.959 408 509.273 408H529.273C532.586 408 535.273 410.686 535.273 414V576H503.273V414Z" fill="#5BDCC6"/>
<path d="M503.273 491C503.273 487.686 505.959 485 509.273 485H529.273C532.586 485 535.273 487.686 535.273 491V576H503.273V491Z" fill="#038C8C"/>
<path d="M596.727 438C596.727 434.686 599.414 432 602.727 432H622.727C626.041 432 628.727 434.686 628.727 438V576H596.727V438Z" fill="#5BDCC6"/>
<path d="M596.727 504C596.727 500.686 599.414 498 602.727 498H622.727C626.041 498 628.727 500.686 628.727 504V576H596.727V504Z" fill="#038C8C"/>
<path d="M690.182 430C690.182 426.686 692.868 424 696.182 424H716.182C719.495 424 722.182 426.686 722.182 430V576H690.182V430Z" fill="#5BDCC6"/>
<path d="M690.182 499.667C690.182 496.353 692.868 493.667 696.182 493.667H716.182C719.495 493.667 722.182 496.353 722.182 499.667V576H690.182V499.667Z" fill="#038C8C"/>
<path d="M783.636 438C783.636 434.686 786.323 432 789.636 432H809.636C812.95 432 815.636 434.686 815.636 438V576H783.636V438Z" fill="#5BDCC6"/>
<path d="M783.636 504C783.636 500.686 786.323 498 789.636 498H809.636C812.95 498 815.636 500.686 815.636 504V576H783.636V504Z" fill="#038C8C"/>
<path d="M877.091 422C877.091 418.686 879.777 416 883.091 416H903.091C906.405 416 909.091 418.686 909.091 422V576H877.091V422Z" fill="#5BDCC6"/>
<path d="M877.091 495.333C877.091 492.02 879.777 489.333 883.091 489.333H903.091C906.405 489.333 909.091 492.02 909.091 495.333V576H877.091V495.333Z" fill="#038C8C"/>
<path d="M970.545 406C970.545 402.686 973.232 400 976.545 400H996.545C999.859 400 1002.55 402.686 1002.55 406V576H970.545V406Z" fill="#5BDCC6"/>
<path d="M970.545 486.667C970.545 483.353 973.232 480.667 976.545 480.667H996.545C999.859 480.667 1002.55 483.353 1002.55 486.667V576H970.545V486.667Z" fill="#038C8C"/>
<path d="M1064 446C1064 442.686 1066.69 440 1070 440H1090C1093.31 440 1096 442.686 1096 446V576H1064V446Z" fill="#5BDCC6"/>
<path d="M1064 508.333C1064 505.02 1066.69 502.333 1070 502.333H1090C1093.31 502.333 1096 505.02 1096 508.333V576H1064V508.333Z" fill="#038C8C"/>
</g>
<g clip-path="url(#clip1_1061_47609)">
<path d="M28 1110C28 1106.69 30.6863 1104 34 1104H38C41.3137 1104 44 1106.69 44 1110V1248H28V1110Z" fill="#5BDCC6"/>
<path d="M28 1176C28 1172.69 30.6863 1170 34 1170H38C41.3137 1170 44 1172.69 44 1176V1248H28V1176Z" fill="#038C8C"/>
<path d="M55.5455 1078C55.5455 1074.69 58.2317 1072 61.5455 1072H65.5455C68.8592 1072 71.5455 1074.69 71.5455 1078V1248H55.5455V1078Z" fill="#5BDCC6"/>
<path d="M55.5455 1158.67C55.5455 1155.35 58.2317 1152.67 61.5455 1152.67H65.5455C68.8592 1152.67 71.5455 1155.35 71.5455 1158.67V1248H55.5455V1158.67Z" fill="#038C8C"/>
<path d="M83.0909 1142C83.0909 1138.69 85.7772 1136 89.0909 1136H93.0909C96.4046 1136 99.0909 1138.69 99.0909 1142V1248H83.0909V1142Z" fill="#5BDCC6"/>
<path d="M83.0909 1193.33C83.0909 1190.02 85.7772 1187.33 89.0909 1187.33H93.0909C96.4046 1187.33 99.0909 1190.02 99.0909 1193.33V1248H83.0909V1193.33Z" fill="#038C8C"/>
<path d="M110.636 1102C110.636 1098.69 113.323 1096 116.636 1096H120.636C123.95 1096 126.636 1098.69 126.636 1102V1248H110.636V1102Z" fill="#5BDCC6"/>
<path d="M110.636 1171.67C110.636 1168.35 113.323 1165.67 116.636 1165.67H120.636C123.95 1165.67 126.636 1168.35 126.636 1171.67V1248H110.636V1171.67Z" fill="#038C8C"/>
<path d="M138.182 1142C138.182 1138.69 140.868 1136 144.182 1136H148.182C151.496 1136 154.182 1138.69 154.182 1142V1248H138.182V1142Z" fill="#5BDCC6"/>
<path d="M138.182 1193.33C138.182 1190.02 140.868 1187.33 144.182 1187.33H148.182C151.496 1187.33 154.182 1190.02 154.182 1193.33V1248H138.182V1193.33Z" fill="#038C8C"/>
<path d="M165.727 1086C165.727 1082.69 168.414 1080 171.727 1080H175.727C179.041 1080 181.727 1082.69 181.727 1086V1248H165.727V1086Z" fill="#5BDCC6"/>
<path d="M165.727 1163C165.727 1159.69 168.414 1157 171.727 1157H175.727C179.041 1157 181.727 1159.69 181.727 1163V1248H165.727V1163Z" fill="#038C8C"/>
<path d="M193.273 1110C193.273 1106.69 195.959 1104 199.273 1104H203.273C206.586 1104 209.273 1106.69 209.273 1110V1248H193.273V1110Z" fill="#5BDCC6"/>
<path d="M193.273 1176C193.273 1172.69 195.959 1170 199.273 1170H203.273C206.586 1170 209.273 1172.69 209.273 1176V1248H193.273V1176Z" fill="#038C8C"/>
<path d="M220.818 1102C220.818 1098.69 223.504 1096 226.818 1096H230.818C234.132 1096 236.818 1098.69 236.818 1102V1248H220.818V1102Z" fill="#5BDCC6"/>
<path d="M220.818 1171.67C220.818 1168.35 223.504 1165.67 226.818 1165.67H230.818C234.132 1165.67 236.818 1168.35 236.818 1171.67V1248H220.818V1171.67Z" fill="#038C8C"/>
<path d="M248.364 1110C248.364 1106.69 251.05 1104 254.364 1104H258.364C261.677 1104 264.364 1106.69 264.364 1110V1248H248.364V1110Z" fill="#5BDCC6"/>
<path d="M248.364 1176C248.364 1172.69 251.05 1170 254.364 1170H258.364C261.677 1170 264.364 1172.69 264.364 1176V1248H248.364V1176Z" fill="#038C8C"/>
<path d="M275.909 1094C275.909 1090.69 278.595 1088 281.909 1088H285.909C289.223 1088 291.909 1090.69 291.909 1094V1248H275.909V1094Z" fill="#5BDCC6"/>
<path d="M275.909 1167.33C275.909 1164.02 278.595 1161.33 281.909 1161.33H285.909C289.223 1161.33 291.909 1164.02 291.909 1167.33V1248H275.909V1167.33Z" fill="#038C8C"/>
<path d="M303.455 1078C303.455 1074.69 306.141 1072 309.455 1072H313.455C316.768 1072 319.455 1074.69 319.455 1078V1248H303.455V1078Z" fill="#5BDCC6"/>
<path d="M303.455 1158.67C303.455 1155.35 306.141 1152.67 309.455 1152.67H313.455C316.768 1152.67 319.455 1155.35 319.455 1158.67V1248H303.455V1158.67Z" fill="#038C8C"/>
<path d="M331 1118C331 1114.69 333.686 1112 337 1112H341C344.314 1112 347 1114.69 347 1118V1248H331V1118Z" fill="#5BDCC6"/>
<path d="M331 1180.33C331 1177.02 333.686 1174.33 337 1174.33H341C344.314 1174.33 347 1177.02 347 1180.33V1248H331V1180.33Z" fill="#038C8C"/>
</g>
<g clip-path="url(#clip2_1061_47609)">
<path d="M36 646C36 642.686 38.6863 640 42 640H62C65.3137 640 68 642.686 68 646V784H36V646Z" fill="#5BDCC6"/>
<path d="M36 688C36 684.686 38.6863 682 42 682H62C65.3137 682 68 684.686 68 688V784H36V688Z" fill="#038C8C"/>
<path d="M36 736C36 732.686 38.6863 730 42 730H62C65.3137 730 68 732.686 68 736V784H36V736Z" fill="#015364"/>
<path d="M129.455 614C129.455 610.686 132.141 608 135.455 608H155.455C158.768 608 161.455 610.686 161.455 614V784H129.455V614Z" fill="#5BDCC6"/>
<path d="M129.455 665.333C129.455 662.02 132.141 659.333 135.455 659.333H155.455C158.768 659.333 161.455 662.02 161.455 665.333V784H129.455V665.333Z" fill="#038C8C"/>
<path d="M129.455 724C129.455 720.686 132.141 718 135.455 718H155.455C158.768 718 161.455 720.686 161.455 724V784H129.455V724Z" fill="#015364"/>
<path d="M222.909 678C222.909 674.686 225.595 672 228.909 672H248.909C252.223 672 254.909 674.686 254.909 678V784H222.909V678Z" fill="#5BDCC6"/>
<path d="M222.909 710.667C222.909 707.353 225.595 704.667 228.909 704.667H248.909C252.223 704.667 254.909 707.353 254.909 710.667V784H222.909V710.667Z" fill="#038C8C"/>
<path d="M222.909 748C222.909 744.686 225.595 742 228.909 742H248.909C252.223 742 254.909 744.686 254.909 748V784H222.909V748Z" fill="#015364"/>
<path d="M316.364 638C316.364 634.686 319.05 632 322.364 632H342.364C345.677 632 348.364 634.686 348.364 638V784H316.364V638Z" fill="#5BDCC6"/>
<path d="M316.364 682.333C316.364 679.02 319.05 676.333 322.364 676.333H342.364C345.677 676.333 348.364 679.02 348.364 682.333V784H316.364V682.333Z" fill="#038C8C"/>
<path d="M316.364 733C316.364 729.686 319.05 727 322.364 727H342.364C345.677 727 348.364 729.686 348.364 733V784H316.364V733Z" fill="#015364"/>
<path d="M409.818 678C409.818 674.686 412.504 672 415.818 672H435.818C439.132 672 441.818 674.686 441.818 678V784H409.818V678Z" fill="#5BDCC6"/>
<path d="M409.818 710.667C409.818 707.353 412.504 704.667 415.818 704.667H435.818C439.132 704.667 441.818 707.353 441.818 710.667V784H409.818V710.667Z" fill="#038C8C"/>
<path d="M409.818 748C409.818 744.686 412.504 742 415.818 742H435.818C439.132 742 441.818 744.686 441.818 748V784H409.818V748Z" fill="#015364"/>
<path d="M503.273 622C503.273 618.686 505.959 616 509.273 616H529.273C532.586 616 535.273 618.686 535.273 622V784H503.273V622Z" fill="#5BDCC6"/>
<path d="M503.273 671C503.273 667.686 505.959 665 509.273 665H529.273C532.586 665 535.273 667.686 535.273 671V784H503.273V671Z" fill="#038C8C"/>
<path d="M503.273 727C503.273 723.686 505.959 721 509.273 721H529.273C532.586 721 535.273 723.686 535.273 727V784H503.273V727Z" fill="#015364"/>
<path d="M596.727 646C596.727 642.686 599.414 640 602.727 640H622.727C626.041 640 628.727 642.686 628.727 646V784H596.727V646Z" fill="#5BDCC6"/>
<path d="M596.727 688C596.727 684.686 599.414 682 602.727 682H622.727C626.041 682 628.727 684.686 628.727 688V784H596.727V688Z" fill="#038C8C"/>
<path d="M596.727 736C596.727 732.686 599.414 730 602.727 730H622.727C626.041 730 628.727 732.686 628.727 736V784H596.727V736Z" fill="#015364"/>
<path d="M690.182 638C690.182 634.686 692.868 632 696.182 632H716.182C719.495 632 722.182 634.686 722.182 638V784H690.182V638Z" fill="#5BDCC6"/>
<path d="M690.182 682.333C690.182 679.02 692.868 676.333 696.182 676.333H716.182C719.495 676.333 722.182 679.02 722.182 682.333V784H690.182V682.333Z" fill="#038C8C"/>
<path d="M690.182 733C690.182 729.686 692.868 727 696.182 727H716.182C719.495 727 722.182 729.686 722.182 733V784H690.182V733Z" fill="#015364"/>
<path d="M783.636 646C783.636 642.686 786.323 640 789.636 640H809.636C812.95 640 815.636 642.686 815.636 646V784H783.636V646Z" fill="#5BDCC6"/>
<path d="M783.636 688C783.636 684.686 786.323 682 789.636 682H809.636C812.95 682 815.636 684.686 815.636 688V784H783.636V688Z" fill="#038C8C"/>
<path d="M783.636 736C783.636 732.686 786.323 730 789.636 730H809.636C812.95 730 815.636 732.686 815.636 736V784H783.636V736Z" fill="#015364"/>
<path d="M877.091 630C877.091 626.686 879.777 624 883.091 624H903.091C906.405 624 909.091 626.686 909.091 630V784H877.091V630Z" fill="#5BDCC6"/>
<path d="M877.091 676.667C877.091 673.353 879.777 670.667 883.091 670.667H903.091C906.405 670.667 909.091 673.353 909.091 676.667V784H877.091V676.667Z" fill="#038C8C"/>
<path d="M877.091 730C877.091 726.686 879.777 724 883.091 724H903.091C906.405 724 909.091 726.686 909.091 730V784H877.091V730Z" fill="#015364"/>
<path d="M970.545 614C970.545 610.686 973.232 608 976.545 608H996.545C999.859 608 1002.55 610.686 1002.55 614V784H970.545V614Z" fill="#5BDCC6"/>
<path d="M970.545 665.333C970.545 662.02 973.232 659.333 976.545 659.333H996.545C999.859 659.333 1002.55 662.02 1002.55 665.333V784H970.545V665.333Z" fill="#038C8C"/>
<path d="M970.545 724C970.545 720.686 973.232 718 976.545 718H996.545C999.859 718 1002.55 720.686 1002.55 724V784H970.545V724Z" fill="#015364"/>
<path d="M1064 654C1064 650.686 1066.69 648 1070 648H1090C1093.31 648 1096 650.686 1096 654V784H1064V654Z" fill="#5BDCC6"/>
<path d="M1064 693.667C1064 690.353 1066.69 687.667 1070 687.667H1090C1093.31 687.667 1096 690.353 1096 693.667V784H1064V693.667Z" fill="#038C8C"/>
<path d="M1064 739C1064 735.686 1066.69 733 1070 733H1090C1093.31 733 1096 735.686 1096 739V784H1064V739Z" fill="#015364"/>
</g>
<g clip-path="url(#clip3_1061_47609)">
<path d="M28 1318C28 1314.69 30.6863 1312 34 1312H38C41.3137 1312 44 1314.69 44 1318V1456H28V1318Z" fill="#5BDCC6"/>
<path d="M28 1360C28 1356.69 30.6863 1354 34 1354H38C41.3137 1354 44 1356.69 44 1360V1456H28V1360Z" fill="#038C8C"/>
<path d="M28 1408C28 1404.69 30.6863 1402 34 1402H38C41.3137 1402 44 1404.69 44 1408V1456H28V1408Z" fill="#015364"/>
<path d="M55.5455 1286C55.5455 1282.69 58.2317 1280 61.5455 1280H65.5455C68.8592 1280 71.5455 1282.69 71.5455 1286V1456H55.5455V1286Z" fill="#5BDCC6"/>
<path d="M55.5455 1337.33C55.5455 1334.02 58.2317 1331.33 61.5455 1331.33H65.5455C68.8592 1331.33 71.5455 1334.02 71.5455 1337.33V1456H55.5455V1337.33Z" fill="#038C8C"/>
<path d="M55.5455 1396C55.5455 1392.69 58.2317 1390 61.5455 1390H65.5455C68.8592 1390 71.5455 1392.69 71.5455 1396V1456H55.5455V1396Z" fill="#015364"/>
<path d="M83.0909 1350C83.0909 1346.69 85.7772 1344 89.0909 1344H93.0909C96.4046 1344 99.0909 1346.69 99.0909 1350V1456H83.0909V1350Z" fill="#5BDCC6"/>
<path d="M83.0909 1382.67C83.0909 1379.35 85.7772 1376.67 89.0909 1376.67H93.0909C96.4046 1376.67 99.0909 1379.35 99.0909 1382.67V1456H83.0909V1382.67Z" fill="#038C8C"/>
<path d="M83.0909 1420C83.0909 1416.69 85.7772 1414 89.0909 1414H93.0909C96.4046 1414 99.0909 1416.69 99.0909 1420V1456H83.0909V1420Z" fill="#015364"/>
<path d="M110.636 1310C110.636 1306.69 113.323 1304 116.636 1304H120.636C123.95 1304 126.636 1306.69 126.636 1310V1456H110.636V1310Z" fill="#5BDCC6"/>
<path d="M110.636 1354.33C110.636 1351.02 113.323 1348.33 116.636 1348.33H120.636C123.95 1348.33 126.636 1351.02 126.636 1354.33V1456H110.636V1354.33Z" fill="#038C8C"/>
<path d="M110.636 1405C110.636 1401.69 113.323 1399 116.636 1399H120.636C123.95 1399 126.636 1401.69 126.636 1405V1456H110.636V1405Z" fill="#015364"/>
<path d="M138.182 1350C138.182 1346.69 140.868 1344 144.182 1344H148.182C151.496 1344 154.182 1346.69 154.182 1350V1456H138.182V1350Z" fill="#5BDCC6"/>
<path d="M138.182 1382.67C138.182 1379.35 140.868 1376.67 144.182 1376.67H148.182C151.496 1376.67 154.182 1379.35 154.182 1382.67V1456H138.182V1382.67Z" fill="#038C8C"/>
<path d="M138.182 1420C138.182 1416.69 140.868 1414 144.182 1414H148.182C151.496 1414 154.182 1416.69 154.182 1420V1456H138.182V1420Z" fill="#015364"/>
<path d="M165.727 1294C165.727 1290.69 168.414 1288 171.727 1288H175.727C179.041 1288 181.727 1290.69 181.727 1294V1456H165.727V1294Z" fill="#5BDCC6"/>
<path d="M165.727 1343C165.727 1339.69 168.414 1337 171.727 1337H175.727C179.041 1337 181.727 1339.69 181.727 1343V1456H165.727V1343Z" fill="#038C8C"/>
<path d="M165.727 1399C165.727 1395.69 168.414 1393 171.727 1393H175.727C179.041 1393 181.727 1395.69 181.727 1399V1456H165.727V1399Z" fill="#015364"/>
<path d="M193.273 1318C193.273 1314.69 195.959 1312 199.273 1312H203.273C206.586 1312 209.273 1314.69 209.273 1318V1456H193.273V1318Z" fill="#5BDCC6"/>
<path d="M193.273 1360C193.273 1356.69 195.959 1354 199.273 1354H203.273C206.586 1354 209.273 1356.69 209.273 1360V1456H193.273V1360Z" fill="#038C8C"/>
<path d="M193.273 1408C193.273 1404.69 195.959 1402 199.273 1402H203.273C206.586 1402 209.273 1404.69 209.273 1408V1456H193.273V1408Z" fill="#015364"/>
<path d="M220.818 1310C220.818 1306.69 223.504 1304 226.818 1304H230.818C234.132 1304 236.818 1306.69 236.818 1310V1456H220.818V1310Z" fill="#5BDCC6"/>
<path d="M220.818 1354.33C220.818 1351.02 223.504 1348.33 226.818 1348.33H230.818C234.132 1348.33 236.818 1351.02 236.818 1354.33V1456H220.818V1354.33Z" fill="#038C8C"/>
<path d="M220.818 1405C220.818 1401.69 223.504 1399 226.818 1399H230.818C234.132 1399 236.818 1401.69 236.818 1405V1456H220.818V1405Z" fill="#015364"/>
<path d="M248.364 1318C248.364 1314.69 251.05 1312 254.364 1312H258.364C261.677 1312 264.364 1314.69 264.364 1318V1456H248.364V1318Z" fill="#5BDCC6"/>
<path d="M248.364 1360C248.364 1356.69 251.05 1354 254.364 1354H258.364C261.677 1354 264.364 1356.69 264.364 1360V1456H248.364V1360Z" fill="#038C8C"/>
<path d="M248.364 1408C248.364 1404.69 251.05 1402 254.364 1402H258.364C261.677 1402 264.364 1404.69 264.364 1408V1456H248.364V1408Z" fill="#015364"/>
<path d="M275.909 1302C275.909 1298.69 278.595 1296 281.909 1296H285.909C289.223 1296 291.909 1298.69 291.909 1302V1456H275.909V1302Z" fill="#5BDCC6"/>
<path d="M275.909 1348.67C275.909 1345.35 278.595 1342.67 281.909 1342.67H285.909C289.223 1342.67 291.909 1345.35 291.909 1348.67V1456H275.909V1348.67Z" fill="#038C8C"/>
<path d="M275.909 1402C275.909 1398.69 278.595 1396 281.909 1396H285.909C289.223 1396 291.909 1398.69 291.909 1402V1456H275.909V1402Z" fill="#015364"/>
<path d="M303.455 1286C303.455 1282.69 306.141 1280 309.455 1280H313.455C316.768 1280 319.455 1282.69 319.455 1286V1456H303.455V1286Z" fill="#5BDCC6"/>
<path d="M303.455 1337.33C303.455 1334.02 306.141 1331.33 309.455 1331.33H313.455C316.768 1331.33 319.455 1334.02 319.455 1337.33V1456H303.455V1337.33Z" fill="#038C8C"/>
<path d="M303.455 1396C303.455 1392.69 306.141 1390 309.455 1390H313.455C316.768 1390 319.455 1392.69 319.455 1396V1456H303.455V1396Z" fill="#015364"/>
<path d="M331 1326C331 1322.69 333.686 1320 337 1320H341C344.314 1320 347 1322.69 347 1326V1456H331V1326Z" fill="#5BDCC6"/>
<path d="M331 1365.67C331 1362.35 333.686 1359.67 337 1359.67H341C344.314 1359.67 347 1362.35 347 1365.67V1456H331V1365.67Z" fill="#038C8C"/>
<path d="M331 1411C331 1407.69 333.686 1405 337 1405H341C344.314 1405 347 1407.69 347 1411V1456H331V1411Z" fill="#015364"/>
</g>
<g clip-path="url(#clip4_1061_47609)">
<path d="M36 230C36 226.686 38.6863 224 42 224H62C65.3137 224 68 226.686 68 230V368H36V230Z" fill="#5BDCC6"/>
<path d="M129.455 198C129.455 194.686 132.141 192 135.455 192H155.455C158.768 192 161.455 194.686 161.455 198V368H129.455V198Z" fill="#5BDCC6"/>
<path d="M222.909 262C222.909 258.686 225.595 256 228.909 256H248.909C252.223 256 254.909 258.686 254.909 262V368H222.909V262Z" fill="#5BDCC6"/>
<path d="M316.364 222C316.364 218.686 319.05 216 322.364 216H342.364C345.677 216 348.364 218.686 348.364 222V368H316.364V222Z" fill="#5BDCC6"/>
<path d="M409.818 262C409.818 258.686 412.504 256 415.818 256H435.818C439.132 256 441.818 258.686 441.818 262V368H409.818V262Z" fill="#5BDCC6"/>
<path d="M503.273 206C503.273 202.686 505.959 200 509.273 200H529.273C532.586 200 535.273 202.686 535.273 206V368H503.273V206Z" fill="#5BDCC6"/>
<path d="M596.727 230C596.727 226.686 599.414 224 602.727 224H622.727C626.041 224 628.727 226.686 628.727 230V368H596.727V230Z" fill="#5BDCC6"/>
<path d="M690.182 222C690.182 218.686 692.868 216 696.182 216H716.182C719.495 216 722.182 218.686 722.182 222V368H690.182V222Z" fill="#5BDCC6"/>
<path d="M783.636 230C783.636 226.686 786.323 224 789.636 224H809.636C812.95 224 815.636 226.686 815.636 230V368H783.636V230Z" fill="#5BDCC6"/>
<path d="M877.091 214C877.091 210.686 879.777 208 883.091 208H903.091C906.405 208 909.091 210.686 909.091 214V368H877.091V214Z" fill="#5BDCC6"/>
<path d="M970.545 198C970.545 194.686 973.232 192 976.545 192H996.545C999.859 192 1002.55 194.686 1002.55 198V368H970.545V198Z" fill="#5BDCC6"/>
<path d="M1064 238C1064 234.686 1066.69 232 1070 232H1090C1093.31 232 1096 234.686 1096 238V368H1064V238Z" fill="#5BDCC6"/>
</g>
<g clip-path="url(#clip5_1061_47609)">
<path d="M28 902C28 898.686 30.6863 896 34 896H38C41.3137 896 44 898.686 44 902V1040H28V902Z" fill="#5BDCC6"/>
<path d="M55.5455 870C55.5455 866.686 58.2317 864 61.5455 864H65.5455C68.8592 864 71.5455 866.686 71.5455 870V1040H55.5455V870Z" fill="#5BDCC6"/>
<path d="M83.0909 934C83.0909 930.686 85.7772 928 89.0909 928H93.0909C96.4046 928 99.0909 930.686 99.0909 934V1040H83.0909V934Z" fill="#5BDCC6"/>
<path d="M110.636 894C110.636 890.686 113.323 888 116.636 888H120.636C123.95 888 126.636 890.686 126.636 894V1040H110.636V894Z" fill="#5BDCC6"/>
<path d="M138.182 934C138.182 930.686 140.868 928 144.182 928H148.182C151.496 928 154.182 930.686 154.182 934V1040H138.182V934Z" fill="#5BDCC6"/>
<path d="M165.727 878C165.727 874.686 168.414 872 171.727 872H175.727C179.041 872 181.727 874.686 181.727 878V1040H165.727V878Z" fill="#5BDCC6"/>
<path d="M193.273 902C193.273 898.686 195.959 896 199.273 896H203.273C206.586 896 209.273 898.686 209.273 902V1040H193.273V902Z" fill="#5BDCC6"/>
<path d="M220.818 894C220.818 890.686 223.504 888 226.818 888H230.818C234.132 888 236.818 890.686 236.818 894V1040H220.818V894Z" fill="#5BDCC6"/>
<path d="M248.364 902C248.364 898.686 251.05 896 254.364 896H258.364C261.677 896 264.364 898.686 264.364 902V1040H248.364V902Z" fill="#5BDCC6"/>
<path d="M275.909 886C275.909 882.686 278.595 880 281.909 880H285.909C289.223 880 291.909 882.686 291.909 886V1040H275.909V886Z" fill="#5BDCC6"/>
<path d="M303.455 870C303.455 866.686 306.141 864 309.455 864H313.455C316.768 864 319.455 866.686 319.455 870V1040H303.455V870Z" fill="#5BDCC6"/>
<path d="M331 910C331 906.686 333.686 904 337 904H341C344.314 904 347 906.686 347 910V1040H331V910Z" fill="#5BDCC6"/>
</g>
<path d="M1551 176C1554.31 176 1557 178.686 1557 182L1557 202C1557 205.314 1554.31 208 1551 208L1247 208L1247 176L1551 176Z" fill="#5BDCC6"/>
<path d="M1617 240C1620.31 240 1623 242.686 1623 246L1623 266C1623 269.314 1620.31 272 1617 272L1247 272L1247 240L1617 240Z" fill="#5BDCC6"/>
<path d="M1441 304C1444.31 304 1447 306.686 1447 310L1447 330C1447 333.314 1444.31 336 1441 336L1247 336L1247 304L1441 304Z" fill="#5BDCC6"/>
<path d="M1551 368C1554.31 368 1557 370.686 1557 374L1557 394C1557 397.314 1554.31 400 1551 400L1247 400L1247 368L1551 368Z" fill="#5BDCC6"/>
<path d="M1441 432C1444.31 432 1447 434.686 1447 438L1447 458C1447 461.314 1444.31 464 1441 464L1247 464L1247 432L1441 432Z" fill="#5BDCC6"/>
<path d="M1551 524C1554.31 524 1557 526.686 1557 530L1557 550C1557 553.314 1554.31 556 1551 556L1247 556L1247 524L1551 524Z" fill="#5BDCC6"/>
<path d="M1408.92 524C1412.23 524 1414.92 526.686 1414.92 530L1414.92 550C1414.92 553.314 1412.23 556 1408.92 556L1247 556L1247 524L1408.92 524Z" fill="#038C8C"/>
<path d="M1617 588C1620.31 588 1623 590.686 1623 594L1623 614C1623 617.314 1620.31 620 1617 620L1247 620L1247 588L1617 588Z" fill="#5BDCC6"/>
<path d="M1444.67 588C1447.98 588 1450.67 590.686 1450.67 594L1450.67 614C1450.67 617.314 1447.98 620 1444.67 620L1247 620L1247 588L1444.67 588Z" fill="#038C8C"/>
<path d="M1441 652C1444.31 652 1447 654.686 1447 658L1447 678C1447 681.314 1444.31 684 1441 684L1247 684L1247 652L1441 652Z" fill="#5BDCC6"/>
<path d="M1349.33 652C1352.65 652 1355.33 654.686 1355.33 658L1355.33 678C1355.33 681.314 1352.65 684 1349.33 684L1247 684L1247 652L1349.33 652Z" fill="#038C8C"/>
<path d="M1551 716C1554.31 716 1557 718.686 1557 722L1557 742C1557 745.314 1554.31 748 1551 748L1247 748L1247 716L1551 716Z" fill="#5BDCC6"/>
<path d="M1408.92 716C1412.23 716 1414.92 718.686 1414.92 722L1414.92 742C1414.92 745.314 1412.23 748 1408.92 748L1247 748L1247 716L1408.92 716Z" fill="#038C8C"/>
<path d="M1441 780C1444.31 780 1447 782.686 1447 786L1447 806C1447 809.314 1444.31 812 1441 812L1247 812L1247 780L1441 780Z" fill="#5BDCC6"/>
<path d="M1349.33 780C1352.65 780 1355.33 782.686 1355.33 786L1355.33 806C1355.33 809.314 1352.65 812 1349.33 812L1247 812L1247 780L1349.33 780Z" fill="#038C8C"/>
<path d="M1551 872C1554.31 872 1557 874.686 1557 878L1557 898C1557 901.314 1554.31 904 1551 904L1247 904L1247 872L1551 872Z" fill="#5BDCC6"/>
<path d="M1460.58 872C1463.9 872 1466.58 874.686 1466.58 878L1466.58 898C1466.58 901.314 1463.9 904 1460.58 904L1247 904L1247 872L1460.58 872Z" fill="#038C8C"/>
<path d="M1357.25 872C1360.56 872 1363.25 874.686 1363.25 878L1363.25 898C1363.25 901.314 1360.56 904 1357.25 904L1247 904L1247 872L1357.25 872Z" fill="#015364"/>
<path d="M1617 936C1620.31 936 1623 938.686 1623 942L1623 962C1623 965.314 1620.31 968 1617 968L1247 968L1247 936L1617 936Z" fill="#5BDCC6"/>
<path d="M1507.33 936C1510.65 936 1513.33 938.686 1513.33 942L1513.33 962C1513.33 965.314 1510.65 968 1507.33 968L1247 968L1247 936L1507.33 936Z" fill="#038C8C"/>
<path d="M1382 936C1385.31 936 1388 938.686 1388 942L1388 962C1388 965.314 1385.31 968 1382 968L1247 968L1247 936L1382 936Z" fill="#015364"/>
<path d="M1441 1000C1444.31 1000 1447 1002.69 1447 1006L1447 1026C1447 1029.31 1444.31 1032 1441 1032L1247 1032L1247 1000L1441 1000Z" fill="#5BDCC6"/>
<path d="M1382.67 1000C1385.98 1000 1388.67 1002.69 1388.67 1006L1388.67 1026C1388.67 1029.31 1385.98 1032 1382.67 1032L1247 1032L1247 1000L1382.67 1000Z" fill="#038C8C"/>
<path d="M1316 1000C1319.31 1000 1322 1002.69 1322 1006L1322 1026C1322 1029.31 1319.31 1032 1316 1032L1247 1032L1247 1000L1316 1000Z" fill="#015364"/>
<path d="M1551 1064C1554.31 1064 1557 1066.69 1557 1070L1557 1090C1557 1093.31 1554.31 1096 1551 1096L1247 1096L1247 1064L1551 1064Z" fill="#5BDCC6"/>
<path d="M1460.58 1064C1463.9 1064 1466.58 1066.69 1466.58 1070L1466.58 1090C1466.58 1093.31 1463.9 1096 1460.58 1096L1247 1096L1247 1064L1460.58 1064Z" fill="#038C8C"/>
<path d="M1357.25 1064C1360.56 1064 1363.25 1066.69 1363.25 1070L1363.25 1090C1363.25 1093.31 1360.56 1096 1357.25 1096L1247 1096L1247 1064L1357.25 1064Z" fill="#015364"/>
<path d="M1441 1128C1444.31 1128 1447 1130.69 1447 1134L1447 1154C1447 1157.31 1444.31 1160 1441 1160L1247 1160L1247 1128L1441 1128Z" fill="#5BDCC6"/>
<path d="M1382.67 1128C1385.98 1128 1388.67 1130.69 1388.67 1134L1388.67 1154C1388.67 1157.31 1385.98 1160 1382.67 1160L1247 1160L1247 1128L1382.67 1128Z" fill="#038C8C"/>
<path d="M1316 1128C1319.31 1128 1322 1130.69 1322 1134L1322 1154C1322 1157.31 1319.31 1160 1316 1160L1247 1160L1247 1128L1316 1128Z" fill="#015364"/>
<path d="M872 864C875.314 864 878 866.686 878 870L878 874C878 877.314 875.314 880 872 880L568 880L568 864L872 864Z" fill="#5BDCC6"/>
<path d="M884 898C887.314 898 890 900.686 890 904L890 908C890 911.314 887.314 914 884 914L568 914L568 898L884 898Z" fill="#5BDCC6"/>
<path d="M762 932C765.314 932 768 934.686 768 938L768 942C768 945.314 765.314 948 762 948L568 948L568 932L762 932Z" fill="#5BDCC6"/>
<path d="M872 966C875.314 966 878 968.686 878 972L878 976C878 979.314 875.314 982 872 982L568 982L568 966L872 966Z" fill="#5BDCC6"/>
<path d="M762 1000C765.314 1000 768 1002.69 768 1006L768 1010C768 1013.31 765.314 1016 762 1016L568 1016L568 1000L762 1000Z" fill="#5BDCC6"/>
<path d="M872 1212C875.314 1212 878 1214.69 878 1218L878 1222C878 1225.31 875.314 1228 872 1228L568 1228L568 1212L872 1212Z" fill="#5BDCC6"/>
<path d="M729.917 1212C733.23 1212 735.917 1214.69 735.917 1218L735.917 1222C735.917 1225.31 733.23 1228 729.917 1228L568 1228L568 1212L729.917 1212Z" fill="#038C8C"/>
<path d="M884 1246C887.314 1246 890 1248.69 890 1252L890 1256C890 1259.31 887.314 1262 884 1262L568 1262L568 1246L884 1246Z" fill="#5BDCC6"/>
<path d="M736.417 1246C739.73 1246 742.417 1248.69 742.417 1252L742.417 1256C742.417 1259.31 739.73 1262 736.417 1262L568 1262L568 1246L736.417 1246Z" fill="#038C8C"/>
<path d="M762 1280C765.314 1280 768 1282.69 768 1286L768 1290C768 1293.31 765.314 1296 762 1296L568 1296L568 1280L762 1280Z" fill="#5BDCC6"/>
<path d="M670.333 1280C673.647 1280 676.333 1282.69 676.333 1286L676.333 1290C676.333 1293.31 673.647 1296 670.333 1296L568 1296L568 1280L670.333 1280Z" fill="#038C8C"/>
<path d="M872 1314C875.314 1314 878 1316.69 878 1320L878 1324C878 1327.31 875.314 1330 872 1330L568 1330L568 1314L872 1314Z" fill="#5BDCC6"/>
<path d="M729.917 1314C733.23 1314 735.917 1316.69 735.917 1320L735.917 1324C735.917 1327.31 733.23 1330 729.917 1330L568 1330L568 1314L729.917 1314Z" fill="#038C8C"/>
<path d="M762 1348C765.314 1348 768 1350.69 768 1354L768 1358C768 1361.31 765.314 1364 762 1364L568 1364L568 1348L762 1348Z" fill="#5BDCC6"/>
<path d="M670.333 1348C673.647 1348 676.333 1350.69 676.333 1354L676.333 1358C676.333 1361.31 673.647 1364 670.333 1364L568 1364L568 1348L670.333 1348Z" fill="#038C8C"/>
<path d="M872 1560C875.314 1560 878 1562.69 878 1566L878 1570C878 1573.31 875.314 1576 872 1576L568 1576L568 1560L872 1560Z" fill="#5BDCC6"/>
<path d="M781.583 1560C784.897 1560 787.583 1562.69 787.583 1566L787.583 1570C787.583 1573.31 784.897 1576 781.583 1576L568 1576L568 1560L781.583 1560Z" fill="#038C8C"/>
<path d="M678.25 1560C681.564 1560 684.25 1562.69 684.25 1566L684.25 1570C684.25 1573.31 681.564 1576 678.25 1576L568 1576L568 1560L678.25 1560Z" fill="#015364"/>
<path d="M884 1594C887.314 1594 890 1596.69 890 1600L890 1604C890 1607.31 887.314 1610 884 1610L568 1610L568 1594L884 1594Z" fill="#5BDCC6"/>
<path d="M790.083 1594C793.397 1594 796.083 1596.69 796.083 1600L796.083 1604C796.083 1607.31 793.397 1610 790.083 1610L568 1610L568 1594L790.083 1594Z" fill="#038C8C"/>
<path d="M682.75 1594C686.064 1594 688.75 1596.69 688.75 1600L688.75 1604C688.75 1607.31 686.064 1610 682.75 1610L568 1610L568 1594L682.75 1594Z" fill="#015364"/>
<path d="M762 1628C765.314 1628 768 1630.69 768 1634L768 1638C768 1641.31 765.314 1644 762 1644L568 1644L568 1628L762 1628Z" fill="#5BDCC6"/>
<path d="M703.667 1628C706.98 1628 709.667 1630.69 709.667 1634L709.667 1638C709.667 1641.31 706.98 1644 703.667 1644L568 1644L568 1628L703.667 1628Z" fill="#038C8C"/>
<path d="M637 1628C640.314 1628 643 1630.69 643 1634L643 1638C643 1641.31 640.314 1644 637 1644L568 1644L568 1628L637 1628Z" fill="#015364"/>
<path d="M872 1662C875.314 1662 878 1664.69 878 1668L878 1672C878 1675.31 875.314 1678 872 1678L568 1678L568 1662L872 1662Z" fill="#5BDCC6"/>
<path d="M781.583 1662C784.897 1662 787.583 1664.69 787.583 1668L787.583 1672C787.583 1675.31 784.897 1678 781.583 1678L568 1678L568 1662L781.583 1662Z" fill="#038C8C"/>
<path d="M678.25 1662C681.564 1662 684.25 1664.69 684.25 1668L684.25 1672C684.25 1675.31 681.564 1678 678.25 1678L568 1678L568 1662L678.25 1662Z" fill="#015364"/>
<path d="M762 1696C765.314 1696 768 1698.69 768 1702L768 1706C768 1709.31 765.314 1712 762 1712L568 1712L568 1696L762 1696Z" fill="#5BDCC6"/>
<path d="M703.667 1696C706.98 1696 709.667 1698.69 709.667 1702L709.667 1706C709.667 1709.31 706.98 1712 703.667 1712L568 1712L568 1696L703.667 1696Z" fill="#038C8C"/>
<path d="M637 1696C640.314 1696 643 1698.69 643 1702L643 1706C643 1709.31 640.314 1712 637 1712L568 1712L568 1696L637 1696Z" fill="#015364"/>
<defs>
<clipPath id="clip0_1061_47609">
<rect width="1100" height="192" fill="white" transform="translate(16 384)"/>
</clipPath>
<clipPath id="clip1_1061_47609">
<rect width="343" height="192" fill="white" transform="translate(16 1056)"/>
</clipPath>
<clipPath id="clip2_1061_47609">
<rect width="1100" height="192" fill="white" transform="translate(16 592)"/>
</clipPath>
<clipPath id="clip3_1061_47609">
<rect width="343" height="192" fill="white" transform="translate(16 1264)"/>
</clipPath>
<clipPath id="clip4_1061_47609">
<rect width="1100" height="192" fill="white" transform="translate(16 176)"/>
</clipPath>
<clipPath id="clip5_1061_47609">
<rect width="343" height="192" fill="white" transform="translate(16 848)"/>
</clipPath>
</defs>
</svg>
