<svg width="240" height="18" viewBox="0 0 240 18" fill="none" xmlns="http://www.w3.org/2000/svg">
<path d="M98.5305 14L102.262 5.54H103.126L106.918 14H105.886L104.83 11.588L105.274 11.84H100.102L100.582 11.588L99.5505 14H98.5305ZM102.682 6.68L100.738 11.24L100.45 11.024H104.914L104.698 11.24L102.706 6.68H102.682ZM110.56 14.108C109.968 14.108 109.452 13.98 109.012 13.724C108.58 13.468 108.244 13.104 108.004 12.632C107.772 12.16 107.656 11.6 107.656 10.952C107.656 10.296 107.776 9.74 108.016 9.284C108.256 8.82 108.592 8.468 109.024 8.228C109.464 7.988 109.976 7.868 110.56 7.868C110.944 7.868 111.316 7.936 111.676 8.072C112.044 8.208 112.348 8.4 112.588 8.648L112.24 9.344C112 9.112 111.736 8.94 111.448 8.828C111.168 8.716 110.892 8.66 110.62 8.66C109.996 8.66 109.512 8.856 109.168 9.248C108.824 9.64 108.652 10.212 108.652 10.964C108.652 11.708 108.824 12.284 109.168 12.692C109.512 13.1 109.996 13.304 110.62 13.304C110.884 13.304 111.156 13.252 111.436 13.148C111.724 13.044 111.992 12.872 112.24 12.632L112.588 13.316C112.34 13.572 112.032 13.768 111.664 13.904C111.296 14.04 110.928 14.108 110.56 14.108ZM116.105 14.108C115.513 14.108 115.061 13.94 114.749 13.604C114.437 13.26 114.281 12.744 114.281 12.056V8.732H113.105V7.976H114.281V6.332L115.253 6.056V7.976H116.981V8.732H115.253V11.948C115.253 12.428 115.333 12.772 115.493 12.98C115.661 13.18 115.909 13.28 116.237 13.28C116.389 13.28 116.525 13.268 116.645 13.244C116.765 13.212 116.873 13.176 116.969 13.136V13.952C116.857 14 116.721 14.036 116.561 14.06C116.409 14.092 116.257 14.108 116.105 14.108ZM118.165 14V7.976H119.137V14H118.165ZM118.045 6.608V5.516H119.245V6.608H118.045ZM122.8 14L120.22 7.976H121.276L123.436 13.28H123.112L125.296 7.976H126.304L123.724 14H122.8ZM129.993 14.108C129.049 14.108 128.305 13.836 127.761 13.292C127.217 12.74 126.945 11.976 126.945 11C126.945 10.368 127.065 9.82 127.305 9.356C127.545 8.884 127.881 8.52 128.313 8.264C128.745 8 129.241 7.868 129.801 7.868C130.353 7.868 130.817 7.984 131.193 8.216C131.569 8.448 131.857 8.78 132.057 9.212C132.257 9.636 132.357 10.14 132.357 10.724V11.084H127.689V10.472H131.721L131.517 10.628C131.517 9.988 131.373 9.488 131.085 9.128C130.797 8.768 130.369 8.588 129.801 8.588C129.201 8.588 128.733 8.8 128.397 9.224C128.061 9.64 127.893 10.204 127.893 10.916V11.024C127.893 11.776 128.077 12.348 128.445 12.74C128.821 13.124 129.345 13.316 130.017 13.316C130.377 13.316 130.713 13.264 131.025 13.16C131.345 13.048 131.649 12.868 131.937 12.62L132.273 13.304C132.009 13.56 131.673 13.76 131.265 13.904C130.865 14.04 130.441 14.108 129.993 14.108ZM139.097 14.108C138.385 14.108 137.845 13.912 137.477 13.52C137.117 13.128 136.937 12.528 136.937 11.72V7.976H137.909V11.696C137.909 12.248 138.021 12.656 138.245 12.92C138.469 13.176 138.817 13.304 139.289 13.304C139.817 13.304 140.241 13.132 140.561 12.788C140.881 12.444 141.041 11.984 141.041 11.408V7.976H142.013V14H141.065V12.644H141.221C141.053 13.108 140.781 13.468 140.405 13.724C140.037 13.98 139.601 14.108 139.097 14.108ZM145.903 14.108C145.423 14.108 144.975 14.044 144.559 13.916C144.143 13.78 143.799 13.592 143.527 13.352L143.863 12.668C144.159 12.9 144.479 13.072 144.823 13.184C145.175 13.296 145.539 13.352 145.915 13.352C146.395 13.352 146.755 13.268 146.995 13.1C147.243 12.924 147.367 12.684 147.367 12.38C147.367 12.148 147.287 11.964 147.127 11.828C146.975 11.684 146.723 11.572 146.371 11.492L145.255 11.264C144.743 11.152 144.359 10.964 144.103 10.7C143.847 10.428 143.719 10.084 143.719 9.668C143.719 9.316 143.811 9.008 143.995 8.744C144.179 8.472 144.447 8.26 144.799 8.108C145.151 7.948 145.563 7.868 146.035 7.868C146.475 7.868 146.879 7.936 147.247 8.072C147.623 8.2 147.935 8.388 148.183 8.636L147.835 9.308C147.595 9.076 147.319 8.904 147.007 8.792C146.703 8.672 146.387 8.612 146.059 8.612C145.587 8.612 145.231 8.708 144.991 8.9C144.759 9.084 144.643 9.328 144.643 9.632C144.643 9.864 144.715 10.056 144.859 10.208C145.011 10.352 145.243 10.46 145.555 10.532L146.671 10.76C147.215 10.88 147.619 11.068 147.883 11.324C148.155 11.572 148.291 11.908 148.291 12.332C148.291 12.692 148.191 13.008 147.991 13.28C147.791 13.544 147.511 13.748 147.151 13.892C146.799 14.036 146.383 14.108 145.903 14.108ZM152.528 14.108C151.584 14.108 150.84 13.836 150.296 13.292C149.752 12.74 149.48 11.976 149.48 11C149.48 10.368 149.6 9.82 149.84 9.356C150.08 8.884 150.416 8.52 150.848 8.264C151.28 8 151.776 7.868 152.336 7.868C152.888 7.868 153.352 7.984 153.728 8.216C154.104 8.448 154.392 8.78 154.592 9.212C154.792 9.636 154.892 10.14 154.892 10.724V11.084H150.224V10.472H154.256L154.052 10.628C154.052 9.988 153.908 9.488 153.62 9.128C153.332 8.768 152.904 8.588 152.336 8.588C151.736 8.588 151.268 8.8 150.932 9.224C150.596 9.64 150.428 10.204 150.428 10.916V11.024C150.428 11.776 150.612 12.348 150.98 12.74C151.356 13.124 151.88 13.316 152.552 13.316C152.912 13.316 153.248 13.264 153.56 13.16C153.88 13.048 154.184 12.868 154.472 12.62L154.808 13.304C154.544 13.56 154.208 13.76 153.8 13.904C153.4 14.04 152.976 14.108 152.528 14.108ZM156.356 14V9.428C156.356 9.188 156.348 8.944 156.332 8.696C156.324 8.448 156.308 8.208 156.284 7.976H157.22L157.34 9.44L157.172 9.452C157.252 9.092 157.392 8.796 157.592 8.564C157.792 8.332 158.028 8.16 158.3 8.048C158.572 7.928 158.856 7.868 159.152 7.868C159.272 7.868 159.376 7.872 159.464 7.88C159.56 7.888 159.648 7.908 159.728 7.94L159.716 8.804C159.596 8.764 159.484 8.74 159.38 8.732C159.284 8.716 159.172 8.708 159.044 8.708C158.692 8.708 158.384 8.792 158.12 8.96C157.864 9.128 157.668 9.344 157.532 9.608C157.404 9.872 157.34 10.152 157.34 10.448V14H156.356ZM162.684 14.108C162.204 14.108 161.756 14.044 161.34 13.916C160.924 13.78 160.58 13.592 160.308 13.352L160.644 12.668C160.94 12.9 161.26 13.072 161.604 13.184C161.956 13.296 162.32 13.352 162.696 13.352C163.176 13.352 163.536 13.268 163.776 13.1C164.024 12.924 164.148 12.684 164.148 12.38C164.148 12.148 164.068 11.964 163.908 11.828C163.756 11.684 163.504 11.572 163.152 11.492L162.036 11.264C161.524 11.152 161.14 10.964 160.884 10.7C160.628 10.428 160.5 10.084 160.5 9.668C160.5 9.316 160.592 9.008 160.776 8.744C160.96 8.472 161.228 8.26 161.58 8.108C161.932 7.948 162.344 7.868 162.816 7.868C163.256 7.868 163.66 7.936 164.028 8.072C164.404 8.2 164.716 8.388 164.964 8.636L164.616 9.308C164.376 9.076 164.1 8.904 163.788 8.792C163.484 8.672 163.168 8.612 162.84 8.612C162.368 8.612 162.012 8.708 161.772 8.9C161.54 9.084 161.424 9.328 161.424 9.632C161.424 9.864 161.496 10.056 161.64 10.208C161.792 10.352 162.024 10.46 162.336 10.532L163.452 10.76C163.996 10.88 164.4 11.068 164.664 11.324C164.936 11.572 165.072 11.908 165.072 12.332C165.072 12.692 164.972 13.008 164.772 13.28C164.572 13.544 164.292 13.748 163.932 13.892C163.58 14.036 163.164 14.108 162.684 14.108Z" fill="#667085"/>
</svg>
