<svg width="1133" height="26" viewBox="0 0 1133 26" fill="none" xmlns="http://www.w3.org/2000/svg">
<path d="M549.861 22V13.54H550.725L554.121 21.208H553.773L557.169 13.54H558.033V22H557.121V14.824H557.481L554.277 22H553.617L550.401 14.824H550.761V22H549.861ZM562.514 22.108C561.938 22.108 561.434 21.984 561.002 21.736C560.578 21.48 560.25 21.12 560.018 20.656C559.786 20.184 559.67 19.628 559.67 18.988C559.67 18.34 559.786 17.784 560.018 17.32C560.25 16.856 560.578 16.5 561.002 16.252C561.434 15.996 561.938 15.868 562.514 15.868C563.098 15.868 563.602 15.996 564.026 16.252C564.458 16.5 564.79 16.856 565.022 17.32C565.262 17.784 565.382 18.34 565.382 18.988C565.382 19.628 565.262 20.184 565.022 20.656C564.79 21.12 564.458 21.48 564.026 21.736C563.602 21.984 563.098 22.108 562.514 22.108ZM562.514 21.316C563.09 21.316 563.546 21.12 563.882 20.728C564.218 20.328 564.386 19.748 564.386 18.988C564.386 18.22 564.214 17.64 563.87 17.248C563.534 16.848 563.082 16.648 562.514 16.648C561.946 16.648 561.494 16.848 561.158 17.248C560.822 17.64 560.654 18.22 560.654 18.988C560.654 19.748 560.822 20.328 561.158 20.728C561.494 21.12 561.946 21.316 562.514 21.316ZM566.897 22V17.368C566.897 17.144 566.885 16.916 566.861 16.684C566.845 16.444 566.825 16.208 566.801 15.976H567.737L567.857 17.296H567.713C567.889 16.832 568.169 16.48 568.553 16.24C568.945 15.992 569.397 15.868 569.909 15.868C570.621 15.868 571.157 16.06 571.517 16.444C571.885 16.82 572.069 17.416 572.069 18.232V22H571.097V18.292C571.097 17.724 570.981 17.312 570.749 17.056C570.525 16.792 570.173 16.66 569.693 16.66C569.133 16.66 568.689 16.832 568.361 17.176C568.033 17.52 567.869 17.98 567.869 18.556V22H566.897ZM576.064 22.108C575.472 22.108 575.02 21.94 574.708 21.604C574.396 21.26 574.24 20.744 574.24 20.056V16.732H573.064V15.976H574.24V14.332L575.212 14.056V15.976H576.94V16.732L575.212 16.732V19.948C575.212 20.428 575.292 20.772 575.452 20.98C575.62 21.18 575.868 21.28 576.196 21.28C576.348 21.28 576.484 21.268 576.604 21.244C576.724 21.212 576.832 21.176 576.928 21.136V21.952C576.816 22 576.68 22.036 576.52 22.06C576.368 22.092 576.216 22.108 576.064 22.108ZM578.124 22V13.168L579.096 13.168V17.308H578.94C579.108 16.836 579.388 16.48 579.78 16.24C580.18 15.992 580.64 15.868 581.16 15.868C581.88 15.868 582.416 16.064 582.768 16.456C583.12 16.84 583.296 17.424 583.296 18.208V22H582.324V18.268C582.324 17.708 582.212 17.3 581.988 17.044C581.772 16.788 581.42 16.66 580.932 16.66C580.372 16.66 579.924 16.832 579.588 17.176C579.26 17.52 579.096 17.972 579.096 18.532V22H578.124Z" fill="#667085"/>
</svg>
