<svg width="445" height="224" viewBox="0 0 445 224" fill="none" xmlns="http://www.w3.org/2000/svg">
<rect x="0.5" y="0.5" width="444" height="223" rx="4.5" stroke="#7B61FF" stroke-dasharray="10 5"/>
<path d="M16 22C16 18.6863 18.6863 16 22 16H42C45.3137 16 48 18.6863 48 22V208H16V22Z" fill="#5BDCC6"/>
<path d="M385 32C388.314 32 391 34.6863 391 38L391 58C391 61.3137 388.314 64 385 64L199 64L199 32L385 32Z" fill="#5BDCC6"/>
<path d="M80 22C80 18.6863 82.6863 16 86 16H106C109.314 16 112 18.6863 112 22V208H80V22Z" fill="#5BDCC6"/>
<path d="M80 110C80 106.686 82.6863 104 86 104H106C109.314 104 112 106.686 112 110V208H80V110Z" fill="#038C8C"/>
<path d="M385 96C388.314 96 391 98.6863 391 102L391 122C391 125.314 388.314 128 385 128L199 128L199 96L385 96Z" fill="#5BDCC6"/>
<path d="M297 96C300.314 96 303 98.6863 303 102L303 122C303 125.314 300.314 128 297 128L199 128L199 96L297 96Z" fill="#038C8C"/>
<path d="M144 22C144 18.6863 146.686 16 150 16H170C173.314 16 176 18.6863 176 22V208H144V22Z" fill="#5BDCC6"/>
<path d="M144 78C144 74.6863 146.686 72 150 72H170C173.314 72 176 74.6863 176 78V208H144V78Z" fill="#038C8C"/>
<path d="M144 142C144 138.686 146.686 136 150 136H170C173.314 136 176 138.686 176 142V208H144V142Z" fill="#015364"/>
<path d="M385 160C388.314 160 391 162.686 391 166L391 186C391 189.314 388.314 192 385 192L199 192L199 160L385 160Z" fill="#5BDCC6"/>
<path d="M329 160C332.314 160 335 162.686 335 166L335 186C335 189.314 332.314 192 329 192L199 192L199 160L329 160Z" fill="#038C8C"/>
<path d="M265 160C268.314 160 271 162.686 271 166L271 186C271 189.314 268.314 192 265 192L199 192L199 160L265 160Z" fill="#015364"/>
</svg>
