<svg width="432" height="433" viewBox="0 0 432 433" fill="none" xmlns="http://www.w3.org/2000/svg">
<path d="M216 1.0957C335.155 1.0957 431.75 97.6999 431.75 216.867C431.75 336.035 335.155 432.639 216 432.639C96.8446 432.639 0.25 336.035 0.25 216.867C0.250016 97.6999 96.8446 1.0957 216 1.0957Z" fill="white" stroke="#F9FAFB" stroke-width="0.5"/>
<path d="M216 49.3149C308.528 49.3152 383.536 124.331 383.536 216.868C383.535 309.404 308.528 384.419 216 384.419C123.473 384.419 48.4645 309.404 48.4643 216.868C48.4643 124.331 123.473 49.3149 216 49.3149Z" fill="black" fill-opacity="0.05" stroke="#F9FAFB" stroke-width="0.5"/>
<path d="M216 99.4629C280.834 99.4629 333.393 152.027 333.393 216.867C333.393 281.708 280.834 334.272 216 334.272C151.166 334.272 98.6071 281.708 98.6071 216.867C98.6073 152.027 151.166 99.463 216 99.4629Z" fill="white" stroke="#F9FAFB" stroke-width="0.5"/>
<path d="M216 149.61C253.141 149.61 283.25 179.722 283.25 216.867C283.25 254.012 253.141 284.124 216 284.124C178.859 284.124 148.75 254.012 148.75 216.867C148.75 179.722 178.859 149.61 216 149.61Z" fill="black" fill-opacity="0.05" stroke="#F9FAFB" stroke-width="0.5"/>
<path d="M216 192.043C229.708 192.043 240.821 203.158 240.821 216.868C240.821 230.577 229.708 241.691 216 241.691C202.292 241.691 191.179 230.577 191.179 216.868C191.179 203.158 202.291 192.044 216 192.043Z" fill="white" stroke="#F9FAFB" stroke-width="0.5"/>
<path d="M216.135 0C216.135 166.86 216.135 265.572 216.135 432.432" stroke="#F9FAFB" stroke-width="0.5"/>
<path d="M403.951 109.398C259.008 193.027 173.262 242.501 28.3196 326.13" stroke="#F9FAFB" stroke-width="0.5"/>
<path d="M403.951 326.13C259.008 242.501 173.262 193.027 28.3196 109.398" stroke="#F9FAFB" stroke-width="0.5"/>
<path d="M256.223 201.958L266.153 244.631L238.324 278.856H193.676L165.846 244.631L175.776 201.958L216 182.96L256.223 201.958Z" stroke="#F2F4F7" stroke-linecap="round" stroke-linejoin="round"/>
<path d="M281.24 182.005L297.352 251.751L252.208 307.688H179.792L134.647 251.751L150.759 182.005L216 150.96L281.24 182.005Z" stroke="#F2F4F7" stroke-linecap="round" stroke-linejoin="round"/>
<path d="M306.259 162.053L328.55 258.872L266.091 336.519H165.909L103.449 258.872L125.74 162.053L216 118.961L306.259 162.053Z" stroke="#F2F4F7" stroke-linecap="round" stroke-linejoin="round"/>
<path d="M331.277 142.101L359.747 265.993L279.976 365.35H152.024L72.252 265.993L100.722 142.101L216 86.9609L331.277 142.101Z" stroke="#F2F4F7" stroke-linecap="round" stroke-linejoin="round"/>
<path d="M356.296 110.149L390.945 261.113L293.859 382.181H138.141L41.0537 261.113L75.7031 110.149L216 42.9609L356.296 110.149Z" stroke="#F2F4F7" stroke-linecap="round" stroke-linejoin="round"/>
<path d="M90.7706 133.794L216 232.893M216 232.893V73.9072M216 232.893L341.229 133.794M216 232.893L372 268.897M216 232.893L285.413 376.907M216 232.893L146.587 376.551M216 232.893L60 268.897" stroke="#F2F4F7" stroke-linecap="round" stroke-linejoin="round"/>
<path d="M203.137 30.6113V20.7413H204.145L208.107 29.6873H207.701L211.663 20.7413H212.671V30.6113H211.607V22.2393H212.027L208.289 30.6113H207.519L203.767 22.2393H204.187V30.6113H203.137ZM217.898 30.7373C217.226 30.7373 216.638 30.5927 216.134 30.3033C215.64 30.0047 215.257 29.5847 214.986 29.0433C214.716 28.4927 214.58 27.844 214.58 27.0973C214.58 26.3413 214.716 25.6927 214.986 25.1513C215.257 24.61 215.64 24.1947 216.134 23.9053C216.638 23.6067 217.226 23.4573 217.898 23.4573C218.58 23.4573 219.168 23.6067 219.662 23.9053C220.166 24.1947 220.554 24.61 220.824 25.1513C221.104 25.6927 221.244 26.3413 221.244 27.0973C221.244 27.844 221.104 28.4927 220.824 29.0433C220.554 29.5847 220.166 30.0047 219.662 30.3033C219.168 30.5927 218.58 30.7373 217.898 30.7373ZM217.898 29.8133C218.57 29.8133 219.102 29.5847 219.494 29.1273C219.886 28.6607 220.082 27.984 220.082 27.0973C220.082 26.2013 219.882 25.5247 219.48 25.0673C219.088 24.6007 218.561 24.3673 217.898 24.3673C217.236 24.3673 216.708 24.6007 216.316 25.0673C215.924 25.5247 215.728 26.2013 215.728 27.0973C215.728 27.984 215.924 28.6607 216.316 29.1273C216.708 29.5847 217.236 29.8133 217.898 29.8133ZM223.012 30.6113V25.2073C223.012 24.946 222.998 24.68 222.97 24.4093C222.952 24.1293 222.928 23.854 222.9 23.5833H223.992L224.132 25.1233H223.964C224.17 24.582 224.496 24.1713 224.944 23.8913C225.402 23.602 225.929 23.4573 226.526 23.4573C227.357 23.4573 227.982 23.6813 228.402 24.1293C228.832 24.568 229.046 25.2633 229.046 26.2153V30.6113H227.912V26.2853C227.912 25.6227 227.777 25.142 227.506 24.8433C227.245 24.5353 226.834 24.3813 226.274 24.3813C225.621 24.3813 225.103 24.582 224.72 24.9833C224.338 25.3847 224.146 25.9213 224.146 26.5933V30.6113H223.012Z" fill="#667085"/>
<path d="M367.856 115.477V106.587H364.37V105.607H372.49V106.587H369.018V115.477H367.856ZM375.251 115.603C374.42 115.603 373.79 115.374 373.361 114.917C372.941 114.46 372.731 113.76 372.731 112.817V108.449H373.865V112.789C373.865 113.433 373.996 113.909 374.257 114.217C374.518 114.516 374.924 114.665 375.475 114.665C376.091 114.665 376.586 114.464 376.959 114.063C377.332 113.662 377.519 113.125 377.519 112.453V108.449H378.653V115.477H377.547V113.895H377.729C377.533 114.436 377.216 114.856 376.777 115.155C376.348 115.454 375.839 115.603 375.251 115.603ZM383.975 115.603C382.874 115.603 382.006 115.286 381.371 114.651C380.736 114.007 380.419 113.116 380.419 111.977C380.419 111.24 380.559 110.6 380.839 110.059C381.119 109.508 381.511 109.084 382.015 108.785C382.519 108.477 383.098 108.323 383.751 108.323C384.395 108.323 384.936 108.458 385.375 108.729C385.814 109 386.15 109.387 386.383 109.891C386.616 110.386 386.733 110.974 386.733 111.655V112.075H381.287V111.361H385.991L385.753 111.543C385.753 110.796 385.585 110.213 385.249 109.793C384.913 109.373 384.414 109.163 383.751 109.163C383.051 109.163 382.505 109.41 382.113 109.905C381.721 110.39 381.525 111.048 381.525 111.879V112.005C381.525 112.882 381.74 113.55 382.169 114.007C382.608 114.455 383.219 114.679 384.003 114.679C384.423 114.679 384.815 114.618 385.179 114.497C385.552 114.366 385.907 114.156 386.243 113.867L386.635 114.665C386.327 114.964 385.935 115.197 385.459 115.365C384.992 115.524 384.498 115.603 383.975 115.603Z" fill="#667085"/>
<path d="M399.6 295.128L396.156 285.258H397.374L400.384 294.148H399.894L403.058 285.258H403.982L406.978 294.148H406.53L409.624 285.258H410.772L407.3 295.128H406.264L403.352 286.574H403.646L400.608 295.128H399.6ZM414.66 295.254C413.559 295.254 412.691 294.937 412.056 294.302C411.422 293.658 411.104 292.767 411.104 291.628C411.104 290.891 411.244 290.251 411.524 289.71C411.804 289.159 412.196 288.735 412.7 288.436C413.204 288.128 413.783 287.974 414.436 287.974C415.08 287.974 415.622 288.109 416.06 288.38C416.499 288.651 416.835 289.038 417.068 289.542C417.302 290.037 417.418 290.625 417.418 291.306V291.726H411.972V291.012H416.676L416.438 291.194C416.438 290.447 416.27 289.864 415.934 289.444C415.598 289.024 415.099 288.814 414.436 288.814C413.736 288.814 413.19 289.061 412.798 289.556C412.406 290.041 412.21 290.699 412.21 291.53V291.656C412.21 292.533 412.425 293.201 412.854 293.658C413.293 294.106 413.904 294.33 414.688 294.33C415.108 294.33 415.5 294.269 415.864 294.148C416.238 294.017 416.592 293.807 416.928 293.518L417.32 294.316C417.012 294.615 416.62 294.848 416.144 295.016C415.678 295.175 415.183 295.254 414.66 295.254ZM421.814 295.254C421.198 295.254 420.656 295.109 420.19 294.82C419.723 294.521 419.359 294.101 419.098 293.56C418.846 293.019 418.72 292.37 418.72 291.614C418.72 290.849 418.846 290.195 419.098 289.654C419.359 289.113 419.723 288.697 420.19 288.408C420.656 288.119 421.198 287.974 421.814 287.974C422.448 287.974 422.994 288.133 423.452 288.45C423.918 288.767 424.231 289.197 424.39 289.738H424.222V284.824H425.356V295.128H424.236V293.448H424.39C424.24 294.008 423.932 294.451 423.466 294.778C422.999 295.095 422.448 295.254 421.814 295.254ZM422.052 294.33C422.714 294.33 423.246 294.101 423.648 293.644C424.049 293.177 424.25 292.501 424.25 291.614C424.25 290.718 424.049 290.041 423.648 289.584C423.246 289.117 422.714 288.884 422.052 288.884C421.389 288.884 420.857 289.117 420.456 289.584C420.064 290.041 419.868 290.718 419.868 291.614C419.868 292.501 420.064 293.177 420.456 293.644C420.857 294.101 421.389 294.33 422.052 294.33Z" fill="#667085"/>
<path d="M302.586 419.671V410.781H299.1V409.801H307.22V410.781H303.748V419.671H302.586ZM308.516 419.671V409.367H309.65V414.197H309.468C309.664 413.646 309.99 413.231 310.448 412.951C310.914 412.662 311.451 412.517 312.058 412.517C312.898 412.517 313.523 412.746 313.934 413.203C314.344 413.651 314.55 414.332 314.55 415.247V419.671H313.416V415.317C313.416 414.664 313.285 414.188 313.024 413.889C312.772 413.59 312.361 413.441 311.792 413.441C311.138 413.441 310.616 413.642 310.224 414.043C309.841 414.444 309.65 414.972 309.65 415.625V419.671H308.516ZM319.197 419.797C318.366 419.797 317.736 419.568 317.307 419.111C316.887 418.654 316.677 417.954 316.677 417.011V412.643H317.811V416.983C317.811 417.627 317.941 418.103 318.203 418.411C318.464 418.71 318.87 418.859 319.421 418.859C320.037 418.859 320.531 418.658 320.905 418.257C321.278 417.856 321.465 417.319 321.465 416.647V412.643H322.599V419.671H321.493V418.089H321.675C321.479 418.63 321.161 419.05 320.723 419.349C320.293 419.648 319.785 419.797 319.197 419.797Z" fill="#667085"/>
<path d="M118.24 419.671V409.801H124.4V410.753H119.402V414.211H124.092V415.163H119.402V419.671H118.24ZM125.811 419.671V414.337C125.811 414.057 125.802 413.772 125.783 413.483C125.774 413.194 125.755 412.914 125.727 412.643H126.819L126.959 414.351L126.763 414.365C126.856 413.945 127.02 413.6 127.253 413.329C127.486 413.058 127.762 412.858 128.079 412.727C128.396 412.587 128.728 412.517 129.073 412.517C129.213 412.517 129.334 412.522 129.437 412.531C129.549 412.54 129.652 412.564 129.745 412.601L129.731 413.609C129.591 413.562 129.46 413.534 129.339 413.525C129.227 413.506 129.096 413.497 128.947 413.497C128.536 413.497 128.177 413.595 127.869 413.791C127.57 413.987 127.342 414.239 127.183 414.547C127.034 414.855 126.959 415.182 126.959 415.527V419.671H125.811ZM130.925 419.671V412.643H132.059V419.671H130.925ZM130.785 411.047V409.773H132.185V411.047H130.785Z" fill="#667085"/>
<path d="M16.038 295.254C15.2446 295.254 14.5353 295.151 13.91 294.946C13.2846 294.741 12.7386 294.447 12.272 294.064L12.692 293.14C13.0186 293.383 13.3453 293.588 13.672 293.756C14.008 293.915 14.3673 294.036 14.75 294.12C15.1326 294.195 15.562 294.232 16.038 294.232C16.8686 294.232 17.4846 294.078 17.886 293.77C18.2873 293.462 18.488 293.051 18.488 292.538C18.488 292.099 18.348 291.763 18.068 291.53C17.788 291.297 17.298 291.11 16.598 290.97L15.128 290.676C14.2226 290.489 13.546 290.186 13.098 289.766C12.6593 289.346 12.44 288.777 12.44 288.058C12.44 287.47 12.5893 286.957 12.888 286.518C13.196 286.079 13.6253 285.739 14.176 285.496C14.7266 285.253 15.366 285.132 16.094 285.132C16.794 285.132 17.4333 285.239 18.012 285.454C18.5906 285.659 19.0853 285.963 19.496 286.364L19.09 287.26C18.6513 286.868 18.1893 286.588 17.704 286.42C17.228 286.243 16.6866 286.154 16.08 286.154C15.3146 286.154 14.708 286.322 14.26 286.658C13.8213 286.985 13.602 287.433 13.602 288.002C13.602 288.459 13.742 288.819 14.022 289.08C14.302 289.332 14.764 289.523 15.408 289.654L16.892 289.948C17.844 290.144 18.544 290.438 18.992 290.83C19.44 291.222 19.664 291.773 19.664 292.482C19.664 293.023 19.5146 293.504 19.216 293.924C18.9266 294.344 18.5113 294.671 17.97 294.904C17.4286 295.137 16.7846 295.254 16.038 295.254ZM24.0886 295.254C23.4633 295.254 22.9173 295.109 22.4506 294.82C21.984 294.521 21.62 294.101 21.3586 293.56C21.1066 293.019 20.9806 292.37 20.9806 291.614C20.9806 290.849 21.1066 290.195 21.3586 289.654C21.62 289.113 21.984 288.697 22.4506 288.408C22.9173 288.119 23.4633 287.974 24.0886 287.974C24.7233 287.974 25.2693 288.137 25.7266 288.464C26.1933 288.781 26.5013 289.215 26.6506 289.766H26.4826L26.6366 288.1H27.7286C27.7006 288.371 27.6726 288.646 27.6446 288.926C27.626 289.197 27.6166 289.463 27.6166 289.724V295.128H26.4826V293.476H26.6366C26.4873 294.027 26.1793 294.461 25.7126 294.778C25.246 295.095 24.7046 295.254 24.0886 295.254ZM24.3126 294.33C24.9846 294.33 25.5166 294.101 25.9086 293.644C26.3006 293.177 26.4966 292.501 26.4966 291.614C26.4966 290.718 26.3006 290.041 25.9086 289.584C25.5166 289.117 24.9846 288.884 24.3126 288.884C23.65 288.884 23.118 289.117 22.7166 289.584C22.3246 290.041 22.1286 290.718 22.1286 291.614C22.1286 292.501 22.3246 293.177 22.7166 293.644C23.118 294.101 23.65 294.33 24.3126 294.33ZM32.3012 295.254C31.6105 295.254 31.0832 295.058 30.7192 294.666C30.3552 294.265 30.1732 293.663 30.1732 292.86V288.982H28.8012V288.1H30.1732V286.182L31.3072 285.86V288.1H33.3232V288.982H31.3072V292.734C31.3072 293.294 31.4005 293.695 31.5872 293.938C31.7832 294.171 32.0725 294.288 32.4552 294.288C32.6325 294.288 32.7912 294.274 32.9312 294.246C33.0712 294.209 33.1972 294.167 33.3092 294.12V295.072C33.1785 295.128 33.0198 295.17 32.8332 295.198C32.6558 295.235 32.4785 295.254 32.3012 295.254Z" fill="#667085"/>
<path d="M47.0511 115.603C46.2578 115.603 45.5484 115.5 44.9231 115.295C44.2978 115.09 43.7518 114.796 43.2851 114.413L43.7051 113.489C44.0318 113.732 44.3584 113.937 44.6851 114.105C45.0211 114.264 45.3804 114.385 45.7631 114.469C46.1458 114.544 46.5751 114.581 47.0511 114.581C47.8818 114.581 48.4978 114.427 48.8991 114.119C49.3004 113.811 49.5011 113.4 49.5011 112.887C49.5011 112.448 49.3611 112.112 49.0811 111.879C48.8011 111.646 48.3111 111.459 47.6111 111.319L46.1411 111.025C45.2358 110.838 44.5591 110.535 44.1111 110.115C43.6724 109.695 43.4531 109.126 43.4531 108.407C43.4531 107.819 43.6024 107.306 43.9011 106.867C44.2091 106.428 44.6384 106.088 45.1891 105.845C45.7398 105.602 46.3791 105.481 47.1071 105.481C47.8071 105.481 48.4464 105.588 49.0251 105.803C49.6038 106.008 50.0984 106.312 50.5091 106.713L50.1031 107.609C49.6644 107.217 49.2024 106.937 48.7171 106.769C48.2411 106.592 47.6998 106.503 47.0931 106.503C46.3278 106.503 45.7211 106.671 45.2731 107.007C44.8344 107.334 44.6151 107.782 44.6151 108.351C44.6151 108.808 44.7551 109.168 45.0351 109.429C45.3151 109.681 45.7771 109.872 46.4211 110.003L47.9051 110.297C48.8571 110.493 49.5571 110.787 50.0051 111.179C50.4531 111.571 50.6771 112.122 50.6771 112.831C50.6771 113.372 50.5278 113.853 50.2291 114.273C49.9398 114.693 49.5244 115.02 48.9831 115.253C48.4418 115.486 47.7978 115.603 47.0511 115.603ZM54.9058 115.603C54.0751 115.603 53.4451 115.374 53.0158 114.917C52.5958 114.46 52.3858 113.76 52.3858 112.817V108.449H53.5198V112.789C53.5198 113.433 53.6504 113.909 53.9118 114.217C54.1731 114.516 54.5791 114.665 55.1298 114.665C55.7458 114.665 56.2404 114.464 56.6138 114.063C56.9871 113.662 57.1738 113.125 57.1738 112.453V108.449H58.3078V115.477H57.2018V113.895H57.3838C57.1878 114.436 56.8704 114.856 56.4318 115.155C56.0024 115.454 55.4938 115.603 54.9058 115.603ZM60.5078 115.477V110.073C60.5078 109.812 60.4938 109.546 60.4658 109.275C60.4472 108.995 60.4238 108.72 60.3958 108.449H61.4878L61.6278 109.989H61.4598C61.6652 109.448 61.9918 109.037 62.4398 108.757C62.8972 108.468 63.4245 108.323 64.0218 108.323C64.8525 108.323 65.4779 108.547 65.8978 108.995C66.3272 109.434 66.5419 110.129 66.5419 111.081V115.477H65.4079V111.151C65.4079 110.488 65.2725 110.008 65.0018 109.709C64.7405 109.401 64.3298 109.247 63.7698 109.247C63.1165 109.247 62.5985 109.448 62.2158 109.849C61.8332 110.25 61.6418 110.787 61.6418 111.459V115.477H60.5078Z" fill="#667085"/>
<g style="mix-blend-mode:multiply">
<rect x="192" y="45.4072" width="48" height="22" rx="11" fill="#EAFEF1"/>
</g>
<g style="mix-blend-mode:multiply">
<rect x="197" y="77.4072" width="38" height="22" rx="11" fill="#EAFEF1"/>
</g>
<g style="mix-blend-mode:multiply">
<rect x="197" y="109.407" width="38" height="22" rx="11" fill="#EAFEF1"/>
</g>
<g style="mix-blend-mode:multiply">
<rect x="198.5" y="141.407" width="38" height="22" rx="11" fill="#EAFEF1"/>
</g>
<g style="mix-blend-mode:multiply">
<rect x="197" y="173.407" width="38" height="22" rx="11" fill="#EAFEF1"/>
</g>
<path opacity="0.2" d="M295.781 134.907L196.781 120.907L96 134.907L103 235.407L154.5 299.907L251.5 328.907L258 228.407L295.781 134.907Z" fill="#6773B0"/>
<path d="M295.781 134.907L196.781 120.907L96 134.907L103 235.407L154.5 299.907L251.5 328.907L258 228.407L295.781 134.907Z" stroke="#6773B0" stroke-width="2" stroke-linecap="round" stroke-linejoin="round"/>
<path opacity="0.2" d="M321 114.907L196.781 152.907L71 114.907V242.407H182.5L237 299.907L226.5 220.907L321 114.907Z" fill="#EE46BC"/>
<path d="M321 114.907L196.781 152.907L71 114.907V242.407H182.5L237 299.907L226.5 220.907L321 114.907Z" stroke="#EE46BC" stroke-width="2" stroke-linecap="round" stroke-linejoin="round"/>
<path opacity="0.2" d="M298.102 169.362L216.861 96.6196L161.449 191.405L45.1837 274.066L185.694 297.762L231.429 265.8L317.939 257.534L298.102 169.362Z" fill="#026E78"/>
<path d="M298.102 169.362L216.861 96.6196L161.449 191.405L45.1837 274.066L185.694 297.762L231.429 265.8L317.939 257.534L298.102 169.362Z" stroke="#026E78" stroke-width="2" stroke-linecap="round" stroke-linejoin="round"/>
</svg>
