<svg width="1248" height="92" viewBox="0 0 1248 92" fill="none" xmlns="http://www.w3.org/2000/svg">
<rect x="0.5" y="0.5" width="1247" height="91" rx="4.5" fill="white"/>
<rect x="0.5" y="0.5" width="1247" height="91" rx="4.5" stroke="#7B61FF" stroke-dasharray="10 5"/>
<path d="M18.0123 70V69.148H20.0043V62.392H20.5323L18.2043 63.844V62.848L20.2803 61.54H21.0003V69.148H22.8723V70H18.0123ZM24.9436 71.368L24.4876 71.02C24.7036 70.796 24.8436 70.584 24.9076 70.384C24.9796 70.192 25.0156 69.996 25.0156 69.796L25.2316 70H24.4396V68.776H25.6636V69.64C25.6636 69.96 25.6116 70.26 25.5076 70.54C25.4036 70.828 25.2156 71.104 24.9436 71.368ZM30.0141 70.108C29.0541 70.108 28.3181 69.736 27.8061 68.992C27.2941 68.248 27.0381 67.172 27.0381 65.764C27.0381 64.348 27.2941 63.272 27.8061 62.536C28.3181 61.8 29.0541 61.432 30.0141 61.432C30.9821 61.432 31.7181 61.8 32.2221 62.536C32.7341 63.272 32.9901 64.344 32.9901 65.752C32.9901 67.168 32.7341 68.248 32.2221 68.992C31.7101 69.736 30.9741 70.108 30.0141 70.108ZM30.0141 69.244C30.6861 69.244 31.1861 68.96 31.5141 68.392C31.8421 67.824 32.0061 66.944 32.0061 65.752C32.0061 64.552 31.8421 63.676 31.5141 63.124C31.1861 62.564 30.6861 62.284 30.0141 62.284C29.3501 62.284 28.8501 62.564 28.5141 63.124C28.1861 63.684 28.0221 64.56 28.0221 65.752C28.0221 66.944 28.1861 67.824 28.5141 68.392C28.8501 68.96 29.3501 69.244 30.0141 69.244ZM37.2094 70.108C36.2494 70.108 35.5134 69.736 35.0014 68.992C34.4894 68.248 34.2334 67.172 34.2334 65.764C34.2334 64.348 34.4894 63.272 35.0014 62.536C35.5134 61.8 36.2494 61.432 37.2094 61.432C38.1774 61.432 38.9134 61.8 39.4174 62.536C39.9294 63.272 40.1854 64.344 40.1854 65.752C40.1854 67.168 39.9294 68.248 39.4174 68.992C38.9054 69.736 38.1694 70.108 37.2094 70.108ZM37.2094 69.244C37.8814 69.244 38.3814 68.96 38.7094 68.392C39.0374 67.824 39.2014 66.944 39.2014 65.752C39.2014 64.552 39.0374 63.676 38.7094 63.124C38.3814 62.564 37.8814 62.284 37.2094 62.284C36.5454 62.284 36.0454 62.564 35.7094 63.124C35.3814 63.684 35.2174 64.56 35.2174 65.752C35.2174 66.944 35.3814 67.824 35.7094 68.392C36.0454 68.96 36.5454 69.244 37.2094 69.244ZM44.4047 70.108C43.4447 70.108 42.7087 69.736 42.1967 68.992C41.6847 68.248 41.4287 67.172 41.4287 65.764C41.4287 64.348 41.6847 63.272 42.1967 62.536C42.7087 61.8 43.4447 61.432 44.4047 61.432C45.3727 61.432 46.1087 61.8 46.6127 62.536C47.1247 63.272 47.3807 64.344 47.3807 65.752C47.3807 67.168 47.1247 68.248 46.6127 68.992C46.1007 69.736 45.3647 70.108 44.4047 70.108ZM44.4047 69.244C45.0767 69.244 45.5767 68.96 45.9047 68.392C46.2327 67.824 46.3967 66.944 46.3967 65.752C46.3967 64.552 46.2327 63.676 45.9047 63.124C45.5767 62.564 45.0767 62.284 44.4047 62.284C43.7407 62.284 43.2407 62.564 42.9047 63.124C42.5767 63.684 42.4127 64.56 42.4127 65.752C42.4127 66.944 42.5767 67.824 42.9047 68.392C43.2407 68.96 43.7407 69.244 44.4047 69.244Z" fill="#667085"/>
<line x1="56.5" y1="65" x2="1231.5" y2="65" stroke="#F2F4F7" stroke-linecap="round"/>
<line x1="0.5" y1="35" x2="1215.5" y2="35" stroke="#F2F4F7" stroke-linecap="round"/>
</svg>
