<svg width="1248" height="269" viewBox="0 0 1248 269" fill="none" xmlns="http://www.w3.org/2000/svg">
<rect x="0.5" y="0.5" width="1247" height="268" rx="4.5" fill="white"/>
<rect x="0.5" y="0.5" width="1247" height="268" rx="4.5" stroke="#7B61FF" stroke-dasharray="10 5"/>
<path d="M41.3601 96.232C41.2321 96.232 41.0841 96.224 40.9161 96.208C40.7561 96.2 40.5921 96.176 40.4241 96.136V95.308C40.5761 95.34 40.7161 95.364 40.8441 95.38C40.9801 95.404 41.1001 95.416 41.2041 95.416C41.5721 95.416 41.8481 95.3 42.0321 95.068C42.2161 94.844 42.3081 94.484 42.3081 93.988V85.54H43.3041V94C43.3041 94.48 43.2321 94.888 43.0881 95.224C42.9521 95.56 42.7401 95.812 42.4521 95.98C42.1721 96.148 41.8081 96.232 41.3601 96.232ZM47.6013 94.108C47.0653 94.108 46.5973 93.984 46.1973 93.736C45.7973 93.48 45.4853 93.12 45.2613 92.656C45.0453 92.192 44.9373 91.636 44.9373 90.988C44.9373 90.332 45.0453 89.772 45.2613 89.308C45.4853 88.844 45.7973 88.488 46.1973 88.24C46.5973 87.992 47.0653 87.868 47.6013 87.868C48.1453 87.868 48.6133 88.008 49.0053 88.288C49.4053 88.56 49.6693 88.932 49.7973 89.404H49.6533L49.7853 87.976H50.7213C50.6973 88.208 50.6733 88.444 50.6493 88.684C50.6333 88.916 50.6253 89.144 50.6253 89.368V94H49.6533V92.584H49.7853C49.6573 93.056 49.3933 93.428 48.9933 93.7C48.5933 93.972 48.1293 94.108 47.6013 94.108ZM47.7933 93.316C48.3693 93.316 48.8253 93.12 49.1613 92.728C49.4973 92.328 49.6653 91.748 49.6653 90.988C49.6653 90.22 49.4973 89.64 49.1613 89.248C48.8253 88.848 48.3693 88.648 47.7933 88.648C47.2253 88.648 46.7693 88.848 46.4253 89.248C46.0893 89.64 45.9213 90.22 45.9213 90.988C45.9213 91.748 46.0893 92.328 46.4253 92.728C46.7693 93.12 47.2253 93.316 47.7933 93.316ZM52.5046 94V89.368C52.5046 89.144 52.4926 88.916 52.4686 88.684C52.4526 88.444 52.4326 88.208 52.4086 87.976H53.3446L53.4646 89.296H53.3206C53.4966 88.832 53.7766 88.48 54.1606 88.24C54.5526 87.992 55.0046 87.868 55.5166 87.868C56.2286 87.868 56.7646 88.06 57.1246 88.444C57.4926 88.82 57.6766 89.416 57.6766 90.232V94H56.7046V90.292C56.7046 89.724 56.5886 89.312 56.3566 89.056C56.1326 88.792 55.7806 88.66 55.3006 88.66C54.7406 88.66 54.2966 88.832 53.9686 89.176C53.6406 89.52 53.4766 89.98 53.4766 90.556V94H52.5046Z" fill="#667085"/>
<path d="M143.982 94V85.54H149.262V86.356H144.978V89.32H148.998V90.136H144.978V94H143.982ZM153.066 94.108C152.122 94.108 151.378 93.836 150.834 93.292C150.29 92.74 150.018 91.976 150.018 91C150.018 90.368 150.138 89.82 150.378 89.356C150.618 88.884 150.954 88.52 151.386 88.264C151.818 88 152.314 87.868 152.874 87.868C153.426 87.868 153.89 87.984 154.266 88.216C154.642 88.448 154.93 88.78 155.13 89.212C155.33 89.636 155.43 90.14 155.43 90.724V91.084H150.762V90.472H154.794L154.59 90.628C154.59 89.988 154.446 89.488 154.158 89.128C153.87 88.768 153.442 88.588 152.874 88.588C152.274 88.588 151.806 88.8 151.47 89.224C151.134 89.64 150.966 90.204 150.966 90.916V91.024C150.966 91.776 151.15 92.348 151.518 92.74C151.894 93.124 152.418 93.316 153.09 93.316C153.45 93.316 153.786 93.264 154.098 93.16C154.418 93.048 154.722 92.868 155.01 92.62L155.346 93.304C155.082 93.56 154.746 93.76 154.338 93.904C153.938 94.04 153.514 94.108 153.066 94.108ZM159.941 94.108C159.397 94.108 158.929 93.972 158.537 93.7C158.145 93.42 157.881 93.04 157.745 92.56H157.877V94H156.917V85.168H157.889V89.38H157.745C157.881 88.916 158.145 88.548 158.537 88.276C158.929 88.004 159.397 87.868 159.941 87.868C160.485 87.868 160.953 87.996 161.345 88.252C161.745 88.5 162.053 88.856 162.269 89.32C162.493 89.784 162.605 90.34 162.605 90.988C162.605 91.636 162.493 92.192 162.269 92.656C162.045 93.12 161.733 93.48 161.333 93.736C160.941 93.984 160.477 94.108 159.941 94.108ZM159.737 93.316C160.305 93.316 160.761 93.12 161.105 92.728C161.449 92.336 161.621 91.756 161.621 90.988C161.621 90.22 161.449 89.64 161.105 89.248C160.761 88.848 160.305 88.648 159.737 88.648C159.169 88.648 158.713 88.848 158.369 89.248C158.033 89.64 157.865 90.22 157.865 90.988C157.865 91.748 158.033 92.328 158.369 92.728C158.713 93.12 159.169 93.316 159.737 93.316Z" fill="#667085"/>
<path d="M248.231 94V85.54H249.095L252.491 93.208H252.143L255.539 85.54H256.403V94H255.491V86.824H255.851L252.647 94H251.987L248.771 86.824H249.131V94H248.231ZM260.704 94.108C260.168 94.108 259.7 93.984 259.3 93.736C258.9 93.48 258.588 93.12 258.364 92.656C258.148 92.192 258.04 91.636 258.04 90.988C258.04 90.332 258.148 89.772 258.364 89.308C258.588 88.844 258.9 88.488 259.3 88.24C259.7 87.992 260.168 87.868 260.704 87.868C261.248 87.868 261.716 88.008 262.108 88.288C262.508 88.56 262.772 88.932 262.9 89.404H262.756L262.888 87.976H263.824C263.8 88.208 263.776 88.444 263.752 88.684C263.736 88.916 263.728 89.144 263.728 89.368V94H262.756V92.584H262.888C262.76 93.056 262.496 93.428 262.096 93.7C261.696 93.972 261.232 94.108 260.704 94.108ZM260.896 93.316C261.472 93.316 261.928 93.12 262.264 92.728C262.6 92.328 262.768 91.748 262.768 90.988C262.768 90.22 262.6 89.64 262.264 89.248C261.928 88.848 261.472 88.648 260.896 88.648C260.328 88.648 259.872 88.848 259.528 89.248C259.192 89.64 259.024 90.22 259.024 90.988C259.024 91.748 259.192 92.328 259.528 92.728C259.872 93.12 260.328 93.316 260.896 93.316ZM265.583 94V89.428C265.583 89.188 265.575 88.944 265.559 88.696C265.551 88.448 265.535 88.208 265.511 87.976H266.447L266.567 89.44L266.399 89.452C266.479 89.092 266.619 88.796 266.819 88.564C267.019 88.332 267.255 88.16 267.527 88.048C267.799 87.928 268.083 87.868 268.379 87.868C268.499 87.868 268.603 87.872 268.691 87.88C268.787 87.888 268.875 87.908 268.955 87.94L268.943 88.804C268.823 88.764 268.711 88.74 268.607 88.732C268.511 88.716 268.399 88.708 268.271 88.708C267.919 88.708 267.611 88.792 267.347 88.96C267.091 89.128 266.895 89.344 266.759 89.608C266.631 89.872 266.567 90.152 266.567 90.448V94H265.583Z" fill="#667085"/>
<path d="M353.163 94L356.895 85.54H357.759L361.551 94H360.519L359.463 91.588L359.907 91.84H354.735L355.215 91.588L354.183 94H353.163ZM357.315 86.68L355.371 91.24L355.083 91.024H359.547L359.331 91.24L357.339 86.68H357.315ZM362.719 96.592V89.368C362.719 89.144 362.707 88.916 362.683 88.684C362.667 88.444 362.647 88.208 362.623 87.976H363.559L363.691 89.404H363.547C363.675 88.932 363.935 88.56 364.327 88.288C364.719 88.008 365.187 87.868 365.731 87.868C366.275 87.868 366.743 87.992 367.135 88.24C367.535 88.488 367.847 88.844 368.071 89.308C368.295 89.772 368.407 90.332 368.407 90.988C368.407 91.636 368.295 92.192 368.071 92.656C367.855 93.12 367.547 93.48 367.147 93.736C366.747 93.984 366.275 94.108 365.731 94.108C365.195 94.108 364.731 93.972 364.339 93.7C363.947 93.428 363.687 93.056 363.559 92.584H363.691V96.592H362.719ZM365.539 93.316C366.115 93.316 366.571 93.12 366.907 92.728C367.251 92.328 367.423 91.748 367.423 90.988C367.423 90.22 367.251 89.64 366.907 89.248C366.571 88.848 366.115 88.648 365.539 88.648C364.971 88.648 364.515 88.848 364.171 89.248C363.835 89.64 363.667 90.22 363.667 90.988C363.667 91.748 363.835 92.328 364.171 92.728C364.515 93.12 364.971 93.316 365.539 93.316ZM369.89 94V89.428C369.89 89.188 369.882 88.944 369.866 88.696C369.858 88.448 369.842 88.208 369.818 87.976H370.754L370.874 89.44L370.706 89.452C370.786 89.092 370.926 88.796 371.126 88.564C371.326 88.332 371.562 88.16 371.834 88.048C372.106 87.928 372.39 87.868 372.686 87.868C372.806 87.868 372.91 87.872 372.998 87.88C373.094 87.888 373.182 87.908 373.262 87.94L373.25 88.804C373.13 88.764 373.018 88.74 372.914 88.732C372.818 88.716 372.706 88.708 372.578 88.708C372.226 88.708 371.918 88.792 371.654 88.96C371.398 89.128 371.202 89.344 371.066 89.608C370.938 89.872 370.874 90.152 370.874 90.448V94H369.89Z" fill="#667085"/>
<path d="M458.344 94V85.54H459.208L462.604 93.208H462.256L465.652 85.54H466.516V94H465.604V86.824H465.964L462.76 94H462.1L458.884 86.824H459.244V94H458.344ZM470.816 94.108C470.28 94.108 469.812 93.984 469.412 93.736C469.012 93.48 468.7 93.12 468.476 92.656C468.26 92.192 468.152 91.636 468.152 90.988C468.152 90.332 468.26 89.772 468.476 89.308C468.7 88.844 469.012 88.488 469.412 88.24C469.812 87.992 470.28 87.868 470.816 87.868C471.36 87.868 471.828 88.008 472.22 88.288C472.62 88.56 472.884 88.932 473.012 89.404H472.868L473 87.976H473.936C473.912 88.208 473.888 88.444 473.864 88.684C473.848 88.916 473.84 89.144 473.84 89.368V94H472.868V92.584H473C472.872 93.056 472.608 93.428 472.208 93.7C471.808 93.972 471.344 94.108 470.816 94.108ZM471.008 93.316C471.584 93.316 472.04 93.12 472.376 92.728C472.712 92.328 472.88 91.748 472.88 90.988C472.88 90.22 472.712 89.64 472.376 89.248C472.04 88.848 471.584 88.648 471.008 88.648C470.44 88.648 469.984 88.848 469.64 89.248C469.304 89.64 469.136 90.22 469.136 90.988C469.136 91.748 469.304 92.328 469.64 92.728C469.984 93.12 470.44 93.316 471.008 93.316ZM475.421 96.724L475.193 95.92C475.569 95.832 475.881 95.728 476.129 95.608C476.385 95.496 476.597 95.344 476.765 95.152C476.933 94.96 477.077 94.72 477.197 94.432L477.509 93.724L477.485 94.132L474.857 87.976H475.913L478.085 93.268H477.773L479.921 87.976H480.941L478.157 94.504C477.997 94.888 477.821 95.208 477.629 95.464C477.437 95.728 477.229 95.94 477.005 96.1C476.789 96.268 476.549 96.4 476.285 96.496C476.021 96.592 475.733 96.668 475.421 96.724Z" fill="#667085"/>
<path d="M565.722 96.232C565.594 96.232 565.446 96.224 565.278 96.208C565.118 96.2 564.954 96.176 564.786 96.136V95.308C564.938 95.34 565.078 95.364 565.206 95.38C565.342 95.404 565.462 95.416 565.566 95.416C565.934 95.416 566.21 95.3 566.394 95.068C566.578 94.844 566.67 94.484 566.67 93.988V85.54H567.666V94C567.666 94.48 567.594 94.888 567.45 95.224C567.314 95.56 567.102 95.812 566.814 95.98C566.534 96.148 566.17 96.232 565.722 96.232ZM571.795 94.108C571.083 94.108 570.543 93.912 570.175 93.52C569.815 93.128 569.635 92.528 569.635 91.72V87.976H570.607V91.696C570.607 92.248 570.719 92.656 570.943 92.92C571.167 93.176 571.515 93.304 571.987 93.304C572.515 93.304 572.939 93.132 573.259 92.788C573.579 92.444 573.739 91.984 573.739 91.408V87.976H574.711V94H573.763V92.644H573.919C573.751 93.108 573.479 93.468 573.103 93.724C572.735 93.98 572.299 94.108 571.795 94.108ZM576.597 94V89.368C576.597 89.144 576.585 88.916 576.561 88.684C576.545 88.444 576.525 88.208 576.501 87.976H577.437L577.557 89.296H577.413C577.589 88.832 577.869 88.48 578.253 88.24C578.645 87.992 579.097 87.868 579.609 87.868C580.321 87.868 580.857 88.06 581.217 88.444C581.585 88.82 581.769 89.416 581.769 90.232V94H580.797V90.292C580.797 89.724 580.681 89.312 580.449 89.056C580.225 88.792 579.873 88.66 579.393 88.66C578.833 88.66 578.389 88.832 578.061 89.176C577.733 89.52 577.569 89.98 577.569 90.556V94H576.597Z" fill="#667085"/>
<path d="M667.354 96.232C667.226 96.232 667.078 96.224 666.91 96.208C666.75 96.2 666.586 96.176 666.418 96.136V95.308C666.57 95.34 666.71 95.364 666.838 95.38C666.974 95.404 667.094 95.416 667.198 95.416C667.566 95.416 667.842 95.3 668.026 95.068C668.21 94.844 668.302 94.484 668.302 93.988V85.54H669.298V94C669.298 94.48 669.226 94.888 669.082 95.224C668.946 95.56 668.734 95.812 668.446 95.98C668.166 96.148 667.802 96.232 667.354 96.232ZM673.427 94.108C672.715 94.108 672.175 93.912 671.807 93.52C671.447 93.128 671.267 92.528 671.267 91.72V87.976H672.239V91.696C672.239 92.248 672.351 92.656 672.575 92.92C672.799 93.176 673.147 93.304 673.619 93.304C674.147 93.304 674.571 93.132 674.891 92.788C675.211 92.444 675.371 91.984 675.371 91.408V87.976H676.343V94H675.395V92.644H675.551C675.383 93.108 675.111 93.468 674.735 93.724C674.367 93.98 673.931 94.108 673.427 94.108ZM678.229 94V85.168H679.201V94H678.229Z" fill="#667085"/>
<path d="M764.044 94L767.776 85.54H768.64L772.432 94H771.4L770.344 91.588L770.788 91.84H765.616L766.096 91.588L765.064 94H764.044ZM768.196 86.68L766.252 91.24L765.964 91.024H770.428L770.212 91.24L768.22 86.68H768.196ZM775.724 94.108C775.012 94.108 774.472 93.912 774.104 93.52C773.744 93.128 773.564 92.528 773.564 91.72V87.976H774.536V91.696C774.536 92.248 774.648 92.656 774.872 92.92C775.096 93.176 775.444 93.304 775.916 93.304C776.444 93.304 776.868 93.132 777.188 92.788C777.508 92.444 777.668 91.984 777.668 91.408V87.976H778.64V94H777.692V92.644H777.848C777.68 93.108 777.408 93.468 777.032 93.724C776.664 93.98 776.228 94.108 775.724 94.108ZM783.178 96.676C782.658 96.676 782.178 96.612 781.738 96.484C781.298 96.356 780.902 96.16 780.55 95.896L780.838 95.164C781.086 95.34 781.33 95.48 781.57 95.584C781.81 95.688 782.058 95.764 782.314 95.812C782.57 95.868 782.842 95.896 783.13 95.896C783.722 95.896 784.17 95.74 784.474 95.428C784.778 95.116 784.93 94.672 784.93 94.096V92.332H785.05C784.922 92.804 784.658 93.18 784.258 93.46C783.858 93.732 783.39 93.868 782.854 93.868C782.302 93.868 781.822 93.748 781.414 93.508C781.014 93.26 780.702 92.912 780.478 92.464C780.262 92.008 780.154 91.472 780.154 90.856C780.154 90.248 780.262 89.72 780.478 89.272C780.702 88.824 781.014 88.48 781.414 88.24C781.822 87.992 782.302 87.868 782.854 87.868C783.398 87.868 783.866 88.004 784.258 88.276C784.658 88.548 784.922 88.924 785.05 89.404L784.93 89.284L785.038 87.976H785.986C785.954 88.208 785.93 88.444 785.914 88.684C785.898 88.916 785.89 89.144 785.89 89.368V93.964C785.89 94.86 785.658 95.536 785.194 95.992C784.738 96.448 784.066 96.676 783.178 96.676ZM783.034 93.076C783.618 93.076 784.078 92.884 784.414 92.5C784.75 92.108 784.918 91.56 784.918 90.856C784.918 90.152 784.75 89.608 784.414 89.224C784.078 88.84 783.618 88.648 783.034 88.648C782.458 88.648 781.998 88.84 781.654 89.224C781.31 89.608 781.138 90.152 781.138 90.856C781.138 91.56 781.31 92.108 781.654 92.5C781.998 92.884 782.458 93.076 783.034 93.076Z" fill="#667085"/>
<path d="M874.58 94.108C873.9 94.108 873.292 94.02 872.756 93.844C872.22 93.668 871.752 93.416 871.352 93.088L871.712 92.296C871.992 92.504 872.272 92.68 872.552 92.824C872.84 92.96 873.148 93.064 873.476 93.136C873.804 93.2 874.172 93.232 874.58 93.232C875.292 93.232 875.82 93.1 876.164 92.836C876.508 92.572 876.68 92.22 876.68 91.78C876.68 91.404 876.56 91.116 876.32 90.916C876.08 90.716 875.66 90.556 875.06 90.436L873.8 90.184C873.024 90.024 872.444 89.764 872.06 89.404C871.684 89.044 871.496 88.556 871.496 87.94C871.496 87.436 871.624 86.996 871.88 86.62C872.144 86.244 872.512 85.952 872.984 85.744C873.456 85.536 874.004 85.432 874.628 85.432C875.228 85.432 875.776 85.524 876.272 85.708C876.768 85.884 877.192 86.144 877.544 86.488L877.196 87.256C876.82 86.92 876.424 86.68 876.008 86.536C875.6 86.384 875.136 86.308 874.616 86.308C873.96 86.308 873.44 86.452 873.056 86.74C872.68 87.02 872.492 87.404 872.492 87.892C872.492 88.284 872.612 88.592 872.852 88.816C873.092 89.032 873.488 89.196 874.04 89.308L875.312 89.56C876.128 89.728 876.728 89.98 877.112 90.316C877.496 90.652 877.688 91.124 877.688 91.732C877.688 92.196 877.56 92.608 877.304 92.968C877.056 93.328 876.7 93.608 876.236 93.808C875.772 94.008 875.22 94.108 874.58 94.108ZM881.865 94.108C880.921 94.108 880.177 93.836 879.633 93.292C879.089 92.74 878.817 91.976 878.817 91C878.817 90.368 878.937 89.82 879.177 89.356C879.417 88.884 879.753 88.52 880.185 88.264C880.617 88 881.113 87.868 881.673 87.868C882.225 87.868 882.689 87.984 883.065 88.216C883.441 88.448 883.729 88.78 883.929 89.212C884.129 89.636 884.229 90.14 884.229 90.724V91.084H879.561V90.472H883.593L883.389 90.628C883.389 89.988 883.245 89.488 882.957 89.128C882.669 88.768 882.241 88.588 881.673 88.588C881.073 88.588 880.605 88.8 880.269 89.224C879.933 89.64 879.765 90.204 879.765 90.916V91.024C879.765 91.776 879.949 92.348 880.317 92.74C880.693 93.124 881.217 93.316 881.889 93.316C882.249 93.316 882.585 93.264 882.897 93.16C883.217 93.048 883.521 92.868 883.809 92.62L884.145 93.304C883.881 93.56 883.545 93.76 883.137 93.904C882.737 94.04 882.313 94.108 881.865 94.108ZM885.716 96.592V89.368C885.716 89.144 885.704 88.916 885.68 88.684C885.664 88.444 885.644 88.208 885.62 87.976H886.556L886.688 89.404H886.544C886.672 88.932 886.932 88.56 887.324 88.288C887.716 88.008 888.184 87.868 888.728 87.868C889.272 87.868 889.74 87.992 890.132 88.24C890.532 88.488 890.844 88.844 891.068 89.308C891.292 89.772 891.404 90.332 891.404 90.988C891.404 91.636 891.292 92.192 891.068 92.656C890.852 93.12 890.544 93.48 890.144 93.736C889.744 93.984 889.272 94.108 888.728 94.108C888.192 94.108 887.728 93.972 887.336 93.7C886.944 93.428 886.684 93.056 886.556 92.584H886.688V96.592H885.716ZM888.536 93.316C889.112 93.316 889.568 93.12 889.904 92.728C890.248 92.328 890.42 91.748 890.42 90.988C890.42 90.22 890.248 89.64 889.904 89.248C889.568 88.848 889.112 88.648 888.536 88.648C887.968 88.648 887.512 88.848 887.168 89.248C886.832 89.64 886.664 90.22 886.664 90.988C886.664 91.748 886.832 92.328 887.168 92.728C887.512 93.12 887.968 93.316 888.536 93.316Z" fill="#667085"/>
<path d="M976.95 89.764C976.95 88.868 977.102 88.1 977.406 87.46C977.718 86.812 978.162 86.312 978.738 85.96C979.322 85.608 980.022 85.432 980.838 85.432C981.63 85.432 982.318 85.608 982.902 85.96C983.486 86.312 983.934 86.812 984.246 87.46C984.566 88.1 984.726 88.864 984.726 89.752C984.726 90.648 984.566 91.42 984.246 92.068C983.926 92.716 983.474 93.22 982.89 93.58C982.314 93.932 981.63 94.108 980.838 94.108C980.022 94.108 979.326 93.932 978.75 93.58C978.174 93.22 977.73 92.716 977.418 92.068C977.106 91.42 976.95 90.652 976.95 89.764ZM977.994 89.764C977.994 90.852 978.234 91.704 978.714 92.32C979.194 92.928 979.902 93.232 980.838 93.232C981.734 93.232 982.43 92.928 982.926 92.32C983.43 91.704 983.682 90.852 983.682 89.764C983.682 88.668 983.434 87.82 982.938 87.22C982.442 86.612 981.742 86.308 980.838 86.308C979.902 86.308 979.194 86.612 978.714 87.22C978.234 87.82 977.994 88.668 977.994 89.764ZM988.956 94.108C988.364 94.108 987.848 93.98 987.408 93.724C986.976 93.468 986.64 93.104 986.4 92.632C986.168 92.16 986.052 91.6 986.052 90.952C986.052 90.296 986.172 89.74 986.412 89.284C986.652 88.82 986.988 88.468 987.42 88.228C987.86 87.988 988.372 87.868 988.956 87.868C989.34 87.868 989.712 87.936 990.072 88.072C990.44 88.208 990.744 88.4 990.984 88.648L990.636 89.344C990.396 89.112 990.132 88.94 989.844 88.828C989.564 88.716 989.288 88.66 989.016 88.66C988.392 88.66 987.908 88.856 987.564 89.248C987.22 89.64 987.048 90.212 987.048 90.964C987.048 91.708 987.22 92.284 987.564 92.692C987.908 93.1 988.392 93.304 989.016 93.304C989.28 93.304 989.552 93.252 989.832 93.148C990.12 93.044 990.388 92.872 990.636 92.632L990.984 93.316C990.736 93.572 990.428 93.768 990.06 93.904C989.692 94.04 989.324 94.108 988.956 94.108ZM994.501 94.108C993.909 94.108 993.457 93.94 993.145 93.604C992.833 93.26 992.677 92.744 992.677 92.056V88.732H991.501V87.976H992.677V86.332L993.649 86.056V87.976H995.377V88.732H993.649V91.948C993.649 92.428 993.729 92.772 993.889 92.98C994.057 93.18 994.305 93.28 994.633 93.28C994.785 93.28 994.921 93.268 995.041 93.244C995.161 93.212 995.269 93.176 995.365 93.136V93.952C995.253 94 995.117 94.036 994.957 94.06C994.805 94.092 994.653 94.108 994.501 94.108Z" fill="#667085"/>
<path d="M1080.95 94V85.54H1081.73L1087.16 92.74H1086.88V85.54H1087.81V94H1087.04L1081.61 86.8H1081.88V94H1080.95ZM1092.28 94.108C1091.71 94.108 1091.2 93.984 1090.77 93.736C1090.35 93.48 1090.02 93.12 1089.79 92.656C1089.55 92.184 1089.44 91.628 1089.44 90.988C1089.44 90.34 1089.55 89.784 1089.79 89.32C1090.02 88.856 1090.35 88.5 1090.77 88.252C1091.2 87.996 1091.71 87.868 1092.28 87.868C1092.87 87.868 1093.37 87.996 1093.79 88.252C1094.23 88.5 1094.56 88.856 1094.79 89.32C1095.03 89.784 1095.15 90.34 1095.15 90.988C1095.15 91.628 1095.03 92.184 1094.79 92.656C1094.56 93.12 1094.23 93.48 1093.79 93.736C1093.37 93.984 1092.87 94.108 1092.28 94.108ZM1092.28 93.316C1092.86 93.316 1093.31 93.12 1093.65 92.728C1093.99 92.328 1094.15 91.748 1094.15 90.988C1094.15 90.22 1093.98 89.64 1093.64 89.248C1093.3 88.848 1092.85 88.648 1092.28 88.648C1091.71 88.648 1091.26 88.848 1090.93 89.248C1090.59 89.64 1090.42 90.22 1090.42 90.988C1090.42 91.748 1090.59 92.328 1090.93 92.728C1091.26 93.12 1091.71 93.316 1092.28 93.316ZM1098.36 94L1095.78 87.976H1096.84L1099 93.28H1098.67L1100.86 87.976H1101.86L1099.28 94H1098.36Z" fill="#667085"/>
<path d="M1187.34 94V85.54H1190.15C1191.08 85.54 1191.88 85.704 1192.52 86.032C1193.17 86.352 1193.66 86.828 1194 87.46C1194.34 88.084 1194.5 88.852 1194.5 89.764C1194.5 90.668 1194.34 91.436 1194 92.068C1193.66 92.7 1193.17 93.18 1192.52 93.508C1191.88 93.836 1191.08 94 1190.15 94H1187.34ZM1188.34 93.148H1190.08C1191.23 93.148 1192.08 92.868 1192.64 92.308C1193.2 91.74 1193.48 90.892 1193.48 89.764C1193.48 88.628 1193.2 87.78 1192.64 87.22C1192.08 86.66 1191.23 86.38 1190.08 86.38H1188.34V93.148ZM1198.87 94.108C1197.93 94.108 1197.18 93.836 1196.64 93.292C1196.1 92.74 1195.82 91.976 1195.82 91C1195.82 90.368 1195.94 89.82 1196.18 89.356C1196.42 88.884 1196.76 88.52 1197.19 88.264C1197.62 88 1198.12 87.868 1198.68 87.868C1199.23 87.868 1199.7 87.984 1200.07 88.216C1200.45 88.448 1200.74 88.78 1200.94 89.212C1201.14 89.636 1201.24 90.14 1201.24 90.724V91.084H1196.57V90.472H1200.6L1200.4 90.628C1200.4 89.988 1200.25 89.488 1199.96 89.128C1199.68 88.768 1199.25 88.588 1198.68 88.588C1198.08 88.588 1197.61 88.8 1197.28 89.224C1196.94 89.64 1196.77 90.204 1196.77 90.916V91.024C1196.77 91.776 1196.96 92.348 1197.32 92.74C1197.7 93.124 1198.22 93.316 1198.9 93.316C1199.26 93.316 1199.59 93.264 1199.9 93.16C1200.22 93.048 1200.53 92.868 1200.82 92.62L1201.15 93.304C1200.89 93.56 1200.55 93.76 1200.14 93.904C1199.74 94.04 1199.32 94.108 1198.87 94.108ZM1205.26 94.108C1204.66 94.108 1204.15 93.98 1203.71 93.724C1203.28 93.468 1202.94 93.104 1202.7 92.632C1202.47 92.16 1202.35 91.6 1202.35 90.952C1202.35 90.296 1202.47 89.74 1202.71 89.284C1202.95 88.82 1203.29 88.468 1203.72 88.228C1204.16 87.988 1204.67 87.868 1205.26 87.868C1205.64 87.868 1206.01 87.936 1206.37 88.072C1206.74 88.208 1207.04 88.4 1207.28 88.648L1206.94 89.344C1206.7 89.112 1206.43 88.94 1206.14 88.828C1205.86 88.716 1205.59 88.66 1205.32 88.66C1204.69 88.66 1204.21 88.856 1203.86 89.248C1203.52 89.64 1203.35 90.212 1203.35 90.964C1203.35 91.708 1203.52 92.284 1203.86 92.692C1204.21 93.1 1204.69 93.304 1205.32 93.304C1205.58 93.304 1205.85 93.252 1206.13 93.148C1206.42 93.044 1206.69 92.872 1206.94 92.632L1207.28 93.316C1207.04 93.572 1206.73 93.768 1206.36 93.904C1205.99 94.04 1205.62 94.108 1205.26 94.108Z" fill="#667085"/>
<path d="M25.7722 240.232C25.6442 240.232 25.4962 240.224 25.3282 240.208C25.1682 240.2 25.0042 240.176 24.8362 240.136V239.308C24.9882 239.34 25.1282 239.364 25.2562 239.38C25.3922 239.404 25.5122 239.416 25.6162 239.416C25.9842 239.416 26.2602 239.3 26.4442 239.068C26.6282 238.844 26.7202 238.484 26.7202 237.988V229.54H27.7162V238C27.7162 238.48 27.6442 238.888 27.5002 239.224C27.3642 239.56 27.1522 239.812 26.8642 239.98C26.5842 240.148 26.2202 240.232 25.7722 240.232ZM32.0134 238.108C31.4774 238.108 31.0094 237.984 30.6094 237.736C30.2094 237.48 29.8974 237.12 29.6734 236.656C29.4574 236.192 29.3494 235.636 29.3494 234.988C29.3494 234.332 29.4574 233.772 29.6734 233.308C29.8974 232.844 30.2094 232.488 30.6094 232.24C31.0094 231.992 31.4774 231.868 32.0134 231.868C32.5574 231.868 33.0254 232.008 33.4174 232.288C33.8174 232.56 34.0814 232.932 34.2094 233.404H34.0654L34.1974 231.976H35.1334C35.1094 232.208 35.0854 232.444 35.0614 232.684C35.0454 232.916 35.0374 233.144 35.0374 233.368V238H34.0654V236.584H34.1974C34.0694 237.056 33.8054 237.428 33.4054 237.7C33.0054 237.972 32.5414 238.108 32.0134 238.108ZM32.2054 237.316C32.7814 237.316 33.2374 237.12 33.5734 236.728C33.9094 236.328 34.0774 235.748 34.0774 234.988C34.0774 234.22 33.9094 233.64 33.5734 233.248C33.2374 232.848 32.7814 232.648 32.2054 232.648C31.6374 232.648 31.1814 232.848 30.8374 233.248C30.5014 233.64 30.3334 234.22 30.3334 234.988C30.3334 235.748 30.5014 236.328 30.8374 236.728C31.1814 237.12 31.6374 237.316 32.2054 237.316ZM36.9168 238V233.368C36.9168 233.144 36.9048 232.916 36.8808 232.684C36.8648 232.444 36.8448 232.208 36.8208 231.976H37.7568L37.8768 233.296H37.7327C37.9088 232.832 38.1888 232.48 38.5728 232.24C38.9648 231.992 39.4168 231.868 39.9288 231.868C40.6408 231.868 41.1768 232.06 41.5368 232.444C41.9048 232.82 42.0888 233.416 42.0888 234.232V238H41.1168V234.292C41.1168 233.724 41.0008 233.312 40.7688 233.056C40.5448 232.792 40.1928 232.66 39.7128 232.66C39.1528 232.66 38.7088 232.832 38.3808 233.176C38.0528 233.52 37.8888 233.98 37.8888 234.556V238H36.9168Z" fill="#667085"/>
<path d="M74.2125 238V229.54H75.0765L78.4725 237.208H78.1245L81.5205 229.54H82.3845V238H81.4725V230.824H81.8325L78.6285 238H77.9685L74.7525 230.824H75.1125V238H74.2125ZM86.6853 238.108C86.1493 238.108 85.6813 237.984 85.2813 237.736C84.8813 237.48 84.5693 237.12 84.3453 236.656C84.1293 236.192 84.0213 235.636 84.0213 234.988C84.0213 234.332 84.1293 233.772 84.3453 233.308C84.5693 232.844 84.8813 232.488 85.2813 232.24C85.6813 231.992 86.1493 231.868 86.6853 231.868C87.2293 231.868 87.6973 232.008 88.0893 232.288C88.4893 232.56 88.7533 232.932 88.8813 233.404H88.7373L88.8693 231.976H89.8053C89.7813 232.208 89.7573 232.444 89.7333 232.684C89.7173 232.916 89.7093 233.144 89.7093 233.368V238H88.7373V236.584H88.8693C88.7413 237.056 88.4773 237.428 88.0773 237.7C87.6773 237.972 87.2133 238.108 86.6853 238.108ZM86.8773 237.316C87.4533 237.316 87.9093 237.12 88.2453 236.728C88.5813 236.328 88.7493 235.748 88.7493 234.988C88.7493 234.22 88.5813 233.64 88.2453 233.248C87.9093 232.848 87.4533 232.648 86.8773 232.648C86.3093 232.648 85.8533 232.848 85.5093 233.248C85.1733 233.64 85.0053 234.22 85.0053 234.988C85.0053 235.748 85.1733 236.328 85.5093 236.728C85.8533 237.12 86.3093 237.316 86.8773 237.316ZM91.5646 238V233.428C91.5646 233.188 91.5566 232.944 91.5406 232.696C91.5326 232.448 91.5166 232.208 91.4926 231.976H92.4286L92.5486 233.44L92.3806 233.452C92.4606 233.092 92.6006 232.796 92.8006 232.564C93.0006 232.332 93.2366 232.16 93.5086 232.048C93.7806 231.928 94.0646 231.868 94.3606 231.868C94.4806 231.868 94.5846 231.872 94.6726 231.88C94.7686 231.888 94.8566 231.908 94.9366 231.94L94.9246 232.804C94.8046 232.764 94.6926 232.74 94.5886 232.732C94.4926 232.716 94.3806 232.708 94.2526 232.708C93.9006 232.708 93.5926 232.792 93.3286 232.96C93.0726 233.128 92.8766 233.344 92.7406 233.608C92.6126 233.872 92.5486 234.152 92.5486 234.448V238H91.5646Z" fill="#667085"/>
<path d="M126.256 238V229.54H127.12L130.516 237.208H130.168L133.564 229.54H134.428V238H133.516V230.824H133.876L130.672 238H130.012L126.796 230.824H127.156V238H126.256ZM138.728 238.108C138.192 238.108 137.724 237.984 137.324 237.736C136.924 237.48 136.612 237.12 136.388 236.656C136.172 236.192 136.064 235.636 136.064 234.988C136.064 234.332 136.172 233.772 136.388 233.308C136.612 232.844 136.924 232.488 137.324 232.24C137.724 231.992 138.192 231.868 138.728 231.868C139.272 231.868 139.74 232.008 140.132 232.288C140.532 232.56 140.796 232.932 140.924 233.404H140.78L140.912 231.976H141.848C141.824 232.208 141.8 232.444 141.776 232.684C141.76 232.916 141.752 233.144 141.752 233.368V238H140.78V236.584H140.912C140.784 237.056 140.52 237.428 140.12 237.7C139.72 237.972 139.256 238.108 138.728 238.108ZM138.92 237.316C139.496 237.316 139.952 237.12 140.288 236.728C140.624 236.328 140.792 235.748 140.792 234.988C140.792 234.22 140.624 233.64 140.288 233.248C139.952 232.848 139.496 232.648 138.92 232.648C138.352 232.648 137.896 232.848 137.552 233.248C137.216 233.64 137.048 234.22 137.048 234.988C137.048 235.748 137.216 236.328 137.552 236.728C137.896 237.12 138.352 237.316 138.92 237.316ZM143.333 240.724L143.105 239.92C143.481 239.832 143.793 239.728 144.041 239.608C144.297 239.496 144.509 239.344 144.677 239.152C144.845 238.96 144.989 238.72 145.109 238.432L145.421 237.724L145.397 238.132L142.769 231.976H143.825L145.997 237.268H145.685L147.833 231.976H148.853L146.069 238.504C145.909 238.888 145.733 239.208 145.541 239.464C145.349 239.728 145.141 239.94 144.917 240.1C144.701 240.268 144.461 240.4 144.197 240.496C143.933 240.592 143.645 240.668 143.333 240.724Z" fill="#667085"/>
<path d="M180.214 240.232C180.086 240.232 179.938 240.224 179.77 240.208C179.61 240.2 179.446 240.176 179.278 240.136V239.308C179.43 239.34 179.57 239.364 179.698 239.38C179.834 239.404 179.954 239.416 180.058 239.416C180.426 239.416 180.702 239.3 180.886 239.068C181.07 238.844 181.162 238.484 181.162 237.988V229.54H182.158V238C182.158 238.48 182.086 238.888 181.942 239.224C181.806 239.56 181.594 239.812 181.306 239.98C181.026 240.148 180.662 240.232 180.214 240.232ZM186.287 238.108C185.575 238.108 185.035 237.912 184.667 237.52C184.307 237.128 184.127 236.528 184.127 235.72V231.976H185.099V235.696C185.099 236.248 185.211 236.656 185.435 236.92C185.659 237.176 186.007 237.304 186.479 237.304C187.007 237.304 187.431 237.132 187.751 236.788C188.071 236.444 188.231 235.984 188.231 235.408V231.976H189.203V238H188.255V236.644H188.411C188.243 237.108 187.971 237.468 187.595 237.724C187.227 237.98 186.791 238.108 186.287 238.108ZM191.089 238V229.168H192.061V238H191.089Z" fill="#667085"/>
<path d="M227.617 238.108C226.937 238.108 226.329 238.02 225.793 237.844C225.257 237.668 224.789 237.416 224.389 237.088L224.749 236.296C225.029 236.504 225.309 236.68 225.589 236.824C225.877 236.96 226.185 237.064 226.513 237.136C226.841 237.2 227.209 237.232 227.617 237.232C228.329 237.232 228.857 237.1 229.201 236.836C229.545 236.572 229.717 236.22 229.717 235.78C229.717 235.404 229.597 235.116 229.357 234.916C229.117 234.716 228.697 234.556 228.097 234.436L226.837 234.184C226.061 234.024 225.481 233.764 225.097 233.404C224.721 233.044 224.533 232.556 224.533 231.94C224.533 231.436 224.661 230.996 224.917 230.62C225.181 230.244 225.549 229.952 226.021 229.744C226.493 229.536 227.041 229.432 227.665 229.432C228.265 229.432 228.813 229.524 229.309 229.708C229.805 229.884 230.229 230.144 230.581 230.488L230.233 231.256C229.857 230.92 229.461 230.68 229.045 230.536C228.637 230.384 228.173 230.308 227.653 230.308C226.997 230.308 226.477 230.452 226.093 230.74C225.717 231.02 225.529 231.404 225.529 231.892C225.529 232.284 225.649 232.592 225.889 232.816C226.129 233.032 226.525 233.196 227.077 233.308L228.349 233.56C229.165 233.728 229.765 233.98 230.149 234.316C230.533 234.652 230.725 235.124 230.725 235.732C230.725 236.196 230.597 236.608 230.341 236.968C230.093 237.328 229.737 237.608 229.273 237.808C228.809 238.008 228.257 238.108 227.617 238.108ZM234.901 238.108C233.957 238.108 233.213 237.836 232.669 237.292C232.125 236.74 231.853 235.976 231.853 235C231.853 234.368 231.973 233.82 232.213 233.356C232.453 232.884 232.789 232.52 233.221 232.264C233.653 232 234.149 231.868 234.709 231.868C235.261 231.868 235.725 231.984 236.101 232.216C236.477 232.448 236.765 232.78 236.965 233.212C237.165 233.636 237.265 234.14 237.265 234.724V235.084H232.597V234.472H236.629L236.425 234.628C236.425 233.988 236.281 233.488 235.993 233.128C235.705 232.768 235.277 232.588 234.709 232.588C234.109 232.588 233.641 232.8 233.305 233.224C232.969 233.64 232.801 234.204 232.801 234.916V235.024C232.801 235.776 232.985 236.348 233.353 236.74C233.729 237.124 234.253 237.316 234.925 237.316C235.285 237.316 235.621 237.264 235.933 237.16C236.253 237.048 236.557 236.868 236.845 236.62L237.181 237.304C236.917 237.56 236.581 237.76 236.173 237.904C235.773 238.04 235.349 238.108 234.901 238.108ZM238.753 240.592V233.368C238.753 233.144 238.741 232.916 238.717 232.684C238.701 232.444 238.681 232.208 238.657 231.976H239.593L239.725 233.404H239.581C239.709 232.932 239.969 232.56 240.361 232.288C240.753 232.008 241.221 231.868 241.765 231.868C242.309 231.868 242.777 231.992 243.169 232.24C243.569 232.488 243.881 232.844 244.105 233.308C244.329 233.772 244.441 234.332 244.441 234.988C244.441 235.636 244.329 236.192 244.105 236.656C243.889 237.12 243.581 237.48 243.181 237.736C242.781 237.984 242.309 238.108 241.765 238.108C241.229 238.108 240.765 237.972 240.373 237.7C239.981 237.428 239.721 237.056 239.593 236.584H239.725V240.592H238.753ZM241.573 237.316C242.149 237.316 242.605 237.12 242.941 236.728C243.285 236.328 243.457 235.748 243.457 234.988C243.457 234.22 243.285 233.64 242.941 233.248C242.605 232.848 242.149 232.648 241.573 232.648C241.005 232.648 240.549 232.848 240.205 233.248C239.869 233.64 239.701 234.22 239.701 234.988C239.701 235.748 239.869 236.328 240.205 236.728C240.549 237.12 241.005 237.316 241.573 237.316Z" fill="#667085"/>
<path d="M276.943 238V229.54H277.723L283.147 236.74H282.871V229.54H283.795V238H283.027L277.603 230.8H277.867V238H276.943ZM288.272 238.108C287.696 238.108 287.192 237.984 286.76 237.736C286.336 237.48 286.008 237.12 285.776 236.656C285.544 236.184 285.428 235.628 285.428 234.988C285.428 234.34 285.544 233.784 285.776 233.32C286.008 232.856 286.336 232.5 286.76 232.252C287.192 231.996 287.696 231.868 288.272 231.868C288.856 231.868 289.36 231.996 289.784 232.252C290.216 232.5 290.548 232.856 290.78 233.32C291.02 233.784 291.14 234.34 291.14 234.988C291.14 235.628 291.02 236.184 290.78 236.656C290.548 237.12 290.216 237.48 289.784 237.736C289.36 237.984 288.856 238.108 288.272 238.108ZM288.272 237.316C288.848 237.316 289.304 237.12 289.64 236.728C289.976 236.328 290.144 235.748 290.144 234.988C290.144 234.22 289.972 233.64 289.628 233.248C289.292 232.848 288.84 232.648 288.272 232.648C287.704 232.648 287.252 232.848 286.916 233.248C286.58 233.64 286.412 234.22 286.412 234.988C286.412 235.748 286.58 236.328 286.916 236.728C287.252 237.12 287.704 237.316 288.272 237.316ZM294.349 238L291.769 231.976H292.825L294.985 237.28H294.661L296.845 231.976H297.853L295.273 238H294.349Z" fill="#667085"/>
<path d="M329.622 238V229.54H332.43C333.366 229.54 334.158 229.704 334.806 230.032C335.454 230.352 335.946 230.828 336.282 231.46C336.618 232.084 336.786 232.852 336.786 233.764C336.786 234.668 336.618 235.436 336.282 236.068C335.946 236.7 335.454 237.18 334.806 237.508C334.158 237.836 333.366 238 332.43 238H329.622ZM330.618 237.148H332.358C333.51 237.148 334.366 236.868 334.926 236.308C335.486 235.74 335.766 234.892 335.766 233.764C335.766 232.628 335.486 231.78 334.926 231.22C334.366 230.66 333.51 230.38 332.358 230.38H330.618V237.148ZM341.155 238.108C340.211 238.108 339.467 237.836 338.923 237.292C338.379 236.74 338.107 235.976 338.107 235C338.107 234.368 338.227 233.82 338.467 233.356C338.707 232.884 339.043 232.52 339.475 232.264C339.907 232 340.403 231.868 340.963 231.868C341.515 231.868 341.979 231.984 342.355 232.216C342.731 232.448 343.019 232.78 343.219 233.212C343.419 233.636 343.519 234.14 343.519 234.724V235.084H338.851V234.472H342.883L342.679 234.628C342.679 233.988 342.535 233.488 342.247 233.128C341.959 232.768 341.531 232.588 340.963 232.588C340.363 232.588 339.895 232.8 339.559 233.224C339.223 233.64 339.055 234.204 339.055 234.916V235.024C339.055 235.776 339.239 236.348 339.607 236.74C339.983 237.124 340.507 237.316 341.179 237.316C341.539 237.316 341.875 237.264 342.187 237.16C342.507 237.048 342.811 236.868 343.099 236.62L343.435 237.304C343.171 237.56 342.835 237.76 342.427 237.904C342.027 238.04 341.603 238.108 341.155 238.108ZM347.539 238.108C346.947 238.108 346.431 237.98 345.991 237.724C345.559 237.468 345.223 237.104 344.983 236.632C344.751 236.16 344.635 235.6 344.635 234.952C344.635 234.296 344.755 233.74 344.995 233.284C345.235 232.82 345.571 232.468 346.003 232.228C346.443 231.988 346.955 231.868 347.539 231.868C347.923 231.868 348.295 231.936 348.655 232.072C349.023 232.208 349.327 232.4 349.567 232.648L349.219 233.344C348.979 233.112 348.715 232.94 348.427 232.828C348.147 232.716 347.871 232.66 347.599 232.66C346.975 232.66 346.491 232.856 346.147 233.248C345.803 233.64 345.631 234.212 345.631 234.964C345.631 235.708 345.803 236.284 346.147 236.692C346.491 237.1 346.975 237.304 347.599 237.304C347.863 237.304 348.135 237.252 348.415 237.148C348.703 237.044 348.971 236.872 349.219 236.632L349.567 237.316C349.319 237.572 349.011 237.768 348.643 237.904C348.275 238.04 347.907 238.108 347.539 238.108Z" fill="#667085"/>
<path d="M45.4343 62V61.256L48.4343 58.124C48.8263 57.716 49.1183 57.328 49.3103 56.96C49.5103 56.584 49.6103 56.196 49.6103 55.796C49.6103 55.308 49.4583 54.94 49.1543 54.692C48.8503 54.436 48.4103 54.308 47.8343 54.308C47.3863 54.308 46.9703 54.388 46.5863 54.548C46.2103 54.7 45.8463 54.944 45.4943 55.28L45.1343 54.5C45.4543 54.18 45.8623 53.924 46.3583 53.732C46.8543 53.532 47.3783 53.432 47.9303 53.432C48.7863 53.432 49.4463 53.632 49.9103 54.032C50.3743 54.424 50.6063 54.984 50.6063 55.712C50.6063 56.248 50.4743 56.76 50.2103 57.248C49.9543 57.728 49.5783 58.224 49.0823 58.736L46.4303 61.424V61.148H50.9663V62H45.4343Z" fill="#667085"/>
<path d="M131.391 62V60.164H127.359V59.444L131.547 53.54H132.363V59.36H133.659V60.164H132.363V62H131.391ZM131.391 59.36V54.716H131.655L128.175 59.612V59.36H131.391Z" fill="#667085"/>
<path d="M212.993 62.108C211.969 62.108 211.177 61.748 210.617 61.028C210.065 60.3 209.789 59.284 209.789 57.98C209.789 57.004 209.929 56.18 210.209 55.508C210.489 54.828 210.889 54.312 211.409 53.96C211.929 53.608 212.557 53.432 213.293 53.432C213.733 53.432 214.177 53.524 214.625 53.708C215.073 53.884 215.441 54.132 215.729 54.452L215.369 55.22C215.065 54.908 214.733 54.68 214.373 54.536C214.013 54.384 213.649 54.308 213.281 54.308C212.465 54.308 211.837 54.6 211.397 55.184C210.965 55.76 210.749 56.628 210.749 57.788V58.904H210.641C210.697 58.448 210.833 58.056 211.049 57.728C211.273 57.392 211.565 57.136 211.925 56.96C212.285 56.784 212.685 56.696 213.125 56.696C213.637 56.696 214.089 56.808 214.481 57.032C214.873 57.256 215.181 57.572 215.405 57.98C215.629 58.38 215.741 58.84 215.741 59.36C215.741 59.888 215.625 60.36 215.393 60.776C215.161 61.192 214.837 61.52 214.421 61.76C214.005 61.992 213.529 62.108 212.993 62.108ZM212.921 61.268C213.289 61.268 213.613 61.192 213.893 61.04C214.181 60.88 214.401 60.66 214.553 60.38C214.713 60.092 214.793 59.764 214.793 59.396C214.793 59.028 214.713 58.704 214.553 58.424C214.401 58.144 214.181 57.924 213.893 57.764C213.613 57.604 213.289 57.524 212.921 57.524C212.553 57.524 212.229 57.604 211.949 57.764C211.669 57.924 211.449 58.144 211.289 58.424C211.137 58.704 211.061 59.028 211.061 59.396C211.061 59.764 211.137 60.092 211.289 60.38C211.449 60.66 211.669 60.88 211.949 61.04C212.229 61.192 212.553 61.268 212.921 61.268Z" fill="#667085"/>
<path d="M295.074 62.108C294.106 62.108 293.358 61.904 292.83 61.496C292.302 61.08 292.038 60.5 292.038 59.756C292.038 59.172 292.218 58.688 292.578 58.304C292.938 57.912 293.414 57.676 294.006 57.596V57.776C293.47 57.664 293.042 57.42 292.722 57.044C292.402 56.66 292.242 56.208 292.242 55.688C292.242 54.976 292.494 54.424 292.998 54.032C293.502 53.632 294.194 53.432 295.074 53.432C295.962 53.432 296.658 53.632 297.162 54.032C297.666 54.424 297.918 54.976 297.918 55.688C297.918 56.208 297.766 56.66 297.462 57.044C297.166 57.428 296.75 57.668 296.214 57.764V57.596C296.798 57.676 297.262 57.912 297.606 58.304C297.95 58.688 298.122 59.172 298.122 59.756C298.122 60.5 297.858 61.08 297.33 61.496C296.802 61.904 296.05 62.108 295.074 62.108ZM295.074 61.292C295.778 61.292 296.302 61.16 296.646 60.896C296.998 60.632 297.174 60.232 297.174 59.696C297.174 59.168 296.998 58.776 296.646 58.52C296.302 58.256 295.778 58.124 295.074 58.124C294.37 58.124 293.842 58.256 293.49 58.52C293.146 58.776 292.974 59.168 292.974 59.696C292.974 60.232 293.15 60.632 293.502 60.896C293.854 61.16 294.378 61.292 295.074 61.292ZM295.074 57.308C295.682 57.308 296.146 57.172 296.466 56.9C296.794 56.628 296.958 56.252 296.958 55.772C296.958 55.292 296.794 54.92 296.466 54.656C296.146 54.384 295.682 54.248 295.074 54.248C294.466 54.248 293.998 54.384 293.67 54.656C293.35 54.92 293.19 55.292 293.19 55.772C293.19 56.252 293.35 56.628 293.67 56.9C293.998 57.172 294.466 57.308 295.074 57.308Z" fill="#667085"/>
<path d="M371.757 62V61.148H373.749V54.392H374.277L371.949 55.844V54.848L374.025 53.54H374.745V61.148H376.617V62H371.757ZM381.029 62.108C380.069 62.108 379.333 61.736 378.821 60.992C378.309 60.248 378.053 59.172 378.053 57.764C378.053 56.348 378.309 55.272 378.821 54.536C379.333 53.8 380.069 53.432 381.029 53.432C381.997 53.432 382.733 53.8 383.237 54.536C383.749 55.272 384.005 56.344 384.005 57.752C384.005 59.168 383.749 60.248 383.237 60.992C382.725 61.736 381.989 62.108 381.029 62.108ZM381.029 61.244C381.701 61.244 382.201 60.96 382.529 60.392C382.857 59.824 383.021 58.944 383.021 57.752C383.021 56.552 382.857 55.676 382.529 55.124C382.201 54.564 381.701 54.284 381.029 54.284C380.365 54.284 379.865 54.564 379.529 55.124C379.201 55.684 379.037 56.56 379.037 57.752C379.037 58.944 379.201 59.824 379.529 60.392C379.865 60.96 380.365 61.244 381.029 61.244Z" fill="#667085"/>
<path d="M454.114 62V61.148H456.106V54.392H456.634L454.306 55.844V54.848L456.382 53.54H457.102V61.148H458.974V62H454.114ZM460.818 62V61.256L463.818 58.124C464.21 57.716 464.502 57.328 464.694 56.96C464.894 56.584 464.994 56.196 464.994 55.796C464.994 55.308 464.842 54.94 464.538 54.692C464.234 54.436 463.794 54.308 463.218 54.308C462.77 54.308 462.354 54.388 461.97 54.548C461.594 54.7 461.23 54.944 460.878 55.28L460.518 54.5C460.838 54.18 461.246 53.924 461.742 53.732C462.238 53.532 462.762 53.432 463.314 53.432C464.17 53.432 464.83 53.632 465.294 54.032C465.758 54.424 465.99 54.984 465.99 55.712C465.99 56.248 465.858 56.76 465.594 57.248C465.338 57.728 464.962 58.224 464.466 58.736L461.814 61.424V61.148H466.35V62H460.818Z" fill="#667085"/>
<path d="M536.472 62V61.148H538.464V54.392H538.992L536.664 55.844V54.848L538.74 53.54H539.46V61.148H541.332V62H536.472ZM546.775 62V60.164H542.743V59.444L546.931 53.54H547.747V59.36H549.043V60.164H547.747V62H546.775ZM546.775 59.36V54.716H547.039L543.559 59.612V59.36H546.775Z" fill="#667085"/>
<path d="M618.829 62V61.148H620.821V54.392H621.349L619.021 55.844V54.848L621.097 53.54H621.817V61.148H623.689V62H618.829ZM628.376 62.108C627.352 62.108 626.56 61.748 626 61.028C625.448 60.3 625.172 59.284 625.172 57.98C625.172 57.004 625.312 56.18 625.592 55.508C625.872 54.828 626.272 54.312 626.792 53.96C627.312 53.608 627.94 53.432 628.676 53.432C629.116 53.432 629.56 53.524 630.008 53.708C630.456 53.884 630.824 54.132 631.112 54.452L630.752 55.22C630.448 54.908 630.116 54.68 629.756 54.536C629.396 54.384 629.032 54.308 628.664 54.308C627.848 54.308 627.22 54.6 626.78 55.184C626.348 55.76 626.132 56.628 626.132 57.788V58.904H626.024C626.08 58.448 626.216 58.056 626.432 57.728C626.656 57.392 626.948 57.136 627.308 56.96C627.668 56.784 628.068 56.696 628.508 56.696C629.02 56.696 629.472 56.808 629.864 57.032C630.256 57.256 630.564 57.572 630.788 57.98C631.012 58.38 631.124 58.84 631.124 59.36C631.124 59.888 631.008 60.36 630.776 60.776C630.544 61.192 630.22 61.52 629.804 61.76C629.388 61.992 628.912 62.108 628.376 62.108ZM628.304 61.268C628.672 61.268 628.996 61.192 629.276 61.04C629.564 60.88 629.784 60.66 629.936 60.38C630.096 60.092 630.176 59.764 630.176 59.396C630.176 59.028 630.096 58.704 629.936 58.424C629.784 58.144 629.564 57.924 629.276 57.764C628.996 57.604 628.672 57.524 628.304 57.524C627.936 57.524 627.612 57.604 627.332 57.764C627.052 57.924 626.832 58.144 626.672 58.424C626.52 58.704 626.444 59.028 626.444 59.396C626.444 59.764 626.52 60.092 626.672 60.38C626.832 60.66 627.052 60.88 627.332 61.04C627.612 61.192 627.936 61.268 628.304 61.268Z" fill="#667085"/>
<path d="M701.186 62V61.148H703.178V54.392H703.706L701.378 55.844V54.848L703.454 53.54H704.174V61.148H706.046V62H701.186ZM710.457 62.108C709.489 62.108 708.741 61.904 708.213 61.496C707.685 61.08 707.421 60.5 707.421 59.756C707.421 59.172 707.601 58.688 707.961 58.304C708.321 57.912 708.797 57.676 709.389 57.596V57.776C708.853 57.664 708.425 57.42 708.105 57.044C707.785 56.66 707.625 56.208 707.625 55.688C707.625 54.976 707.877 54.424 708.381 54.032C708.885 53.632 709.577 53.432 710.457 53.432C711.345 53.432 712.041 53.632 712.545 54.032C713.049 54.424 713.301 54.976 713.301 55.688C713.301 56.208 713.149 56.66 712.845 57.044C712.549 57.428 712.133 57.668 711.597 57.764V57.596C712.181 57.676 712.645 57.912 712.989 58.304C713.333 58.688 713.505 59.172 713.505 59.756C713.505 60.5 713.241 61.08 712.713 61.496C712.185 61.904 711.433 62.108 710.457 62.108ZM710.457 61.292C711.161 61.292 711.685 61.16 712.029 60.896C712.381 60.632 712.557 60.232 712.557 59.696C712.557 59.168 712.381 58.776 712.029 58.52C711.685 58.256 711.161 58.124 710.457 58.124C709.753 58.124 709.225 58.256 708.873 58.52C708.529 58.776 708.357 59.168 708.357 59.696C708.357 60.232 708.533 60.632 708.885 60.896C709.237 61.16 709.761 61.292 710.457 61.292ZM710.457 57.308C711.065 57.308 711.529 57.172 711.849 56.9C712.177 56.628 712.341 56.252 712.341 55.772C712.341 55.292 712.177 54.92 711.849 54.656C711.529 54.384 711.065 54.248 710.457 54.248C709.849 54.248 709.381 54.384 709.053 54.656C708.733 54.92 708.573 55.292 708.573 55.772C708.573 56.252 708.733 56.628 709.053 56.9C709.381 57.172 709.849 57.308 710.457 57.308Z" fill="#667085"/>
<path d="M783.051 62V61.256L786.051 58.124C786.443 57.716 786.735 57.328 786.927 56.96C787.127 56.584 787.227 56.196 787.227 55.796C787.227 55.308 787.075 54.94 786.771 54.692C786.467 54.436 786.027 54.308 785.451 54.308C785.003 54.308 784.587 54.388 784.203 54.548C783.827 54.7 783.463 54.944 783.111 55.28L782.751 54.5C783.071 54.18 783.479 53.924 783.975 53.732C784.471 53.532 784.995 53.432 785.547 53.432C786.403 53.432 787.063 53.632 787.527 54.032C787.991 54.424 788.223 54.984 788.223 55.712C788.223 56.248 788.091 56.76 787.827 57.248C787.571 57.728 787.195 58.224 786.699 58.736L784.047 61.424V61.148H788.583V62H783.051ZM792.814 62.108C791.854 62.108 791.118 61.736 790.606 60.992C790.094 60.248 789.838 59.172 789.838 57.764C789.838 56.348 790.094 55.272 790.606 54.536C791.118 53.8 791.854 53.432 792.814 53.432C793.782 53.432 794.518 53.8 795.022 54.536C795.534 55.272 795.79 56.344 795.79 57.752C795.79 59.168 795.534 60.248 795.022 60.992C794.51 61.736 793.774 62.108 792.814 62.108ZM792.814 61.244C793.486 61.244 793.986 60.96 794.314 60.392C794.642 59.824 794.806 58.944 794.806 57.752C794.806 56.552 794.642 55.676 794.314 55.124C793.986 54.564 793.486 54.284 792.814 54.284C792.15 54.284 791.65 54.564 791.314 55.124C790.986 55.684 790.822 56.56 790.822 57.752C790.822 58.944 790.986 59.824 791.314 60.392C791.65 60.96 792.15 61.244 792.814 61.244Z" fill="#667085"/>
<path d="M865.408 62V61.256L868.408 58.124C868.8 57.716 869.092 57.328 869.284 56.96C869.484 56.584 869.584 56.196 869.584 55.796C869.584 55.308 869.432 54.94 869.128 54.692C868.824 54.436 868.384 54.308 867.808 54.308C867.36 54.308 866.944 54.388 866.56 54.548C866.184 54.7 865.82 54.944 865.468 55.28L865.108 54.5C865.428 54.18 865.836 53.924 866.332 53.732C866.828 53.532 867.352 53.432 867.904 53.432C868.76 53.432 869.42 53.632 869.884 54.032C870.348 54.424 870.58 54.984 870.58 55.712C870.58 56.248 870.448 56.76 870.184 57.248C869.928 57.728 869.552 58.224 869.056 58.736L866.404 61.424V61.148H870.94V62H865.408ZM872.603 62V61.256L875.603 58.124C875.995 57.716 876.287 57.328 876.479 56.96C876.679 56.584 876.779 56.196 876.779 55.796C876.779 55.308 876.627 54.94 876.323 54.692C876.019 54.436 875.579 54.308 875.003 54.308C874.555 54.308 874.139 54.388 873.755 54.548C873.379 54.7 873.015 54.944 872.663 55.28L872.303 54.5C872.623 54.18 873.031 53.924 873.527 53.732C874.023 53.532 874.547 53.432 875.099 53.432C875.955 53.432 876.615 53.632 877.079 54.032C877.543 54.424 877.775 54.984 877.775 55.712C877.775 56.248 877.643 56.76 877.379 57.248C877.123 57.728 876.747 58.224 876.251 58.736L873.599 61.424V61.148H878.135V62H872.603Z" fill="#667085"/>
<path d="M947.765 62V61.256L950.765 58.124C951.157 57.716 951.449 57.328 951.641 56.96C951.841 56.584 951.941 56.196 951.941 55.796C951.941 55.308 951.789 54.94 951.485 54.692C951.181 54.436 950.741 54.308 950.165 54.308C949.717 54.308 949.301 54.388 948.917 54.548C948.541 54.7 948.177 54.944 947.825 55.28L947.465 54.5C947.785 54.18 948.193 53.924 948.689 53.732C949.185 53.532 949.709 53.432 950.261 53.432C951.117 53.432 951.777 53.632 952.241 54.032C952.705 54.424 952.937 54.984 952.937 55.712C952.937 56.248 952.805 56.76 952.541 57.248C952.285 57.728 951.909 58.224 951.413 58.736L948.761 61.424V61.148H953.297V62H947.765ZM958.56 62V60.164H954.528V59.444L958.716 53.54H959.532V59.36H960.828V60.164H959.532V62H958.56ZM958.56 59.36V54.716H958.824L955.344 59.612V59.36H958.56Z" fill="#667085"/>
<path d="M1030.12 62V61.256L1033.12 58.124C1033.51 57.716 1033.81 57.328 1034 56.96C1034.2 56.584 1034.3 56.196 1034.3 55.796C1034.3 55.308 1034.15 54.94 1033.84 54.692C1033.54 54.436 1033.1 54.308 1032.52 54.308C1032.07 54.308 1031.66 54.388 1031.27 54.548C1030.9 54.7 1030.53 54.944 1030.18 55.28L1029.82 54.5C1030.14 54.18 1030.55 53.924 1031.05 53.732C1031.54 53.532 1032.07 53.432 1032.62 53.432C1033.47 53.432 1034.13 53.632 1034.6 54.032C1035.06 54.424 1035.29 54.984 1035.29 55.712C1035.29 56.248 1035.16 56.76 1034.9 57.248C1034.64 57.728 1034.27 58.224 1033.77 58.736L1031.12 61.424V61.148H1035.65V62H1030.12ZM1040.16 62.108C1039.14 62.108 1038.35 61.748 1037.79 61.028C1037.23 60.3 1036.96 59.284 1036.96 57.98C1036.96 57.004 1037.1 56.18 1037.38 55.508C1037.66 54.828 1038.06 54.312 1038.58 53.96C1039.1 53.608 1039.73 53.432 1040.46 53.432C1040.9 53.432 1041.35 53.524 1041.79 53.708C1042.24 53.884 1042.61 54.132 1042.9 54.452L1042.54 55.22C1042.23 54.908 1041.9 54.68 1041.54 54.536C1041.18 54.384 1040.82 54.308 1040.45 54.308C1039.63 54.308 1039.01 54.6 1038.57 55.184C1038.13 55.76 1037.92 56.628 1037.92 57.788V58.904H1037.81C1037.87 58.448 1038 58.056 1038.22 57.728C1038.44 57.392 1038.73 57.136 1039.09 56.96C1039.45 56.784 1039.85 56.696 1040.29 56.696C1040.81 56.696 1041.26 56.808 1041.65 57.032C1042.04 57.256 1042.35 57.572 1042.57 57.98C1042.8 58.38 1042.91 58.84 1042.91 59.36C1042.91 59.888 1042.79 60.36 1042.56 60.776C1042.33 61.192 1042.01 61.52 1041.59 61.76C1041.17 61.992 1040.7 62.108 1040.16 62.108ZM1040.09 61.268C1040.46 61.268 1040.78 61.192 1041.06 61.04C1041.35 60.88 1041.57 60.66 1041.72 60.38C1041.88 60.092 1041.96 59.764 1041.96 59.396C1041.96 59.028 1041.88 58.704 1041.72 58.424C1041.57 58.144 1041.35 57.924 1041.06 57.764C1040.78 57.604 1040.46 57.524 1040.09 57.524C1039.72 57.524 1039.4 57.604 1039.12 57.764C1038.84 57.924 1038.62 58.144 1038.46 58.424C1038.31 58.704 1038.23 59.028 1038.23 59.396C1038.23 59.764 1038.31 60.092 1038.46 60.38C1038.62 60.66 1038.84 60.88 1039.12 61.04C1039.4 61.192 1039.72 61.268 1040.09 61.268Z" fill="#667085"/>
<path d="M1112.48 62V61.256L1115.48 58.124C1115.87 57.716 1116.16 57.328 1116.36 56.96C1116.56 56.584 1116.66 56.196 1116.66 55.796C1116.66 55.308 1116.5 54.94 1116.2 54.692C1115.9 54.436 1115.46 54.308 1114.88 54.308C1114.43 54.308 1114.02 54.388 1113.63 54.548C1113.26 54.7 1112.89 54.944 1112.54 55.28L1112.18 54.5C1112.5 54.18 1112.91 53.924 1113.4 53.732C1113.9 53.532 1114.42 53.432 1114.98 53.432C1115.83 53.432 1116.49 53.632 1116.96 54.032C1117.42 54.424 1117.65 54.984 1117.65 55.712C1117.65 56.248 1117.52 56.76 1117.26 57.248C1117 57.728 1116.62 58.224 1116.13 58.736L1113.48 61.424V61.148H1118.01V62H1112.48ZM1122.24 62.108C1121.27 62.108 1120.53 61.904 1120 61.496C1119.47 61.08 1119.21 60.5 1119.21 59.756C1119.21 59.172 1119.39 58.688 1119.75 58.304C1120.11 57.912 1120.58 57.676 1121.17 57.596V57.776C1120.64 57.664 1120.21 57.42 1119.89 57.044C1119.57 56.66 1119.41 56.208 1119.41 55.688C1119.41 54.976 1119.66 54.424 1120.17 54.032C1120.67 53.632 1121.36 53.432 1122.24 53.432C1123.13 53.432 1123.83 53.632 1124.33 54.032C1124.83 54.424 1125.09 54.976 1125.09 55.688C1125.09 56.208 1124.93 56.66 1124.63 57.044C1124.33 57.428 1123.92 57.668 1123.38 57.764V57.596C1123.97 57.676 1124.43 57.912 1124.77 58.304C1125.12 58.688 1125.29 59.172 1125.29 59.756C1125.29 60.5 1125.03 61.08 1124.5 61.496C1123.97 61.904 1123.22 62.108 1122.24 62.108ZM1122.24 61.292C1122.95 61.292 1123.47 61.16 1123.81 60.896C1124.17 60.632 1124.34 60.232 1124.34 59.696C1124.34 59.168 1124.17 58.776 1123.81 58.52C1123.47 58.256 1122.95 58.124 1122.24 58.124C1121.54 58.124 1121.01 58.256 1120.66 58.52C1120.31 58.776 1120.14 59.168 1120.14 59.696C1120.14 60.232 1120.32 60.632 1120.67 60.896C1121.02 61.16 1121.55 61.292 1122.24 61.292ZM1122.24 57.308C1122.85 57.308 1123.31 57.172 1123.63 56.9C1123.96 56.628 1124.13 56.252 1124.13 55.772C1124.13 55.292 1123.96 54.92 1123.63 54.656C1123.31 54.384 1122.85 54.248 1122.24 54.248C1121.63 54.248 1121.17 54.384 1120.84 54.656C1120.52 54.92 1120.36 55.292 1120.36 55.772C1120.36 56.252 1120.52 56.628 1120.84 56.9C1121.17 57.172 1121.63 57.308 1122.24 57.308Z" fill="#667085"/>
<path d="M1196.86 62.108C1196.29 62.108 1195.74 62.02 1195.22 61.844C1194.7 61.668 1194.27 61.416 1193.92 61.088L1194.29 60.32C1194.68 60.64 1195.08 60.872 1195.5 61.016C1195.92 61.16 1196.36 61.232 1196.84 61.232C1197.48 61.232 1197.96 61.1 1198.28 60.836C1198.61 60.564 1198.78 60.168 1198.78 59.648C1198.78 59.152 1198.61 58.776 1198.27 58.52C1197.94 58.256 1197.44 58.124 1196.8 58.124H1195.52V57.296H1196.71C1197.27 57.296 1197.72 57.152 1198.04 56.864C1198.37 56.576 1198.54 56.184 1198.54 55.688C1198.54 55.24 1198.38 54.9 1198.08 54.668C1197.78 54.428 1197.36 54.308 1196.8 54.308C1195.88 54.308 1195.1 54.632 1194.43 55.28L1194.06 54.5C1194.39 54.164 1194.8 53.904 1195.3 53.72C1195.79 53.528 1196.31 53.432 1196.86 53.432C1197.69 53.432 1198.34 53.624 1198.81 54.008C1199.28 54.392 1199.52 54.924 1199.52 55.604C1199.52 56.124 1199.37 56.572 1199.08 56.948C1198.78 57.316 1198.38 57.568 1197.88 57.704V57.572C1198.48 57.668 1198.94 57.908 1199.27 58.292C1199.6 58.668 1199.76 59.144 1199.76 59.72C1199.76 60.456 1199.5 61.04 1198.98 61.472C1198.47 61.896 1197.76 62.108 1196.86 62.108ZM1204.1 62.108C1203.14 62.108 1202.4 61.736 1201.89 60.992C1201.38 60.248 1201.12 59.172 1201.12 57.764C1201.12 56.348 1201.38 55.272 1201.89 54.536C1202.4 53.8 1203.14 53.432 1204.1 53.432C1205.07 53.432 1205.8 53.8 1206.31 54.536C1206.82 55.272 1207.08 56.344 1207.08 57.752C1207.08 59.168 1206.82 60.248 1206.31 60.992C1205.8 61.736 1205.06 62.108 1204.1 62.108ZM1204.1 61.244C1204.77 61.244 1205.27 60.96 1205.6 60.392C1205.93 59.824 1206.09 58.944 1206.09 57.752C1206.09 56.552 1205.93 55.676 1205.6 55.124C1205.27 54.564 1204.77 54.284 1204.1 54.284C1203.44 54.284 1202.94 54.564 1202.6 55.124C1202.27 55.684 1202.11 56.56 1202.11 57.752C1202.11 58.944 1202.27 59.824 1202.6 60.392C1202.94 60.96 1203.44 61.244 1204.1 61.244Z" fill="#667085"/>
<path d="M25.8367 206V205.256L28.8367 202.124C29.2287 201.716 29.5207 201.328 29.7127 200.96C29.9127 200.584 30.0127 200.196 30.0127 199.796C30.0127 199.308 29.8607 198.94 29.5567 198.692C29.2527 198.436 28.8127 198.308 28.2367 198.308C27.7887 198.308 27.3727 198.388 26.9887 198.548C26.6127 198.7 26.2487 198.944 25.8967 199.28L25.5367 198.5C25.8567 198.18 26.2647 197.924 26.7607 197.732C27.2567 197.532 27.7807 197.432 28.3327 197.432C29.1887 197.432 29.8487 197.632 30.3127 198.032C30.7767 198.424 31.0087 198.984 31.0087 199.712C31.0087 200.248 30.8767 200.76 30.6127 201.248C30.3567 201.728 29.9807 202.224 29.4847 202.736L26.8327 205.424V205.148H31.3687V206H25.8367Z" fill="#667085"/>
<path d="M46.651 206V204.164H42.619V203.444L46.807 197.54H47.623V203.36H48.919V204.164H47.623V206H46.651ZM46.651 203.36V198.716H46.915L43.435 203.612V203.36H46.651Z" fill="#667085"/>
<path d="M63.1093 206.108C62.0853 206.108 61.2933 205.748 60.7333 205.028C60.1813 204.3 59.9053 203.284 59.9053 201.98C59.9053 201.004 60.0453 200.18 60.3253 199.508C60.6053 198.828 61.0053 198.312 61.5253 197.96C62.0453 197.608 62.6733 197.432 63.4093 197.432C63.8493 197.432 64.2933 197.524 64.7413 197.708C65.1893 197.884 65.5573 198.132 65.8453 198.452L65.4853 199.22C65.1813 198.908 64.8493 198.68 64.4893 198.536C64.1293 198.384 63.7653 198.308 63.3973 198.308C62.5813 198.308 61.9533 198.6 61.5133 199.184C61.0813 199.76 60.8653 200.628 60.8653 201.788V202.904H60.7573C60.8133 202.448 60.9493 202.056 61.1653 201.728C61.3893 201.392 61.6813 201.136 62.0413 200.96C62.4013 200.784 62.8013 200.696 63.2413 200.696C63.7533 200.696 64.2053 200.808 64.5973 201.032C64.9893 201.256 65.2973 201.572 65.5213 201.98C65.7453 202.38 65.8573 202.84 65.8573 203.36C65.8573 203.888 65.7413 204.36 65.5093 204.776C65.2773 205.192 64.9533 205.52 64.5373 205.76C64.1213 205.992 63.6453 206.108 63.1093 206.108ZM63.0373 205.268C63.4053 205.268 63.7293 205.192 64.0093 205.04C64.2973 204.88 64.5173 204.66 64.6693 204.38C64.8293 204.092 64.9093 203.764 64.9093 203.396C64.9093 203.028 64.8293 202.704 64.6693 202.424C64.5173 202.144 64.2973 201.924 64.0093 201.764C63.7293 201.604 63.4053 201.524 63.0373 201.524C62.6693 201.524 62.3453 201.604 62.0653 201.764C61.7853 201.924 61.5653 202.144 61.4053 202.424C61.2533 202.704 61.1773 203.028 61.1773 203.396C61.1773 203.764 61.2533 204.092 61.4053 204.38C61.5653 204.66 61.7853 204.88 62.0653 205.04C62.3453 205.192 62.6693 205.268 63.0373 205.268Z" fill="#667085"/>
<path d="M80.0475 206.108C79.0795 206.108 78.3315 205.904 77.8035 205.496C77.2755 205.08 77.0115 204.5 77.0115 203.756C77.0115 203.172 77.1915 202.688 77.5515 202.304C77.9115 201.912 78.3875 201.676 78.9795 201.596V201.776C78.4435 201.664 78.0155 201.42 77.6955 201.044C77.3755 200.66 77.2155 200.208 77.2155 199.688C77.2155 198.976 77.4675 198.424 77.9715 198.032C78.4755 197.632 79.1675 197.432 80.0475 197.432C80.9355 197.432 81.6315 197.632 82.1355 198.032C82.6395 198.424 82.8915 198.976 82.8915 199.688C82.8915 200.208 82.7395 200.66 82.4355 201.044C82.1395 201.428 81.7235 201.668 81.1875 201.764V201.596C81.7715 201.676 82.2355 201.912 82.5795 202.304C82.9235 202.688 83.0955 203.172 83.0955 203.756C83.0955 204.5 82.8315 205.08 82.3035 205.496C81.7755 205.904 81.0235 206.108 80.0475 206.108ZM80.0475 205.292C80.7515 205.292 81.2755 205.16 81.6195 204.896C81.9715 204.632 82.1475 204.232 82.1475 203.696C82.1475 203.168 81.9715 202.776 81.6195 202.52C81.2755 202.256 80.7515 202.124 80.0475 202.124C79.3435 202.124 78.8155 202.256 78.4635 202.52C78.1195 202.776 77.9475 203.168 77.9475 203.696C77.9475 204.232 78.1235 204.632 78.4755 204.896C78.8275 205.16 79.3515 205.292 80.0475 205.292ZM80.0475 201.308C80.6555 201.308 81.1195 201.172 81.4395 200.9C81.7675 200.628 81.9315 200.252 81.9315 199.772C81.9315 199.292 81.7675 198.92 81.4395 198.656C81.1195 198.384 80.6555 198.248 80.0475 198.248C79.4395 198.248 78.9715 198.384 78.6435 198.656C78.3235 198.92 78.1635 199.292 78.1635 199.772C78.1635 200.252 78.3235 200.628 78.6435 200.9C78.9715 201.172 79.4395 201.308 80.0475 201.308Z" fill="#667085"/>
<path d="M94.9905 206V205.148H96.9825V198.392H97.5105L95.1825 199.844V198.848L97.2585 197.54H97.9785V205.148H99.8505V206H94.9905ZM104.262 206.108C103.302 206.108 102.566 205.736 102.054 204.992C101.542 204.248 101.286 203.172 101.286 201.764C101.286 200.348 101.542 199.272 102.054 198.536C102.566 197.8 103.302 197.432 104.262 197.432C105.23 197.432 105.966 197.8 106.47 198.536C106.982 199.272 107.238 200.344 107.238 201.752C107.238 203.168 106.982 204.248 106.47 204.992C105.958 205.736 105.222 206.108 104.262 206.108ZM104.262 205.244C104.934 205.244 105.434 204.96 105.762 204.392C106.09 203.824 106.254 202.944 106.254 201.752C106.254 200.552 106.09 199.676 105.762 199.124C105.434 198.564 104.934 198.284 104.262 198.284C103.598 198.284 103.098 198.564 102.762 199.124C102.434 199.684 102.27 200.56 102.27 201.752C102.27 202.944 102.434 203.824 102.762 204.392C103.098 204.96 103.598 205.244 104.262 205.244Z" fill="#667085"/>
<path d="M119.205 206V205.148H121.197V198.392H121.725L119.397 199.844V198.848L121.473 197.54H122.193V205.148H124.065V206H119.205ZM125.908 206V205.256L128.908 202.124C129.3 201.716 129.592 201.328 129.784 200.96C129.984 200.584 130.084 200.196 130.084 199.796C130.084 199.308 129.932 198.94 129.628 198.692C129.324 198.436 128.884 198.308 128.308 198.308C127.86 198.308 127.444 198.388 127.06 198.548C126.684 198.7 126.32 198.944 125.968 199.28L125.608 198.5C125.928 198.18 126.336 197.924 126.832 197.732C127.328 197.532 127.852 197.432 128.404 197.432C129.26 197.432 129.92 197.632 130.384 198.032C130.848 198.424 131.08 198.984 131.08 199.712C131.08 200.248 130.948 200.76 130.684 201.248C130.428 201.728 130.052 202.224 129.556 202.736L126.904 205.424V205.148H131.44V206H125.908Z" fill="#667085"/>
<path d="M143.419 206V205.148H145.411V198.392H145.939L143.611 199.844V198.848L145.687 197.54H146.407V205.148H148.279V206H143.419ZM153.722 206V204.164H149.69V203.444L153.878 197.54H154.694V203.36H155.99V204.164H154.694V206H153.722ZM153.722 203.36V198.716H153.986L150.506 203.612V203.36H153.722Z" fill="#667085"/>
<path d="M167.633 206V205.148H169.625V198.392H170.153L167.825 199.844V198.848L169.901 197.54H170.621V205.148H172.493V206H167.633ZM177.181 206.108C176.157 206.108 175.365 205.748 174.805 205.028C174.253 204.3 173.977 203.284 173.977 201.98C173.977 201.004 174.117 200.18 174.397 199.508C174.677 198.828 175.077 198.312 175.597 197.96C176.117 197.608 176.745 197.432 177.481 197.432C177.921 197.432 178.365 197.524 178.813 197.708C179.261 197.884 179.629 198.132 179.917 198.452L179.557 199.22C179.253 198.908 178.921 198.68 178.561 198.536C178.201 198.384 177.837 198.308 177.469 198.308C176.653 198.308 176.025 198.6 175.585 199.184C175.153 199.76 174.937 200.628 174.937 201.788V202.904H174.829C174.885 202.448 175.021 202.056 175.237 201.728C175.461 201.392 175.753 201.136 176.113 200.96C176.473 200.784 176.873 200.696 177.313 200.696C177.825 200.696 178.277 200.808 178.669 201.032C179.061 201.256 179.369 201.572 179.593 201.98C179.817 202.38 179.929 202.84 179.929 203.36C179.929 203.888 179.813 204.36 179.581 204.776C179.349 205.192 179.025 205.52 178.609 205.76C178.193 205.992 177.717 206.108 177.181 206.108ZM177.109 205.268C177.477 205.268 177.801 205.192 178.081 205.04C178.369 204.88 178.589 204.66 178.741 204.38C178.901 204.092 178.981 203.764 178.981 203.396C178.981 203.028 178.901 202.704 178.741 202.424C178.589 202.144 178.369 201.924 178.081 201.764C177.801 201.604 177.477 201.524 177.109 201.524C176.741 201.524 176.417 201.604 176.137 201.764C175.857 201.924 175.637 202.144 175.477 202.424C175.325 202.704 175.249 203.028 175.249 203.396C175.249 203.764 175.325 204.092 175.477 204.38C175.637 204.66 175.857 204.88 176.137 205.04C176.417 205.192 176.741 205.268 177.109 205.268Z" fill="#667085"/>
<path d="M191.848 206V205.148H193.84V198.392H194.368L192.04 199.844V198.848L194.116 197.54H194.836V205.148H196.708V206H191.848ZM201.119 206.108C200.151 206.108 199.403 205.904 198.875 205.496C198.347 205.08 198.083 204.5 198.083 203.756C198.083 203.172 198.263 202.688 198.623 202.304C198.983 201.912 199.459 201.676 200.051 201.596V201.776C199.515 201.664 199.087 201.42 198.767 201.044C198.447 200.66 198.287 200.208 198.287 199.688C198.287 198.976 198.539 198.424 199.043 198.032C199.547 197.632 200.239 197.432 201.119 197.432C202.007 197.432 202.703 197.632 203.207 198.032C203.711 198.424 203.963 198.976 203.963 199.688C203.963 200.208 203.811 200.66 203.507 201.044C203.211 201.428 202.795 201.668 202.259 201.764V201.596C202.843 201.676 203.307 201.912 203.651 202.304C203.995 202.688 204.167 203.172 204.167 203.756C204.167 204.5 203.903 205.08 203.375 205.496C202.847 205.904 202.095 206.108 201.119 206.108ZM201.119 205.292C201.823 205.292 202.347 205.16 202.691 204.896C203.043 204.632 203.219 204.232 203.219 203.696C203.219 203.168 203.043 202.776 202.691 202.52C202.347 202.256 201.823 202.124 201.119 202.124C200.415 202.124 199.887 202.256 199.535 202.52C199.191 202.776 199.019 203.168 199.019 203.696C199.019 204.232 199.195 204.632 199.547 204.896C199.899 205.16 200.423 205.292 201.119 205.292ZM201.119 201.308C201.727 201.308 202.191 201.172 202.511 200.9C202.839 200.628 203.003 200.252 203.003 199.772C203.003 199.292 202.839 198.92 202.511 198.656C202.191 198.384 201.727 198.248 201.119 198.248C200.511 198.248 200.043 198.384 199.715 198.656C199.395 198.92 199.235 199.292 199.235 199.772C199.235 200.252 199.395 200.628 199.715 200.9C200.043 201.172 200.511 201.308 201.119 201.308Z" fill="#667085"/>
<path d="M215.57 206V205.256L218.57 202.124C218.962 201.716 219.254 201.328 219.446 200.96C219.646 200.584 219.746 200.196 219.746 199.796C219.746 199.308 219.594 198.94 219.29 198.692C218.986 198.436 218.546 198.308 217.97 198.308C217.522 198.308 217.106 198.388 216.722 198.548C216.346 198.7 215.982 198.944 215.63 199.28L215.27 198.5C215.59 198.18 215.998 197.924 216.494 197.732C216.99 197.532 217.514 197.432 218.066 197.432C218.922 197.432 219.582 197.632 220.046 198.032C220.51 198.424 220.742 198.984 220.742 199.712C220.742 200.248 220.61 200.76 220.346 201.248C220.09 201.728 219.714 202.224 219.218 202.736L216.566 205.424V205.148H221.102V206H215.57ZM225.333 206.108C224.373 206.108 223.637 205.736 223.125 204.992C222.613 204.248 222.357 203.172 222.357 201.764C222.357 200.348 222.613 199.272 223.125 198.536C223.637 197.8 224.373 197.432 225.333 197.432C226.301 197.432 227.037 197.8 227.541 198.536C228.053 199.272 228.309 200.344 228.309 201.752C228.309 203.168 228.053 204.248 227.541 204.992C227.029 205.736 226.293 206.108 225.333 206.108ZM225.333 205.244C226.005 205.244 226.505 204.96 226.833 204.392C227.161 203.824 227.325 202.944 227.325 201.752C227.325 200.552 227.161 199.676 226.833 199.124C226.505 198.564 226.005 198.284 225.333 198.284C224.669 198.284 224.169 198.564 223.833 199.124C223.505 199.684 223.341 200.56 223.341 201.752C223.341 202.944 223.505 203.824 223.833 204.392C224.169 204.96 224.669 205.244 225.333 205.244Z" fill="#667085"/>
<path d="M239.784 206V205.256L242.784 202.124C243.176 201.716 243.468 201.328 243.66 200.96C243.86 200.584 243.96 200.196 243.96 199.796C243.96 199.308 243.808 198.94 243.504 198.692C243.2 198.436 242.76 198.308 242.184 198.308C241.736 198.308 241.32 198.388 240.936 198.548C240.56 198.7 240.196 198.944 239.844 199.28L239.484 198.5C239.804 198.18 240.212 197.924 240.708 197.732C241.204 197.532 241.728 197.432 242.28 197.432C243.136 197.432 243.796 197.632 244.26 198.032C244.724 198.424 244.956 198.984 244.956 199.712C244.956 200.248 244.824 200.76 244.56 201.248C244.304 201.728 243.928 202.224 243.432 202.736L240.78 205.424V205.148H245.316V206H239.784ZM246.98 206V205.256L249.98 202.124C250.372 201.716 250.664 201.328 250.856 200.96C251.056 200.584 251.156 200.196 251.156 199.796C251.156 199.308 251.004 198.94 250.7 198.692C250.396 198.436 249.956 198.308 249.38 198.308C248.932 198.308 248.516 198.388 248.132 198.548C247.756 198.7 247.392 198.944 247.04 199.28L246.68 198.5C247 198.18 247.408 197.924 247.904 197.732C248.4 197.532 248.924 197.432 249.476 197.432C250.332 197.432 250.992 197.632 251.456 198.032C251.92 198.424 252.152 198.984 252.152 199.712C252.152 200.248 252.02 200.76 251.756 201.248C251.5 201.728 251.124 202.224 250.628 202.736L247.976 205.424V205.148H252.512V206H246.98Z" fill="#667085"/>
<path d="M263.998 206V205.256L266.998 202.124C267.39 201.716 267.682 201.328 267.874 200.96C268.074 200.584 268.174 200.196 268.174 199.796C268.174 199.308 268.022 198.94 267.718 198.692C267.414 198.436 266.974 198.308 266.398 198.308C265.95 198.308 265.534 198.388 265.15 198.548C264.774 198.7 264.41 198.944 264.058 199.28L263.698 198.5C264.018 198.18 264.426 197.924 264.922 197.732C265.418 197.532 265.942 197.432 266.494 197.432C267.35 197.432 268.01 197.632 268.474 198.032C268.938 198.424 269.17 198.984 269.17 199.712C269.17 200.248 269.038 200.76 268.774 201.248C268.518 201.728 268.142 202.224 267.646 202.736L264.994 205.424V205.148H269.53V206H263.998ZM274.794 206V204.164H270.762V203.444L274.95 197.54H275.766V203.36H277.062V204.164H275.766V206H274.794ZM274.794 203.36V198.716H275.058L271.578 203.612V203.36H274.794Z" fill="#667085"/>
<path d="M288.213 206V205.256L291.213 202.124C291.605 201.716 291.897 201.328 292.089 200.96C292.289 200.584 292.389 200.196 292.389 199.796C292.389 199.308 292.237 198.94 291.933 198.692C291.629 198.436 291.189 198.308 290.613 198.308C290.165 198.308 289.749 198.388 289.365 198.548C288.989 198.7 288.625 198.944 288.273 199.28L287.913 198.5C288.233 198.18 288.641 197.924 289.137 197.732C289.633 197.532 290.157 197.432 290.709 197.432C291.565 197.432 292.225 197.632 292.689 198.032C293.153 198.424 293.385 198.984 293.385 199.712C293.385 200.248 293.253 200.76 292.989 201.248C292.733 201.728 292.357 202.224 291.861 202.736L289.209 205.424V205.148H293.745V206H288.213ZM298.252 206.108C297.228 206.108 296.436 205.748 295.876 205.028C295.324 204.3 295.048 203.284 295.048 201.98C295.048 201.004 295.188 200.18 295.468 199.508C295.748 198.828 296.148 198.312 296.668 197.96C297.188 197.608 297.816 197.432 298.552 197.432C298.992 197.432 299.436 197.524 299.884 197.708C300.332 197.884 300.7 198.132 300.988 198.452L300.628 199.22C300.324 198.908 299.992 198.68 299.632 198.536C299.272 198.384 298.908 198.308 298.54 198.308C297.724 198.308 297.096 198.6 296.656 199.184C296.224 199.76 296.008 200.628 296.008 201.788V202.904H295.9C295.956 202.448 296.092 202.056 296.308 201.728C296.532 201.392 296.824 201.136 297.184 200.96C297.544 200.784 297.944 200.696 298.384 200.696C298.896 200.696 299.348 200.808 299.74 201.032C300.132 201.256 300.44 201.572 300.664 201.98C300.888 202.38 301 202.84 301 203.36C301 203.888 300.884 204.36 300.652 204.776C300.42 205.192 300.096 205.52 299.68 205.76C299.264 205.992 298.788 206.108 298.252 206.108ZM298.18 205.268C298.548 205.268 298.872 205.192 299.152 205.04C299.44 204.88 299.66 204.66 299.812 204.38C299.972 204.092 300.052 203.764 300.052 203.396C300.052 203.028 299.972 202.704 299.812 202.424C299.66 202.144 299.44 201.924 299.152 201.764C298.872 201.604 298.548 201.524 298.18 201.524C297.812 201.524 297.488 201.604 297.208 201.764C296.928 201.924 296.708 202.144 296.548 202.424C296.396 202.704 296.32 203.028 296.32 203.396C296.32 203.764 296.396 204.092 296.548 204.38C296.708 204.66 296.928 204.88 297.208 205.04C297.488 205.192 297.812 205.268 298.18 205.268Z" fill="#667085"/>
<path d="M312.427 206V205.256L315.427 202.124C315.819 201.716 316.111 201.328 316.303 200.96C316.503 200.584 316.603 200.196 316.603 199.796C316.603 199.308 316.451 198.94 316.147 198.692C315.843 198.436 315.403 198.308 314.827 198.308C314.379 198.308 313.963 198.388 313.579 198.548C313.203 198.7 312.839 198.944 312.487 199.28L312.127 198.5C312.447 198.18 312.855 197.924 313.351 197.732C313.847 197.532 314.371 197.432 314.923 197.432C315.779 197.432 316.439 197.632 316.903 198.032C317.367 198.424 317.599 198.984 317.599 199.712C317.599 200.248 317.467 200.76 317.203 201.248C316.947 201.728 316.571 202.224 316.075 202.736L313.423 205.424V205.148H317.959V206H312.427ZM322.19 206.108C321.222 206.108 320.474 205.904 319.946 205.496C319.418 205.08 319.154 204.5 319.154 203.756C319.154 203.172 319.334 202.688 319.694 202.304C320.054 201.912 320.53 201.676 321.122 201.596V201.776C320.586 201.664 320.158 201.42 319.838 201.044C319.518 200.66 319.358 200.208 319.358 199.688C319.358 198.976 319.61 198.424 320.114 198.032C320.618 197.632 321.31 197.432 322.19 197.432C323.078 197.432 323.774 197.632 324.278 198.032C324.782 198.424 325.034 198.976 325.034 199.688C325.034 200.208 324.882 200.66 324.578 201.044C324.282 201.428 323.866 201.668 323.33 201.764V201.596C323.914 201.676 324.378 201.912 324.722 202.304C325.066 202.688 325.238 203.172 325.238 203.756C325.238 204.5 324.974 205.08 324.446 205.496C323.918 205.904 323.166 206.108 322.19 206.108ZM322.19 205.292C322.894 205.292 323.418 205.16 323.762 204.896C324.114 204.632 324.29 204.232 324.29 203.696C324.29 203.168 324.114 202.776 323.762 202.52C323.418 202.256 322.894 202.124 322.19 202.124C321.486 202.124 320.958 202.256 320.606 202.52C320.262 202.776 320.09 203.168 320.09 203.696C320.09 204.232 320.266 204.632 320.618 204.896C320.97 205.16 321.494 205.292 322.19 205.292ZM322.19 201.308C322.798 201.308 323.262 201.172 323.582 200.9C323.91 200.628 324.074 200.252 324.074 199.772C324.074 199.292 323.91 198.92 323.582 198.656C323.262 198.384 322.798 198.248 322.19 198.248C321.582 198.248 321.114 198.384 320.786 198.656C320.466 198.92 320.306 199.292 320.306 199.772C320.306 200.252 320.466 200.628 320.786 200.9C321.114 201.172 321.582 201.308 322.19 201.308Z" fill="#667085"/>
<path d="M339.161 206.108C338.593 206.108 338.049 206.02 337.529 205.844C337.009 205.668 336.573 205.416 336.221 205.088L336.593 204.32C336.985 204.64 337.389 204.872 337.805 205.016C338.221 205.16 338.669 205.232 339.149 205.232C339.781 205.232 340.261 205.1 340.589 204.836C340.917 204.564 341.081 204.168 341.081 203.648C341.081 203.152 340.913 202.776 340.577 202.52C340.241 202.256 339.749 202.124 339.101 202.124H337.829V201.296H339.017C339.577 201.296 340.021 201.152 340.349 200.864C340.677 200.576 340.841 200.184 340.841 199.688C340.841 199.24 340.689 198.9 340.385 198.668C340.089 198.428 339.661 198.308 339.101 198.308C338.189 198.308 337.401 198.632 336.737 199.28L336.365 198.5C336.693 198.164 337.105 197.904 337.601 197.72C338.097 197.528 338.617 197.432 339.161 197.432C339.993 197.432 340.645 197.624 341.117 198.008C341.589 198.392 341.825 198.924 341.825 199.604C341.825 200.124 341.677 200.572 341.381 200.948C341.085 201.316 340.685 201.568 340.181 201.704V201.572C340.781 201.668 341.245 201.908 341.573 202.292C341.901 202.668 342.065 203.144 342.065 203.72C342.065 204.456 341.805 205.04 341.285 205.472C340.773 205.896 340.065 206.108 339.161 206.108ZM346.405 206.108C345.445 206.108 344.709 205.736 344.197 204.992C343.685 204.248 343.429 203.172 343.429 201.764C343.429 200.348 343.685 199.272 344.197 198.536C344.709 197.8 345.445 197.432 346.405 197.432C347.373 197.432 348.109 197.8 348.613 198.536C349.125 199.272 349.381 200.344 349.381 201.752C349.381 203.168 349.125 204.248 348.613 204.992C348.101 205.736 347.365 206.108 346.405 206.108ZM346.405 205.244C347.077 205.244 347.577 204.96 347.905 204.392C348.233 203.824 348.397 202.944 348.397 201.752C348.397 200.552 348.233 199.676 347.905 199.124C347.577 198.564 347.077 198.284 346.405 198.284C345.741 198.284 345.241 198.564 344.905 199.124C344.577 199.684 344.413 200.56 344.413 201.752C344.413 202.944 344.577 203.824 344.905 204.392C345.241 204.96 345.741 205.244 346.405 205.244Z" fill="#667085"/>
<path d="M56.9743 30V21.54H57.8383L61.2343 29.208H60.8863L64.2823 21.54H65.1463V30H64.2343V22.824H64.5943L61.3903 30H60.7303L57.5143 22.824H57.8743V30H56.9743ZM69.627 30.108C69.051 30.108 68.547 29.984 68.115 29.736C67.691 29.48 67.363 29.12 67.131 28.656C66.899 28.184 66.783 27.628 66.783 26.988C66.783 26.34 66.899 25.784 67.131 25.32C67.363 24.856 67.691 24.5 68.115 24.252C68.547 23.996 69.051 23.868 69.627 23.868C70.211 23.868 70.715 23.996 71.139 24.252C71.571 24.5 71.903 24.856 72.135 25.32C72.375 25.784 72.495 26.34 72.495 26.988C72.495 27.628 72.375 28.184 72.135 28.656C71.903 29.12 71.571 29.48 71.139 29.736C70.715 29.984 70.211 30.108 69.627 30.108ZM69.627 29.316C70.203 29.316 70.659 29.12 70.995 28.728C71.331 28.328 71.499 27.748 71.499 26.988C71.499 26.22 71.327 25.64 70.983 25.248C70.647 24.848 70.195 24.648 69.627 24.648C69.059 24.648 68.607 24.848 68.271 25.248C67.935 25.64 67.767 26.22 67.767 26.988C67.767 27.748 67.935 28.328 68.271 28.728C68.607 29.12 69.059 29.316 69.627 29.316ZM74.0105 30V25.368C74.0105 25.144 73.9985 24.916 73.9745 24.684C73.9585 24.444 73.9385 24.208 73.9145 23.976H74.8505L74.9705 25.296H74.8265C75.0025 24.832 75.2825 24.48 75.6665 24.24C76.0585 23.992 76.5105 23.868 77.0225 23.868C77.7345 23.868 78.2705 24.06 78.6305 24.444C78.9985 24.82 79.1825 25.416 79.1825 26.232V30H78.2105V26.292C78.2105 25.724 78.0945 25.312 77.8625 25.056C77.6385 24.792 77.2865 24.66 76.8065 24.66C76.2465 24.66 75.8025 24.832 75.4745 25.176C75.1465 25.52 74.9825 25.98 74.9825 26.556V30H74.0105Z" fill="#667085"/>
<path d="M246.527 30V22.38H243.539V21.54H250.499V22.38H247.523V30H246.527ZM252.866 30.108C252.154 30.108 251.614 29.912 251.246 29.52C250.886 29.128 250.706 28.528 250.706 27.72V23.976H251.678V27.696C251.678 28.248 251.79 28.656 252.014 28.92C252.238 29.176 252.586 29.304 253.058 29.304C253.586 29.304 254.01 29.132 254.33 28.788C254.65 28.444 254.81 27.984 254.81 27.408V23.976H255.782V30H254.834V28.644H254.99C254.822 29.108 254.55 29.468 254.174 29.724C253.806 29.98 253.37 30.108 252.866 30.108ZM260.344 30.108C259.4 30.108 258.656 29.836 258.112 29.292C257.568 28.74 257.296 27.976 257.296 27C257.296 26.368 257.416 25.82 257.656 25.356C257.896 24.884 258.232 24.52 258.664 24.264C259.096 24 259.592 23.868 260.152 23.868C260.704 23.868 261.168 23.984 261.544 24.216C261.92 24.448 262.208 24.78 262.408 25.212C262.608 25.636 262.708 26.14 262.708 26.724V27.084H258.04V26.472H262.072L261.868 26.628C261.868 25.988 261.724 25.488 261.436 25.128C261.148 24.768 260.72 24.588 260.152 24.588C259.552 24.588 259.084 24.8 258.748 25.224C258.412 25.64 258.244 26.204 258.244 26.916V27.024C258.244 27.776 258.428 28.348 258.796 28.74C259.172 29.124 259.696 29.316 260.368 29.316C260.728 29.316 261.064 29.264 261.376 29.16C261.696 29.048 262 28.868 262.288 28.62L262.624 29.304C262.36 29.56 262.024 29.76 261.616 29.904C261.216 30.04 260.792 30.108 260.344 30.108Z" fill="#667085"/>
<path d="M428.843 30L425.891 21.54H426.935L429.515 29.16H429.095L431.807 21.54H432.599L435.167 29.16H434.783L437.435 21.54H438.419L435.443 30H434.555L432.059 22.668H432.311L429.707 30H428.843ZM441.752 30.108C440.808 30.108 440.064 29.836 439.52 29.292C438.976 28.74 438.704 27.976 438.704 27C438.704 26.368 438.824 25.82 439.064 25.356C439.304 24.884 439.64 24.52 440.072 24.264C440.504 24 441 23.868 441.56 23.868C442.112 23.868 442.576 23.984 442.952 24.216C443.328 24.448 443.616 24.78 443.816 25.212C444.016 25.636 444.116 26.14 444.116 26.724V27.084H439.448V26.472H443.48L443.276 26.628C443.276 25.988 443.132 25.488 442.844 25.128C442.556 24.768 442.128 24.588 441.56 24.588C440.96 24.588 440.492 24.8 440.156 25.224C439.82 25.64 439.652 26.204 439.652 26.916V27.024C439.652 27.776 439.836 28.348 440.204 28.74C440.58 29.124 441.104 29.316 441.776 29.316C442.136 29.316 442.472 29.264 442.784 29.16C443.104 29.048 443.408 28.868 443.696 28.62L444.032 29.304C443.768 29.56 443.432 29.76 443.024 29.904C442.624 30.04 442.2 30.108 441.752 30.108ZM447.883 30.108C447.355 30.108 446.891 29.984 446.491 29.736C446.091 29.48 445.779 29.12 445.555 28.656C445.339 28.192 445.231 27.636 445.231 26.988C445.231 26.332 445.339 25.772 445.555 25.308C445.779 24.844 446.091 24.488 446.491 24.24C446.891 23.992 447.355 23.868 447.883 23.868C448.427 23.868 448.895 24.004 449.287 24.276C449.687 24.548 449.955 24.916 450.091 25.38H449.947V21.168H450.919V30H449.959V28.56H450.091C449.963 29.04 449.699 29.42 449.299 29.7C448.899 29.972 448.427 30.108 447.883 30.108ZM448.087 29.316C448.655 29.316 449.111 29.12 449.455 28.728C449.799 28.328 449.971 27.748 449.971 26.988C449.971 26.22 449.799 25.64 449.455 25.248C449.111 24.848 448.655 24.648 448.087 24.648C447.519 24.648 447.063 24.848 446.719 25.248C446.383 25.64 446.215 26.22 446.215 26.988C446.215 27.748 446.383 28.328 446.719 28.728C447.063 29.12 447.519 29.316 448.087 29.316Z" fill="#667085"/>
<path d="M616.508 30V22.38H613.52V21.54H620.48V22.38H617.504V30H616.508ZM621.591 30V21.168H622.563V25.308H622.407C622.575 24.836 622.855 24.48 623.247 24.24C623.647 23.992 624.107 23.868 624.627 23.868C625.347 23.868 625.883 24.064 626.235 24.456C626.587 24.84 626.763 25.424 626.763 26.208V30H625.791V26.268C625.791 25.708 625.679 25.3 625.455 25.044C625.239 24.788 624.887 24.66 624.399 24.66C623.839 24.66 623.391 24.832 623.055 25.176C622.727 25.52 622.563 25.972 622.563 26.532V30H621.591ZM630.746 30.108C630.034 30.108 629.494 29.912 629.126 29.52C628.766 29.128 628.586 28.528 628.586 27.72V23.976H629.558V27.696C629.558 28.248 629.67 28.656 629.894 28.92C630.118 29.176 630.466 29.304 630.938 29.304C631.466 29.304 631.89 29.132 632.21 28.788C632.53 28.444 632.69 27.984 632.69 27.408V23.976H633.662V30H632.714V28.644H632.87C632.702 29.108 632.43 29.468 632.054 29.724C631.686 29.98 631.25 30.108 630.746 30.108Z" fill="#667085"/>
<path d="M803.469 30V21.54H808.749V22.356H804.465V25.32H808.485V26.136H804.465V30H803.469ZM809.958 30V25.428C809.958 25.188 809.95 24.944 809.934 24.696C809.926 24.448 809.91 24.208 809.886 23.976H810.822L810.942 25.44L810.774 25.452C810.854 25.092 810.994 24.796 811.194 24.564C811.394 24.332 811.63 24.16 811.902 24.048C812.174 23.928 812.458 23.868 812.754 23.868C812.874 23.868 812.978 23.872 813.066 23.88C813.162 23.888 813.25 23.908 813.33 23.94L813.318 24.804C813.198 24.764 813.086 24.74 812.982 24.732C812.886 24.716 812.774 24.708 812.646 24.708C812.294 24.708 811.986 24.792 811.722 24.96C811.466 25.128 811.27 25.344 811.134 25.608C811.006 25.872 810.942 26.152 810.942 26.448V30H809.958ZM814.342 30V23.976H815.314V30H814.342ZM814.222 22.608V21.516H815.422V22.608H814.222Z" fill="#667085"/>
<path d="M989.049 30.108C988.369 30.108 987.761 30.02 987.225 29.844C986.689 29.668 986.221 29.416 985.821 29.088L986.181 28.296C986.461 28.504 986.741 28.68 987.021 28.824C987.309 28.96 987.617 29.064 987.945 29.136C988.273 29.2 988.641 29.232 989.049 29.232C989.761 29.232 990.289 29.1 990.633 28.836C990.977 28.572 991.149 28.22 991.149 27.78C991.149 27.404 991.029 27.116 990.789 26.916C990.549 26.716 990.129 26.556 989.529 26.436L988.269 26.184C987.493 26.024 986.913 25.764 986.529 25.404C986.153 25.044 985.965 24.556 985.965 23.94C985.965 23.436 986.093 22.996 986.349 22.62C986.613 22.244 986.981 21.952 987.453 21.744C987.925 21.536 988.473 21.432 989.097 21.432C989.697 21.432 990.245 21.524 990.741 21.708C991.237 21.884 991.661 22.144 992.013 22.488L991.665 23.256C991.289 22.92 990.893 22.68 990.477 22.536C990.069 22.384 989.605 22.308 989.085 22.308C988.429 22.308 987.909 22.452 987.525 22.74C987.149 23.02 986.961 23.404 986.961 23.892C986.961 24.284 987.081 24.592 987.321 24.816C987.561 25.032 987.957 25.196 988.509 25.308L989.781 25.56C990.597 25.728 991.197 25.98 991.581 26.316C991.965 26.652 992.157 27.124 992.157 27.732C992.157 28.196 992.029 28.608 991.773 28.968C991.525 29.328 991.169 29.608 990.705 29.808C990.241 30.008 989.689 30.108 989.049 30.108ZM995.95 30.108C995.414 30.108 994.946 29.984 994.546 29.736C994.146 29.48 993.834 29.12 993.61 28.656C993.394 28.192 993.286 27.636 993.286 26.988C993.286 26.332 993.394 25.772 993.61 25.308C993.834 24.844 994.146 24.488 994.546 24.24C994.946 23.992 995.414 23.868 995.95 23.868C996.494 23.868 996.962 24.008 997.354 24.288C997.754 24.56 998.018 24.932 998.146 25.404H998.002L998.134 23.976H999.07C999.046 24.208 999.022 24.444 998.998 24.684C998.982 24.916 998.974 25.144 998.974 25.368V30H998.002V28.584H998.134C998.006 29.056 997.742 29.428 997.342 29.7C996.942 29.972 996.478 30.108 995.95 30.108ZM996.142 29.316C996.718 29.316 997.174 29.12 997.51 28.728C997.846 28.328 998.014 27.748 998.014 26.988C998.014 26.22 997.846 25.64 997.51 25.248C997.174 24.848 996.718 24.648 996.142 24.648C995.574 24.648 995.118 24.848 994.774 25.248C994.438 25.64 994.27 26.22 994.27 26.988C994.27 27.748 994.438 28.328 994.774 28.728C995.118 29.12 995.574 29.316 996.142 29.316ZM1002.99 30.108C1002.4 30.108 1001.94 29.94 1001.63 29.604C1001.32 29.26 1001.16 28.744 1001.16 28.056V24.732H999.989V23.976H1001.16V22.332L1002.14 22.056V23.976H1003.86V24.732H1002.14V27.948C1002.14 28.428 1002.22 28.772 1002.38 28.98C1002.54 29.18 1002.79 29.28 1003.12 29.28C1003.27 29.28 1003.41 29.268 1003.53 29.244C1003.65 29.212 1003.76 29.176 1003.85 29.136V29.952C1003.74 30 1003.6 30.036 1003.44 30.06C1003.29 30.092 1003.14 30.108 1002.99 30.108Z" fill="#667085"/>
<path d="M1173.1 30.108C1172.42 30.108 1171.81 30.02 1171.28 29.844C1170.74 29.668 1170.27 29.416 1169.87 29.088L1170.23 28.296C1170.51 28.504 1170.79 28.68 1171.07 28.824C1171.36 28.96 1171.67 29.064 1172 29.136C1172.32 29.2 1172.69 29.232 1173.1 29.232C1173.81 29.232 1174.34 29.1 1174.68 28.836C1175.03 28.572 1175.2 28.22 1175.2 27.78C1175.2 27.404 1175.08 27.116 1174.84 26.916C1174.6 26.716 1174.18 26.556 1173.58 26.436L1172.32 26.184C1171.54 26.024 1170.96 25.764 1170.58 25.404C1170.2 25.044 1170.02 24.556 1170.02 23.94C1170.02 23.436 1170.14 22.996 1170.4 22.62C1170.66 22.244 1171.03 21.952 1171.5 21.744C1171.98 21.536 1172.52 21.432 1173.15 21.432C1173.75 21.432 1174.3 21.524 1174.79 21.708C1175.29 21.884 1175.71 22.144 1176.06 22.488L1175.72 23.256C1175.34 22.92 1174.94 22.68 1174.53 22.536C1174.12 22.384 1173.66 22.308 1173.14 22.308C1172.48 22.308 1171.96 22.452 1171.58 22.74C1171.2 23.02 1171.01 23.404 1171.01 23.892C1171.01 24.284 1171.13 24.592 1171.37 24.816C1171.61 25.032 1172.01 25.196 1172.56 25.308L1173.83 25.56C1174.65 25.728 1175.25 25.98 1175.63 26.316C1176.02 26.652 1176.21 27.124 1176.21 27.732C1176.21 28.196 1176.08 28.608 1175.82 28.968C1175.58 29.328 1175.22 29.608 1174.76 29.808C1174.29 30.008 1173.74 30.108 1173.1 30.108ZM1179.83 30.108C1179.12 30.108 1178.58 29.912 1178.21 29.52C1177.85 29.128 1177.67 28.528 1177.67 27.72V23.976H1178.64V27.696C1178.64 28.248 1178.76 28.656 1178.98 28.92C1179.2 29.176 1179.55 29.304 1180.02 29.304C1180.55 29.304 1180.98 29.132 1181.3 28.788C1181.62 28.444 1181.78 27.984 1181.78 27.408V23.976H1182.75V30H1181.8V28.644H1181.96C1181.79 29.108 1181.52 29.468 1181.14 29.724C1180.77 29.98 1180.34 30.108 1179.83 30.108ZM1184.63 30V25.368C1184.63 25.144 1184.62 24.916 1184.6 24.684C1184.58 24.444 1184.56 24.208 1184.54 23.976H1185.47L1185.59 25.296H1185.45C1185.63 24.832 1185.91 24.48 1186.29 24.24C1186.68 23.992 1187.13 23.868 1187.65 23.868C1188.36 23.868 1188.89 24.06 1189.25 24.444C1189.62 24.82 1189.81 25.416 1189.81 26.232V30H1188.83V26.292C1188.83 25.724 1188.72 25.312 1188.49 25.056C1188.26 24.792 1187.91 24.66 1187.43 24.66C1186.87 24.66 1186.43 24.832 1186.1 25.176C1185.77 25.52 1185.61 25.98 1185.61 26.556V30H1184.63Z" fill="#667085"/>
<path d="M25.8805 174V165.54H26.7445L30.1405 173.208H29.7925L33.1885 165.54H34.0525V174H33.1405V166.824H33.5005L30.2965 174H29.6365L26.4205 166.824H26.7805V174H25.8805ZM38.5333 174.108C37.9573 174.108 37.4533 173.984 37.0213 173.736C36.5973 173.48 36.2693 173.12 36.0373 172.656C35.8053 172.184 35.6893 171.628 35.6893 170.988C35.6893 170.34 35.8053 169.784 36.0373 169.32C36.2693 168.856 36.5973 168.5 37.0213 168.252C37.4533 167.996 37.9573 167.868 38.5333 167.868C39.1173 167.868 39.6213 167.996 40.0453 168.252C40.4773 168.5 40.8093 168.856 41.0413 169.32C41.2813 169.784 41.4013 170.34 41.4013 170.988C41.4013 171.628 41.2813 172.184 41.0413 172.656C40.8093 173.12 40.4773 173.48 40.0453 173.736C39.6213 173.984 39.1173 174.108 38.5333 174.108ZM38.5333 173.316C39.1093 173.316 39.5653 173.12 39.9013 172.728C40.2373 172.328 40.4053 171.748 40.4053 170.988C40.4053 170.22 40.2333 169.64 39.8893 169.248C39.5533 168.848 39.1013 168.648 38.5333 168.648C37.9653 168.648 37.5133 168.848 37.1773 169.248C36.8413 169.64 36.6733 170.22 36.6733 170.988C36.6733 171.748 36.8413 172.328 37.1773 172.728C37.5133 173.12 37.9653 173.316 38.5333 173.316ZM42.9168 174V169.368C42.9168 169.144 42.9048 168.916 42.8808 168.684C42.8648 168.444 42.8448 168.208 42.8208 167.976H43.7568L43.8768 169.296H43.7327C43.9088 168.832 44.1888 168.48 44.5728 168.24C44.9648 167.992 45.4168 167.868 45.9288 167.868C46.6408 167.868 47.1768 168.06 47.5368 168.444C47.9048 168.82 48.0888 169.416 48.0888 170.232V174H47.1168V170.292C47.1168 169.724 47.0008 169.312 46.7688 169.056C46.5448 168.792 46.1928 168.66 45.7128 168.66C45.1528 168.66 44.7088 168.832 44.3808 169.176C44.0528 169.52 43.8888 169.98 43.8888 170.556V174H42.9168Z" fill="#667085"/>
<path d="M81.7799 174V166.38H78.7919V165.54H85.7519V166.38H82.7759V174H81.7799ZM88.1189 174.108C87.4069 174.108 86.8669 173.912 86.4989 173.52C86.1389 173.128 85.9589 172.528 85.9589 171.72V167.976H86.9309V171.696C86.9309 172.248 87.0429 172.656 87.2669 172.92C87.4909 173.176 87.8389 173.304 88.3109 173.304C88.8389 173.304 89.2629 173.132 89.5829 172.788C89.9029 172.444 90.0629 171.984 90.0629 171.408V167.976H91.0349V174H90.0869V172.644H90.2429C90.0749 173.108 89.8029 173.468 89.4269 173.724C89.0589 173.98 88.6229 174.108 88.1189 174.108ZM95.5967 174.108C94.6527 174.108 93.9087 173.836 93.3647 173.292C92.8207 172.74 92.5487 171.976 92.5487 171C92.5487 170.368 92.6687 169.82 92.9087 169.356C93.1487 168.884 93.4847 168.52 93.9167 168.264C94.3487 168 94.8447 167.868 95.4047 167.868C95.9567 167.868 96.4207 167.984 96.7967 168.216C97.1727 168.448 97.4607 168.78 97.6607 169.212C97.8607 169.636 97.9607 170.14 97.9607 170.724V171.084H93.2927V170.472H97.3247L97.1207 170.628C97.1207 169.988 96.9767 169.488 96.6887 169.128C96.4007 168.768 95.9727 168.588 95.4047 168.588C94.8047 168.588 94.3367 168.8 94.0007 169.224C93.6647 169.64 93.4967 170.204 93.4967 170.916V171.024C93.4967 171.776 93.6807 172.348 94.0487 172.74C94.4247 173.124 94.9487 173.316 95.6207 173.316C95.9807 173.316 96.3167 173.264 96.6287 173.16C96.9487 173.048 97.2527 172.868 97.5407 172.62L97.8767 173.304C97.6127 173.56 97.2767 173.76 96.8687 173.904C96.4687 174.04 96.0447 174.108 95.5967 174.108Z" fill="#667085"/>
<path d="M131.993 174L129.041 165.54H130.085L132.665 173.16H132.245L134.957 165.54H135.749L138.317 173.16H137.933L140.585 165.54H141.569L138.593 174H137.705L135.209 166.668H135.461L132.857 174H131.993ZM144.901 174.108C143.957 174.108 143.213 173.836 142.669 173.292C142.125 172.74 141.853 171.976 141.853 171C141.853 170.368 141.973 169.82 142.213 169.356C142.453 168.884 142.789 168.52 143.221 168.264C143.653 168 144.149 167.868 144.709 167.868C145.261 167.868 145.725 167.984 146.101 168.216C146.477 168.448 146.765 168.78 146.965 169.212C147.165 169.636 147.265 170.14 147.265 170.724V171.084H142.597V170.472H146.629L146.425 170.628C146.425 169.988 146.281 169.488 145.993 169.128C145.705 168.768 145.277 168.588 144.709 168.588C144.109 168.588 143.641 168.8 143.305 169.224C142.969 169.64 142.801 170.204 142.801 170.916V171.024C142.801 171.776 142.985 172.348 143.353 172.74C143.729 173.124 144.253 173.316 144.925 173.316C145.285 173.316 145.621 173.264 145.933 173.16C146.253 173.048 146.557 172.868 146.845 172.62L147.181 173.304C146.917 173.56 146.581 173.76 146.173 173.904C145.773 174.04 145.349 174.108 144.901 174.108ZM151.033 174.108C150.505 174.108 150.041 173.984 149.641 173.736C149.241 173.48 148.929 173.12 148.705 172.656C148.489 172.192 148.381 171.636 148.381 170.988C148.381 170.332 148.489 169.772 148.705 169.308C148.929 168.844 149.241 168.488 149.641 168.24C150.041 167.992 150.505 167.868 151.033 167.868C151.577 167.868 152.045 168.004 152.437 168.276C152.837 168.548 153.105 168.916 153.241 169.38H153.097V165.168H154.069V174H153.109V172.56H153.241C153.113 173.04 152.849 173.42 152.449 173.7C152.049 173.972 151.577 174.108 151.033 174.108ZM151.237 173.316C151.805 173.316 152.261 173.12 152.605 172.728C152.949 172.328 153.121 171.748 153.121 170.988C153.121 170.22 152.949 169.64 152.605 169.248C152.261 168.848 151.805 168.648 151.237 168.648C150.669 168.648 150.213 168.848 149.869 169.248C149.533 169.64 149.365 170.22 149.365 170.988C149.365 171.748 149.533 172.328 149.869 172.728C150.213 173.12 150.669 173.316 151.237 173.316Z" fill="#667085"/>
<path d="M188.409 174V166.38H185.421V165.54H192.381V166.38H189.405V174H188.409ZM193.491 174V165.168H194.463V169.308H194.307C194.475 168.836 194.755 168.48 195.147 168.24C195.547 167.992 196.007 167.868 196.527 167.868C197.247 167.868 197.783 168.064 198.135 168.456C198.487 168.84 198.663 169.424 198.663 170.208V174H197.691V170.268C197.691 169.708 197.579 169.3 197.355 169.044C197.139 168.788 196.787 168.66 196.299 168.66C195.739 168.66 195.291 168.832 194.955 169.176C194.627 169.52 194.463 169.972 194.463 170.532V174H193.491ZM202.646 174.108C201.934 174.108 201.394 173.912 201.026 173.52C200.666 173.128 200.486 172.528 200.486 171.72V167.976H201.458V171.696C201.458 172.248 201.57 172.656 201.794 172.92C202.018 173.176 202.366 173.304 202.838 173.304C203.366 173.304 203.79 173.132 204.11 172.788C204.43 172.444 204.59 171.984 204.59 171.408V167.976H205.562V174H204.614V172.644H204.77C204.602 173.108 204.33 173.468 203.954 173.724C203.586 173.98 203.15 174.108 202.646 174.108Z" fill="#667085"/>
<path d="M237.216 174V165.54H242.496V166.356H238.212V169.32H242.232V170.136H238.212V174H237.216ZM243.705 174V169.428C243.705 169.188 243.697 168.944 243.681 168.696C243.673 168.448 243.657 168.208 243.633 167.976H244.569L244.689 169.44L244.521 169.452C244.601 169.092 244.741 168.796 244.941 168.564C245.141 168.332 245.377 168.16 245.649 168.048C245.921 167.928 246.205 167.868 246.501 167.868C246.621 167.868 246.725 167.872 246.813 167.88C246.909 167.888 246.997 167.908 247.077 167.94L247.065 168.804C246.945 168.764 246.833 168.74 246.729 168.732C246.633 168.716 246.521 168.708 246.393 168.708C246.041 168.708 245.733 168.792 245.469 168.96C245.213 169.128 245.017 169.344 244.881 169.608C244.753 169.872 244.689 170.152 244.689 170.448V174H243.705ZM248.089 174V167.976H249.061V174H248.089ZM247.969 166.608V165.516H249.169V166.608H247.969Z" fill="#667085"/>
<path d="M283.449 174.108C282.769 174.108 282.161 174.02 281.625 173.844C281.089 173.668 280.621 173.416 280.221 173.088L280.581 172.296C280.861 172.504 281.141 172.68 281.421 172.824C281.709 172.96 282.017 173.064 282.345 173.136C282.673 173.2 283.041 173.232 283.449 173.232C284.161 173.232 284.689 173.1 285.033 172.836C285.377 172.572 285.549 172.22 285.549 171.78C285.549 171.404 285.429 171.116 285.189 170.916C284.949 170.716 284.529 170.556 283.929 170.436L282.669 170.184C281.893 170.024 281.313 169.764 280.929 169.404C280.553 169.044 280.365 168.556 280.365 167.94C280.365 167.436 280.493 166.996 280.749 166.62C281.013 166.244 281.381 165.952 281.853 165.744C282.325 165.536 282.873 165.432 283.497 165.432C284.097 165.432 284.645 165.524 285.141 165.708C285.637 165.884 286.061 166.144 286.413 166.488L286.065 167.256C285.689 166.92 285.293 166.68 284.877 166.536C284.469 166.384 284.005 166.308 283.485 166.308C282.829 166.308 282.309 166.452 281.925 166.74C281.549 167.02 281.361 167.404 281.361 167.892C281.361 168.284 281.481 168.592 281.721 168.816C281.961 169.032 282.357 169.196 282.909 169.308L284.181 169.56C284.997 169.728 285.597 169.98 285.981 170.316C286.365 170.652 286.557 171.124 286.557 171.732C286.557 172.196 286.429 172.608 286.173 172.968C285.925 173.328 285.569 173.608 285.105 173.808C284.641 174.008 284.089 174.108 283.449 174.108ZM290.349 174.108C289.813 174.108 289.345 173.984 288.945 173.736C288.545 173.48 288.233 173.12 288.009 172.656C287.793 172.192 287.685 171.636 287.685 170.988C287.685 170.332 287.793 169.772 288.009 169.308C288.233 168.844 288.545 168.488 288.945 168.24C289.345 167.992 289.813 167.868 290.349 167.868C290.893 167.868 291.361 168.008 291.753 168.288C292.153 168.56 292.417 168.932 292.545 169.404H292.401L292.533 167.976H293.469C293.445 168.208 293.421 168.444 293.397 168.684C293.381 168.916 293.373 169.144 293.373 169.368V174H292.401V172.584H292.533C292.405 173.056 292.141 173.428 291.741 173.7C291.341 173.972 290.877 174.108 290.349 174.108ZM290.541 173.316C291.117 173.316 291.573 173.12 291.909 172.728C292.245 172.328 292.413 171.748 292.413 170.988C292.413 170.22 292.245 169.64 291.909 169.248C291.573 168.848 291.117 168.648 290.541 168.648C289.973 168.648 289.517 168.848 289.173 169.248C288.837 169.64 288.669 170.22 288.669 170.988C288.669 171.748 288.837 172.328 289.173 172.728C289.517 173.12 289.973 173.316 290.541 173.316ZM297.389 174.108C296.797 174.108 296.345 173.94 296.033 173.604C295.721 173.26 295.565 172.744 295.565 172.056V168.732H294.389V167.976H295.565V166.332L296.537 166.056V167.976H298.265V168.732H296.537V171.948C296.537 172.428 296.617 172.772 296.777 172.98C296.945 173.18 297.193 173.28 297.521 173.28C297.673 173.28 297.809 173.268 297.929 173.244C298.049 173.212 298.157 173.176 298.253 173.136V173.952C298.141 174 298.005 174.036 297.845 174.06C297.693 174.092 297.541 174.108 297.389 174.108Z" fill="#667085"/>
<path d="M332.382 174.108C331.702 174.108 331.094 174.02 330.558 173.844C330.022 173.668 329.554 173.416 329.154 173.088L329.514 172.296C329.794 172.504 330.074 172.68 330.354 172.824C330.642 172.96 330.95 173.064 331.278 173.136C331.606 173.2 331.974 173.232 332.382 173.232C333.094 173.232 333.622 173.1 333.966 172.836C334.31 172.572 334.482 172.22 334.482 171.78C334.482 171.404 334.362 171.116 334.122 170.916C333.882 170.716 333.462 170.556 332.862 170.436L331.602 170.184C330.826 170.024 330.246 169.764 329.862 169.404C329.486 169.044 329.298 168.556 329.298 167.94C329.298 167.436 329.426 166.996 329.682 166.62C329.946 166.244 330.314 165.952 330.786 165.744C331.258 165.536 331.806 165.432 332.43 165.432C333.03 165.432 333.578 165.524 334.074 165.708C334.57 165.884 334.994 166.144 335.346 166.488L334.998 167.256C334.622 166.92 334.226 166.68 333.81 166.536C333.402 166.384 332.938 166.308 332.418 166.308C331.762 166.308 331.242 166.452 330.858 166.74C330.482 167.02 330.294 167.404 330.294 167.892C330.294 168.284 330.414 168.592 330.654 168.816C330.894 169.032 331.29 169.196 331.842 169.308L333.114 169.56C333.93 169.728 334.53 169.98 334.914 170.316C335.298 170.652 335.49 171.124 335.49 171.732C335.49 172.196 335.362 172.608 335.106 172.968C334.858 173.328 334.502 173.608 334.038 173.808C333.574 174.008 333.022 174.108 332.382 174.108ZM339.115 174.108C338.403 174.108 337.863 173.912 337.495 173.52C337.135 173.128 336.955 172.528 336.955 171.72V167.976H337.927V171.696C337.927 172.248 338.039 172.656 338.263 172.92C338.487 173.176 338.835 173.304 339.307 173.304C339.835 173.304 340.259 173.132 340.579 172.788C340.899 172.444 341.059 171.984 341.059 171.408V167.976H342.031V174H341.083V172.644H341.239C341.071 173.108 340.799 173.468 340.423 173.724C340.055 173.98 339.619 174.108 339.115 174.108ZM343.917 174V169.368C343.917 169.144 343.905 168.916 343.881 168.684C343.865 168.444 343.845 168.208 343.821 167.976H344.757L344.877 169.296H344.733C344.909 168.832 345.189 168.48 345.573 168.24C345.965 167.992 346.417 167.868 346.929 167.868C347.641 167.868 348.177 168.06 348.537 168.444C348.905 168.82 349.089 169.416 349.089 170.232V174H348.117V170.292C348.117 169.724 348.001 169.312 347.769 169.056C347.545 168.792 347.193 168.66 346.713 168.66C346.153 168.66 345.709 168.832 345.381 169.176C345.053 169.52 344.889 169.98 344.889 170.556V174H343.917Z" fill="#667085"/>
</svg>
