<svg width="444" height="824" viewBox="0 0 444 824" fill="none" xmlns="http://www.w3.org/2000/svg">
<g clip-path="url(#clip0_9635_277712)">
<path d="M30.3243 73.4377L98.4993 18.7134L166.674 108.7L234.849 145L303.024 53.7321L363.568 73.4377L430.216 -4" stroke="#038C8C" stroke-width="2" stroke-linecap="round" stroke-linejoin="round"/>
<path d="M98.4993 18.7124L28.8649 73.5V209.5H431.676V-6.5L363.568 73.4344L303.024 53.7297L234.849 144.994L166.674 108.695L98.4993 18.7124Z" fill="#F5FEF8"/>
<ellipse cx="31.2973" cy="73" rx="2.91892" ry="3" fill="white" stroke="#038C8C" stroke-width="1.5"/>
<ellipse cx="98.4325" cy="20" rx="2.91892" ry="3" fill="white" stroke="#038C8C" stroke-width="1.5"/>
<ellipse cx="166.54" cy="109" rx="2.91891" ry="3" fill="white" stroke="#038C8C" stroke-width="1.5"/>
<ellipse cx="233.676" cy="145" rx="2.91891" ry="3" fill="white" stroke="#038C8C" stroke-width="1.5"/>
<ellipse cx="302.757" cy="54" rx="2.91893" ry="3" fill="white" stroke="#038C8C" stroke-width="1.5"/>
<ellipse cx="363.081" cy="74" rx="2.91891" ry="3" fill="white" stroke="#038C8C" stroke-width="1.5"/>
<path d="M89.2769 429L21 475.5L21.5 566H422L423 362L351.282 397H294.107L225.276 447L160.329 424L89.2769 429Z" fill="#F5FEF8"/>
<path d="M22.1102 474L89.2769 429L160.329 424L225.276 447L294.107 397H351.282L420.114 363" stroke="#038C8C" stroke-width="2" stroke-linecap="round" stroke-linejoin="round"/>
<circle cx="23.8201" cy="473" r="3" fill="white" stroke="#038C8C" stroke-width="1.5"/>
<circle cx="91.7218" cy="429" r="3" fill="white" stroke="#038C8C" stroke-width="1.5"/>
<circle cx="158.844" cy="424" r="3" fill="white" stroke="#038C8C" stroke-width="1.5"/>
<circle cx="224.735" cy="447" r="3" fill="white" stroke="#038C8C" stroke-width="1.5"/>
<circle cx="294.947" cy="397" r="3" fill="white" stroke="#038C8C" stroke-width="1.5"/>
<circle cx="354.357" cy="396" r="3" fill="white" stroke="#038C8C" stroke-width="1.5"/>
<circle cx="420.249" cy="363.864" r="3" fill="white" stroke="#038C8C" stroke-width="1.5"/>
<path d="M92.6074 485L21.5 508.5V566H422.335V433L355.168 476.148H294.607L227.038 508L159.469 495.332L92.6074 485Z" fill="#FCFCFD"/>
<path d="M22.6653 508L92.6074 485L159.469 495.332L227.038 508L294.607 476.148H355.168L422.335 433" stroke="#6773B0" stroke-width="2" stroke-linecap="round" stroke-linejoin="round"/>
<circle cx="23.8201" cy="507" r="3" fill="white" stroke="#6773B0" stroke-width="1.5"/>
<circle cx="91.7218" cy="485" r="3" fill="white" stroke="#6773B0" stroke-width="1.5"/>
<circle cx="158.844" cy="495" r="3" fill="white" stroke="#6773B0" stroke-width="1.5"/>
<circle cx="224.735" cy="508" r="3" fill="white" stroke="#6773B0" stroke-width="1.5"/>
<circle cx="294.947" cy="477" r="3" fill="white" stroke="#6773B0" stroke-width="1.5"/>
<circle cx="354.357" cy="476" r="3" fill="white" stroke="#6773B0" stroke-width="1.5"/>
<circle cx="420.249" cy="434.864" r="3" fill="white" stroke="#6773B0" stroke-width="1.5"/>
<path d="M91.8998 520.268L22 544.5V565.5H422.5V510.5L354.613 530.552L294.607 526.849L227.038 544L159.469 537.179L91.8998 520.268Z" fill="#EAFAFE"/>
<path d="M23.7755 544L91.8998 520.268L159.469 537.179L227.038 544L294.607 526.849L354.613 530.552L421.225 510.5" stroke="#022859" stroke-width="2" stroke-linecap="round" stroke-linejoin="round"/>
<circle cx="23.8201" cy="544" r="3" fill="white" stroke="#022859" stroke-width="1.5"/>
<circle cx="91.7218" cy="521" r="3" fill="white" stroke="#022859" stroke-width="1.5"/>
<circle cx="158.844" cy="538" r="3" fill="white" stroke="#022859" stroke-width="1.5"/>
<circle cx="224.735" cy="545" r="3" fill="white" stroke="#022859" stroke-width="1.5"/>
<circle cx="294.947" cy="528" r="3" fill="white" stroke="#022859" stroke-width="1.5"/>
<circle cx="354.357" cy="531" r="3" fill="white" stroke="#022859" stroke-width="1.5"/>
<circle cx="420.249" cy="510.864" r="3" fill="white" stroke="#022859" stroke-width="1.5"/>
<path d="M89.2769 667L21 713.5L21.5 804H422L423 600L351.282 635H294.107L225.276 685L160.329 662L89.2769 667Z" fill="#F5FEF8"/>
<path d="M22.1102 712L89.2769 667L160.329 662L225.276 685L294.107 635H351.282L420.114 601" stroke="#038C8C" stroke-width="2" stroke-linecap="round" stroke-linejoin="round"/>
<circle cx="23.8201" cy="711" r="3" fill="white" stroke="#038C8C" stroke-width="1.5"/>
<circle cx="91.7218" cy="667" r="3" fill="white" stroke="#038C8C" stroke-width="1.5"/>
<circle cx="158.844" cy="662" r="3" fill="white" stroke="#038C8C" stroke-width="1.5"/>
<circle cx="224.735" cy="685" r="3" fill="white" stroke="#038C8C" stroke-width="1.5"/>
<circle cx="294.947" cy="635" r="3" fill="white" stroke="#038C8C" stroke-width="1.5"/>
<circle cx="354.357" cy="634" r="3" fill="white" stroke="#038C8C" stroke-width="1.5"/>
<circle cx="420.249" cy="601.864" r="3" fill="white" stroke="#038C8C" stroke-width="1.5"/>
<path d="M91.8998 758.268L22 782.5V803.5H422.5V748.5L354.613 768.552L294.607 764.849L227.038 782L159.469 775.179L91.8998 758.268Z" fill="#EAFAFE"/>
<path d="M23.7755 782L91.8998 758.268L159.469 775.179L227.038 782L294.607 764.849L354.613 768.552L421.225 748.5" stroke="#022859" stroke-width="2" stroke-linecap="round" stroke-linejoin="round"/>
<circle cx="23.8201" cy="782" r="3" fill="white" stroke="#022859" stroke-width="1.5"/>
<circle cx="91.7218" cy="759" r="3" fill="white" stroke="#022859" stroke-width="1.5"/>
<circle cx="158.844" cy="776" r="3" fill="white" stroke="#022859" stroke-width="1.5"/>
<circle cx="224.735" cy="783" r="3" fill="white" stroke="#022859" stroke-width="1.5"/>
<circle cx="294.947" cy="766" r="3" fill="white" stroke="#022859" stroke-width="1.5"/>
<circle cx="354.357" cy="769" r="3" fill="white" stroke="#022859" stroke-width="1.5"/>
<circle cx="420.249" cy="748.864" r="3" fill="white" stroke="#022859" stroke-width="1.5"/>
</g>
<rect x="0.5" y="0.5" width="443" height="823" rx="4.5" stroke="#7B61FF" stroke-dasharray="10 5"/>
<defs>
<clipPath id="clip0_9635_277712">
<rect width="444" height="824" rx="5" fill="white"/>
</clipPath>
</defs>
</svg>
