<svg width="1248" height="382" viewBox="0 0 1248 382" fill="none" xmlns="http://www.w3.org/2000/svg">
<rect x="0.5" y="0.5" width="1247" height="381" rx="4.5" fill="white"/>
<rect x="0.5" y="0.5" width="1247" height="381" rx="4.5" stroke="#7B61FF" stroke-dasharray="10 5"/>
<line x1="16.5" y1="27" x2="1231.5" y2="27" stroke="#F2F4F7" stroke-linecap="round"/>
<line x1="16.5" y1="58.5" x2="1231.5" y2="58.5" stroke="#F2F4F7" stroke-linecap="round"/>
<line x1="16.5" y1="87.5" x2="1231.5" y2="87.5" stroke="#F2F4F7" stroke-linecap="round"/>
<line x1="16.5" y1="116.5" x2="1231.5" y2="116.5" stroke="#F2F4F7" stroke-linecap="round"/>
<line x1="16.5" y1="145.5" x2="1231.5" y2="145.5" stroke="#F2F4F7" stroke-linecap="round"/>
<line x1="16.5" y1="174.5" x2="1231.5" y2="174.5" stroke="#F2F4F7" stroke-linecap="round"/>
<path d="M18.0123 215V214.148H20.0043V207.392H20.5323L18.2043 208.844V207.848L20.2803 206.54H21.0003V214.148H22.8723V215H18.0123ZM24.9436 216.368L24.4876 216.02C24.7036 215.796 24.8436 215.584 24.9076 215.384C24.9796 215.192 25.0156 214.996 25.0156 214.796L25.2316 215H24.4396V213.776H25.6636V214.64C25.6636 214.96 25.6116 215.26 25.5076 215.54C25.4036 215.828 25.2156 216.104 24.9436 216.368ZM30.0141 215.108C29.0541 215.108 28.3181 214.736 27.8061 213.992C27.2941 213.248 27.0381 212.172 27.0381 210.764C27.0381 209.348 27.2941 208.272 27.8061 207.536C28.3181 206.8 29.0541 206.432 30.0141 206.432C30.9821 206.432 31.7181 206.8 32.2221 207.536C32.7341 208.272 32.9901 209.344 32.9901 210.752C32.9901 212.168 32.7341 213.248 32.2221 213.992C31.7101 214.736 30.9741 215.108 30.0141 215.108ZM30.0141 214.244C30.6861 214.244 31.1861 213.96 31.5141 213.392C31.8421 212.824 32.0061 211.944 32.0061 210.752C32.0061 209.552 31.8421 208.676 31.5141 208.124C31.1861 207.564 30.6861 207.284 30.0141 207.284C29.3501 207.284 28.8501 207.564 28.5141 208.124C28.1861 208.684 28.0221 209.56 28.0221 210.752C28.0221 211.944 28.1861 212.824 28.5141 213.392C28.8501 213.96 29.3501 214.244 30.0141 214.244ZM37.2094 215.108C36.2494 215.108 35.5134 214.736 35.0014 213.992C34.4894 213.248 34.2334 212.172 34.2334 210.764C34.2334 209.348 34.4894 208.272 35.0014 207.536C35.5134 206.8 36.2494 206.432 37.2094 206.432C38.1774 206.432 38.9134 206.8 39.4174 207.536C39.9294 208.272 40.1854 209.344 40.1854 210.752C40.1854 212.168 39.9294 213.248 39.4174 213.992C38.9054 214.736 38.1694 215.108 37.2094 215.108ZM37.2094 214.244C37.8814 214.244 38.3814 213.96 38.7094 213.392C39.0374 212.824 39.2014 211.944 39.2014 210.752C39.2014 209.552 39.0374 208.676 38.7094 208.124C38.3814 207.564 37.8814 207.284 37.2094 207.284C36.5454 207.284 36.0454 207.564 35.7094 208.124C35.3814 208.684 35.2174 209.56 35.2174 210.752C35.2174 211.944 35.3814 212.824 35.7094 213.392C36.0454 213.96 36.5454 214.244 37.2094 214.244ZM44.4047 215.108C43.4447 215.108 42.7087 214.736 42.1967 213.992C41.6847 213.248 41.4287 212.172 41.4287 210.764C41.4287 209.348 41.6847 208.272 42.1967 207.536C42.7087 206.8 43.4447 206.432 44.4047 206.432C45.3727 206.432 46.1087 206.8 46.6127 207.536C47.1247 208.272 47.3807 209.344 47.3807 210.752C47.3807 212.168 47.1247 213.248 46.6127 213.992C46.1007 214.736 45.3647 215.108 44.4047 215.108ZM44.4047 214.244C45.0767 214.244 45.5767 213.96 45.9047 213.392C46.2327 212.824 46.3967 211.944 46.3967 210.752C46.3967 209.552 46.2327 208.676 45.9047 208.124C45.5767 207.564 45.0767 207.284 44.4047 207.284C43.7407 207.284 43.2407 207.564 42.9047 208.124C42.5767 208.684 42.4127 209.56 42.4127 210.752C42.4127 211.944 42.5767 212.824 42.9047 213.392C43.2407 213.96 43.7407 214.244 44.4047 214.244Z" fill="#667085"/>
<line x1="56.5" y1="210" x2="1231.5" y2="210" stroke="#F2F4F7" stroke-linecap="round"/>
<path d="M30.0141 246.608C29.0461 246.608 28.2981 246.404 27.7701 245.996C27.2421 245.58 26.9781 245 26.9781 244.256C26.9781 243.672 27.1581 243.188 27.5181 242.804C27.8781 242.412 28.3541 242.176 28.9461 242.096V242.276C28.4101 242.164 27.9821 241.92 27.6621 241.544C27.3421 241.16 27.1821 240.708 27.1821 240.188C27.1821 239.476 27.4341 238.924 27.9381 238.532C28.4421 238.132 29.1341 237.932 30.0141 237.932C30.9021 237.932 31.5981 238.132 32.1021 238.532C32.6061 238.924 32.8581 239.476 32.8581 240.188C32.8581 240.708 32.7061 241.16 32.4021 241.544C32.1061 241.928 31.6901 242.168 31.1541 242.264V242.096C31.7381 242.176 32.2021 242.412 32.5461 242.804C32.8901 243.188 33.0621 243.672 33.0621 244.256C33.0621 245 32.7981 245.58 32.2701 245.996C31.7421 246.404 30.9901 246.608 30.0141 246.608ZM30.0141 245.792C30.7181 245.792 31.2421 245.66 31.5861 245.396C31.9381 245.132 32.1141 244.732 32.1141 244.196C32.1141 243.668 31.9381 243.276 31.5861 243.02C31.2421 242.756 30.7181 242.624 30.0141 242.624C29.3101 242.624 28.7821 242.756 28.4301 243.02C28.0861 243.276 27.9141 243.668 27.9141 244.196C27.9141 244.732 28.0901 245.132 28.4421 245.396C28.7941 245.66 29.3181 245.792 30.0141 245.792ZM30.0141 241.808C30.6221 241.808 31.0861 241.672 31.4061 241.4C31.7341 241.128 31.8981 240.752 31.8981 240.272C31.8981 239.792 31.7341 239.42 31.4061 239.156C31.0861 238.884 30.6221 238.748 30.0141 238.748C29.4061 238.748 28.9381 238.884 28.6101 239.156C28.2901 239.42 28.1301 239.792 28.1301 240.272C28.1301 240.752 28.2901 241.128 28.6101 241.4C28.9381 241.672 29.4061 241.808 30.0141 241.808ZM37.2094 246.608C36.2494 246.608 35.5134 246.236 35.0014 245.492C34.4894 244.748 34.2334 243.672 34.2334 242.264C34.2334 240.848 34.4894 239.772 35.0014 239.036C35.5134 238.3 36.2494 237.932 37.2094 237.932C38.1774 237.932 38.9134 238.3 39.4174 239.036C39.9294 239.772 40.1854 240.844 40.1854 242.252C40.1854 243.668 39.9294 244.748 39.4174 245.492C38.9054 246.236 38.1694 246.608 37.2094 246.608ZM37.2094 245.744C37.8814 245.744 38.3814 245.46 38.7094 244.892C39.0374 244.324 39.2014 243.444 39.2014 242.252C39.2014 241.052 39.0374 240.176 38.7094 239.624C38.3814 239.064 37.8814 238.784 37.2094 238.784C36.5454 238.784 36.0454 239.064 35.7094 239.624C35.3814 240.184 35.2174 241.06 35.2174 242.252C35.2174 243.444 35.3814 244.324 35.7094 244.892C36.0454 245.46 36.5454 245.744 37.2094 245.744ZM44.4047 246.608C43.4447 246.608 42.7087 246.236 42.1967 245.492C41.6847 244.748 41.4287 243.672 41.4287 242.264C41.4287 240.848 41.6847 239.772 42.1967 239.036C42.7087 238.3 43.4447 237.932 44.4047 237.932C45.3727 237.932 46.1087 238.3 46.6127 239.036C47.1247 239.772 47.3807 240.844 47.3807 242.252C47.3807 243.668 47.1247 244.748 46.6127 245.492C46.1007 246.236 45.3647 246.608 44.4047 246.608ZM44.4047 245.744C45.0767 245.744 45.5767 245.46 45.9047 244.892C46.2327 244.324 46.3967 243.444 46.3967 242.252C46.3967 241.052 46.2327 240.176 45.9047 239.624C45.5767 239.064 45.0767 238.784 44.4047 238.784C43.7407 238.784 43.2407 239.064 42.9047 239.624C42.5767 240.184 42.4127 241.06 42.4127 242.252C42.4127 243.444 42.5767 244.324 42.9047 244.892C43.2407 245.46 43.7407 245.744 44.4047 245.744Z" fill="#667085"/>
<line x1="56.5" y1="241.5" x2="1231.5" y2="241.5" stroke="#F2F4F7" stroke-linecap="round"/>
<path d="M30.2901 275.608C29.2661 275.608 28.4741 275.248 27.9141 274.528C27.3621 273.8 27.0861 272.784 27.0861 271.48C27.0861 270.504 27.2261 269.68 27.5061 269.008C27.7861 268.328 28.1861 267.812 28.7061 267.46C29.2261 267.108 29.8541 266.932 30.5901 266.932C31.0301 266.932 31.4741 267.024 31.9221 267.208C32.3701 267.384 32.7381 267.632 33.0261 267.952L32.6661 268.72C32.3621 268.408 32.0301 268.18 31.6701 268.036C31.3101 267.884 30.9461 267.808 30.5781 267.808C29.7621 267.808 29.1341 268.1 28.6941 268.684C28.2621 269.26 28.0461 270.128 28.0461 271.288V272.404H27.9381C27.9941 271.948 28.1301 271.556 28.3461 271.228C28.5701 270.892 28.8621 270.636 29.2221 270.46C29.5821 270.284 29.9821 270.196 30.4221 270.196C30.9341 270.196 31.3861 270.308 31.7781 270.532C32.1701 270.756 32.4781 271.072 32.7021 271.48C32.9261 271.88 33.0381 272.34 33.0381 272.86C33.0381 273.388 32.9221 273.86 32.6901 274.276C32.4581 274.692 32.1341 275.02 31.7181 275.26C31.3021 275.492 30.8261 275.608 30.2901 275.608ZM30.2181 274.768C30.5861 274.768 30.9101 274.692 31.1901 274.54C31.4781 274.38 31.6981 274.16 31.8501 273.88C32.0101 273.592 32.0901 273.264 32.0901 272.896C32.0901 272.528 32.0101 272.204 31.8501 271.924C31.6981 271.644 31.4781 271.424 31.1901 271.264C30.9101 271.104 30.5861 271.024 30.2181 271.024C29.8501 271.024 29.5261 271.104 29.2461 271.264C28.9661 271.424 28.7461 271.644 28.5861 271.924C28.4341 272.204 28.3581 272.528 28.3581 272.896C28.3581 273.264 28.4341 273.592 28.5861 273.88C28.7461 274.16 28.9661 274.38 29.2461 274.54C29.5261 274.692 29.8501 274.768 30.2181 274.768ZM37.2094 275.608C36.2494 275.608 35.5134 275.236 35.0014 274.492C34.4894 273.748 34.2334 272.672 34.2334 271.264C34.2334 269.848 34.4894 268.772 35.0014 268.036C35.5134 267.3 36.2494 266.932 37.2094 266.932C38.1774 266.932 38.9134 267.3 39.4174 268.036C39.9294 268.772 40.1854 269.844 40.1854 271.252C40.1854 272.668 39.9294 273.748 39.4174 274.492C38.9054 275.236 38.1694 275.608 37.2094 275.608ZM37.2094 274.744C37.8814 274.744 38.3814 274.46 38.7094 273.892C39.0374 273.324 39.2014 272.444 39.2014 271.252C39.2014 270.052 39.0374 269.176 38.7094 268.624C38.3814 268.064 37.8814 267.784 37.2094 267.784C36.5454 267.784 36.0454 268.064 35.7094 268.624C35.3814 269.184 35.2174 270.06 35.2174 271.252C35.2174 272.444 35.3814 273.324 35.7094 273.892C36.0454 274.46 36.5454 274.744 37.2094 274.744ZM44.4047 275.608C43.4447 275.608 42.7087 275.236 42.1967 274.492C41.6847 273.748 41.4287 272.672 41.4287 271.264C41.4287 269.848 41.6847 268.772 42.1967 268.036C42.7087 267.3 43.4447 266.932 44.4047 266.932C45.3727 266.932 46.1087 267.3 46.6127 268.036C47.1247 268.772 47.3807 269.844 47.3807 271.252C47.3807 272.668 47.1247 273.748 46.6127 274.492C46.1007 275.236 45.3647 275.608 44.4047 275.608ZM44.4047 274.744C45.0767 274.744 45.5767 274.46 45.9047 273.892C46.2327 273.324 46.3967 272.444 46.3967 271.252C46.3967 270.052 46.2327 269.176 45.9047 268.624C45.5767 268.064 45.0767 267.784 44.4047 267.784C43.7407 267.784 43.2407 268.064 42.9047 268.624C42.5767 269.184 42.4127 270.06 42.4127 271.252C42.4127 272.444 42.5767 273.324 42.9047 273.892C43.2407 274.46 43.7407 274.744 44.4047 274.744Z" fill="#667085"/>
<line x1="56.5" y1="270.5" x2="1231.5" y2="270.5" stroke="#F2F4F7" stroke-linecap="round"/>
<path d="M31.0461 304.5V302.664H27.0141V301.944L31.2021 296.04H32.0181V301.86H33.3141V302.664H32.0181V304.5H31.0461ZM31.0461 301.86V297.216H31.3101L27.8301 302.112V301.86H31.0461ZM37.2094 304.608C36.2494 304.608 35.5134 304.236 35.0014 303.492C34.4894 302.748 34.2334 301.672 34.2334 300.264C34.2334 298.848 34.4894 297.772 35.0014 297.036C35.5134 296.3 36.2494 295.932 37.2094 295.932C38.1774 295.932 38.9134 296.3 39.4174 297.036C39.9294 297.772 40.1854 298.844 40.1854 300.252C40.1854 301.668 39.9294 302.748 39.4174 303.492C38.9054 304.236 38.1694 304.608 37.2094 304.608ZM37.2094 303.744C37.8814 303.744 38.3814 303.46 38.7094 302.892C39.0374 302.324 39.2014 301.444 39.2014 300.252C39.2014 299.052 39.0374 298.176 38.7094 297.624C38.3814 297.064 37.8814 296.784 37.2094 296.784C36.5454 296.784 36.0454 297.064 35.7094 297.624C35.3814 298.184 35.2174 299.06 35.2174 300.252C35.2174 301.444 35.3814 302.324 35.7094 302.892C36.0454 303.46 36.5454 303.744 37.2094 303.744ZM44.4047 304.608C43.4447 304.608 42.7087 304.236 42.1967 303.492C41.6847 302.748 41.4287 301.672 41.4287 300.264C41.4287 298.848 41.6847 297.772 42.1967 297.036C42.7087 296.3 43.4447 295.932 44.4047 295.932C45.3727 295.932 46.1087 296.3 46.6127 297.036C47.1247 297.772 47.3807 298.844 47.3807 300.252C47.3807 301.668 47.1247 302.748 46.6127 303.492C46.1007 304.236 45.3647 304.608 44.4047 304.608ZM44.4047 303.744C45.0767 303.744 45.5767 303.46 45.9047 302.892C46.2327 302.324 46.3967 301.444 46.3967 300.252C46.3967 299.052 46.2327 298.176 45.9047 297.624C45.5767 297.064 45.0767 296.784 44.4047 296.784C43.7407 296.784 43.2407 297.064 42.9047 297.624C42.5767 298.184 42.4127 299.06 42.4127 300.252C42.4127 301.444 42.5767 302.324 42.9047 302.892C43.2407 303.46 43.7407 303.744 44.4047 303.744Z" fill="#667085"/>
<line x1="56.5" y1="299.5" x2="1231.5" y2="299.5" stroke="#F2F4F7" stroke-linecap="round"/>
<path d="M27.4461 333.5V332.756L30.4461 329.624C30.8381 329.216 31.1301 328.828 31.3221 328.46C31.5221 328.084 31.6221 327.696 31.6221 327.296C31.6221 326.808 31.4701 326.44 31.1661 326.192C30.8621 325.936 30.4221 325.808 29.8461 325.808C29.3981 325.808 28.9821 325.888 28.5981 326.048C28.2221 326.2 27.8581 326.444 27.5061 326.78L27.1461 326C27.4661 325.68 27.8741 325.424 28.3701 325.232C28.8661 325.032 29.3901 324.932 29.9421 324.932C30.7981 324.932 31.4581 325.132 31.9221 325.532C32.3861 325.924 32.6181 326.484 32.6181 327.212C32.6181 327.748 32.4861 328.26 32.2221 328.748C31.9661 329.228 31.5901 329.724 31.0941 330.236L28.4421 332.924V332.648H32.9781V333.5H27.4461ZM37.2094 333.608C36.2494 333.608 35.5134 333.236 35.0014 332.492C34.4894 331.748 34.2334 330.672 34.2334 329.264C34.2334 327.848 34.4894 326.772 35.0014 326.036C35.5134 325.3 36.2494 324.932 37.2094 324.932C38.1774 324.932 38.9134 325.3 39.4174 326.036C39.9294 326.772 40.1854 327.844 40.1854 329.252C40.1854 330.668 39.9294 331.748 39.4174 332.492C38.9054 333.236 38.1694 333.608 37.2094 333.608ZM37.2094 332.744C37.8814 332.744 38.3814 332.46 38.7094 331.892C39.0374 331.324 39.2014 330.444 39.2014 329.252C39.2014 328.052 39.0374 327.176 38.7094 326.624C38.3814 326.064 37.8814 325.784 37.2094 325.784C36.5454 325.784 36.0454 326.064 35.7094 326.624C35.3814 327.184 35.2174 328.06 35.2174 329.252C35.2174 330.444 35.3814 331.324 35.7094 331.892C36.0454 332.46 36.5454 332.744 37.2094 332.744ZM44.4047 333.608C43.4447 333.608 42.7087 333.236 42.1967 332.492C41.6847 331.748 41.4287 330.672 41.4287 329.264C41.4287 327.848 41.6847 326.772 42.1967 326.036C42.7087 325.3 43.4447 324.932 44.4047 324.932C45.3727 324.932 46.1087 325.3 46.6127 326.036C47.1247 326.772 47.3807 327.844 47.3807 329.252C47.3807 330.668 47.1247 331.748 46.6127 332.492C46.1007 333.236 45.3647 333.608 44.4047 333.608ZM44.4047 332.744C45.0767 332.744 45.5767 332.46 45.9047 331.892C46.2327 331.324 46.3967 330.444 46.3967 329.252C46.3967 328.052 46.2327 327.176 45.9047 326.624C45.5767 326.064 45.0767 325.784 44.4047 325.784C43.7407 325.784 43.2407 326.064 42.9047 326.624C42.5767 327.184 42.4127 328.06 42.4127 329.252C42.4127 330.444 42.5767 331.324 42.9047 331.892C43.2407 332.46 43.7407 332.744 44.4047 332.744Z" fill="#667085"/>
<line x1="56.5" y1="328.5" x2="1231.5" y2="328.5" stroke="#F2F4F7" stroke-linecap="round"/>
<path d="M44.4047 362.608C43.4447 362.608 42.7087 362.236 42.1967 361.492C41.6847 360.748 41.4287 359.672 41.4287 358.264C41.4287 356.848 41.6847 355.772 42.1967 355.036C42.7087 354.3 43.4447 353.932 44.4047 353.932C45.3727 353.932 46.1087 354.3 46.6127 355.036C47.1247 355.772 47.3807 356.844 47.3807 358.252C47.3807 359.668 47.1247 360.748 46.6127 361.492C46.1007 362.236 45.3647 362.608 44.4047 362.608ZM44.4047 361.744C45.0767 361.744 45.5767 361.46 45.9047 360.892C46.2327 360.324 46.3967 359.444 46.3967 358.252C46.3967 357.052 46.2327 356.176 45.9047 355.624C45.5767 355.064 45.0767 354.784 44.4047 354.784C43.7407 354.784 43.2407 355.064 42.9047 355.624C42.5767 356.184 42.4127 357.06 42.4127 358.252C42.4127 359.444 42.5767 360.324 42.9047 360.892C43.2407 361.46 43.7407 361.744 44.4047 361.744Z" fill="#667085"/>
<line x1="56.5" y1="357.5" x2="1231.5" y2="357.5" stroke="#F2F4F7" stroke-linecap="round"/>
</svg>
