<svg width="992" height="373" viewBox="0 0 992 373" fill="none" xmlns="http://www.w3.org/2000/svg">
<rect x="0.5" y="0.5" width="991" height="372" rx="4.5" stroke="#7B61FF" stroke-dasharray="10 5"/>
<circle cx="292" cy="116" r="100" fill="#C8F9E8"/>
<path d="M292 16C313.118 16 333.694 22.6855 350.779 35.0983C367.863 47.5111 380.58 65.014 387.106 85.0983L292 116V16Z" fill="#026E78"/>
<path d="M387.106 85.0983C392.805 102.638 393.542 121.412 389.237 139.345C384.932 157.277 375.751 173.67 362.711 186.711C349.67 199.751 333.277 208.932 315.345 213.237C297.412 217.542 278.638 216.805 261.098 211.106L292 116L387.106 85.0983Z" fill="#038C8C"/>
<path d="M261.098 211.106C241.014 204.58 223.511 191.863 211.098 174.779L292 116L261.098 211.106Z" fill="#31BAAE"/>
<path d="M211.098 174.779C196.148 154.201 189.601 128.701 192.789 103.467L292 116L211.098 174.779Z" fill="#5BDCC6"/>
<path d="M192.745 103.813C195.058 84.9784 202.682 67.1904 214.727 52.5269C226.771 37.8634 242.74 26.9297 260.767 21.0028L292 116L192.745 103.813Z" fill="#94F3DA"/>
<path d="M260.27 21.1676C270.721 17.6707 281.678 15.9255 292.698 16.0024L292 116L260.27 21.1676Z" fill="#C8F9E8"/>
<circle cx="544" cy="136" r="120" fill="#C8F9E8"/>
<path d="M544 16C569.342 16 594.033 24.0226 614.534 38.918C635.036 53.8133 650.296 74.8168 658.127 98.918L544 136V16Z" fill="#026E78"/>
<path d="M658.127 98.918C664.966 119.965 665.851 142.494 660.684 164.013C655.518 185.533 644.502 205.204 628.853 220.853C613.204 236.502 593.533 247.518 572.013 252.684C550.494 257.851 527.966 256.966 506.918 250.127L544 136L658.127 98.918Z" fill="#038C8C"/>
<path d="M506.918 250.127C482.817 242.296 461.813 227.036 446.918 206.534L544 136L506.918 250.127Z" fill="#31BAAE"/>
<path d="M446.918 206.534C428.978 181.842 421.121 151.241 424.946 120.96L544 136L446.918 206.534Z" fill="#5BDCC6"/>
<path d="M424.894 121.376C427.67 98.774 436.818 77.4285 451.272 59.8323C465.726 42.2361 484.888 29.1156 506.52 22.0034L544 136L424.894 121.376Z" fill="#94F3DA"/>
<path d="M505.923 22.2011C518.465 18.0049 531.613 15.9106 544.838 16.0029L544 136L505.923 22.2011Z" fill="#C8F9E8"/>
<circle cx="836" cy="156" r="140" fill="#C8F9E8"/>
<path d="M836 16C865.565 16 894.371 25.3597 918.29 42.7376C942.209 60.1156 960.012 84.6196 969.148 112.738L836 156V16Z" fill="#026E78"/>
<path d="M969.148 112.738C977.126 137.293 978.159 163.577 972.132 188.682C966.104 213.788 953.252 236.738 934.995 254.995C916.738 273.252 893.788 286.104 868.682 292.132C843.577 298.159 817.293 297.126 792.738 289.148L836 156L969.148 112.738Z" fill="#038C8C"/>
<path d="M792.738 289.148C764.62 280.012 740.116 262.209 722.738 238.29L836 156L792.738 289.148Z" fill="#31BAAE"/>
<path d="M722.738 238.29C701.807 209.482 692.641 173.781 697.104 138.453L836 156L722.738 238.29Z" fill="#5BDCC6"/>
<path d="M697.044 138.938C700.281 112.57 710.955 87.6666 727.817 67.1377C744.68 46.6088 767.036 31.3016 792.273 23.0039L836 156L697.044 138.938Z" fill="#94F3DA"/>
<path d="M791.577 23.2347C806.209 18.339 821.549 15.8957 836.977 16.0034L836 156L791.577 23.2347Z" fill="#C8F9E8"/>
<circle cx="80" cy="96" r="80" fill="#C8F9E8"/>
<path d="M80 16C96.8943 16 113.355 21.3484 127.023 31.2786C140.691 41.2089 150.864 55.2112 156.085 71.2786L80 96V16Z" fill="#026E78"/>
<path d="M156.085 71.2786C160.644 85.3103 161.234 100.329 157.79 114.676C154.345 129.022 147.001 142.136 136.569 152.569C126.136 163.001 113.022 170.345 98.6757 173.79C84.3295 177.234 69.3104 176.644 55.2787 172.085L80 96L156.085 71.2786Z" fill="#038C8C"/>
<path d="M55.2786 172.085C39.2112 166.864 25.2089 156.691 15.2786 143.023L80 96L55.2786 172.085Z" fill="#31BAAE"/>
<path d="M15.2786 143.023C3.31853 126.561 -1.91943 106.161 0.630825 85.9733L80 96L15.2786 143.023Z" fill="#5BDCC6"/>
<path d="M0.596309 86.2504C2.4464 71.1827 8.54553 56.9524 18.1813 45.2216C27.8171 33.4908 40.5918 24.7438 55.0132 20.0022L80 96L0.596309 86.2504Z" fill="#94F3DA"/>
<path d="M54.6157 20.1341C62.9765 17.3366 71.7423 15.9404 80.5585 16.0019L80 96L54.6157 20.1341Z" fill="#C8F9E8"/>
</svg>
