<svg width="362" height="100" viewBox="0 0 362 100" fill="none" xmlns="http://www.w3.org/2000/svg">
<rect x="0.5" y="0.5" width="361" height="99" rx="4.5" stroke="#7B61FF" stroke-dasharray="10 5"/>
<circle cx="20" cy="26" r="4" fill="#026E78"/>
<path d="M33.232 32V22.13H37.25C38.286 22.13 39.084 22.382 39.644 22.886C40.204 23.3807 40.484 24.0713 40.484 24.958C40.484 25.826 40.204 26.5167 39.644 27.03C39.084 27.534 38.286 27.786 37.25 27.786H34.394V32H33.232ZM34.394 26.82H37.138C37.8567 26.82 38.398 26.6567 38.762 26.33C39.1353 26.0033 39.322 25.546 39.322 24.958C39.322 24.3607 39.1353 23.8987 38.762 23.572C38.398 23.2453 37.8567 23.082 37.138 23.082H34.394V26.82ZM44.5573 32.126C43.932 32.126 43.386 31.9813 42.9193 31.692C42.4527 31.3933 42.0887 30.9733 41.8273 30.432C41.5753 29.8907 41.4493 29.242 41.4493 28.486C41.4493 27.7207 41.5753 27.0673 41.8273 26.526C42.0887 25.9847 42.4527 25.5693 42.9193 25.28C43.386 24.9907 43.932 24.846 44.5573 24.846C45.192 24.846 45.738 25.0093 46.1953 25.336C46.662 25.6533 46.97 26.0873 47.1193 26.638H46.9513L47.1053 24.972H48.1973C48.1693 25.2427 48.1413 25.518 48.1133 25.798C48.0947 26.0687 48.0853 26.3347 48.0853 26.596V32H46.9513V30.348H47.1053C46.956 30.8987 46.648 31.3327 46.1813 31.65C45.7147 31.9673 45.1733 32.126 44.5573 32.126ZM44.7813 31.202C45.4533 31.202 45.9853 30.9733 46.3773 30.516C46.7693 30.0493 46.9653 29.3727 46.9653 28.486C46.9653 27.59 46.7693 26.9133 46.3773 26.456C45.9853 25.9893 45.4533 25.756 44.7813 25.756C44.1187 25.756 43.5867 25.9893 43.1853 26.456C42.7933 26.9133 42.5973 27.59 42.5973 28.486C42.5973 29.3727 42.7933 30.0493 43.1853 30.516C43.5867 30.9733 44.1187 31.202 44.7813 31.202ZM50.2499 32V26.666C50.2499 26.386 50.2405 26.1013 50.2219 25.812C50.2125 25.5227 50.1939 25.2427 50.1659 24.972H51.2579L51.3979 26.68L51.2019 26.694C51.2952 26.274 51.4585 25.9287 51.6919 25.658C51.9252 25.3873 52.2005 25.1867 52.5179 25.056C52.8352 24.916 53.1665 24.846 53.5119 24.846C53.6519 24.846 53.7732 24.8507 53.8759 24.86C53.9879 24.8693 54.0905 24.8927 54.1839 24.93L54.1699 25.938C54.0299 25.8913 53.8992 25.8633 53.7779 25.854C53.6659 25.8353 53.5352 25.826 53.3859 25.826C52.9752 25.826 52.6159 25.924 52.3079 26.12C52.0092 26.316 51.7805 26.568 51.6219 26.876C51.4725 27.184 51.3979 27.5107 51.3979 27.856V32H50.2499ZM58.225 32.126C57.5343 32.126 57.007 31.93 56.643 31.538C56.279 31.1367 56.097 30.5347 56.097 29.732V25.854H54.725V24.972H56.097V23.054L57.231 22.732V24.972H59.247V25.854H57.231V29.606C57.231 30.166 57.3243 30.5673 57.511 30.81C57.707 31.0433 57.9963 31.16 58.379 31.16C58.5563 31.16 58.715 31.146 58.855 31.118C58.995 31.0807 59.121 31.0387 59.233 30.992V31.944C59.1023 32 58.9436 32.042 58.757 32.07C58.5796 32.1073 58.4023 32.126 58.225 32.126ZM64.9499 32V31.006H67.2739V23.124H67.8899L65.1739 24.818V23.656L67.5959 22.13H68.4359V31.006H70.6199V32H64.9499Z" fill="#667085"/>
<circle cx="20" cy="51" r="4" fill="#31BAAE"/>
<path d="M33.232 57V47.13H37.25C38.286 47.13 39.084 47.382 39.644 47.886C40.204 48.3807 40.484 49.0713 40.484 49.958C40.484 50.826 40.204 51.5167 39.644 52.03C39.084 52.534 38.286 52.786 37.25 52.786H34.394V57H33.232ZM34.394 51.82H37.138C37.8567 51.82 38.398 51.6567 38.762 51.33C39.1353 51.0033 39.322 50.546 39.322 49.958C39.322 49.3607 39.1353 48.8987 38.762 48.572C38.398 48.2453 37.8567 48.082 37.138 48.082H34.394V51.82ZM44.5573 57.126C43.932 57.126 43.386 56.9813 42.9193 56.692C42.4527 56.3933 42.0887 55.9733 41.8273 55.432C41.5753 54.8907 41.4493 54.242 41.4493 53.486C41.4493 52.7207 41.5753 52.0673 41.8273 51.526C42.0887 50.9847 42.4527 50.5693 42.9193 50.28C43.386 49.9907 43.932 49.846 44.5573 49.846C45.192 49.846 45.738 50.0093 46.1953 50.336C46.662 50.6533 46.97 51.0873 47.1193 51.638H46.9513L47.1053 49.972H48.1973C48.1693 50.2427 48.1413 50.518 48.1133 50.798C48.0947 51.0687 48.0853 51.3347 48.0853 51.596V57H46.9513V55.348H47.1053C46.956 55.8987 46.648 56.3327 46.1813 56.65C45.7147 56.9673 45.1733 57.126 44.5573 57.126ZM44.7813 56.202C45.4533 56.202 45.9853 55.9733 46.3773 55.516C46.7693 55.0493 46.9653 54.3727 46.9653 53.486C46.9653 52.59 46.7693 51.9133 46.3773 51.456C45.9853 50.9893 45.4533 50.756 44.7813 50.756C44.1187 50.756 43.5867 50.9893 43.1853 51.456C42.7933 51.9133 42.5973 52.59 42.5973 53.486C42.5973 54.3727 42.7933 55.0493 43.1853 55.516C43.5867 55.9733 44.1187 56.202 44.7813 56.202ZM50.2499 57V51.666C50.2499 51.386 50.2405 51.1013 50.2219 50.812C50.2125 50.5227 50.1939 50.2427 50.1659 49.972H51.2579L51.3979 51.68L51.2019 51.694C51.2952 51.274 51.4585 50.9287 51.6919 50.658C51.9252 50.3873 52.2005 50.1867 52.5179 50.056C52.8352 49.916 53.1665 49.846 53.5119 49.846C53.6519 49.846 53.7732 49.8507 53.8759 49.86C53.9879 49.8693 54.0905 49.8927 54.1839 49.93L54.1699 50.938C54.0299 50.8913 53.8992 50.8633 53.7779 50.854C53.6659 50.8353 53.5352 50.826 53.3859 50.826C52.9752 50.826 52.6159 50.924 52.3079 51.12C52.0092 51.316 51.7805 51.568 51.6219 51.876C51.4725 52.184 51.3979 52.5107 51.3979 52.856V57H50.2499ZM58.225 57.126C57.5343 57.126 57.007 56.93 56.643 56.538C56.279 56.1367 56.097 55.5347 56.097 54.732V50.854H54.725V49.972H56.097V48.054L57.231 47.732V49.972H59.247V50.854H57.231V54.606C57.231 55.166 57.3243 55.5673 57.511 55.81C57.707 56.0433 57.9963 56.16 58.379 56.16C58.5563 56.16 58.715 56.146 58.855 56.118C58.995 56.0807 59.121 56.0387 59.233 55.992V56.944C59.1023 57 58.9436 57.042 58.757 57.07C58.5796 57.1073 58.4023 57.126 58.225 57.126ZM64.3759 57V56.132L67.8759 52.478C68.3332 52.002 68.6739 51.5493 68.8979 51.12C69.1312 50.6813 69.2479 50.2287 69.2479 49.762C69.2479 49.1927 69.0705 48.7633 68.7159 48.474C68.3612 48.1753 67.8479 48.026 67.1759 48.026C66.6532 48.026 66.1679 48.1193 65.7199 48.306C65.2812 48.4833 64.8565 48.768 64.4459 49.16L64.0259 48.25C64.3992 47.8767 64.8752 47.578 65.4539 47.354C66.0325 47.1207 66.6439 47.004 67.2879 47.004C68.2865 47.004 69.0565 47.2373 69.5979 47.704C70.1392 48.1613 70.4099 48.8147 70.4099 49.664C70.4099 50.2893 70.2559 50.8867 69.9479 51.456C69.6492 52.016 69.2105 52.5947 68.6319 53.192L65.5379 56.328V56.006H70.8299V57H64.3759Z" fill="#667085"/>
<circle cx="20" cy="76" r="4" fill="#003C51"/>
<path d="M33.232 82V72.13H37.25C38.286 72.13 39.084 72.382 39.644 72.886C40.204 73.3807 40.484 74.0713 40.484 74.958C40.484 75.826 40.204 76.5167 39.644 77.03C39.084 77.534 38.286 77.786 37.25 77.786H34.394V82H33.232ZM34.394 76.82H37.138C37.8567 76.82 38.398 76.6567 38.762 76.33C39.1353 76.0033 39.322 75.546 39.322 74.958C39.322 74.3607 39.1353 73.8987 38.762 73.572C38.398 73.2453 37.8567 73.082 37.138 73.082H34.394V76.82ZM44.5573 82.126C43.932 82.126 43.386 81.9813 42.9193 81.692C42.4527 81.3933 42.0887 80.9733 41.8273 80.432C41.5753 79.8907 41.4493 79.242 41.4493 78.486C41.4493 77.7207 41.5753 77.0673 41.8273 76.526C42.0887 75.9847 42.4527 75.5693 42.9193 75.28C43.386 74.9907 43.932 74.846 44.5573 74.846C45.192 74.846 45.738 75.0093 46.1953 75.336C46.662 75.6533 46.97 76.0873 47.1193 76.638H46.9513L47.1053 74.972H48.1973C48.1693 75.2427 48.1413 75.518 48.1133 75.798C48.0947 76.0687 48.0853 76.3347 48.0853 76.596V82H46.9513V80.348H47.1053C46.956 80.8987 46.648 81.3327 46.1813 81.65C45.7147 81.9673 45.1733 82.126 44.5573 82.126ZM44.7813 81.202C45.4533 81.202 45.9853 80.9733 46.3773 80.516C46.7693 80.0493 46.9653 79.3727 46.9653 78.486C46.9653 77.59 46.7693 76.9133 46.3773 76.456C45.9853 75.9893 45.4533 75.756 44.7813 75.756C44.1187 75.756 43.5867 75.9893 43.1853 76.456C42.7933 76.9133 42.5973 77.59 42.5973 78.486C42.5973 79.3727 42.7933 80.0493 43.1853 80.516C43.5867 80.9733 44.1187 81.202 44.7813 81.202ZM50.2499 82V76.666C50.2499 76.386 50.2405 76.1013 50.2219 75.812C50.2125 75.5227 50.1939 75.2427 50.1659 74.972H51.2579L51.3979 76.68L51.2019 76.694C51.2952 76.274 51.4585 75.9287 51.6919 75.658C51.9252 75.3873 52.2005 75.1867 52.5179 75.056C52.8352 74.916 53.1665 74.846 53.5119 74.846C53.6519 74.846 53.7732 74.8507 53.8759 74.86C53.9879 74.8693 54.0905 74.8927 54.1839 74.93L54.1699 75.938C54.0299 75.8913 53.8992 75.8633 53.7779 75.854C53.6659 75.8353 53.5352 75.826 53.3859 75.826C52.9752 75.826 52.6159 75.924 52.3079 76.12C52.0092 76.316 51.7805 76.568 51.6219 76.876C51.4725 77.184 51.3979 77.5107 51.3979 77.856V82H50.2499ZM58.225 82.126C57.5343 82.126 57.007 81.93 56.643 81.538C56.279 81.1367 56.097 80.5347 56.097 79.732V75.854H54.725V74.972H56.097V73.054L57.231 72.732V74.972H59.247V75.854H57.231V79.606C57.231 80.166 57.3243 80.5673 57.511 80.81C57.707 81.0433 57.9963 81.16 58.379 81.16C58.5563 81.16 58.715 81.146 58.855 81.118C58.995 81.0807 59.121 81.0387 59.233 80.992V81.944C59.1023 82 58.9436 82.042 58.757 82.07C58.5796 82.1073 58.4023 82.126 58.225 82.126ZM67.3159 82.126C66.6532 82.126 66.0185 82.0233 65.4119 81.818C64.8052 81.6127 64.2965 81.3187 63.8859 80.936L64.3199 80.04C64.7772 80.4133 65.2485 80.684 65.7339 80.852C66.2192 81.02 66.7419 81.104 67.3019 81.104C68.0392 81.104 68.5992 80.95 68.9819 80.642C69.3645 80.3247 69.5559 79.8627 69.5559 79.256C69.5559 78.6773 69.3599 78.2387 68.9679 77.94C68.5759 77.632 68.0019 77.478 67.2459 77.478H65.7619V76.512H67.1479C67.8012 76.512 68.3192 76.344 68.7019 76.008C69.0845 75.672 69.2759 75.2147 69.2759 74.636C69.2759 74.1133 69.0985 73.7167 68.7439 73.446C68.3985 73.166 67.8992 73.026 67.2459 73.026C66.1819 73.026 65.2625 73.404 64.4879 74.16L64.0539 73.25C64.4365 72.858 64.9172 72.5547 65.4959 72.34C66.0745 72.116 66.6812 72.004 67.3159 72.004C68.2865 72.004 69.0472 72.228 69.5979 72.676C70.1485 73.124 70.4239 73.7447 70.4239 74.538C70.4239 75.1447 70.2512 75.6673 69.9059 76.106C69.5605 76.5353 69.0939 76.8293 68.5059 76.988V76.834C69.2059 76.946 69.7472 77.226 70.1299 77.674C70.5125 78.1127 70.7039 78.668 70.7039 79.34C70.7039 80.1987 70.4005 80.88 69.7939 81.384C69.1965 81.8787 68.3705 82.126 67.3159 82.126Z" fill="#667085"/>
<circle cx="116" cy="26.5" r="4" fill="#026E78"/>
<path d="M129.232 32V22.13H133.25C134.286 22.13 135.084 22.382 135.644 22.886C136.204 23.3807 136.484 24.0713 136.484 24.958C136.484 25.826 136.204 26.5167 135.644 27.03C135.084 27.534 134.286 27.786 133.25 27.786H130.394V32H129.232ZM130.394 26.82H133.138C133.857 26.82 134.398 26.6567 134.762 26.33C135.135 26.0033 135.322 25.546 135.322 24.958C135.322 24.3607 135.135 23.8987 134.762 23.572C134.398 23.2453 133.857 23.082 133.138 23.082H130.394V26.82ZM140.557 32.126C139.932 32.126 139.386 31.9813 138.919 31.692C138.453 31.3933 138.089 30.9733 137.827 30.432C137.575 29.8907 137.449 29.242 137.449 28.486C137.449 27.7207 137.575 27.0673 137.827 26.526C138.089 25.9847 138.453 25.5693 138.919 25.28C139.386 24.9907 139.932 24.846 140.557 24.846C141.192 24.846 141.738 25.0093 142.195 25.336C142.662 25.6533 142.97 26.0873 143.119 26.638H142.951L143.105 24.972H144.197C144.169 25.2427 144.141 25.518 144.113 25.798C144.095 26.0687 144.085 26.3347 144.085 26.596V32H142.951V30.348H143.105C142.956 30.8987 142.648 31.3327 142.181 31.65C141.715 31.9673 141.173 32.126 140.557 32.126ZM140.781 31.202C141.453 31.202 141.985 30.9733 142.377 30.516C142.769 30.0493 142.965 29.3727 142.965 28.486C142.965 27.59 142.769 26.9133 142.377 26.456C141.985 25.9893 141.453 25.756 140.781 25.756C140.119 25.756 139.587 25.9893 139.185 26.456C138.793 26.9133 138.597 27.59 138.597 28.486C138.597 29.3727 138.793 30.0493 139.185 30.516C139.587 30.9733 140.119 31.202 140.781 31.202ZM146.25 32V26.666C146.25 26.386 146.241 26.1013 146.222 25.812C146.213 25.5227 146.194 25.2427 146.166 24.972H147.258L147.398 26.68L147.202 26.694C147.295 26.274 147.459 25.9287 147.692 25.658C147.925 25.3873 148.201 25.1867 148.518 25.056C148.835 24.916 149.167 24.846 149.512 24.846C149.652 24.846 149.773 24.8507 149.876 24.86C149.988 24.8693 150.091 24.8927 150.184 24.93L150.17 25.938C150.03 25.8913 149.899 25.8633 149.778 25.854C149.666 25.8353 149.535 25.826 149.386 25.826C148.975 25.826 148.616 25.924 148.308 26.12C148.009 26.316 147.781 26.568 147.622 26.876C147.473 27.184 147.398 27.5107 147.398 27.856V32H146.25ZM154.225 32.126C153.534 32.126 153.007 31.93 152.643 31.538C152.279 31.1367 152.097 30.5347 152.097 29.732V25.854H150.725V24.972H152.097V23.054L153.231 22.732V24.972H155.247V25.854H153.231V29.606C153.231 30.166 153.324 30.5673 153.511 30.81C153.707 31.0433 153.996 31.16 154.379 31.16C154.556 31.16 154.715 31.146 154.855 31.118C154.995 31.0807 155.121 31.0387 155.233 30.992V31.944C155.102 32 154.944 32.042 154.757 32.07C154.58 32.1073 154.402 32.126 154.225 32.126ZM160.95 32V31.006H163.274V23.124H163.89L161.174 24.818V23.656L163.596 22.13H164.436V31.006H166.62V32H160.95Z" fill="#667085"/>
<circle cx="185" cy="26.5" r="4" fill="#31BAAE"/>
<path d="M198.232 32V22.13H202.25C203.286 22.13 204.084 22.382 204.644 22.886C205.204 23.3807 205.484 24.0713 205.484 24.958C205.484 25.826 205.204 26.5167 204.644 27.03C204.084 27.534 203.286 27.786 202.25 27.786H199.394V32H198.232ZM199.394 26.82H202.138C202.857 26.82 203.398 26.6567 203.762 26.33C204.135 26.0033 204.322 25.546 204.322 24.958C204.322 24.3607 204.135 23.8987 203.762 23.572C203.398 23.2453 202.857 23.082 202.138 23.082H199.394V26.82ZM209.557 32.126C208.932 32.126 208.386 31.9813 207.919 31.692C207.453 31.3933 207.089 30.9733 206.827 30.432C206.575 29.8907 206.449 29.242 206.449 28.486C206.449 27.7207 206.575 27.0673 206.827 26.526C207.089 25.9847 207.453 25.5693 207.919 25.28C208.386 24.9907 208.932 24.846 209.557 24.846C210.192 24.846 210.738 25.0093 211.195 25.336C211.662 25.6533 211.97 26.0873 212.119 26.638H211.951L212.105 24.972H213.197C213.169 25.2427 213.141 25.518 213.113 25.798C213.095 26.0687 213.085 26.3347 213.085 26.596V32H211.951V30.348H212.105C211.956 30.8987 211.648 31.3327 211.181 31.65C210.715 31.9673 210.173 32.126 209.557 32.126ZM209.781 31.202C210.453 31.202 210.985 30.9733 211.377 30.516C211.769 30.0493 211.965 29.3727 211.965 28.486C211.965 27.59 211.769 26.9133 211.377 26.456C210.985 25.9893 210.453 25.756 209.781 25.756C209.119 25.756 208.587 25.9893 208.185 26.456C207.793 26.9133 207.597 27.59 207.597 28.486C207.597 29.3727 207.793 30.0493 208.185 30.516C208.587 30.9733 209.119 31.202 209.781 31.202ZM215.25 32V26.666C215.25 26.386 215.241 26.1013 215.222 25.812C215.213 25.5227 215.194 25.2427 215.166 24.972H216.258L216.398 26.68L216.202 26.694C216.295 26.274 216.459 25.9287 216.692 25.658C216.925 25.3873 217.201 25.1867 217.518 25.056C217.835 24.916 218.167 24.846 218.512 24.846C218.652 24.846 218.773 24.8507 218.876 24.86C218.988 24.8693 219.091 24.8927 219.184 24.93L219.17 25.938C219.03 25.8913 218.899 25.8633 218.778 25.854C218.666 25.8353 218.535 25.826 218.386 25.826C217.975 25.826 217.616 25.924 217.308 26.12C217.009 26.316 216.781 26.568 216.622 26.876C216.473 27.184 216.398 27.5107 216.398 27.856V32H215.25ZM223.225 32.126C222.534 32.126 222.007 31.93 221.643 31.538C221.279 31.1367 221.097 30.5347 221.097 29.732V25.854H219.725V24.972H221.097V23.054L222.231 22.732V24.972H224.247V25.854H222.231V29.606C222.231 30.166 222.324 30.5673 222.511 30.81C222.707 31.0433 222.996 31.16 223.379 31.16C223.556 31.16 223.715 31.146 223.855 31.118C223.995 31.0807 224.121 31.0387 224.233 30.992V31.944C224.102 32 223.944 32.042 223.757 32.07C223.58 32.1073 223.402 32.126 223.225 32.126ZM229.376 32V31.132L232.876 27.478C233.333 27.002 233.674 26.5493 233.898 26.12C234.131 25.6813 234.248 25.2287 234.248 24.762C234.248 24.1927 234.071 23.7633 233.716 23.474C233.361 23.1753 232.848 23.026 232.176 23.026C231.653 23.026 231.168 23.1193 230.72 23.306C230.281 23.4833 229.857 23.768 229.446 24.16L229.026 23.25C229.399 22.8767 229.875 22.578 230.454 22.354C231.033 22.1207 231.644 22.004 232.288 22.004C233.287 22.004 234.057 22.2373 234.598 22.704C235.139 23.1613 235.41 23.8147 235.41 24.664C235.41 25.2893 235.256 25.8867 234.948 26.456C234.649 27.016 234.211 27.5947 233.632 28.192L230.538 31.328V31.006H235.83V32H229.376Z" fill="#667085"/>
<circle cx="254" cy="26.5" r="4" fill="#003C51"/>
<path d="M267.232 32V22.13H271.25C272.286 22.13 273.084 22.382 273.644 22.886C274.204 23.3807 274.484 24.0713 274.484 24.958C274.484 25.826 274.204 26.5167 273.644 27.03C273.084 27.534 272.286 27.786 271.25 27.786H268.394V32H267.232ZM268.394 26.82H271.138C271.857 26.82 272.398 26.6567 272.762 26.33C273.135 26.0033 273.322 25.546 273.322 24.958C273.322 24.3607 273.135 23.8987 272.762 23.572C272.398 23.2453 271.857 23.082 271.138 23.082H268.394V26.82ZM278.557 32.126C277.932 32.126 277.386 31.9813 276.919 31.692C276.453 31.3933 276.089 30.9733 275.827 30.432C275.575 29.8907 275.449 29.242 275.449 28.486C275.449 27.7207 275.575 27.0673 275.827 26.526C276.089 25.9847 276.453 25.5693 276.919 25.28C277.386 24.9907 277.932 24.846 278.557 24.846C279.192 24.846 279.738 25.0093 280.195 25.336C280.662 25.6533 280.97 26.0873 281.119 26.638H280.951L281.105 24.972H282.197C282.169 25.2427 282.141 25.518 282.113 25.798C282.095 26.0687 282.085 26.3347 282.085 26.596V32H280.951V30.348H281.105C280.956 30.8987 280.648 31.3327 280.181 31.65C279.715 31.9673 279.173 32.126 278.557 32.126ZM278.781 31.202C279.453 31.202 279.985 30.9733 280.377 30.516C280.769 30.0493 280.965 29.3727 280.965 28.486C280.965 27.59 280.769 26.9133 280.377 26.456C279.985 25.9893 279.453 25.756 278.781 25.756C278.119 25.756 277.587 25.9893 277.185 26.456C276.793 26.9133 276.597 27.59 276.597 28.486C276.597 29.3727 276.793 30.0493 277.185 30.516C277.587 30.9733 278.119 31.202 278.781 31.202ZM284.25 32V26.666C284.25 26.386 284.241 26.1013 284.222 25.812C284.213 25.5227 284.194 25.2427 284.166 24.972H285.258L285.398 26.68L285.202 26.694C285.295 26.274 285.459 25.9287 285.692 25.658C285.925 25.3873 286.201 25.1867 286.518 25.056C286.835 24.916 287.167 24.846 287.512 24.846C287.652 24.846 287.773 24.8507 287.876 24.86C287.988 24.8693 288.091 24.8927 288.184 24.93L288.17 25.938C288.03 25.8913 287.899 25.8633 287.778 25.854C287.666 25.8353 287.535 25.826 287.386 25.826C286.975 25.826 286.616 25.924 286.308 26.12C286.009 26.316 285.781 26.568 285.622 26.876C285.473 27.184 285.398 27.5107 285.398 27.856V32H284.25ZM292.225 32.126C291.534 32.126 291.007 31.93 290.643 31.538C290.279 31.1367 290.097 30.5347 290.097 29.732V25.854H288.725V24.972H290.097V23.054L291.231 22.732V24.972H293.247V25.854H291.231V29.606C291.231 30.166 291.324 30.5673 291.511 30.81C291.707 31.0433 291.996 31.16 292.379 31.16C292.556 31.16 292.715 31.146 292.855 31.118C292.995 31.0807 293.121 31.0387 293.233 30.992V31.944C293.102 32 292.944 32.042 292.757 32.07C292.58 32.1073 292.402 32.126 292.225 32.126ZM301.316 32.126C300.653 32.126 300.019 32.0233 299.412 31.818C298.805 31.6127 298.297 31.3187 297.886 30.936L298.32 30.04C298.777 30.4133 299.249 30.684 299.734 30.852C300.219 31.02 300.742 31.104 301.302 31.104C302.039 31.104 302.599 30.95 302.982 30.642C303.365 30.3247 303.556 29.8627 303.556 29.256C303.556 28.6773 303.36 28.2387 302.968 27.94C302.576 27.632 302.002 27.478 301.246 27.478H299.762V26.512H301.148C301.801 26.512 302.319 26.344 302.702 26.008C303.085 25.672 303.276 25.2147 303.276 24.636C303.276 24.1133 303.099 23.7167 302.744 23.446C302.399 23.166 301.899 23.026 301.246 23.026C300.182 23.026 299.263 23.404 298.488 24.16L298.054 23.25C298.437 22.858 298.917 22.5547 299.496 22.34C300.075 22.116 300.681 22.004 301.316 22.004C302.287 22.004 303.047 22.228 303.598 22.676C304.149 23.124 304.424 23.7447 304.424 24.538C304.424 25.1447 304.251 25.6673 303.906 26.106C303.561 26.5353 303.094 26.8293 302.506 26.988V26.834C303.206 26.946 303.747 27.226 304.13 27.674C304.513 28.1127 304.704 28.668 304.704 29.34C304.704 30.1987 304.401 30.88 303.794 31.384C303.197 31.8787 302.371 32.126 301.316 32.126Z" fill="#667085"/>
</svg>
