<svg width="1008" height="373" viewBox="0 0 1008 373" fill="none" xmlns="http://www.w3.org/2000/svg">
<rect x="0.5" y="0.5" width="1007" height="372" rx="4.5" stroke="#7B61FF" stroke-dasharray="10 5"/>
<path d="M560 24C585.635 24 610.494 32.7939 630.427 48.9134C650.359 65.0329 664.159 87.5024 669.522 112.57C674.885 137.638 671.486 163.787 659.893 186.65C648.3 209.514 629.214 227.709 605.823 238.197C582.432 248.685 556.15 250.832 531.367 244.278C506.584 237.725 484.799 222.868 469.65 202.188C454.501 181.509 446.904 156.258 448.128 130.652C449.352 105.046 459.323 80.6356 476.376 61.4953" stroke="#003C51" stroke-width="16" stroke-linecap="round" stroke-linejoin="round"/>
<path d="M560 44C578.791 44 597.132 49.7544 612.556 60.4892C627.979 71.224 639.746 86.4243 646.272 104.046C652.799 121.668 653.773 140.865 649.064 159.057C644.354 177.249 634.187 193.562 619.929 205.803C605.672 218.044 588.008 225.625 569.313 227.527C550.618 229.43 531.789 225.561 515.358 216.443C498.927 207.325 485.682 193.393 477.405 176.523C469.128 159.653 466.216 140.652 469.06 122.077" stroke="#026E78" stroke-width="16" stroke-linecap="round" stroke-linejoin="round"/>
<path d="M560 64C572.526 64 584.835 67.2678 595.712 73.4807C606.588 79.6936 615.656 88.6365 622.019 99.4261C628.382 110.216 631.82 122.478 631.993 135.003C632.167 147.528 629.069 159.881 623.008 170.843C616.946 181.805 608.129 190.995 597.429 197.507C586.729 204.018 574.514 207.626 561.993 207.972C549.472 208.319 537.077 205.393 526.033 199.484C514.988 193.575 505.676 184.886 499.017 174.277" stroke="#31BAAE" stroke-width="16" stroke-linecap="round" stroke-linejoin="round"/>
<path d="M852 25C881.984 25 911.06 35.2857 934.374 54.1398C957.688 72.9939 973.829 99.2751 980.101 128.595C986.374 157.916 982.398 188.5 968.839 215.243C955.279 241.985 932.956 263.267 905.596 275.534C878.237 287.802 847.497 290.312 818.51 282.647C789.523 274.982 764.042 257.604 746.323 233.417C728.603 209.229 719.718 179.694 721.149 149.745C722.581 119.795 734.243 91.2434 754.189 68.8561" stroke="#003C51" stroke-width="18" stroke-linecap="round" stroke-linejoin="round"/>
<path d="M852 49C873.855 49 895.187 55.6926 913.125 68.1776C931.063 80.6626 944.748 98.3413 952.339 118.836C959.93 139.331 961.063 161.658 955.585 182.816C950.108 203.974 938.283 222.947 921.701 237.184C905.118 251.421 884.574 260.238 862.831 262.45C841.088 264.663 819.189 260.164 800.079 249.559C780.969 238.954 765.565 222.751 755.939 203.13C746.312 183.509 742.925 161.411 746.232 139.807" stroke="#026E78" stroke-width="18" stroke-linecap="round" stroke-linejoin="round"/>
<path d="M852 73C866.44 73 880.63 76.7671 893.168 83.9291C905.706 91.0912 916.159 101.4 923.494 113.838C930.829 126.276 934.792 140.413 934.992 154.851C935.192 169.289 931.622 183.53 924.634 196.166C917.646 208.802 907.483 219.397 895.147 226.904C882.812 234.41 868.732 238.568 854.298 238.968C839.864 239.368 825.575 235.995 812.843 229.183C800.111 222.371 789.377 212.355 781.701 200.125" stroke="#31BAAE" stroke-width="18" stroke-linecap="round" stroke-linejoin="round"/>
<path d="M308 22C329.515 22 350.379 29.3806 367.108 42.9095C383.837 56.4384 395.419 75.2967 399.92 96.3357C404.421 117.375 401.568 139.321 391.838 158.51C382.109 177.699 366.09 192.97 346.459 201.773C326.827 210.575 304.769 212.377 283.969 206.876C263.169 201.376 244.885 188.907 232.171 171.551C219.456 154.195 213.08 133.002 214.107 111.512C215.135 90.0211 223.503 69.5334 237.815 53.4693" stroke="#003C51" stroke-width="12" stroke-linecap="round" stroke-linejoin="round"/>
<path d="M309 40C324.728 40 340.078 44.8161 352.987 53.8007C365.896 62.7853 375.744 75.5073 381.206 90.2558C386.669 105.004 387.484 121.072 383.543 136.298C379.601 151.523 371.091 165.177 359.158 175.422C347.225 185.667 332.441 192.012 316.794 193.604C301.148 195.197 285.388 191.959 271.636 184.327C257.884 176.696 246.799 165.036 239.872 150.916C232.944 136.796 230.507 120.894 232.887 105.347" stroke="#026E78" stroke-width="12" stroke-linecap="round" stroke-linejoin="round"/>
<path d="M309 56C319.612 56 330.041 58.7686 339.256 64.0323C348.471 69.2959 356.153 76.8726 361.544 86.0137C366.935 95.1549 369.847 105.544 369.994 116.156C370.141 126.767 367.517 137.233 362.382 146.52C357.246 155.807 349.776 163.593 340.711 169.11C331.645 174.627 321.297 177.683 310.689 177.977C300.081 178.27 289.579 175.792 280.222 170.785C270.865 165.779 262.976 158.417 257.334 149.429" stroke="#31BAAE" stroke-width="12" stroke-linecap="round" stroke-linejoin="round"/>
<path d="M96 20C113.395 20 130.264 25.9673 143.79 36.9055C157.315 47.8438 166.679 63.0909 170.318 80.1012C173.957 97.1114 171.651 114.855 163.784 130.37C155.918 145.885 142.967 158.231 127.094 165.348C111.221 172.465 93.3878 173.922 76.5707 169.475C59.7536 165.027 44.971 154.946 34.6911 140.913C24.4111 126.881 19.2561 109.746 20.0867 92.3711C20.9173 74.9958 27.6832 58.4313 39.2548 45.4433" stroke="#003C51" stroke-width="8" stroke-linecap="round" stroke-linejoin="round"/>
<path d="M96 32C109.072 32 121.831 36.003 132.561 43.4707C143.29 50.9384 151.475 61.5126 156.016 73.7711C160.556 86.0296 161.234 99.3845 157.957 112.04C154.681 124.695 147.608 136.043 137.69 144.559C127.772 153.074 115.484 158.348 102.478 159.671C89.4733 160.995 76.3747 158.304 64.9445 151.96C53.5144 145.617 44.3007 135.926 38.5428 124.19C32.7849 112.454 30.7588 99.2362 32.7371 86.3145" stroke="#026E78" stroke-width="8" stroke-linecap="round" stroke-linejoin="round"/>
<path d="M96 44C105.047 44 113.937 46.3601 121.792 50.8472C129.647 55.3342 136.196 61.793 140.791 69.5855C145.387 77.3779 147.87 86.2345 147.995 95.2801C148.12 104.326 145.883 113.248 141.506 121.164C137.128 129.081 130.76 135.719 123.032 140.421C115.304 145.124 106.483 147.73 97.4396 147.98C88.3965 148.231 79.4446 146.117 71.468 141.85C63.4915 137.582 56.7664 131.307 51.957 123.644" stroke="#31BAAE" stroke-width="8" stroke-linecap="round" stroke-linejoin="round"/>
</svg>
